<svg xmlns="http://www.w3.org/2000/svg" viewBox="0 0 1228 340" width="1228" height="340">
  <defs>
    <!-- ================= SYMBOLS ================= -->
    <symbol id="dailbert" viewBox="0 0 120 180">
      <g fill="none" stroke="#111" stroke-width="2.5" stroke-linecap="round" stroke-linejoin="round">
        <path d="M36,150 L42,86 Q58,78 74,86 L80,150 Z" fill="#ffffff"/>
        <path d="M58,88 L54,112 L62,112 Z" fill="#111"/>
        <path d="M50,86 L58,94 L66,86" fill="none"/>
        <ellipse cx="58" cy="48" rx="25" ry="29" fill="#f4f1ea"/>
        <path d="M58,20 q9,-11 15,-3 q4,6 -3,9" fill="none"/>
        <circle cx="48" cy="49" r="9" fill="#ffffff"/>
        <circle cx="68" cy="49" r="9" fill="#ffffff"/>
        <line x1="57" y1="49" x2="59" y2="49"/>
        <circle cx="48" cy="49" r="2.2" fill="#111" stroke="none"/>
        <circle cx="68" cy="49" r="2.2" fill="#111" stroke="none"/>
        <path d="M60,58 q3,3 0,5"/>
        <path d="M50,68 q8,4 16,0"/>
      </g>
    </symbol>

    <symbol id="doug" viewBox="0 0 140 180">
      <g fill="none" stroke="#111" stroke-width="2.5" stroke-linecap="round" stroke-linejoin="round">
        <path d="M38,152 L44,88 Q60,80 76,88 L82,152 Z" fill="#ffffff"/>
        <path d="M50,84 L60,92 L70,84"/>
        <path d="M78,94 Q100,104 110,118" fill="none"/>
        <circle cx="60" cy="48" r="32" fill="#f4f1ea"/>
        <circle cx="50" cy="44" r="2.6" fill="#111" stroke="none"/>
        <circle cx="70" cy="44" r="2.6" fill="#111" stroke="none"/>
        <path d="M44,56 Q60,74 76,56"/>
        <rect x="104" y="116" width="24" height="21" rx="2" fill="#ffffff"/>
        <path d="M128,120 q9,2 8,10 q-1,6 -8,5"/>
        <path d="M110,111 q2,-6 6,-2 M118,111 q2,-6 6,-2"/>
      </g>
    </symbol>

    <symbol id="priya" viewBox="0 0 140 190">
      <g fill="none" stroke="#111" stroke-width="2.5" stroke-linecap="round" stroke-linejoin="round">
        <path d="M34,168 L40,92 Q62,82 84,92 L90,168 Z" fill="#ffffff"/>
        <path d="M42,100 Q30,130 34,158" />
        <path d="M82,100 Q98,128 92,150" />
        <path d="M42,118 Q60,128 78,118"/>
        <ellipse cx="62" cy="54" rx="26" ry="28" fill="#f4f1ea"/>
        <path d="M36,54 Q30,26 52,20 Q56,8 72,14 Q90,12 88,34 Q92,48 86,58 Q88,40 76,34 Q60,40 44,34 Q36,42 38,58 Z" fill="#111" stroke="#111"/>
        <circle cx="50" cy="16" r="9" fill="#111"/>
        <circle cx="66" cy="10" r="9" fill="#111"/>
        <circle cx="78" cy="18" r="8" fill="#111"/>
        <rect x="45" y="50" width="16" height="11" rx="2" fill="#ffffff"/>
        <rect x="66" y="50" width="16" height="11" rx="2" fill="#ffffff"/>
        <line x1="61" y1="55" x2="66" y2="55"/>
        <circle cx="53" cy="55.5" r="1.8" fill="#111" stroke="none"/>
        <circle cx="74" cy="55.5" r="1.8" fill="#111" stroke="none"/>
        <path d="M54,70 q9,4 16,-1"/>
      </g>
    </symbol>

    <symbol id="clanker" viewBox="0 0 100 92">
      <g fill="none" stroke="#111" stroke-width="2.5" stroke-linecap="round" stroke-linejoin="round">
        <line x1="50" y1="6" x2="50" y2="18"/>
        <circle cx="50" cy="5" r="3.4" fill="#111"/>
        <rect x="20" y="18" width="60" height="58" rx="7" fill="#cfccc4"/>
        <rect x="26" y="23" width="48" height="8" rx="3" fill="#e6e3db"/>
        <rect x="30" y="40" width="15" height="9" rx="3" fill="#f7f4ec"/>
        <rect x="55" y="40" width="15" height="9" rx="3" fill="#f7f4ec"/>
        <line x1="33" y1="44.5" x2="42" y2="44.5" stroke-width="2"/>
        <line x1="58" y1="44.5" x2="67" y2="44.5" stroke-width="2"/>
        <rect x="34" y="58" width="32" height="11" rx="2" fill="#ffffff"/>
        <line x1="41" y1="58" x2="41" y2="69"/>
        <line x1="48" y1="58" x2="48" y2="69"/>
        <line x1="55" y1="58" x2="55" y2="69"/>
      </g>
    </symbol>
  </defs>

  <!-- ================= PAGE ================= -->
  <rect x="0" y="0" width="1228" height="340" fill="#f4f1ea"/>

  <!-- ---------- PANEL 1 ---------- -->
  <g>
    <rect x="2" y="2" width="396" height="336" rx="3" fill="#f4f1ea" stroke="#111" stroke-width="2.5"/>
    <line x1="14" y1="300" x2="386" y2="300" stroke="#111" stroke-width="2" opacity="0.35"/>
    <use href="#doug" x="118" y="128" width="150" height="193"/>

    <path d="M120,30 h172 a16,16 0 0 1 16,16 v50 a16,16 0 0 1 -16,16 h-70 l-14,20 l-4,-20 h-84 a16,16 0 0 1 -16,-16 v-50 a16,16 0 0 1 16,-16 Z" fill="#ffffff" stroke="#111" stroke-width="2.5"/>
    <text x="206" y="54" font-family="'Comic Sans MS','Chalkboard SE','Comic Neue',sans-serif" font-size="14.5" text-anchor="middle" fill="#111">Clear my afternoon?</text>
    <text x="206" y="73" font-family="'Comic Sans MS','Chalkboard SE','Comic Neue',sans-serif" font-size="14.5" text-anchor="middle" fill="#111">I need to actually</text>
    <text x="206" y="92" font-family="'Comic Sans MS','Chalkboard SE','Comic Neue',sans-serif" font-size="14.5" text-anchor="middle" fill="#111">think for once.</text>
  </g>

  <!-- ---------- PANEL 2 ---------- -->
  <g>
    <rect x="416" y="2" width="396" height="336" rx="3" fill="#f4f1ea" stroke="#111" stroke-width="2.5"/>
    <line x1="428" y1="300" x2="800" y2="300" stroke="#111" stroke-width="2" opacity="0.35"/>

    <use href="#doug" x="432" y="168" width="118" height="152"/>

    <!-- monitor -->
    <rect x="648" y="150" width="150" height="120" rx="6" fill="#111"/>
    <rect x="654" y="156" width="138" height="108" rx="3" fill="#b9b6ad"/>
    <use href="#clanker" x="664" y="162" width="118" height="96"/>
    <rect x="700" y="270" width="46" height="10" rx="2" fill="#111"/>
    <rect x="686" y="280" width="74" height="8" rx="3" fill="#111"/>

    <!-- clanker balloon (screen-edged) + dashed link to screen -->
    <path d="M562,152 L640,132" stroke="#111" stroke-width="1.6" stroke-dasharray="4 4" fill="none"/>
    <rect x="428" y="22" width="256" height="94" rx="4" fill="#ffffff" stroke="#111" stroke-width="2.2" stroke-dasharray="7 3"/>
    <text x="556" y="46" font-family="'Comic Sans MS','Chalkboard SE','Comic Neue',sans-serif" font-size="14" text-anchor="middle" fill="#111">Done. I blocked off</text>
    <text x="556" y="64" font-family="'Comic Sans MS','Chalkboard SE','Comic Neue',sans-serif" font-size="14" text-anchor="middle" fill="#111">'Deep Thinking' and</text>
    <text x="556" y="82" font-family="'Comic Sans MS','Chalkboard SE','Comic Neue',sans-serif" font-size="14" text-anchor="middle" fill="#111">invited the whole team,</text>
    <text x="556" y="100" font-family="'Comic Sans MS','Chalkboard SE','Comic Neue',sans-serif" font-size="14" text-anchor="middle" fill="#111">so they'll respect it.</text>
  </g>

  <!-- ---------- PANEL 3 ---------- -->
  <g>
    <rect x="830" y="2" width="396" height="336" rx="3" fill="#f4f1ea" stroke="#111" stroke-width="2.5"/>
    <line x1="842" y1="300" x2="1214" y2="300" stroke="#111" stroke-width="2" opacity="0.35"/>

    <use href="#priya" x="860" y="120" width="150" height="203"/>
    <rect x="878" y="286" width="120" height="16" rx="2" fill="#ffffff" stroke="#111" stroke-width="2"/>
    <line x1="890" y1="294" x2="986" y2="294" stroke="#111" stroke-width="1.4"/>

    <use href="#doug" x="1074" y="176" width="112" height="144"/>

    <!-- Priya balloon -->
    <path d="M886,28 h150 a14,14 0 0 1 14,14 v30 a14,14 0 0 1 -14,14 h-84 l-14,18 l-2,-18 h-50 a14,14 0 0 1 -14,-14 v-30 a14,14 0 0 1 14,-14 Z" fill="#ffffff" stroke="#111" stroke-width="2.5"/>
    <text x="961" y="52" font-family="'Comic Sans MS','Chalkboard SE','Comic Neue',sans-serif" font-size="14.5" text-anchor="middle" fill="#111">Fixed. One attendee.</text>
    <text x="961" y="71" font-family="'Comic Sans MS','Chalkboard SE','Comic Neue',sans-serif" font-size="14.5" text-anchor="middle" fill="#111">You.</text>

    <!-- Doug button balloon -->
    <path d="M1042,112 h146 a13,13 0 0 1 13,13 v22 a13,13 0 0 1 -13,13 h-58 l-16,16 l-2,-16 h-70 a13,13 0 0 1 -13,-13 v-22 a13,13 0 0 1 13,-13 Z" fill="#ffffff" stroke="#111" stroke-width="2.5"/>
    <text x="1115" y="140" font-family="'Comic Sans MS','Chalkboard SE','Comic Neue',sans-serif" font-size="14.5" text-anchor="middle" fill="#111">...I'll bring the mug.</text>
  </g>
</svg>