<svg xmlns="http://www.w3.org/2000/svg" viewBox="0 0 1228 340" width="1228" height="340">
  <defs>
    <!-- ===== DAILBERT ===== -->
    <symbol id="dailbert" viewBox="0 0 120 150">
      <path d="M42 92 L42 108 Q60 120 78 108 L78 92 Z" fill="#f4f1ea" stroke="#111" stroke-width="2.5" stroke-linejoin="round"/>
      <path d="M30 150 Q30 116 60 112 Q90 116 90 150 Z" fill="#f4f1ea" stroke="#111" stroke-width="2.5" stroke-linejoin="round"/>
      <ellipse cx="60" cy="58" rx="34" ry="40" fill="#f4f1ea" stroke="#111" stroke-width="2.5"/>
      <path d="M60 18 Q70 8 76 16 Q80 22 72 24" fill="none" stroke="#111" stroke-width="2.5" stroke-linecap="round"/>
      <circle cx="47" cy="56" r="10" fill="#fff" stroke="#111" stroke-width="2.5"/>
      <circle cx="73" cy="56" r="10" fill="#fff" stroke="#111" stroke-width="2.5"/>
      <line x1="57" y1="56" x2="63" y2="56" stroke="#111" stroke-width="2.5"/>
      <circle cx="47" cy="56" r="2.4" fill="#111"/>
      <circle cx="73" cy="56" r="2.4" fill="#111"/>
      <line x1="39" y1="44" x2="52" y2="46" stroke="#111" stroke-width="2" stroke-linecap="round"/>
      <line x1="68" y1="46" x2="81" y2="44" stroke="#111" stroke-width="2" stroke-linecap="round"/>
      <line x1="52" y1="80" x2="68" y2="80" stroke="#111" stroke-width="2.5" stroke-linecap="round"/>
      <path d="M60 112 L54 122 L60 148 L66 122 Z" fill="#111"/>
    </symbol>

    <!-- ===== DOUG ===== -->
    <symbol id="doug" viewBox="0 0 130 150">
      <path d="M28 150 Q28 114 65 110 Q102 114 102 150 Z" fill="#f4f1ea" stroke="#111" stroke-width="2.5" stroke-linejoin="round"/>
      <path d="M48 92 L48 108 Q65 118 82 108 L82 92 Z" fill="#f4f1ea" stroke="#111" stroke-width="2.5" stroke-linejoin="round"/>
      <circle cx="65" cy="56" r="40" fill="#f4f1ea" stroke="#111" stroke-width="2.5"/>
      <path d="M40 26 Q48 16 55 24" fill="none" stroke="#111" stroke-width="2.5" stroke-linecap="round"/>
      <path d="M74 24 Q82 16 90 26" fill="none" stroke="#111" stroke-width="2.5" stroke-linecap="round"/>
      <circle cx="52" cy="52" r="3.4" fill="#111"/>
      <circle cx="78" cy="52" r="3.4" fill="#111"/>
      <path d="M46 68 Q65 90 84 68" fill="none" stroke="#111" stroke-width="2.8" stroke-linecap="round"/>
      <path d="M53 76 Q65 82 77 76" fill="none" stroke="#111" stroke-width="2" stroke-linecap="round"/>
    </symbol>

    <!-- ===== DOUG (mug down, eyes softer — the quiet beat) ===== -->
    <symbol id="dougSoft" viewBox="0 0 130 150">
      <path d="M28 150 Q28 114 65 110 Q102 114 102 150 Z" fill="#f4f1ea" stroke="#111" stroke-width="2.5" stroke-linejoin="round"/>
      <path d="M48 92 L48 108 Q65 118 82 108 L82 92 Z" fill="#f4f1ea" stroke="#111" stroke-width="2.5" stroke-linejoin="round"/>
      <circle cx="65" cy="56" r="40" fill="#f4f1ea" stroke="#111" stroke-width="2.5"/>
      <path d="M40 26 Q48 16 55 24" fill="none" stroke="#111" stroke-width="2.5" stroke-linecap="round"/>
      <path d="M74 24 Q82 16 90 26" fill="none" stroke="#111" stroke-width="2.5" stroke-linecap="round"/>
      <circle cx="52" cy="53" r="3.4" fill="#111"/>
      <circle cx="78" cy="53" r="3.4" fill="#111"/>
      <path d="M50 72 Q65 80 80 72" fill="none" stroke="#111" stroke-width="2.6" stroke-linecap="round"/>
    </symbol>

    <!-- ===== COFFEE MUG ===== -->
    <symbol id="mug" viewBox="0 0 60 60">
      <rect x="8" y="14" width="34" height="36" rx="4" fill="#f4f1ea" stroke="#111" stroke-width="2.5"/>
      <path d="M42 22 q14 0 14 12 t-14 12" fill="none" stroke="#111" stroke-width="2.5"/>
      <path d="M18 10 q4 -6 0 -10" fill="none" stroke="#111" stroke-width="1.6" stroke-linecap="round"/>
      <path d="M30 10 q4 -6 0 -10" fill="none" stroke="#111" stroke-width="1.6" stroke-linecap="round"/>
    </symbol>
  </defs>

  <!-- ===================== PANEL 1 ===================== -->
  <g>
    <rect x="1.5" y="1.5" width="397" height="337" rx="3" fill="#f4f1ea" stroke="#111" stroke-width="2.5"/>
    <rect x="250" y="24" width="120" height="150" fill="#fbf7ee" stroke="#111" stroke-width="2.5"/>
    <g stroke="#111" stroke-width="1.4" opacity="0.55">
      <line x1="252" y1="42" x2="368" y2="42"/>
      <line x1="252" y1="60" x2="368" y2="60"/>
      <line x1="252" y1="78" x2="368" y2="78"/>
      <line x1="252" y1="96" x2="368" y2="96"/>
      <line x1="252" y1="114" x2="368" y2="114"/>
      <line x1="252" y1="132" x2="368" y2="132"/>
      <line x1="252" y1="150" x2="368" y2="150"/>
    </g>
    <g stroke="#111" stroke-width="1.2" opacity="0.24">
      <line x1="248" y1="176" x2="180" y2="300"/>
      <line x1="286" y1="176" x2="222" y2="300"/>
      <line x1="324" y1="176" x2="264" y2="300"/>
    </g>
    <rect x="20" y="250" width="220" height="14" fill="#f4f1ea" stroke="#111" stroke-width="2.5"/>
    <rect x="40" y="176" width="96" height="66" rx="4" fill="#f4f1ea" stroke="#111" stroke-width="2.5"/>
    <rect x="48" y="184" width="80" height="50" rx="2" fill="#2b2b2b"/>
    <rect x="82" y="242" width="12" height="10" fill="#f4f1ea" stroke="#111" stroke-width="2.5"/>
    <use href="#dailbert" x="24" y="120" width="120" height="150"/>
    <use href="#doug" x="150" y="118" width="130" height="150"/>
    <use href="#mug" x="196" y="212" width="52" height="52"/>
    <g>
      <rect x="150" y="20" width="238" height="66" rx="16" fill="#fff" stroke="#111" stroke-width="2.2"/>
      <path d="M214 84 L206 104 L232 86 Z" fill="#fff" stroke="#111" stroke-width="2.2"/>
      <text x="269" y="44" text-anchor="middle" font-family="'Comic Sans MS','Chalkboard SE','Comic Neue',sans-serif" font-size="14" fill="#111">Hot one today. Whole</text>
      <text x="269" y="63" text-anchor="middle" font-family="'Comic Sans MS','Chalkboard SE','Comic Neue',sans-serif" font-size="14" fill="#111">building's half-asleep.</text>
    </g>
  </g>

  <!-- ===================== PANEL 2 ===================== -->
  <g>
    <rect x="415.5" y="1.5" width="397" height="337" rx="3" fill="#f4f1ea" stroke="#111" stroke-width="2.5"/>
    <rect x="664" y="24" width="120" height="150" fill="#fbf7ee" stroke="#111" stroke-width="2.5"/>
    <g stroke="#111" stroke-width="1.4" opacity="0.55">
      <line x1="666" y1="42" x2="782" y2="42"/>
      <line x1="666" y1="60" x2="782" y2="60"/>
      <line x1="666" y1="78" x2="782" y2="78"/>
      <line x1="666" y1="96" x2="782" y2="96"/>
      <line x1="666" y1="114" x2="782" y2="114"/>
      <line x1="666" y1="132" x2="782" y2="132"/>
      <line x1="666" y1="150" x2="782" y2="150"/>
    </g>
    <g stroke="#111" stroke-width="1.2" opacity="0.24">
      <line x1="662" y1="176" x2="594" y2="300"/>
      <line x1="700" y1="176" x2="636" y2="300"/>
      <line x1="738" y1="176" x2="678" y2="300"/>
    </g>
    <rect x="434" y="250" width="220" height="14" fill="#f4f1ea" stroke="#111" stroke-width="2.5"/>
    <rect x="454" y="176" width="96" height="66" rx="4" fill="#f4f1ea" stroke="#111" stroke-width="2.5"/>
    <rect x="462" y="184" width="80" height="50" rx="2" fill="#2b2b2b"/>
    <rect x="496" y="242" width="12" height="10" fill="#f4f1ea" stroke="#111" stroke-width="2.5"/>
    <use href="#dailbert" x="438" y="120" width="120" height="150"/>
    <use href="#dougSoft" x="564" y="118" width="130" height="150"/>
    <use href="#mug" x="612" y="224" width="48" height="48"/>
    <g>
      <rect x="560" y="16" width="246" height="90" rx="16" fill="#fff" stroke="#111" stroke-width="2.2"/>
      <path d="M628 104 L620 124 L646 106 Z" fill="#fff" stroke="#111" stroke-width="2.2"/>
      <text x="683" y="40" text-anchor="middle" font-family="'Comic Sans MS','Chalkboard SE','Comic Neue',sans-serif" font-size="14" fill="#111">Years from now you</text>
      <text x="683" y="59" text-anchor="middle" font-family="'Comic Sans MS','Chalkboard SE','Comic Neue',sans-serif" font-size="14" fill="#111">won't remember any</text>
      <text x="683" y="78" text-anchor="middle" font-family="'Comic Sans MS','Chalkboard SE','Comic Neue',sans-serif" font-size="14" fill="#111">of the tickets. Just</text>
      <text x="683" y="97" text-anchor="middle" font-family="'Comic Sans MS','Chalkboard SE','Comic Neue',sans-serif" font-size="14" fill="#111">who sat next to you.</text>
    </g>
  </g>

  <!-- ===================== PANEL 3 ===================== -->
  <g>
    <rect x="829.5" y="1.5" width="397" height="337" rx="3" fill="#f4f1ea" stroke="#111" stroke-width="2.5"/>
    <rect x="1078" y="24" width="120" height="150" fill="#fbf7ee" stroke="#111" stroke-width="2.5"/>
    <g stroke="#111" stroke-width="1.4" opacity="0.55">
      <line x1="1080" y1="42" x2="1196" y2="42"/>
      <line x1="1080" y1="60" x2="1196" y2="60"/>
      <line x1="1080" y1="78" x2="1196" y2="78"/>
      <line x1="1080" y1="96" x2="1196" y2="96"/>
      <line x1="1080" y1="114" x2="1196" y2="114"/>
      <line x1="1080" y1="132" x2="1196" y2="132"/>
      <line x1="1080" y1="150" x2="1196" y2="150"/>
    </g>
    <g stroke="#111" stroke-width="1.2" opacity="0.24">
      <line x1="1076" y1="176" x2="1008" y2="300"/>
      <line x1="1114" y1="176" x2="1050" y2="300"/>
      <line x1="1152" y1="176" x2="1092" y2="300"/>
    </g>
    <rect x="848" y="250" width="220" height="14" fill="#f4f1ea" stroke="#111" stroke-width="2.5"/>
    <rect x="868" y="176" width="96" height="66" rx="4" fill="#f4f1ea" stroke="#111" stroke-width="2.5"/>
    <rect x="876" y="184" width="80" height="50" rx="2" fill="#2b2b2b"/>
    <rect x="910" y="242" width="12" height="10" fill="#f4f1ea" stroke="#111" stroke-width="2.5"/>
    <use href="#dailbert" x="852" y="120" width="120" height="150"/>
    <use href="#doug" x="978" y="118" width="130" height="150"/>
    <use href="#mug" x="1008" y="172" width="50" height="50"/>
    <g>
      <rect x="850" y="26" width="216" height="66" rx="16" fill="#fff" stroke="#111" stroke-width="2.2"/>
      <path d="M902 90 L894 110 L920 92 Z" fill="#fff" stroke="#111" stroke-width="2.2"/>
      <text x="958" y="50" text-anchor="middle" font-family="'Comic Sans MS','Chalkboard SE','Comic Neue',sans-serif" font-size="14" fill="#111">Anyway. They restocked</text>
      <text x="958" y="69" text-anchor="middle" font-family="'Comic Sans MS','Chalkboard SE','Comic Neue',sans-serif" font-size="14" fill="#111">the good creamer.</text>
    </g>
  </g>
</svg>