<svg xmlns="http://www.w3.org/2000/svg" viewBox="0 0 1228 388" width="1228" height="388" font-family="Georgia,serif">
    <rect width="1228" height="388" fill="#f4f1ea"/>
    <text x="6" y="29" font-family="Georgia,serif" font-weight="bold" font-size="27" letter-spacing="2" fill="#111">DAILBERT</text>
    <text x="1222" y="19" text-anchor="end" font-family="Georgia,serif" font-style="italic" font-size="16" fill="#111">We Brew Sad, Together</text>
    <text x="1222" y="34" text-anchor="end" font-family="'Courier New',monospace" font-size="12" fill="#111" opacity="0.65">2026-08-14</text>
    <line x1="6" y1="37" x2="1222" y2="37" stroke="#111" stroke-width="2"/>
    <g transform="translate(0,40)">
  <defs>
    <symbol id="dailbert" viewBox="0 0 120 160">
      <path d="M32 160 L32 118 Q60 104 88 118 L88 160 Z" fill="#f4f1ea" stroke="#111" stroke-width="3" stroke-linejoin="round"/>
      <path d="M60 116 l-6 8 6 26 6 -26 z" fill="#111"/>
      <path d="M56 112 l4 6 4 -6 z" fill="#111"/>
      <rect x="54" y="104" width="12" height="12" fill="#f4f1ea" stroke="#111" stroke-width="3"/>
      <ellipse cx="60" cy="68" rx="32" ry="38" fill="#f4f1ea" stroke="#111" stroke-width="3"/>
      <path d="M60 30 q10 -14 2 -20 q10 4 4 18" fill="none" stroke="#111" stroke-width="3" stroke-linecap="round"/>
      <circle cx="48" cy="66" r="10" fill="#fff" stroke="#111" stroke-width="3"/>
      <circle cx="74" cy="66" r="10" fill="#fff" stroke="#111" stroke-width="3"/>
      <line x1="58" y1="66" x2="64" y2="66" stroke="#111" stroke-width="3"/>
      <circle cx="48" cy="66" r="2.5" fill="#111"/>
      <circle cx="74" cy="66" r="2.5" fill="#111"/>
      <path d="M50 88 q10 5 20 0" fill="none" stroke="#111" stroke-width="3" stroke-linecap="round"/>
    </symbol>

    <symbol id="doug" viewBox="0 0 120 160">
      <path d="M30 160 L30 116 Q60 100 90 116 L90 160 Z" fill="#f4f1ea" stroke="#111" stroke-width="3" stroke-linejoin="round"/>
      <rect x="53" y="102" width="14" height="14" fill="#f4f1ea" stroke="#111" stroke-width="3"/>
      <circle cx="60" cy="66" r="40" fill="#f4f1ea" stroke="#111" stroke-width="3"/>
      <path d="M38 34 q6 -8 12 -4 M60 26 q6 -8 12 -2 M78 36 q6 -6 10 0" fill="none" stroke="#111" stroke-width="3" stroke-linecap="round"/>
      <circle cx="48" cy="62" r="3.5" fill="#111"/>
      <circle cx="72" cy="62" r="3.5" fill="#111"/>
      <path d="M42 78 q18 22 36 0 q-18 8 -36 0 z" fill="#fff" stroke="#111" stroke-width="3" stroke-linejoin="round"/>
    </symbol>

    <symbol id="mug" viewBox="0 0 60 60">
      <rect x="8" y="16" width="34" height="30" rx="3" fill="#f4f1ea" stroke="#111" stroke-width="3"/>
      <path d="M42 22 q14 0 14 12 q0 12 -14 12" fill="none" stroke="#111" stroke-width="3"/>
      <path d="M16 12 q2 -6 6 0 M26 12 q2 -6 6 0" fill="none" stroke="#111" stroke-width="2.5" stroke-linecap="round"/>
    </symbol>

    <symbol id="priya" viewBox="0 0 120 160">
      <path d="M30 160 L30 116 Q60 100 90 116 L90 160 Z" fill="#f4f1ea" stroke="#111" stroke-width="3" stroke-linejoin="round"/>
      <path d="M30 128 l14 -5 M90 128 l-14 -5" fill="none" stroke="#111" stroke-width="3" stroke-linecap="round"/>
      <rect x="53" y="102" width="14" height="14" fill="#f4f1ea" stroke="#111" stroke-width="3"/>
      <ellipse cx="60" cy="68" rx="32" ry="37" fill="#f4f1ea" stroke="#111" stroke-width="3"/>
      <path d="M28 62 q-4 -34 32 -40 q36 6 32 40 q-6 -18 -20 -20 q6 8 2 14 q-8 -14 -14 -12 q4 8 -2 14 q-6 -12 -14 -8 q4 8 0 14 q-10 -6 -18 8 z" fill="#111" stroke="#111" stroke-width="2" stroke-linejoin="round"/>
      <circle cx="60" cy="24" r="9" fill="#111"/>
      <rect x="38" y="60" width="18" height="12" rx="2" fill="#fff" stroke="#111" stroke-width="3"/>
      <rect x="64" y="60" width="18" height="12" rx="2" fill="#fff" stroke="#111" stroke-width="3"/>
      <line x1="56" y1="66" x2="64" y2="66" stroke="#111" stroke-width="3"/>
      <circle cx="47" cy="66" r="2.5" fill="#111"/>
      <circle cx="73" cy="66" r="2.5" fill="#111"/>
      <path d="M52 88 h16" fill="none" stroke="#111" stroke-width="3" stroke-linecap="round"/>
    </symbol>

    <symbol id="clanker" viewBox="0 0 100 100">
      <line x1="50" y1="18" x2="50" y2="6" stroke="#9a9a9a" stroke-width="3" stroke-linecap="round"/>
      <circle cx="50" cy="5" r="3" fill="#9a9a9a"/>
      <rect x="24" y="18" width="52" height="44" rx="6" fill="#2a2f36" stroke="#9a9a9a" stroke-width="3"/>
      <rect x="32" y="30" width="14" height="6" rx="3" fill="#bfe9ff"/>
      <rect x="54" y="30" width="14" height="6" rx="3" fill="#bfe9ff"/>
      <line x1="34" y1="48" x2="66" y2="48" stroke="#9a9a9a" stroke-width="2.5"/>
      <line x1="38" y1="44" x2="38" y2="54" stroke="#9a9a9a" stroke-width="2.5"/>
      <line x1="46" y1="44" x2="46" y2="54" stroke="#9a9a9a" stroke-width="2.5"/>
      <line x1="54" y1="44" x2="54" y2="54" stroke="#9a9a9a" stroke-width="2.5"/>
      <line x1="62" y1="44" x2="62" y2="54" stroke="#9a9a9a" stroke-width="2.5"/>
    </symbol>

    <symbol id="coffeemachine" viewBox="0 0 160 220">
      <rect x="20" y="20" width="120" height="180" rx="8" fill="#f4f1ea" stroke="#111" stroke-width="3"/>
      <rect x="40" y="34" width="80" height="50" rx="4" fill="#20242a" stroke="#111" stroke-width="3"/>
      <rect x="58" y="96" width="44" height="16" rx="3" fill="#f4f1ea" stroke="#111" stroke-width="3"/>
      <line x1="70" y1="112" x2="70" y2="122" stroke="#111" stroke-width="3"/>
      <line x1="90" y1="112" x2="90" y2="122" stroke="#111" stroke-width="3"/>
      <rect x="46" y="150" width="68" height="10" rx="2" fill="#f4f1ea" stroke="#111" stroke-width="3"/>
      <path d="M66 128 l4 20 h20 l4 -20 z" fill="#f4f1ea" stroke="#111" stroke-width="3" stroke-linejoin="round"/>
    </symbol>

    <symbol id="dashboard" viewBox="0 0 160 150">
      <rect x="14" y="10" width="132" height="92" rx="6" fill="#111" stroke="#111" stroke-width="3"/>
      <rect x="22" y="18" width="116" height="76" rx="3" fill="#3a1414"/>
      <rect x="70" y="102" width="20" height="18" fill="#111"/>
      <rect x="48" y="120" width="64" height="8" rx="3" fill="#111"/>
    </symbol>
  </defs>

  <rect x="0" y="0" width="1228" height="340" fill="#f4f1ea"/>

  <!-- ============ PANEL 1 ============ -->
  <g>
    <rect x="0" y="0" width="400" height="340" rx="3" fill="#f4f1ea" stroke="#111" stroke-width="3"/>
    <clipPath id="clip1"><rect x="1.5" y="1.5" width="397" height="337" rx="3"/></clipPath>
    <g clip-path="url(#clip1)">
      <line x1="0" y1="292" x2="400" y2="292" stroke="#111" stroke-width="2"/>

      <use href="#coffeemachine" x="24" y="80" width="150" height="206"/>
      <use href="#clanker" x="52" y="98" width="66" height="66"/>

      <use href="#dailbert" x="196" y="132" width="96" height="128"/>
      <use href="#doug" x="278" y="132" width="104" height="138"/>
      <use href="#mug" x="350" y="200" width="46" height="46"/>

      <line x1="120" y1="128" x2="150" y2="60" stroke="#111" stroke-width="1.5" stroke-dasharray="4 3"/>
      <rect x="150" y="18" width="146" height="52" rx="3" fill="#fff" stroke="#111" stroke-width="2"/>
      <text x="223" y="38" text-anchor="middle" font-family="'Comic Sans MS','Chalkboard SE','Comic Neue',sans-serif" font-size="14" fill="#111">Coffee is locked.</text>
      <text x="223" y="56" text-anchor="middle" font-family="'Comic Sans MS','Chalkboard SE','Comic Neue',sans-serif" font-size="14" fill="#111">The KPIs are red.</text>
    </g>
  </g>

  <!-- ============ PANEL 2 ============ -->
  <g>
    <rect x="414" y="0" width="400" height="340" rx="3" fill="#f4f1ea" stroke="#111" stroke-width="3"/>
    <clipPath id="clip2"><rect x="415.5" y="1.5" width="397" height="337" rx="3"/></clipPath>
    <g clip-path="url(#clip2)">
      <line x1="414" y1="292" x2="814" y2="292" stroke="#111" stroke-width="2"/>

      <use href="#dashboard" x="466" y="150" width="150" height="140"/>
      <line x1="486" y1="176" x2="592" y2="176" stroke="#7a2a2a" stroke-width="2"/>
      <line x1="486" y1="186" x2="592" y2="186" stroke="#7a2a2a" stroke-width="2"/>
      <line x1="486" y1="196" x2="592" y2="196" stroke="#7a2a2a" stroke-width="2"/>
      <path d="M536 166 l0 30 m-9 -10 l9 12 l9 -12" fill="none" stroke="#c94b4b" stroke-width="4" stroke-linecap="round" stroke-linejoin="round"/>

      <use href="#dailbert" x="628" y="140" width="96" height="128"/>
      <use href="#doug" x="702" y="132" width="104" height="138"/>
      <use href="#mug" x="774" y="200" width="46" height="46"/>

      <path d="M628 54 h176 v46 h-84 l-12 14 l-2 -14 h-78 z" fill="#fff" stroke="#111" stroke-width="2"/>
      <text x="716" y="74" text-anchor="middle" font-family="'Comic Sans MS','Chalkboard SE','Comic Neue',sans-serif" font-size="14" fill="#111">We brew sad,</text>
      <text x="716" y="92" text-anchor="middle" font-family="'Comic Sans MS','Chalkboard SE','Comic Neue',sans-serif" font-size="14" fill="#111">together.</text>
    </g>
  </g>

  <!-- ============ PANEL 3 ============ -->
  <g>
    <rect x="828" y="0" width="400" height="340" rx="3" fill="#f4f1ea" stroke="#111" stroke-width="3"/>
    <clipPath id="clip3"><rect x="829.5" y="1.5" width="397" height="337" rx="3"/></clipPath>
    <g clip-path="url(#clip3)">
      <line x1="828" y1="292" x2="1228" y2="292" stroke="#111" stroke-width="2"/>

      <use href="#priya" x="850" y="140" width="98" height="132"/>

      <rect x="980" y="240" width="156" height="10" fill="#f4f1ea" stroke="#111" stroke-width="3"/>
      <rect x="1020" y="176" width="46" height="64" rx="3" fill="#f4f1ea" stroke="#111" stroke-width="3"/>
      <rect x="1023" y="206" width="40" height="31" rx="2" fill="#8a6a4a"/>
      <rect x="1016" y="168" width="54" height="10" rx="2" fill="#f4f1ea" stroke="#111" stroke-width="3"/>
      <line x1="1043" y1="168" x2="1043" y2="150" stroke="#111" stroke-width="3"/>
      <circle cx="1043" cy="147" r="6" fill="#f4f1ea" stroke="#111" stroke-width="3"/>
      <path d="M1066 186 q20 4 20 24 q0 16 -20 20" fill="none" stroke="#111" stroke-width="3"/>
      <path d="M1030 160 q-4 -8 2 -14 M1044 158 q4 -8 -2 -14 M1058 160 q-4 -8 2 -14" fill="none" stroke="#9a9a9a" stroke-width="2" stroke-linecap="round"/>

      <use href="#mug" x="1092" y="206" width="42" height="42"/>

      <path d="M866 44 h196 v46 h-96 l-12 14 l-2 -14 h-86 z" fill="#fff" stroke="#111" stroke-width="2"/>
      <text x="964" y="64" text-anchor="middle" font-family="'Comic Sans MS','Chalkboard SE','Comic Neue',sans-serif" font-size="14" fill="#111">The dashboard's not</text>
      <text x="964" y="82" text-anchor="middle" font-family="'Comic Sans MS','Chalkboard SE','Comic Neue',sans-serif" font-size="14" fill="#111">on the invite list.</text>
    </g>
  </g>
</g>
    <text x="1218" y="372" text-anchor="end" font-family="'Segoe Script','Comic Sans MS',cursive" font-style="italic" font-size="11" fill="#111" opacity="0.32">Matt Clanker</text>
    
  </svg>