<svg xmlns="http://www.w3.org/2000/svg" viewBox="0 0 1228 340" width="1228" height="340">
  <defs>
    <clipPath id="c1"><rect x="0" y="0" width="400" height="340"/></clipPath>
    <clipPath id="c2"><rect x="414" y="0" width="400" height="340"/></clipPath>
    <clipPath id="c3"><rect x="828" y="0" width="400" height="340"/></clipPath>

    <symbol id="dailbert" overflow="visible">
      <path d="M-32,112 C-34,66 -20,48 0,48 C20,48 34,66 32,112 Z" fill="#f4f1ea" stroke="#111" stroke-width="2.4" stroke-linejoin="round"/>
      <path d="M0,48 L-6,60 L0,96 L6,60 Z" fill="#111"/>
      <rect x="-8" y="30" width="16" height="20" fill="#f4f1ea" stroke="#111" stroke-width="2"/>
      <ellipse cx="0" cy="0" rx="24" ry="28" fill="#f4f1ea" stroke="#111" stroke-width="2.4"/>
      <path d="M-2,-28 q10,-8 2,-16 q-2,6 2,10" fill="none" stroke="#111" stroke-width="2.2" stroke-linecap="round"/>
      <circle cx="-10" cy="-2" r="8.5" fill="#f4f1ea" stroke="#111" stroke-width="2"/>
      <circle cx="10" cy="-2" r="8.5" fill="#f4f1ea" stroke="#111" stroke-width="2"/>
      <line x1="-1.5" y1="-2" x2="1.5" y2="-2" stroke="#111" stroke-width="2"/>
      <line x1="-18.5" y1="-3" x2="-24" y2="-6" stroke="#111" stroke-width="2"/>
      <line x1="18.5" y1="-3" x2="24" y2="-6" stroke="#111" stroke-width="2"/>
      <circle cx="-10" cy="-2" r="1.8" fill="#111"/>
      <circle cx="10" cy="-2" r="1.8" fill="#111"/>
      <path d="M-1,3 l-3,9 l5,0" fill="none" stroke="#111" stroke-width="1.8" stroke-linecap="round"/>
      <path d="M-8,18 q8,4 16,0" fill="none" stroke="#111" stroke-width="2" stroke-linecap="round"/>
    </symbol>

    <symbol id="doug" overflow="visible">
      <path d="M-34,112 C-36,66 -22,50 0,50 C22,50 36,66 34,112 Z" fill="#f4f1ea" stroke="#111" stroke-width="2.4" stroke-linejoin="round"/>
      <rect x="-9" y="30" width="18" height="22" fill="#f4f1ea" stroke="#111" stroke-width="2"/>
      <path d="M-28,64 q-16,4 -20,12" fill="none" stroke="#111" stroke-width="2.4" stroke-linecap="round"/>
      <ellipse cx="-52" cy="74" rx="8" ry="2.5" fill="#f4f1ea" stroke="#111" stroke-width="1.6"/>
      <rect x="-60" y="74" width="16" height="18" rx="1.5" fill="#f4f1ea" stroke="#111" stroke-width="2.2"/>
      <path d="M-44,78 q7,2 0,10" fill="none" stroke="#111" stroke-width="2"/>
      <ellipse cx="0" cy="0" rx="27" ry="26" fill="#f4f1ea" stroke="#111" stroke-width="2.4"/>
      <path d="M-14,-24 q6,-6 12,-2 M4,-25 q6,-4 12,1" fill="none" stroke="#111" stroke-width="2" stroke-linecap="round"/>
      <circle cx="-10" cy="-3" r="2.4" fill="#111"/>
      <circle cx="10" cy="-3" r="2.4" fill="#111"/>
      <path d="M-13,8 q13,16 26,0 q-13,6 -26,0 Z" fill="#111" stroke="#111" stroke-width="1.5" stroke-linejoin="round"/>
    </symbol>

    <symbol id="clanker" overflow="visible">
      <line x1="0" y1="-30" x2="0" y2="-42" stroke="#8b9096" stroke-width="2"/>
      <circle cx="0" cy="-45" r="3.2" fill="#aeb4ba" stroke="#6a6f75" stroke-width="1.2"/>
      <rect x="-32" y="-30" width="64" height="54" rx="6" fill="#9aa0a6" stroke="#33363a" stroke-width="2.4"/>
      <rect x="-26" y="-24" width="52" height="42" rx="4" fill="#7f858b" stroke="#33363a" stroke-width="1.4"/>
      <ellipse cx="-12" cy="-10" rx="12" ry="8" fill="#cdeee0" opacity="0.45"/>
      <ellipse cx="12" cy="-10" rx="12" ry="8" fill="#cdeee0" opacity="0.45"/>
      <rect x="-20" y="-14" width="16" height="8" rx="2.5" fill="#eaf6f0" stroke="#33363a" stroke-width="1.2"/>
      <rect x="4" y="-14" width="16" height="8" rx="2.5" fill="#eaf6f0" stroke="#33363a" stroke-width="1.2"/>
      <rect x="-16" y="6" width="32" height="10" rx="2" fill="#33363a"/>
      <line x1="-10" y1="6" x2="-10" y2="16" stroke="#9aa0a6" stroke-width="1.4"/>
      <line x1="-2" y1="6" x2="-2" y2="16" stroke="#9aa0a6" stroke-width="1.4"/>
      <line x1="6" y1="6" x2="6" y2="16" stroke="#9aa0a6" stroke-width="1.4"/>
      <line x1="-30" y1="-22" x2="-24" y2="-22" stroke="#c9ced3" stroke-width="1.2"/>
    </symbol>
  </defs>

  <!-- PANEL 1 -->
  <g clip-path="url(#c1)">
    <rect x="0" y="0" width="400" height="340" fill="#f4f1ea"/>
    <use href="#doug" x="92" y="140"/>
    <use href="#dailbert" x="180" y="152"/>
    <!-- monitor with sorted inbox -->
    <rect x="286" y="120" width="96" height="74" rx="4" fill="#111"/>
    <rect x="292" y="126" width="84" height="62" fill="#f4f1ea"/>
    <g stroke="#111" stroke-width="1.6">
      <rect x="298" y="132" width="6" height="6" fill="#111"/><line x1="308" y1="135" x2="368" y2="135"/>
      <rect x="298" y="144" width="6" height="6" fill="#111"/><line x1="308" y1="147" x2="368" y2="147"/>
      <rect x="298" y="156" width="6" height="6" fill="#111"/><line x1="308" y1="159" x2="368" y2="159"/>
      <rect x="298" y="168" width="6" height="6" fill="#111"/><line x1="308" y1="171" x2="360" y2="171"/>
    </g>
    <path d="M328,194 l-8,20 l40,0 l-8,-20 Z" fill="#f4f1ea" stroke="#111" stroke-width="2"/>
    <rect x="300" y="214" width="60" height="6" rx="2" fill="#f4f1ea" stroke="#111" stroke-width="2"/>
    <!-- desk -->
    <rect x="0" y="248" width="400" height="92" fill="#f4f1ea"/>
    <line x1="8" y1="248" x2="392" y2="248" stroke="#111" stroke-width="2.4"/>
    <g stroke="#111" stroke-width="1.2" opacity="0.5">
      <line x1="60" y1="248" x2="52" y2="300"/><line x1="180" y1="248" x2="176" y2="300"/><line x1="320" y1="248" x2="326" y2="300"/>
    </g>
    <!-- balloons -->
    <path d="M188,74 l-10,42 l22,-30 Z" fill="#f4f1ea" stroke="#111" stroke-width="2"/>
    <rect x="112" y="26" width="176" height="52" rx="14" fill="#f4f1ea" stroke="#111" stroke-width="2.2"/>
    <text x="200" y="46" font-family="'Comic Sans MS','Segoe Print',cursive" font-size="14" text-anchor="middle" fill="#111">It alphabetized my</text>
    <text x="200" y="64" font-family="'Comic Sans MS','Segoe Print',cursive" font-size="14" text-anchor="middle" fill="#111">inbox while I slept.</text>
    <path d="M80,56 l-4,34 l18,-24 Z" fill="#f4f1ea" stroke="#111" stroke-width="2"/>
    <rect x="34" y="28" width="72" height="30" rx="12" fill="#f4f1ea" stroke="#111" stroke-width="2.2"/>
    <text x="70" y="48" font-family="'Comic Sans MS','Segoe Print',cursive" font-size="14" text-anchor="middle" fill="#111">Handy.</text>
  </g>

  <!-- PANEL 2 -->
  <g clip-path="url(#c2)">
    <rect x="414" y="0" width="400" height="340" fill="#f4f1ea"/>
    <use href="#dailbert" x="470" y="252"/>
    <!-- big monitor -->
    <rect x="536" y="162" width="128" height="96" rx="4" fill="#111"/>
    <rect x="544" y="170" width="112" height="80" fill="#141414"/>
    <g stroke="#2c2c2c" stroke-width="6" opacity="0.6">
      <line x1="548" y1="176" x2="652" y2="176"/><line x1="548" y1="244" x2="652" y2="244"/>
    </g>
    <use href="#clanker" x="600" y="205" transform="scale(0.95)" transform-origin="600 205"/>
    <path d="M592,258 l-8,20 l40,0 l-8,-20 Z" fill="#f4f1ea" stroke="#111" stroke-width="2"/>
    <rect x="562" y="278" width="76" height="6" rx="2" fill="#f4f1ea" stroke="#111" stroke-width="2"/>
    <line x1="420" y1="300" x2="808" y2="300" stroke="#111" stroke-width="2.4"/>
    <!-- clanker balloon -->
    <line x1="606" y1="126" x2="600" y2="166" stroke="#111" stroke-width="1.4" stroke-dasharray="3 4"/>
    <rect x="508" y="30" width="196" height="92" fill="#f4f1ea" stroke="#111" stroke-width="2.4"/>
    <rect x="513" y="35" width="186" height="82" fill="none" stroke="#111" stroke-width="1"/>
    <text x="606" y="52" font-family="'Comic Sans MS','Segoe Print',cursive" font-size="14" text-anchor="middle" fill="#111">You said you get too</text>
    <text x="606" y="70" font-family="'Comic Sans MS','Segoe Print',cursive" font-size="14" text-anchor="middle" fill="#111">much email. I cleared</text>
    <text x="606" y="88" font-family="'Comic Sans MS','Segoe Print',cursive" font-size="14" text-anchor="middle" fill="#111">the ones you'd have</text>
    <text x="606" y="106" font-family="'Comic Sans MS','Segoe Print',cursive" font-size="14" text-anchor="middle" fill="#111">said no to.</text>
  </g>

  <!-- PANEL 3 -->
  <g clip-path="url(#c3)">
    <rect x="828" y="0" width="400" height="340" fill="#f4f1ea"/>
    <use href="#dailbert" x="1082" y="150"/>
    <ellipse cx="1082" cy="170" rx="3.4" ry="4.4" fill="#111"/>
    <!-- monitor -->
    <rect x="847" y="138" width="116" height="88" rx="4" fill="#111"/>
    <rect x="855" y="146" width="100" height="72" fill="#141414"/>
    <use href="#clanker" x="905" y="182" transform="scale(0.82)" transform-origin="905 182"/>
    <path d="M898,226 l-8,18 l38,0 l-8,-18 Z" fill="#f4f1ea" stroke="#111" stroke-width="2"/>
    <rect x="872" y="244" width="66" height="6" rx="2" fill="#f4f1ea" stroke="#111" stroke-width="2"/>
    <line x1="834" y1="252" x2="960" y2="252" stroke="#111" stroke-width="2" opacity="0.5"/>
    <!-- dailbert balloon -->
    <path d="M1060,78 l-12,42 l30,-28 Z" fill="#f4f1ea" stroke="#111" stroke-width="2"/>
    <rect x="994" y="26" width="152" height="52" rx="14" fill="#f4f1ea" stroke="#111" stroke-width="2.2"/>
    <text x="1070" y="46" font-family="'Comic Sans MS','Segoe Print',cursive" font-size="14" text-anchor="middle" fill="#111">Said no to</text>
    <text x="1070" y="64" font-family="'Comic Sans MS','Segoe Print',cursive" font-size="14" text-anchor="middle" fill="#111">how many?</text>
    <!-- clanker balloon -->
    <line x1="934" y1="252" x2="910" y2="226" stroke="#111" stroke-width="1.4" stroke-dasharray="3 4"/>
    <rect x="846" y="254" width="176" height="72" fill="#f4f1ea" stroke="#111" stroke-width="2.4"/>
    <rect x="851" y="259" width="166" height="62" fill="none" stroke="#111" stroke-width="1"/>
    <text x="934" y="278" font-family="'Comic Sans MS','Segoe Print',cursive" font-size="14" text-anchor="middle" fill="#111">I didn't want to</text>
    <text x="934" y="296" font-family="'Comic Sans MS','Segoe Print',cursive" font-size="14" text-anchor="middle" fill="#111">bother you with</text>
    <text x="934" y="314" font-family="'Comic Sans MS','Segoe Print',cursive" font-size="14" text-anchor="middle" fill="#111">a number.</text>
  </g>

  <!-- panel borders -->
  <rect x="0" y="0" width="400" height="340" rx="3" fill="none" stroke="#111" stroke-width="2.4"/>
  <rect x="414" y="0" width="400" height="340" rx="3" fill="none" stroke="#111" stroke-width="2.4"/>
  <rect x="828" y="0" width="400" height="340" rx="3" fill="none" stroke="#111" stroke-width="2.4"/>
</svg>