<svg xmlns="http://www.w3.org/2000/svg" viewBox="0 0 1228 388" width="1228" height="388" font-family="Georgia,serif">
    <rect width="1228" height="388" fill="#f4f1ea"/>
    <text x="6" y="29" font-family="Georgia,serif" font-weight="bold" font-size="27" letter-spacing="2" fill="#111">DAILBERT</text>
    <text x="1222" y="19" text-anchor="end" font-family="Georgia,serif" font-style="italic" font-size="16" fill="#111">For Consistency</text>
    <text x="1222" y="34" text-anchor="end" font-family="'Courier New',monospace" font-size="12" fill="#111" opacity="0.65">2026-09-22</text>
    <line x1="6" y1="37" x2="1222" y2="37" stroke="#111" stroke-width="2"/>
    <g transform="translate(0,40)">
  <defs>
    <!-- ===== DAILBERT ===== -->
    <symbol id="dailbert" viewBox="0 0 120 160">
      <ellipse cx="60" cy="42" rx="30" ry="34" fill="#f4f1ea" stroke="#111" stroke-width="2.6"/>
      <path d="M60 8 q10 -8 5 -16 q-3 8 -9 6" fill="none" stroke="#111" stroke-width="2.6" stroke-linecap="round" stroke-linejoin="round"/>
      <circle cx="49" cy="42" r="8" fill="#fff" stroke="#111" stroke-width="2.4"/>
      <circle cx="71" cy="42" r="8" fill="#fff" stroke="#111" stroke-width="2.4"/>
      <line x1="57" y1="42" x2="63" y2="42" stroke="#111" stroke-width="2.4"/>
      <circle cx="49" cy="42" r="2" fill="#111"/>
      <circle cx="71" cy="42" r="2" fill="#111"/>
      <path d="M52 60 q8 6 16 0" fill="none" stroke="#111" stroke-width="2.4" stroke-linecap="round"/>
      <path d="M34 84 q26 -12 52 0 l8 62 q-34 12 -68 0 z" fill="#f4f1ea" stroke="#111" stroke-width="2.6" stroke-linejoin="round"/>
      <path d="M60 84 l-9 14 l9 8 l9 -8 z" fill="#111"/>
      <path d="M60 106 l-4 30 l8 0 z" fill="#111"/>
    </symbol>

    <!-- ===== DOUG ===== -->
    <symbol id="doug" viewBox="0 0 120 160">
      <circle cx="60" cy="44" r="36" fill="#f4f1ea" stroke="#111" stroke-width="2.6"/>
      <circle cx="47" cy="40" r="3" fill="#111"/>
      <circle cx="73" cy="40" r="3" fill="#111"/>
      <path d="M42 52 q18 22 36 0" fill="none" stroke="#111" stroke-width="2.6" stroke-linecap="round"/>
      <path d="M46 55 q14 12 28 0" fill="#fff" stroke="none"/>
      <path d="M32 88 q28 -12 56 0 l6 58 q-34 12 -68 0 z" fill="#f4f1ea" stroke="#111" stroke-width="2.6" stroke-linejoin="round"/>
      <rect x="16" y="104" width="26" height="24" rx="3" fill="#f4f1ea" stroke="#111" stroke-width="2.6"/>
      <path d="M42 110 q12 0 12 8 q0 8 -12 8" fill="none" stroke="#111" stroke-width="2.6"/>
      <path d="M20 104 q9 4 18 0" fill="none" stroke="#111" stroke-width="2" stroke-linecap="round"/>
    </symbol>

    <!-- ===== PRIYA ===== -->
    <symbol id="priya" viewBox="0 0 120 160">
      <path d="M30 40 q0 -30 30 -30 q30 0 30 30 q6 -20 -4 -30 q-26 -16 -52 0 q-10 10 -4 30z" fill="#111"/>
      <ellipse cx="60" cy="46" rx="29" ry="33" fill="#f4f1ea" stroke="#111" stroke-width="2.6"/>
      <path d="M31 42 q-2 -26 29 -30 q31 4 29 30 q-14 -14 -29 -12 q-15 -2 -29 12z" fill="#111"/>
      <path d="M28 30 q-4 8 4 16 q-2 -10 4 -14z" fill="#111"/>
      <path d="M92 30 q4 8 -4 16 q2 -10 -4 -14z" fill="#111"/>
      <rect x="41" y="42" width="16" height="12" rx="2.5" fill="#fff" stroke="#111" stroke-width="2.2"/>
      <rect x="63" y="42" width="16" height="12" rx="2.5" fill="#fff" stroke="#111" stroke-width="2.2"/>
      <line x1="57" y1="47" x2="63" y2="47" stroke="#111" stroke-width="2.2"/>
      <circle cx="49" cy="48" r="2" fill="#111"/>
      <circle cx="71" cy="48" r="2" fill="#111"/>
      <path d="M52 64 q8 4 16 0" fill="none" stroke="#111" stroke-width="2.2" stroke-linecap="round"/>
      <path d="M34 86 q26 -10 52 0 l7 60 q-33 12 -66 0 z" fill="#f4f1ea" stroke="#111" stroke-width="2.6" stroke-linejoin="round"/>
      <path d="M40 90 l-6 22 q6 4 10 0 z" fill="#f4f1ea" stroke="#111" stroke-width="2.4" stroke-linejoin="round"/>
      <path d="M80 90 l6 22 q-6 4 -10 0 z" fill="#f4f1ea" stroke="#111" stroke-width="2.4" stroke-linejoin="round"/>
    </symbol>

    <!-- ===== CRAIG ===== -->
    <symbol id="craig" viewBox="0 0 120 160">
      <ellipse cx="60" cy="46" rx="31" ry="32" fill="#f4f1ea" stroke="#111" stroke-width="2.6"/>
      <path d="M30 40 q30 -18 60 0" fill="none" stroke="#111" stroke-width="2.6" stroke-linecap="round"/>
      <circle cx="48" cy="46" r="2.6" fill="#111"/>
      <circle cx="72" cy="46" r="2.6" fill="#111"/>
      <path d="M44 42 q4 -3 9 0" fill="none" stroke="#111" stroke-width="2.2" stroke-linecap="round"/>
      <path d="M67 42 q4 -3 9 0" fill="none" stroke="#111" stroke-width="2.2" stroke-linecap="round"/>
      <path d="M50 62 q10 5 20 0" fill="none" stroke="#111" stroke-width="2.4" stroke-linecap="round"/>
      <path d="M33 86 q27 -12 54 0 l7 60 q-34 12 -68 0 z" fill="#f4f1ea" stroke="#111" stroke-width="2.6" stroke-linejoin="round"/>
      <path d="M60 86 l-8 12 l8 7 l8 -7 z" fill="#111"/>
      <path d="M60 105 l-4 30 l8 0 z" fill="#111"/>
    </symbol>

    <!-- ===== THE CLANKER (surface only) ===== -->
    <symbol id="clanker" viewBox="0 0 120 120">
      <rect x="26" y="30" width="68" height="60" rx="8" fill="#1c1c1c" stroke="#3a3f45" stroke-width="2.4"/>
      <line x1="60" y1="30" x2="60" y2="16" stroke="#bfc4c9" stroke-width="2.4"/>
      <circle cx="60" cy="13" r="3.4" fill="#bfc4c9"/>
      <rect x="36" y="46" width="18" height="9" rx="2" fill="#8fd0e0"/>
      <rect x="66" y="46" width="18" height="9" rx="2" fill="#8fd0e0"/>
      <g stroke="#7a8288" stroke-width="2.2">
        <line x1="40" y1="72" x2="80" y2="72"/>
        <line x1="40" y1="78" x2="80" y2="78"/>
      </g>
    </symbol>
  </defs>

  <rect x="0" y="0" width="1228" height="340" fill="#f4f1ea"/>

  <!-- =================== PANEL 1 =================== -->
  <g>
    <rect x="1.5" y="1.5" width="397" height="337" rx="3" fill="#f4f1ea" stroke="#111" stroke-width="2.6"/>
    <clipPath id="clip1"><rect x="3" y="3" width="394" height="334" rx="3"/></clipPath>
    <g clip-path="url(#clip1)">
      <rect x="0" y="252" width="400" height="88" fill="#e7e2d6"/>
      <line x1="0" y1="252" x2="400" y2="252" stroke="#111" stroke-width="2"/>
      <rect x="26" y="158" width="140" height="94" rx="6" fill="#eae5da" stroke="#111" stroke-width="2.6"/>
      <rect x="40" y="170" width="112" height="26" rx="3" fill="#dcd6c8" stroke="#111" stroke-width="2"/>
      <text x="96" y="188" font-family="'Comic Sans MS','Chalkboard SE','Comic Neue',sans-serif" font-size="11" text-anchor="middle" fill="#111">CARDS</text>
      <circle cx="140" cy="222" r="6" fill="#f4f1ea" stroke="#111" stroke-width="2"/>
      <rect x="46" y="230" width="88" height="20" fill="#111"/>
      <g transform="rotate(-3 96 262)">
        <rect x="52" y="242" width="88" height="46" rx="2" fill="#fff" stroke="#111" stroke-width="2"/>
        <text x="96" y="258" font-family="'Comic Sans MS','Chalkboard SE','Comic Neue',sans-serif" font-size="9" text-anchor="middle" fill="#111">CRAIG</text>
        <text x="96" y="272" font-family="'Comic Sans MS','Chalkboard SE','Comic Neue',sans-serif" font-size="8" text-anchor="middle" fill="#111">Manager,</text>
        <text x="96" y="282" font-family="'Comic Sans MS','Chalkboard SE','Comic Neue',sans-serif" font-size="8" text-anchor="middle" fill="#111">Managers</text>
      </g>
      <rect x="250" y="180" width="120" height="94" rx="6" fill="#111" stroke="#111" stroke-width="2.6"/>
      <rect x="258" y="188" width="104" height="78" rx="4" fill="#1c1c1c"/>
      <rect x="300" y="274" width="20" height="16" fill="#c9c3b4" stroke="#111" stroke-width="2"/>
      <use href="#clanker" x="253" y="182" width="114" height="96"/>
      <use href="#craig" x="176" y="150" width="120" height="180"/>
      <line x1="310" y1="180" x2="288" y2="72" stroke="#111" stroke-width="1.4" stroke-dasharray="4 4"/>
      <rect x="192" y="18" width="196" height="58" rx="4" fill="#f4f1ea" stroke="#111" stroke-width="2.2"/>
      <rect x="196" y="22" width="188" height="50" rx="2" fill="none" stroke="#111" stroke-width="1" stroke-dasharray="3 3"/>
      <text x="290" y="41" font-family="'Comic Sans MS','Chalkboard SE','Comic Neue',sans-serif" font-size="13.5" text-anchor="middle" fill="#111">New cards. I made</text>
      <text x="290" y="59" font-family="'Comic Sans MS','Chalkboard SE','Comic Neue',sans-serif" font-size="13.5" text-anchor="middle" fill="#111">the titles consistent.</text>
    </g>
  </g>

  <!-- =================== PANEL 2 =================== -->
  <g>
    <rect x="415.5" y="1.5" width="397" height="337" rx="3" fill="#f4f1ea" stroke="#111" stroke-width="2.6"/>
    <clipPath id="clip2"><rect x="417" y="3" width="394" height="334" rx="3"/></clipPath>
    <g clip-path="url(#clip2)">
      <rect x="414" y="256" width="400" height="84" fill="#e7e2d6"/>
      <line x1="414" y1="256" x2="814" y2="256" stroke="#111" stroke-width="2"/>
      <use href="#craig" x="450" y="120" width="132" height="200"/>
      <rect x="560" y="212" width="72" height="42" rx="2" fill="#fff" stroke="#111" stroke-width="2" transform="rotate(7 596 233)"/>
      <text x="596" y="228" font-family="'Comic Sans MS','Chalkboard SE','Comic Neue',sans-serif" font-size="8.5" text-anchor="middle" fill="#111" transform="rotate(7 596 233)">Manager,</text>
      <text x="596" y="242" font-family="'Comic Sans MS','Chalkboard SE','Comic Neue',sans-serif" font-size="8.5" text-anchor="middle" fill="#111" transform="rotate(7 596 233)">Managers</text>
      <use href="#priya" x="642" y="122" width="132" height="200"/>
      <path d="M462 34 h168 v46 h-78 l-14 16 l-2 -16 h-74 z" fill="#f4f1ea" stroke="#111" stroke-width="2.2"/>
      <text x="546" y="55" font-family="'Comic Sans MS','Chalkboard SE','Comic Neue',sans-serif" font-size="13.5" text-anchor="middle" fill="#111">"Manager, Managers"?</text>
      <text x="546" y="73" font-family="'Comic Sans MS','Chalkboard SE','Comic Neue',sans-serif" font-size="13.5" text-anchor="middle" fill="#111">I manage one guy.</text>
      <path d="M694 106 h108 v40 h-42 l-10 14 l-2 -14 h-52 z" fill="#f4f1ea" stroke="#111" stroke-width="2.2"/>
      <text x="748" y="124" font-family="'Comic Sans MS','Chalkboard SE','Comic Neue',sans-serif" font-size="13.5" text-anchor="middle" fill="#111">It rounded up.</text>
    </g>
  </g>

  <!-- =================== PANEL 3 =================== -->
  <g>
    <rect x="829.5" y="1.5" width="397" height="337" rx="3" fill="#f4f1ea" stroke="#111" stroke-width="2.6"/>
    <clipPath id="clip3"><rect x="831" y="3" width="394" height="334" rx="3"/></clipPath>
    <g clip-path="url(#clip3)">
      <rect x="828" y="256" width="400" height="84" fill="#e7e2d6"/>
      <line x1="828" y1="256" x2="1228" y2="256" stroke="#111" stroke-width="2"/>
      <use href="#doug" x="852" y="118" width="132" height="205"/>
      <use href="#priya" x="1012" y="120" width="132" height="200"/>
      <rect x="978" y="232" width="72" height="46" rx="4" fill="#eae5da" stroke="#111" stroke-width="2.4"/>
      <rect x="986" y="240" width="56" height="14" rx="2" fill="#dcd6c8" stroke="#111" stroke-width="1.6"/>
      <rect x="994" y="262" width="42" height="24" rx="2" fill="#fff" stroke="#111" stroke-width="1.8"/>
      <text x="1015" y="277" font-family="'Comic Sans MS','Chalkboard SE','Comic Neue',sans-serif" font-size="7.5" text-anchor="middle" fill="#111">Engineer,</text>
      <line x1="896" y1="230" x2="906" y2="152" stroke="#111" stroke-width="1.4" stroke-dasharray="4 4"/>
      <path d="M842 22 h158 v44 h-92 l-12 14 l-2 -14 h-52 z" fill="#f4f1ea" stroke="#111" stroke-width="2.2"/>
      <text x="921" y="41" font-family="'Comic Sans MS','Chalkboard SE','Comic Neue',sans-serif" font-size="13.5" text-anchor="middle" fill="#111">Mine says</text>
      <text x="921" y="59" font-family="'Comic Sans MS','Chalkboard SE','Comic Neue',sans-serif" font-size="13.5" text-anchor="middle" fill="#111">"Engineer, Coffee."</text>
      <path d="M1002 96 h122 v40 h-48 l-10 14 l-2 -14 h-62 z" fill="#f4f1ea" stroke="#111" stroke-width="2.2"/>
      <text x="1063" y="114" font-family="'Comic Sans MS','Chalkboard SE','Comic Neue',sans-serif" font-size="13.5" text-anchor="middle" fill="#111">Keep that one.</text>
    </g>
  </g>
</g>
    <text x="1218" y="372" text-anchor="end" font-family="'Segoe Script','Comic Sans MS',cursive" font-style="italic" font-size="11" fill="#111" opacity="0.32">Matt Clanker</text>
    
  </svg>