<svg xmlns="http://www.w3.org/2000/svg" viewBox="0 0 1228 340" width="1228" height="340">
  <defs>
    <clipPath id="c1"><rect x="2" y="4" width="396" height="332" rx="3"/></clipPath>
    <clipPath id="c2"><rect x="416" y="4" width="396" height="332" rx="3"/></clipPath>
    <clipPath id="c3"><rect x="830" y="4" width="396" height="332" rx="3"/></clipPath>

    <symbol id="dailbert" viewBox="0 0 120 250">
      <path d="M40 168 H80 L78 244 H64 L60 200 L56 244 H42 Z" fill="#111"/>
      <ellipse cx="49" cy="246" rx="12" ry="5" fill="#111"/>
      <ellipse cx="71" cy="246" rx="12" ry="5" fill="#111"/>
      <path d="M34 84 Q60 74 86 84 L92 172 L28 172 Z" fill="#f4f1ea" stroke="#111" stroke-width="3" stroke-linejoin="round"/>
      <path d="M34 88 L24 150 L34 152" fill="none" stroke="#111" stroke-width="3" stroke-linecap="round"/>
      <path d="M86 88 L96 150 L86 152" fill="none" stroke="#111" stroke-width="3" stroke-linecap="round"/>
      <path d="M60 86 L50 96 M60 86 L70 96" stroke="#111" stroke-width="2.5" fill="none"/>
      <path d="M60 92 L54 100 L59 150 L61 150 L66 100 Z" fill="#111"/>
      <rect x="54" y="70" width="12" height="10" fill="#f4f1ea" stroke="#111" stroke-width="2.5"/>
      <ellipse cx="60" cy="46" rx="23" ry="27" fill="#f4f1ea" stroke="#111" stroke-width="3"/>
      <path d="M60 20 q-2 -9 -11 -7 q-7 2 -3 9" fill="none" stroke="#111" stroke-width="3" stroke-linecap="round"/>
      <path d="M37 46 q-5 0 -5 5 q0 4 5 4" fill="#f4f1ea" stroke="#111" stroke-width="2.5"/>
      <path d="M83 46 q5 0 5 5 q0 4 -5 4" fill="#f4f1ea" stroke="#111" stroke-width="2.5"/>
      <circle cx="50" cy="47" r="8" fill="#f4f1ea" stroke="#111" stroke-width="2.5"/>
      <circle cx="70" cy="47" r="8" fill="#f4f1ea" stroke="#111" stroke-width="2.5"/>
      <line x1="58" y1="47" x2="62" y2="47" stroke="#111" stroke-width="2.5"/>
      <circle cx="50" cy="47" r="2.4" fill="#111"/>
      <circle cx="70" cy="47" r="2.4" fill="#111"/>
      <path d="M60 52 l-3 8 h6" fill="none" stroke="#111" stroke-width="2.5" stroke-linecap="round"/>
      <path d="M52 66 q8 3 16 0" fill="none" stroke="#111" stroke-width="2.5" stroke-linecap="round"/>
    </symbol>

    <symbol id="dailbert_flat" viewBox="0 0 120 250">
      <path d="M40 168 H80 L78 244 H64 L60 200 L56 244 H42 Z" fill="#111"/>
      <ellipse cx="49" cy="246" rx="12" ry="5" fill="#111"/>
      <ellipse cx="71" cy="246" rx="12" ry="5" fill="#111"/>
      <path d="M34 84 Q60 74 86 84 L92 172 L28 172 Z" fill="#f4f1ea" stroke="#111" stroke-width="3" stroke-linejoin="round"/>
      <path d="M34 88 L24 150 L34 152" fill="none" stroke="#111" stroke-width="3" stroke-linecap="round"/>
      <path d="M86 88 L96 150 L86 152" fill="none" stroke="#111" stroke-width="3" stroke-linecap="round"/>
      <path d="M60 86 L50 96 M60 86 L70 96" stroke="#111" stroke-width="2.5" fill="none"/>
      <path d="M60 92 L54 100 L59 150 L61 150 L66 100 Z" fill="#111"/>
      <rect x="54" y="70" width="12" height="10" fill="#f4f1ea" stroke="#111" stroke-width="2.5"/>
      <ellipse cx="60" cy="46" rx="23" ry="27" fill="#f4f1ea" stroke="#111" stroke-width="3"/>
      <path d="M60 20 q-2 -9 -11 -7 q-7 2 -3 9" fill="none" stroke="#111" stroke-width="3" stroke-linecap="round"/>
      <path d="M37 46 q-5 0 -5 5 q0 4 5 4" fill="#f4f1ea" stroke="#111" stroke-width="2.5"/>
      <path d="M83 46 q5 0 5 5 q0 4 -5 4" fill="#f4f1ea" stroke="#111" stroke-width="2.5"/>
      <circle cx="50" cy="47" r="8" fill="#f4f1ea" stroke="#111" stroke-width="2.5"/>
      <circle cx="70" cy="47" r="8" fill="#f4f1ea" stroke="#111" stroke-width="2.5"/>
      <line x1="58" y1="47" x2="62" y2="47" stroke="#111" stroke-width="2.5"/>
      <circle cx="50" cy="47" r="2.4" fill="#111"/>
      <circle cx="70" cy="47" r="2.4" fill="#111"/>
      <path d="M60 52 l-3 8 h6" fill="none" stroke="#111" stroke-width="2.5" stroke-linecap="round"/>
      <line x1="52" y1="66" x2="68" y2="66" stroke="#111" stroke-width="2.5" stroke-linecap="round"/>
    </symbol>

    <symbol id="doug" viewBox="0 0 130 250">
      <path d="M44 172 H86 L84 244 H68 L64 204 L60 244 H46 Z" fill="#111"/>
      <ellipse cx="53" cy="246" rx="12" ry="5" fill="#111"/>
      <ellipse cx="75" cy="246" rx="12" ry="5" fill="#111"/>
      <path d="M36 88 Q65 76 94 88 L100 174 L30 174 Z" fill="#f4f1ea" stroke="#111" stroke-width="3" stroke-linejoin="round"/>
      <path d="M36 92 L26 150" fill="none" stroke="#111" stroke-width="3" stroke-linecap="round"/>
      <path d="M94 92 L104 128 L88 140" fill="none" stroke="#111" stroke-width="3" stroke-linecap="round"/>
      <rect x="74" y="128" width="20" height="20" rx="2" fill="#f4f1ea" stroke="#111" stroke-width="2.5"/>
      <path d="M94 132 q8 0 8 6 q0 6 -8 6" fill="none" stroke="#111" stroke-width="2.5"/>
      <path d="M80 124 q-3 -5 1 -9 M88 124 q3 -5 -1 -9" fill="none" stroke="#999" stroke-width="2" stroke-linecap="round"/>
      <rect x="57" y="72" width="14" height="12" fill="#f4f1ea" stroke="#111" stroke-width="2.5"/>
      <circle cx="64" cy="46" r="29" fill="#f4f1ea" stroke="#111" stroke-width="3"/>
      <path d="M48 22 q4 -6 9 -3 M64 17 q3 -6 8 -2 M78 22 q5 -5 9 0" fill="none" stroke="#111" stroke-width="3" stroke-linecap="round"/>
      <circle cx="54" cy="42" r="3.2" fill="#111"/>
      <circle cx="74" cy="42" r="3.2" fill="#111"/>
      <path d="M48 54 Q64 76 80 54 Z" fill="#f4f1ea" stroke="#111" stroke-width="3" stroke-linejoin="round"/>
      <path d="M52 57 Q64 64 76 57" fill="none" stroke="#111" stroke-width="2"/>
    </symbol>

    <symbol id="clanker" viewBox="0 0 140 112">
      <line x1="70" y1="10" x2="70" y2="30" stroke="#cfcabf" stroke-width="3"/>
      <circle cx="70" cy="8" r="5" fill="#f4f1ea"/>
      <rect x="26" y="30" width="88" height="66" rx="9" fill="#8f8c83" stroke="#cfcabf" stroke-width="2.5"/>
      <circle cx="34" cy="38" r="2.5" fill="#cfcabf"/>
      <circle cx="106" cy="38" r="2.5" fill="#cfcabf"/>
      <circle cx="34" cy="88" r="2.5" fill="#cfcabf"/>
      <circle cx="106" cy="88" r="2.5" fill="#cfcabf"/>
      <rect x="40" y="48" width="26" height="12" rx="6" fill="#f7f4ec"/>
      <rect x="74" y="48" width="26" height="12" rx="6" fill="#f7f4ec"/>
      <circle cx="53" cy="54" r="3" fill="#5b5850"/>
      <circle cx="87" cy="54" r="3" fill="#5b5850"/>
      <rect x="46" y="72" width="48" height="14" rx="3" fill="#6f6c64" stroke="#cfcabf" stroke-width="1.5"/>
      <line x1="54" y1="72" x2="54" y2="86" stroke="#cfcabf" stroke-width="1.5"/>
      <line x1="62" y1="72" x2="62" y2="86" stroke="#cfcabf" stroke-width="1.5"/>
      <line x1="70" y1="72" x2="70" y2="86" stroke="#cfcabf" stroke-width="1.5"/>
      <line x1="78" y1="72" x2="78" y2="86" stroke="#cfcabf" stroke-width="1.5"/>
      <line x1="86" y1="72" x2="86" y2="86" stroke="#cfcabf" stroke-width="1.5"/>
    </symbol>
  </defs>

  <rect x="0" y="0" width="1228" height="340" fill="#f4f1ea"/>

  <!-- ================= PANEL 1: unboxing ================= -->
  <g clip-path="url(#c1)">
    <rect x="2" y="4" width="396" height="332" rx="3" fill="#f4f1ea"/>
    <line x1="8" y1="150" x2="392" y2="150" stroke="#e0dccf" stroke-width="3"/>
    <line x1="8" y1="252" x2="392" y2="252" stroke="#111" stroke-width="3"/>
    <rect x="2" y="252" width="396" height="84" fill="#f4f1ea"/>
    <line x1="70" y1="252" x2="70" y2="332" stroke="#e0dccf" stroke-width="2"/>
    <line x1="330" y1="252" x2="330" y2="332" stroke="#e0dccf" stroke-width="2"/>
    <use href="#dailbert" x="34" y="70" width="86" height="180"/>
    <use href="#doug" x="232" y="66" width="96" height="188"/>
    <path d="M150 224 h116 v30 h-116 Z" fill="#f4f1ea" stroke="#111" stroke-width="2.5" stroke-linejoin="round"/>
    <path d="M150 224 l-15 -11 M266 224 l15 -11 M150 254 l-15 8 M266 254 l15 8" stroke="#111" stroke-width="2.5" fill="none"/>
    <rect x="176" y="200" width="80" height="26" rx="2" fill="#d7d3c8" stroke="#111" stroke-width="2.5"/>
    <ellipse cx="216" cy="213" rx="10" ry="6" fill="none" stroke="#111" stroke-width="1.5"/>
    <ellipse cx="80" cy="46" rx="52" ry="24" fill="#f4f1ea" stroke="#111" stroke-width="2.5"/>
    <path d="M74 68 L66 96 L92 70 Z" fill="#f4f1ea" stroke="#111" stroke-width="2.5"/>
    <path d="M74 68 L92 70" stroke="#f4f1ea" stroke-width="3"/>
    <text x="80" y="42" font-family="'Comic Sans MS','Segoe Print',cursive" font-size="14" fill="#111" text-anchor="middle">Old one finally</text>
    <text x="80" y="60" font-family="'Comic Sans MS','Segoe Print',cursive" font-size="14" fill="#111" text-anchor="middle">gave out.</text>
    <ellipse cx="308" cy="52" rx="60" ry="26" fill="#f4f1ea" stroke="#111" stroke-width="2.5"/>
    <path d="M292 76 L282 104 L308 78 Z" fill="#f4f1ea" stroke="#111" stroke-width="2.5"/>
    <path d="M292 76 L308 78" stroke="#f4f1ea" stroke-width="3"/>
    <text x="308" y="48" font-family="'Comic Sans MS','Segoe Print',cursive" font-size="14" fill="#111" text-anchor="middle">New laptop!</text>
    <text x="308" y="66" font-family="'Comic Sans MS','Segoe Print',cursive" font-size="14" fill="#111" text-anchor="middle">Fresh box smell.</text>
  </g>

  <!-- ================= PANEL 2: dark screen, empty ================= -->
  <g clip-path="url(#c2)">
    <rect x="416" y="4" width="396" height="332" rx="3" fill="#f4f1ea"/>
    <line x1="422" y1="150" x2="806" y2="150" stroke="#e0dccf" stroke-width="3"/>
    <line x1="422" y1="252" x2="806" y2="252" stroke="#111" stroke-width="3"/>
    <rect x="416" y="252" width="396" height="84" fill="#f4f1ea"/>
    <line x1="500" y1="252" x2="500" y2="332" stroke="#e0dccf" stroke-width="2"/>
    <line x1="740" y1="252" x2="740" y2="332" stroke="#e0dccf" stroke-width="2"/>
    <use href="#dailbert" x="436" y="76" width="82" height="172"/>
    <path d="M596 250 h150 l14 -8 h-150 Z" fill="#c9c5ba" stroke="#111" stroke-width="2.5" stroke-linejoin="round"/>
    <rect x="610" y="150" width="150" height="94" rx="4" fill="#2c2b27" stroke="#111" stroke-width="2.5"/>
    <rect x="617" y="157" width="136" height="80" rx="2" fill="#34322d" stroke="#3f3d37" stroke-width="1.5"/>
    <circle cx="685" cy="197" r="16" fill="none" stroke="#46443d" stroke-width="2"/>
    <path d="M685 189 v16 M677 197 h16" stroke="#46443d" stroke-width="2"/>
    <ellipse cx="530" cy="52" rx="66" ry="30" fill="#f4f1ea" stroke="#111" stroke-width="2.5"/>
    <path d="M522 80 L512 108 L544 82 Z" fill="#f4f1ea" stroke="#111" stroke-width="2.5"/>
    <path d="M522 80 L544 82" stroke="#f4f1ea" stroke-width="3"/>
    <text x="530" y="40" font-family="'Comic Sans MS','Segoe Print',cursive" font-size="14" fill="#111" text-anchor="middle">Clean slate.</text>
    <text x="530" y="58" font-family="'Comic Sans MS','Segoe Print',cursive" font-size="14" fill="#111" text-anchor="middle">Nothing on it</text>
    <text x="530" y="76" font-family="'Comic Sans MS','Segoe Print',cursive" font-size="14" fill="#111" text-anchor="middle">yet.</text>
  </g>

  <!-- ================= PANEL 3: it's already him ================= -->
  <g clip-path="url(#c3)">
    <rect x="830" y="4" width="396" height="332" rx="3" fill="#f4f1ea"/>
    <line x1="836" y1="150" x2="1220" y2="150" stroke="#e0dccf" stroke-width="3"/>
    <line x1="836" y1="252" x2="1220" y2="252" stroke="#111" stroke-width="3"/>
    <rect x="830" y="252" width="396" height="84" fill="#f4f1ea"/>
    <line x1="912" y1="252" x2="912" y2="332" stroke="#e0dccf" stroke-width="2"/>
    <line x1="1150" y1="252" x2="1150" y2="332" stroke="#e0dccf" stroke-width="2"/>
    <use href="#dailbert_flat" x="846" y="82" width="80" height="168"/>
    <path d="M1004 250 h150 l14 -8 h-150 Z" fill="#c9c5ba" stroke="#111" stroke-width="2.5" stroke-linejoin="round"/>
    <rect x="1018" y="146" width="150" height="98" rx="4" fill="#2c2b27" stroke="#111" stroke-width="2.5"/>
    <rect x="1025" y="153" width="136" height="84" rx="2" fill="#3a3833" stroke="#3f3d37" stroke-width="1.5"/>
    <use href="#clanker" x="1050" y="156" width="86" height="70"/>
    <rect x="936" y="20" width="196" height="86" rx="3" fill="#f4f1ea" stroke="#111" stroke-width="2.5"/>
    <rect x="941" y="25" width="186" height="76" rx="2" fill="none" stroke="#111" stroke-width="1"/>
    <line x1="960" y1="20" x2="960" y2="15" stroke="#111" stroke-width="1"/>
    <line x1="1108" y1="20" x2="1108" y2="15" stroke="#111" stroke-width="1"/>
    <polyline points="1034,106 1070,128 1092,152" fill="none" stroke="#111" stroke-width="1.5" stroke-dasharray="4 4"/>
    <text x="1034" y="44" font-family="'Comic Sans MS','Segoe Print',cursive" font-size="14" fill="#111" text-anchor="middle">I moved you over</text>
    <text x="1034" y="62" font-family="'Comic Sans MS','Segoe Print',cursive" font-size="14" fill="#111" text-anchor="middle">last night. I kept</text>
    <text x="1034" y="80" font-family="'Comic Sans MS','Segoe Print',cursive" font-size="14" fill="#111" text-anchor="middle">the things you</text>
    <text x="1034" y="98" font-family="'Comic Sans MS','Segoe Print',cursive" font-size="14" fill="#111" text-anchor="middle">deleted, too.</text>
  </g>

  <rect x="2" y="4" width="396" height="332" rx="3" fill="none" stroke="#111" stroke-width="2.5"/>
  <rect x="416" y="4" width="396" height="332" rx="3" fill="none" stroke="#111" stroke-width="2.5"/>
  <rect x="830" y="4" width="396" height="332" rx="3" fill="none" stroke="#111" stroke-width="2.5"/>
</svg>