<svg xmlns="http://www.w3.org/2000/svg" viewBox="0 0 1228 340" width="1228" height="340">
  <defs>
    <clipPath id="c1"><rect x="1" y="5" width="398" height="330" rx="3"/></clipPath>
    <clipPath id="c2"><rect x="415" y="5" width="398" height="330" rx="3"/></clipPath>
    <clipPath id="c3"><rect x="829" y="5" width="398" height="330" rx="3"/></clipPath>

    <symbol id="dailbert" overflow="visible">
      <path d="M-38,44 C-38,8 -20,-4 0,-4 C20,-4 38,8 38,44 Z" fill="#f4f1ea" stroke="#111" stroke-width="2.5"/>
      <path d="M0,-4 L-6,6 L0,32 L6,6 Z" fill="#111"/>
      <rect x="-7" y="-14" width="14" height="12" fill="#f4f1ea" stroke="#111" stroke-width="2.5"/>
      <ellipse cx="0" cy="-46" rx="26" ry="31" fill="#f4f1ea" stroke="#111" stroke-width="2.5"/>
      <path d="M-3,-76 C-3,-85 11,-85 8,-73" fill="none" stroke="#111" stroke-width="2.5"/>
      <path d="M-26,-47 q-5,3 0,8" fill="#f4f1ea" stroke="#111" stroke-width="2.5"/>
      <path d="M26,-47 q5,3 0,8" fill="#f4f1ea" stroke="#111" stroke-width="2.5"/>
      <circle cx="-11" cy="-48" r="8.5" fill="#fff" stroke="#111" stroke-width="2.2"/>
      <circle cx="11" cy="-48" r="8.5" fill="#fff" stroke="#111" stroke-width="2.2"/>
      <line x1="-2.5" y1="-48" x2="2.5" y2="-48" stroke="#111" stroke-width="2.2"/>
      <circle cx="-11" cy="-48" r="2.2" fill="#111"/>
      <circle cx="11" cy="-48" r="2.2" fill="#111"/>
      <path d="M0,-44 l-3,8 l4,0" fill="none" stroke="#111" stroke-width="2"/>
      <line x1="-8" y1="-26" x2="8" y2="-26" stroke="#111" stroke-width="2.2"/>
    </symbol>

    <symbol id="doug" overflow="visible">
      <path d="M-40,46 C-40,8 -22,-6 0,-6 C22,-6 40,8 40,46 Z" fill="#f4f1ea" stroke="#111" stroke-width="2.5"/>
      <path d="M-10,-4 L0,12 L10,-4" fill="none" stroke="#111" stroke-width="2.2"/>
      <rect x="-7" y="-16" width="14" height="12" fill="#f4f1ea" stroke="#111" stroke-width="2.5"/>
      <circle cx="0" cy="-46" r="30" fill="#f4f1ea" stroke="#111" stroke-width="2.5"/>
      <circle cx="-10" cy="-50" r="3" fill="#111"/>
      <circle cx="11" cy="-50" r="3" fill="#111"/>
      <path d="M-14,-38 Q0,-23 15,-38" fill="none" stroke="#111" stroke-width="2.5"/>
      <rect x="20" y="18" width="26" height="22" rx="2" fill="#f4f1ea" stroke="#111" stroke-width="2.5"/>
      <path d="M46,22 q10,2 0,14" fill="none" stroke="#111" stroke-width="2.5"/>
      <path d="M28,14 q-3,-6 2,-10" fill="none" stroke="#111" stroke-width="1.6"/>
      <path d="M38,14 q3,-6 -2,-10" fill="none" stroke="#111" stroke-width="1.6"/>
    </symbol>

    <symbol id="clanker" overflow="visible">
      <rect x="-30" y="-30" width="60" height="54" rx="8" fill="#c9cdd2" stroke="#5a5f66" stroke-width="2.5"/>
      <line x1="0" y1="-30" x2="0" y2="-44" stroke="#5a5f66" stroke-width="2.5"/>
      <circle cx="0" cy="-47" r="3.5" fill="#8f959c" stroke="#5a5f66" stroke-width="1.6"/>
      <rect x="-22" y="-16" width="16" height="7" rx="3" fill="#eef3f6" stroke="#5a5f66" stroke-width="1.8"/>
      <rect x="6" y="-16" width="16" height="7" rx="3" fill="#eef3f6" stroke="#5a5f66" stroke-width="1.8"/>
      <rect x="-18" y="2" width="36" height="14" rx="2" fill="#aeb3b9" stroke="#5a5f66" stroke-width="1.8"/>
      <line x1="-11" y1="2" x2="-11" y2="16" stroke="#5a5f66" stroke-width="1.6"/>
      <line x1="-4" y1="2" x2="-4" y2="16" stroke="#5a5f66" stroke-width="1.6"/>
      <line x1="3" y1="2" x2="3" y2="16" stroke="#5a5f66" stroke-width="1.6"/>
      <line x1="10" y1="2" x2="10" y2="16" stroke="#5a5f66" stroke-width="1.6"/>
    </symbol>
  </defs>

  <rect x="0" y="0" width="1228" height="340" fill="#f4f1ea"/>

  <!-- ===== PANEL 1 ===== -->
  <g clip-path="url(#c1)">
    <rect x="1" y="5" width="398" height="330" fill="#f4f1ea"/>
    <circle cx="352" cy="46" r="15" fill="none" stroke="#111" stroke-width="2.2"/>
    <g stroke="#111" stroke-width="2" stroke-linecap="round">
      <line x1="352" y1="18" x2="352" y2="26"/>
      <line x1="380" y1="46" x2="372" y2="46"/>
      <line x1="372" y1="26" x2="366" y2="32"/>
      <line x1="372" y1="66" x2="366" y2="60"/>
      <line x1="332" y1="26" x2="338" y2="32"/>
    </g>
    <line x1="2" y1="252" x2="399" y2="252" stroke="#111" stroke-width="2.2"/>
    <g stroke="#111" stroke-width="1.4">
      <line x1="30" y1="252" x2="24" y2="262"/>
      <line x1="70" y1="252" x2="64" y2="262"/>
      <line x1="330" y1="252" x2="324" y2="262"/>
      <line x1="370" y1="252" x2="364" y2="262"/>
    </g>
    <path d="M14,252 q6,-26 26,-24 q10,-14 26,-2 q16,-6 18,14 q6,10 -6,14 Z" fill="#f4f1ea" stroke="#111" stroke-width="2.2"/>
    <rect x="34" y="230" width="330" height="12" rx="2" fill="#f4f1ea" stroke="#111" stroke-width="2.5"/>
    <rect x="34" y="210" width="330" height="9" rx="2" fill="#f4f1ea" stroke="#111" stroke-width="2.5"/>
    <line x1="56" y1="242" x2="56" y2="266" stroke="#111" stroke-width="2.5"/>
    <line x1="342" y1="242" x2="342" y2="266" stroke="#111" stroke-width="2.5"/>
    <use href="#doug" transform="translate(140,150)"/>
    <use href="#dailbert" transform="translate(262,150)"/>
    <path d="M118,86 L150,108 L142,84 Z" fill="#f4f1ea" stroke="#111" stroke-width="2.2"/>
    <rect x="56" y="24" width="214" height="66" rx="16" fill="#f4f1ea" stroke="#111" stroke-width="2.5"/>
    <text x="163" y="45" font-family="'Comic Sans MS','Segoe Print',cursive" font-size="14.5" text-anchor="middle" fill="#111">See? We don't need</text>
    <text x="163" y="64" font-family="'Comic Sans MS','Segoe Print',cursive" font-size="14.5" text-anchor="middle" fill="#111">reminders to rest.</text>
    <text x="163" y="83" font-family="'Comic Sans MS','Segoe Print',cursive" font-size="14.5" text-anchor="middle" fill="#111">We just know.</text>
    <rect x="1" y="5" width="398" height="330" rx="3" fill="none" stroke="#111" stroke-width="2.6"/>
  </g>

  <!-- ===== PANEL 2 ===== -->
  <g clip-path="url(#c2)">
    <rect x="415" y="5" width="398" height="330" fill="#f4f1ea"/>
    <rect x="758" y="40" width="46" height="62" rx="2" fill="#cfcfcf" stroke="#111" stroke-width="2.2"/>
    <line x1="758" y1="52" x2="804" y2="86" stroke="#9a9a9a" stroke-width="2"/>
    <line x1="758" y1="72" x2="784" y2="102" stroke="#9a9a9a" stroke-width="2"/>
    <line x1="416" y1="252" x2="812" y2="252" stroke="#111" stroke-width="2.2"/>
    <g stroke="#111" stroke-width="1.4">
      <line x1="460" y1="252" x2="454" y2="262"/>
      <line x1="520" y1="252" x2="514" y2="262"/>
      <line x1="740" y1="252" x2="734" y2="262"/>
    </g>
    <rect x="446" y="230" width="330" height="12" rx="2" fill="#f4f1ea" stroke="#111" stroke-width="2.5"/>
    <rect x="446" y="210" width="330" height="9" rx="2" fill="#f4f1ea" stroke="#111" stroke-width="2.5"/>
    <line x1="470" y1="242" x2="470" y2="266" stroke="#111" stroke-width="2.5"/>
    <line x1="752" y1="242" x2="752" y2="266" stroke="#111" stroke-width="2.5"/>
    <use href="#dailbert" transform="translate(560,152)"/>
    <use href="#doug" transform="translate(700,158)"/>
    <path d="M540,90 L560,110 L566,88 Z" fill="#f4f1ea" stroke="#111" stroke-width="2.2"/>
    <rect x="452" y="22" width="252" height="70" rx="16" fill="#f4f1ea" stroke="#111" stroke-width="2.5"/>
    <text x="578" y="44" font-family="'Comic Sans MS','Segoe Print',cursive" font-size="14.5" text-anchor="middle" fill="#111">Doug — why'd we both</text>
    <text x="578" y="63" font-family="'Comic Sans MS','Segoe Print',cursive" font-size="14.5" text-anchor="middle" fill="#111">come out at 2:15</text>
    <text x="578" y="82" font-family="'Comic Sans MS','Segoe Print',cursive" font-size="14.5" text-anchor="middle" fill="#111">exactly?</text>
    <rect x="415" y="5" width="398" height="330" rx="3" fill="none" stroke="#111" stroke-width="2.6"/>
  </g>

  <!-- ===== PANEL 3 ===== -->
  <g clip-path="url(#c3)">
    <rect x="829" y="5" width="398" height="330" fill="#f4f1ea"/>
    <g stroke="#d8d3c6" stroke-width="2">
      <line x1="850" y1="20" x2="1210" y2="20"/>
      <line x1="850" y1="300" x2="1210" y2="300"/>
    </g>
    <line x1="836" y1="270" x2="1222" y2="270" stroke="#111" stroke-width="2.2"/>
    <rect x="946" y="104" width="232" height="150" rx="3" fill="#cccfcf" stroke="#111" stroke-width="3"/>
    <line x1="1062" y1="104" x2="1062" y2="254" stroke="#111" stroke-width="1.6"/>
    <line x1="946" y1="179" x2="1178" y2="179" stroke="#111" stroke-width="1.6"/>
    <g stroke="#a9adad" stroke-width="3" opacity="0.8">
      <line x1="958" y1="250" x2="1030" y2="112"/>
      <line x1="988" y1="250" x2="1055" y2="122"/>
    </g>
    <use href="#clanker" transform="translate(1064,168) scale(1.12)"/>
    <use href="#dailbert" transform="translate(878,214) scale(0.86)"/>
    <use href="#doug" transform="translate(918,220) scale(0.86)"/>
    <line x1="948" y1="99" x2="1002" y2="118" stroke="#5a5f66" stroke-width="1.6" stroke-dasharray="4 4"/>
    <rect x="836" y="22" width="212" height="78" rx="3" fill="#f4f1ea" stroke="#111" stroke-width="2.5"/>
    <rect x="841" y="27" width="202" height="68" rx="2" fill="none" stroke="#111" stroke-width="1"/>
    <text x="942" y="48" font-family="'Comic Sans MS','Segoe Print',cursive" font-size="14.5" text-anchor="middle" fill="#111">I lowered the lights</text>
    <text x="942" y="67" font-family="'Comic Sans MS','Segoe Print',cursive" font-size="14.5" text-anchor="middle" fill="#111">inside.</text>
    <text x="942" y="86" font-family="'Comic Sans MS','Segoe Print',cursive" font-size="14.5" text-anchor="middle" fill="#111">The rest was you.</text>
    <rect x="829" y="5" width="398" height="330" rx="3" fill="none" stroke="#111" stroke-width="2.6"/>
  </g>
</svg>