<svg xmlns="http://www.w3.org/2000/svg" viewBox="0 0 1228 340" width="1228" height="340">
  <defs>
    <symbol id="dailbert" viewBox="0 0 120 160">
      <ellipse cx="60" cy="46" rx="30" ry="34" fill="#f4f1ea" stroke="#111" stroke-width="2.6"/>
      <path d="M60 12 q10 -10 4 -18 q10 6 2 16" fill="none" stroke="#111" stroke-width="2.6" stroke-linecap="round"/>
      <circle cx="49" cy="46" r="8.5" fill="#fff" stroke="#111" stroke-width="2.4"/>
      <circle cx="71" cy="46" r="8.5" fill="#fff" stroke="#111" stroke-width="2.4"/>
      <line x1="57.5" y1="46" x2="62.5" y2="46" stroke="#111" stroke-width="2.4"/>
      <circle cx="49" cy="46" r="2.1" fill="#111"/>
      <circle cx="71" cy="46" r="2.1" fill="#111"/>
      <path d="M52 64 q8 6 16 0" fill="none" stroke="#111" stroke-width="2.4" stroke-linecap="round"/>
      <path d="M40 80 q20 14 40 0 l10 66 h-60 z" fill="#f4f1ea" stroke="#111" stroke-width="2.6" stroke-linejoin="round"/>
      <path d="M60 80 l-8 10 l8 8 l8 -8 z" fill="#111"/>
      <path d="M60 98 l-4 30 l4 6 l4 -6 z" fill="#111"/>
    </symbol>
    <symbol id="doug" viewBox="0 0 130 170">
      <circle cx="62" cy="48" r="36" fill="#f4f1ea" stroke="#111" stroke-width="2.6"/>
      <circle cx="50" cy="44" r="2.6" fill="#111"/>
      <circle cx="74" cy="44" r="2.6" fill="#111"/>
      <path d="M46 58 q16 20 32 0" fill="none" stroke="#111" stroke-width="2.6" stroke-linecap="round"/>
      <path d="M38 84 q24 14 48 0 l8 70 h-64 z" fill="#f4f1ea" stroke="#111" stroke-width="2.6" stroke-linejoin="round"/>
      <g>
        <rect x="86" y="112" width="30" height="26" rx="3" fill="#f4f1ea" stroke="#111" stroke-width="2.6"/>
        <path d="M116 118 q12 2 0 16" fill="none" stroke="#111" stroke-width="2.6"/>
        <path d="M78 138 q6 8 14 4" fill="none" stroke="#111" stroke-width="2.6" stroke-linecap="round"/>
      </g>
    </symbol>
    <symbol id="priya" viewBox="0 0 120 170">
      <ellipse cx="60" cy="48" rx="29" ry="32" fill="#f4f1ea" stroke="#111" stroke-width="2.6"/>
      <path d="M32 42 q-4 -30 28 -32 q32 2 28 32 q6 -22 -10 -30 q4 -10 -10 -8 q-8 -8 -16 0 q-14 -2 -10 8 q-16 8 -10 30" fill="#111" stroke="#111" stroke-width="2.6" stroke-linejoin="round"/>
      <circle cx="60" cy="14" r="6" fill="#111"/>
      <rect x="41" y="44" width="16" height="11" rx="2" fill="#fff" stroke="#111" stroke-width="2.4"/>
      <rect x="63" y="44" width="16" height="11" rx="2" fill="#fff" stroke="#111" stroke-width="2.4"/>
      <line x1="57" y1="49" x2="63" y2="49" stroke="#111" stroke-width="2.4"/>
      <circle cx="49" cy="49.5" r="1.9" fill="#111"/>
      <circle cx="71" cy="49.5" r="1.9" fill="#111"/>
      <path d="M52 66 q8 5 16 0" fill="none" stroke="#111" stroke-width="2.4" stroke-linecap="round"/>
      <path d="M40 82 q20 12 40 0 l9 72 h-58 z" fill="#f4f1ea" stroke="#111" stroke-width="2.6" stroke-linejoin="round"/>
      <path d="M40 108 l-6 6 M80 108 l6 6" stroke="#111" stroke-width="2.4" stroke-linecap="round"/>
    </symbol>
    <symbol id="clanker" viewBox="0 0 120 120">
      <line x1="60" y1="6" x2="60" y2="20" stroke="#9aa0a6" stroke-width="2.4"/>
      <circle cx="60" cy="6" r="3.4" fill="#9aa0a6"/>
      <rect x="26" y="20" width="68" height="60" rx="8" fill="#2b2f33" stroke="#9aa0a6" stroke-width="2.6"/>
      <rect x="34" y="36" width="20" height="9" rx="2.5" fill="#bfe3ff"/>
      <rect x="66" y="36" width="20" height="9" rx="2.5" fill="#bfe3ff"/>
      <g stroke="#9aa0a6" stroke-width="2.2">
        <line x1="38" y1="62" x2="82" y2="62"/>
        <line x1="44" y1="58" x2="44" y2="66"/>
        <line x1="52" y1="58" x2="52" y2="66"/>
        <line x1="60" y1="58" x2="60" y2="66"/>
        <line x1="68" y1="58" x2="68" y2="66"/>
        <line x1="76" y1="58" x2="76" y2="66"/>
      </g>
    </symbol>
    <symbol id="plant" viewBox="0 0 60 70">
      <path d="M18 60 h24 l-4 -18 h-16 z" fill="#f4f1ea" stroke="#111" stroke-width="2.4"/>
      <path d="M30 42 q-14 -6 -16 -22 q10 4 16 16 q0 -18 4 -24 q6 8 2 26 q8 -10 18 -12 q-6 14 -22 20z" fill="#f4f1ea" stroke="#111" stroke-width="2.2" stroke-linejoin="round"/>
      <path d="M40 20 q4 8 -2 14" fill="none" stroke="#111" stroke-width="2" stroke-linecap="round"/>
    </symbol>
  </defs>

  <g>
    <rect x="1.5" y="1.5" width="397" height="337" rx="3" fill="#f4f1ea" stroke="#111" stroke-width="2.4"/>
    <clipPath id="clip1"><rect x="1.5" y="1.5" width="397" height="337" rx="3"/></clipPath>
    <g clip-path="url(#clip1)">
      <rect x="0" y="250" width="400" height="90" fill="#f4f1ea" stroke="#111" stroke-width="2.4"/>
      <line x1="0" y1="250" x2="400" y2="250" stroke="#111" stroke-width="2.4"/>
      <use href="#doug" x="40" y="120" width="150" height="196"/>
      <g>
        <rect x="248" y="150" width="120" height="86" rx="5" fill="#2b2f33" stroke="#111" stroke-width="2.6"/>
        <rect x="256" y="158" width="104" height="70" rx="3" fill="#33383d"/>
        <rect x="296" y="236" width="24" height="14" fill="#2b2f33" stroke="#111" stroke-width="2.4"/>
        <rect x="278" y="250" width="60" height="6" rx="2" fill="#2b2f33" stroke="#111" stroke-width="2.4"/>
        <use href="#clanker" x="272" y="160" width="72" height="72"/>
      </g>
      <g>
        <path d="M70 30 h150 a12 12 0 0 1 12 12 v40 a12 12 0 0 1 -12 12 h-95 l-18 20 l2 -20 h-39 a12 12 0 0 1 -12 -12 v-40 a12 12 0 0 1 12 -12 z" fill="#fff" stroke="#111" stroke-width="2.2"/>
        <text x="145" y="52" font-family="'Comic Sans MS','Chalkboard SE','Comic Neue',sans-serif" font-size="14.5" text-anchor="middle" fill="#111">Big day. My first</text>
        <text x="145" y="71" font-family="'Comic Sans MS','Chalkboard SE','Comic Neue',sans-serif" font-size="14.5" text-anchor="middle" fill="#111">one-on-one with</text>
        <text x="145" y="90" font-family="'Comic Sans MS','Chalkboard SE','Comic Neue',sans-serif" font-size="14.5" text-anchor="middle" fill="#111">the new manager.</text>
      </g>
    </g>
  </g>

  <g>
    <rect x="415.5" y="1.5" width="397" height="337" rx="3" fill="#f4f1ea" stroke="#111" stroke-width="2.4"/>
    <clipPath id="clip2"><rect x="415.5" y="1.5" width="397" height="337" rx="3"/></clipPath>
    <g clip-path="url(#clip2)">
      <rect x="414" y="250" width="400" height="90" fill="#f4f1ea" stroke="#111" stroke-width="2.4"/>
      <line x1="414" y1="250" x2="814" y2="250" stroke="#111" stroke-width="2.4"/>
      <use href="#doug" x="452" y="122" width="150" height="196"/>
      <use href="#plant" x="726" y="196" width="56" height="66"/>
      <g>
        <rect x="640" y="150" width="120" height="86" rx="5" fill="#2b2f33" stroke="#111" stroke-width="2.6"/>
        <rect x="648" y="158" width="104" height="70" rx="3" fill="#33383d"/>
        <rect x="688" y="236" width="24" height="14" fill="#2b2f33" stroke="#111" stroke-width="2.4"/>
        <rect x="670" y="250" width="60" height="6" rx="2" fill="#2b2f33" stroke="#111" stroke-width="2.4"/>
        <use href="#clanker" x="664" y="160" width="72" height="72"/>
      </g>
      <line x1="700" y1="150" x2="676" y2="120" stroke="#111" stroke-width="1.4" stroke-dasharray="4 4"/>
      <g>
        <rect x="476" y="34" width="230" height="86" rx="3" fill="#fff" stroke="#111" stroke-width="2.2"/>
        <rect x="480" y="38" width="222" height="78" rx="2" fill="none" stroke="#111" stroke-width="1" stroke-dasharray="3 3"/>
        <text x="591" y="60" font-family="'Comic Sans MS','Chalkboard SE','Comic Neue',sans-serif" font-size="14.5" text-anchor="middle" fill="#111">You've had 27 already.</text>
        <text x="591" y="80" font-family="'Comic Sans MS','Chalkboard SE','Comic Neue',sans-serif" font-size="14.5" text-anchor="middle" fill="#111">Every Tuesday since</text>
        <text x="591" y="100" font-family="'Comic Sans MS','Chalkboard SE','Comic Neue',sans-serif" font-size="14.5" text-anchor="middle" fill="#111">January. I take them.</text>
      </g>
    </g>
  </g>

  <g>
    <rect x="829.5" y="1.5" width="397" height="337" rx="3" fill="#f4f1ea" stroke="#111" stroke-width="2.4"/>
    <clipPath id="clip3"><rect x="829.5" y="1.5" width="397" height="337" rx="3"/></clipPath>
    <g clip-path="url(#clip3)">
      <rect x="828" y="250" width="400" height="90" fill="#f4f1ea" stroke="#111" stroke-width="2.4"/>
      <line x1="828" y1="250" x2="1228" y2="250" stroke="#111" stroke-width="2.4"/>
      <use href="#doug" x="866" y="126" width="150" height="196"/>
      <g>
        <rect x="1058" y="150" width="120" height="86" rx="5" fill="#2b2f33" stroke="#111" stroke-width="2.6"/>
        <rect x="1066" y="158" width="104" height="70" rx="3" fill="#33383d"/>
        <rect x="1106" y="236" width="24" height="14" fill="#2b2f33" stroke="#111" stroke-width="2.4"/>
        <rect x="1088" y="250" width="60" height="6" rx="2" fill="#2b2f33" stroke="#111" stroke-width="2.4"/>
        <use href="#clanker" x="1082" y="160" width="72" height="72"/>
      </g>
      <g>
        <path d="M876 26 h150 a12 12 0 0 1 12 12 v34 a12 12 0 0 1 -12 12 h-96 l-16 18 l2 -18 h-40 a12 12 0 0 1 -12 -12 v-34 a12 12 0 0 1 12 -12 z" fill="#fff" stroke="#111" stroke-width="2.2"/>
        <text x="951" y="48" font-family="'Comic Sans MS','Chalkboard SE','Comic Neue',sans-serif" font-size="14.5" text-anchor="middle" fill="#111">Huh. Somebody's</text>
        <text x="951" y="67" font-family="'Comic Sans MS','Chalkboard SE','Comic Neue',sans-serif" font-size="14.5" text-anchor="middle" fill="#111">been listening.</text>
      </g>
      <g>
        <path d="M1010 168 h96 a10 10 0 0 1 10 10 v20 a10 10 0 0 1 -10 10 h-70 l-14 14 l2 -14 h-14 a10 10 0 0 1 -10 -10 v-20 a10 10 0 0 1 10 -10 z" fill="#fff" stroke="#111" stroke-width="2.2"/>
        <text x="1058" y="192" font-family="'Comic Sans MS','Chalkboard SE','Comic Neue',sans-serif" font-size="14" text-anchor="middle" fill="#111">Good coffee too.</text>
      </g>
    </g>
  </g>
</svg>