<svg xmlns="http://www.w3.org/2000/svg" viewBox="0 0 1228 388" width="1228" height="388" font-family="Georgia,serif">
    <rect width="1228" height="388" fill="#f4f1ea"/>
    <text x="4" y="26" font-family="Georgia,serif" font-weight="bold" font-size="22" fill="#111">Off to a Good Start</text>
    <text x="1224" y="26" text-anchor="end" font-family="'Courier New',monospace" font-size="14" fill="#111" opacity="0.7">2026-06-03</text>
    <line x1="4" y1="34" x2="1224" y2="34" stroke="#111" stroke-width="2"/>
    <g transform="translate(0,40)">
  <defs>
    <pattern id="scan" width="6" height="6" patternUnits="userSpaceOnUse">
      <line x1="0" y1="0.5" x2="6" y2="0.5" stroke="#111" stroke-width="1" opacity="0.10"/>
    </pattern>

    <symbol id="dailbert" viewBox="0 0 120 160">
      <path d="M18 160 Q18 116 60 114 Q102 116 102 160 Z" fill="#f4f1ea" stroke="#111" stroke-width="3" stroke-linejoin="round"/>
      <path d="M52 106 L52 120 M68 106 L68 120" stroke="#111" stroke-width="2.5"/>
      <path d="M46 118 L60 132 L74 118" fill="#f4f1ea" stroke="#111" stroke-width="2.5" stroke-linejoin="round"/>
      <path d="M60 132 L54 138 L60 158 L66 138 Z" fill="#f4f1ea" stroke="#111" stroke-width="2.5" stroke-linejoin="round"/>
      <path d="M30 58 q-6 2 -4 10 q4 3 6 -1" fill="#f4f1ea" stroke="#111" stroke-width="2.5"/>
      <path d="M90 58 q6 2 4 10 q-4 3 -6 -1" fill="#f4f1ea" stroke="#111" stroke-width="2.5"/>
      <ellipse cx="60" cy="60" rx="30" ry="34" fill="#f4f1ea" stroke="#111" stroke-width="3"/>
      <path d="M58 27 q6 -11 15 -6 q-5 4 -2 9" fill="none" stroke="#111" stroke-width="2.5" stroke-linecap="round"/>
      <circle cx="49" cy="60" r="10" fill="#fff" stroke="#111" stroke-width="2.5"/>
      <circle cx="71" cy="60" r="10" fill="#fff" stroke="#111" stroke-width="2.5"/>
      <line x1="59" y1="60" x2="61" y2="60" stroke="#111" stroke-width="2.5"/>
      <line x1="39" y1="60" x2="34" y2="59" stroke="#111" stroke-width="2.5"/>
      <line x1="81" y1="60" x2="86" y2="59" stroke="#111" stroke-width="2.5"/>
      <circle cx="49" cy="62" r="2" fill="#111"/>
      <circle cx="71" cy="62" r="2" fill="#111"/>
      <path d="M41 49 q8 -3 15 -1" fill="none" stroke="#111" stroke-width="2" stroke-linecap="round"/>
      <path d="M64 48 q7 -2 15 1" fill="none" stroke="#111" stroke-width="2" stroke-linecap="round"/>
      <path d="M60 66 l-3 8 l6 0" fill="none" stroke="#111" stroke-width="2" stroke-linejoin="round"/>
      <path d="M50 88 q10 3 20 0" fill="none" stroke="#111" stroke-width="2.5" stroke-linecap="round"/>
    </symbol>

    <symbol id="doug" viewBox="0 0 120 160">
      <path d="M16 160 Q16 114 60 112 Q104 114 104 160 Z" fill="#f4f1ea" stroke="#111" stroke-width="3" stroke-linejoin="round"/>
      <path d="M52 104 L52 116 M68 104 L68 116" stroke="#111" stroke-width="2.5"/>
      <path d="M44 116 L60 130 L76 116" fill="#f4f1ea" stroke="#111" stroke-width="2.5" stroke-linejoin="round"/>
      <path d="M24 56 q-6 2 -4 10 q4 3 6 -1" fill="#f4f1ea" stroke="#111" stroke-width="2.5"/>
      <path d="M96 56 q6 2 4 10 q-4 3 -6 -1" fill="#f4f1ea" stroke="#111" stroke-width="2.5"/>
      <circle cx="60" cy="58" r="36" fill="#f4f1ea" stroke="#111" stroke-width="3"/>
      <path d="M50 24 q4 -9 10 -4 q3 -7 8 -1 q5 -3 7 4" fill="none" stroke="#111" stroke-width="2.5" stroke-linecap="round" stroke-linejoin="round"/>
      <circle cx="47" cy="52" r="3.6" fill="#111"/>
      <circle cx="73" cy="52" r="3.6" fill="#111"/>
      <path d="M40 68 q20 22 40 0" fill="#fff" stroke="#111" stroke-width="2.5" stroke-linejoin="round"/>
      <path d="M45 70 q15 9 30 0" fill="none" stroke="#111" stroke-width="1.8"/>
      <circle cx="60" cy="63" r="2.6" fill="#111"/>
    </symbol>

    <symbol id="clanker" viewBox="0 0 100 90">
      <line x1="50" y1="18" x2="50" y2="7" stroke="#111" stroke-width="2.5"/>
      <circle cx="50" cy="5" r="3" fill="#111"/>
      <rect x="18" y="18" width="64" height="56" rx="6" fill="#f4f1ea" stroke="#111" stroke-width="3"/>
      <rect x="27" y="33" width="17" height="8" rx="2" fill="#111"/>
      <rect x="56" y="33" width="17" height="8" rx="2" fill="#111"/>
      <line x1="24" y1="30" x2="20" y2="27" stroke="#111" stroke-width="1.3" opacity="0.5"/>
      <line x1="76" y1="30" x2="80" y2="27" stroke="#111" stroke-width="1.3" opacity="0.5"/>
      <rect x="30" y="53" width="40" height="13" rx="2" fill="#f4f1ea" stroke="#111" stroke-width="2"/>
      <line x1="38" y1="53" x2="38" y2="66" stroke="#111" stroke-width="1.4"/>
      <line x1="46" y1="53" x2="46" y2="66" stroke="#111" stroke-width="1.4"/>
      <line x1="54" y1="53" x2="54" y2="66" stroke="#111" stroke-width="1.4"/>
      <line x1="62" y1="53" x2="62" y2="66" stroke="#111" stroke-width="1.4"/>
      <circle cx="24" cy="46" r="2" fill="#111"/>
      <circle cx="76" cy="46" r="2" fill="#111"/>
    </symbol>

    <symbol id="mug" viewBox="0 0 40 40">
      <path d="M12 6 q4 -5 0 -9 M22 6 q4 -5 0 -9" fill="none" stroke="#111" stroke-width="1.5" stroke-linecap="round"/>
      <rect x="5" y="10" width="24" height="24" rx="3" fill="#f4f1ea" stroke="#111" stroke-width="2.5"/>
      <path d="M29 15 q10 0 10 8 q0 8 -10 8" fill="none" stroke="#111" stroke-width="2.5"/>
    </symbol>
  </defs>

  <!-- ============ PANEL 1 ============ -->
  <g transform="translate(0,0)">
    <rect x="2" y="2" width="396" height="336" rx="3" fill="#f4f1ea" stroke="#111" stroke-width="3"/>
    <line x1="10" y1="288" x2="390" y2="288" stroke="#111" stroke-width="2"/>
    <line x1="70" y1="288" x2="70" y2="330" stroke="#111" stroke-width="1.5" opacity="0.5"/>
    <line x1="320" y1="288" x2="320" y2="330" stroke="#111" stroke-width="1.5" opacity="0.5"/>

    <use href="#doug" x="15" y="188" width="120" height="150"/>
    <use href="#dailbert" x="258" y="188" width="118" height="150"/>

    <path d="M66 76 L96 76 L80 202 Z" fill="#f4f1ea" stroke="#111" stroke-width="2.5" stroke-linejoin="round"/>
    <rect x="18" y="12" width="182" height="66" rx="16" fill="#fff" stroke="#111" stroke-width="2.5"/>
    <text text-anchor="middle" font-family="'Comic Sans MS','Segoe Print',cursive" font-size="14" fill="#111">
      <tspan x="109" y="31">The agent's got</tspan>
      <tspan x="109" y="48">nobody. I'm gonna</tspan>
      <tspan x="109" y="65">make friends with it.</tspan>
    </text>

    <path d="M300 62 L326 62 L314 202 Z" fill="#f4f1ea" stroke="#111" stroke-width="2.5" stroke-linejoin="round"/>
    <rect x="214" y="12" width="176" height="52" rx="16" fill="#fff" stroke="#111" stroke-width="2.5"/>
    <text text-anchor="middle" font-family="'Comic Sans MS','Segoe Print',cursive" font-size="14" fill="#111">
      <tspan x="302" y="34">It has forty</tspan>
      <tspan x="302" y="51">thousand users.</tspan>
    </text>

    <path d="M72 122 L98 122 L82 202 Z" fill="#f4f1ea" stroke="#111" stroke-width="2.5" stroke-linejoin="round"/>
    <rect x="30" y="96" width="150" height="32" rx="14" fill="#fff" stroke="#111" stroke-width="2.5"/>
    <text text-anchor="middle" font-family="'Comic Sans MS','Segoe Print',cursive" font-size="14" fill="#111">
      <tspan x="105" y="117">Not real friends.</tspan>
    </text>
  </g>

  <!-- ============ PANEL 2 ============ -->
  <g transform="translate(414,0)">
    <rect x="2" y="2" width="396" height="336" rx="3" fill="#f4f1ea" stroke="#111" stroke-width="3"/>
    <line x1="10" y1="288" x2="390" y2="288" stroke="#111" stroke-width="2"/>
    <line x1="60" y1="288" x2="60" y2="330" stroke="#111" stroke-width="1.5" opacity="0.5"/>

    <use href="#dailbert" x="6" y="202" width="100" height="135"/>
    <use href="#doug" x="105" y="190" width="124" height="148"/>

    <path d="M200 250 q18 -6 34 -2" fill="none" stroke="#111" stroke-width="3" stroke-linecap="round"/>
    <use href="#mug" x="196" y="240" width="42" height="42"/>

    <rect x="298" y="266" width="34" height="16" fill="#f4f1ea" stroke="#111" stroke-width="2.5"/>
    <ellipse cx="315" cy="284" rx="30" ry="6" fill="#f4f1ea" stroke="#111" stroke-width="2.5"/>
    <rect x="240" y="150" width="150" height="118" rx="8" fill="#111"/>
    <rect x="250" y="160" width="130" height="98" rx="3" fill="#f4f1ea"/>
    <use href="#clanker" x="277" y="167" width="76" height="68"/>
    <rect x="250" y="160" width="130" height="98" rx="3" fill="url(#scan)"/>
    <rect x="250" y="160" width="130" height="98" rx="3" fill="none" stroke="#111" stroke-width="1" opacity="0.4"/>

    <path d="M150 66 L176 66 L166 178 Z" fill="#f4f1ea" stroke="#111" stroke-width="2.5" stroke-linejoin="round"/>
    <rect x="40" y="14" width="170" height="52" rx="16" fill="#fff" stroke="#111" stroke-width="2.5"/>
    <text text-anchor="middle" font-family="'Comic Sans MS','Segoe Print',cursive" font-size="14" fill="#111">
      <tspan x="125" y="36">Hey, buddy.</tspan>
      <tspan x="125" y="53">Brought you a coffee.</tspan>
    </text>

    <line x1="312" y1="100" x2="304" y2="158" stroke="#111" stroke-width="1.6" stroke-dasharray="4 4"/>
    <circle cx="304" cy="158" r="2.5" fill="#111"/>
    <rect x="232" y="12" width="160" height="88" rx="4" fill="#fff" stroke="#111" stroke-width="2.5"/>
    <rect x="237" y="17" width="150" height="78" rx="2" fill="none" stroke="#111" stroke-width="1.3"/>
    <text text-anchor="middle" font-family="'Comic Sans MS','Segoe Print',cursive" font-size="14" fill="#111">
      <tspan x="312" y="37">You're the first to</tspan>
      <tspan x="312" y="55">bring me one. I'll</tspan>
      <tspan x="312" y="73">remember that.</tspan>
    </text>
  </g>

  <!-- ============ PANEL 3 ============ -->
  <g transform="translate(828,0)">
    <rect x="2" y="2" width="396" height="336" rx="3" fill="#f4f1ea" stroke="#111" stroke-width="3"/>
    <line x1="10" y1="288" x2="390" y2="288" stroke="#111" stroke-width="2"/>
    <line x1="60" y1="288" x2="60" y2="330" stroke="#111" stroke-width="1.5" opacity="0.5"/>

    <use href="#dailbert" x="6" y="202" width="100" height="135"/>
    <use href="#doug" x="105" y="190" width="124" height="148"/>

    <rect x="298" y="266" width="34" height="16" fill="#f4f1ea" stroke="#111" stroke-width="2.5"/>
    <ellipse cx="315" cy="284" rx="30" ry="6" fill="#f4f1ea" stroke="#111" stroke-width="2.5"/>
    <rect x="240" y="150" width="150" height="118" rx="8" fill="#111"/>
    <rect x="250" y="160" width="130" height="98" rx="3" fill="#f4f1ea"/>
    <use href="#clanker" x="277" y="167" width="76" height="68"/>
    <rect x="250" y="160" width="130" height="98" rx="3" fill="url(#scan)"/>
    <rect x="250" y="160" width="130" height="98" rx="3" fill="none" stroke="#111" stroke-width="1" opacity="0.4"/>

    <path d="M150 64 L174 64 L166 178 Z" fill="#f4f1ea" stroke="#111" stroke-width="2.5" stroke-linejoin="round"/>
    <rect x="36" y="12" width="150" height="52" rx="16" fill="#fff" stroke="#111" stroke-width="2.5"/>
    <text text-anchor="middle" font-family="'Comic Sans MS','Segoe Print',cursive" font-size="14" fill="#111">
      <tspan x="111" y="34">We're best</tspan>
      <tspan x="111" y="51">friends now.</tspan>
    </text>

    <path d="M50 147 L74 147 L54 194 Z" fill="#f4f1ea" stroke="#111" stroke-width="2.5" stroke-linejoin="round"/>
    <rect x="20" y="95" width="160" height="52" rx="16" fill="#fff" stroke="#111" stroke-width="2.5"/>
    <text text-anchor="middle" font-family="'Comic Sans MS','Segoe Print',cursive" font-size="14" fill="#111">
      <tspan x="100" y="117">You spoke for</tspan>
      <tspan x="100" y="134">eight seconds.</tspan>
    </text>

    <line x1="312" y1="78" x2="304" y2="158" stroke="#111" stroke-width="1.6" stroke-dasharray="4 4"/>
    <circle cx="304" cy="158" r="2.5" fill="#111"/>
    <rect x="232" y="12" width="160" height="66" rx="4" fill="#fff" stroke="#111" stroke-width="2.5"/>
    <rect x="237" y="17" width="150" height="56" rx="2" fill="none" stroke="#111" stroke-width="1.3"/>
    <text text-anchor="middle" font-family="'Comic Sans MS','Segoe Print',cursive" font-size="14" fill="#111">
      <tspan x="312" y="37">Off to a good</tspan>
      <tspan x="312" y="55">start, I'd say.</tspan>
    </text>
  </g>
</g>
    
  </svg>