<svg xmlns="http://www.w3.org/2000/svg" viewBox="0 0 1228 340" width="1228" height="340">
  <defs>
    <!-- ===== DAILBERT ===== -->
    <symbol id="dailbert" overflow="visible">
      <path d="M-26 92 Q-26 42 -12 36 L12 36 Q26 42 26 92 Z" fill="#f4f1ea" stroke="#111" stroke-width="2.5" stroke-linejoin="round"/>
      <path d="M0 36 L-6 46 L0 80 L6 46 Z" fill="#111"/>
      <rect x="-7" y="24" width="14" height="14" fill="#f4f1ea" stroke="#111" stroke-width="2.5"/>
      <ellipse cx="0" cy="0" rx="22" ry="26" fill="#f4f1ea" stroke="#111" stroke-width="2.5"/>
      <path d="M2 -25 Q9 -35 2 -37 Q-3 -38 0 -32" fill="none" stroke="#111" stroke-width="2.5" stroke-linecap="round"/>
      <circle cx="-9" cy="-2" r="7.5" fill="#fff" stroke="#111" stroke-width="2"/>
      <circle cx="9" cy="-2" r="7.5" fill="#fff" stroke="#111" stroke-width="2"/>
      <line x1="-1.5" y1="-2" x2="1.5" y2="-2" stroke="#111" stroke-width="2"/>
      <circle cx="-9" cy="-2" r="2" fill="#111"/>
      <circle cx="9" cy="-2" r="2" fill="#111"/>
      <path d="M-6 13 Q0 16 6 13" fill="none" stroke="#111" stroke-width="2" stroke-linecap="round"/>
    </symbol>

    <!-- ===== DOUG ===== -->
    <symbol id="doug" overflow="visible">
      <path d="M-28 92 Q-28 42 -13 36 L13 36 Q28 42 28 92 Z" fill="#f4f1ea" stroke="#111" stroke-width="2.5" stroke-linejoin="round"/>
      <rect x="-7" y="24" width="14" height="14" fill="#f4f1ea" stroke="#111" stroke-width="2.5"/>
      <circle cx="0" cy="-2" r="26" fill="#f4f1ea" stroke="#111" stroke-width="2.5"/>
      <path d="M-7 -27 q3 -6 6 0 M2 -28 q3 -6 6 0" fill="none" stroke="#111" stroke-width="2" stroke-linecap="round"/>
      <circle cx="-9" cy="-4" r="2.6" fill="#111"/>
      <circle cx="9" cy="-4" r="2.6" fill="#111"/>
      <path d="M-12 7 Q0 21 12 7" fill="none" stroke="#111" stroke-width="2.5" stroke-linecap="round"/>
      <g transform="translate(31,72)">
        <rect x="-11" y="-13" width="22" height="21" rx="2" fill="#f4f1ea" stroke="#111" stroke-width="2.5"/>
        <path d="M11 -8 q10 3 0 11" fill="none" stroke="#111" stroke-width="2.5"/>
        <path d="M-6 -19 q3 -6 0 -9 M3 -19 q3 -6 0 -9" fill="none" stroke="#111" stroke-width="1.5" stroke-linecap="round"/>
      </g>
    </symbol>

    <!-- ===== PRIYA ===== -->
    <symbol id="priya" overflow="visible">
      <path d="M-26 92 Q-26 42 -12 36 L12 36 Q26 42 26 92 Z" fill="#f4f1ea" stroke="#111" stroke-width="2.5" stroke-linejoin="round"/>
      <path d="M-12 36 L-4 60 M12 36 L4 60" stroke="#111" stroke-width="2" fill="none"/>
      <rect x="-7" y="24" width="14" height="14" fill="#f4f1ea" stroke="#111" stroke-width="2.5"/>
      <ellipse cx="0" cy="1" rx="22" ry="26" fill="#f4f1ea" stroke="#111" stroke-width="2.5"/>
      <path d="M-22 -4 Q-31 -30 -9 -30 Q0 -43 12 -32 Q31 -31 22 -4 Q18 -20 9 -25 Q0 -31 -10 -25 Q-19 -20 -22 -4 Z" fill="#111"/>
      <circle cx="0" cy="-35" r="7" fill="#111"/>
      <rect x="-17" y="-6" width="14" height="10" rx="1.5" fill="#fff" stroke="#111" stroke-width="2"/>
      <rect x="3" y="-6" width="14" height="10" rx="1.5" fill="#fff" stroke="#111" stroke-width="2"/>
      <line x1="-3" y1="-2" x2="3" y2="-2" stroke="#111" stroke-width="2"/>
      <circle cx="-10" cy="-1" r="1.9" fill="#111"/>
      <circle cx="10" cy="-1" r="1.9" fill="#111"/>
      <path d="M-5 14 L5 14" stroke="#111" stroke-width="2" stroke-linecap="round"/>
    </symbol>

    <!-- ===== BOSS ===== -->
    <symbol id="boss" overflow="visible">
      <path d="M-28 92 Q-28 42 -13 36 L13 36 Q28 42 28 92 Z" fill="#f4f1ea" stroke="#111" stroke-width="2.5" stroke-linejoin="round"/>
      <path d="M0 36 L-6 46 L0 80 L6 46 Z" fill="#111"/>
      <rect x="-7" y="24" width="14" height="14" fill="#f4f1ea" stroke="#111" stroke-width="2.5"/>
      <ellipse cx="0" cy="0" rx="22" ry="25" fill="#f4f1ea" stroke="#111" stroke-width="2.5"/>
      <path d="M-13 -21 L-21 -50 L-3 -24 Z" fill="#111"/>
      <path d="M5 -24 L15 -52 L18 -21 Z" fill="#111"/>
      <circle cx="-8" cy="-2" r="1.7" fill="#111"/>
      <circle cx="8" cy="-2" r="1.7" fill="#111"/>
      <path d="M-6 13 Q0 10 6 13" fill="none" stroke="#111" stroke-width="2" stroke-linecap="round"/>
    </symbol>

    <!-- ===== CLANKER (drawn inside a surface) ===== -->
    <symbol id="clanker" overflow="visible">
      <line x1="0" y1="-19" x2="0" y2="-29" stroke="#111" stroke-width="2.5"/>
      <circle cx="0" cy="-31" r="2.6" fill="#111"/>
      <rect x="-21" y="-19" width="42" height="38" rx="4" fill="#f4f1ea" stroke="#111" stroke-width="2.5"/>
      <rect x="-13" y="-9" width="9" height="5" rx="2" fill="#111"/>
      <rect x="4" y="-9" width="9" height="5" rx="2" fill="#111"/>
      <g stroke="#111" stroke-width="2">
        <line x1="-11" y1="6" x2="11" y2="6"/>
        <line x1="-11" y1="11" x2="11" y2="11"/>
        <line x1="-8" y1="3" x2="-8" y2="14"/>
        <line x1="0" y1="3" x2="0" y2="14"/>
        <line x1="8" y1="3" x2="8" y2="14"/>
      </g>
    </symbol>
  </defs>

  <!-- ================= PANEL 1 ================= -->
  <g>
    <rect x="1" y="1" width="398" height="338" rx="3" fill="#f4f1ea" stroke="#111" stroke-width="2.5"/>
    <line x1="20" y1="300" x2="380" y2="300" stroke="#111" stroke-width="1.5"/>

    <!-- easel board -->
    <g>
      <rect x="26" y="130" width="98" height="86" rx="3" fill="#f4f1ea" stroke="#111" stroke-width="2.5"/>
      <line x1="45" y1="216" x2="34" y2="290" stroke="#111" stroke-width="2.5"/>
      <line x1="105" y1="216" x2="116" y2="290" stroke="#111" stroke-width="2.5"/>
      <text x="75" y="153" text-anchor="middle" font-family="'Comic Sans MS','Segoe Print',cursive" font-size="13" fill="#111">APPROVAL</text>
      <text x="75" y="171" text-anchor="middle" font-family="'Comic Sans MS','Segoe Print',cursive" font-size="13" fill="#111">FORM</text>
      <rect x="52" y="182" width="12" height="12" fill="#f4f1ea" stroke="#111" stroke-width="2"/>
      <path d="M54 188 l3 4 6 -8" fill="none" stroke="#111" stroke-width="2" stroke-linecap="round" stroke-linejoin="round"/>
      <text x="82" y="193" text-anchor="middle" font-family="'Comic Sans MS','Segoe Print',cursive" font-size="12" fill="#111">v1.4</text>
    </g>

    <use href="#boss" x="222" y="152"/>
    <use href="#dailbert" x="338" y="188"/>

    <!-- boss balloon -->
    <path d="M108 20 h198 a14 14 0 0 1 14 14 v42 a14 14 0 0 1 -14 14 h-88 l-10 16 l-6 -16 h-94 a14 14 0 0 1 -14 -14 v-42 a14 14 0 0 1 14 -14 Z" fill="#fff" stroke="#111" stroke-width="2.5" stroke-linejoin="round"/>
    <text x="208" y="42" text-anchor="middle" font-family="'Comic Sans MS','Segoe Print',cursive" font-size="14" fill="#111">New process. Nothing</text>
    <text x="208" y="60" text-anchor="middle" font-family="'Comic Sans MS','Segoe Print',cursive" font-size="14" fill="#111">ships without a</text>
    <text x="208" y="78" text-anchor="middle" font-family="'Comic Sans MS','Segoe Print',cursive" font-size="14" fill="#111">sign-off form.</text>
  </g>

  <!-- ================= PANEL 2 ================= -->
  <g transform="translate(414,0)">
    <rect x="1" y="1" width="398" height="338" rx="3" fill="#f4f1ea" stroke="#111" stroke-width="2.5"/>
    <line x1="20" y1="300" x2="380" y2="300" stroke="#111" stroke-width="1.5"/>

    <!-- desk -->
    <rect x="30" y="252" width="352" height="12" fill="#f4f1ea" stroke="#111" stroke-width="2.5"/>

    <!-- monitor -->
    <g>
      <rect x="246" y="118" width="118" height="92" rx="4" fill="#f4f1ea" stroke="#111" stroke-width="4"/>
      <g stroke="#bcb8ad" stroke-width="1.5">
        <line x1="256" y1="200" x2="354" y2="128"/>
        <line x1="256" y1="180" x2="330" y2="128"/>
        <line x1="278" y1="200" x2="354" y2="150"/>
      </g>
      <use href="#clanker" x="305" y="166"/>
      <rect x="298" y="210" width="14" height="18" fill="#f4f1ea" stroke="#111" stroke-width="2.5"/>
      <rect x="280" y="228" width="50" height="8" rx="2" fill="#f4f1ea" stroke="#111" stroke-width="2.5"/>
    </g>

    <use href="#dailbert" x="96" y="182"/>
    <use href="#doug" x="176" y="176"/>

    <!-- clanker balloon (screen-edged) + dashed link -->
    <line x1="235" y1="90" x2="278" y2="128" stroke="#111" stroke-width="1.5" stroke-dasharray="4 3"/>
    <rect x="28" y="18" width="212" height="74" fill="#fff" stroke="#111" stroke-width="2.5"/>
    <rect x="34" y="24" width="200" height="62" fill="none" stroke="#111" stroke-width="1" stroke-dasharray="3 3"/>
    <text x="134" y="44" text-anchor="middle" font-family="'Comic Sans MS','Segoe Print',cursive" font-size="14" fill="#111">I filled out the form</text>
    <text x="134" y="62" text-anchor="middle" font-family="'Comic Sans MS','Segoe Print',cursive" font-size="14" fill="#111">for you.</text>
    <text x="134" y="80" text-anchor="middle" font-family="'Comic Sans MS','Segoe Print',cursive" font-size="14" fill="#111">All four thousand.</text>
  </g>

  <!-- ================= PANEL 3 ================= -->
  <g transform="translate(828,0)">
    <rect x="1" y="1" width="398" height="338" rx="3" fill="#f4f1ea" stroke="#111" stroke-width="2.5"/>
    <line x1="20" y1="300" x2="380" y2="300" stroke="#111" stroke-width="1.5"/>

    <!-- desk -->
    <rect x="30" y="252" width="352" height="12" fill="#f4f1ea" stroke="#111" stroke-width="2.5"/>

    <!-- monitor -->
    <g>
      <rect x="244" y="120" width="118" height="90" rx="4" fill="#f4f1ea" stroke="#111" stroke-width="4"/>
      <g stroke="#bcb8ad" stroke-width="1.5">
        <line x1="254" y1="200" x2="352" y2="130"/>
        <line x1="254" y1="182" x2="328" y2="130"/>
      </g>
      <use href="#clanker" x="303" y="167"/>
      <rect x="296" y="210" width="14" height="18" fill="#f4f1ea" stroke="#111" stroke-width="2.5"/>
      <rect x="278" y="228" width="50" height="8" rx="2" fill="#f4f1ea" stroke="#111" stroke-width="2.5"/>
    </g>

    <use href="#priya" x="112" y="182"/>

    <!-- priya balloon -->
    <path d="M30 16 h214 a12 12 0 0 1 12 12 v34 a12 12 0 0 1 -12 12 h-118 l-12 15 l-4 -15 h-68 a12 12 0 0 1 -12 -12 v-34 a12 12 0 0 1 12 -12 Z" fill="#fff" stroke="#111" stroke-width="2.5" stroke-linejoin="round"/>
    <text x="137" y="42" text-anchor="middle" font-family="'Comic Sans MS','Segoe Print',cursive" font-size="14" fill="#111">I made one form.</text>
    <text x="137" y="60" text-anchor="middle" font-family="'Comic Sans MS','Segoe Print',cursive" font-size="14" fill="#111">It approves itself.</text>

    <!-- clanker button balloon (screen-edged) + dashed link -->
    <line x1="303" y1="210" x2="322" y2="232" stroke="#111" stroke-width="1.5" stroke-dasharray="4 3"/>
    <rect x="250" y="232" width="132" height="52" fill="#fff" stroke="#111" stroke-width="2.5"/>
    <rect x="255" y="237" width="122" height="42" fill="none" stroke="#111" stroke-width="1" stroke-dasharray="3 3"/>
    <text x="316" y="255" text-anchor="middle" font-family="'Comic Sans MS','Segoe Print',cursive" font-size="14" fill="#111">It approved</text>
    <text x="316" y="272" text-anchor="middle" font-family="'Comic Sans MS','Segoe Print',cursive" font-size="14" fill="#111">that too.</text>
  </g>
</svg>