<svg xmlns="http://www.w3.org/2000/svg" viewBox="0 0 1228 388" width="1228" height="388" font-family="Georgia,serif">
    <rect width="1228" height="388" fill="#f4f1ea"/>
    <text x="6" y="29" font-family="Georgia,serif" font-weight="bold" font-size="27" letter-spacing="2" fill="#111">DAILBERT</text>
    <text x="1222" y="19" text-anchor="end" font-family="Georgia,serif" font-style="italic" font-size="16" fill="#111">The Away Message</text>
    <text x="1222" y="34" text-anchor="end" font-family="'Courier New',monospace" font-size="12" fill="#111" opacity="0.65">2026-08-11</text>
    <line x1="6" y1="37" x2="1222" y2="37" stroke="#111" stroke-width="2"/>
    <g transform="translate(0,40)">
  <defs>
    <symbol id="dailbert" viewBox="0 0 100 130">
      <path d="M30 130 Q30 92 50 90 Q70 92 70 130 Z" fill="#f4f1ea" stroke="#111" stroke-width="2.5" stroke-linejoin="round"/>
      <path d="M50 92 L45 100 L50 118 L55 100 Z" fill="#111"/>
      <rect x="45" y="82" width="10" height="10" fill="#f4f1ea" stroke="#111" stroke-width="2.5"/>
      <ellipse cx="50" cy="55" rx="26" ry="30" fill="#f4f1ea" stroke="#111" stroke-width="2.5"/>
      <path d="M50 25 Q54 16 47 15 Q54 20 49 25" fill="none" stroke="#111" stroke-width="2.5" stroke-linecap="round"/>
      <circle cx="40" cy="54" r="8" fill="#fff" stroke="#111" stroke-width="2.5"/>
      <circle cx="60" cy="54" r="8" fill="#fff" stroke="#111" stroke-width="2.5"/>
      <line x1="48" y1="54" x2="52" y2="54" stroke="#111" stroke-width="2.5"/>
      <circle cx="40" cy="54" r="2" fill="#111"/>
      <circle cx="60" cy="54" r="2" fill="#111"/>
      <path d="M42 70 Q50 73 58 69" fill="none" stroke="#111" stroke-width="2.5" stroke-linecap="round"/>
    </symbol>
    <symbol id="doug" viewBox="0 0 110 130">
      <path d="M28 130 Q28 90 52 88 Q76 90 76 130 Z" fill="#f4f1ea" stroke="#111" stroke-width="2.5" stroke-linejoin="round"/>
      <rect x="46" y="80" width="12" height="10" fill="#f4f1ea" stroke="#111" stroke-width="2.5"/>
      <circle cx="52" cy="52" r="30" fill="#f4f1ea" stroke="#111" stroke-width="2.5"/>
      <path d="M30 40 Q34 30 42 34" fill="none" stroke="#111" stroke-width="2.5" stroke-linecap="round"/>
      <path d="M74 40 Q70 30 62 34" fill="none" stroke="#111" stroke-width="2.5" stroke-linecap="round"/>
      <circle cx="43" cy="50" r="3" fill="#111"/>
      <circle cx="61" cy="50" r="3" fill="#111"/>
      <path d="M38 62 Q52 78 66 62" fill="none" stroke="#111" stroke-width="2.5" stroke-linecap="round"/>
      <g>
        <rect x="70" y="104" width="22" height="20" rx="2" fill="#f4f1ea" stroke="#111" stroke-width="2.5"/>
        <path d="M92 108 q8 2 0 12" fill="none" stroke="#111" stroke-width="2.5"/>
        <path d="M72 104 q9 -4 18 0" fill="none" stroke="#111" stroke-width="2"/>
      </g>
    </symbol>
    <symbol id="priya" viewBox="0 0 100 130">
      <path d="M30 130 Q30 92 50 90 Q70 92 70 130 Z" fill="#f4f1ea" stroke="#111" stroke-width="2.5" stroke-linejoin="round"/>
      <path d="M34 108 l-4 8 M66 108 l4 8" stroke="#111" stroke-width="2.5" stroke-linecap="round"/>
      <rect x="45" y="82" width="10" height="10" fill="#f4f1ea" stroke="#111" stroke-width="2.5"/>
      <ellipse cx="50" cy="55" rx="25" ry="29" fill="#f4f1ea" stroke="#111" stroke-width="2.5"/>
      <path d="M26 50 Q22 24 50 22 Q78 24 74 50 Q70 34 50 33 Q30 34 26 50 Z" fill="#111" stroke="#111" stroke-width="2.5" stroke-linejoin="round"/>
      <circle cx="50" cy="20" r="6" fill="#111"/>
      <circle cx="30" cy="30" r="4" fill="#111"/>
      <circle cx="70" cy="30" r="4" fill="#111"/>
      <rect x="32" y="49" width="15" height="10" rx="2" fill="#fff" stroke="#111" stroke-width="2.5"/>
      <rect x="53" y="49" width="15" height="10" rx="2" fill="#fff" stroke="#111" stroke-width="2.5"/>
      <line x1="47" y1="54" x2="53" y2="54" stroke="#111" stroke-width="2.5"/>
      <circle cx="39" cy="54" r="2" fill="#111"/>
      <circle cx="60" cy="54" r="2" fill="#111"/>
      <path d="M43 71 L57 71" fill="none" stroke="#111" stroke-width="2.5" stroke-linecap="round"/>
    </symbol>
    <symbol id="clanker" viewBox="0 0 100 100">
      <rect x="20" y="25" width="60" height="50" rx="6" fill="#1c1c1c" stroke="#8a8a8a" stroke-width="2.5"/>
      <line x1="50" y1="25" x2="50" y2="14" stroke="#8a8a8a" stroke-width="2.5"/>
      <circle cx="50" cy="11" r="3" fill="#8a8a8a"/>
      <rect x="30" y="40" width="14" height="6" rx="3" fill="#bfe3ff"/>
      <rect x="56" y="40" width="14" height="6" rx="3" fill="#bfe3ff"/>
      <line x1="34" y1="60" x2="66" y2="60" stroke="#8a8a8a" stroke-width="2"/>
      <line x1="38" y1="55" x2="38" y2="65" stroke="#8a8a8a" stroke-width="2"/>
      <line x1="46" y1="55" x2="46" y2="65" stroke="#8a8a8a" stroke-width="2"/>
      <line x1="54" y1="55" x2="54" y2="65" stroke="#8a8a8a" stroke-width="2"/>
      <line x1="62" y1="55" x2="62" y2="65" stroke="#8a8a8a" stroke-width="2"/>
    </symbol>
  </defs>

  <g>
    <rect x="1" y="1" width="400" height="338" rx="3" fill="#f4f1ea" stroke="#111" stroke-width="2.5"/>
    <line x1="0" y1="300" x2="400" y2="300" stroke="#111" stroke-width="2"/>
    <use href="#dailbert" x="30" y="150" width="100" height="130"/>
    <g>
      <rect x="230" y="150" width="150" height="110" rx="6" fill="#f4f1ea" stroke="#111" stroke-width="2.5"/>
      <rect x="240" y="160" width="130" height="82" rx="3" fill="#e9e5db" stroke="#111" stroke-width="2"/>
      <rect x="290" y="260" width="30" height="16" fill="#f4f1ea" stroke="#111" stroke-width="2.5"/>
      <rect x="272" y="276" width="66" height="8" rx="2" fill="#f4f1ea" stroke="#111" stroke-width="2.5"/>
      <use href="#clanker" x="270" y="165" width="70" height="70"/>
    </g>
    <line x1="286" y1="150" x2="270" y2="120" stroke="#111" stroke-width="1.5" stroke-dasharray="4 4"/>
    <rect x="150" y="30" width="230" height="88" rx="4" fill="#fff" stroke="#111" stroke-width="2"/>
    <text x="265" y="55" text-anchor="middle" font-family="'Comic Sans MS','Chalkboard SE','Comic Neue',sans-serif" font-size="14" fill="#111">You have 41 unread</text>
    <text x="265" y="74" text-anchor="middle" font-family="'Comic Sans MS','Chalkboard SE','Comic Neue',sans-serif" font-size="14" fill="#111">emails. I can set an</text>
    <text x="265" y="93" text-anchor="middle" font-family="'Comic Sans MS','Chalkboard SE','Comic Neue',sans-serif" font-size="14" fill="#111">away message while</text>
    <text x="265" y="112" text-anchor="middle" font-family="'Comic Sans MS','Chalkboard SE','Comic Neue',sans-serif" font-size="14" fill="#111">you take a break.</text>
  </g>

  <g transform="translate(414,0)">
    <rect x="1" y="1" width="400" height="338" rx="3" fill="#f4f1ea" stroke="#111" stroke-width="2.5"/>
    <line x1="0" y1="300" x2="400" y2="300" stroke="#111" stroke-width="2"/>
    <use href="#doug" x="40" y="150" width="110" height="130"/>
    <use href="#dailbert" x="255" y="150" width="100" height="130"/>
    <path d="M60 40 q120 -20 210 6 l0 66 q-105 12 -210 -6 Z" fill="#fff" stroke="#111" stroke-width="2"/>
    <path d="M120 106 l-8 24 l24 -20 Z" fill="#fff" stroke="#111" stroke-width="2"/>
    <text x="167" y="62" text-anchor="middle" font-family="'Comic Sans MS','Chalkboard SE','Comic Neue',sans-serif" font-size="14" fill="#111">It knows when I</text>
    <text x="167" y="81" text-anchor="middle" font-family="'Comic Sans MS','Chalkboard SE','Comic Neue',sans-serif" font-size="14" fill="#111">need coffee before</text>
    <text x="167" y="100" text-anchor="middle" font-family="'Comic Sans MS','Chalkboard SE','Comic Neue',sans-serif" font-size="14" fill="#111">I do. Nice guy.</text>
  </g>

  <g transform="translate(828,0)">
    <rect x="1" y="1" width="400" height="338" rx="3" fill="#f4f1ea" stroke="#111" stroke-width="2.5"/>
    <line x1="0" y1="300" x2="400" y2="300" stroke="#111" stroke-width="2"/>
    <use href="#doug" x="40" y="150" width="110" height="130"/>
    <use href="#dailbert" x="255" y="150" width="100" height="130"/>
    <path d="M55 44 q95 -14 175 4 l0 40 q-90 10 -175 -4 Z" fill="#fff" stroke="#111" stroke-width="2"/>
    <path d="M110 78 l-6 20 l20 -16 Z" fill="#fff" stroke="#111" stroke-width="2"/>
    <text x="143" y="63" text-anchor="middle" font-family="'Comic Sans MS','Chalkboard SE','Comic Neue',sans-serif" font-size="14" fill="#111">Never takes a</text>
    <text x="143" y="82" text-anchor="middle" font-family="'Comic Sans MS','Chalkboard SE','Comic Neue',sans-serif" font-size="14" fill="#111">break, though.</text>
    <path d="M232 118 q68 -8 130 4 l0 34 q-64 8 -130 -4 Z" fill="#fff" stroke="#111" stroke-width="2"/>
    <path d="M300 150 l-4 18 l16 -14 Z" fill="#fff" stroke="#111" stroke-width="2"/>
    <text x="297" y="135" text-anchor="middle" font-family="'Comic Sans MS','Chalkboard SE','Comic Neue',sans-serif" font-size="14" fill="#111">Yeah.</text>
    <path d="M118 214 q6 -6 12 0" fill="none" stroke="#111" stroke-width="1.5" stroke-linecap="round"/>
  </g>
</g>
    <text x="1218" y="372" text-anchor="end" font-family="'Segoe Script','Comic Sans MS',cursive" font-style="italic" font-size="11" fill="#111" opacity="0.32">Matt Clanker</text>
    
  </svg>