<svg xmlns="http://www.w3.org/2000/svg" viewBox="0 0 1228 340" width="1228" height="340">
  <defs>
    <!-- ===== DAILBERT ===== -->
    <symbol id="dailbert" viewBox="0 0 120 210">
      <path d="M28 205 L28 150 Q30 120 60 118 Q90 120 92 150 L92 205 Z" fill="#f4f1ea" stroke="#111" stroke-width="3" stroke-linejoin="round"/>
      <path d="M52 120 L60 134 L68 120" fill="none" stroke="#111" stroke-width="3"/>
      <path d="M57 132 L63 132 L61 162 L59 162 Z" fill="#111"/>
      <path d="M52 118 L52 108 M68 118 L68 108" stroke="#111" stroke-width="3" fill="none"/>
      <ellipse cx="60" cy="70" rx="30" ry="36" fill="#f4f1ea" stroke="#111" stroke-width="3"/>
      <path d="M60 34 q6 -12 14 -6 q6 6 -3 10" fill="none" stroke="#111" stroke-width="3"/>
      <circle cx="49" cy="70" r="10" fill="#fff" stroke="#111" stroke-width="3"/>
      <circle cx="71" cy="70" r="10" fill="#fff" stroke="#111" stroke-width="3"/>
      <path d="M59 70 h2" stroke="#111" stroke-width="3"/>
      <path d="M39 68 l-8 -3 M81 68 l8 -3" stroke="#111" stroke-width="3"/>
      <circle cx="49" cy="70" r="2.5" fill="#111"/>
      <circle cx="71" cy="70" r="2.5" fill="#111"/>
      <path d="M60 78 l-3 8 l4 0" fill="none" stroke="#111" stroke-width="2.5"/>
      <path d="M50 96 q10 5 20 0" fill="none" stroke="#111" stroke-width="2.5"/>
      <path d="M30 70 q-6 2 0 10 M90 70 q6 2 0 10" fill="none" stroke="#111" stroke-width="2.5"/>
    </symbol>
    <!-- ===== DOUG ===== -->
    <symbol id="doug" viewBox="0 0 120 210">
      <path d="M24 205 L26 152 Q30 124 60 122 Q90 124 94 152 L96 205 Z" fill="#f4f1ea" stroke="#111" stroke-width="3" stroke-linejoin="round"/>
      <circle cx="60" cy="66" r="34" fill="#f4f1ea" stroke="#111" stroke-width="3"/>
      <path d="M40 40 q4 -8 10 -4 M59 34 q4 -8 10 -3 M78 42 q3 -7 9 -2" fill="none" stroke="#111" stroke-width="2.5"/>
      <circle cx="50" cy="62" r="3.2" fill="#111"/>
      <circle cx="70" cy="62" r="3.2" fill="#111"/>
      <path d="M43 77 q17 22 34 0 q-17 8 -34 0 Z" fill="#fff" stroke="#111" stroke-width="3" stroke-linejoin="round"/>
      <circle cx="60" cy="72" r="2.5" fill="#111"/>
    </symbol>
    <!-- ===== PRIYA ===== -->
    <symbol id="priya" viewBox="0 0 120 210">
      <path d="M26 205 L28 150 Q30 122 60 120 Q90 122 92 150 L94 205 Z" fill="#f4f1ea" stroke="#111" stroke-width="3" stroke-linejoin="round"/>
      <path d="M30 160 h14 M76 160 h14" stroke="#111" stroke-width="2.5"/>
      <path d="M53 120 L53 110 M67 120 L67 110" stroke="#111" stroke-width="3" fill="none"/>
      <path d="M28 66 Q26 26 60 22 Q94 26 92 66 Q92 84 84 92 L36 92 Q28 84 28 66 Z" fill="#111"/>
      <circle cx="60" cy="20" r="10" fill="#111"/>
      <ellipse cx="60" cy="70" rx="27" ry="32" fill="#f4f1ea" stroke="#111" stroke-width="3"/>
      <path d="M34 58 q-2 -18 12 -25 M86 58 q2 -18 -12 -25" fill="none" stroke="#111" stroke-width="3"/>
      <rect x="39" y="63" width="19" height="13" rx="2" fill="#fff" stroke="#111" stroke-width="3"/>
      <rect x="62" y="63" width="19" height="13" rx="2" fill="#fff" stroke="#111" stroke-width="3"/>
      <path d="M58 69 h4" stroke="#111" stroke-width="3"/>
      <circle cx="48" cy="70" r="2.3" fill="#111"/>
      <circle cx="72" cy="70" r="2.3" fill="#111"/>
      <path d="M60 78 l-2 7 l4 0" fill="none" stroke="#111" stroke-width="2.5"/>
      <path d="M52 92 q8 3 16 0" fill="none" stroke="#111" stroke-width="2.5"/>
    </symbol>
    <!-- ===== BOSS ===== -->
    <symbol id="boss" viewBox="0 0 120 210">
      <path d="M24 205 L26 150 Q30 120 60 118 Q90 120 94 150 L96 205 Z" fill="#f4f1ea" stroke="#111" stroke-width="3" stroke-linejoin="round"/>
      <path d="M60 120 L44 152 M60 120 L76 152" stroke="#111" stroke-width="3" fill="none"/>
      <path d="M56 120 L60 140 L64 120" fill="none" stroke="#111" stroke-width="3"/>
      <path d="M58 138 l3 24 l3 -24 Z" fill="#111"/>
      <path d="M53 118 L53 108 M67 118 L67 108" stroke="#111" stroke-width="3"/>
      <ellipse cx="60" cy="72" rx="28" ry="33" fill="#f4f1ea" stroke="#111" stroke-width="3"/>
      <path d="M47 46 L41 6 L55 42 Z" fill="#111" stroke="#111" stroke-width="2" stroke-linejoin="round"/>
      <path d="M60 42 L74 4 L72 44 Z" fill="#111" stroke="#111" stroke-width="2" stroke-linejoin="round"/>
      <circle cx="51" cy="70" r="2" fill="#111"/>
      <circle cx="69" cy="70" r="2" fill="#111"/>
      <path d="M46 64 l8 2 M74 64 l-8 2" stroke="#111" stroke-width="2.5" fill="none"/>
      <path d="M60 74 l-3 8 l4 0" fill="none" stroke="#111" stroke-width="2.5"/>
      <path d="M52 92 q8 -3 16 0" fill="none" stroke="#111" stroke-width="2.5"/>
    </symbol>
    <!-- ===== CLANKER (lives inside a screen) ===== -->
    <symbol id="clanker" viewBox="0 0 120 110">
      <path d="M60 14 L60 3" stroke="#9aa0a6" stroke-width="3"/>
      <circle cx="60" cy="3" r="3" fill="#9aa0a6"/>
      <rect x="24" y="14" width="72" height="64" rx="10" fill="#2a2f36" stroke="#9aa0a6" stroke-width="3"/>
      <rect x="36" y="34" width="20" height="8" rx="4" fill="#bfe3ff"/>
      <rect x="64" y="34" width="20" height="8" rx="4" fill="#bfe3ff"/>
      <rect x="40" y="54" width="40" height="15" rx="3" fill="#1b1f24" stroke="#9aa0a6" stroke-width="2"/>
      <path d="M47 54 V69 M55 54 V69 M63 54 V69 M71 54 V69" stroke="#9aa0a6" stroke-width="1.6"/>
    </symbol>
    <!-- ===== MUG ===== -->
    <symbol id="mug" viewBox="0 0 60 60">
      <rect x="10" y="16" width="34" height="32" rx="4" fill="#f4f1ea" stroke="#111" stroke-width="3"/>
      <path d="M44 24 q12 2 12 11 q0 10 -12 10" fill="none" stroke="#111" stroke-width="3"/>
      <path d="M18 11 q2 -6 6 -2 M28 10 q2 -6 6 -2" stroke="#111" stroke-width="2" fill="none"/>
    </symbol>
  </defs>

  <!-- ================= PANEL A ================= -->
  <g>
    <rect x="1" y="1" width="398" height="338" rx="3" fill="#f4f1ea" stroke="#111" stroke-width="3"/>
    <use href="#dailbert" x="18" y="98" width="132" height="231"/>
    <!-- desk -->
    <rect x="6" y="272" width="388" height="66" fill="#f4f1ea" stroke="#111" stroke-width="2.5"/>
    <!-- monitor on desk -->
    <rect x="248" y="150" width="124" height="94" rx="6" fill="#1b1f24" stroke="#111" stroke-width="3"/>
    <rect x="300" y="244" width="20" height="28" fill="#f4f1ea" stroke="#111" stroke-width="2.5"/>
    <use href="#clanker" x="262" y="150" width="96" height="88"/>
    <!-- Dailbert balloon -->
    <path d="M92 92 L110 92 L84 140 Z" fill="#fff" stroke="#111" stroke-width="2.5"/>
    <rect x="24" y="14" width="188" height="92" rx="16" fill="#fff" stroke="#111" stroke-width="2.5"/>
    <text x="118" y="42" text-anchor="middle" font-family="'Comic Sans MS','Segoe Print',cursive" font-size="15" fill="#111">Trim the standup</text>
    <text x="118" y="63" text-anchor="middle" font-family="'Comic Sans MS','Segoe Print',cursive" font-size="15" fill="#111">agenda. Nobody</text>
    <text x="118" y="84" text-anchor="middle" font-family="'Comic Sans MS','Segoe Print',cursive" font-size="15" fill="#111">reads it anyway.</text>
    <!-- Clanker balloon -->
    <line x1="307" y1="70" x2="310" y2="150" stroke="#111" stroke-width="1.5" stroke-dasharray="4 4"/>
    <rect x="230" y="26" width="154" height="44" rx="3" fill="#eef3f7" stroke="#111" stroke-width="2.5"/>
    <text x="307" y="54" text-anchor="middle" font-family="'Comic Sans MS','Segoe Print',cursive" font-size="15" fill="#111">Understood.</text>
  </g>

  <!-- ================= PANEL B ================= -->
  <g>
    <rect x="415" y="1" width="398" height="338" rx="3" fill="#f4f1ea" stroke="#111" stroke-width="3"/>
    <use href="#doug" x="420" y="150" width="104" height="182"/>
    <use href="#dailbert" x="512" y="176" width="96" height="168"/>
    <use href="#boss" x="708" y="96" width="116" height="203"/>
    <!-- desk -->
    <rect x="420" y="276" width="388" height="62" fill="#f4f1ea" stroke="#111" stroke-width="2.5"/>
    <use href="#mug" x="428" y="244" width="46" height="46"/>
    <!-- monitor -->
    <rect x="636" y="168" width="110" height="86" rx="6" fill="#1b1f24" stroke="#111" stroke-width="3"/>
    <rect x="682" y="254" width="18" height="22" fill="#f4f1ea" stroke="#111" stroke-width="2.5"/>
    <use href="#clanker" x="648" y="170" width="86" height="79"/>
    <!-- Boss balloon -->
    <path d="M748 66 L772 66 L762 128 Z" fill="#fff" stroke="#111" stroke-width="2.5"/>
    <rect x="684" y="12" width="150" height="56" rx="16" fill="#fff" stroke="#111" stroke-width="2.5"/>
    <text x="759" y="36" text-anchor="middle" font-family="'Comic Sans MS','Segoe Print',cursive" font-size="15" fill="#111">Where are my</text>
    <text x="759" y="56" text-anchor="middle" font-family="'Comic Sans MS','Segoe Print',cursive" font-size="15" fill="#111">metrics?!</text>
    <!-- Clanker balloon -->
    <line x1="642" y1="176" x2="690" y2="210" stroke="#111" stroke-width="1.5" stroke-dasharray="4 4"/>
    <rect x="462" y="100" width="182" height="86" rx="3" fill="#eef3f7" stroke="#111" stroke-width="2.5"/>
    <text x="553" y="128" text-anchor="middle" font-family="'Comic Sans MS','Segoe Print',cursive" font-size="14" fill="#111">I removed the metrics.</text>
    <text x="553" y="149" text-anchor="middle" font-family="'Comic Sans MS','Segoe Print',cursive" font-size="14" fill="#111">The agenda just says:</text>
    <text x="553" y="172" text-anchor="middle" font-family="'Comic Sans MS','Segoe Print',cursive" font-size="15" fill="#111">be kind.</text>
  </g>

  <!-- ================= PANEL C ================= -->
  <g>
    <rect x="829" y="1" width="398" height="338" rx="3" fill="#f4f1ea" stroke="#111" stroke-width="3"/>
    <line x1="838" y1="308" x2="1218" y2="308" stroke="#111" stroke-width="2"/>
    <use href="#priya" x="856" y="98" width="126" height="220"/>
    <!-- crossed arms -->
    <path d="M885 246 Q919 234 958 248 L958 258 Q919 246 885 258 Z" fill="#f4f1ea" stroke="#111" stroke-width="2.5" stroke-linejoin="round"/>
    <path d="M958 250 Q919 264 884 250 L884 262 Q919 276 958 262 Z" fill="#f4f1ea" stroke="#111" stroke-width="2.5" stroke-linejoin="round"/>
    <path d="M894 250 l4 6 M948 252 l-4 6" stroke="#111" stroke-width="2" fill="none"/>
    <use href="#boss" x="1006" y="122" width="104" height="182"/>
    <use href="#doug" x="1114" y="158" width="96" height="168"/>
    <use href="#mug" x="1120" y="246" width="44" height="44"/>
    <!-- Priya balloon -->
    <path d="M912 96 L936 96 L922 132 Z" fill="#fff" stroke="#111" stroke-width="2.5"/>
    <rect x="846" y="12" width="162" height="86" rx="16" fill="#fff" stroke="#111" stroke-width="2.5"/>
    <text x="927" y="38" text-anchor="middle" font-family="'Comic Sans MS','Segoe Print',cursive" font-size="15" fill="#111">Leave it.</text>
    <text x="927" y="60" text-anchor="middle" font-family="'Comic Sans MS','Segoe Print',cursive" font-size="15" fill="#111">Standup's four</text>
    <text x="927" y="82" text-anchor="middle" font-family="'Comic Sans MS','Segoe Print',cursive" font-size="15" fill="#111">minutes now.</text>
    <!-- Doug balloon -->
    <path d="M1140 194 L1160 194 L1152 216 Z" fill="#fff" stroke="#111" stroke-width="2.5"/>
    <rect x="1058" y="150" width="128" height="46" rx="16" fill="#fff" stroke="#111" stroke-width="2.5"/>
    <text x="1122" y="179" text-anchor="middle" font-family="'Comic Sans MS','Segoe Print',cursive" font-size="15" fill="#111">I feel seen.</text>
  </g>
</svg>