<svg xmlns="http://www.w3.org/2000/svg" viewBox="0 0 1228 388" width="1228" height="388" font-family="Georgia,serif">
    <rect width="1228" height="388" fill="#f4f1ea"/>
    <text x="4" y="26" font-family="Georgia,serif" font-weight="bold" font-size="22" fill="#111">Spot-Check</text>
    <text x="1224" y="26" text-anchor="end" font-family="'Courier New',monospace" font-size="14" fill="#111" opacity="0.7">2026-11-30</text>
    <line x1="4" y1="34" x2="1224" y2="34" stroke="#111" stroke-width="2"/>
    <g transform="translate(0,40)">
  <defs>
    <symbol id="dailbert" viewBox="0 0 120 200">
      <path d="M20 200 L20 165 Q20 150 40 145 L80 145 Q100 150 100 165 L100 200" fill="#f4f1ea" stroke="#111" stroke-width="2.5" stroke-linejoin="round"/>
      <path d="M50 148 L60 162 L70 148" fill="none" stroke="#111" stroke-width="2"/>
      <path d="M60 162 L55 176 L60 198 L65 176 Z" fill="#111"/>
      <rect x="52" y="130" width="16" height="20" fill="#f4f1ea" stroke="#111" stroke-width="2"/>
      <ellipse cx="60" cy="80" rx="30" ry="36" fill="#f4f1ea" stroke="#111" stroke-width="2.5"/>
      <path d="M60 44 q9 -9 2 -17" fill="none" stroke="#111" stroke-width="2.5"/>
      <circle cx="48" cy="78" r="9" fill="#fff" stroke="#111" stroke-width="2"/>
      <circle cx="72" cy="78" r="9" fill="#fff" stroke="#111" stroke-width="2"/>
      <line x1="57" y1="78" x2="63" y2="78" stroke="#111" stroke-width="2"/>
      <circle cx="48" cy="78" r="2" fill="#111"/>
      <circle cx="72" cy="78" r="2" fill="#111"/>
      <path d="M60 84 l-3 8 l4 0" fill="none" stroke="#111" stroke-width="1.8" stroke-linejoin="round"/>
      <line x1="52" y1="102" x2="68" y2="102" stroke="#111" stroke-width="2"/>
    </symbol>

    <symbol id="doug" viewBox="0 0 120 200">
      <path d="M18 200 L18 165 Q18 150 38 145 L82 145 Q102 150 102 165 L102 200" fill="#f4f1ea" stroke="#111" stroke-width="2.5" stroke-linejoin="round"/>
      <rect x="52" y="130" width="16" height="20" fill="#f4f1ea" stroke="#111" stroke-width="2"/>
      <path d="M48 146 L60 160 L72 146" fill="none" stroke="#111" stroke-width="2"/>
      <circle cx="60" cy="82" r="34" fill="#f4f1ea" stroke="#111" stroke-width="2.5"/>
      <path d="M48 51 q6 -11 13 -4 q5 -6 11 1" fill="none" stroke="#111" stroke-width="2.5"/>
      <circle cx="50" cy="76" r="3" fill="#111"/>
      <circle cx="72" cy="76" r="3" fill="#111"/>
      <path d="M44 90 Q60 113 78 90" fill="none" stroke="#111" stroke-width="2.5" stroke-linecap="round"/>
    </symbol>

    <symbol id="boss" viewBox="0 0 120 200">
      <path d="M16 200 L16 168 Q16 150 40 146 L80 146 Q104 150 104 168 L104 200" fill="#f4f1ea" stroke="#111" stroke-width="2.5" stroke-linejoin="round"/>
      <path d="M48 146 L60 172 L72 146" fill="none" stroke="#111" stroke-width="2"/>
      <path d="M60 172 L56 192 M60 172 L64 192" fill="none" stroke="#111" stroke-width="1.6"/>
      <path d="M60 160 L55 176 L60 194 L65 176 Z" fill="#111"/>
      <rect x="52" y="130" width="16" height="20" fill="#f4f1ea" stroke="#111" stroke-width="2"/>
      <ellipse cx="60" cy="80" rx="28" ry="32" fill="#f4f1ea" stroke="#111" stroke-width="2.5"/>
      <path d="M45 55 L38 13 L55 49 Z" fill="#111"/>
      <path d="M75 55 L82 13 L65 49 Z" fill="#111"/>
      <circle cx="52" cy="78" r="1.9" fill="#111"/>
      <circle cx="68" cy="78" r="1.9" fill="#111"/>
      <path d="M60 82 l-2 7 l3 0" fill="none" stroke="#111" stroke-width="1.6" stroke-linejoin="round"/>
      <path d="M52 96 Q60 101 68 96" fill="none" stroke="#111" stroke-width="2"/>
    </symbol>

    <symbol id="clanker" viewBox="0 0 100 100">
      <line x1="50" y1="18" x2="50" y2="6" stroke="#111" stroke-width="2"/>
      <circle cx="50" cy="5" r="3" fill="#111"/>
      <rect x="18" y="18" width="64" height="60" rx="6" fill="#f4f1ea" stroke="#111" stroke-width="2.5"/>
      <rect x="26" y="34" width="18" height="9" rx="2" fill="#111"/>
      <rect x="56" y="34" width="18" height="9" rx="2" fill="#111"/>
      <rect x="30" y="56" width="40" height="14" rx="2" fill="none" stroke="#111" stroke-width="2"/>
      <line x1="38" y1="56" x2="38" y2="70" stroke="#111" stroke-width="1.5"/>
      <line x1="46" y1="56" x2="46" y2="70" stroke="#111" stroke-width="1.5"/>
      <line x1="54" y1="56" x2="54" y2="70" stroke="#111" stroke-width="1.5"/>
      <line x1="62" y1="56" x2="62" y2="70" stroke="#111" stroke-width="1.5"/>
    </symbol>
  </defs>

  <!-- ================= PANEL 1 : meeting ================= -->
  <g transform="translate(0,0)">
    <rect x="1.5" y="1.5" width="397" height="337" rx="3" fill="#f4f1ea" stroke="#111" stroke-width="2.5"/>

    <!-- meeting table -->
    <path d="M0 300 L400 300 L400 340 L0 340 Z" fill="#f4f1ea"/>
    <line x1="0" y1="300" x2="400" y2="300" stroke="#111" stroke-width="2"/>

    <!-- characters -->
    <use href="#dailbert" x="35" y="140" width="120" height="200"/>
    <!-- boss raised gesturing arms -->
    <path d="M258 288 Q246 250 252 210" fill="none" stroke="#111" stroke-width="2.5" stroke-linecap="round"/>
    <path d="M318 288 Q332 250 330 210" fill="none" stroke="#111" stroke-width="2.5" stroke-linecap="round"/>
    <circle cx="252" cy="207" r="5" fill="#f4f1ea" stroke="#111" stroke-width="2"/>
    <circle cx="330" cy="207" r="5" fill="#f4f1ea" stroke="#111" stroke-width="2"/>
    <use href="#boss" x="225" y="140" width="120" height="200"/>

    <!-- boss balloon -->
    <path d="M262 128 L278 148 L288 132 Z" fill="#fff" stroke="#111" stroke-width="2"/>
    <rect x="178" y="20" width="210" height="110" rx="14" fill="#fff" stroke="#111" stroke-width="2"/>
    <text x="283" y="43" font-family="'Comic Sans MS','Segoe Print',cursive" font-size="14" fill="#111" text-anchor="middle">
      <tspan x="283" dy="0">Morning review's a</tspan>
      <tspan x="283" dy="17">required block now.</tspan>
      <tspan x="283" dy="17">We just read what</tspan>
      <tspan x="283" dy="17">the agents shipped</tspan>
      <tspan x="283" dy="17">overnight.</tspan>
    </text>

    <!-- dailbert balloon -->
    <path d="M92 150 L98 172 L108 152 Z" fill="#fff" stroke="#111" stroke-width="2"/>
    <rect x="14" y="94" width="160" height="58" rx="14" fill="#fff" stroke="#111" stroke-width="2"/>
    <text x="94" y="118" font-family="'Comic Sans MS','Segoe Print',cursive" font-size="14" fill="#111" text-anchor="middle">
      <tspan x="94" dy="0">That's the whole</tspan>
      <tspan x="94" dy="17">meeting, yeah.</tspan>
    </text>
  </g>

  <!-- ================= PANEL 2 : desk + monitor ================= -->
  <g transform="translate(414,0)">
    <rect x="1.5" y="1.5" width="397" height="337" rx="3" fill="#f4f1ea" stroke="#111" stroke-width="2.5"/>

    <!-- dailbert -->
    <use href="#dailbert" x="15" y="140" width="120" height="200"/>

    <!-- monitor -->
    <rect x="238" y="150" width="134" height="104" rx="5" fill="#f4f1ea" stroke="#111" stroke-width="2.5"/>
    <rect x="250" y="162" width="110" height="80" rx="3" fill="#f4f1ea" stroke="#111" stroke-width="2"/>
    <use href="#clanker" x="272" y="166" width="66" height="66"/>
    <line x1="252" y1="172" x2="358" y2="172" stroke="#b9b4a8" stroke-width="1"/>
    <line x1="252" y1="184" x2="358" y2="184" stroke="#b9b4a8" stroke-width="1"/>
    <line x1="252" y1="196" x2="358" y2="196" stroke="#b9b4a8" stroke-width="1"/>
    <line x1="252" y1="208" x2="358" y2="208" stroke="#b9b4a8" stroke-width="1"/>
    <line x1="252" y1="220" x2="358" y2="220" stroke="#b9b4a8" stroke-width="1"/>
    <line x1="252" y1="232" x2="358" y2="232" stroke="#b9b4a8" stroke-width="1"/>
    <rect x="298" y="254" width="14" height="12" fill="#f4f1ea" stroke="#111" stroke-width="2"/>
    <ellipse cx="305" cy="270" rx="26" ry="6" fill="#f4f1ea" stroke="#111" stroke-width="2"/>

    <!-- desk -->
    <path d="M0 268 L400 268 L400 340 L0 340 Z" fill="#f4f1ea"/>
    <line x1="0" y1="268" x2="400" y2="268" stroke="#111" stroke-width="2"/>

    <!-- dailbert balloon -->
    <path d="M72 100 L78 120 L88 102 Z" fill="#fff" stroke="#111" stroke-width="2"/>
    <rect x="12" y="16" width="196" height="86" rx="14" fill="#fff" stroke="#111" stroke-width="2"/>
    <text x="110" y="39" font-family="'Comic Sans MS','Segoe Print',cursive" font-size="14" fill="#111" text-anchor="middle">
      <tspan x="110" dy="0">The old review bot's</tspan>
      <tspan x="110" dy="17">gone. Now it's a green</tspan>
      <tspan x="110" dy="17">checkmark and a</tspan>
      <tspan x="110" dy="17">'spot-check' list.</tspan>
    </text>

    <!-- clanker screen balloon -->
    <line x1="303" y1="106" x2="300" y2="160" stroke="#111" stroke-width="1.5" stroke-dasharray="4 3"/>
    <rect x="210" y="14" width="186" height="92" rx="3" fill="#fff" stroke="#111" stroke-width="2.5"/>
    <rect x="215" y="19" width="176" height="82" rx="2" fill="none" stroke="#111" stroke-width="1.2"/>
    <text x="303" y="40" font-family="'Comic Sans MS','Segoe Print',cursive" font-size="14" fill="#111" text-anchor="middle">
      <tspan x="303" dy="0">Look at three of the</tspan>
      <tspan x="303" dy="17">four hundred.</tspan>
      <tspan x="303" dy="17">Statistically, you'll</tspan>
      <tspan x="303" dy="17">feel thorough.</tspan>
    </text>
  </g>

  <!-- ================= PANEL 3 : office + Doug's mug ================= -->
  <g transform="translate(828,0)">
    <rect x="1.5" y="1.5" width="397" height="337" rx="3" fill="#f4f1ea" stroke="#111" stroke-width="2.5"/>

    <!-- floor -->
    <line x1="0" y1="312" x2="400" y2="312" stroke="#111" stroke-width="1.5"/>

    <use href="#dailbert" x="15" y="140" width="120" height="200"/>

    <!-- doug arm reaching to mug -->
    <path d="M252 292 Q228 280 208 266" fill="none" stroke="#111" stroke-width="2.5" stroke-linecap="round"/>
    <use href="#doug" x="225" y="140" width="120" height="200"/>

    <!-- Doug's mug with clanker in the sheen -->
    <path d="M222 262 q20 2 20 15 q0 13 -20 15" fill="#f4f1ea" stroke="#111" stroke-width="2.5"/>
    <rect x="150" y="248" width="72" height="64" rx="6" fill="#f4f1ea" stroke="#111" stroke-width="2.5"/>
    <use href="#clanker" x="160" y="252" width="52" height="52"/>
    <path d="M158 258 q10 -6 20 -2" fill="none" stroke="#b9b4a8" stroke-width="2" stroke-linecap="round"/>
    <path d="M156 300 q14 6 28 1" fill="none" stroke="#b9b4a8" stroke-width="2" stroke-linecap="round"/>

    <!-- doug balloon -->
    <path d="M280 76 L286 96 L296 78 Z" fill="#fff" stroke="#111" stroke-width="2"/>
    <rect x="198" y="14" width="194" height="64" rx="14" fill="#fff" stroke="#111" stroke-width="2"/>
    <text x="295" y="42" font-family="'Comic Sans MS','Segoe Print',cursive" font-size="14" fill="#111" text-anchor="middle">
      <tspan x="295" dy="0">Are we backfilling</tspan>
      <tspan x="295" dy="17">the QA seat in Q1?</tspan>
    </text>

    <!-- clanker screen balloon -> mug -->
    <line x1="120" y1="78" x2="176" y2="250" stroke="#111" stroke-width="1.5" stroke-dasharray="4 3"/>
    <rect x="12" y="14" width="192" height="64" rx="3" fill="#fff" stroke="#111" stroke-width="2.5"/>
    <rect x="17" y="19" width="182" height="54" rx="2" fill="none" stroke="#111" stroke-width="1.2"/>
    <text x="108" y="42" font-family="'Comic Sans MS','Segoe Print',cursive" font-size="14" fill="#111" text-anchor="middle">
      <tspan x="108" dy="0">It's 'deferred pending</tspan>
      <tspan x="108" dy="17">tooling review,' Doug.</tspan>
    </text>
  </g>
</g>
    
  </svg>