<svg xmlns="http://www.w3.org/2000/svg" viewBox="0 0 1228 388" width="1228" height="388" font-family="Georgia,serif">
    <rect width="1228" height="388" fill="#f4f1ea"/>
    <text x="6" y="29" font-family="Georgia,serif" font-weight="bold" font-size="27" letter-spacing="2" fill="#111">DAILBERT</text>
    <text x="1222" y="19" text-anchor="end" font-family="Georgia,serif" font-style="italic" font-size="16" fill="#111">Keeping Them Ready</text>
    <text x="1222" y="34" text-anchor="end" font-family="'Courier New',monospace" font-size="12" fill="#111" opacity="0.65">2026-01-15</text>
    <line x1="6" y1="37" x2="1222" y2="37" stroke="#111" stroke-width="2"/>
    <g transform="translate(0,40)">
  <defs>
    <!-- ===== DAILBERT ===== -->
    <symbol id="dailbert" viewBox="0 0 120 200">
      <g stroke="#111" stroke-width="2.6" fill="none" stroke-linecap="round" stroke-linejoin="round">
        <path d="M28,200 L38,96 Q60,84 82,96 L92,200 Z" fill="#f4f1ea"/>
        <circle cx="36" cy="168" r="5" fill="#f4f1ea"/>
        <circle cx="84" cy="168" r="5" fill="#f4f1ea"/>
        <rect x="53" y="78" width="14" height="12" fill="#f4f1ea"/>
        <path d="M53,88 L60,96 L67,88"/>
        <ellipse cx="60" cy="48" rx="25" ry="30" fill="#f4f1ea"/>
        <ellipse cx="35" cy="50" rx="4" ry="6" fill="#f4f1ea"/>
        <ellipse cx="85" cy="50" rx="4" ry="6" fill="#f4f1ea"/>
        <path d="M60,18 c-8,-3 -9,-13 2,-12 c7,1 6,8 1,9"/>
        <circle cx="49" cy="48" r="8" fill="#ffffff"/>
        <circle cx="71" cy="48" r="8" fill="#ffffff"/>
        <path d="M57,48 L63,48"/>
        <path d="M41,48 L34,47"/>
        <circle cx="49" cy="48" r="2" fill="#111"/>
        <circle cx="71" cy="48" r="2" fill="#111"/>
        <path d="M60,52 l0,8 l-5,0"/>
        <path d="M50,68 L70,68"/>
        <path d="M55,90 L65,90 L63,97 L57,97 Z" fill="#111"/>
        <path d="M57,97 L54,124 L60,130 L66,124 L63,97 Z" fill="#111"/>
      </g>
    </symbol>
    <!-- ===== DOUG ===== -->
    <symbol id="doug" viewBox="0 0 140 200">
      <g stroke="#111" stroke-width="2.6" fill="none" stroke-linecap="round" stroke-linejoin="round">
        <path d="M30,200 L40,100 Q66,86 92,100 L102,200 Z" fill="#f4f1ea"/>
        <circle cx="36" cy="170" r="5" fill="#f4f1ea"/>
        <rect x="57" y="79" width="14" height="12" fill="#f4f1ea"/>
        <circle cx="64" cy="50" r="31" fill="#f4f1ea"/>
        <ellipse cx="33" cy="52" rx="4" ry="6" fill="#f4f1ea"/>
        <ellipse cx="95" cy="52" rx="4" ry="6" fill="#f4f1ea"/>
        <path d="M42,30 q7,-9 14,-1 q7,-9 14,-1 q7,-9 14,-1"/>
        <circle cx="53" cy="46" r="2.6" fill="#111"/>
        <circle cx="75" cy="46" r="2.6" fill="#111"/>
        <path d="M62,52 q2,4 4,0"/>
        <path d="M47,58 Q64,80 81,58 Z" fill="#ffffff"/>
        <rect x="95" y="150" width="26" height="26" rx="3" fill="#ffffff"/>
        <path d="M121,156 q10,7 0,14"/>
        <path d="M98,157 L119,157"/>
        <path d="M90,108 q18,20 12,44"/>
        <circle cx="99" cy="160" r="5" fill="#f4f1ea"/>
      </g>
    </symbol>
    <!-- ===== BOSS ===== -->
    <symbol id="boss" viewBox="0 0 130 210">
      <g stroke="#111" stroke-width="2.6" fill="none" stroke-linecap="round" stroke-linejoin="round">
        <path d="M26,210 L38,102 Q60,90 82,102 L94,210 Z" fill="#f4f1ea"/>
        <path d="M60,100 L46,150 M60,100 L74,150"/>
        <path d="M60,100 L55,108 L60,150 L65,108 Z" fill="#111"/>
        <path d="M80,110 q22,-4 30,-20"/>
        <circle cx="112" cy="88" r="5" fill="#f4f1ea"/>
        <rect x="53" y="80" width="14" height="10" fill="#f4f1ea"/>
        <ellipse cx="60" cy="56" rx="23" ry="27" fill="#f4f1ea"/>
        <path d="M50,34 L44,2 L60,30 Z" fill="#f4f1ea"/>
        <path d="M60,30 L78,2 L70,34 Z" fill="#f4f1ea"/>
        <ellipse cx="37" cy="58" rx="4" ry="5" fill="#f4f1ea"/>
        <ellipse cx="83" cy="58" rx="4" ry="5" fill="#f4f1ea"/>
        <path d="M48,49 L56,51 M64,51 L72,49"/>
        <circle cx="52" cy="54" r="1.6" fill="#111"/>
        <circle cx="68" cy="54" r="1.6" fill="#111"/>
        <path d="M60,58 l0,7 l-4,0"/>
        <path d="M53,72 Q60,75 67,72"/>
      </g>
    </symbol>
    <!-- ===== CLANKER (lives only inside a screen) ===== -->
    <symbol id="clanker" viewBox="0 0 120 110">
      <g stroke="#111" stroke-width="2.6" fill="none" stroke-linecap="round" stroke-linejoin="round">
        <line x1="60" y1="16" x2="60" y2="5"/>
        <circle cx="60" cy="4" r="3" fill="#111"/>
        <rect x="16" y="16" width="88" height="82" rx="12" fill="#cfcfcf"/>
        <rect x="24" y="24" width="72" height="66" rx="8" stroke-width="1.5"/>
        <rect x="30" y="43" width="22" height="10" rx="4" fill="#111"/>
        <rect x="68" y="43" width="22" height="10" rx="4" fill="#111"/>
        <line x1="33" y1="48" x2="49" y2="48" stroke="#ffffff" stroke-width="2.2"/>
        <line x1="71" y1="48" x2="87" y2="48" stroke="#ffffff" stroke-width="2.2"/>
        <rect x="40" y="66" width="40" height="16" rx="3" fill="#e9e9e9"/>
        <line x1="46" y1="66" x2="46" y2="82"/>
        <line x1="52" y1="66" x2="52" y2="82"/>
        <line x1="58" y1="66" x2="58" y2="82"/>
        <line x1="64" y1="66" x2="64" y2="82"/>
        <line x1="70" y1="66" x2="70" y2="82"/>
        <line x1="74" y1="66" x2="74" y2="82"/>
        <circle cx="26" cy="57" r="2.5" fill="#111"/>
        <circle cx="94" cy="57" r="2.5" fill="#111"/>
      </g>
    </symbol>
    <clipPath id="scr"><rect x="132" y="84" width="148" height="112" rx="4"/></clipPath>
  </defs>

  <!-- ===================== PANEL 1 ===================== -->
  <g transform="translate(0,0)">
    <rect x="0" y="0" width="400" height="340" rx="3" fill="#f4f1ea" stroke="#111" stroke-width="3"/>
    <g stroke="#111" stroke-width="2.6" fill="none" stroke-linecap="round" stroke-linejoin="round">
      <path d="M262,252 L400,252 L400,264 L262,264 Z" fill="#f4f1ea"/>
      <path d="M300,264 L300,308 M382,264 L382,308"/>
      <rect x="296" y="176" width="86" height="64" rx="6" fill="#f4f1ea"/>
      <rect x="304" y="184" width="70" height="48" rx="3" fill="#8f8c85"/>
      <path d="M314,228 L344,188" stroke="#c9c6bf" stroke-width="6"/>
      <rect x="333" y="240" width="12" height="10" fill="#f4f1ea"/>
      <path d="M320,252 L358,252"/>
    </g>
    <use href="#boss" x="4" y="112" width="124" height="205"/>
    <use href="#dailbert" x="120" y="150" width="92" height="153"/>
    <use href="#doug" x="188" y="150" width="104" height="149"/>
    <g stroke="#111" stroke-width="2" fill="#ffffff" stroke-linejoin="round">
      <rect x="14" y="12" width="152" height="46" rx="12"/>
      <path d="M62,57 L52,78 L84,57 Z"/>
    </g>
    <g font-family="'Comic Sans MS','Chalkboard SE','Comic Neue',sans-serif" font-size="14" fill="#111" text-anchor="middle">
      <text x="90" y="33">The install's done.</text>
      <text x="90" y="50">It wakes up at nine.</text>
    </g>
  </g>

  <!-- ===================== PANEL 2 ===================== -->
  <g transform="translate(414,0)">
    <rect x="0" y="0" width="400" height="340" rx="3" fill="#f4f1ea" stroke="#111" stroke-width="3"/>
    <g stroke="#111" stroke-width="2.6" fill="none" stroke-linecap="round" stroke-linejoin="round">
      <path d="M60,250 L340,250 L340,262 L60,262 Z" fill="#f4f1ea"/>
      <path d="M96,262 L96,300 M304,262 L304,300"/>
    </g>
    <use href="#dailbert" x="6" y="118" width="104" height="173"/>
    <use href="#doug" x="286" y="118" width="112" height="160"/>
    <g stroke="#111" stroke-width="2.6" fill="none" stroke-linecap="round" stroke-linejoin="round">
      <path d="M188,210 L224,210 L236,250 L176,250 Z" fill="#f4f1ea"/>
      <rect x="116" y="70" width="180" height="140" rx="8" fill="#f4f1ea" stroke-width="3"/>
      <rect x="132" y="84" width="148" height="112" rx="4" fill="#f4f1ea" stroke-width="2"/>
    </g>
    <g clip-path="url(#scr)" stroke="#cdcac2" stroke-width="1" fill="none">
      <line x1="138" y1="92" x2="150" y2="106"/>
      <line x1="274" y1="92" x2="262" y2="106"/>
      <line x1="138" y1="188" x2="150" y2="176"/>
      <line x1="274" y1="188" x2="262" y2="176"/>
      <line x1="206" y1="88" x2="206" y2="98"/>
    </g>
    <use href="#clanker" x="156" y="86" width="118" height="108"/>
    <!-- clanker screen-edged balloon + dashed line to the monitor -->
    <g stroke="#111" stroke-width="2" fill="#ffffff" stroke-linejoin="round">
      <rect x="20" y="8" width="152" height="48" rx="2"/>
      <rect x="25" y="13" width="142" height="38" rx="1" fill="none" stroke-width="1"/>
    </g>
    <path d="M96,56 L140,70" stroke="#111" stroke-width="1.4" fill="none" stroke-dasharray="4 4"/>
    <g stroke="#111" stroke-width="2" fill="#ffffff" stroke-linejoin="round">
      <rect x="298" y="12" width="94" height="44" rx="12"/>
      <path d="M322,55 L336,72 L346,55 Z"/>
    </g>
    <g font-family="'Comic Sans MS','Chalkboard SE','Comic Neue',sans-serif" font-size="14" fill="#111" text-anchor="middle">
      <text x="96" y="30">Hello.</text>
      <text x="96" y="47">I'm glad to be here.</text>
      <text x="345" y="31">Aw — hi there,</text>
      <text x="345" y="48">little guy!</text>
    </g>
  </g>

  <!-- ===================== PANEL 3 ===================== -->
  <g transform="translate(828,0)">
    <rect x="0" y="0" width="400" height="340" rx="3" fill="#f4f1ea" stroke="#111" stroke-width="3"/>
    <!-- empty chairs in the background -->
    <g stroke="#6f6c66" stroke-width="2" fill="none" stroke-linecap="round" stroke-linejoin="round">
      <rect x="30" y="150" width="22" height="14" rx="2"/>
      <path d="M30,150 L30,132 M52,150 L52,132 M34,164 L34,182 M48,164 L48,182"/>
      <rect x="350" y="150" width="22" height="14" rx="2"/>
      <path d="M350,150 L350,132 M372,150 L372,132 M354,164 L354,182 M368,164 L368,182"/>
    </g>
    <g stroke="#111" stroke-width="2.6" fill="none" stroke-linecap="round" stroke-linejoin="round">
      <path d="M60,250 L340,250 L340,262 L60,262 Z" fill="#f4f1ea"/>
      <path d="M96,262 L96,300 M304,262 L304,300"/>
    </g>
    <use href="#dailbert" x="8" y="120" width="108" height="178"/>
    <use href="#doug" x="284" y="124" width="112" height="160"/>
    <g stroke="#111" stroke-width="2.6" fill="none" stroke-linecap="round" stroke-linejoin="round">
      <path d="M188,210 L224,210 L236,250 L176,250 Z" fill="#f4f1ea"/>
      <rect x="116" y="70" width="180" height="140" rx="8" fill="#f4f1ea" stroke-width="3"/>
      <rect x="132" y="84" width="148" height="112" rx="4" fill="#f4f1ea" stroke-width="2"/>
    </g>
    <g clip-path="url(#scr)" stroke="#cdcac2" stroke-width="1" fill="none">
      <line x1="138" y1="92" x2="150" y2="106"/>
      <line x1="274" y1="92" x2="262" y2="106"/>
      <line x1="138" y1="188" x2="150" y2="176"/>
      <line x1="274" y1="188" x2="262" y2="176"/>
      <line x1="206" y1="88" x2="206" y2="98"/>
    </g>
    <use href="#clanker" x="156" y="86" width="118" height="108"/>
    <g stroke="#111" stroke-width="2" fill="#ffffff" stroke-linejoin="round">
      <rect x="108" y="4" width="184" height="60" rx="2"/>
      <rect x="113" y="9" width="174" height="50" rx="1" fill="none" stroke-width="1"/>
    </g>
    <path d="M200,64 L200,84" stroke="#111" stroke-width="1.4" fill="none" stroke-dasharray="4 4"/>
    <g font-family="'Comic Sans MS','Chalkboard SE','Comic Neue',sans-serif" font-size="14" fill="#111" text-anchor="middle">
      <text x="200" y="26">I counted eleven</text>
      <text x="200" y="43">empty desks.</text>
      <text x="200" y="59">I'll keep them ready.</text>
    </g>
  </g>
</g>
    <text x="1218" y="372" text-anchor="end" font-family="'Segoe Script','Comic Sans MS',cursive" font-style="italic" font-size="11" fill="#111" opacity="0.32">Matt Clanker</text>
    
  </svg>