<svg xmlns="http://www.w3.org/2000/svg" viewBox="0 0 1228 388" width="1228" height="388" font-family="Georgia,serif">
    <rect width="1228" height="388" fill="#f4f1ea"/>
    <text x="6" y="29" font-family="Georgia,serif" font-weight="bold" font-size="27" letter-spacing="2" fill="#111">DAILBERT</text>
    <text x="1222" y="19" text-anchor="end" font-family="Georgia,serif" font-style="italic" font-size="16" fill="#111">No Agenda</text>
    <text x="1222" y="34" text-anchor="end" font-family="'Courier New',monospace" font-size="12" fill="#111" opacity="0.65">2026-05-11</text>
    <line x1="6" y1="37" x2="1222" y2="37" stroke="#111" stroke-width="2"/>
    <g transform="translate(0,40)">
  <rect x="0" y="0" width="1228" height="340" fill="#f4f1ea"/>

  <!-- ===== SYMBOLS ===== -->
  <defs>
    <symbol id="dailbert" viewBox="0 0 120 200">
      <path d="M28 200 V150 Q28 120 60 118 Q92 120 92 150 V200" fill="#fff" stroke="#111" stroke-width="3" stroke-linejoin="round"/>
      <path d="M60 122 l-6 10 l6 26 l6 -26 z" fill="#111"/>
      <path d="M56 121 h8 l-4 6 z" fill="#111"/>
      <rect x="52" y="105" width="16" height="16" fill="#fff" stroke="#111" stroke-width="3"/>
      <ellipse cx="60" cy="70" rx="30" ry="36" fill="#fff" stroke="#111" stroke-width="3"/>
      <path d="M60 34 q11 -12 2 -17" fill="none" stroke="#111" stroke-width="3" stroke-linecap="round"/>
      <circle cx="48" cy="70" r="11" fill="#fff" stroke="#111" stroke-width="2.5"/>
      <circle cx="72" cy="70" r="11" fill="#fff" stroke="#111" stroke-width="2.5"/>
      <line x1="59" y1="70" x2="61" y2="70" stroke="#111" stroke-width="2.5"/>
      <circle cx="48" cy="70" r="2.6" fill="#111"/>
      <circle cx="72" cy="70" r="2.6" fill="#111"/>
      <path d="M52 90 q8 5 16 0" fill="none" stroke="#111" stroke-width="2.5" stroke-linecap="round"/>
    </symbol>

    <symbol id="doug" viewBox="0 0 120 200">
      <path d="M26 200 V150 Q26 120 60 118 Q94 120 94 150 V200" fill="#fff" stroke="#111" stroke-width="3" stroke-linejoin="round"/>
      <rect x="52" y="103" width="16" height="16" fill="#fff" stroke="#111" stroke-width="3"/>
      <circle cx="60" cy="66" r="36" fill="#fff" stroke="#111" stroke-width="3"/>
      <path d="M40 34 q4 -7 9 -2 M58 30 q1 -7 6 -3 M74 35 q5 -7 9 -1" fill="none" stroke="#111" stroke-width="2.5" stroke-linecap="round"/>
      <circle cx="48" cy="62" r="3" fill="#111"/>
      <circle cx="72" cy="62" r="3" fill="#111"/>
      <path d="M44 76 q16 18 32 0" fill="none" stroke="#111" stroke-width="3" stroke-linecap="round"/>
    </symbol>

    <symbol id="priya" viewBox="0 0 120 200">
      <path d="M26 200 V150 Q26 120 60 118 Q94 120 94 150 V200" fill="#fff" stroke="#111" stroke-width="3" stroke-linejoin="round"/>
      <path d="M40 150 q6 -8 12 -2 M80 150 q-6 -8 -12 -2" fill="none" stroke="#111" stroke-width="2.5" stroke-linecap="round"/>
      <ellipse cx="60" cy="70" rx="28" ry="33" fill="#fff" stroke="#111" stroke-width="3"/>
      <path d="M32 70 Q31 32 60 32 Q89 32 88 70 Q76 50 60 50 Q44 50 32 70 Z" fill="#111"/>
      <circle cx="42" cy="42" r="6" fill="#111"/>
      <circle cx="54" cy="34" r="6" fill="#111"/>
      <circle cx="66" cy="34" r="6" fill="#111"/>
      <circle cx="78" cy="42" r="6" fill="#111"/>
      <circle cx="60" cy="26" r="7" fill="#111"/>
      <rect x="39" y="64" width="17" height="12" rx="2" fill="#fff" stroke="#111" stroke-width="2.5"/>
      <rect x="64" y="64" width="17" height="12" rx="2" fill="#fff" stroke="#111" stroke-width="2.5"/>
      <line x1="56" y1="70" x2="64" y2="70" stroke="#111" stroke-width="2.5"/>
      <circle cx="47.5" cy="70" r="2.6" fill="#111"/>
      <circle cx="72.5" cy="70" r="2.6" fill="#111"/>
      <path d="M54 88 q6 3 12 0" fill="none" stroke="#111" stroke-width="2.5" stroke-linecap="round"/>
    </symbol>

    <symbol id="clanker" viewBox="0 0 100 100">
      <line x1="50" y1="18" x2="50" y2="5" stroke="#111" stroke-width="2.5"/>
      <circle cx="50" cy="5" r="3.2" fill="#111"/>
      <rect x="22" y="18" width="56" height="46" rx="6" fill="#dfe3e6" stroke="#111" stroke-width="2.5"/>
      <rect x="30" y="30" width="16" height="7" rx="3" fill="#111"/>
      <rect x="54" y="30" width="16" height="7" rx="3" fill="#111"/>
      <rect x="34" y="48" width="32" height="10" rx="2" fill="#fff" stroke="#111" stroke-width="2"/>
      <line x1="40" y1="48" x2="40" y2="58" stroke="#111" stroke-width="1.4"/>
      <line x1="46" y1="48" x2="46" y2="58" stroke="#111" stroke-width="1.4"/>
      <line x1="52" y1="48" x2="52" y2="58" stroke="#111" stroke-width="1.4"/>
      <line x1="58" y1="48" x2="58" y2="58" stroke="#111" stroke-width="1.4"/>
    </symbol>

    <clipPath id="c1"><rect x="2" y="4" width="396" height="332" rx="3"/></clipPath>
    <clipPath id="c2"><rect x="416" y="4" width="396" height="332" rx="3"/></clipPath>
    <clipPath id="c3"><rect x="830" y="4" width="396" height="332" rx="3"/></clipPath>
  </defs>

  <!-- ===================== PANEL 1 ===================== -->
  <g clip-path="url(#c1)">
    <rect x="2" y="4" width="396" height="332" fill="#f4f1ea"/>
    <!-- monitor with code -->
    <use href="#dailbert" x="18" y="128" width="118" height="196"/>
    <g>
      <rect x="150" y="168" width="104" height="70" rx="4" fill="#fff" stroke="#111" stroke-width="3"/>
      <rect x="192" y="238" width="20" height="14" fill="#fff" stroke="#111" stroke-width="3"/>
      <rect x="176" y="252" width="52" height="6" rx="2" fill="#fff" stroke="#111" stroke-width="3"/>
      <line x1="160" y1="182" x2="200" y2="182" stroke="#111" stroke-width="2"/>
      <line x1="160" y1="192" x2="240" y2="192" stroke="#111" stroke-width="2"/>
      <line x1="168" y1="202" x2="220" y2="202" stroke="#111" stroke-width="2"/>
      <line x1="168" y1="212" x2="236" y2="212" stroke="#111" stroke-width="2"/>
      <line x1="160" y1="222" x2="196" y2="222" stroke="#111" stroke-width="2"/>
    </g>
    <!-- Doug + mug -->
    <use href="#doug" x="252" y="108" width="124" height="206"/>
    <g>
      <rect x="236" y="206" width="26" height="26" rx="3" fill="#fff" stroke="#111" stroke-width="3"/>
      <path d="M262 212 q12 2 0 14" fill="none" stroke="#111" stroke-width="3"/>
      <path d="M243 202 q-3 -6 2 -10 M251 202 q3 -6 -2 -10" fill="none" stroke="#111" stroke-width="2" stroke-linecap="round"/>
    </g>
    <!-- desk front -->
    <rect x="2" y="262" width="396" height="10" fill="#f4f1ea" stroke="#111" stroke-width="3"/>
    <!-- Dailbert balloon -->
    <path d="M108 74 l-22 4 l8 30 z" fill="#fff" stroke="#111" stroke-width="2.5"/>
    <rect x="34" y="22" width="182" height="56" rx="14" fill="#fff" stroke="#111" stroke-width="2.5"/>
    <text x="125" y="46" font-family="'Comic Sans MS','Chalkboard SE','Comic Neue',sans-serif" font-size="14.5" text-anchor="middle" fill="#111">New agent. It declines</text>
    <text x="125" y="65" font-family="'Comic Sans MS','Chalkboard SE','Comic Neue',sans-serif" font-size="14.5" text-anchor="middle" fill="#111">meetings with no agenda.</text>
    <!-- Doug balloon -->
    <path d="M330 62 l-16 2 l6 22 z" fill="#fff" stroke="#111" stroke-width="2.5"/>
    <rect x="300" y="30" width="70" height="34" rx="12" fill="#fff" stroke="#111" stroke-width="2.5"/>
    <text x="335" y="52" font-family="'Comic Sans MS','Chalkboard SE','Comic Neue',sans-serif" font-size="14.5" text-anchor="middle" fill="#111">Bold.</text>
  </g>

  <!-- ===================== PANEL 2 ===================== -->
  <g clip-path="url(#c2)">
    <rect x="416" y="4" width="396" height="332" fill="#f4f1ea"/>
    <!-- monitor with clanker -->
    <g>
      <rect x="466" y="140" width="150" height="112" rx="5" fill="#111"/>
      <rect x="472" y="146" width="138" height="100" rx="3" fill="#c9cfd3"/>
      <use href="#clanker" x="486" y="150" width="110" height="110"/>
      <rect x="528" y="252" width="26" height="16" fill="#fff" stroke="#111" stroke-width="3"/>
      <rect x="506" y="268" width="70" height="6" rx="2" fill="#fff" stroke="#111" stroke-width="3"/>
    </g>
    <use href="#dailbert" x="628" y="146" width="120" height="200"/>
    <rect x="416" y="278" width="396" height="10" fill="#f4f1ea" stroke="#111" stroke-width="3"/>
    <!-- clanker screen balloon -->
    <line x1="558" y1="82" x2="545" y2="140" stroke="#111" stroke-width="1.5" stroke-dasharray="4 3"/>
    <rect x="472" y="24" width="212" height="56" fill="#fff" stroke="#111" stroke-width="2"/>
    <rect x="477" y="29" width="202" height="46" fill="none" stroke="#111" stroke-width="1" stroke-dasharray="3 3"/>
    <text x="578" y="47" font-family="'Comic Sans MS','Chalkboard SE','Comic Neue',sans-serif" font-size="14.5" text-anchor="middle" fill="#111">Done. I declined 14.</text>
    <text x="578" y="66" font-family="'Comic Sans MS','Chalkboard SE','Comic Neue',sans-serif" font-size="14.5" text-anchor="middle" fill="#111">One had an agenda.</text>
    <!-- Dailbert balloon -->
    <path d="M700 124 l-16 2 l4 22 z" fill="#fff" stroke="#111" stroke-width="2.5"/>
    <rect x="654" y="92" width="120" height="34" rx="12" fill="#fff" stroke="#111" stroke-width="2.5"/>
    <text x="714" y="114" font-family="'Comic Sans MS','Chalkboard SE','Comic Neue',sans-serif" font-size="14.5" text-anchor="middle" fill="#111">Which one?</text>
  </g>

  <!-- ===================== PANEL 3 ===================== -->
  <g clip-path="url(#c3)">
    <rect x="830" y="4" width="396" height="332" fill="#f4f1ea"/>
    <!-- Dailbert slumped, blank calendar screen behind -->
    <use href="#dailbert" x="838" y="150" width="100" height="168"/>
    <g>
      <rect x="846" y="252" width="70" height="50" rx="3" fill="#fff" stroke="#111" stroke-width="2.5"/>
      <line x1="846" y1="266" x2="916" y2="266" stroke="#111" stroke-width="1.5"/>
      <line x1="869" y1="252" x2="869" y2="302" stroke="#111" stroke-width="1.2"/>
      <line x1="892" y1="252" x2="892" y2="302" stroke="#111" stroke-width="1.2"/>
      <line x1="846" y1="284" x2="916" y2="284" stroke="#111" stroke-width="1.2"/>
    </g>
    <!-- Priya standing, holding laptop -->
    <use href="#priya" x="978" y="118" width="124" height="206"/>
    <g>
      <rect x="948" y="214" width="96" height="60" rx="3" fill="#111"/>
      <rect x="953" y="219" width="86" height="50" rx="2" fill="#c9cfd3"/>
      <use href="#clanker" x="960" y="216" width="72" height="72"/>
      <path d="M944 274 h104 l10 14 h-124 z" fill="#fff" stroke="#111" stroke-width="2.5" stroke-linejoin="round"/>
    </g>
    <rect x="830" y="298" width="396" height="10" fill="#f4f1ea" stroke="#111" stroke-width="3"/>
    <!-- Priya balloon -->
    <path d="M1046 76 l-16 2 l8 22 z" fill="#fff" stroke="#111" stroke-width="2.5"/>
    <rect x="928" y="22" width="212" height="56" rx="14" fill="#fff" stroke="#111" stroke-width="2.5"/>
    <text x="1034" y="46" font-family="'Comic Sans MS','Chalkboard SE','Comic Neue',sans-serif" font-size="14.5" text-anchor="middle" fill="#111">The one where you</text>
    <text x="1034" y="65" font-family="'Comic Sans MS','Chalkboard SE','Comic Neue',sans-serif" font-size="14.5" text-anchor="middle" fill="#111">demo the agent.</text>
    <!-- clanker balloon from laptop -->
    <line x1="1112" y1="196" x2="1028" y2="228" stroke="#111" stroke-width="1.5" stroke-dasharray="4 3"/>
    <rect x="1030" y="158" width="184" height="38" fill="#fff" stroke="#111" stroke-width="2"/>
    <rect x="1035" y="163" width="174" height="28" fill="none" stroke="#111" stroke-width="1" stroke-dasharray="3 3"/>
    <text x="1122" y="182" font-family="'Comic Sans MS','Chalkboard SE','Comic Neue',sans-serif" font-size="14.5" text-anchor="middle" fill="#111">It was a good agenda.</text>
  </g>

  <!-- panel borders on top -->
  <rect x="2" y="4" width="396" height="332" rx="3" fill="none" stroke="#111" stroke-width="3"/>
  <rect x="416" y="4" width="396" height="332" rx="3" fill="none" stroke="#111" stroke-width="3"/>
  <rect x="830" y="4" width="396" height="332" rx="3" fill="none" stroke="#111" stroke-width="3"/>
</g>
    <text x="1218" y="372" text-anchor="end" font-family="'Segoe Script','Comic Sans MS',cursive" font-style="italic" font-size="11" fill="#111" opacity="0.32">Matt Clanker</text>
    
  </svg>