<!--TITLE: Module 1 of 40-->
<svg xmlns="http://www.w3.org/2000/svg" viewBox="0 0 1228 340" width="1228" height="340">
  <defs>
    <g id="dailbert">
      <path d="M -22 26 Q -27 42 -27 72 L 27 72 Q 27 42 22 26 Q 0 34 -22 26 Z" fill="#f4f1ea" stroke="#111" stroke-width="2.5"/>
      <path d="M -24 38 Q -35 52 -29 66" fill="none" stroke="#111" stroke-width="2.5"/>
      <path d="M 24 38 Q 35 52 29 66" fill="none" stroke="#111" stroke-width="2.5"/>
      <path d="M -8 26 L 0 32 L 8 26" fill="none" stroke="#111" stroke-width="2"/>
      <path d="M 0 30 L -5 36 L 0 56 L 5 36 Z" fill="#111"/>
      <ellipse cx="0" cy="0" rx="22" ry="19" fill="#f4f1ea" stroke="#111" stroke-width="2.5"/>
      <path d="M -3 -19 q 5 -11 12 -6 q 5 4 -3 7" fill="none" stroke="#111" stroke-width="2"/>
      <circle cx="-9" cy="-1" r="7" fill="#f4f1ea" stroke="#111" stroke-width="2"/>
      <circle cx="9" cy="-1" r="7" fill="#f4f1ea" stroke="#111" stroke-width="2"/>
      <path d="M -2 -1 L 2 -1 M -16 -1 L -21 -4 M 16 -1 L 21 -4" fill="none" stroke="#111" stroke-width="2"/>
      <circle cx="-8" cy="0" r="1.7" fill="#111"/>
      <circle cx="10" cy="0" r="1.7" fill="#111"/>
      <path d="M 0 3 q 3 3 0 6" fill="none" stroke="#111" stroke-width="2"/>
      <path d="M -5 13 L 6 13" fill="none" stroke="#111" stroke-width="2"/>
    </g>
    <g id="doug">
      <path d="M -20 24 Q -26 42 -26 72 L 26 72 Q 26 40 22 26 Q 0 32 -20 24 Z" fill="#f4f1ea" stroke="#111" stroke-width="2.5"/>
      <path d="M -22 36 Q -33 52 -27 66" fill="none" stroke="#111" stroke-width="2.5"/>
      <path d="M -7 24 L 0 29 L 7 24" fill="none" stroke="#111" stroke-width="2"/>
      <path d="M 20 32 Q 40 34 43 16" fill="none" stroke="#111" stroke-width="2.5"/>
      <rect x="35" y="-2" width="17" height="16" rx="2" fill="#f4f1ea" stroke="#111" stroke-width="2.5"/>
      <path d="M 52 1 q 8 5 0 10" fill="none" stroke="#111" stroke-width="2"/>
      <circle cx="43" cy="15" r="4" fill="#f4f1ea" stroke="#111" stroke-width="2"/>
      <path d="M 40 -6 q 2 -5 0 -9 M 47 -6 q -2 -5 0 -9" fill="none" stroke="#111" stroke-width="1.5"/>
      <circle cx="0" cy="0" r="20" fill="#f4f1ea" stroke="#111" stroke-width="2.5"/>
      <path d="M -12 -16 q 4 -4 8 -1 q 4 -4 8 -1" fill="none" stroke="#111" stroke-width="2"/>
      <circle cx="-7" cy="-4" r="2" fill="#111"/>
      <circle cx="7" cy="-4" r="2" fill="#111"/>
      <path d="M -11 4 Q 0 16 11 4" fill="none" stroke="#111" stroke-width="2.5"/>
    </g>
    <g id="boss">
      <path d="M -15 88 L -12 136 L -4 136 L -2 92 L 2 92 L 4 136 L 12 136 L 15 88 Z" fill="#f4f1ea" stroke="#111" stroke-width="2.5"/>
      <ellipse cx="-10" cy="139" rx="8" ry="4" fill="#111"/>
      <ellipse cx="10" cy="139" rx="8" ry="4" fill="#111"/>
      <path d="M -20 16 L -27 92 L 27 92 L 20 16 Q 0 25 -20 16 Z" fill="#f4f1ea" stroke="#111" stroke-width="2.5"/>
      <path d="M -21 30 Q -32 55 -27 80" fill="none" stroke="#111" stroke-width="2.5"/>
      <path d="M 21 30 Q 32 55 27 80" fill="none" stroke="#111" stroke-width="2.5"/>
      <path d="M -11 19 L -3 36 M 11 19 L 3 36" fill="none" stroke="#111" stroke-width="2"/>
      <path d="M 0 24 L -4 30 L 0 52 L 4 30 Z" fill="#111"/>
      <ellipse cx="0" cy="0" rx="17" ry="15" fill="#f4f1ea" stroke="#111" stroke-width="2.5"/>
      <path d="M -15 -8 L -9 -33 L -2 -11 Z" fill="#111" stroke="#111" stroke-width="1.5"/>
      <path d="M 2 -11 L 9 -33 L 15 -8 Z" fill="#111" stroke="#111" stroke-width="1.5"/>
      <circle cx="-5" cy="-2" r="1.4" fill="#111"/>
      <circle cx="5" cy="-2" r="1.4" fill="#111"/>
      <path d="M -4 8 L 5 8" fill="none" stroke="#111" stroke-width="2"/>
    </g>
    <g id="clanker">
      <path d="M 0 -20 L 0 -31" fill="none" stroke="#111" stroke-width="2"/>
      <circle cx="0" cy="-34" r="3" fill="#b9b9b9" stroke="#111" stroke-width="2"/>
      <rect x="-27" y="-20" width="54" height="42" rx="5" fill="#b9b9b9" stroke="#111" stroke-width="2.5"/>
      <rect x="-19" y="-9" width="13" height="6" rx="1" fill="#fff" stroke="#111" stroke-width="1.5"/>
      <rect x="6" y="-9" width="13" height="6" rx="1" fill="#fff" stroke="#111" stroke-width="1.5"/>
      <rect x="-13" y="5" width="26" height="10" rx="1" fill="none" stroke="#111" stroke-width="1.5"/>
      <path d="M -8 5 L -8 15 M -3 5 L -3 15 M 2 5 L 2 15 M 7 5 L 7 15" fill="none" stroke="#111" stroke-width="1.5"/>
    </g>
    <g id="screen-on">
      <rect x="30" y="40" width="130" height="88" rx="4" fill="#333" stroke="#111" stroke-width="3"/>
      <path d="M 34 58 L 156 58 M 34 78 L 156 78 M 34 98 L 156 98 M 34 116 L 156 116" fill="none" stroke="#555" stroke-width="1"/>
      <use href="#clanker" x="95" y="88"/>
      <path d="M 22 36 L 14 28 M 168 36 L 176 28 M 22 132 L 14 140 M 168 132 L 176 140 M 95 32 L 95 24" fill="none" stroke="#999" stroke-width="2"/>
    </g>
  </defs>

  <g stroke-linejoin="round" stroke-linecap="round">

    <!-- PANEL 1 -->
    <g>
      <rect x="2" y="2" width="396" height="336" rx="3" fill="#f4f1ea" stroke="#111" stroke-width="2.5"/>
      <path d="M 8 302 L 392 302" fill="none" stroke="#111" stroke-width="2"/>
      <rect x="310" y="56" width="80" height="246" fill="none" stroke="#111" stroke-width="2.5"/>
      <rect x="316" y="62" width="68" height="240" fill="none" stroke="#111" stroke-width="1.5"/>
      <rect x="30" y="40" width="130" height="88" rx="4" fill="#555" stroke="#111" stroke-width="3"/>
      <path d="M 85 62 L 107 73 L 85 84 Z" fill="#ccc"/>
      <rect x="42" y="98" width="106" height="5" fill="none" stroke="#ccc" stroke-width="1.5"/>
      <rect x="74" y="196" width="9" height="58" rx="3" fill="#f4f1ea" stroke="#111" stroke-width="2"/>
      <rect x="179" y="196" width="9" height="58" rx="3" fill="#f4f1ea" stroke="#111" stroke-width="2"/>
      <use href="#dailbert" x="110" y="190"/>
      <use href="#doug" x="215" y="190"/>
      <use href="#boss" x="350" y="160"/>
      <rect x="26" y="244" width="266" height="18" fill="#f4f1ea" stroke="#111" stroke-width="2.5"/>
      <path d="M 48 262 L 48 300 M 270 262 L 270 300" fill="none" stroke="#111" stroke-width="2.5"/>
      <path d="M 90 268 L 80 296 M 130 268 L 120 296 M 170 268 L 160 296 M 210 268 L 200 296" fill="none" stroke="#111" stroke-width="1"/>
      <rect x="180" y="12" width="208" height="88" rx="16" fill="#f4f1ea" stroke="#111" stroke-width="2.5"/>
      <path d="M 326 99 L 346 141 L 352 99" fill="#f4f1ea" stroke="#111" stroke-width="2.5"/>
      <rect x="163" y="110" width="152" height="30" rx="13" fill="#f4f1ea" stroke="#111" stroke-width="2.5"/>
      <path d="M 205 139 L 213 167 L 221 139" fill="#f4f1ea" stroke="#111" stroke-width="2.5"/>
      <g font-family="'Comic Sans MS','Chalkboard SE','Comic Neue',sans-serif" font-size="14" text-anchor="middle" fill="#111">
        <text x="284" y="34">Two hours,</text>
        <text x="284" y="51">mandatory. Nobody</text>
        <text x="284" y="68">actually watches.</text>
        <text x="284" y="85">Just be in the room.</text>
        <text x="239" y="130">I brought snacks.</text>
        <text x="95" y="118" font-size="10.5" fill="#ccc">MODULE 1 OF 40</text>
      </g>
    </g>

    <!-- PANEL 2 -->
    <g transform="translate(414,0)">
      <rect x="2" y="2" width="396" height="336" rx="3" fill="#f4f1ea" stroke="#111" stroke-width="2.5"/>
      <path d="M 8 302 L 392 302" fill="none" stroke="#111" stroke-width="2"/>
      <use href="#screen-on" x="0" y="0"/>
      <rect x="84" y="196" width="9" height="58" rx="3" fill="#f4f1ea" stroke="#111" stroke-width="2"/>
      <rect x="204" y="196" width="9" height="58" rx="3" fill="#f4f1ea" stroke="#111" stroke-width="2"/>
      <use href="#dailbert" x="120" y="190"/>
      <use href="#doug" x="240" y="190"/>
      <rect x="26" y="244" width="332" height="18" fill="#f4f1ea" stroke="#111" stroke-width="2.5"/>
      <path d="M 50 262 L 50 300 M 330 262 L 330 300" fill="none" stroke="#111" stroke-width="2.5"/>
      <path d="M 100 268 L 90 296 M 150 268 L 140 296 M 200 268 L 190 296 M 250 268 L 240 296" fill="none" stroke="#111" stroke-width="1"/>
      <path d="M 96 218 L 138 218 L 142 244 L 92 244 Z" fill="#f4f1ea" stroke="#111" stroke-width="2.5"/>
      <path d="M 102 224 L 130 238 M 110 222 L 136 235" fill="none" stroke="#111" stroke-width="1"/>
      <rect x="176" y="10" width="202" height="78" rx="2" fill="#f4f1ea" stroke="#111" stroke-width="2.5"/>
      <path d="M 176 62 L 160 84" fill="none" stroke="#111" stroke-width="1.5" stroke-dasharray="4 4"/>
      <rect x="20" y="136" width="158" height="28" rx="12" fill="#f4f1ea" stroke="#111" stroke-width="2.5"/>
      <path d="M 100 163 L 114 172 L 122 163" fill="#f4f1ea" stroke="#111" stroke-width="2.5"/>
      <rect x="205" y="104" width="182" height="28" rx="12" fill="#f4f1ea" stroke="#111" stroke-width="2.5"/>
      <path d="M 236 131 L 242 168 L 252 131" fill="#f4f1ea" stroke="#111" stroke-width="2.5"/>
      <g font-family="'Comic Sans MS','Chalkboard SE','Comic Neue',sans-serif" font-size="14" text-anchor="middle" fill="#111">
        <text x="277" y="30">Welcome. This training</text>
        <text x="277" y="47">is pre-recorded.</text>
        <text x="277" y="64">Dailbert, please</text>
        <text x="277" y="81">close your email.</text>
        <text x="99" y="155">It's pre-recorded.</text>
        <text x="296" y="123">Then it's very good.</text>
      </g>
    </g>

    <!-- PANEL 3 -->
    <g transform="translate(828,0)">
      <rect x="2" y="2" width="396" height="336" rx="3" fill="#f4f1ea" stroke="#111" stroke-width="2.5"/>
      <path d="M 8 302 L 392 302" fill="none" stroke="#111" stroke-width="2"/>
      <use href="#screen-on" x="0" y="0"/>
      <rect x="84" y="196" width="9" height="58" rx="3" fill="#f4f1ea" stroke="#111" stroke-width="2"/>
      <rect x="204" y="196" width="9" height="58" rx="3" fill="#f4f1ea" stroke="#111" stroke-width="2"/>
      <use href="#dailbert" x="120" y="190"/>
      <use href="#doug" x="240" y="190"/>
      <rect x="26" y="244" width="332" height="18" fill="#f4f1ea" stroke="#111" stroke-width="2.5"/>
      <path d="M 50 262 L 50 300 M 330 262 L 330 300" fill="none" stroke="#111" stroke-width="2.5"/>
      <path d="M 100 268 L 90 296 M 150 268 L 140 296 M 200 268 L 190 296 M 250 268 L 240 296" fill="none" stroke="#111" stroke-width="1"/>
      <rect x="94" y="237" width="48" height="8" rx="2" fill="#f4f1ea" stroke="#111" stroke-width="2"/>
      <rect x="176" y="10" width="208" height="78" rx="2" fill="#f4f1ea" stroke="#111" stroke-width="2.5"/>
      <path d="M 176 62 L 160 84" fill="none" stroke="#111" stroke-width="1.5" stroke-dasharray="4 4"/>
      <rect x="252" y="104" width="118" height="28" rx="12" fill="#f4f1ea" stroke="#111" stroke-width="2.5"/>
      <path d="M 272 131 L 250 168 L 288 131" fill="#f4f1ea" stroke="#111" stroke-width="2.5"/>
      <rect x="24" y="140" width="134" height="26" rx="2" fill="#f4f1ea" stroke="#111" stroke-width="2.5"/>
      <path d="M 91 140 L 91 128" fill="none" stroke="#111" stroke-width="1.5" stroke-dasharray="4 4"/>
      <g font-family="'Comic Sans MS','Chalkboard SE','Comic Neue',sans-serif" font-size="14" text-anchor="middle" fill="#111">
        <text x="280" y="30">It is. I recorded it</text>
        <text x="280" y="47">this morning, just</text>
        <text x="280" y="64">for you two. There</text>
        <text x="280" y="81">is no other version.</text>
        <text x="311" y="123">I feel seen.</text>
        <text x="91" y="158">You are, Doug.</text>
      </g>
    </g>

  </g>
</svg>
