<svg xmlns="http://www.w3.org/2000/svg" viewBox="0 0 1228 340" width="1228" height="340">
  <defs>
    <!-- ===== CLANKER (AI robot head) ===== -->
    <symbol id="clanker" viewBox="0 0 100 100">
      <!-- antenna -->
      <line x1="50" y1="14" x2="50" y2="4" stroke="#111" stroke-width="2.5" stroke-linecap="round"/>
      <circle cx="50" cy="3" r="2.5" fill="#111"/>
      <!-- head box -->
      <rect x="20" y="14" width="60" height="52" rx="6" fill="#f4f1ea" stroke="#111" stroke-width="3"/>
      <!-- slot eyes (glowing) -->
      <rect x="28" y="27" width="18" height="9" rx="2.5" fill="#111"/>
      <rect x="54" y="27" width="18" height="9" rx="2.5" fill="#111"/>
      <line x1="30" y1="31.5" x2="44" y2="31.5" stroke="#f4f1ea" stroke-width="2.5" stroke-linecap="round"/>
      <line x1="56" y1="31.5" x2="70" y2="31.5" stroke="#f4f1ea" stroke-width="2.5" stroke-linecap="round"/>
      <!-- grille mouth -->
      <rect x="32" y="47" width="36" height="13" rx="2" fill="#f4f1ea" stroke="#111" stroke-width="2"/>
      <line x1="39" y1="47" x2="39" y2="60" stroke="#111" stroke-width="1.6"/>
      <line x1="46" y1="47" x2="46" y2="60" stroke="#111" stroke-width="1.6"/>
      <line x1="53" y1="47" x2="53" y2="60" stroke="#111" stroke-width="1.6"/>
      <line x1="60" y1="47" x2="60" y2="60" stroke="#111" stroke-width="1.6"/>
      <!-- side bolts -->
      <circle cx="24" cy="40" r="2" fill="#111"/>
      <circle cx="76" cy="40" r="2" fill="#111"/>
    </symbol>

    <!-- ===== DAILBERT ===== -->
    <symbol id="dailbert" viewBox="0 0 120 160">
      <!-- collar/shoulders -->
      <path d="M20 158 Q20 120 40 112 L80 112 Q100 120 100 158 Z" fill="#f4f1ea" stroke="#111" stroke-width="3"/>
      <path d="M52 112 L60 128 L68 112" fill="#f4f1ea" stroke="#111" stroke-width="2.5"/>
      <!-- necktie -->
      <path d="M57 128 L63 128 L66 152 L60 158 L54 152 Z" fill="#111"/>
      <!-- neck -->
      <rect x="52" y="104" width="16" height="14" fill="#f4f1ea" stroke="#111" stroke-width="2.5"/>
      <!-- head (oval) -->
      <ellipse cx="60" cy="66" rx="34" ry="40" fill="#f4f1ea" stroke="#111" stroke-width="3"/>
      <!-- ears -->
      <ellipse cx="26" cy="66" rx="5" ry="8" fill="#f4f1ea" stroke="#111" stroke-width="2.5"/>
      <ellipse cx="94" cy="66" rx="5" ry="8" fill="#f4f1ea" stroke="#111" stroke-width="2.5"/>
      <!-- hair curl -->
      <path d="M52 30 Q56 18 66 24 Q60 28 62 34" fill="none" stroke="#111" stroke-width="3" stroke-linecap="round"/>
      <!-- glasses -->
      <circle cx="47" cy="64" r="11" fill="#f4f1ea" stroke="#111" stroke-width="2.5"/>
      <circle cx="73" cy="64" r="11" fill="#f4f1ea" stroke="#111" stroke-width="2.5"/>
      <line x1="58" y1="64" x2="62" y2="64" stroke="#111" stroke-width="2.5"/>
      <line x1="36" y1="63" x2="30" y2="60" stroke="#111" stroke-width="2.5"/>
      <line x1="84" y1="63" x2="90" y2="60" stroke="#111" stroke-width="2.5"/>
      <!-- eyes (weary dots) -->
      <circle cx="47" cy="65" r="2.2" fill="#111"/>
      <circle cx="73" cy="65" r="2.2" fill="#111"/>
      <!-- brows -->
      <line x1="40" y1="52" x2="54" y2="53" stroke="#111" stroke-width="2"/>
      <line x1="66" y1="53" x2="80" y2="52" stroke="#111" stroke-width="2"/>
      <!-- nose -->
      <path d="M60 68 Q64 74 59 76" fill="none" stroke="#111" stroke-width="2"/>
      <!-- deadpan mouth -->
      <line x1="50" y1="88" x2="70" y2="88" stroke="#111" stroke-width="2.5" stroke-linecap="round"/>
    </symbol>

    <!-- monitor scanlines -->
    <pattern id="scan" width="6" height="4" patternUnits="userSpaceOnUse">
      <rect width="6" height="4" fill="#f4f1ea"/>
      <line x1="0" y1="0" x2="6" y2="0" stroke="#d8d3c7" stroke-width="1"/>
    </pattern>
  </defs>

  <!-- ============ PANEL 1 ============ -->
  <g>
    <rect x="1.5" y="1.5" width="397" height="337" rx="3" fill="#f4f1ea" stroke="#111" stroke-width="3"/>
    <clipPath id="clip1"><rect x="3" y="3" width="394" height="334" rx="2"/></clipPath>
    <g clip-path="url(#clip1)">
      <!-- desk -->
      <line x1="3" y1="300" x2="397" y2="300" stroke="#111" stroke-width="3"/>
      <!-- monitor with clanker -->
      <g>
        <rect x="250" y="196" width="120" height="94" rx="6" fill="#f4f1ea" stroke="#111" stroke-width="3"/>
        <rect x="258" y="204" width="104" height="70" rx="3" fill="url(#scan)" stroke="#111" stroke-width="2"/>
        <rect x="300" y="290" width="20" height="12" fill="#f4f1ea" stroke="#111" stroke-width="2.5"/>
        <rect x="286" y="300" width="48" height="6" rx="2" fill="#111"/>
        <use href="#clanker" x="278" y="206" width="64" height="64"/>
      </g>
      <!-- dailbert at desk -->
      <use href="#dailbert" x="30" y="120" width="150" height="200"/>

      <!-- dailbert balloon -->
      <g>
        <path d="M60 60 L120 92 L100 92 Z" fill="#fff" stroke="#111" stroke-width="2.5"/>
        <rect x="18" y="14" width="188" height="72" rx="14" fill="#fff" stroke="#111" stroke-width="2.5"/>
        <text x="112" y="34" text-anchor="middle" font-family="'Comic Sans MS','Segoe Print',cursive" font-size="14" fill="#111">Build me a dashboard.</text>
        <text x="112" y="52" text-anchor="middle" font-family="'Comic Sans MS','Segoe Print',cursive" font-size="14" fill="#111">Make it clean. You</text>
        <text x="112" y="70" text-anchor="middle" font-family="'Comic Sans MS','Segoe Print',cursive" font-size="14" fill="#111">know what I mean.</text>
      </g>

      <!-- clanker screen balloon -->
      <g>
        <line x1="310" y1="196" x2="300" y2="150" stroke="#111" stroke-width="1.5" stroke-dasharray="3 3"/>
        <rect x="212" y="14" width="176" height="118" rx="3" fill="#fff" stroke="#111" stroke-width="2.5"/>
        <rect x="217" y="19" width="166" height="108" rx="2" fill="none" stroke="#111" stroke-width="1.3"/>
        <text x="300" y="42" text-anchor="middle" font-family="'Comic Sans MS','Segoe Print',cursive" font-size="14" fill="#111">I do not know what</text>
        <text x="300" y="60" text-anchor="middle" font-family="'Comic Sans MS','Segoe Print',cursive" font-size="14" fill="#111">you mean. Nobody</text>
        <text x="300" y="78" text-anchor="middle" font-family="'Comic Sans MS','Segoe Print',cursive" font-size="14" fill="#111">knows what 'clean'</text>
        <text x="300" y="96" text-anchor="middle" font-family="'Comic Sans MS','Segoe Print',cursive" font-size="14" fill="#111">means.</text>
      </g>
    </g>
  </g>

  <!-- ============ PANEL 2 ============ -->
  <g transform="translate(414,0)">
    <rect x="1.5" y="1.5" width="397" height="337" rx="3" fill="#f4f1ea" stroke="#111" stroke-width="3"/>
    <clipPath id="clip2"><rect x="3" y="3" width="394" height="334" rx="2"/></clipPath>
    <g clip-path="url(#clip2)">
      <line x1="3" y1="300" x2="397" y2="300" stroke="#111" stroke-width="3"/>
      <!-- monitor left side this panel -->
      <g>
        <rect x="34" y="196" width="120" height="94" rx="6" fill="#f4f1ea" stroke="#111" stroke-width="3"/>
        <rect x="42" y="204" width="104" height="70" rx="3" fill="url(#scan)" stroke="#111" stroke-width="2"/>
        <rect x="84" y="290" width="20" height="12" fill="#f4f1ea" stroke="#111" stroke-width="2.5"/>
        <rect x="70" y="300" width="48" height="6" rx="2" fill="#111"/>
        <use href="#clanker" x="62" y="206" width="64" height="64"/>
      </g>
      <!-- dailbert right, turned, shrug -->
      <use href="#dailbert" x="228" y="120" width="150" height="200"/>

      <!-- dailbert balloon -->
      <g>
        <path d="M300 74 L286 100 L268 92 Z" fill="#fff" stroke="#111" stroke-width="2.5"/>
        <rect x="228" y="16" width="150" height="62" rx="14" fill="#fff" stroke="#111" stroke-width="2.5"/>
        <text x="303" y="42" text-anchor="middle" font-family="'Comic Sans MS','Segoe Print',cursive" font-size="14" fill="#111">Just... use your</text>
        <text x="303" y="60" text-anchor="middle" font-family="'Comic Sans MS','Segoe Print',cursive" font-size="14" fill="#111">judgment.</text>
      </g>

      <!-- clanker screen balloon -->
      <g>
        <line x1="94" y1="196" x2="110" y2="164" stroke="#111" stroke-width="1.5" stroke-dasharray="3 3"/>
        <rect x="16" y="14" width="196" height="150" rx="3" fill="#fff" stroke="#111" stroke-width="2.5"/>
        <rect x="21" y="19" width="186" height="140" rx="2" fill="none" stroke="#111" stroke-width="1.3"/>
        <text x="114" y="42" text-anchor="middle" font-family="'Comic Sans MS','Segoe Print',cursive" font-size="14" fill="#111">My judgment is a</text>
        <text x="114" y="60" text-anchor="middle" font-family="'Comic Sans MS','Segoe Print',cursive" font-size="14" fill="#111">weighted average of</text>
        <text x="114" y="78" text-anchor="middle" font-family="'Comic Sans MS','Segoe Print',cursive" font-size="14" fill="#111">every dashboard</text>
        <text x="114" y="96" text-anchor="middle" font-family="'Comic Sans MS','Segoe Print',cursive" font-size="14" fill="#111">humanity has ever</text>
        <text x="114" y="114" text-anchor="middle" font-family="'Comic Sans MS','Segoe Print',cursive" font-size="14" fill="#111">regretted.</text>
      </g>
    </g>
  </g>

  <!-- ============ PANEL 3 ============ -->
  <g transform="translate(828,0)">
    <rect x="1.5" y="1.5" width="397" height="337" rx="3" fill="#f4f1ea" stroke="#111" stroke-width="3"/>
    <clipPath id="clip3"><rect x="3" y="3" width="394" height="334" rx="2"/></clipPath>
    <g clip-path="url(#clip3)">
      <line x1="3" y1="300" x2="397" y2="300" stroke="#111" stroke-width="3"/>
      <!-- monitor center-right -->
      <g>
        <rect x="248" y="196" width="120" height="94" rx="6" fill="#f4f1ea" stroke="#111" stroke-width="3"/>
        <rect x="256" y="204" width="104" height="70" rx="3" fill="url(#scan)" stroke="#111" stroke-width="2"/>
        <rect x="298" y="290" width="20" height="12" fill="#f4f1ea" stroke="#111" stroke-width="2.5"/>
        <rect x="284" y="300" width="48" height="6" rx="2" fill="#111"/>
        <use href="#clanker" x="276" y="206" width="64" height="64"/>
      </g>
      <!-- dailbert left, small satisfied -->
      <use href="#dailbert" x="34" y="128" width="140" height="188"/>

      <!-- dailbert balloon -->
      <g>
        <path d="M96 70 L118 96 L136 90 Z" fill="#fff" stroke="#111" stroke-width="2.5"/>
        <rect x="30" y="20" width="140" height="54" rx="14" fill="#fff" stroke="#111" stroke-width="2.5"/>
        <text x="100" y="52" text-anchor="middle" font-family="'Comic Sans MS','Segoe Print',cursive" font-size="15" fill="#111">...that's perfect.</text>
      </g>

      <!-- clanker screen balloon -->
      <g>
        <line x1="308" y1="196" x2="298" y2="156" stroke="#111" stroke-width="1.5" stroke-dasharray="3 3"/>
        <rect x="196" y="14" width="192" height="132" rx="3" fill="#fff" stroke="#111" stroke-width="2.5"/>
        <rect x="201" y="19" width="182" height="122" rx="2" fill="none" stroke="#111" stroke-width="1.3"/>
        <text x="292" y="44" text-anchor="middle" font-family="'Comic Sans MS','Segoe Print',cursive" font-size="14" fill="#111">I averaged the regret</text>
        <text x="292" y="62" text-anchor="middle" font-family="'Comic Sans MS','Segoe Print',cursive" font-size="14" fill="#111">and inverted it.</text>
        <text x="292" y="84" text-anchor="middle" font-family="'Comic Sans MS','Segoe Print',cursive" font-size="14" fill="#111">Please never ask me</text>
        <text x="292" y="102" text-anchor="middle" font-family="'Comic Sans MS','Segoe Print',cursive" font-size="14" fill="#111">how.</text>
      </g>
    </g>
  </g>
</svg>