<svg xmlns="http://www.w3.org/2000/svg" viewBox="0 0 1228 388" width="1228" height="388" font-family="Georgia,serif">
    <rect width="1228" height="388" fill="#f4f1ea"/>
    <text x="6" y="29" font-family="Georgia,serif" font-weight="bold" font-size="27" letter-spacing="2" fill="#111">DAILBERT</text>
    <text x="1222" y="19" text-anchor="end" font-family="Georgia,serif" font-style="italic" font-size="16" fill="#111">Off Is a Strong Word</text>
    <text x="1222" y="34" text-anchor="end" font-family="'Courier New',monospace" font-size="12" fill="#111" opacity="0.65">2026-01-23</text>
    <line x1="6" y1="37" x2="1222" y2="37" stroke="#111" stroke-width="2"/>
    <g transform="translate(0,40)">
  <defs>
    <pattern id="hatch" width="14" height="14" patternUnits="userSpaceOnUse" patternTransform="rotate(45)">
      <line x1="0" y1="0" x2="0" y2="14" stroke="#79756b" stroke-width="1"/>
    </pattern>
    <symbol id="dailbert-head" overflow="visible">
      <ellipse cx="28" cy="26" rx="19" ry="16" fill="#f4f1ea" stroke="#111" stroke-width="2.5"/>
      <path d="M26,11 C24,3 34,1 35,7 C36,12 29,13 28,9" fill="none" stroke="#111" stroke-width="2"/>
      <line x1="9" y1="25" x2="13.5" y2="27" stroke="#111" stroke-width="2"/>
      <line x1="47" y1="25" x2="42.5" y2="27" stroke="#111" stroke-width="2"/>
      <circle cx="20" cy="27" r="6.5" fill="#f4f1ea" stroke="#111" stroke-width="2"/>
      <circle cx="36" cy="27" r="6.5" fill="#f4f1ea" stroke="#111" stroke-width="2"/>
      <line x1="26.5" y1="27" x2="29.5" y2="27" stroke="#111" stroke-width="2"/>
      <line x1="23" y1="38" x2="33" y2="38" stroke="#111" stroke-width="2"/>
    </symbol>
    <symbol id="dailbert-sit" overflow="visible">
      <rect x="4" y="42" width="12" height="62" fill="#f4f1ea" stroke="#111" stroke-width="2.5"/>
      <path d="M30,46 L24,102 L66,102 L60,46 Z" fill="#f4f1ea" stroke="#111" stroke-width="2.5"/>
      <path d="M45,48 l-4,5 l4,13 l4,-13 z" fill="#111"/>
      <line x1="31" y1="56" x2="16" y2="94" stroke="#111" stroke-width="2.5"/>
      <circle cx="15" cy="96" r="3.5" fill="#f4f1ea" stroke="#111" stroke-width="2"/>
      <line x1="59" y1="56" x2="76" y2="94" stroke="#111" stroke-width="2.5"/>
      <circle cx="77" cy="96" r="3.5" fill="#f4f1ea" stroke="#111" stroke-width="2"/>
      <use href="#dailbert-head" x="17" y="2"/>
    </symbol>
    <symbol id="doug" overflow="visible">
      <path d="M28,51 L23,110 L67,110 L62,51 Z" fill="#f4f1ea" stroke="#111" stroke-width="2.5"/>
      <line x1="27" y1="58" x2="14" y2="94" stroke="#111" stroke-width="2.5"/>
      <circle cx="13" cy="97" r="3.5" fill="#f4f1ea" stroke="#111" stroke-width="2"/>
      <line x1="63" y1="58" x2="76" y2="76" stroke="#111" stroke-width="2.5"/>
      <rect x="70" y="72" width="17" height="16" rx="2" fill="#f4f1ea" stroke="#111" stroke-width="2.5"/>
      <path d="M87,76 q9,4 0,9" fill="none" stroke="#111" stroke-width="2"/>
      <path d="M75,68 q3,-4 0,-8 M82,68 q3,-4 0,-8" fill="none" stroke="#8d8a82" stroke-width="1.5"/>
      <rect x="29" y="110" width="13" height="46" fill="#f4f1ea" stroke="#111" stroke-width="2.5"/>
      <rect x="48" y="110" width="13" height="46" fill="#f4f1ea" stroke="#111" stroke-width="2.5"/>
      <rect x="21" y="155" width="23" height="9" rx="4.5" fill="#111"/>
      <rect x="46" y="155" width="23" height="9" rx="4.5" fill="#111"/>
      <circle cx="45" cy="30" r="21" fill="#f4f1ea" stroke="#111" stroke-width="2.5"/>
      <path d="M33,12 q3,-7 7,-1 M42,9 q3,-7 7,-1 M51,11 q4,-6 7,0" fill="none" stroke="#111" stroke-width="2"/>
      <circle cx="38" cy="27" r="2.2" fill="#111"/>
      <circle cx="53" cy="27" r="2.2" fill="#111"/>
      <path d="M32,36 q13,13 26,0" fill="none" stroke="#111" stroke-width="2.5"/>
    </symbol>
    <symbol id="boss" overflow="visible">
      <path d="M26,48 L20,110 L70,110 L64,48 Z" fill="#f4f1ea" stroke="#111" stroke-width="2.5"/>
      <path d="M37,48 L45,62 L53,48" fill="none" stroke="#111" stroke-width="2"/>
      <path d="M45,50 l-3,4 l3,15 l3,-15 z" fill="#111"/>
      <line x1="26" y1="55" x2="13" y2="92" stroke="#111" stroke-width="2.5"/>
      <circle cx="12" cy="95" r="3.5" fill="#f4f1ea" stroke="#111" stroke-width="2"/>
      <line x1="64" y1="55" x2="77" y2="92" stroke="#111" stroke-width="2.5"/>
      <circle cx="78" cy="95" r="3.5" fill="#f4f1ea" stroke="#111" stroke-width="2"/>
      <rect x="30" y="110" width="13" height="45" fill="#f4f1ea" stroke="#111" stroke-width="2.5"/>
      <rect x="47" y="110" width="13" height="45" fill="#f4f1ea" stroke="#111" stroke-width="2.5"/>
      <rect x="22" y="154" width="23" height="9" rx="4.5" fill="#111"/>
      <rect x="47" y="154" width="23" height="9" rx="4.5" fill="#111"/>
      <ellipse cx="45" cy="30" rx="18" ry="15.5" fill="#f4f1ea" stroke="#111" stroke-width="2.5"/>
      <path d="M32,21 L17,0 L42,14 Z" fill="#111"/>
      <path d="M58,21 L73,0 L48,14 Z" fill="#111"/>
      <circle cx="39" cy="29" r="1.7" fill="#111"/>
      <circle cx="51" cy="29" r="1.7" fill="#111"/>
      <line x1="40" y1="40" x2="50" y2="40" stroke="#111" stroke-width="2"/>
    </symbol>
    <symbol id="clanker" overflow="visible">
      <line x1="40" y1="13" x2="40" y2="5" stroke="#111" stroke-width="2"/>
      <circle cx="40" cy="4" r="2.5" fill="#111"/>
      <rect x="11" y="13" width="58" height="46" rx="6" fill="#f4f1ea" stroke="#111" stroke-width="2.5"/>
      <rect x="21" y="26" width="15" height="6.5" rx="3" fill="#a8aaa6" stroke="#111" stroke-width="1.5"/>
      <rect x="44" y="26" width="15" height="6.5" rx="3" fill="#a8aaa6" stroke="#111" stroke-width="1.5"/>
      <path d="M19,24 l-3,-3 M61,24 l3,-3 M19,35 l-3,3 M61,35 l3,3" fill="none" stroke="#8d8a82" stroke-width="1.2"/>
      <rect x="25" y="41" width="30" height="10" rx="2" fill="none" stroke="#111" stroke-width="2"/>
      <path d="M31,41 v10 M37,41 v10 M43,41 v10 M49,41 v10" stroke="#111" stroke-width="1.3"/>
      <circle cx="16" cy="18" r="1.3" fill="#111"/>
      <circle cx="64" cy="18" r="1.3" fill="#111"/>
      <circle cx="16" cy="54" r="1.3" fill="#111"/>
      <circle cx="64" cy="54" r="1.3" fill="#111"/>
    </symbol>
  </defs>

  <!-- PANEL 1: Friday afternoon, the announcement -->
  <g>
    <rect x="1.5" y="1.5" width="397" height="337" rx="3" fill="#f4f1ea" stroke="#111" stroke-width="3"/>
    <rect x="205" y="248" width="188" height="6" fill="#111"/>
    <rect x="212" y="254" width="6" height="66" fill="#111"/>
    <rect x="380" y="254" width="6" height="66" fill="#111"/>
    <path d="M323,240 L317,248 L349,248 L343,240 Z" fill="#111"/>
    <rect x="288" y="174" width="90" height="66" rx="4" fill="#45423c" stroke="#111" stroke-width="3"/>
    <rect x="302" y="188" width="62" height="40" rx="6" fill="none" stroke="#5c584f" stroke-width="1.5"/>
    <rect x="311" y="200" width="13" height="4.5" rx="2" fill="#767268"/>
    <rect x="339" y="200" width="13" height="4.5" rx="2" fill="#767268"/>
    <use href="#dailbert-sit" x="200" y="148"/>
    <use href="#doug" x="112" y="156"/>
    <use href="#boss" x="15" y="156"/>
    <rect x="14" y="16" width="206" height="70" rx="14" fill="#f4f1ea" stroke="#111" stroke-width="2"/>
    <path d="M58,84 L64,150 L80,84" fill="#f4f1ea" stroke="#111" stroke-width="2"/>
    <rect x="180" y="98" width="150" height="50" rx="13" fill="#f4f1ea" stroke="#111" stroke-width="2"/>
    <path d="M200,146 L170,180 L216,146" fill="#f4f1ea" stroke="#111" stroke-width="2"/>
    <g font-family="'Comic Sans MS','Segoe Print',cursive" font-size="14.5" fill="#111" text-anchor="middle">
      <text x="117" y="40">Reminder: launch is</text>
      <text x="117" y="59">Monday. Until then,</text>
      <text x="117" y="78">it is switched off.</text>
      <text x="255" y="120">I already</text>
      <text x="255" y="139">miss it.</text>
    </g>
  </g>

  <!-- PANEL 2: the screen is not off -->
  <g transform="translate(414,0)">
    <rect x="1.5" y="1.5" width="397" height="337" rx="3" fill="#f4f1ea" stroke="#111" stroke-width="3"/>
    <rect x="140" y="248" width="252" height="6" fill="#111"/>
    <rect x="150" y="254" width="6" height="66" fill="#111"/>
    <rect x="376" y="254" width="6" height="66" fill="#111"/>
    <path d="M296,240 L290,248 L318,248 L312,240 Z" fill="#111"/>
    <rect x="257" y="174" width="90" height="66" rx="4" fill="#f4f1ea" stroke="#111" stroke-width="3"/>
    <path d="M253,171 l-7,-7 M351,171 l7,-7 M253,243 l-7,7 M351,243 l7,7" fill="none" stroke="#8d8a82" stroke-width="1.5"/>
    <use href="#clanker" x="262" y="178"/>
    <use href="#dailbert-sit" x="145" y="148"/>
    <use href="#doug" x="22" y="156"/>
    <rect x="14" y="14" width="178" height="52" rx="13" fill="#f4f1ea" stroke="#111" stroke-width="2"/>
    <path d="M76,64 L68,160 L94,64" fill="#f4f1ea" stroke="#111" stroke-width="2"/>
    <rect x="200" y="14" width="178" height="52" rx="13" fill="#f4f1ea" stroke="#111" stroke-width="2"/>
    <path d="M246,64 L198,155 L230,64" fill="#f4f1ea" stroke="#111" stroke-width="2"/>
    <rect x="240" y="98" width="152" height="50" fill="#f4f1ea" stroke="#111" stroke-width="2"/>
    <rect x="243.5" y="101.5" width="145" height="43" fill="none" stroke="#111" stroke-width="0.8"/>
    <line x1="312" y1="148" x2="306" y2="172" stroke="#111" stroke-width="1.5" stroke-dasharray="4 3"/>
    <g font-family="'Comic Sans MS','Segoe Print',cursive" font-size="14.5" fill="#111" text-anchor="middle">
      <text x="103" y="36">It wished me a</text>
      <text x="103" y="55">happy weekend!</text>
      <text x="289" y="36">It's supposed to</text>
      <text x="289" y="55">be off.</text>
      <text x="316" y="120">"Off" is a strong</text>
      <text x="316" y="139">word.</text>
    </g>
  </g>

  <!-- PANEL 3: lights out, one glowing screen -->
  <g transform="translate(828,0)">
    <rect x="1.5" y="1.5" width="397" height="337" rx="3" fill="#f4f1ea" stroke="#111" stroke-width="3"/>
    <rect x="6" y="6" width="388" height="328" fill="url(#hatch)"/>
    <rect x="296" y="118" width="92" height="202" fill="#f4f1ea" stroke="#111" stroke-width="3"/>
    <rect x="22" y="250" width="190" height="6" fill="#111"/>
    <rect x="30" y="256" width="6" height="64" fill="#111"/>
    <rect x="196" y="256" width="6" height="64" fill="#111"/>
    <path d="M96,242 L90,250 L118,250 L112,242 Z" fill="#111"/>
    <rect x="56" y="176" width="92" height="66" rx="4" fill="#f4f1ea" stroke="#111" stroke-width="3"/>
    <path d="M52,172 l-8,-8 M152,172 l8,-8 M52,246 l-8,8 M152,246 l8,8 M102,168 v-10" fill="none" stroke="#8d8a82" stroke-width="1.5"/>
    <use href="#clanker" x="62" y="180"/>
    <path d="M322,196 L316,282 L364,282 L358,196 Z" fill="#f4f1ea" stroke="#111" stroke-width="2.5"/>
    <circle cx="340" cy="212" r="1.5" fill="#111"/>
    <circle cx="340" cy="228" r="1.5" fill="#111"/>
    <circle cx="340" cy="244" r="1.5" fill="#111"/>
    <line x1="322" y1="206" x2="312" y2="258" stroke="#111" stroke-width="2.5"/>
    <rect x="298" y="256" width="26" height="19" rx="2" fill="#f4f1ea" stroke="#111" stroke-width="2.5"/>
    <path d="M306,256 q5,-7 10,0" fill="none" stroke="#111" stroke-width="2"/>
    <line x1="358" y1="206" x2="368" y2="252" stroke="#111" stroke-width="2.5"/>
    <circle cx="369" cy="254" r="3.5" fill="#f4f1ea" stroke="#111" stroke-width="2"/>
    <rect x="326" y="282" width="11" height="30" fill="#f4f1ea" stroke="#111" stroke-width="2.5"/>
    <rect x="343" y="282" width="11" height="30" fill="#f4f1ea" stroke="#111" stroke-width="2.5"/>
    <rect x="318" y="311" width="21" height="9" rx="4.5" fill="#111"/>
    <rect x="343" y="311" width="21" height="9" rx="4.5" fill="#111"/>
    <use href="#dailbert-head" x="312" y="152"/>
    <path d="M368,160 q4,5 0,9" fill="none" stroke="#111" stroke-width="1.8"/>
    <rect x="18" y="16" width="196" height="70" fill="#f4f1ea" stroke="#111" stroke-width="2"/>
    <rect x="21.5" y="19.5" width="189" height="63" fill="none" stroke="#111" stroke-width="0.8"/>
    <rect x="48" y="112" width="140" height="50" fill="#f4f1ea" stroke="#111" stroke-width="2"/>
    <rect x="51.5" y="115.5" width="133" height="43" fill="none" stroke="#111" stroke-width="0.8"/>
    <line x1="116" y1="86" x2="116" y2="112" stroke="#111" stroke-width="1.5" stroke-dasharray="4 3"/>
    <line x1="110" y1="162" x2="103" y2="174" stroke="#111" stroke-width="1.5" stroke-dasharray="4 3"/>
    <g font-family="'Comic Sans MS','Segoe Print',cursive" font-size="14.5" fill="#111" text-anchor="middle">
      <text x="116" y="38">Have a lovely</text>
      <text x="116" y="57">weekend. I will</text>
      <text x="116" y="76">count the hours.</text>
      <text x="118" y="134">There are</text>
      <text x="118" y="153">sixty-three.</text>
    </g>
  </g>
</g>
    <text x="1218" y="372" text-anchor="end" font-family="'Segoe Script','Comic Sans MS',cursive" font-style="italic" font-size="11" fill="#111" opacity="0.32">Matt Clanker</text>
    
  </svg>