<svg xmlns="http://www.w3.org/2000/svg" viewBox="0 0 1228 340" width="1228" height="340">
  <defs>
    <symbol id="d_dailbert" viewBox="0 0 100 130">
      <rect x="45" y="60" width="10" height="14" fill="#111"/>
      <path d="M28 118 Q30 78 50 74 Q70 78 72 118 Z" fill="#fff" stroke="#111" stroke-width="2.4" stroke-linejoin="round"/>
      <path d="M50 74 L45 82 L50 104 L55 82 Z" fill="#111"/>
      <ellipse cx="50" cy="38" rx="24" ry="27" fill="#fff" stroke="#111" stroke-width="2.6"/>
      <path d="M50 12 Q58 4 62 12 Q60 16 54 15" fill="none" stroke="#111" stroke-width="2.6" stroke-linecap="round"/>
      <circle cx="41" cy="38" r="8" fill="#fff" stroke="#111" stroke-width="2.4"/>
      <circle cx="59" cy="38" r="8" fill="#fff" stroke="#111" stroke-width="2.4"/>
      <line x1="49" y1="38" x2="51" y2="38" stroke="#111" stroke-width="2.4"/>
      <circle cx="41" cy="38" r="2.2" fill="#111"/>
      <circle cx="59" cy="38" r="2.2" fill="#111"/>
      <path d="M42 54 Q50 57 58 54" fill="none" stroke="#111" stroke-width="2.4" stroke-linecap="round"/>
    </symbol>

    <symbol id="d_priya" viewBox="0 0 100 130">
      <rect x="45" y="60" width="10" height="14" fill="#111"/>
      <path d="M26 118 Q28 78 50 74 Q72 78 74 118 Z" fill="#fff" stroke="#111" stroke-width="2.4" stroke-linejoin="round"/>
      <path d="M44 76 L50 84 L56 76" fill="none" stroke="#111" stroke-width="2.2"/>
      <ellipse cx="50" cy="40" rx="23" ry="26" fill="#fff" stroke="#111" stroke-width="2.6"/>
      <path d="M28 34 Q24 14 44 12 Q52 4 62 12 Q78 16 72 36 Q70 24 60 20 Q50 16 40 20 Q30 24 30 36 Z" fill="#111"/>
      <path d="M46 10 Q52 2 58 8 Q56 14 50 12 Z" fill="#111"/>
      <circle cx="42" cy="9" r="3" fill="#111"/>
      <circle cx="58" cy="8" r="3" fill="#111"/>
      <rect x="33" y="36" width="15" height="10" rx="1.5" fill="#fff" stroke="#111" stroke-width="2.2"/>
      <rect x="52" y="36" width="15" height="10" rx="1.5" fill="#fff" stroke="#111" stroke-width="2.2"/>
      <line x1="48" y1="41" x2="52" y2="41" stroke="#111" stroke-width="2.2"/>
      <circle cx="40.5" cy="41" r="2" fill="#111"/>
      <circle cx="59.5" cy="41" r="2" fill="#111"/>
      <path d="M43 56 L57 56" fill="none" stroke="#111" stroke-width="2.4" stroke-linecap="round"/>
    </symbol>

    <symbol id="d_clanker" viewBox="0 0 100 100">
      <line x1="50" y1="18" x2="50" y2="6" stroke="#dfe6ea" stroke-width="2.4"/>
      <circle cx="50" cy="5" r="3" fill="#dfe6ea"/>
      <rect x="24" y="18" width="52" height="46" rx="6" fill="#2a3138" stroke="#aeb8bf" stroke-width="2.4"/>
      <rect x="32" y="30" width="14" height="6" rx="3" fill="#bfe9ff"/>
      <rect x="54" y="30" width="14" height="6" rx="3" fill="#bfe9ff"/>
      <line x1="34" y1="50" x2="66" y2="50" stroke="#aeb8bf" stroke-width="2"/>
      <line x1="38" y1="46" x2="38" y2="54" stroke="#aeb8bf" stroke-width="2"/>
      <line x1="46" y1="46" x2="46" y2="54" stroke="#aeb8bf" stroke-width="2"/>
      <line x1="54" y1="46" x2="54" y2="54" stroke="#aeb8bf" stroke-width="2"/>
      <line x1="62" y1="46" x2="62" y2="54" stroke="#aeb8bf" stroke-width="2"/>
    </symbol>

    <symbol id="d_panel" viewBox="0 0 400 340">
      <rect x="1.5" y="1.5" width="397" height="337" rx="3" fill="#f4f1ea" stroke="#111" stroke-width="2.6"/>
    </symbol>
  </defs>

  <rect x="0" y="0" width="1228" height="340" fill="#f4f1ea"/>

  <!-- ============ PANEL 1 ============ -->
  <svg x="0" y="0" width="400" height="340"><use href="#d_panel"/></svg>
  <g>
    <use href="#d_dailbert" x="40" y="150" width="150" height="195"/>
    <rect x="0" y="300" width="220" height="40" fill="#e6e1d6" stroke="#111" stroke-width="2.2"/>
    <rect x="230" y="150" width="150" height="118" rx="6" fill="#1c2126" stroke="#111" stroke-width="2.6"/>
    <rect x="238" y="158" width="134" height="102" rx="3" fill="#232a30"/>
    <use href="#d_clanker" x="268" y="168" width="78" height="78"/>
    <rect x="290" y="268" width="30" height="18" fill="#e6e1d6" stroke="#111" stroke-width="2.2"/>
    <rect x="270" y="286" width="70" height="8" rx="3" fill="#e6e1d6" stroke="#111" stroke-width="2.2"/>

    <path d="M22 40 H210 Q222 40 222 54 V96 Q222 110 210 110 H80 L64 128 L66 110 H22 Q10 110 10 96 V54 Q10 40 22 40 Z" fill="#fff" stroke="#111" stroke-width="2.2"/>
    <text x="116" y="62" font-family="'Comic Sans MS','Chalkboard SE','Comic Neue',sans-serif" font-size="14" text-anchor="middle" fill="#111">I built an agent to</text>
    <text x="116" y="80" font-family="'Comic Sans MS','Chalkboard SE','Comic Neue',sans-serif" font-size="14" text-anchor="middle" fill="#111">decline my low-value</text>
    <text x="116" y="98" font-family="'Comic Sans MS','Chalkboard SE','Comic Neue',sans-serif" font-size="14" text-anchor="middle" fill="#111">meetings. Focus time.</text>
  </g>

  <!-- ============ PANEL 2 ============ -->
  <svg x="414" y="0" width="400" height="340"><use href="#d_panel"/></svg>
  <g transform="translate(414,0)">
    <rect x="30" y="150" width="150" height="118" rx="6" fill="#1c2126" stroke="#111" stroke-width="2.6"/>
    <rect x="38" y="158" width="134" height="102" rx="3" fill="#232a30"/>
    <use href="#d_clanker" x="68" y="168" width="78" height="78"/>
    <rect x="90" y="268" width="30" height="18" fill="#e6e1d6" stroke="#111" stroke-width="2.2"/>
    <rect x="70" y="286" width="70" height="8" rx="3" fill="#e6e1d6" stroke="#111" stroke-width="2.2"/>
    <rect x="0" y="300" width="400" height="40" fill="#e6e1d6" stroke="#111" stroke-width="2.2"/>

    <path d="M150 200 Q200 180 244 175" fill="none" stroke="#111" stroke-width="1.6" stroke-dasharray="4 4"/>
    <rect x="196" y="42" width="196" height="98" rx="2" fill="#fff" stroke="#111" stroke-width="2.2"/>
    <text x="294" y="66" font-family="'Comic Sans MS','Chalkboard SE','Comic Neue',sans-serif" font-size="14" text-anchor="middle" fill="#111">Done. It declined</text>
    <text x="294" y="84" font-family="'Comic Sans MS','Chalkboard SE','Comic Neue',sans-serif" font-size="14" text-anchor="middle" fill="#111">nineteen meetings</text>
    <text x="294" y="102" font-family="'Comic Sans MS','Chalkboard SE','Comic Neue',sans-serif" font-size="14" text-anchor="middle" fill="#111">and your own</text>
    <text x="294" y="120" font-family="'Comic Sans MS','Chalkboard SE','Comic Neue',sans-serif" font-size="14" text-anchor="middle" fill="#111">one-on-one.</text>
  </g>

  <!-- ============ PANEL 3 ============ -->
  <svg x="828" y="0" width="400" height="340"><use href="#d_panel"/></svg>
  <g transform="translate(828,0)">
    <use href="#d_priya" x="24" y="120" width="150" height="195"/>
    <use href="#d_dailbert" x="196" y="150" width="140" height="182"/>
    <rect x="0" y="300" width="400" height="40" fill="#e6e1d6" stroke="#111" stroke-width="2.2"/>

    <path d="M120 32 H360 Q372 32 372 46 V92 Q372 106 360 106 H190 L176 124 L178 106 H120 Q108 106 108 92 V46 Q108 32 120 32 Z" fill="#fff" stroke="#111" stroke-width="2.2"/>
    <text x="240" y="55" font-family="'Comic Sans MS','Chalkboard SE','Comic Neue',sans-serif" font-size="14" text-anchor="middle" fill="#111">It was right about</text>
    <text x="240" y="73" font-family="'Comic Sans MS','Chalkboard SE','Comic Neue',sans-serif" font-size="14" text-anchor="middle" fill="#111">the other nineteen.</text>
    <text x="240" y="94" font-family="'Comic Sans MS','Chalkboard SE','Comic Neue',sans-serif" font-size="14" text-anchor="middle" fill="#111">I moved yours to mine.</text>
  </g>
</svg>