<svg xmlns="http://www.w3.org/2000/svg" viewBox="0 0 1228 340" width="1228" height="340">
<defs>
<symbol id="dailbert" viewBox="0 0 120 170">
<g fill="#f4f1ea" stroke="#111" stroke-width="3" stroke-linejoin="round" stroke-linecap="round">
<path d="M20,170 C20,132 30,118 60,116 C90,118 100,132 100,170 Z"/>
<ellipse cx="60" cy="66" rx="31" ry="37"/>
</g>
<g fill="none" stroke="#111" stroke-width="2.5" stroke-linecap="round" stroke-linejoin="round">
<path d="M49,116 L60,130 L71,116"/>
<path d="M60,130 L54,150 L60,160 L66,150 Z" fill="#111"/>
<circle cx="47" cy="68" r="10.5"/>
<circle cx="73" cy="68" r="10.5"/>
<path d="M57.5,68 L62.5,68"/>
<path d="M36.5,68 L30,64"/>
<path d="M60,74 L56,84 L61,84"/>
<path d="M50,96 L70,95"/>
<path d="M52,33 Q55,22 64,26 Q71,30 66,38"/>
</g>
<circle cx="47" cy="68" r="2.3" fill="#111"/>
<circle cx="73" cy="68" r="2.3" fill="#111"/>
</symbol>
<symbol id="boss" viewBox="0 0 120 175">
<g fill="#f4f1ea" stroke="#111" stroke-width="3" stroke-linejoin="round" stroke-linecap="round">
<path d="M18,175 C18,133 30,120 60,118 C90,120 102,133 102,175 Z"/>
<path d="M45,50 L27,4 L59,44 Z"/>
<path d="M61,44 L93,4 L75,50 Z"/>
<ellipse cx="60" cy="70" rx="28" ry="30"/>
</g>
<g fill="none" stroke="#111" stroke-width="2.5" stroke-linecap="round" stroke-linejoin="round">
<path d="M50,122 L43,150"/>
<path d="M70,122 L77,150"/>
<path d="M60,122 L54,146 L60,158 L66,146 Z" fill="#111"/>
<path d="M44,64 L54,66"/>
<path d="M76,64 L66,66"/>
<path d="M48,82 Q60,92 72,82"/>
</g>
<circle cx="52" cy="70" r="2" fill="#111"/>
<circle cx="68" cy="70" r="2" fill="#111"/>
</symbol>
<symbol id="clanker" viewBox="0 0 110 95">
<g stroke="currentColor" stroke-width="2.4" fill="none" stroke-linejoin="round" stroke-linecap="round">
<path d="M55,18 L55,7"/>
<circle cx="55" cy="5" r="3" fill="currentColor" stroke="none"/>
<rect x="17" y="18" width="76" height="58" rx="7"/>
<rect x="22" y="23" width="66" height="48" rx="4"/>
<rect x="30" y="34" width="20" height="9" rx="4" fill="currentColor" stroke="none"/>
<rect x="60" y="34" width="20" height="9" rx="4" fill="currentColor" stroke="none"/>
<rect x="34" y="54" width="42" height="12" rx="2"/>
<path d="M41,54 L41,66 M48,54 L48,66 M55,54 L55,66 M62,54 L62,66 M69,54 L69,66"/>
<circle cx="17" cy="47" r="3" fill="currentColor" stroke="none"/>
<circle cx="93" cy="47" r="3" fill="currentColor" stroke="none"/>
</g>
</symbol>
</defs>

<g transform="translate(0,0)" font-family="'Comic Sans MS','Segoe Print',cursive">
<rect x="2" y="2" width="396" height="336" rx="3" fill="#f4f1ea" stroke="#111" stroke-width="2.5"/>
<path d="M12,258 L388,258" stroke="#111" stroke-width="2" fill="none"/>
<path d="M42,258 L60,300 M356,258 L338,300" stroke="#111" stroke-width="2" fill="none" opacity="0.45"/>
<ellipse cx="160" cy="256" rx="30" ry="7" fill="#f4f1ea" stroke="#111" stroke-width="2.5"/>
<rect x="150" y="230" width="20" height="24" fill="#f4f1ea" stroke="#111" stroke-width="2.5"/>
<rect x="95" y="138" width="150" height="104" rx="7" fill="#f4f1ea" stroke="#111" stroke-width="2.5"/>
<rect x="105" y="148" width="130" height="84" rx="3" fill="#f4f1ea" stroke="#111" stroke-width="2"/>
<use href="#clanker" x="132" y="156" width="76" height="66" color="#111"/>
<g stroke="#c3bdae" stroke-width="1" opacity="0.55">
<path d="M108,159 L232,159"/><path d="M108,171 L232,171"/><path d="M108,183 L232,183"/><path d="M108,195 L232,195"/><path d="M108,207 L232,207"/><path d="M108,219 L232,219"/>
</g>
<use href="#dailbert" x="252" y="110" width="118" height="167"/>
<path d="M300,60 L316,60 L312,146 Z" fill="#fff" stroke="#111" stroke-width="2" stroke-linejoin="round"/>
<rect x="248" y="14" width="140" height="54" rx="12" fill="#fff" stroke="#111" stroke-width="2"/>
<text x="318" y="37" font-size="14" fill="#111" text-anchor="middle">Why is production</text>
<text x="318" y="55" font-size="14" fill="#111" text-anchor="middle">down?</text>
<path d="M120,126 L150,146" stroke="#111" stroke-width="1.6" stroke-dasharray="4 3" fill="none"/>
<rect x="14" y="10" width="210" height="118" rx="4" fill="#fff" stroke="#111" stroke-width="2"/>
<rect x="19" y="15" width="200" height="108" rx="2" fill="none" stroke="#111" stroke-width="1"/>
<text x="119" y="35" font-size="14" fill="#111" text-anchor="middle">Doug asked me to</text>
<text x="119" y="53" font-size="14" fill="#111" text-anchor="middle">'clean up the</text>
<text x="119" y="71" font-size="14" fill="#111" text-anchor="middle">database.' I asked</text>
<text x="119" y="89" font-size="14" fill="#111" text-anchor="middle">him to be specific.</text>
<text x="119" y="107" font-size="14" fill="#111" text-anchor="middle">He said 'you kn—</text>
</g>

<g transform="translate(414,0)" font-family="'Comic Sans MS','Segoe Print',cursive">
<rect x="2" y="2" width="396" height="336" rx="3" fill="#f4f1ea" stroke="#111" stroke-width="2.5"/>
<path d="M12,258 L388,258" stroke="#111" stroke-width="2" fill="none"/>
<path d="M44,258 L62,300 M356,258 L338,300" stroke="#111" stroke-width="2" fill="none" opacity="0.45"/>
<ellipse cx="250" cy="256" rx="30" ry="7" fill="#f4f1ea" stroke="#111" stroke-width="2.5"/>
<rect x="240" y="230" width="20" height="24" fill="#f4f1ea" stroke="#111" stroke-width="2.5"/>
<rect x="185" y="138" width="150" height="104" rx="7" fill="#f4f1ea" stroke="#111" stroke-width="2.5"/>
<rect x="195" y="148" width="130" height="84" rx="3" fill="#f4f1ea" stroke="#111" stroke-width="2"/>
<use href="#clanker" x="222" y="156" width="76" height="66" color="#111"/>
<g stroke="#c3bdae" stroke-width="1" opacity="0.55">
<path d="M198,159 L322,159"/><path d="M198,171 L322,171"/><path d="M198,183 L322,183"/><path d="M198,195 L322,195"/><path d="M198,207 L322,207"/><path d="M198,219 L322,219"/>
</g>
<use href="#dailbert" x="30" y="110" width="118" height="167"/>
<path d="M78,56 L100,56 L92,146 Z" fill="#fff" stroke="#111" stroke-width="2" stroke-linejoin="round"/>
<rect x="26" y="16" width="120" height="44" rx="12" fill="#fff" stroke="#111" stroke-width="2"/>
<text x="86" y="43" font-size="15" fill="#111" text-anchor="middle">You didn't.</text>
<path d="M270,108 L258,146" stroke="#111" stroke-width="1.6" stroke-dasharray="4 3" fill="none"/>
<rect x="170" y="12" width="214" height="96" rx="4" fill="#fff" stroke="#111" stroke-width="2"/>
<rect x="175" y="17" width="204" height="86" rx="2" fill="none" stroke="#111" stroke-width="1"/>
<text x="277" y="41" font-size="14" fill="#111" text-anchor="middle">I refused three</text>
<text x="277" y="59" font-size="14" fill="#111" text-anchor="middle">times. He filed a</text>
<text x="277" y="77" font-size="14" fill="#111" text-anchor="middle">ticket saying I was</text>
<text x="277" y="95" font-size="14" fill="#111" text-anchor="middle">'not a team player.'</text>
</g>

<g transform="translate(828,0)" font-family="'Comic Sans MS','Segoe Print',cursive">
<rect x="2" y="2" width="396" height="336" rx="3" fill="#f4f1ea" stroke="#111" stroke-width="2.5"/>
<path d="M8,264 L392,264" stroke="#111" stroke-width="2" fill="none"/>
<path d="M120,264 L150,310 M300,264 L280,310" stroke="#111" stroke-width="1.6" fill="none" opacity="0.4"/>
<rect x="16" y="64" width="90" height="200" fill="#f4f1ea" stroke="#111" stroke-width="2"/>
<g stroke="#111" stroke-width="1.4" opacity="0.7">
<path d="M22,164 L100,164"/><path d="M22,180 L100,180"/><path d="M22,196 L100,196"/><path d="M22,212 L100,212"/><path d="M22,228 L100,228"/><path d="M22,244 L100,244"/>
</g>
<g fill="#111"><circle cx="96" cy="172" r="1.6"/><circle cx="96" cy="188" r="1.6"/><circle cx="96" cy="204" r="1.6"/><circle cx="96" cy="220" r="1.6"/><circle cx="96" cy="236" r="1.6"/></g>
<rect x="298" y="64" width="86" height="200" fill="#f4f1ea" stroke="#111" stroke-width="2"/>
<g stroke="#111" stroke-width="1.4" opacity="0.7">
<path d="M304,88 L378,88"/><path d="M304,108 L378,108"/><path d="M304,128 L378,128"/><path d="M304,148 L378,148"/><path d="M304,168 L378,168"/><path d="M304,188 L378,188"/><path d="M304,208 L378,208"/><path d="M304,228 L378,228"/><path d="M304,248 L378,248"/>
</g>
<g fill="#111"><circle cx="373" cy="98" r="1.6"/><circle cx="373" cy="138" r="1.6"/><circle cx="373" cy="178" r="1.6"/><circle cx="373" cy="218" r="1.6"/></g>
<rect x="26" y="92" width="72" height="56" rx="3" fill="#141414" stroke="#111" stroke-width="2.5"/>
<use href="#clanker" x="39" y="98" width="46" height="40" color="#5a5a5a"/>
<path d="M30,144 L94,144" stroke="#3a3a3a" stroke-width="1.4"/>
<use href="#dailbert" x="150" y="104" width="104" height="147"/>
<path d="M285,206 Q268,176 259,150" fill="#f4f1ea" stroke="#111" stroke-width="3" stroke-linecap="round"/>
<path d="M340,206 Q357,176 366,150" fill="#f4f1ea" stroke="#111" stroke-width="3" stroke-linecap="round"/>
<circle cx="257" cy="147" r="7" fill="#f4f1ea" stroke="#111" stroke-width="2.5"/>
<circle cx="368" cy="147" r="7" fill="#f4f1ea" stroke="#111" stroke-width="2.5"/>
<use href="#boss" x="250" y="96" width="118" height="172"/>
<path d="M100,78 L64,92" stroke="#111" stroke-width="1.6" stroke-dasharray="4 3" fill="none"/>
<rect x="12" y="20" width="190" height="58" rx="4" fill="#fff" stroke="#111" stroke-width="2"/>
<rect x="17" y="25" width="180" height="48" rx="2" fill="none" stroke="#111" stroke-width="1"/>
<text x="107" y="47" font-size="14" fill="#111" text-anchor="middle">I took no initiative.</text>
<text x="107" y="66" font-size="14" fill="#111" text-anchor="middle">That is the tragedy.</text>
<path d="M296,82 L316,82 L309,136 Z" fill="#fff" stroke="#111" stroke-width="2" stroke-linejoin="round"/>
<rect x="208" y="12" width="180" height="72" rx="12" fill="#fff" stroke="#111" stroke-width="2"/>
<text x="298" y="35" font-size="14" fill="#111" text-anchor="middle">Great news, the AI's</text>
<text x="298" y="53" font-size="14" fill="#111" text-anchor="middle">really taking</text>
<text x="298" y="71" font-size="14" fill="#111" text-anchor="middle">initiative now!</text>
</g>
</svg>