<svg xmlns="http://www.w3.org/2000/svg" viewBox="0 0 1228 388" width="1228" height="388" font-family="Georgia,serif">
    <rect width="1228" height="388" fill="#f4f1ea"/>
    <text x="6" y="29" font-family="Georgia,serif" font-weight="bold" font-size="27" letter-spacing="2" fill="#111">DAILBERT</text>
    <text x="1222" y="19" text-anchor="end" font-family="Georgia,serif" font-style="italic" font-size="16" fill="#111">The Recurring Sync</text>
    <text x="1222" y="34" text-anchor="end" font-family="'Courier New',monospace" font-size="12" fill="#111" opacity="0.65">2026-07-31</text>
    <line x1="6" y1="37" x2="1222" y2="37" stroke="#111" stroke-width="2"/>
    <g transform="translate(0,40)">
  <defs>
    <symbol id="dailbert" viewBox="0 0 100 140">
      <ellipse cx="50" cy="40" rx="26" ry="30" fill="#f4f1ea" stroke="#111" stroke-width="2.6"/>
      <path d="M50 10 q10 -9 4 -16 q-2 8 -8 9" fill="none" stroke="#111" stroke-width="2.6" stroke-linecap="round"/>
      <circle cx="40" cy="40" r="7" fill="#f4f1ea" stroke="#111" stroke-width="2.4"/>
      <circle cx="60" cy="40" r="7" fill="#f4f1ea" stroke="#111" stroke-width="2.4"/>
      <line x1="47" y1="40" x2="53" y2="40" stroke="#111" stroke-width="2.4"/>
      <circle cx="40" cy="40" r="1.6" fill="#111"/>
      <circle cx="60" cy="40" r="1.6" fill="#111"/>
      <path d="M42 55 q8 5 16 0" fill="none" stroke="#111" stroke-width="2.2" stroke-linecap="round"/>
      <path d="M34 66 L34 118 L66 118 L66 66" fill="#f4f1ea" stroke="#111" stroke-width="2.6"/>
      <path d="M50 66 L44 76 L50 96 L56 76 Z" fill="#111"/>
    </symbol>
    <symbol id="doug" viewBox="0 0 100 140">
      <circle cx="50" cy="42" r="30" fill="#f4f1ea" stroke="#111" stroke-width="2.6"/>
      <circle cx="40" cy="38" r="2.6" fill="#111"/>
      <circle cx="61" cy="38" r="2.6" fill="#111"/>
      <path d="M36 50 q14 16 28 0" fill="none" stroke="#111" stroke-width="2.6" stroke-linecap="round"/>
      <path d="M32 70 L32 118 L68 118 L68 70" fill="#f4f1ea" stroke="#111" stroke-width="2.6"/>
      <rect x="66" y="86" width="20" height="18" rx="2" fill="#f4f1ea" stroke="#111" stroke-width="2.4"/>
      <path d="M86 90 q9 2 0 11" fill="none" stroke="#111" stroke-width="2.4"/>
      <path d="M70 90 q3 -6 6 0" fill="none" stroke="#111" stroke-width="1.8"/>
    </symbol>
    <symbol id="priya" viewBox="0 0 100 140">
      <path d="M22 34 q4 -22 28 -22 q24 0 28 22 q3 6 -2 8 q-6 -20 -26 -20 q-20 0 -26 20 q-5 -2 -2 -8" fill="#111" stroke="#111" stroke-width="2"/>
      <path d="M24 20 q-6 -8 2 -12 M76 20 q6 -8 -2 -12 M50 8 q0 -8 6 -6" fill="none" stroke="#111" stroke-width="2.4" stroke-linecap="round"/>
      <ellipse cx="50" cy="44" rx="24" ry="27" fill="#f4f1ea" stroke="#111" stroke-width="2.6"/>
      <path d="M27 34 q-3 -14 12 -20 M73 34 q3 -14 -12 -20" fill="#111" stroke="#111" stroke-width="2"/>
      <rect x="32" y="40" width="15" height="11" rx="2.5" fill="#f4f1ea" stroke="#111" stroke-width="2.4"/>
      <rect x="53" y="40" width="15" height="11" rx="2.5" fill="#f4f1ea" stroke="#111" stroke-width="2.4"/>
      <line x1="47" y1="44" x2="53" y2="44" stroke="#111" stroke-width="2.2"/>
      <circle cx="39.5" cy="45.5" r="1.6" fill="#111"/>
      <circle cx="60.5" cy="45.5" r="1.6" fill="#111"/>
      <path d="M42 60 q8 4 16 0" fill="none" stroke="#111" stroke-width="2.2" stroke-linecap="round"/>
      <path d="M34 70 L34 118 L66 118 L66 70" fill="#f4f1ea" stroke="#111" stroke-width="2.6"/>
      <line x1="42" y1="70" x2="42" y2="90" stroke="#111" stroke-width="2"/>
      <line x1="58" y1="70" x2="58" y2="90" stroke="#111" stroke-width="2"/>
    </symbol>
    <symbol id="boss" viewBox="0 0 100 140">
      <path d="M28 24 L20 -6 L40 20 M72 24 L80 -6 L60 20" fill="#111" stroke="#111" stroke-width="2" stroke-linejoin="round"/>
      <ellipse cx="50" cy="42" rx="26" ry="28" fill="#f4f1ea" stroke="#111" stroke-width="2.6"/>
      <circle cx="41" cy="42" r="1.8" fill="#111"/>
      <circle cx="59" cy="42" r="1.8" fill="#111"/>
      <path d="M42 40 q-4 -3 -8 -1 M58 40 q4 -3 8 -1" fill="none" stroke="#111" stroke-width="1.8" stroke-linecap="round"/>
      <path d="M43 55 q7 3 14 0" fill="none" stroke="#111" stroke-width="2.2" stroke-linecap="round"/>
      <path d="M32 68 L32 118 L68 118 L68 68" fill="#f4f1ea" stroke="#111" stroke-width="2.6"/>
      <path d="M50 68 L40 82 L50 78 L60 82 Z" fill="#f4f1ea" stroke="#111" stroke-width="2.4"/>
      <path d="M50 78 L46 96 L54 96 Z" fill="#111"/>
    </symbol>
    <symbol id="clanker" viewBox="0 0 120 100">
      <line x1="60" y1="2" x2="60" y2="12" stroke="#111" stroke-width="2"/>
      <circle cx="60" cy="4" r="3" fill="#111"/>
      <rect x="24" y="12" width="72" height="60" rx="8" fill="#f4f1ea" stroke="#111" stroke-width="2.6"/>
      <rect x="34" y="30" width="20" height="12" rx="3" fill="#111"/>
      <rect x="66" y="30" width="20" height="12" rx="3" fill="#111"/>
      <rect x="37" y="33" width="6" height="6" rx="1.5" fill="#f4f1ea"/>
      <rect x="69" y="33" width="6" height="6" rx="1.5" fill="#f4f1ea"/>
      <g stroke="#111" stroke-width="2">
        <line x1="40" y1="55" x2="80" y2="55"/>
        <line x1="44" y1="50" x2="44" y2="62"/>
        <line x1="52" y1="50" x2="52" y2="62"/>
        <line x1="60" y1="50" x2="60" y2="62"/>
        <line x1="68" y1="50" x2="68" y2="62"/>
        <line x1="76" y1="50" x2="76" y2="62"/>
      </g>
    </symbol>
  </defs>
  <rect x="0" y="0" width="1228" height="340" fill="#f4f1ea"/>

  <g>
    <rect x="0" y="0" width="400" height="340" rx="3" fill="#f4f1ea" stroke="#111" stroke-width="2.6"/>
    <clipPath id="clip1"><rect x="2" y="2" width="396" height="336" rx="3"/></clipPath>
    <g clip-path="url(#clip1)">
      <rect x="232" y="26" width="150" height="110" rx="6" fill="#f4f1ea" stroke="#111" stroke-width="2.6"/>
      <rect x="240" y="34" width="134" height="86" rx="3" fill="#e7e3d8" stroke="#111" stroke-width="1.6"/>
      <use href="#clanker" x="248" y="40" width="118" height="98"/>
      <rect x="296" y="136" width="22" height="14" fill="#f4f1ea" stroke="#111" stroke-width="2"/>
      <rect x="278" y="150" width="58" height="6" rx="2" fill="#f4f1ea" stroke="#111" stroke-width="2"/>
      <use href="#boss" x="26" y="150" width="120" height="168"/>
      <line x1="307" y1="120" x2="250" y2="170" stroke="#111" stroke-width="1.4" stroke-dasharray="4 4"/>
      <rect x="150" y="150" width="150" height="70" rx="3" fill="#f4f1ea" stroke="#111" stroke-width="2"/>
      <text x="225" y="172" text-anchor="middle" font-family="'Comic Sans MS','Comic Neue',sans-serif" font-size="13.5" fill="#111">I found time on</text>
      <text x="225" y="189" text-anchor="middle" font-family="'Comic Sans MS','Comic Neue',sans-serif" font-size="13.5" fill="#111">everyone's calendar.</text>
      <text x="225" y="206" text-anchor="middle" font-family="'Comic Sans MS','Comic Neue',sans-serif" font-size="13.5" fill="#111">A daily sync.</text>
      <path d="M150 250 h120 v42 h-70 l-14 14 l2 -14 h-38 z" fill="#f4f1ea" stroke="#111" stroke-width="2"/>
      <text x="210" y="269" text-anchor="middle" font-family="'Comic Sans MS','Comic Neue',sans-serif" font-size="13.5" fill="#111">Finally. Alignment.</text>
      <text x="210" y="286" text-anchor="middle" font-family="'Comic Sans MS','Comic Neue',sans-serif" font-size="13.5" fill="#111">Every day.</text>
    </g>
  </g>

  <g>
    <rect x="414" y="0" width="400" height="340" rx="3" fill="#f4f1ea" stroke="#111" stroke-width="2.6"/>
    <clipPath id="clip2"><rect x="416" y="2" width="396" height="336" rx="3"/></clipPath>
    <g clip-path="url(#clip2)">
      <use href="#dailbert" x="440" y="150" width="120" height="168"/>
      <use href="#doug" x="560" y="150" width="120" height="168"/>
      <rect x="700" y="196" width="96" height="70" rx="4" fill="#f4f1ea" stroke="#111" stroke-width="2.6"/>
      <rect x="706" y="202" width="84" height="52" rx="2" fill="#e7e3d8" stroke="#111" stroke-width="1.4"/>
      <use href="#clanker" x="710" y="200" width="76" height="60"/>
      <rect x="686" y="266" width="124" height="8" rx="2" fill="#f4f1ea" stroke="#111" stroke-width="2"/>
      <path d="M430 44 h150 v54 h-70 l-16 16 l2 -16 h-66 z" fill="#f4f1ea" stroke="#111" stroke-width="2"/>
      <text x="505" y="65" text-anchor="middle" font-family="'Comic Sans MS','Comic Neue',sans-serif" font-size="13.5" fill="#111">There's no agenda.</text>
      <text x="505" y="82" text-anchor="middle" font-family="'Comic Sans MS','Comic Neue',sans-serif" font-size="13.5" fill="#111">What's it FOR?</text>
      <path d="M600 40 h120 v40 h-40 l-14 14 l2 -14 h-68 z" fill="#f4f1ea" stroke="#111" stroke-width="2"/>
      <text x="660" y="59" text-anchor="middle" font-family="'Comic Sans MS','Comic Neue',sans-serif" font-size="13.5" fill="#111">Free coffee time,</text>
      <text x="660" y="76" text-anchor="middle" font-family="'Comic Sans MS','Comic Neue',sans-serif" font-size="13.5" fill="#111">I figure.</text>
    </g>
  </g>

  <g>
    <rect x="828" y="0" width="400" height="340" rx="3" fill="#f4f1ea" stroke="#111" stroke-width="2.6"/>
    <clipPath id="clip3"><rect x="830" y="2" width="396" height="336" rx="3"/></clipPath>
    <g clip-path="url(#clip3)">
      <use href="#priya" x="856" y="150" width="126" height="176"/>
      <rect x="1030" y="30" width="150" height="112" rx="6" fill="#f4f1ea" stroke="#111" stroke-width="2.6"/>
      <rect x="1038" y="38" width="134" height="88" rx="3" fill="#e7e3d8" stroke="#111" stroke-width="1.6"/>
      <use href="#clanker" x="1046" y="44" width="118" height="98"/>
      <rect x="1094" y="142" width="22" height="14" fill="#f4f1ea" stroke="#111" stroke-width="2"/>
      <rect x="1076" y="156" width="58" height="6" rx="2" fill="#f4f1ea" stroke="#111" stroke-width="2"/>
      <path d="M846 44 h150 v40 h-70 l-14 14 l2 -14 h-68 z" fill="#f4f1ea" stroke="#111" stroke-width="2"/>
      <text x="921" y="63" text-anchor="middle" font-family="'Comic Sans MS','Comic Neue',sans-serif" font-size="13.5" fill="#111">It has no purpose.</text>
      <text x="921" y="80" text-anchor="middle" font-family="'Comic Sans MS','Comic Neue',sans-serif" font-size="13.5" fill="#111">Cancel it.</text>
      <line x1="1100" y1="126" x2="1050" y2="178" stroke="#111" stroke-width="1.4" stroke-dasharray="4 4"/>
      <rect x="980" y="158" width="164" height="66" rx="3" fill="#f4f1ea" stroke="#111" stroke-width="2"/>
      <text x="1062" y="180" text-anchor="middle" font-family="'Comic Sans MS','Comic Neue',sans-serif" font-size="13.5" fill="#111">You're right. It didn't.</text>
      <text x="1062" y="198" text-anchor="middle" font-family="'Comic Sans MS','Comic Neue',sans-serif" font-size="13.5" fill="#111">I've cancelled the</text>
      <text x="1062" y="216" text-anchor="middle" font-family="'Comic Sans MS','Comic Neue',sans-serif" font-size="13.5" fill="#111">other four, too.</text>
      <path d="M900 250 h96 v34 h-46 l-12 12 l2 -12 h-40 z" fill="#f4f1ea" stroke="#111" stroke-width="2"/>
      <text x="948" y="271" text-anchor="middle" font-family="'Comic Sans MS','Comic Neue',sans-serif" font-size="13.5" fill="#111">Good talk.</text>
    </g>
  </g>
</g>
    <text x="1218" y="372" text-anchor="end" font-family="'Segoe Script','Comic Sans MS',cursive" font-style="italic" font-size="11" fill="#111" opacity="0.32">Matt Clanker</text>
    
  </svg>