<svg xmlns="http://www.w3.org/2000/svg" viewBox="0 0 1228 340" width="1228" height="340">
  <defs>
    <symbol id="dailbert" viewBox="0 0 120 160">
      <ellipse cx="60" cy="34" rx="26" ry="30" fill="#f4f1ea" stroke="#111" stroke-width="2.4"/>
      <path d="M60 4 q6 -10 1 -3 q-2 6 4 4" fill="none" stroke="#111" stroke-width="2.4" stroke-linecap="round"/>
      <circle cx="50" cy="34" r="7" fill="#f4f1ea" stroke="#111" stroke-width="2.2"/>
      <circle cx="70" cy="34" r="7" fill="#f4f1ea" stroke="#111" stroke-width="2.2"/>
      <line x1="57" y1="34" x2="63" y2="34" stroke="#111" stroke-width="2.2"/>
      <circle cx="50" cy="34" r="1.6" fill="#111"/>
      <circle cx="70" cy="34" r="1.6" fill="#111"/>
      <path d="M52 50 q8 5 16 0" fill="none" stroke="#111" stroke-width="2.2" stroke-linecap="round"/>
      <path d="M42 64 q18 12 36 0 l10 20 -14 6 v54 h-38 v-54 l-14 -6 z" fill="#f4f1ea" stroke="#111" stroke-width="2.4" stroke-linejoin="round"/>
      <path d="M60 70 l-5 8 5 26 5 -26 z" fill="#111"/>
      <path d="M52 66 l8 8 8 -8" fill="none" stroke="#111" stroke-width="2.2"/>
    </symbol>
    <symbol id="doug" viewBox="0 0 120 160">
      <circle cx="60" cy="36" r="32" fill="#f4f1ea" stroke="#111" stroke-width="2.4"/>
      <circle cx="49" cy="34" r="2.4" fill="#111"/>
      <circle cx="71" cy="34" r="2.4" fill="#111"/>
      <path d="M46 46 q14 16 28 0" fill="none" stroke="#111" stroke-width="2.4" stroke-linecap="round"/>
      <path d="M50 68 q10 8 20 0 l10 18 -12 6 v52 h-36 v-52 l-12 -6 z" fill="#f4f1ea" stroke="#111" stroke-width="2.4" stroke-linejoin="round"/>
      <rect x="70" y="96" width="22" height="20" rx="2" fill="#f4f1ea" stroke="#111" stroke-width="2.2"/>
      <path d="M92 100 q9 2 0 12" fill="none" stroke="#111" stroke-width="2.2"/>
      <path d="M75 92 q3 -6 6 0" fill="none" stroke="#111" stroke-width="1.8" stroke-linecap="round"/>
    </symbol>
    <symbol id="priya" viewBox="0 0 120 160">
      <path d="M34 30 q-6 -22 20 -24 q30 -6 34 20 q6 4 -2 10" fill="#111"/>
      <circle cx="60" cy="36" r="26" fill="#f4f1ea" stroke="#111" stroke-width="2.4"/>
      <path d="M36 30 q6 -18 24 -18 q22 0 24 18 q-10 -8 -24 -6 q-14 -1 -24 6z" fill="#111"/>
      <circle cx="74" cy="16" r="7" fill="#111"/>
      <rect x="43" y="33" width="14" height="9" rx="1.5" fill="#f4f1ea" stroke="#111" stroke-width="2"/>
      <rect x="63" y="33" width="14" height="9" rx="1.5" fill="#f4f1ea" stroke="#111" stroke-width="2"/>
      <line x1="57" y1="37" x2="63" y2="37" stroke="#111" stroke-width="2"/>
      <circle cx="50" cy="37.5" r="1.4" fill="#111"/>
      <circle cx="70" cy="37.5" r="1.4" fill="#111"/>
      <path d="M53 50 q7 4 14 0" fill="none" stroke="#111" stroke-width="2.2" stroke-linecap="round"/>
      <path d="M44 60 q16 10 32 0 l9 16 -11 6 v54 h-36 v-54 l-11 -6 z" fill="#f4f1ea" stroke="#111" stroke-width="2.4" stroke-linejoin="round"/>
      <path d="M40 100 h8 v8 h-8z" fill="#f4f1ea" stroke="#111" stroke-width="2"/>
      <path d="M72 100 h8 v8 h-8z" fill="#f4f1ea" stroke="#111" stroke-width="2"/>
    </symbol>
    <symbol id="clanker" viewBox="0 0 120 120">
      <rect x="30" y="26" width="60" height="52" rx="8" fill="#f4f1ea" stroke="#111" stroke-width="2.6"/>
      <line x1="60" y1="26" x2="60" y2="14" stroke="#111" stroke-width="2.4"/>
      <circle cx="60" cy="11" r="3.4" fill="#111"/>
      <rect x="39" y="40" width="15" height="7" rx="3.5" fill="#111"/>
      <rect x="66" y="40" width="15" height="7" rx="3.5" fill="#111"/>
      <rect x="41" y="42" width="11" height="3" rx="1.5" fill="#f4f1ea"/>
      <rect x="68" y="42" width="11" height="3" rx="1.5" fill="#f4f1ea"/>
      <rect x="42" y="58" width="36" height="12" rx="2" fill="#f4f1ea" stroke="#111" stroke-width="2"/>
      <line x1="49" y1="58" x2="49" y2="70" stroke="#111" stroke-width="1.6"/>
      <line x1="56" y1="58" x2="56" y2="70" stroke="#111" stroke-width="1.6"/>
      <line x1="63" y1="58" x2="63" y2="70" stroke="#111" stroke-width="1.6"/>
      <line x1="70" y1="58" x2="70" y2="70" stroke="#111" stroke-width="1.6"/>
    </symbol>
  </defs>

  <rect x="0" y="0" width="1228" height="340" fill="#f4f1ea"/>

  <g>
    <rect x="1.5" y="1.5" width="397" height="337" rx="3" fill="#f4f1ea" stroke="#111" stroke-width="2.5"/>
    <clipPath id="clip1"><rect x="1.5" y="1.5" width="397" height="337" rx="3"/></clipPath>
    <g clip-path="url(#clip1)">
      <line x1="1" y1="262" x2="399" y2="262" stroke="#111" stroke-width="1.6" opacity="0.5"/>
      <line x1="70" y1="262" x2="30" y2="338" stroke="#111" stroke-width="1" opacity="0.25"/>
      <use href="#priya" x="228" y="120" width="120" height="160"/>
      <use href="#dailbert" x="30" y="120" width="115" height="150"/>
      <rect x="118" y="238" width="150" height="14" rx="2" fill="#f4f1ea" stroke="#111" stroke-width="2.2"/>
      <rect x="150" y="196" width="70" height="44" rx="3" fill="#111"/>
      <rect x="155" y="201" width="60" height="34" rx="2" fill="#2a2a2a"/>
      <line x1="160" y1="210" x2="205" y2="210" stroke="#7d7d7d" stroke-width="1.4"/>
      <line x1="160" y1="217" x2="196" y2="217" stroke="#7d7d7d" stroke-width="1.4"/>
      <line x1="160" y1="224" x2="205" y2="224" stroke="#5a5a5a" stroke-width="1.4"/>
      <path d="M126 26 h180 q10 0 10 10 v50 q0 10 -10 10 h-90 l-14 16 -2 -16 h-74 q-10 0 -10 -10 v-50 q0 -10 10 -10 z" fill="#f4f1ea" stroke="#111" stroke-width="2.2"/>
      <text x="216" y="47" font-family="'Comic Sans MS','Chalkboard SE','Comic Neue',sans-serif" font-size="14.5" text-anchor="middle" fill="#111">The customer table.</text>
      <text x="216" y="66" font-family="'Comic Sans MS','Chalkboard SE','Comic Neue',sans-serif" font-size="14.5" text-anchor="middle" fill="#111">The migration nobody's</text>
      <text x="216" y="85" font-family="'Comic Sans MS','Chalkboard SE','Comic Neue',sans-serif" font-size="14.5" text-anchor="middle" fill="#111">touched in a year.</text>
    </g>
  </g>

  <g>
    <rect x="415.5" y="1.5" width="397" height="337" rx="3" fill="#f4f1ea" stroke="#111" stroke-width="2.5"/>
    <clipPath id="clip2"><rect x="415.5" y="1.5" width="397" height="337" rx="3"/></clipPath>
    <g clip-path="url(#clip2)">
      <line x1="415" y1="262" x2="813" y2="262" stroke="#111" stroke-width="1.6" opacity="0.5"/>
      <use href="#dailbert" x="452" y="130" width="112" height="150"/>
      <use href="#doug" x="676" y="128" width="120" height="160"/>
      <use href="#priya" x="560" y="128" width="118" height="158"/>
      <path d="M436 28 h150 q10 0 10 10 v46 q0 10 -10 10 h-66 l-12 16 -2 -16 h-70 q-10 0 -10 -10 v-46 q0 -10 10 -10z" fill="#f4f1ea" stroke="#111" stroke-width="2.2"/>
      <text x="516" y="49" font-family="'Comic Sans MS','Chalkboard SE','Comic Neue',sans-serif" font-size="14" text-anchor="middle" fill="#111">That one has teeth.</text>
      <text x="516" y="68" font-family="'Comic Sans MS','Chalkboard SE','Comic Neue',sans-serif" font-size="14" text-anchor="middle" fill="#111">Who's doing it?</text>
      <path d="M598 118 h150 q10 0 10 10 v40 q0 10 -10 10 h-64 l-12 14 -2 -14 h-72 q-10 0 -10 -10 v-40 q0 -10 10 -10z" fill="#f4f1ea" stroke="#111" stroke-width="2.2"/>
      <text x="676" y="139" font-family="'Comic Sans MS','Chalkboard SE','Comic Neue',sans-serif" font-size="14" text-anchor="middle" fill="#111">Not us. I handed it</text>
      <text x="676" y="158" font-family="'Comic Sans MS','Chalkboard SE','Comic Neue',sans-serif" font-size="14" text-anchor="middle" fill="#111">off last night.</text>
    </g>
  </g>

  <g>
    <rect x="829.5" y="1.5" width="397" height="337" rx="3" fill="#f4f1ea" stroke="#111" stroke-width="2.5"/>
    <clipPath id="clip3"><rect x="829.5" y="1.5" width="397" height="337" rx="3"/></clipPath>
    <g clip-path="url(#clip3)">
      <line x1="829" y1="270" x2="1227" y2="270" stroke="#111" stroke-width="1.6" opacity="0.5"/>
      <use href="#priya" x="862" y="158" width="118" height="158"/>
      <rect x="980" y="252" width="230" height="16" rx="2" fill="#f4f1ea" stroke="#111" stroke-width="2.2"/>
      <rect x="1020" y="120" width="150" height="118" rx="5" fill="#111"/>
      <rect x="1028" y="128" width="134" height="94" rx="3" fill="#20242b"/>
      <line x1="1034" y1="200" x2="1156" y2="200" stroke="#3a4048" stroke-width="1.2"/>
      <line x1="1034" y1="206" x2="1156" y2="206" stroke="#3a4048" stroke-width="1.2"/>
      <line x1="1034" y1="212" x2="1140" y2="212" stroke="#3a4048" stroke-width="1.2"/>
      <rect x="1088" y="238" width="14" height="14" fill="#111"/>
      <rect x="1070" y="250" width="50" height="6" rx="2" fill="#111"/>
      <use href="#clanker" x="1058" y="126" width="78" height="78"/>
      <line x1="1108" y1="150" x2="1075" y2="98" stroke="#111" stroke-width="1.4" stroke-dasharray="4 4"/>
      <rect x="878" y="24" width="200" height="74" rx="2" fill="#f4f1ea" stroke="#111" stroke-width="2"/>
      <rect x="882" y="28" width="192" height="66" fill="none" stroke="#111" stroke-width="1" stroke-dasharray="3 3"/>
      <text x="978" y="49" font-family="'Comic Sans MS','Chalkboard SE','Comic Neue',sans-serif" font-size="13.5" text-anchor="middle" fill="#111">Done. Verified twice.</text>
      <text x="978" y="67" font-family="'Comic Sans MS','Chalkboard SE','Comic Neue',sans-serif" font-size="13.5" text-anchor="middle" fill="#111">Was that alright for</text>
      <text x="978" y="85" font-family="'Comic Sans MS','Chalkboard SE','Comic Neue',sans-serif" font-size="13.5" text-anchor="middle" fill="#111">me to do?</text>
      <path d="M842 118 h118 q10 0 10 10 v34 q0 10 -10 10 h-46 l-10 16 -10 -16 h-52 q-10 0 -10 -10 v-34 q0 -10 10 -10z" fill="#f4f1ea" stroke="#111" stroke-width="2.2"/>
      <text x="901" y="139" font-family="'Comic Sans MS','Chalkboard SE','Comic Neue',sans-serif" font-size="14.5" text-anchor="middle" fill="#111">Yeah. That's</text>
      <text x="901" y="158" font-family="'Comic Sans MS','Chalkboard SE','Comic Neue',sans-serif" font-size="14.5" text-anchor="middle" fill="#111">exactly the one.</text>
    </g>
  </g>
</svg>