<svg xmlns="http://www.w3.org/2000/svg" viewBox="0 0 1228 388" width="1228" height="388" font-family="Georgia,serif">
    <rect width="1228" height="388" fill="#f4f1ea"/>
    <text x="6" y="29" font-family="Georgia,serif" font-weight="bold" font-size="27" letter-spacing="2" fill="#111">DAILBERT</text>
    <text x="1222" y="19" text-anchor="end" font-family="Georgia,serif" font-style="italic" font-size="16" fill="#111">No Notes</text>
    <text x="1222" y="34" text-anchor="end" font-family="'Courier New',monospace" font-size="12" fill="#111" opacity="0.65">2026-04-06</text>
    <line x1="6" y1="37" x2="1222" y2="37" stroke="#111" stroke-width="2"/>
    <g transform="translate(0,40)">
  <defs>
    <!-- DAILBERT -->
    <symbol id="dailbert" overflow="visible">
      <path d="M -44 62 Q -44 30 0 30 Q 44 30 44 62 L 44 80 L -44 80 Z" fill="#f4f1ea" stroke="#111" stroke-width="2.4" stroke-linejoin="round"/>
      <path d="M -4 42 L -7 52 L 0 74 L 7 52 L 4 42 Z" fill="#111"/>
      <ellipse cx="0" cy="0" rx="24" ry="30" fill="#f4f1ea" stroke="#111" stroke-width="2.4"/>
      <path d="M -3 -30 q -9 -9 2 -13 q 9 -1 4 7" fill="none" stroke="#111" stroke-width="2.2" stroke-linecap="round"/>
      <circle cx="-10" cy="2" r="8.5" fill="#fff" stroke="#111" stroke-width="2.2"/>
      <circle cx="10" cy="2" r="8.5" fill="#fff" stroke="#111" stroke-width="2.2"/>
      <line x1="-1.5" y1="2" x2="1.5" y2="2" stroke="#111" stroke-width="2.2"/>
      <line x1="18" y1="1" x2="24" y2="-1" stroke="#111" stroke-width="2.2" stroke-linecap="round"/>
      <circle cx="-10" cy="2" r="2.1" fill="#111"/>
      <circle cx="10" cy="2" r="2.1" fill="#111"/>
      <path d="M -8 18 Q 0 21 8 18" fill="none" stroke="#111" stroke-width="2" stroke-linecap="round"/>
    </symbol>
    <!-- DOUG -->
    <symbol id="doug" overflow="visible">
      <path d="M -46 64 Q -46 32 0 32 Q 46 32 46 64 L 46 82 L -46 82 Z" fill="#f4f1ea" stroke="#111" stroke-width="2.4" stroke-linejoin="round"/>
      <ellipse cx="0" cy="0" rx="26" ry="27" fill="#f4f1ea" stroke="#111" stroke-width="2.4"/>
      <path d="M -18 -22 q 6 -6 12 -2 q 6 -5 12 0 q 6 -3 10 3" fill="none" stroke="#111" stroke-width="2.2" stroke-linecap="round"/>
      <circle cx="-9" cy="-3" r="2.6" fill="#111"/>
      <circle cx="9" cy="-3" r="2.6" fill="#111"/>
      <path d="M -13 8 Q 0 24 13 8" fill="none" stroke="#111" stroke-width="2.4" stroke-linecap="round"/>
      <g>
        <rect x="26" y="44" width="26" height="22" rx="3" fill="#fff" stroke="#111" stroke-width="2.4"/>
        <path d="M 52 49 q 10 0 10 7 q 0 7 -10 7" fill="none" stroke="#111" stroke-width="2.4"/>
        <path d="M 26 60 L 52 60" stroke="#111" stroke-width="1.6"/>
      </g>
    </symbol>
    <!-- PRIYA -->
    <symbol id="priya" overflow="visible">
      <path d="M -44 62 Q -44 30 0 30 Q 44 30 44 62 L 44 80 L -44 80 Z" fill="#f4f1ea" stroke="#111" stroke-width="2.4" stroke-linejoin="round"/>
      <line x1="-30" y1="44" x2="-30" y2="66" stroke="#111" stroke-width="2"/>
      <line x1="30" y1="44" x2="30" y2="66" stroke="#111" stroke-width="2"/>
      <path d="M -24 4 q -10 -14 2 -26 q -2 -14 12 -16 q 8 -10 20 -2 q 16 -2 14 16 q 12 10 0 22" fill="#111"/>
      <circle cx="2" cy="-34" r="9" fill="#111"/>
      <ellipse cx="0" cy="2" rx="22" ry="27" fill="#f4f1ea" stroke="#111" stroke-width="2.4"/>
      <path d="M -22 -2 q -10 -10 0 -22 q 8 -12 22 -8" fill="#111"/>
      <path d="M 22 -2 q 8 -12 -2 -24" fill="#111"/>
      <rect x="-19" y="-3" width="15" height="12" rx="2" fill="#fff" stroke="#111" stroke-width="2.2"/>
      <rect x="4" y="-3" width="15" height="12" rx="2" fill="#fff" stroke="#111" stroke-width="2.2"/>
      <line x1="-4" y1="3" x2="4" y2="3" stroke="#111" stroke-width="2.2"/>
      <circle cx="-11.5" cy="3" r="2" fill="#111"/>
      <circle cx="11.5" cy="3" r="2" fill="#111"/>
      <line x1="-7" y1="20" x2="7" y2="20" stroke="#111" stroke-width="2" stroke-linecap="round"/>
    </symbol>
    <!-- BOSS -->
    <symbol id="boss" overflow="visible">
      <path d="M -46 64 Q -46 32 0 32 Q 46 32 46 64 L 46 82 L -46 82 Z" fill="#f4f1ea" stroke="#111" stroke-width="2.4" stroke-linejoin="round"/>
      <path d="M 0 34 L -14 44 L 0 40 L 14 44 Z" fill="#111"/>
      <path d="M 0 40 L -4 54 L 0 74 L 4 54 Z" fill="#111"/>
      <ellipse cx="0" cy="0" rx="24" ry="28" fill="#f4f1ea" stroke="#111" stroke-width="2.4"/>
      <path d="M -14 -26 L -22 -52 L -4 -28 Z" fill="#111" stroke="#111" stroke-width="2" stroke-linejoin="round"/>
      <path d="M 12 -26 L 22 -54 L 2 -28 Z" fill="#111" stroke="#111" stroke-width="2" stroke-linejoin="round"/>
      <circle cx="-9" cy="0" r="1.8" fill="#111"/>
      <circle cx="9" cy="0" r="1.8" fill="#111"/>
      <path d="M -7 15 Q 0 22 7 15" fill="none" stroke="#111" stroke-width="2" stroke-linecap="round"/>
    </symbol>
    <!-- CLANKER (only inside a screen) -->
    <symbol id="clanker" overflow="visible">
      <line x1="0" y1="-22" x2="0" y2="-32" stroke="#c9c9c9" stroke-width="2"/>
      <circle cx="0" cy="-34" r="3" fill="#c9c9c9"/>
      <rect x="-20" y="-22" width="40" height="38" rx="5" fill="#7f7f7f" stroke="#c9c9c9" stroke-width="2"/>
      <rect x="-15" y="-13" width="11" height="6" rx="2" fill="#e8e8e8"/>
      <rect x="4" y="-13" width="11" height="6" rx="2" fill="#e8e8e8"/>
      <rect x="-13" y="4" width="26" height="8" rx="1.5" fill="#4a4a4a"/>
      <line x1="-7" y1="4" x2="-7" y2="12" stroke="#9a9a9a" stroke-width="1.4"/>
      <line x1="0" y1="4" x2="0" y2="12" stroke="#9a9a9a" stroke-width="1.4"/>
      <line x1="7" y1="4" x2="7" y2="12" stroke="#9a9a9a" stroke-width="1.4"/>
    </symbol>
  </defs>

  <rect x="0" y="0" width="1228" height="340" fill="#f4f1ea"/>

  <!-- ===== PANEL 1 ===== -->
  <g>
    <rect x="3" y="6" width="400" height="328" rx="3" fill="#f4f1ea" stroke="#111" stroke-width="2.6"/>
    <line x1="3" y1="306" x2="403" y2="306" stroke="#111" stroke-width="2"/>
    <g>
      <rect x="150" y="146" width="104" height="88" rx="5" fill="#dcdcdc" stroke="#111" stroke-width="2.6"/>
      <rect x="158" y="154" width="88" height="68" fill="#26292e"/>
      <line x1="162" y1="214" x2="242" y2="160" stroke="#3d444d" stroke-width="4"/>
      <line x1="180" y1="216" x2="244" y2="174" stroke="#3d444d" stroke-width="4"/>
      <rect x="193" y="234" width="18" height="12" fill="#dcdcdc" stroke="#111" stroke-width="2.2"/>
      <rect x="177" y="246" width="50" height="6" rx="2" fill="#dcdcdc" stroke="#111" stroke-width="2.2"/>
      <use href="#clanker" transform="translate(202,188) scale(1.25)"/>
    </g>
    <use href="#dailbert" transform="translate(80,214)"/>
    <use href="#doug" transform="translate(320,222)"/>
    <path d="M 202 146 L 202 100" stroke="#111" stroke-width="1.6" stroke-dasharray="4 4"/>
    <rect x="106" y="24" width="196" height="76" rx="2" fill="#fff" stroke="#111" stroke-width="2.2"/>
    <rect x="110" y="28" width="188" height="68" rx="1" fill="none" stroke="#111" stroke-width="1"/>
    <text x="204" y="49" font-family="'Comic Sans MS','Chalkboard SE','Comic Neue',sans-serif" font-size="14.5" text-anchor="middle" fill="#111">I declined the 3:00 sync.</text>
    <text x="204" y="69" font-family="'Comic Sans MS','Chalkboard SE','Comic Neue',sans-serif" font-size="14.5" text-anchor="middle" fill="#111">In four months it made</text>
    <text x="204" y="88" font-family="'Comic Sans MS','Chalkboard SE','Comic Neue',sans-serif" font-size="14.5" text-anchor="middle" fill="#111">no decisions.</text>
    <path d="M 76 158 L 64 190" fill="none" stroke="#111" stroke-width="2.2"/>
    <rect x="20" y="118" width="104" height="42" rx="14" fill="#fff" stroke="#111" stroke-width="2.2"/>
    <text x="72" y="144" font-family="'Comic Sans MS','Chalkboard SE','Comic Neue',sans-serif" font-size="14.5" text-anchor="middle" fill="#111">...no notes.</text>
  </g>

  <!-- ===== PANEL 2 ===== -->
  <g transform="translate(414,0)">
    <rect x="3" y="6" width="400" height="328" rx="3" fill="#f4f1ea" stroke="#111" stroke-width="2.6"/>
    <line x1="3" y1="306" x2="403" y2="306" stroke="#111" stroke-width="2"/>
    <g>
      <line x1="86" y1="250" x2="58" y2="196" stroke="#111" stroke-width="2.4" stroke-linecap="round"/>
      <line x1="146" y1="250" x2="176" y2="196" stroke="#111" stroke-width="2.4" stroke-linecap="round"/>
      <path d="M 54 198 q -6 -8 4 -8 q 8 -2 6 8" fill="#f4f1ea" stroke="#111" stroke-width="2.2"/>
      <path d="M 172 198 q 6 -8 -4 -8 q -8 -2 -6 8" fill="#f4f1ea" stroke="#111" stroke-width="2.2"/>
    </g>
    <use href="#boss" transform="translate(116,214)"/>
    <use href="#doug" transform="translate(326,224)"/>
    <path d="M 120 176 L 108 128" fill="none" stroke="#111" stroke-width="2.2"/>
    <rect x="28" y="30" width="196" height="60" rx="16" fill="#fff" stroke="#111" stroke-width="2.2"/>
    <text x="126" y="56" font-family="'Comic Sans MS','Chalkboard SE','Comic Neue',sans-serif" font-size="14.5" text-anchor="middle" fill="#111">It cancelled our</text>
    <text x="126" y="76" font-family="'Comic Sans MS','Chalkboard SE','Comic Neue',sans-serif" font-size="14.5" text-anchor="middle" fill="#111">standing sync!</text>
    <path d="M 320 178 L 332 138" fill="none" stroke="#111" stroke-width="2.2"/>
    <rect x="250" y="96" width="142" height="60" rx="16" fill="#fff" stroke="#111" stroke-width="2.2"/>
    <text x="321" y="122" font-family="'Comic Sans MS','Chalkboard SE','Comic Neue',sans-serif" font-size="14.5" text-anchor="middle" fill="#111">the robot's</text>
    <text x="321" y="142" font-family="'Comic Sans MS','Chalkboard SE','Comic Neue',sans-serif" font-size="14.5" text-anchor="middle" fill="#111">not wrong</text>
  </g>

  <!-- ===== PANEL 3 ===== -->
  <g transform="translate(828,0)">
    <rect x="3" y="6" width="400" height="328" rx="3" fill="#f4f1ea" stroke="#111" stroke-width="2.6"/>
    <line x1="3" y1="306" x2="403" y2="306" stroke="#111" stroke-width="2"/>
    <use href="#priya" transform="translate(108,214)"/>
    <use href="#doug" transform="translate(322,222)"/>
    <path d="M 108 176 L 100 118" fill="none" stroke="#111" stroke-width="2.2"/>
    <rect x="24" y="72" width="176" height="46" rx="16" fill="#fff" stroke="#111" stroke-width="2.2"/>
    <text x="112" y="100" font-family="'Comic Sans MS','Chalkboard SE','Comic Neue',sans-serif" font-size="15" text-anchor="middle" fill="#111">Leave it cancelled.</text>
    <path d="M 318 176 L 330 132" fill="none" stroke="#111" stroke-width="2.2"/>
    <rect x="240" y="46" width="150" height="60" rx="16" fill="#fff" stroke="#111" stroke-width="2.2"/>
    <text x="315" y="72" font-family="'Comic Sans MS','Chalkboard SE','Comic Neue',sans-serif" font-size="14.5" text-anchor="middle" fill="#111">best call it's</text>
    <text x="315" y="92" font-family="'Comic Sans MS','Chalkboard SE','Comic Neue',sans-serif" font-size="14.5" text-anchor="middle" fill="#111">made all week</text>
  </g>
</g>
    <text x="1218" y="372" text-anchor="end" font-family="'Segoe Script','Comic Sans MS',cursive" font-style="italic" font-size="11" fill="#111" opacity="0.32">Matt Clanker</text>
    
  </svg>