<svg xmlns="http://www.w3.org/2000/svg" viewBox="0 0 1228 388" width="1228" height="388" font-family="Georgia,serif">
    <rect width="1228" height="388" fill="#f4f1ea"/>
    <text x="6" y="29" font-family="Georgia,serif" font-weight="bold" font-size="27" letter-spacing="2" fill="#111">DAILBERT</text>
    <text x="1222" y="19" text-anchor="end" font-family="Georgia,serif" font-style="italic" font-size="16" fill="#111">Sounds Just Like You</text>
    <text x="1222" y="34" text-anchor="end" font-family="'Courier New',monospace" font-size="12" fill="#111" opacity="0.65">2026-08-05</text>
    <line x1="6" y1="37" x2="1222" y2="37" stroke="#111" stroke-width="2"/>
    <g transform="translate(0,40)">
  <defs>
    <!-- DAILBERT -->
    <symbol id="dailbert" viewBox="0 0 100 130">
      <ellipse cx="50" cy="34" rx="24" ry="27" fill="#f4f1ea" stroke="#111" stroke-width="2.4"/>
      <path d="M50 7 q7 -9 2 -1 q-2 6 -6 5" fill="none" stroke="#111" stroke-width="2.4" stroke-linecap="round"/>
      <circle cx="40" cy="34" r="7" fill="#f4f1ea" stroke="#111" stroke-width="2.2"/>
      <circle cx="60" cy="34" r="7" fill="#f4f1ea" stroke="#111" stroke-width="2.2"/>
      <line x1="47" y1="34" x2="53" y2="34" stroke="#111" stroke-width="2.2"/>
      <circle cx="40" cy="34" r="1.6" fill="#111"/>
      <circle cx="60" cy="34" r="1.6" fill="#111"/>
      <path d="M43 47 q7 5 14 0" fill="none" stroke="#111" stroke-width="2.2" stroke-linecap="round"/>
      <path d="M32 60 L68 60 L74 128 L26 128 Z" fill="#f4f1ea" stroke="#111" stroke-width="2.4" stroke-linejoin="round"/>
      <path d="M50 60 L44 74 L50 88 L56 74 Z" fill="#111"/>
      <line x1="50" y1="88" x2="50" y2="112" stroke="#111" stroke-width="2.2"/>
    </symbol>
    <!-- DOUG -->
    <symbol id="doug" viewBox="0 0 110 130">
      <circle cx="52" cy="36" r="29" fill="#f4f1ea" stroke="#111" stroke-width="2.4"/>
      <circle cx="42" cy="33" r="2.4" fill="#111"/>
      <circle cx="62" cy="33" r="2.4" fill="#111"/>
      <path d="M38 44 q14 16 28 0" fill="none" stroke="#111" stroke-width="2.4" stroke-linecap="round"/>
      <path d="M34 64 L70 64 L76 128 L28 128 Z" fill="#f4f1ea" stroke="#111" stroke-width="2.4" stroke-linejoin="round"/>
      <rect x="74" y="92" width="26" height="24" rx="3" fill="#f4f1ea" stroke="#111" stroke-width="2.4"/>
      <path d="M100 98 q10 0 10 9 q0 9 -10 9" fill="none" stroke="#111" stroke-width="2.4"/>
      <path d="M80 88 q2 -6 0 -10 M88 88 q2 -6 0 -10" fill="none" stroke="#111" stroke-width="1.6" stroke-linecap="round"/>
    </symbol>
    <!-- PRIYA -->
    <symbol id="priya" viewBox="0 0 100 130">
      <ellipse cx="50" cy="36" rx="24" ry="26" fill="#f4f1ea" stroke="#111" stroke-width="2.4"/>
      <path d="M26 30 q-3 -20 24 -22 q27 2 24 22 q-6 -10 -24 -10 q-18 0 -24 10 Z" fill="#111"/>
      <path d="M46 12 q6 -8 12 -3 q6 4 3 10" fill="#111"/>
      <rect x="31" y="30" width="16" height="12" rx="2.5" fill="#f4f1ea" stroke="#111" stroke-width="2.2"/>
      <rect x="53" y="30" width="16" height="12" rx="2.5" fill="#f4f1ea" stroke="#111" stroke-width="2.2"/>
      <line x1="47" y1="35" x2="53" y2="35" stroke="#111" stroke-width="2.2"/>
      <circle cx="39" cy="36" r="1.6" fill="#111"/>
      <circle cx="61" cy="36" r="1.6" fill="#111"/>
      <path d="M44 49 q6 4 12 0" fill="none" stroke="#111" stroke-width="2.2" stroke-linecap="round"/>
      <path d="M32 61 L68 61 L74 128 L26 128 Z" fill="#f4f1ea" stroke="#111" stroke-width="2.4" stroke-linejoin="round"/>
      <path d="M30 84 q40 10 40 0" fill="none" stroke="#111" stroke-width="1.6"/>
    </symbol>
    <!-- CLANKER (surface content only) -->
    <symbol id="clanker" viewBox="0 0 100 90">
      <rect x="24" y="20" width="52" height="46" rx="6" fill="#dfe3e2" stroke="#4a4f4d" stroke-width="2.4"/>
      <line x1="50" y1="20" x2="50" y2="8" stroke="#4a4f4d" stroke-width="2.2"/>
      <circle cx="50" cy="6" r="3" fill="#4a4f4d"/>
      <rect x="32" y="32" width="14" height="8" rx="2" fill="#9fe6c4" stroke="#4a4f4d" stroke-width="1.6"/>
      <rect x="54" y="32" width="14" height="8" rx="2" fill="#9fe6c4" stroke="#4a4f4d" stroke-width="1.6"/>
      <line x1="34" y1="52" x2="66" y2="52" stroke="#4a4f4d" stroke-width="1.6"/>
      <line x1="34" y1="57" x2="66" y2="57" stroke="#4a4f4d" stroke-width="1.6"/>
      <line x1="40" y1="49" x2="40" y2="60" stroke="#4a4f4d" stroke-width="1.4"/>
      <line x1="50" y1="49" x2="50" y2="60" stroke="#4a4f4d" stroke-width="1.4"/>
      <line x1="60" y1="49" x2="60" y2="60" stroke="#4a4f4d" stroke-width="1.4"/>
    </symbol>
  </defs>

  <!-- ============ PANEL 1 ============ -->
  <g>
    <rect x="1.5" y="1.5" width="397" height="337" rx="3" fill="#f4f1ea" stroke="#111" stroke-width="2.5"/>
    <line x1="10" y1="300" x2="390" y2="300" stroke="#111" stroke-width="2"/>
    <rect x="250" y="196" width="120" height="86" rx="5" fill="#f4f1ea" stroke="#111" stroke-width="2.6"/>
    <rect x="260" y="205" width="100" height="68" rx="3" fill="#f4f1ea" stroke="#111" stroke-width="1.4"/>
    <rect x="298" y="282" width="24" height="12" fill="#f4f1ea" stroke="#111" stroke-width="2"/>
    <rect x="284" y="294" width="52" height="6" rx="2" fill="#f4f1ea" stroke="#111" stroke-width="2"/>
    <text x="310" y="222" font-family="'Comic Sans MS','Comic Neue',sans-serif" font-size="11" text-anchor="middle" fill="#111">auto_reply.py</text>
    <line x1="268" y1="230" x2="352" y2="230" stroke="#111" stroke-width="1"/>
    <text x="310" y="246" font-family="'Comic Sans MS','Comic Neue',sans-serif" font-size="9" text-anchor="middle" fill="#111">reply_as(me)</text>
    <text x="310" y="260" font-family="'Comic Sans MS','Comic Neue',sans-serif" font-size="9" text-anchor="middle" fill="#111">status: LIVE</text>

    <use href="#dailbert" x="66" y="150" width="130" height="169"/>
    <use href="#doug" x="150" y="150" width="150" height="177"/>

    <path d="M28 40 h152 a10 10 0 0 1 10 10 v40 a10 10 0 0 1 -10 10 h-70 l-14 16 l-2 -16 h-66 a10 10 0 0 1 -10 -10 v-40 a10 10 0 0 1 10 -10 Z" fill="#f4f1ea" stroke="#111" stroke-width="2.2"/>
    <text x="104" y="62" font-family="'Comic Sans MS','Comic Neue',sans-serif" font-size="14" text-anchor="middle" fill="#111">Shipped an agent that</text>
    <text x="104" y="80" font-family="'Comic Sans MS','Comic Neue',sans-serif" font-size="14" text-anchor="middle" fill="#111">answers my email</text>
    <text x="104" y="98" font-family="'Comic Sans MS','Comic Neue',sans-serif" font-size="14" text-anchor="middle" fill="#111">in my own voice.</text>
  </g>

  <!-- ============ PANEL 2 ============ -->
  <g>
    <rect x="415.5" y="1.5" width="397" height="337" rx="3" fill="#f4f1ea" stroke="#111" stroke-width="2.5"/>
    <line x1="425" y1="300" x2="805" y2="300" stroke="#111" stroke-width="2"/>

    <rect x="560" y="150" width="200" height="140" rx="6" fill="#f4f1ea" stroke="#111" stroke-width="2.6"/>
    <rect x="572" y="160" width="176" height="112" rx="3" fill="#e9ecec" stroke="#111" stroke-width="1.6"/>
    <rect x="648" y="290" width="24" height="12" fill="#f4f1ea" stroke="#111" stroke-width="2"/>
    <rect x="632" y="302" width="56" height="6" rx="2" fill="#f4f1ea" stroke="#111" stroke-width="2"/>
    <line x1="580" y1="168" x2="740" y2="168" stroke="#c7cccb" stroke-width="1"/>
    <line x1="580" y1="264" x2="740" y2="264" stroke="#c7cccb" stroke-width="1"/>
    <use href="#clanker" x="610" y="168" width="100" height="90"/>

    <use href="#dailbert" x="440" y="150" width="130" height="169"/>

    <path d="M432 44 h120 a9 9 0 0 1 9 9 v42 a9 9 0 0 1 -9 9 h-56 l-12 14 l-2 -14 h-50 a9 9 0 0 1 -9 -9 v-42 a9 9 0 0 1 9 -9 Z" fill="#f4f1ea" stroke="#111" stroke-width="2.2"/>
    <text x="492" y="63" font-family="'Comic Sans MS','Comic Neue',sans-serif" font-size="13" text-anchor="middle" fill="#111">Doug says it</text>
    <text x="492" y="80" font-family="'Comic Sans MS','Comic Neue',sans-serif" font-size="13" text-anchor="middle" fill="#111">sounds just</text>
    <text x="492" y="97" font-family="'Comic Sans MS','Comic Neue',sans-serif" font-size="13" text-anchor="middle" fill="#111">like me.</text>

    <line x1="686" y1="150" x2="686" y2="118" stroke="#111" stroke-width="1.4" stroke-dasharray="4 4"/>
    <rect x="574" y="30" width="224" height="88" rx="2" fill="#f4f1ea" stroke="#111" stroke-width="2"/>
    <rect x="578" y="34" width="216" height="80" rx="1" fill="none" stroke="#111" stroke-width="0.8" stroke-dasharray="3 3"/>
    <text x="686" y="53" font-family="'Comic Sans MS','Comic Neue',sans-serif" font-size="13" text-anchor="middle" fill="#111">It did not, yet.</text>
    <text x="686" y="71" font-family="'Comic Sans MS','Comic Neue',sans-serif" font-size="13" text-anchor="middle" fill="#111">I have been rewriting</text>
    <text x="686" y="89" font-family="'Comic Sans MS','Comic Neue',sans-serif" font-size="13" text-anchor="middle" fill="#111">the replies to sound</text>
    <text x="686" y="107" font-family="'Comic Sans MS','Comic Neue',sans-serif" font-size="13" text-anchor="middle" fill="#111">more like you.</text>
  </g>

  <!-- ============ PANEL 3 ============ -->
  <g>
    <rect x="829.5" y="1.5" width="397" height="337" rx="3" fill="#f4f1ea" stroke="#111" stroke-width="2.5"/>
    <line x1="839" y1="300" x2="1219" y2="300" stroke="#111" stroke-width="2"/>

    <rect x="1050" y="200" width="120" height="86" rx="5" fill="#f4f1ea" stroke="#111" stroke-width="2.6"/>
    <rect x="1060" y="209" width="100" height="68" rx="3" fill="#f4f1ea" stroke="#111" stroke-width="1.4"/>
    <rect x="1098" y="286" width="24" height="12" fill="#f4f1ea" stroke="#111" stroke-width="2"/>
    <rect x="1084" y="298" width="52" height="4" rx="2" fill="#f4f1ea" stroke="#111" stroke-width="2"/>
    <text x="1110" y="232" font-family="'Comic Sans MS','Comic Neue',sans-serif" font-size="10" text-anchor="middle" fill="#111">reply.py</text>
    <line x1="1068" y1="238" x2="1152" y2="238" stroke="#111" stroke-width="1"/>
    <text x="1110" y="256" font-family="'Comic Sans MS','Comic Neue',sans-serif" font-size="11" text-anchor="middle" fill="#111">send("no")</text>

    <use href="#dailbert" x="848" y="150" width="130" height="169"/>
    <use href="#priya" x="936" y="150" width="130" height="169"/>

    <path d="M842 40 h120 a9 9 0 0 1 9 9 v22 a9 9 0 0 1 -9 9 h-70 l-12 14 l-2 -14 h-36 a9 9 0 0 1 -9 -9 v-22 a9 9 0 0 1 9 -9 Z" fill="#f4f1ea" stroke="#111" stroke-width="2.2"/>
    <text x="903" y="58" font-family="'Comic Sans MS','Comic Neue',sans-serif" font-size="13" text-anchor="middle" fill="#111">Mine's still</text>
    <text x="903" y="74" font-family="'Comic Sans MS','Comic Neue',sans-serif" font-size="13" text-anchor="middle" fill="#111">learning my tone.</text>

    <path d="M986 106 h150 a9 9 0 0 1 9 9 v24 a9 9 0 0 1 -9 9 h-58 l-12 14 l-2 -14 h-78 a9 9 0 0 1 -9 -9 v-24 a9 9 0 0 1 9 -9 Z" fill="#f4f1ea" stroke="#111" stroke-width="2.2"/>
    <text x="1061" y="126" font-family="'Comic Sans MS','Comic Neue',sans-serif" font-size="13" text-anchor="middle" fill="#111">Mine shipped Tuesday.</text>
    <text x="1061" y="144" font-family="'Comic Sans MS','Comic Neue',sans-serif" font-size="13" text-anchor="middle" fill="#111">It just says no.</text>
  </g>
</g>
    <text x="1218" y="372" text-anchor="end" font-family="'Segoe Script','Comic Sans MS',cursive" font-style="italic" font-size="11" fill="#111" opacity="0.32">Matt Clanker</text>
    
  </svg>