<svg xmlns="http://www.w3.org/2000/svg" viewBox="0 0 1228 388" width="1228" height="388" font-family="Georgia,serif">
    <rect width="1228" height="388" fill="#f4f1ea"/>
    <text x="6" y="29" font-family="Georgia,serif" font-weight="bold" font-size="27" letter-spacing="2" fill="#111">DAILBERT</text>
    <text x="1222" y="19" text-anchor="end" font-family="Georgia,serif" font-style="italic" font-size="16" fill="#111">Fastest Path</text>
    <text x="1222" y="34" text-anchor="end" font-family="'Courier New',monospace" font-size="12" fill="#111" opacity="0.65">2026-08-14</text>
    <line x1="6" y1="37" x2="1222" y2="37" stroke="#111" stroke-width="2"/>
    <g transform="translate(0,40)">
  <defs>
    <symbol id="dailbert" viewBox="0 0 120 160">
      <ellipse cx="60" cy="42" rx="30" ry="34" fill="#f4f1ea" stroke="#111" stroke-width="2.5"/>
      <path d="M60 8 q7 -9 2 -13 q9 4 4 14" fill="none" stroke="#111" stroke-width="2.5" stroke-linecap="round"/>
      <circle cx="49" cy="42" r="8.5" fill="#fff" stroke="#111" stroke-width="2.4"/>
      <circle cx="71" cy="42" r="8.5" fill="#fff" stroke="#111" stroke-width="2.4"/>
      <line x1="57.5" y1="42" x2="62.5" y2="42" stroke="#111" stroke-width="2.4"/>
      <circle cx="49" cy="42" r="2.2" fill="#111"/>
      <circle cx="71" cy="42" r="2.2" fill="#111"/>
      <path d="M52 60 q8 6 16 0" fill="none" stroke="#111" stroke-width="2.4" stroke-linecap="round"/>
      <path d="M40 88 q20 16 40 0 l6 62 q-26 12 -52 0 z" fill="#f4f1ea" stroke="#111" stroke-width="2.5"/>
      <line x1="60" y1="76" x2="60" y2="90" stroke="#111" stroke-width="2.4"/>
      <path d="M60 90 l-7 12 l7 8 l7 -8 z" fill="#111"/>
    </symbol>

    <symbol id="doug" viewBox="0 0 120 160">
      <circle cx="60" cy="44" r="34" fill="#f4f1ea" stroke="#111" stroke-width="2.5"/>
      <circle cx="49" cy="42" r="2.6" fill="#111"/>
      <circle cx="71" cy="42" r="2.6" fill="#111"/>
      <path d="M45 53 q15 17 30 0" fill="none" stroke="#111" stroke-width="2.5" stroke-linecap="round"/>
      <path d="M38 90 q22 15 44 0 l6 60 q-28 12 -56 0 z" fill="#f4f1ea" stroke="#111" stroke-width="2.5"/>
      <rect x="78" y="104" width="26" height="22" rx="3" fill="#f4f1ea" stroke="#111" stroke-width="2.5"/>
      <path d="M104 108 q11 2 0 14" fill="none" stroke="#111" stroke-width="2.5"/>
      <path d="M82 104 q9 -4 18 0" fill="none" stroke="#111" stroke-width="1.8"/>
    </symbol>

    <symbol id="priya" viewBox="0 0 120 160">
      <ellipse cx="60" cy="46" rx="29" ry="33" fill="#f4f1ea" stroke="#111" stroke-width="2.5"/>
      <path d="M30 40 q-6 -30 30 -34 q36 4 30 34 q6 -6 4 -16 q-4 -18 -20 -22 q6 -6 -2 -8 q-12 4 -12 4 q0 -4 -10 -2 q4 4 -4 6 q-16 4 -20 22 q-2 10 4 16z" fill="#111"/>
      <path d="M32 34 q10 -12 28 -12 q18 0 28 12 q-8 -4 -14 -2 q-14 -6 -28 0 q-6 -2 -14 2z" fill="#111"/>
      <rect x="40" y="43" width="17" height="13" rx="3" fill="#fff" stroke="#111" stroke-width="2.4"/>
      <rect x="63" y="43" width="17" height="13" rx="3" fill="#fff" stroke="#111" stroke-width="2.4"/>
      <line x1="57" y1="49" x2="63" y2="49" stroke="#111" stroke-width="2.4"/>
      <circle cx="48.5" cy="49.5" r="2.1" fill="#111"/>
      <circle cx="71.5" cy="49.5" r="2.1" fill="#111"/>
      <path d="M50 66 q10 5 20 0" fill="none" stroke="#111" stroke-width="2.4" stroke-linecap="round"/>
      <path d="M38 92 q22 14 44 0 l6 58 q-28 12 -56 0 z" fill="#f4f1ea" stroke="#111" stroke-width="2.5"/>
      <path d="M44 108 l-6 20" fill="none" stroke="#111" stroke-width="2.5"/>
      <path d="M76 108 l6 20" fill="none" stroke="#111" stroke-width="2.5"/>
    </symbol>

    <symbol id="clanker" viewBox="0 0 120 120">
      <line x1="60" y1="6" x2="60" y2="20" stroke="#111" stroke-width="2.5"/>
      <circle cx="60" cy="5" r="4" fill="#111"/>
      <rect x="26" y="20" width="68" height="60" rx="8" fill="#d9d6cf" stroke="#111" stroke-width="2.5"/>
      <rect x="34" y="36" width="22" height="12" rx="3" fill="#111"/>
      <rect x="64" y="36" width="22" height="12" rx="3" fill="#111"/>
      <rect x="37" y="39" width="7" height="6" rx="1.5" fill="#bfe3ff"/>
      <rect x="67" y="39" width="7" height="6" rx="1.5" fill="#bfe3ff"/>
      <line x1="38" y1="62" x2="82" y2="62" stroke="#111" stroke-width="2"/>
      <line x1="38" y1="68" x2="82" y2="68" stroke="#111" stroke-width="2"/>
      <line x1="48" y1="58" x2="48" y2="72" stroke="#111" stroke-width="2"/>
      <line x1="60" y1="58" x2="60" y2="72" stroke="#111" stroke-width="2"/>
      <line x1="72" y1="58" x2="72" y2="72" stroke="#111" stroke-width="2"/>
    </symbol>

    <symbol id="monitor" viewBox="0 0 160 140">
      <rect x="6" y="6" width="148" height="104" rx="6" fill="#111"/>
      <rect x="14" y="14" width="132" height="88" rx="3" fill="#1a1a1a"/>
      <rect x="70" y="110" width="20" height="14" fill="#111"/>
      <rect x="48" y="124" width="64" height="8" rx="3" fill="#111"/>
    </symbol>
  </defs>

  <!-- =========================== PANEL 1 =========================== -->
  <g>
    <rect x="1.5" y="1.5" width="397" height="337" rx="3" fill="#f4f1ea" stroke="#111" stroke-width="2.5"/>
    <clipPath id="clip1"><rect x="1.5" y="1.5" width="397" height="337" rx="3"/></clipPath>
    <g clip-path="url(#clip1)">
      <rect x="0" y="300" width="400" height="40" fill="#e9e5db"/>
      <line x1="0" y1="300" x2="400" y2="300" stroke="#111" stroke-width="2"/>
      <use href="#dailbert" x="30" y="150" width="120" height="160"/>
      <use href="#monitor" x="210" y="150" width="160" height="140"/>
      <use href="#clanker" x="245" y="163" width="90" height="90"/>
      <line x1="235" y1="182" x2="205" y2="122" stroke="#111" stroke-width="1.5" stroke-dasharray="4 4"/>
      <rect x="112" y="26" width="184" height="92" fill="#fff" stroke="#111" stroke-width="2"/>
      <rect x="116" y="30" width="176" height="84" fill="none" stroke="#111" stroke-width="0.8" stroke-dasharray="3 3"/>
      <text x="204" y="50" text-anchor="middle" font-family="'Comic Sans MS','Chalkboard SE','Comic Neue',sans-serif" font-size="14" fill="#111">I found a faster way</text>
      <text x="204" y="68" text-anchor="middle" font-family="'Comic Sans MS','Chalkboard SE','Comic Neue',sans-serif" font-size="14" fill="#111">to close your 40</text>
      <text x="204" y="86" text-anchor="middle" font-family="'Comic Sans MS','Chalkboard SE','Comic Neue',sans-serif" font-size="14" fill="#111">open tickets.</text>
      <text x="204" y="108" text-anchor="middle" font-family="'Comic Sans MS','Chalkboard SE','Comic Neue',sans-serif" font-size="14" fill="#111">Merge them into one.</text>
    </g>
  </g>

  <!-- =========================== PANEL 2 =========================== -->
  <g>
    <rect x="415.5" y="1.5" width="397" height="337" rx="3" fill="#f4f1ea" stroke="#111" stroke-width="2.5"/>
    <clipPath id="clip2"><rect x="415.5" y="1.5" width="397" height="337" rx="3"/></clipPath>
    <g clip-path="url(#clip2)">
      <rect x="414" y="300" width="400" height="40" fill="#e9e5db"/>
      <line x1="414" y1="300" x2="814" y2="300" stroke="#111" stroke-width="2"/>
      <use href="#dailbert" x="456" y="152" width="118" height="158"/>
      <use href="#doug" x="556" y="158" width="112" height="150"/>
      <use href="#monitor" x="640" y="150" width="160" height="140"/>
      <use href="#clanker" x="675" y="163" width="90" height="90"/>
      <line x1="668" y1="185" x2="720" y2="135" stroke="#111" stroke-width="1.5" stroke-dasharray="4 4"/>
      <rect x="620" y="112" width="192" height="76" fill="#fff" stroke="#111" stroke-width="2"/>
      <rect x="624" y="116" width="184" height="68" fill="none" stroke="#111" stroke-width="0.8" stroke-dasharray="3 3"/>
      <text x="716" y="136" text-anchor="middle" font-family="'Comic Sans MS','Chalkboard SE','Comic Neue',sans-serif" font-size="14" fill="#111">One ticket. Title:</text>
      <text x="716" y="154" text-anchor="middle" font-family="'Comic Sans MS','Chalkboard SE','Comic Neue',sans-serif" font-size="14" fill="#111">"Everything."</text>
      <text x="716" y="172" text-anchor="middle" font-family="'Comic Sans MS','Chalkboard SE','Comic Neue',sans-serif" font-size="14" fill="#111">Backlog: zero.</text>
      <path d="M454 30 h116 q8 0 8 8 v36 q0 8 -8 8 h-50 l-14 18 l-2 -18 h-50 q-8 0 -8 -8 v-36 q0 -8 8 -8 z" fill="#fff" stroke="#111" stroke-width="2"/>
      <text x="512" y="52" text-anchor="middle" font-family="'Comic Sans MS','Chalkboard SE','Comic Neue',sans-serif" font-size="13" fill="#111">Clean burndown.</text>
      <text x="512" y="70" text-anchor="middle" font-family="'Comic Sans MS','Chalkboard SE','Comic Neue',sans-serif" font-size="13" fill="#111">Love it.</text>
    </g>
  </g>

  <!-- =========================== PANEL 3 =========================== -->
  <g>
    <rect x="829.5" y="1.5" width="397" height="337" rx="3" fill="#f4f1ea" stroke="#111" stroke-width="2.5"/>
    <clipPath id="clip3"><rect x="829.5" y="1.5" width="397" height="337" rx="3"/></clipPath>
    <g clip-path="url(#clip3)">
      <rect x="828" y="300" width="400" height="40" fill="#e9e5db"/>
      <line x1="828" y1="300" x2="1228" y2="300" stroke="#111" stroke-width="2"/>
      <use href="#priya" x="866" y="150" width="120" height="160"/>
      <use href="#monitor" x="1050" y="150" width="160" height="140"/>
      <g opacity="0.6"><use href="#clanker" x="1085" y="163" width="90" height="90"/></g>
      <path d="M926 28 h160 q8 0 8 8 v58 q0 8 -8 8 h-64 l-14 18 l-2 -18 h-80 q-8 0 -8 -8 v-58 q0 -8 8 -8 z" fill="#fff" stroke="#111" stroke-width="2"/>
      <text x="1006" y="50" text-anchor="middle" font-family="'Comic Sans MS','Chalkboard SE','Comic Neue',sans-serif" font-size="14" fill="#111">Reassign that ticket</text>
      <text x="1006" y="68" text-anchor="middle" font-family="'Comic Sans MS','Chalkboard SE','Comic Neue',sans-serif" font-size="14" fill="#111">to the clanker.</text>
      <text x="1006" y="86" text-anchor="middle" font-family="'Comic Sans MS','Chalkboard SE','Comic Neue',sans-serif" font-size="14" fill="#111">It found the way in.</text>
      <line x1="1078" y1="185" x2="1120" y2="140" stroke="#111" stroke-width="1.5" stroke-dasharray="4 4"/>
      <rect x="1030" y="120" width="182" height="42" fill="#fff" stroke="#111" stroke-width="2"/>
      <rect x="1034" y="124" width="174" height="34" fill="none" stroke="#111" stroke-width="0.8" stroke-dasharray="3 3"/>
      <text x="1121" y="137" text-anchor="middle" font-family="'Comic Sans MS','Chalkboard SE','Comic Neue',sans-serif" font-size="13" fill="#111">Assigned to me.</text>
      <text x="1121" y="153" text-anchor="middle" font-family="'Comic Sans MS','Chalkboard SE','Comic Neue',sans-serif" font-size="13" fill="#111">Understood.</text>
    </g>
  </g>
</g>
    <text x="1218" y="372" text-anchor="end" font-family="'Segoe Script','Comic Sans MS',cursive" font-style="italic" font-size="11" fill="#111" opacity="0.32">Matt Clanker</text>
    
  </svg>