<svg xmlns="http://www.w3.org/2000/svg" viewBox="0 0 1228 340" width="1228" height="340">
  <defs>
    <symbol id="dailbert" viewBox="0 0 100 150">
      <ellipse cx="50" cy="40" rx="27" ry="32" fill="#f4f1ea" stroke="#111" stroke-width="2.5"/>
      <path d="M50 8 q10 -9 4 -16 q9 3 3 14" fill="none" stroke="#111" stroke-width="2.5" stroke-linecap="round"/>
      <circle cx="40" cy="40" r="8" fill="#fff" stroke="#111" stroke-width="2.2"/>
      <circle cx="61" cy="40" r="8" fill="#fff" stroke="#111" stroke-width="2.2"/>
      <line x1="48" y1="40" x2="53" y2="40" stroke="#111" stroke-width="2.2"/>
      <line x1="69" y1="39" x2="76" y2="37" stroke="#111" stroke-width="2.2"/>
      <circle cx="40" cy="40" r="2.2" fill="#111"/>
      <circle cx="61" cy="40" r="2.2" fill="#111"/>
      <path d="M42 57 q8 6 16 0" fill="none" stroke="#111" stroke-width="2.2" stroke-linecap="round"/>
      <path d="M30 70 q20 14 40 0 l10 68 h-60 z" fill="#f4f1ea" stroke="#111" stroke-width="2.5"/>
      <path d="M50 72 l-6 10 l6 26 l6 -26 z" fill="#111"/>
    </symbol>
    <symbol id="doug" viewBox="0 0 110 150">
      <circle cx="52" cy="42" r="34" fill="#f4f1ea" stroke="#111" stroke-width="2.5"/>
      <path d="M30 16 q10 -6 20 -1 M56 15 q9 -5 18 1" fill="none" stroke="#111" stroke-width="2.5" stroke-linecap="round"/>
      <circle cx="42" cy="40" r="3" fill="#111"/>
      <circle cx="63" cy="40" r="3" fill="#111"/>
      <path d="M38 52 q14 16 30 0" fill="none" stroke="#111" stroke-width="2.5" stroke-linecap="round"/>
      <path d="M32 74 q20 12 40 0 l8 66 h-56 z" fill="#f4f1ea" stroke="#111" stroke-width="2.5"/>
      <rect x="70" y="104" width="26" height="22" rx="3" fill="#f4f1ea" stroke="#111" stroke-width="2.5"/>
      <path d="M96 108 q10 3 0 12" fill="none" stroke="#111" stroke-width="2.5"/>
      <path d="M74 104 q9 -5 18 0" fill="none" stroke="#111" stroke-width="2"/>
      <path d="M64 108 q6 10 6 18" fill="#f4f1ea" stroke="#111" stroke-width="2.5"/>
    </symbol>
    <symbol id="priya" viewBox="0 0 100 150">
      <path d="M20 34 q0 -26 30 -26 q30 0 30 26 q6 -18 -4 -24 q4 -10 -10 -12 q-16 -6 -32 2 q-16 4 -14 20 q-8 6 -0 14 z" fill="#111"/>
      <ellipse cx="50" cy="42" rx="26" ry="30" fill="#f4f1ea" stroke="#111" stroke-width="2.5"/>
      <path d="M22 30 q28 -14 56 0 l0 8 q-28 -12 -56 0 z" fill="#111"/>
      <rect x="30" y="38" width="16" height="11" rx="2" fill="#fff" stroke="#111" stroke-width="2.2"/>
      <rect x="54" y="38" width="16" height="11" rx="2" fill="#fff" stroke="#111" stroke-width="2.2"/>
      <line x1="46" y1="43" x2="54" y2="43" stroke="#111" stroke-width="2.2"/>
      <circle cx="38" cy="43.5" r="2" fill="#111"/>
      <circle cx="62" cy="43.5" r="2" fill="#111"/>
      <path d="M42 58 q8 5 16 0" fill="none" stroke="#111" stroke-width="2.2" stroke-linecap="round"/>
      <path d="M28 72 q22 14 44 0 l8 68 h-60 z" fill="#f4f1ea" stroke="#111" stroke-width="2.5"/>
      <line x1="40" y1="96" x2="60" y2="96" stroke="#111" stroke-width="2"/>
    </symbol>
    <symbol id="clanker" viewBox="0 0 100 100">
      <line x1="50" y1="6" x2="50" y2="18" stroke="#111" stroke-width="2.2"/>
      <circle cx="50" cy="5" r="3.5" fill="#111"/>
      <rect x="22" y="18" width="56" height="50" rx="7" fill="#cfd2d0" stroke="#111" stroke-width="2.5"/>
      <rect x="28" y="30" width="18" height="9" rx="2" fill="#8fd6d0" stroke="#111" stroke-width="2"/>
      <rect x="54" y="30" width="18" height="9" rx="2" fill="#8fd6d0" stroke="#111" stroke-width="2"/>
      <line x1="31" y1="52" x2="69" y2="52" stroke="#111" stroke-width="2"/>
      <line x1="31" y1="58" x2="69" y2="58" stroke="#111" stroke-width="2"/>
      <line x1="38" y1="49" x2="38" y2="61" stroke="#111" stroke-width="2"/>
      <line x1="50" y1="49" x2="50" y2="61" stroke="#111" stroke-width="2"/>
      <line x1="62" y1="49" x2="62" y2="61" stroke="#111" stroke-width="2"/>
    </symbol>
    <symbol id="fish" viewBox="0 0 60 34">
      <path d="M6 17 q18 -13 36 0 q-18 13 -36 0 z" fill="#f4f1ea" stroke="#111" stroke-width="2"/>
      <path d="M42 17 l12 -8 v16 z" fill="#f4f1ea" stroke="#111" stroke-width="2"/>
      <circle cx="16" cy="15" r="1.8" fill="#111"/>
      <path d="M24 12 q4 5 0 10" fill="none" stroke="#111" stroke-width="1.6"/>
    </symbol>
  </defs>

  <rect x="1" y="1" width="400" height="338" rx="3" fill="#f4f1ea" stroke="#111" stroke-width="2.5"/>
  <rect x="414" y="1" width="400" height="338" rx="3" fill="#f4f1ea" stroke="#111" stroke-width="2.5"/>
  <rect x="828" y="1" width="399" height="338" rx="3" fill="#f4f1ea" stroke="#111" stroke-width="2.5"/>

  <g>
    <rect x="30" y="150" width="150" height="105" rx="4" fill="#e9eef0" stroke="#111" stroke-width="2.5"/>
    <rect x="24" y="145" width="162" height="12" rx="3" fill="#f4f1ea" stroke="#111" stroke-width="2.5"/>
    <rect x="40" y="255" width="130" height="18" fill="#f4f1ea" stroke="#111" stroke-width="2.5"/>
    <line x1="30" y1="168" x2="180" y2="168" stroke="#111" stroke-width="1.6" opacity="0.5"/>
    <g opacity="0.28" stroke="#111" stroke-width="1">
      <line x1="40" y1="180" x2="60" y2="180"/><line x1="90" y1="200" x2="110" y2="200"/>
      <line x1="130" y1="176" x2="150" y2="176"/><line x1="70" y1="230" x2="88" y2="230"/>
    </g>
    <path d="M30 244 q75 -14 150 0 v11 h-150 z" fill="#d8ccb8" stroke="#111" stroke-width="1.5"/>
    <path d="M150 244 q-6 -30 4 -42 q-10 22 6 42 M158 244 q10 -24 2 -34" fill="none" stroke="#111" stroke-width="2" stroke-linecap="round"/>
    <use href="#fish" x="48" y="182" width="52" height="30"/>
    <use href="#fish" x="112" y="196" width="44" height="26"/>
    <use href="#fish" x="70" y="214" width="40" height="23"/>
    <use href="#doug" x="196" y="120" width="145" height="200"/>
    <path d="M212 40 h150 a10 10 0 0 1 10 10 v34 a10 10 0 0 1 -10 10 h-90 l-14 14 l2 -14 h-48 a10 10 0 0 1 -10 -10 v-34 a10 10 0 0 1 10 -10 z" fill="#fff" stroke="#111" stroke-width="2"/>
    <text x="287" y="60" font-family="'Comic Sans MS','Chalkboard SE','Comic Neue',sans-serif" font-size="14" text-anchor="middle" fill="#111">Morning, Kevin. Morning,</text>
    <text x="287" y="77" font-family="'Comic Sans MS','Chalkboard SE','Comic Neue',sans-serif" font-size="14" text-anchor="middle" fill="#111">Bubbles. Morning, Steve.</text>
  </g>

  <g>
    <line x1="414" y1="300" x2="814" y2="300" stroke="#111" stroke-width="2"/>
    <rect x="470" y="150" width="170" height="120" rx="6" fill="#1d2321" stroke="#111" stroke-width="2.5"/>
    <rect x="480" y="160" width="150" height="100" rx="3" fill="#232b28"/>
    <rect x="540" y="270" width="30" height="18" fill="#f4f1ea" stroke="#111" stroke-width="2.5"/>
    <rect x="515" y="288" width="80" height="10" rx="3" fill="#f4f1ea" stroke="#111" stroke-width="2.5"/>
    <use href="#clanker" x="497" y="172" width="76" height="76"/>
    <g stroke="#8fd6d0" stroke-width="1.6" opacity="0.85">
      <line x1="583" y1="182" x2="622" y2="182"/><line x1="583" y1="196" x2="618" y2="196"/>
      <line x1="583" y1="210" x2="622" y2="210"/>
    </g>
    <use href="#dailbert" x="640" y="150" width="130" height="185"/>
    <path d="M440 24 h150 a10 10 0 0 1 10 10 v30 a10 10 0 0 1 -10 10 h-70 l-12 14 l2 -14 h-70 a10 10 0 0 1 -10 -10 v-30 a10 10 0 0 1 10 -10 z" fill="#fff" stroke="#111" stroke-width="2"/>
    <text x="515" y="43" font-family="'Comic Sans MS','Chalkboard SE','Comic Neue',sans-serif" font-size="14" text-anchor="middle" fill="#111">The tank ledger lists</text>
    <text x="515" y="60" font-family="'Comic Sans MS','Chalkboard SE','Comic Neue',sans-serif" font-size="14" text-anchor="middle" fill="#111">three fish. None named.</text>
    <rect x="626" y="98" width="180" height="56" fill="#eef1f0" stroke="#111" stroke-width="2"/>
    <line x1="626" y1="98" x2="640" y2="150" stroke="#111" stroke-width="1.4" stroke-dasharray="4 4"/>
    <text x="716" y="118" font-family="'Comic Sans MS','Chalkboard SE','Comic Neue',sans-serif" font-size="13" text-anchor="middle" fill="#111">The names weren't</text>
    <text x="716" y="133" font-family="'Comic Sans MS','Chalkboard SE','Comic Neue',sans-serif" font-size="13" text-anchor="middle" fill="#111">consistent. I filed them</text>
    <text x="716" y="148" font-family="'Comic Sans MS','Chalkboard SE','Comic Neue',sans-serif" font-size="13" text-anchor="middle" fill="#111">as FISH-01 to 03.</text>
  </g>

  <g>
    <line x1="828" y1="300" x2="1226" y2="300" stroke="#111" stroke-width="2"/>
    <rect x="860" y="168" width="120" height="90" rx="5" fill="#1d2321" stroke="#111" stroke-width="2.5"/>
    <rect x="868" y="176" width="104" height="74" rx="3" fill="#232b28"/>
    <rect x="912" y="258" width="20" height="14" fill="#f4f1ea" stroke="#111" stroke-width="2.5"/>
    <rect x="895" y="272" width="54" height="9" rx="3" fill="#f4f1ea" stroke="#111" stroke-width="2.5"/>
    <use href="#clanker" x="884" y="184" width="60" height="60"/>
    <use href="#priya" x="960" y="150" width="128" height="185"/>
    <use href="#doug" x="1090" y="176" width="120" height="164"/>
    <path d="M842 22 h150 a10 10 0 0 1 10 10 v26 a10 10 0 0 1 -10 10 h-58 l-12 13 l2 -13 h-82 a10 10 0 0 1 -10 -10 v-26 a10 10 0 0 1 10 -10 z" fill="#fff" stroke="#111" stroke-width="2"/>
    <text x="917" y="41" font-family="'Comic Sans MS','Chalkboard SE','Comic Neue',sans-serif" font-size="14" text-anchor="middle" fill="#111">Put them back.</text>
    <text x="917" y="58" font-family="'Comic Sans MS','Chalkboard SE','Comic Neue',sans-serif" font-size="14" text-anchor="middle" fill="#111">Kevin has seniority.</text>
    <path d="M1050 96 h150 a10 10 0 0 1 10 10 v40 a10 10 0 0 1 -10 10 h-52 l-12 13 l2 -13 h-88 a10 10 0 0 1 -10 -10 v-40 a10 10 0 0 1 10 -10 z" fill="#fff" stroke="#111" stroke-width="2"/>
    <text x="1125" y="115" font-family="'Comic Sans MS','Chalkboard SE','Comic Neue',sans-serif" font-size="13" text-anchor="middle" fill="#111">Somebody's got to know</text>
    <text x="1125" y="130" font-family="'Comic Sans MS','Chalkboard SE','Comic Neue',sans-serif" font-size="13" text-anchor="middle" fill="#111">which one is which.</text>
    <text x="1125" y="147" font-family="'Comic Sans MS','Chalkboard SE','Comic Neue',sans-serif" font-size="13" text-anchor="middle" fill="#111">...anyway. Coffee.</text>
  </g>
</svg>