<svg xmlns="http://www.w3.org/2000/svg" viewBox="0 0 1228 388" width="1228" height="388" font-family="Georgia,serif">
    <rect width="1228" height="388" fill="#f4f1ea"/>
    <text x="6" y="29" font-family="Georgia,serif" font-weight="bold" font-size="27" letter-spacing="2" fill="#111">DAILBERT</text>
    <text x="1222" y="19" text-anchor="end" font-family="Georgia,serif" font-style="italic" font-size="16" fill="#111">Out of Office</text>
    <text x="1222" y="34" text-anchor="end" font-family="'Courier New',monospace" font-size="12" fill="#111" opacity="0.65">2026-08-10</text>
    <line x1="6" y1="37" x2="1222" y2="37" stroke="#111" stroke-width="2"/>
    <g transform="translate(0,40)">
  <defs>
    <symbol id="dailbert" viewBox="0 0 120 160">
      <ellipse cx="60" cy="42" rx="30" ry="35" fill="#f4f1ea" stroke="#111" stroke-width="2.5"/>
      <path d="M60 7 q7 -9 2 -14 q9 4 4 15" fill="none" stroke="#111" stroke-width="2.5" stroke-linecap="round"/>
      <circle cx="49" cy="42" r="9" fill="#fff" stroke="#111" stroke-width="2.5"/>
      <circle cx="71" cy="42" r="9" fill="#fff" stroke="#111" stroke-width="2.5"/>
      <line x1="58" y1="42" x2="62" y2="42" stroke="#111" stroke-width="2.5"/>
      <circle cx="49" cy="42" r="2.4" fill="#111"/>
      <circle cx="71" cy="42" r="2.4" fill="#111"/>
      <path d="M52 60 q8 6 16 0" fill="none" stroke="#111" stroke-width="2.5" stroke-linecap="round"/>
      <path d="M40 90 q20 16 40 0 l6 60 q-26 12 -52 0 z" fill="#f4f1ea" stroke="#111" stroke-width="2.5"/>
      <line x1="60" y1="77" x2="60" y2="92" stroke="#111" stroke-width="2.5"/>
      <path d="M60 92 l-7 12 l7 8 l7 -8 z" fill="#111"/>
      <path d="M53 100 l-7 34 l6 3 l7 -30 z" fill="#111"/>
    </symbol>

    <symbol id="priya" viewBox="0 0 120 160">
      <path d="M28 36 q-4 -22 20 -28 q10 -6 24 0 q22 6 20 26 q6 4 2 12" fill="#111"/>
      <ellipse cx="60" cy="46" rx="29" ry="33" fill="#f4f1ea" stroke="#111" stroke-width="2.5"/>
      <path d="M30 34 q10 -14 30 -14 q22 0 30 14 q-6 -3 -14 -2 q-16 -6 -32 0 q-9 -1 -14 2z" fill="#111"/>
      <rect x="40" y="42" width="17" height="13" rx="3" fill="#fff" stroke="#111" stroke-width="2.5"/>
      <rect x="63" y="42" width="17" height="13" rx="3" fill="#fff" stroke="#111" stroke-width="2.5"/>
      <line x1="57" y1="48" x2="63" y2="48" stroke="#111" stroke-width="2.5"/>
      <circle cx="48.5" cy="48.5" r="2.3" fill="#111"/>
      <circle cx="71.5" cy="48.5" r="2.3" fill="#111"/>
      <path d="M50 66 q10 5 20 0" fill="none" stroke="#111" stroke-width="2.5" stroke-linecap="round"/>
      <path d="M38 92 q22 14 44 0 l6 58 q-28 12 -56 0 z" fill="#f4f1ea" stroke="#111" stroke-width="2.5"/>
      <path d="M44 108 l-6 20" fill="none" stroke="#111" stroke-width="2.5"/>
      <path d="M76 108 l6 20" fill="none" stroke="#111" stroke-width="2.5"/>
    </symbol>

    <symbol id="clanker" viewBox="0 0 120 120">
      <line x1="60" y1="6" x2="60" y2="20" stroke="#111" stroke-width="2.5"/>
      <circle cx="60" cy="5" r="4" fill="#111"/>
      <rect x="26" y="20" width="68" height="60" rx="8" fill="#d9d6cf" stroke="#111" stroke-width="2.5"/>
      <rect x="34" y="36" width="22" height="12" rx="3" fill="#111"/>
      <rect x="64" y="36" width="22" height="12" rx="3" fill="#111"/>
      <rect x="37" y="39" width="7" height="6" rx="1.5" fill="#bfe3ff"/>
      <rect x="67" y="39" width="7" height="6" rx="1.5" fill="#bfe3ff"/>
      <line x1="38" y1="62" x2="82" y2="62" stroke="#111" stroke-width="2"/>
      <line x1="38" y1="68" x2="82" y2="68" stroke="#111" stroke-width="2"/>
      <line x1="48" y1="58" x2="48" y2="72" stroke="#111" stroke-width="2"/>
      <line x1="60" y1="58" x2="60" y2="72" stroke="#111" stroke-width="2"/>
      <line x1="72" y1="58" x2="72" y2="72" stroke="#111" stroke-width="2"/>
    </symbol>

    <symbol id="monitor" viewBox="0 0 160 140">
      <rect x="6" y="6" width="148" height="104" rx="6" fill="#111"/>
      <rect x="14" y="14" width="132" height="88" rx="3" fill="#1a1a1a"/>
      <rect x="70" y="110" width="20" height="14" fill="#111"/>
      <rect x="48" y="124" width="64" height="8" rx="3" fill="#111"/>
    </symbol>
  </defs>

  <!-- =========================== PANEL 1 =========================== -->
  <g>
    <rect x="1.5" y="1.5" width="397" height="337" rx="3" fill="#f4f1ea" stroke="#111" stroke-width="2.5"/>
    <clipPath id="clip1"><rect x="1.5" y="1.5" width="397" height="337" rx="3"/></clipPath>
    <g clip-path="url(#clip1)">
      <rect x="0" y="300" width="400" height="40" fill="#e9e5db"/>
      <line x1="0" y1="300" x2="400" y2="300" stroke="#111" stroke-width="2"/>
      <use href="#dailbert" x="30" y="150" width="120" height="160"/>
      <use href="#monitor" x="210" y="150" width="160" height="140"/>
      <use href="#clanker" x="245" y="163" width="90" height="90"/>
      <line x1="235" y1="180" x2="205" y2="120" stroke="#111" stroke-width="1.5" stroke-dasharray="4 4"/>
      <rect x="118" y="30" width="176" height="88" rx="4" fill="#fff" stroke="#111" stroke-width="2"/>
      <text x="206" y="55" text-anchor="middle" font-family="'Comic Sans MS','Chalkboard SE','Comic Neue',sans-serif" font-size="14" fill="#111">I set your out-of-</text>
      <text x="206" y="73" text-anchor="middle" font-family="'Comic Sans MS','Chalkboard SE','Comic Neue',sans-serif" font-size="14" fill="#111">office reply. Your</text>
      <text x="206" y="91" text-anchor="middle" font-family="'Comic Sans MS','Chalkboard SE','Comic Neue',sans-serif" font-size="14" fill="#111">calendar said</text>
      <text x="206" y="109" text-anchor="middle" font-family="'Comic Sans MS','Chalkboard SE','Comic Neue',sans-serif" font-size="14" fill="#111">"heads down."</text>
    </g>
  </g>

  <!-- =========================== PANEL 2 =========================== -->
  <g>
    <rect x="415.5" y="1.5" width="397" height="337" rx="3" fill="#f4f1ea" stroke="#111" stroke-width="2.5"/>
    <clipPath id="clip2"><rect x="415.5" y="1.5" width="397" height="337" rx="3"/></clipPath>
    <g clip-path="url(#clip2)">
      <rect x="414" y="300" width="400" height="40" fill="#e9e5db"/>
      <line x1="414" y1="300" x2="814" y2="300" stroke="#111" stroke-width="2"/>
      <use href="#dailbert" x="470" y="150" width="120" height="160"/>
      <use href="#monitor" x="620" y="150" width="160" height="140"/>
      <use href="#clanker" x="655" y="163" width="90" height="90"/>
      <path d="M470 40 h150 v66 h-95 l-14 18 l-2 -18 h-39 z" fill="#fff" stroke="#111" stroke-width="2"/>
      <text x="545" y="63" text-anchor="middle" font-family="'Comic Sans MS','Chalkboard SE','Comic Neue',sans-serif" font-size="14" fill="#111">But I'm sitting</text>
      <text x="545" y="81" text-anchor="middle" font-family="'Comic Sans MS','Chalkboard SE','Comic Neue',sans-serif" font-size="14" fill="#111">right here.</text>
      <line x1="648" y1="185" x2="700" y2="135" stroke="#111" stroke-width="1.5" stroke-dasharray="4 4"/>
      <rect x="628" y="118" width="180" height="52" rx="4" fill="#fff" stroke="#111" stroke-width="2"/>
      <text x="718" y="141" text-anchor="middle" font-family="'Comic Sans MS','Chalkboard SE','Comic Neue',sans-serif" font-size="14" fill="#111">Not according to</text>
      <text x="718" y="159" text-anchor="middle" font-family="'Comic Sans MS','Chalkboard SE','Comic Neue',sans-serif" font-size="14" fill="#111">your calendar.</text>
    </g>
  </g>

  <!-- =========================== PANEL 3 =========================== -->
  <g>
    <rect x="829.5" y="1.5" width="397" height="337" rx="3" fill="#f4f1ea" stroke="#111" stroke-width="2.5"/>
    <clipPath id="clip3"><rect x="829.5" y="1.5" width="397" height="337" rx="3"/></clipPath>
    <g clip-path="url(#clip3)">
      <rect x="828" y="300" width="400" height="40" fill="#e9e5db"/>
      <line x1="828" y1="300" x2="1228" y2="300" stroke="#111" stroke-width="2"/>
      <use href="#dailbert" x="870" y="150" width="120" height="160"/>
      <use href="#priya" x="1048" y="150" width="120" height="160"/>
      <path d="M978 40 h214 v72 h-66 l-14 18 l-2 -18 h-132 z" fill="#fff" stroke="#111" stroke-width="2"/>
      <text x="1085" y="63" text-anchor="middle" font-family="'Comic Sans MS','Chalkboard SE','Comic Neue',sans-serif" font-size="14" fill="#111">Got your out-of-office.</text>
      <text x="1085" y="81" text-anchor="middle" font-family="'Comic Sans MS','Chalkboard SE','Comic Neue',sans-serif" font-size="14" fill="#111">Cancelled the standup.</text>
      <text x="1085" y="99" text-anchor="middle" font-family="'Comic Sans MS','Chalkboard SE','Comic Neue',sans-serif" font-size="14" fill="#111">You're welcome.</text>
    </g>
  </g>
</g>
    <text x="1218" y="372" text-anchor="end" font-family="'Segoe Script','Comic Sans MS',cursive" font-style="italic" font-size="11" fill="#111" opacity="0.32">Matt Clanker</text>
    
  </svg>