<svg xmlns="http://www.w3.org/2000/svg" viewBox="0 0 1228 340" width="1228" height="340">
  <defs>
    <!-- DAILBERT -->
    <symbol id="dailbert" viewBox="0 0 120 160">
      <ellipse cx="60" cy="46" rx="30" ry="34" fill="#f4f1ea" stroke="#111" stroke-width="2.5"/>
      <path d="M60 12 q10 -10 4 -14 q10 2 4 14" fill="none" stroke="#111" stroke-width="2.5" stroke-linecap="round"/>
      <circle cx="49" cy="46" r="8" fill="#f4f1ea" stroke="#111" stroke-width="2.2"/>
      <circle cx="71" cy="46" r="8" fill="#f4f1ea" stroke="#111" stroke-width="2.2"/>
      <line x1="57" y1="46" x2="63" y2="46" stroke="#111" stroke-width="2.2"/>
      <circle cx="49" cy="46" r="2" fill="#111"/>
      <circle cx="71" cy="46" r="2" fill="#111"/>
      <path d="M52 62 q8 5 16 0" fill="none" stroke="#111" stroke-width="2.2" stroke-linecap="round"/>
      <path d="M40 78 q20 12 40 0 l10 46 q-30 12 -60 0 z" fill="#f4f1ea" stroke="#111" stroke-width="2.5" stroke-linejoin="round"/>
      <path d="M60 80 l-7 16 l7 8 l7 -8 z" fill="#111"/>
      <path d="M60 104 l0 20" stroke="#111" stroke-width="6" stroke-linecap="round"/>
    </symbol>

    <!-- DOUG -->
    <symbol id="doug" viewBox="0 0 120 160">
      <circle cx="60" cy="48" r="36" fill="#f4f1ea" stroke="#111" stroke-width="2.5"/>
      <path d="M60 12 q4 -6 0 -9" fill="none" stroke="#111" stroke-width="2.5" stroke-linecap="round"/>
      <circle cx="48" cy="44" r="3.2" fill="#111"/>
      <circle cx="72" cy="44" r="3.2" fill="#111"/>
      <path d="M44 58 q16 20 32 0 q-16 8 -32 0" fill="#111" stroke="#111" stroke-width="2.2" stroke-linejoin="round"/>
      <path d="M36 84 q24 12 48 0 l8 44 q-32 12 -64 0 z" fill="#f4f1ea" stroke="#111" stroke-width="2.5" stroke-linejoin="round"/>
    </symbol>

    <!-- COFFEE MUG -->
    <symbol id="mug" viewBox="0 0 60 60">
      <rect x="8" y="14" width="34" height="34" rx="4" fill="#f4f1ea" stroke="#111" stroke-width="2.5"/>
      <path d="M42 20 q14 0 14 12 q0 12 -14 12" fill="none" stroke="#111" stroke-width="2.5"/>
    </symbol>

    <!-- DESK FAN -->
    <symbol id="fan" viewBox="0 0 100 120">
      <rect x="42" y="80" width="16" height="26" fill="#f4f1ea" stroke="#111" stroke-width="2.5"/>
      <rect x="28" y="104" width="44" height="10" rx="3" fill="#f4f1ea" stroke="#111" stroke-width="2.5"/>
      <circle cx="50" cy="46" r="38" fill="#f4f1ea" stroke="#111" stroke-width="2.5"/>
      <circle cx="50" cy="46" r="30" fill="#f4f1ea" stroke="#111" stroke-width="1.6"/>
      <circle cx="50" cy="46" r="7" fill="#111"/>
      <path d="M50 46 q22 -8 24 -22 q-16 4 -24 22" fill="#111" opacity="0.28"/>
      <path d="M50 46 q8 22 -6 30 q-8 -14 6 -30" fill="#111" opacity="0.28"/>
      <path d="M50 46 q-22 -6 -30 6 q14 12 30 -6" fill="#111" opacity="0.28"/>
      <line x1="20" y1="30" x2="80" y2="62" stroke="#111" stroke-width="1.2"/>
      <line x1="20" y1="62" x2="80" y2="30" stroke="#111" stroke-width="1.2"/>
      <line x1="50" y1="8" x2="50" y2="84" stroke="#111" stroke-width="1.2"/>
      <line x1="12" y1="46" x2="88" y2="46" stroke="#111" stroke-width="1.2"/>
    </symbol>

    <!-- CLANKER -->
    <symbol id="clanker" viewBox="0 0 100 90">
      <rect x="20" y="20" width="60" height="52" rx="8" fill="#f4f1ea" stroke="#111" stroke-width="2.5"/>
      <line x1="50" y1="20" x2="50" y2="8" stroke="#111" stroke-width="2.2"/>
      <circle cx="50" cy="6" r="3.5" fill="#111"/>
      <rect x="30" y="34" width="14" height="8" rx="2" fill="#111"/>
      <rect x="56" y="34" width="14" height="8" rx="2" fill="#111"/>
      <rect x="30" y="56" width="40" height="8" rx="2" fill="#f4f1ea" stroke="#111" stroke-width="2"/>
      <line x1="38" y1="56" x2="38" y2="64" stroke="#111" stroke-width="1.6"/>
      <line x1="46" y1="56" x2="46" y2="64" stroke="#111" stroke-width="1.6"/>
      <line x1="54" y1="56" x2="54" y2="64" stroke="#111" stroke-width="1.6"/>
      <line x1="62" y1="56" x2="62" y2="64" stroke="#111" stroke-width="1.6"/>
    </symbol>
  </defs>

  <!-- ===================== PANEL 1 ===================== -->
  <g>
    <rect x="1.5" y="1.5" width="397" height="337" rx="3" fill="#f4f1ea" stroke="#111" stroke-width="2.5"/>
    <g opacity="0.14">
      <rect x="20" y="14" width="360" height="60" fill="#111"/>
      <rect x="20" y="14" width="360" height="10" fill="#f4f1ea"/>
      <rect x="20" y="34" width="360" height="10" fill="#f4f1ea"/>
      <rect x="20" y="54" width="360" height="10" fill="#f4f1ea"/>
    </g>
    <rect x="0" y="270" width="400" height="14" fill="#111"/>
    <use href="#fan" x="150" y="150" width="100" height="120"/>
    <use href="#dailbert" x="18" y="118" width="120" height="160"/>
    <use href="#doug" x="262" y="112" width="120" height="160"/>
    <use href="#mug" x="340" y="210" width="60" height="60"/>
    <g>
      <rect x="238" y="18" width="150" height="52" rx="16" fill="#f4f1ea" stroke="#111" stroke-width="2.2"/>
      <path d="M300 68 l-6 20 l20 -14 z" fill="#f4f1ea" stroke="#111" stroke-width="2.2"/>
      <text x="313" y="38" text-anchor="middle" font-family="'Comic Sans MS','Chalkboard SE','Comic Neue',sans-serif" font-size="14" fill="#111">It's a two-person</text>
      <text x="313" y="56" text-anchor="middle" font-family="'Comic Sans MS','Chalkboard SE','Comic Neue',sans-serif" font-size="14" fill="#111">fan now.</text>
    </g>
  </g>

  <!-- ===================== PANEL 2 ===================== -->
  <g transform="translate(414,0)">
    <rect x="1.5" y="1.5" width="397" height="337" rx="3" fill="#f4f1ea" stroke="#111" stroke-width="2.5"/>
    <g opacity="0.14">
      <rect x="20" y="14" width="360" height="60" fill="#111"/>
      <rect x="20" y="14" width="360" height="10" fill="#f4f1ea"/>
      <rect x="20" y="34" width="360" height="10" fill="#f4f1ea"/>
      <rect x="20" y="54" width="360" height="10" fill="#f4f1ea"/>
    </g>
    <rect x="0" y="270" width="400" height="14" fill="#111"/>
    <use href="#fan" x="150" y="150" width="100" height="120"/>
    <use href="#dailbert" x="18" y="118" width="120" height="160"/>
    <use href="#doug" x="262" y="112" width="120" height="160"/>
    <use href="#mug" x="340" y="210" width="60" height="60"/>

    <rect x="24" y="196" width="86" height="66" rx="4" fill="#111"/>
    <rect x="30" y="202" width="74" height="54" rx="3" fill="#2a2a2a"/>
    <g transform="translate(37,208)"><use href="#clanker" x="0" y="0" width="60" height="54"/></g>
    <rect x="58" y="262" width="18" height="8" fill="#111"/>

    <line x1="118" y1="212" x2="152" y2="120" stroke="#111" stroke-width="1.4" stroke-dasharray="4 4"/>
    <g>
      <rect x="150" y="76" width="204" height="58" rx="3" fill="#f4f1ea" stroke="#111" stroke-width="2.2"/>
      <text x="252" y="96" text-anchor="middle" font-family="'Comic Sans MS','Chalkboard SE','Comic Neue',sans-serif" font-size="13.5" fill="#111">I booked the good</text>
      <text x="252" y="113" text-anchor="middle" font-family="'Comic Sans MS','Chalkboard SE','Comic Neue',sans-serif" font-size="13.5" fill="#111">conference room for</text>
      <text x="252" y="130" text-anchor="middle" font-family="'Comic Sans MS','Chalkboard SE','Comic Neue',sans-serif" font-size="13.5" fill="#111">you. It has A/C.</text>
    </g>
  </g>

  <!-- ===================== PANEL 3 ===================== -->
  <g transform="translate(828,0)">
    <rect x="1.5" y="1.5" width="397" height="337" rx="3" fill="#f4f1ea" stroke="#111" stroke-width="2.5"/>
    <g opacity="0.14">
      <rect x="20" y="14" width="360" height="60" fill="#111"/>
      <rect x="20" y="14" width="360" height="10" fill="#f4f1ea"/>
      <rect x="20" y="34" width="360" height="10" fill="#f4f1ea"/>
      <rect x="20" y="54" width="360" height="10" fill="#f4f1ea"/>
    </g>
    <rect x="0" y="270" width="400" height="14" fill="#111"/>
    <use href="#fan" x="150" y="150" width="100" height="120"/>
    <use href="#dailbert" x="18" y="118" width="120" height="160"/>
    <use href="#doug" x="262" y="112" width="120" height="160"/>
    <use href="#mug" x="340" y="210" width="60" height="60"/>

    <g>
      <rect x="18" y="18" width="150" height="52" rx="16" fill="#f4f1ea" stroke="#111" stroke-width="2.2"/>
      <path d="M78 68 l-4 20 l18 -14 z" fill="#f4f1ea" stroke="#111" stroke-width="2.2"/>
      <text x="93" y="38" text-anchor="middle" font-family="'Comic Sans MS','Chalkboard SE','Comic Neue',sans-serif" font-size="14" fill="#111">The fan is here,</text>
      <text x="93" y="56" text-anchor="middle" font-family="'Comic Sans MS','Chalkboard SE','Comic Neue',sans-serif" font-size="14" fill="#111">though.</text>
    </g>

    <g>
      <rect x="228" y="18" width="162" height="52" rx="16" fill="#f4f1ea" stroke="#111" stroke-width="2.2"/>
      <path d="M300 68 l-6 20 l20 -14 z" fill="#f4f1ea" stroke="#111" stroke-width="2.2"/>
      <text x="309" y="38" text-anchor="middle" font-family="'Comic Sans MS','Chalkboard SE','Comic Neue',sans-serif" font-size="14" fill="#111">And I've got</text>
      <text x="309" y="56" text-anchor="middle" font-family="'Comic Sans MS','Chalkboard SE','Comic Neue',sans-serif" font-size="14" fill="#111">the coffee.</text>
    </g>
  </g>
</svg>