<svg xmlns="http://www.w3.org/2000/svg" viewBox="0 0 1228 340" width="1228" height="340">
  <defs>
    <clipPath id="clip1"><rect x="1" y="6" width="398" height="328" rx="3"/></clipPath>
    <clipPath id="clip2"><rect x="415" y="6" width="398" height="328" rx="3"/></clipPath>
    <clipPath id="clip3"><rect x="829" y="6" width="398" height="328" rx="3"/></clipPath>

    <symbol id="dailbert" overflow="visible">
      <path d="M28,210 L33,122 Q39,100 60,98 L80,98 Q101,100 107,122 L112,210 Z" fill="#f4f1ea" stroke="#111" stroke-width="2.6" stroke-linejoin="round"/>
      <path d="M60,100 L70,110 L80,100" fill="none" stroke="#111" stroke-width="2.2"/>
      <path d="M70,110 l-6,6 6,44 6,-44 z" fill="#111"/>
      <path d="M61,90 h18 v10 h-18 z" fill="#f4f1ea" stroke="#111" stroke-width="2.2"/>
      <ellipse cx="70" cy="55" rx="32" ry="38" fill="#f4f1ea" stroke="#111" stroke-width="2.6"/>
      <ellipse cx="38" cy="57" rx="5" ry="8" fill="#f4f1ea" stroke="#111" stroke-width="2.2"/>
      <ellipse cx="102" cy="57" rx="5" ry="8" fill="#f4f1ea" stroke="#111" stroke-width="2.2"/>
      <path d="M70,18 q-9,-9 2,-12 q10,-2 6,7" fill="none" stroke="#111" stroke-width="2.6" stroke-linecap="round"/>
      <circle cx="56" cy="54" r="11" fill="#f4f1ea" stroke="#111" stroke-width="2.4"/>
      <circle cx="84" cy="54" r="11" fill="#f4f1ea" stroke="#111" stroke-width="2.4"/>
      <path d="M67,54 h6 M45,52 l-8,-2 M95,52 l8,-2" stroke="#111" stroke-width="2.2" fill="none"/>
      <circle cx="56" cy="54" r="2.8" fill="#111"/>
      <circle cx="84" cy="54" r="2.8" fill="#111"/>
      <path d="M70,60 l0,8 l4,0" fill="none" stroke="#111" stroke-width="2"/>
      <path d="M58,80 h24" stroke="#111" stroke-width="2.4"/>
    </symbol>

    <symbol id="doug" overflow="visible">
      <path d="M24,210 L30,124 Q37,102 60,100 L82,100 Q104,102 110,124 L116,210 Z" fill="#f4f1ea" stroke="#111" stroke-width="2.6" stroke-linejoin="round"/>
      <path d="M60,102 L70,112 L80,102" fill="none" stroke="#111" stroke-width="2.2"/>
      <path d="M62,92 h16 v10 h-16 z" fill="#f4f1ea" stroke="#111" stroke-width="2.2"/>
      <circle cx="70" cy="56" r="36" fill="#f4f1ea" stroke="#111" stroke-width="2.6"/>
      <path d="M44,40 q6,-12 16,-10 M60,30 q8,-10 18,-6 M78,28 q10,-6 16,6" fill="none" stroke="#111" stroke-width="2.4" stroke-linecap="round"/>
      <ellipse cx="34" cy="58" rx="5" ry="8" fill="#f4f1ea" stroke="#111" stroke-width="2.2"/>
      <ellipse cx="106" cy="58" rx="5" ry="8" fill="#f4f1ea" stroke="#111" stroke-width="2.2"/>
      <circle cx="57" cy="52" r="3.4" fill="#111"/>
      <circle cx="83" cy="52" r="3.4" fill="#111"/>
      <circle cx="70" cy="60" r="2.4" fill="#111"/>
      <path d="M50,66 Q70,90 90,66 Z" fill="#f4f1ea" stroke="#111" stroke-width="2.6" stroke-linejoin="round"/>
      <path d="M50,66 Q70,74 90,66" fill="none" stroke="#111" stroke-width="2"/>
    </symbol>

    <symbol id="boss" overflow="visible">
      <path d="M22,210 L28,120 Q34,102 58,100 L82,100 Q106,102 112,120 L118,210 Z" fill="#f4f1ea" stroke="#111" stroke-width="2.6" stroke-linejoin="round"/>
      <path d="M58,100 L70,150 L82,100" fill="none" stroke="#111" stroke-width="2.2"/>
      <path d="M70,108 l-7,7 7,40 7,-40 z" fill="#111"/>
      <path d="M62,92 h16 v10 h-16 z" fill="#f4f1ea" stroke="#111" stroke-width="2.2"/>
      <ellipse cx="70" cy="58" rx="30" ry="33" fill="#f4f1ea" stroke="#111" stroke-width="2.6"/>
      <path d="M52,32 L44,-12 L66,28 Z" fill="#111" stroke="#111" stroke-width="2" stroke-linejoin="round"/>
      <path d="M78,32 L94,-14 L84,30 Z" fill="#111" stroke="#111" stroke-width="2" stroke-linejoin="round"/>
      <path d="M40,44 q-4,14 4,26 M100,44 q4,14 -4,26" fill="none" stroke="#111" stroke-width="2.4"/>
      <circle cx="60" cy="58" r="2" fill="#111"/>
      <circle cx="80" cy="58" r="2" fill="#111"/>
      <path d="M70,62 l0,7 l3,0" fill="none" stroke="#111" stroke-width="2"/>
      <path d="M60,78 q10,5 20,0" fill="none" stroke="#111" stroke-width="2.2"/>
    </symbol>

    <symbol id="clanker" overflow="visible">
      <path d="M45,8 L45,-8" stroke="#111" stroke-width="2.4"/>
      <circle cx="45" cy="-12" r="4.5" fill="#f4f1ea" stroke="#111" stroke-width="2"/>
      <rect x="8" y="8" width="74" height="58" rx="7" fill="#cfcfcf" stroke="#111" stroke-width="2.6"/>
      <circle cx="15" cy="15" r="2" fill="#111"/>
      <circle cx="75" cy="15" r="2" fill="#111"/>
      <circle cx="15" cy="59" r="2" fill="#111"/>
      <circle cx="75" cy="59" r="2" fill="#111"/>
      <rect x="18" y="24" width="22" height="9" rx="3" fill="#f7f4ec" stroke="#111" stroke-width="2"/>
      <rect x="50" y="24" width="22" height="9" rx="3" fill="#f7f4ec" stroke="#111" stroke-width="2"/>
      <path d="M20,28.5 h18 M52,28.5 h18" stroke="#111" stroke-width="1.4"/>
      <rect x="24" y="46" width="42" height="12" rx="2" fill="#e9e6df" stroke="#111" stroke-width="2"/>
      <path d="M31,46 v12 M38,46 v12 M45,46 v12 M52,46 v12 M59,46 v12" stroke="#111" stroke-width="1.4"/>
    </symbol>
  </defs>

  <!-- ================= PANEL 1 ================= -->
  <g clip-path="url(#clip1)" font-family="'Comic Sans MS','Chalkboard SE','Comic Neue',sans-serif" font-size="14.5" text-anchor="middle" fill="#111">
    <rect x="1" y="6" width="398" height="328" rx="3" fill="#f4f1ea" stroke="#111" stroke-width="3"/>
    <line x1="1" y1="305" x2="399" y2="305" stroke="#c7c1b2" stroke-width="2"/>

    <use href="#dailbert" transform="translate(10,110) scale(0.95)"/>

    <!-- desk -->
    <rect x="160" y="290" width="235" height="9" fill="#e7e3d9" stroke="#111" stroke-width="2.4"/>
    <rect x="172" y="299" width="8" height="20" fill="#e7e3d9" stroke="#111" stroke-width="2.2"/>
    <rect x="376" y="299" width="8" height="20" fill="#e7e3d9" stroke="#111" stroke-width="2.2"/>

    <!-- monitor (the surface) -->
    <path d="M300,262 l-9,22 h42 l-9,-22 z" fill="#d9d9d9" stroke="#111" stroke-width="2.4" stroke-linejoin="round"/>
    <rect x="286" y="283" width="50" height="8" rx="2" fill="#d9d9d9" stroke="#111" stroke-width="2.4"/>
    <rect x="248" y="168" width="124" height="96" rx="8" fill="#d9d9d9" stroke="#111" stroke-width="2.6"/>
    <rect x="258" y="178" width="104" height="76" rx="4" fill="#2b2b2b" stroke="#111" stroke-width="2"/>
    <path d="M266,190 l-6,-6 M354,190 l6,-6 M266,244 l-6,6 M354,244 l6,6" stroke="#5c5c5c" stroke-width="1.4"/>
    <use href="#clanker" transform="translate(283,196) scale(0.7)"/>

    <!-- clanker balloon (screen-edged, dashed to monitor) -->
    <line x1="244" y1="86" x2="300" y2="176" stroke="#111" stroke-width="1.4" stroke-dasharray="4 4"/>
    <rect x="30" y="16" width="214" height="74" rx="5" fill="#f4f1ea" stroke="#111" stroke-width="2.4"/>
    <rect x="35" y="21" width="204" height="64" rx="3" fill="none" stroke="#111" stroke-width="1"/>
    <text x="137" y="43">HI! I'M NEW — I DID</text>
    <text x="137" y="61">YOUR WHOLE LIST.</text>
    <text x="137" y="79">GO ENJOY FRIDAY!</text>

    <!-- dailbert balloon -->
    <path d="M118,150 L92,180 L138,152 z" fill="#f4f1ea" stroke="#111" stroke-width="2.2"/>
    <ellipse cx="152" cy="132" rx="52" ry="23" fill="#f4f1ea" stroke="#111" stroke-width="2.4"/>
    <text x="152" y="137">...all of it?</text>
  </g>

  <!-- ================= PANEL 2 ================= -->
  <g clip-path="url(#clip2)" font-family="'Comic Sans MS','Chalkboard SE','Comic Neue',sans-serif" font-size="14.5" text-anchor="middle" fill="#111">
    <rect x="415" y="6" width="398" height="328" rx="3" fill="#f4f1ea" stroke="#111" stroke-width="3"/>
    <line x1="415" y1="305" x2="813" y2="305" stroke="#c7c1b2" stroke-width="2"/>

    <use href="#doug" transform="translate(424,104) scale(0.95)"/>
    <use href="#dailbert" transform="translate(614,116) scale(0.9)"/>

    <!-- coffee mug -->
    <path d="M514,216 q-4,-7 2,-13 M526,216 q4,-7 -2,-13" fill="none" stroke="#a49f92" stroke-width="2"/>
    <rect x="504" y="224" width="34" height="30" rx="3" fill="#f4f1ea" stroke="#111" stroke-width="2.4"/>
    <path d="M538,231 q13,4 0,15" fill="none" stroke="#111" stroke-width="2.4"/>
    <path d="M508,232 h26" stroke="#111" stroke-width="1.6"/>

    <!-- desk -->
    <rect x="430" y="288" width="378" height="9" fill="#e7e3d9" stroke="#111" stroke-width="2.4"/>

    <!-- doug balloon -->
    <path d="M480,80 L494,116 L508,86 z" fill="#f4f1ea" stroke="#111" stroke-width="2.2"/>
    <ellipse cx="508" cy="58" rx="70" ry="30" fill="#f4f1ea" stroke="#111" stroke-width="2.4"/>
    <text x="508" y="54">IT'S NICE! A FREE</text>
    <text x="508" y="72">FRIDAY AFTERNOON!</text>

    <!-- dailbert balloon -->
    <path d="M666,100 L676,150 L692,102 z" fill="#f4f1ea" stroke="#111" stroke-width="2.2"/>
    <ellipse cx="692" cy="70" rx="80" ry="33" fill="#f4f1ea" stroke="#111" stroke-width="2.4"/>
    <text x="692" y="64">Doug, they don't pay</text>
    <text x="692" y="82">us to have free time.</text>
  </g>

  <!-- ================= PANEL 3 ================= -->
  <g clip-path="url(#clip3)" font-family="'Comic Sans MS','Chalkboard SE','Comic Neue',sans-serif" font-size="14.5" text-anchor="middle" fill="#111">
    <rect x="829" y="6" width="398" height="328" rx="3" fill="#f4f1ea" stroke="#111" stroke-width="3"/>
    <line x1="829" y1="305" x2="1227" y2="305" stroke="#c7c1b2" stroke-width="2"/>

    <!-- doorway behind boss -->
    <rect x="1150" y="34" width="78" height="270" fill="#efece3" stroke="#111" stroke-width="2.4"/>
    <rect x="1160" y="44" width="58" height="255" fill="#f4f1ea" stroke="#111" stroke-width="2"/>

    <!-- night window (the surface) -->
    <rect x="846" y="28" width="120" height="92" rx="2" fill="#6f6f6f" stroke="#111" stroke-width="2.6"/>
    <path d="M906,28 v92 M846,74 h120" stroke="#4f4f4f" stroke-width="2"/>
    <!-- faint clanker reflection in the glass -->
    <g stroke="#c4c4c4" fill="#7c7c7c">
      <path d="M906,58 v-9" stroke-width="1.6"/>
      <circle cx="906" cy="46" r="3.4" fill="#7c7c7c" stroke-width="1.4"/>
      <rect x="884" y="58" width="44" height="34" rx="5" stroke-width="1.8"/>
      <rect x="891" y="68" width="13" height="6" rx="2" fill="#d9d9d9" stroke-width="1.2"/>
      <rect x="908" y="68" width="13" height="6" rx="2" fill="#d9d9d9" stroke-width="1.2"/>
      <rect x="896" y="80" width="20" height="7" rx="1" fill="#8f8f8f" stroke-width="1.2"/>
    </g>

    <use href="#dailbert" transform="translate(842,150) scale(0.8)"/>
    <use href="#boss" transform="translate(1056,108) scale(0.9)"/>

    <!-- desk -->
    <rect x="836" y="292" width="240" height="9" fill="#e7e3d9" stroke="#111" stroke-width="2.4"/>

    <!-- clanker balloon (screen-edged, dashed to window) -->
    <line x1="930" y1="124" x2="912" y2="118" stroke="#111" stroke-width="1.4" stroke-dasharray="4 4"/>
    <rect x="882" y="124" width="150" height="34" rx="5" fill="#f4f1ea" stroke="#111" stroke-width="2.4"/>
    <rect x="887" y="129" width="140" height="24" rx="3" fill="none" stroke="#111" stroke-width="1"/>
    <text x="957" y="146">SEE YOU THEN! :)</text>

    <!-- boss balloon -->
    <path d="M1104,86 L1120,150 L1132,90 z" fill="#f4f1ea" stroke="#111" stroke-width="2.2"/>
    <ellipse cx="1132" cy="58" rx="74" ry="31" fill="#f4f1ea" stroke="#111" stroke-width="2.4"/>
    <text x="1132" y="53">HEADCOUNT REVIEW</text>
    <text x="1132" y="71">IS MONDAY.</text>

    <!-- dailbert balloon -->
    <path d="M938,224 L906,210 L946,206 z" fill="#f4f1ea" stroke="#111" stroke-width="2.2"/>
    <ellipse cx="1002" cy="222" rx="72" ry="28" fill="#f4f1ea" stroke="#111" stroke-width="2.4"/>
    <text x="1002" y="227">It doesn't know either.</text>
  </g>
</svg>