<svg xmlns="http://www.w3.org/2000/svg" viewBox="0 0 1228 340" width="1228" height="340">
  <defs>
    <symbol id="dailbert" viewBox="0 0 100 130">
      <path d="M30 130 Q30 92 50 92 Q70 92 70 130 Z" fill="#f4f1ea" stroke="#111" stroke-width="2.4" stroke-linejoin="round"/>
      <path d="M50 94 L45 104 L50 120 L55 104 Z" fill="#111"/>
      <path d="M47 93 L50 97 L53 93 Z" fill="#111"/>
      <rect x="45" y="84" width="10" height="10" fill="#f4f1ea" stroke="#111" stroke-width="2.2"/>
      <ellipse cx="50" cy="58" rx="26" ry="30" fill="#f4f1ea" stroke="#111" stroke-width="2.6"/>
      <path d="M50 28 Q52 20 60 22 Q54 25 57 31" fill="none" stroke="#111" stroke-width="2.4" stroke-linecap="round"/>
      <circle cx="40" cy="57" r="8" fill="#fff" stroke="#111" stroke-width="2.2"/>
      <circle cx="60" cy="57" r="8" fill="#fff" stroke="#111" stroke-width="2.2"/>
      <line x1="48" y1="57" x2="52" y2="57" stroke="#111" stroke-width="2.2"/>
      <line x1="32" y1="55" x2="26" y2="52" stroke="#111" stroke-width="2.2"/>
      <circle cx="40" cy="57" r="1.8" fill="#111"/>
      <circle cx="60" cy="57" r="1.8" fill="#111"/>
      <path d="M42 74 Q50 78 58 74" fill="none" stroke="#111" stroke-width="2.2" stroke-linecap="round"/>
    </symbol>

    <symbol id="doug" viewBox="0 0 100 130">
      <path d="M28 130 Q28 90 50 90 Q72 90 72 130 Z" fill="#f4f1ea" stroke="#111" stroke-width="2.4" stroke-linejoin="round"/>
      <rect x="45" y="82" width="10" height="10" fill="#f4f1ea" stroke="#111" stroke-width="2.2"/>
      <circle cx="50" cy="55" r="30" fill="#f4f1ea" stroke="#111" stroke-width="2.6"/>
      <circle cx="41" cy="52" r="2.6" fill="#111"/>
      <circle cx="59" cy="52" r="2.6" fill="#111"/>
      <path d="M38 62 Q50 76 62 62" fill="none" stroke="#111" stroke-width="2.4" stroke-linecap="round"/>
      <g>
        <rect x="60" y="104" width="20" height="18" rx="2" fill="#f4f1ea" stroke="#111" stroke-width="2.2"/>
        <path d="M80 108 q8 0 8 5 t-8 5" fill="none" stroke="#111" stroke-width="2.2"/>
        <path d="M64 100 q2 -5 5 0" fill="none" stroke="#111" stroke-width="1.6" stroke-linecap="round"/>
        <path d="M71 100 q2 -5 5 0" fill="none" stroke="#111" stroke-width="1.6" stroke-linecap="round"/>
      </g>
    </symbol>

    <symbol id="priya" viewBox="0 0 100 130">
      <path d="M28 130 Q28 90 50 90 Q72 90 72 130 Z" fill="#f4f1ea" stroke="#111" stroke-width="2.4" stroke-linejoin="round"/>
      <path d="M32 108 l-6 6 M68 108 l6 6" stroke="#111" stroke-width="2.2" stroke-linecap="round"/>
      <rect x="45" y="82" width="10" height="10" fill="#f4f1ea" stroke="#111" stroke-width="2.2"/>
      <ellipse cx="50" cy="56" rx="26" ry="29" fill="#f4f1ea" stroke="#111" stroke-width="2.6"/>
      <path d="M25 50 Q22 26 50 24 Q78 26 75 50 Q70 38 62 36 Q66 30 55 30 Q60 34 50 33 Q40 34 45 30 Q34 30 38 36 Q30 38 25 50 Z" fill="#111" stroke="#111" stroke-width="2"/>
      <path d="M50 24 Q52 14 60 16 Q54 18 56 24" fill="#111" stroke="#111" stroke-width="1.6"/>
      <circle cx="58" cy="15" r="4" fill="#111"/>
      <rect x="32" y="52" width="15" height="11" rx="1.5" fill="#fff" stroke="#111" stroke-width="2.2"/>
      <rect x="53" y="52" width="15" height="11" rx="1.5" fill="#fff" stroke="#111" stroke-width="2.2"/>
      <line x1="47" y1="57" x2="53" y2="57" stroke="#111" stroke-width="2.2"/>
      <circle cx="39.5" cy="57.5" r="1.8" fill="#111"/>
      <circle cx="60.5" cy="57.5" r="1.8" fill="#111"/>
      <path d="M43 73 Q50 75 57 73" fill="none" stroke="#111" stroke-width="2.2" stroke-linecap="round"/>
    </symbol>

    <symbol id="clanker" viewBox="0 0 100 90">
      <rect x="18" y="20" width="64" height="54" rx="6" fill="#1c1c1c" stroke="#dcdcdc" stroke-width="2.4"/>
      <line x1="50" y1="20" x2="50" y2="8" stroke="#dcdcdc" stroke-width="2.4"/>
      <circle cx="50" cy="6" r="3" fill="#dcdcdc"/>
      <rect x="28" y="34" width="16" height="7" rx="3" fill="#bfe9ff"/>
      <rect x="56" y="34" width="16" height="7" rx="3" fill="#bfe9ff"/>
      <line x1="34" y1="58" x2="66" y2="58" stroke="#bcbcbc" stroke-width="2"/>
      <line x1="38" y1="53" x2="38" y2="63" stroke="#bcbcbc" stroke-width="1.6"/>
      <line x1="44" y1="53" x2="44" y2="63" stroke="#bcbcbc" stroke-width="1.6"/>
      <line x1="50" y1="53" x2="50" y2="63" stroke="#bcbcbc" stroke-width="1.6"/>
      <line x1="56" y1="53" x2="56" y2="63" stroke="#bcbcbc" stroke-width="1.6"/>
      <line x1="62" y1="53" x2="62" y2="63" stroke="#bcbcbc" stroke-width="1.6"/>
    </symbol>
  </defs>

  <rect x="1.5" y="1.5" width="397" height="337" rx="3" fill="#f4f1ea" stroke="#111" stroke-width="2.6"/>
  <rect x="415.5" y="1.5" width="397" height="337" rx="3" fill="#f4f1ea" stroke="#111" stroke-width="2.6"/>
  <rect x="829.5" y="1.5" width="397" height="337" rx="3" fill="#f4f1ea" stroke="#111" stroke-width="2.6"/>

  <g>
    <rect x="0" y="292" width="400" height="10" fill="#111"/>
    <use href="#dailbert" x="40" y="150" width="120" height="156"/>
    <rect x="250" y="150" width="118" height="92" rx="5" fill="#1c1c1c" stroke="#111" stroke-width="3"/>
    <rect x="256" y="156" width="106" height="80" rx="3" fill="#232323"/>
    <rect x="298" y="242" width="22" height="14" fill="#111"/>
    <rect x="278" y="256" width="62" height="6" rx="2" fill="#111"/>
    <use href="#clanker" x="272" y="160" width="76" height="68"/>
    <g>
      <path d="M150 40 h150 a10 10 0 0 1 10 10 v40 a10 10 0 0 1 -10 10 h-70 l-16 16 l0 -16 h-64 a10 10 0 0 1 -10 -10 v-40 a10 10 0 0 1 10 -10 Z" fill="#fff" stroke="#111" stroke-width="2.2"/>
      <text x="225" y="60" text-anchor="middle" font-family="'Comic Sans MS','Chalkboard SE','Comic Neue',sans-serif" font-size="14" fill="#111">Setting my status to</text>
      <text x="225" y="79" text-anchor="middle" font-family="'Comic Sans MS','Chalkboard SE','Comic Neue',sans-serif" font-size="14" fill="#111">"heads down, do not</text>
      <text x="225" y="98" text-anchor="middle" font-family="'Comic Sans MS','Chalkboard SE','Comic Neue',sans-serif" font-size="14" fill="#111">disturb" for the day.</text>
    </g>
  </g>

  <g>
    <rect x="414" y="292" width="400" height="10" fill="#111"/>
    <use href="#doug" x="470" y="150" width="120" height="156"/>
    <use href="#dailbert" x="640" y="150" width="120" height="156"/>
    <rect x="700" y="150" width="96" height="72" rx="4" fill="#2a2a2a" stroke="#111" stroke-width="2.6"/>
    <use href="#clanker" x="716" y="156" width="64" height="58"/>
    <line x1="726" y1="150" x2="700" y2="118" stroke="#111" stroke-width="1.4" stroke-dasharray="4 4"/>
    <g>
      <rect x="500" y="26" width="252" height="88" rx="2" fill="#fff" stroke="#111" stroke-width="2.2"/>
      <text x="626" y="47" text-anchor="middle" font-family="'Comic Sans MS','Chalkboard SE','Comic Neue',sans-serif" font-size="13.5" fill="#111">You said do not disturb.</text>
      <text x="626" y="66" text-anchor="middle" font-family="'Comic Sans MS','Chalkboard SE','Comic Neue',sans-serif" font-size="13.5" fill="#111">I moved your 11 meetings,</text>
      <text x="626" y="85" text-anchor="middle" font-family="'Comic Sans MS','Chalkboard SE','Comic Neue',sans-serif" font-size="13.5" fill="#111">held your tickets, and told</text>
      <text x="626" y="104" text-anchor="middle" font-family="'Comic Sans MS','Chalkboard SE','Comic Neue',sans-serif" font-size="13.5" fill="#111">Doug you left the country.</text>
    </g>
    <g>
      <path d="M436 210 h120 a9 9 0 0 1 9 9 v30 a9 9 0 0 1 -9 9 h-70 l-14 14 l0 -14 h-36 a9 9 0 0 1 -9 -9 v-30 a9 9 0 0 1 9 -9 Z" fill="#fff" stroke="#111" stroke-width="2.2"/>
      <text x="500" y="230" text-anchor="middle" font-family="'Comic Sans MS','Chalkboard SE','Comic Neue',sans-serif" font-size="13.5" fill="#111">Bon voyage,</text>
      <text x="500" y="249" text-anchor="middle" font-family="'Comic Sans MS','Chalkboard SE','Comic Neue',sans-serif" font-size="13.5" fill="#111">buddy.</text>
    </g>
  </g>

  <g>
    <rect x="828" y="292" width="400" height="10" fill="#111"/>
    <use href="#priya" x="880" y="150" width="120" height="156"/>
    <g>
      <rect x="1000" y="230" width="120" height="10" rx="2" fill="#111"/>
      <rect x="1010" y="176" width="100" height="58" rx="3" fill="#1c1c1c" stroke="#111" stroke-width="2.6"/>
      <use href="#clanker" x="1028" y="180" width="64" height="52"/>
    </g>
    <line x1="1040" y1="176" x2="1030" y2="150" stroke="#111" stroke-width="1.4" stroke-dasharray="4 4"/>
    <g>
      <rect x="852" y="22" width="230" height="72" rx="2" fill="#fff" stroke="#111" stroke-width="2.2"/>
      <text x="967" y="43" text-anchor="middle" font-family="'Comic Sans MS','Chalkboard SE','Comic Neue',sans-serif" font-size="13.5" fill="#111">Your status is blank,</text>
      <text x="967" y="62" text-anchor="middle" font-family="'Comic Sans MS','Chalkboard SE','Comic Neue',sans-serif" font-size="13.5" fill="#111">Priya. Shall I fill</text>
      <text x="967" y="81" text-anchor="middle" font-family="'Comic Sans MS','Chalkboard SE','Comic Neue',sans-serif" font-size="13.5" fill="#111">it in for you?</text>
    </g>
    <g>
      <path d="M840 150 h150 a9 9 0 0 1 9 9 v28 a9 9 0 0 1 -9 9 h-96 l-14 14 l0 -14 h-40 a9 9 0 0 1 -9 -9 v-28 a9 9 0 0 1 9 -9 Z" fill="#fff" stroke="#111" stroke-width="2.2"/>
      <text x="915" y="170" text-anchor="middle" font-family="'Comic Sans MS','Chalkboard SE','Comic Neue',sans-serif" font-size="13.5" fill="#111">It's blank on</text>
      <text x="915" y="189" text-anchor="middle" font-family="'Comic Sans MS','Chalkboard SE','Comic Neue',sans-serif" font-size="13.5" fill="#111">purpose.</text>
    </g>
  </g>
</svg>