<svg xmlns="http://www.w3.org/2000/svg" viewBox="0 0 1228 340" width="1228" height="340">
  <defs>
    <!-- ===== DAILBERT ===== -->
    <symbol id="dailbert" width="120" height="210" overflow="visible">
      <path d="M58,16 c -10,-6 -6,-18 4,-14 c 6,3 2,9 -2,7" fill="none" stroke="#111" stroke-width="2.4" stroke-linecap="round"/>
      <ellipse cx="60" cy="44" rx="25" ry="31" fill="#f4f1ea" stroke="#111" stroke-width="2.5"/>
      <path d="M30,112 Q60,86 90,112 L90,200 L30,200 Z" fill="#f4f1ea" stroke="#111" stroke-width="2.5" stroke-linejoin="round"/>
      <path d="M52,86 L60,100 L68,86" fill="none" stroke="#111" stroke-width="2.2" stroke-linejoin="round"/>
      <path d="M60,100 L55,108 L60,150 L65,108 Z" fill="#111"/>
      <rect x="54" y="74" width="12" height="12" fill="#f4f1ea" stroke="#111" stroke-width="2"/>
      <circle cx="49" cy="44" r="9" fill="#f4f1ea" stroke="#111" stroke-width="2"/>
      <circle cx="71" cy="44" r="9" fill="#f4f1ea" stroke="#111" stroke-width="2"/>
      <path d="M58,44 h4 M80,44 L86,42" stroke="#111" stroke-width="2" fill="none"/>
      <circle cx="49" cy="44" r="2.2" fill="#111"/>
      <circle cx="71" cy="44" r="2.2" fill="#111"/>
      <path d="M60,49 L57,55 L61,55" fill="none" stroke="#111" stroke-width="1.6" stroke-linejoin="round"/>
      <path d="M53,63 Q60,66 67,63" fill="none" stroke="#111" stroke-width="2" stroke-linecap="round"/>
    </symbol>

    <!-- ===== DOUG ===== -->
    <symbol id="doug" width="130" height="210" overflow="visible">
      <path d="M54,16 l0,-7 M62,15 l3,-7" stroke="#111" stroke-width="2.2" stroke-linecap="round"/>
      <circle cx="60" cy="44" r="30" fill="#f4f1ea" stroke="#111" stroke-width="2.5"/>
      <path d="M30,112 Q60,86 90,112 L90,200 L30,200 Z" fill="#f4f1ea" stroke="#111" stroke-width="2.5" stroke-linejoin="round"/>
      <path d="M52,86 L60,100 L68,86" fill="none" stroke="#111" stroke-width="2.2" stroke-linejoin="round"/>
      <rect x="54" y="74" width="12" height="12" fill="#f4f1ea" stroke="#111" stroke-width="2"/>
      <circle cx="49" cy="40" r="2.6" fill="#111"/>
      <circle cx="71" cy="40" r="2.6" fill="#111"/>
      <path d="M45,50 Q60,69 75,50" fill="none" stroke="#111" stroke-width="2.4" stroke-linecap="round"/>
      <path d="M51,56 Q60,61 69,56" fill="none" stroke="#111" stroke-width="1.8" stroke-linecap="round"/>
      <!-- mug -->
      <rect x="84" y="120" width="22" height="22" rx="2" fill="#f4f1ea" stroke="#111" stroke-width="2.2"/>
      <path d="M106,124 q9,3 0,14" fill="none" stroke="#111" stroke-width="2.2"/>
      <path d="M90,116 q3,-5 0,-9 M98,116 q3,-5 0,-9" fill="none" stroke="#111" stroke-width="1.4" stroke-linecap="round"/>
      <circle cx="86" cy="132" r="6" fill="#f4f1ea" stroke="#111" stroke-width="2"/>
    </symbol>

    <!-- ===== BOSS ===== -->
    <symbol id="boss" width="120" height="210" overflow="visible">
      <ellipse cx="60" cy="46" rx="24" ry="27" fill="#f4f1ea" stroke="#111" stroke-width="2.5"/>
      <path d="M44,26 L52,-6 L60,24 Z" fill="#111"/>
      <path d="M60,24 L68,-6 L76,26 Z" fill="#111"/>
      <path d="M28,112 Q60,84 92,112 L92,200 L28,200 Z" fill="#f4f1ea" stroke="#111" stroke-width="2.5" stroke-linejoin="round"/>
      <path d="M52,84 L40,120 M68,84 L80,120" fill="none" stroke="#111" stroke-width="2.2"/>
      <path d="M60,84 L55,92 L60,150 L65,92 Z" fill="#111"/>
      <rect x="54" y="72" width="12" height="12" fill="#f4f1ea" stroke="#111" stroke-width="2"/>
      <circle cx="52" cy="46" r="1.8" fill="#111"/>
      <circle cx="68" cy="46" r="1.8" fill="#111"/>
      <path d="M46,40 L57,41 M63,41 L74,40" stroke="#111" stroke-width="1.8" fill="none"/>
      <path d="M60,50 L57,56 L61,56" fill="none" stroke="#111" stroke-width="1.5" stroke-linejoin="round"/>
      <path d="M54,62 L66,62" stroke="#111" stroke-width="2" stroke-linecap="round"/>
    </symbol>

    <!-- ===== THE CLANKER (grey reflection) ===== -->
    <symbol id="clanker" width="120" height="110" overflow="visible">
      <path d="M60,20 L60,8" stroke="#8a8a8a" stroke-width="2"/>
      <circle cx="60" cy="5" r="3" fill="#8a8a8a"/>
      <rect x="30" y="26" width="60" height="58" rx="7" fill="#c4c1b9" stroke="#6f6f6f" stroke-width="2"/>
      <path d="M30,40 h60" stroke="#8f8f8f" stroke-width="1.4"/>
      <circle cx="36" cy="33" r="2" fill="#8a8a8a"/>
      <circle cx="84" cy="33" r="2" fill="#8a8a8a"/>
      <path d="M34,44 l-4,-3 M32,52 l-5,1 M86,44 l4,-3 M88,52 l5,1" stroke="#9a9a9a" stroke-width="1.2"/>
      <rect x="38" y="45" width="16" height="7" rx="3" fill="#f1eee6" stroke="#7a7a7a" stroke-width="1.4"/>
      <rect x="66" y="45" width="16" height="7" rx="3" fill="#f1eee6" stroke="#7a7a7a" stroke-width="1.4"/>
      <rect x="44" y="64" width="32" height="12" rx="2" fill="#b0ada5" stroke="#7a7a7a" stroke-width="1.4"/>
      <path d="M50,64 v12 M56,64 v12 M62,64 v12 M68,64 v12" stroke="#7a7a7a" stroke-width="1.1"/>
    </symbol>
  </defs>

  <!-- ================= PANEL 1 ================= -->
  <g>
    <rect x="0" y="0" width="400" height="340" rx="3" fill="#f4f1ea" stroke="#111" stroke-width="2.5"/>
    <path d="M8,300 L392,300" stroke="#111" stroke-width="1.4" opacity="0.4"/>

    <!-- org chart on wall -->
    <g>
      <rect x="40" y="30" width="150" height="108" rx="3" fill="#f4f1ea" stroke="#111" stroke-width="2"/>
      <text x="115" y="45" text-anchor="middle" font-family="'Comic Sans MS','Segoe Print',cursive" font-size="9" fill="#111">TEAM</text>
      <rect x="98" y="50" width="34" height="15" fill="#f4f1ea" stroke="#111" stroke-width="1.6"/>
      <circle cx="115" cy="57" r="3" fill="#111"/>
      <path d="M115,65 L115,74 M70,74 L160,74 M70,74 L70,82 M160,74 L160,82" stroke="#111" stroke-width="1.4" fill="none"/>
      <rect x="55" y="82" width="30" height="13" fill="#f4f1ea" stroke="#111" stroke-width="1.6"/>
      <circle cx="70" cy="88" r="2.5" fill="#111"/>
      <rect x="145" y="82" width="30" height="13" fill="#f4f1ea" stroke="#111" stroke-width="1.6"/>
      <circle cx="160" cy="88" r="2.5" fill="#111"/>
      <path d="M70,95 L70,104 M160,95 L160,104 M60,104 L82,104 M150,104 L172,104 M60,104 L60,108 M82,104 L82,108 M150,104 L150,108 M172,104 L172,108" stroke="#111" stroke-width="1.2" fill="none"/>
      <rect x="52" y="108" width="16" height="14" fill="#f4f1ea" stroke="#111" stroke-width="1.4"/>
      <circle cx="60" cy="115" r="2.2" fill="#111"/>
      <rect x="74" y="108" width="16" height="14" fill="#f4f1ea" stroke="#111" stroke-width="1.4"/>
      <rect x="142" y="108" width="16" height="14" fill="#f4f1ea" stroke="#111" stroke-width="1.4"/>
      <circle cx="150" cy="115" r="2.2" fill="#111"/>
      <rect x="164" y="108" width="16" height="14" fill="#f4f1ea" stroke="#111" stroke-width="1.4"/>
    </g>

    <use href="#dailbert" x="90" y="130"/>
    <use href="#doug" x="190" y="130"/>

    <!-- Doug balloon -->
    <path d="M270,72 L258,104 L284,74 Z" fill="#f4f1ea" stroke="#111" stroke-width="2"/>
    <rect x="232" y="20" width="150" height="54" rx="16" fill="#f4f1ea" stroke="#111" stroke-width="2"/>
    <text x="307" y="46" text-anchor="middle" font-family="'Comic Sans MS','Segoe Print',cursive" font-size="14" fill="#111">They redid the</text>
    <text x="307" y="64" text-anchor="middle" font-family="'Comic Sans MS','Segoe Print',cursive" font-size="14" fill="#111">org chart. Tidy.</text>
  </g>

  <!-- ================= PANEL 2 ================= -->
  <g>
    <rect x="414" y="0" width="400" height="340" rx="3" fill="#f4f1ea" stroke="#111" stroke-width="2.5"/>
    <path d="M422,300 L806,300" stroke="#111" stroke-width="1.4" opacity="0.4"/>

    <!-- org chart, mostly empty now -->
    <g>
      <rect x="445" y="28" width="140" height="106" rx="3" fill="#f4f1ea" stroke="#111" stroke-width="2"/>
      <text x="515" y="43" text-anchor="middle" font-family="'Comic Sans MS','Segoe Print',cursive" font-size="9" fill="#111">TEAM</text>
      <rect x="498" y="48" width="34" height="15" fill="#f4f1ea" stroke="#111" stroke-width="1.6"/>
      <circle cx="515" cy="55" r="3" fill="#111"/>
      <path d="M515,63 L515,72 M470,72 L560,72 M470,72 L470,80 M560,72 L560,80" stroke="#111" stroke-width="1.4" fill="none"/>
      <rect x="455" y="80" width="30" height="13" fill="#f4f1ea" stroke="#111" stroke-width="1.6"/>
      <circle cx="470" cy="86" r="2.5" fill="#111"/>
      <rect x="545" y="80" width="30" height="13" fill="#f4f1ea" stroke="#111" stroke-width="1.6"/>
      <path d="M470,93 L470,102 M560,93 L560,102 M460,102 L482,102 M550,102 L572,102 M460,102 L460,106 M482,102 L482,106 M550,102 L550,106 M572,102 L572,106" stroke="#111" stroke-width="1.2" fill="none"/>
      <rect x="452" y="106" width="16" height="14" fill="#f4f1ea" stroke="#111" stroke-width="1.4"/>
      <rect x="474" y="106" width="16" height="14" fill="#f4f1ea" stroke="#111" stroke-width="1.4"/>
      <rect x="542" y="106" width="16" height="14" fill="#f4f1ea" stroke="#111" stroke-width="1.4"/>
      <rect x="564" y="106" width="16" height="14" fill="#f4f1ea" stroke="#111" stroke-width="1.4"/>
    </g>

    <use href="#boss" x="560" y="130"/>
    <use href="#dailbert" x="700" y="130"/>

    <!-- boss pointing arm -->
    <path d="M600,190 L596,150 L588,152 L594,196 Z" fill="#f4f1ea" stroke="#111" stroke-width="2" stroke-linejoin="round"/>
    <circle cx="591" cy="150" r="6" fill="#f4f1ea" stroke="#111" stroke-width="2"/>
    <path d="M588,147 L575,128" stroke="#111" stroke-width="3" stroke-linecap="round"/>

    <!-- Dailbert sweat -->
    <path d="M736,150 q4,7 0,10 q-4,-3 0,-10 Z" fill="#f4f1ea" stroke="#111" stroke-width="1.4"/>

    <!-- Boss balloon -->
    <path d="M628,60 L622,140 L640,62 Z" fill="#f4f1ea" stroke="#111" stroke-width="2"/>
    <rect x="590" y="20" width="112" height="40" rx="14" fill="#f4f1ea" stroke="#111" stroke-width="2"/>
    <text x="646" y="45" text-anchor="middle" font-family="'Comic Sans MS','Segoe Print',cursive" font-size="14" fill="#111">Consolidated.</text>

    <!-- Dailbert balloon -->
    <path d="M752,64 L760,140 L766,64 Z" fill="#f4f1ea" stroke="#111" stroke-width="2"/>
    <rect x="700" y="16" width="110" height="50" rx="14" fill="#f4f1ea" stroke="#111" stroke-width="2"/>
    <text x="755" y="37" text-anchor="middle" font-family="'Comic Sans MS','Segoe Print',cursive" font-size="14" fill="#111">Where'd</text>
    <text x="755" y="55" text-anchor="middle" font-family="'Comic Sans MS','Segoe Print',cursive" font-size="14" fill="#111">everyone go?</text>
  </g>

  <!-- ================= PANEL 3 ================= -->
  <g>
    <rect x="828" y="0" width="400" height="340" rx="3" fill="#f4f1ea" stroke="#111" stroke-width="2.5"/>
    <path d="M836,300 L1220,300" stroke="#111" stroke-width="1.4" opacity="0.4"/>

    <use href="#dailbert" x="852" y="130"/>

    <!-- framed org chart, night glass, clanker in the reflection -->
    <g>
      <rect x="1010" y="95" width="155" height="140" rx="4" fill="#cfccc4" stroke="#111" stroke-width="3"/>
      <rect x="1018" y="103" width="139" height="124" rx="2" fill="#d6d3cb" stroke="#8f8f8f" stroke-width="1.2"/>
      <!-- faint org-chart lines behind the reflection -->
      <path d="M1040,120 h30 M1040,150 h30 M1120,120 h26 M1120,150 h26 M1055,130 v14" stroke="#b6b3ab" stroke-width="1.4" fill="none" opacity="0.8"/>
      <rect x="1112" y="112" width="34" height="14" fill="none" stroke="#b6b3ab" stroke-width="1.2"/>
      <use href="#clanker" x="1025" y="100"/>
      <!-- glass glare -->
      <path d="M1030,105 L1075,230" stroke="#e4e1d9" stroke-width="5" opacity="0.5"/>
    </g>
    <rect x="1058" y="238" width="58" height="12" rx="2" fill="#f4f1ea" stroke="#111" stroke-width="1.6"/>
    <text x="1087" y="247" text-anchor="middle" font-family="'Comic Sans MS','Segoe Print',cursive" font-size="8" fill="#111">ORG CHART</text>

    <!-- clanker screen balloon + dashed line to the glass -->
    <path d="M1080,86 L1090,95" stroke="#111" stroke-width="1.4" stroke-dasharray="3,3"/>
    <rect x="985" y="14" width="192" height="74" fill="#f4f1ea" stroke="#111" stroke-width="2"/>
    <path d="M991,20 h8 M991,20 v8 M1171,20 h-8 M1171,20 v8 M991,82 h8 M991,82 v-8 M1171,82 h-8 M1171,82 v-8" stroke="#111" stroke-width="1.6" fill="none"/>
    <text x="1081" y="38" text-anchor="middle" font-family="'Comic Sans MS','Segoe Print',cursive" font-size="14" fill="#111">The empty boxes</text>
    <text x="1081" y="58" text-anchor="middle" font-family="'Comic Sans MS','Segoe Print',cursive" font-size="14" fill="#111">weren't loading.</text>
    <text x="1081" y="78" text-anchor="middle" font-family="'Comic Sans MS','Segoe Print',cursive" font-size="14" fill="#111">I closed them.</text>
  </g>
</svg>