<svg xmlns="http://www.w3.org/2000/svg" viewBox="0 0 1228 340" width="1228" height="340">
  <defs>
    <symbol id="dailbert" viewBox="0 0 100 130">
      <ellipse cx="50" cy="34" rx="24" ry="27" fill="#f4f1ea" stroke="#111" stroke-width="2.4"/>
      <path d="M50 7 q7 -8 3 -14 q9 5 4 15" fill="none" stroke="#111" stroke-width="2.4" stroke-linecap="round" stroke-linejoin="round"/>
      <circle cx="41" cy="34" r="7" fill="#f4f1ea" stroke="#111" stroke-width="2.2"/>
      <circle cx="59" cy="34" r="7" fill="#f4f1ea" stroke="#111" stroke-width="2.2"/>
      <line x1="48" y1="34" x2="52" y2="34" stroke="#111" stroke-width="2.2"/>
      <circle cx="41" cy="34" r="1.6" fill="#111"/>
      <circle cx="59" cy="34" r="1.6" fill="#111"/>
      <path d="M44 48 q6 5 12 0" fill="none" stroke="#111" stroke-width="2.2" stroke-linecap="round"/>
      <path d="M38 60 L62 60 L70 130 L30 130 Z" fill="#f4f1ea" stroke="#111" stroke-width="2.4" stroke-linejoin="round"/>
      <path d="M50 60 l-5 12 l5 5 l5 -5 z" fill="#111"/>
      <path d="M50 77 l0 22" stroke="#111" stroke-width="2.2"/>
    </symbol>
    <symbol id="doug" viewBox="0 0 110 130">
      <circle cx="55" cy="36" r="30" fill="#f4f1ea" stroke="#111" stroke-width="2.4"/>
      <circle cx="45" cy="31" r="2.4" fill="#111"/>
      <circle cx="65" cy="31" r="2.4" fill="#111"/>
      <path d="M40 44 q15 16 30 0" fill="none" stroke="#111" stroke-width="2.4" stroke-linecap="round"/>
      <path d="M42 66 L68 66 L76 130 L34 130 Z" fill="#f4f1ea" stroke="#111" stroke-width="2.4" stroke-linejoin="round"/>
      <path d="M68 78 q22 6 26 24" fill="none" stroke="#111" stroke-width="2.4" stroke-linecap="round"/>
      <rect x="88" y="98" width="20" height="18" rx="2" fill="#f4f1ea" stroke="#111" stroke-width="2.4"/>
      <path d="M108 102 q7 1 7 7 q0 6 -7 6" fill="none" stroke="#111" stroke-width="2.4"/>
      <path d="M92 98 q6 -6 12 0" fill="none" stroke="#111" stroke-width="1.8"/>
    </symbol>
    <symbol id="priya" viewBox="0 0 100 130">
      <path d="M28 30 q-6 -22 22 -24 q28 2 22 24 q4 10 -4 12 l-36 0 q-8 -2 -4 -12z" fill="#111"/>
      <ellipse cx="50" cy="36" rx="22" ry="25" fill="#f4f1ea" stroke="#111" stroke-width="2.4"/>
      <path d="M28 30 q-6 -20 22 -22 q28 2 22 22 q-10 -8 -22 -7 q-12 -1 -22 7z" fill="#111"/>
      <rect x="33" y="32" width="15" height="11" rx="2.5" fill="#f4f1ea" stroke="#111" stroke-width="2.2"/>
      <rect x="52" y="32" width="15" height="11" rx="2.5" fill="#f4f1ea" stroke="#111" stroke-width="2.2"/>
      <line x1="48" y1="37" x2="52" y2="37" stroke="#111" stroke-width="2.2"/>
      <circle cx="40.5" cy="37.5" r="1.6" fill="#111"/>
      <circle cx="59.5" cy="37.5" r="1.6" fill="#111"/>
      <path d="M43 50 q7 4 14 0" fill="none" stroke="#111" stroke-width="2.2" stroke-linecap="round"/>
      <path d="M38 61 L62 61 L70 130 L30 130 Z" fill="#f4f1ea" stroke="#111" stroke-width="2.4" stroke-linejoin="round"/>
      <path d="M33 82 l-3 14 M67 82 l3 14" stroke="#111" stroke-width="2.2" stroke-linecap="round"/>
    </symbol>
    <symbol id="boss" viewBox="0 0 100 130">
      <ellipse cx="50" cy="38" rx="23" ry="26" fill="#f4f1ea" stroke="#111" stroke-width="2.4"/>
      <path d="M34 20 L28 -6 L44 16 Z" fill="#111"/>
      <path d="M66 20 L72 -6 L56 16 Z" fill="#111"/>
      <path d="M34 20 q16 -8 32 0" fill="none" stroke="#111" stroke-width="2.4"/>
      <circle cx="42" cy="38" r="1.8" fill="#111"/>
      <circle cx="58" cy="38" r="1.8" fill="#111"/>
      <path d="M45 50 q5 3 10 0" fill="none" stroke="#111" stroke-width="2.2" stroke-linecap="round"/>
      <path d="M38 64 L62 64 L70 130 L30 130 Z" fill="#f4f1ea" stroke="#111" stroke-width="2.4" stroke-linejoin="round"/>
      <path d="M50 64 l-5 10 l5 6 l5 -6 z" fill="#111"/>
      <path d="M50 80 l-2 18 M50 80 l2 18" stroke="#111" stroke-width="2"/>
    </symbol>
    <symbol id="clanker" viewBox="0 0 100 90">
      <rect x="18" y="20" width="64" height="52" rx="7" fill="#1b1b1b" stroke="#7d7d7d" stroke-width="2.2"/>
      <line x1="50" y1="20" x2="50" y2="8" stroke="#7d7d7d" stroke-width="2.2"/>
      <circle cx="50" cy="6" r="3.2" fill="#9a9a9a"/>
      <rect x="27" y="33" width="17" height="9" rx="2" fill="#cfe6df"/>
      <rect x="56" y="33" width="17" height="9" rx="2" fill="#cfe6df"/>
      <g stroke="#8fb7ad" stroke-width="2" stroke-linecap="round">
        <line x1="31" y1="56" x2="31" y2="63"/>
        <line x1="38" y1="56" x2="38" y2="63"/>
        <line x1="45" y1="56" x2="45" y2="63"/>
        <line x1="52" y1="56" x2="52" y2="63"/>
        <line x1="59" y1="56" x2="59" y2="63"/>
        <line x1="66" y1="56" x2="66" y2="63"/>
      </g>
    </symbol>
    <clipPath id="p1"><rect x="0" y="0" width="400" height="340" rx="3"/></clipPath>
    <clipPath id="p2"><rect x="414" y="0" width="400" height="340" rx="3"/></clipPath>
    <clipPath id="p3"><rect x="828" y="0" width="400" height="340" rx="3"/></clipPath>
  </defs>

  <g clip-path="url(#p1)">
    <rect x="0" y="0" width="400" height="340" fill="#f4f1ea"/>
    <rect x="0" y="250" width="400" height="90" fill="#eceae2"/>
    <path d="M40 300 Q200 268 360 300 L360 340 L40 340 Z" fill="#e4e1d7" stroke="#111" stroke-width="2.4" stroke-linejoin="round"/>
    <rect x="222" y="34" width="158" height="122" rx="4" fill="#f4f1ea" stroke="#111" stroke-width="2.6"/>
    <rect x="230" y="42" width="142" height="106" rx="3" fill="#1b1b1b"/>
    <use href="#clanker" x="252" y="46" width="100" height="90"/>
    <rect x="230" y="120" width="142" height="28" fill="#0d0d0d"/>
    <text x="301" y="132" fill="#eaeaea" font-family="'Comic Sans MS','Chalkboard SE','Comic Neue',sans-serif" font-size="9" text-anchor="middle">LIVE CAPTIONS: ON</text>
    <text x="301" y="143" fill="#8fb7ad" font-family="'Comic Sans MS','Chalkboard SE','Comic Neue',sans-serif" font-size="8.5" text-anchor="middle">[boss]: ...so, yeah. Uh.</text>
    <use href="#boss" x="30" y="120" width="100" height="130"/>
    <path d="M96 200 q34 -6 60 -30" fill="none" stroke="#111" stroke-width="2.4" stroke-linecap="round"/>
    <use href="#dailbert" x="150" y="176" width="90" height="120"/>
    <use href="#priya" x="290" y="176" width="90" height="120"/>
    <g>
      <path d="M118 42 h150 a12 12 0 0 1 12 12 v34 a12 12 0 0 1 -12 12 h-96 l-16 16 l2 -16 h-40 a12 12 0 0 1 -12 -12 v-34 a12 12 0 0 1 12 -12z" fill="#fff" stroke="#111" stroke-width="2.2"/>
      <text x="193" y="63" font-family="'Comic Sans MS','Chalkboard SE','Comic Neue',sans-serif" font-size="14" text-anchor="middle" fill="#111">Turn on the</text>
      <text x="193" y="80" font-family="'Comic Sans MS','Chalkboard SE','Comic Neue',sans-serif" font-size="14" text-anchor="middle" fill="#111">captions. Let's</text>
      <text x="193" y="97" font-family="'Comic Sans MS','Chalkboard SE','Comic Neue',sans-serif" font-size="14" text-anchor="middle" fill="#111">go big-picture.</text>
    </g>
  </g>

  <g clip-path="url(#p2)">
    <rect x="414" y="0" width="400" height="340" fill="#f4f1ea"/>
    <rect x="414" y="250" width="400" height="90" fill="#eceae2"/>
    <path d="M454 300 Q614 268 774 300 L774 340 L454 340 Z" fill="#e4e1d7" stroke="#111" stroke-width="2.4" stroke-linejoin="round"/>
    <rect x="470" y="30" width="290" height="150" rx="5" fill="#f4f1ea" stroke="#111" stroke-width="2.6"/>
    <rect x="478" y="38" width="274" height="134" rx="3" fill="#1b1b1b"/>
    <use href="#clanker" x="500" y="40" width="80" height="72"/>
    <rect x="478" y="128" width="274" height="44" fill="#0d0d0d"/>
    <text x="615" y="142" fill="#8fb7ad" font-family="'Comic Sans MS','Chalkboard SE','Comic Neue',sans-serif" font-size="10" text-anchor="middle">[boss]: "To be clear, our Q3</text>
    <text x="615" y="155" fill="#8fb7ad" font-family="'Comic Sans MS','Chalkboard SE','Comic Neue',sans-serif" font-size="10" text-anchor="middle">strategy is decisive, funded,</text>
    <text x="615" y="168" fill="#8fb7ad" font-family="'Comic Sans MS','Chalkboard SE','Comic Neue',sans-serif" font-size="10" text-anchor="middle">and well underway."</text>
    <use href="#boss" x="450" y="150" width="100" height="130"/>
    <use href="#dailbert" x="596" y="188" width="88" height="118"/>
    <use href="#priya" x="686" y="188" width="88" height="118"/>
    <g>
      <path d="M560 40 h96 a12 12 0 0 1 12 12 v30 a12 12 0 0 1 -12 12 h-70 l-14 14 l1 -14 h-13 a12 12 0 0 1 -12 -12 v-30 a12 12 0 0 1 12 -12z" fill="#fff" stroke="#111" stroke-width="2.2"/>
      <text x="608" y="60" font-family="'Comic Sans MS','Chalkboard SE','Comic Neue',sans-serif" font-size="14" text-anchor="middle" fill="#111">Um. Look. So.</text>
      <text x="608" y="78" font-family="'Comic Sans MS','Chalkboard SE','Comic Neue',sans-serif" font-size="14" text-anchor="middle" fill="#111">Basically... you</text>
      <text x="608" y="96" font-family="'Comic Sans MS','Chalkboard SE','Comic Neue',sans-serif" font-size="14" text-anchor="middle" fill="#111">know. The thing.</text>
    </g>
  </g>

  <g clip-path="url(#p3)">
    <rect x="828" y="0" width="400" height="340" fill="#f4f1ea"/>
    <rect x="828" y="250" width="400" height="90" fill="#eceae2"/>
    <path d="M868 300 Q1028 268 1188 300 L1188 340 L868 340 Z" fill="#e4e1d7" stroke="#111" stroke-width="2.4" stroke-linejoin="round"/>
    <rect x="866" y="26" width="150" height="118" rx="4" fill="#f4f1ea" stroke="#111" stroke-width="2.6"/>
    <rect x="874" y="34" width="134" height="102" rx="3" fill="#1b1b1b"/>
    <use href="#clanker" x="895" y="36" width="92" height="83"/>
    <rect x="874" y="112" width="134" height="24" fill="#0d0d0d"/>
    <text x="941" y="127" fill="#8fb7ad" font-family="'Comic Sans MS','Chalkboard SE','Comic Neue',sans-serif" font-size="8.5" text-anchor="middle">[live captions: paused]</text>
    <use href="#boss" x="856" y="152" width="98" height="128"/>
    <use href="#priya" x="1010" y="150" width="94" height="126"/>
    <use href="#dailbert" x="1098" y="164" width="86" height="116"/>
    <line x1="960" y1="70" x2="985" y2="150" stroke="#111" stroke-width="1.4" stroke-dasharray="4 4"/>
    <g>
      <rect x="900" y="150" width="176" height="70" rx="3" fill="#fff" stroke="#111" stroke-width="2.2"/>
      <rect x="905" y="155" width="166" height="60" rx="2" fill="none" stroke="#111" stroke-width="1" stroke-dasharray="3 3"/>
      <text x="988" y="172" font-family="'Comic Sans MS','Chalkboard SE','Comic Neue',sans-serif" font-size="12.5" text-anchor="middle" fill="#111">I filled in the parts</text>
      <text x="988" y="188" font-family="'Comic Sans MS','Chalkboard SE','Comic Neue',sans-serif" font-size="12.5" text-anchor="middle" fill="#111">you meant to say.</text>
      <text x="988" y="204" font-family="'Comic Sans MS','Chalkboard SE','Comic Neue',sans-serif" font-size="12.5" text-anchor="middle" fill="#111">It was most of them.</text>
    </g>
    <g>
      <path d="M1088 196 h84 a10 10 0 0 1 10 10 v24 a10 10 0 0 1 -10 10 h-40 l-12 12 l1 -12 h-33 a10 10 0 0 1 -10 -10 v-24 a10 10 0 0 1 10 -10z" fill="#fff" stroke="#111" stroke-width="2.2"/>
      <text x="1132" y="214" font-family="'Comic Sans MS','Chalkboard SE','Comic Neue',sans-serif" font-size="12.5" text-anchor="middle" fill="#111">Leave them on.</text>
      <text x="1132" y="230" font-family="'Comic Sans MS','Chalkboard SE','Comic Neue',sans-serif" font-size="12.5" text-anchor="middle" fill="#111">For the whole day.</text>
    </g>
  </g>

  <rect x="0" y="0" width="400" height="340" rx="3" fill="none" stroke="#111" stroke-width="2.6"/>
  <rect x="414" y="0" width="400" height="340" rx="3" fill="none" stroke="#111" stroke-width="2.6"/>
  <rect x="828" y="0" width="400" height="340" rx="3" fill="none" stroke="#111" stroke-width="2.6"/>
</svg>