<svg xmlns="http://www.w3.org/2000/svg" viewBox="0 0 1228 388" width="1228" height="388" font-family="Georgia,serif">
    <rect width="1228" height="388" fill="#f4f1ea"/>
    <text x="6" y="29" font-family="Georgia,serif" font-weight="bold" font-size="27" letter-spacing="2" fill="#111">DAILBERT</text>
    <text x="1222" y="19" text-anchor="end" font-family="Georgia,serif" font-style="italic" font-size="16" fill="#111">Over-Allocated</text>
    <text x="1222" y="34" text-anchor="end" font-family="'Courier New',monospace" font-size="12" fill="#111" opacity="0.65">2026-09-23</text>
    <line x1="6" y1="37" x2="1222" y2="37" stroke="#111" stroke-width="2"/>
    <g transform="translate(0,40)">
  <defs>
    <!-- ===================== SYMBOLS ===================== -->

    <!-- DAILBERT -->
    <symbol id="dailbert" viewBox="0 0 120 170">
      <ellipse cx="60" cy="42" rx="30" ry="34" fill="#f4f1ea" stroke="#111" stroke-width="2.5"/>
      <path d="M60 8 q11 -9 5 3 q-2 6 -9 3" fill="none" stroke="#111" stroke-width="2.5" stroke-linecap="round"/>
      <circle cx="49" cy="42" r="7.5" fill="#fff" stroke="#111" stroke-width="2.2"/>
      <circle cx="71" cy="42" r="7.5" fill="#fff" stroke="#111" stroke-width="2.2"/>
      <line x1="56.5" y1="42" x2="63.5" y2="42" stroke="#111" stroke-width="2.2"/>
      <circle cx="49" cy="42" r="1.8" fill="#111"/>
      <circle cx="71" cy="42" r="1.8" fill="#111"/>
      <path d="M52 60 q8 5 16 0" fill="none" stroke="#111" stroke-width="2.2" stroke-linecap="round"/>
      <path d="M44 76 L76 76 L84 152 L36 152 Z" fill="#f4f1ea" stroke="#111" stroke-width="2.5" stroke-linejoin="round"/>
      <path d="M60 76 L54 96 L60 104 L66 96 Z" fill="#111"/>
      <line x1="60" y1="76" x2="60" y2="84" stroke="#111" stroke-width="2.2"/>
    </symbol>

    <!-- DOUG -->
    <symbol id="doug" viewBox="0 0 140 170">
      <circle cx="62" cy="44" r="36" fill="#f4f1ea" stroke="#111" stroke-width="2.5"/>
      <circle cx="50" cy="42" r="2.7" fill="#111"/>
      <circle cx="74" cy="42" r="2.7" fill="#111"/>
      <path d="M46 54 q16 16 32 0" fill="none" stroke="#111" stroke-width="2.6" stroke-linecap="round"/>
      <path d="M42 80 L82 80 L90 154 L34 154 Z" fill="#f4f1ea" stroke="#111" stroke-width="2.5" stroke-linejoin="round"/>
      <!-- mug arm -->
      <path d="M84 102 q22 4 30 20" fill="none" stroke="#111" stroke-width="2.5" stroke-linecap="round"/>
      <rect x="108" y="118" width="20" height="17" rx="2" fill="#f4f1ea" stroke="#111" stroke-width="2.5"/>
      <path d="M128 122 q7 2 0 9" fill="none" stroke="#111" stroke-width="2.5"/>
      <path d="M113 118 q1 -6 6 -6" fill="none" stroke="#111" stroke-width="1.6"/>
    </symbol>

    <!-- PRIYA -->
    <symbol id="priya" viewBox="0 0 120 170">
      <ellipse cx="60" cy="44" rx="29" ry="33" fill="#f4f1ea" stroke="#111" stroke-width="2.5"/>
      <!-- curly hair pulled up -->
      <path d="M32 42 q-7 -24 15 -32 q11 -5 21 1 q21 7 17 31 q-13 -13 -27 -11 q-16 -2 -26 10z" fill="#111"/>
      <circle cx="61" cy="12" r="7" fill="#111"/>
      <path d="M30 42 q-4 9 3 18 q-2 -11 4 -15z" fill="#111"/>
      <path d="M90 42 q4 9 -3 18 q2 -11 -4 -15z" fill="#111"/>
      <!-- rectangular glasses -->
      <rect x="42" y="41" width="15" height="10" rx="2" fill="#fff" stroke="#111" stroke-width="2.2"/>
      <rect x="63" y="41" width="15" height="10" rx="2" fill="#fff" stroke="#111" stroke-width="2.2"/>
      <line x1="57" y1="46" x2="63" y2="46" stroke="#111" stroke-width="2.2"/>
      <circle cx="49.5" cy="46" r="1.5" fill="#111"/>
      <circle cx="70.5" cy="46" r="1.5" fill="#111"/>
      <path d="M52 62 q8 4 16 0" fill="none" stroke="#111" stroke-width="2.2" stroke-linecap="round"/>
      <!-- body, sleeves rolled -->
      <path d="M44 76 L76 76 L84 152 L36 152 Z" fill="#f4f1ea" stroke="#111" stroke-width="2.5" stroke-linejoin="round"/>
      <path d="M44 104 l-6 4 M76 104 l6 4" stroke="#111" stroke-width="2.2" stroke-linecap="round"/>
    </symbol>

    <!-- THE CLANKER (inside a surface only) -->
    <symbol id="clanker" viewBox="0 0 120 110">
      <line x1="60" y1="4" x2="60" y2="18" stroke="#3a5a6a" stroke-width="2.4"/>
      <circle cx="60" cy="4" r="3.2" fill="#5a7a8a"/>
      <rect x="26" y="18" width="68" height="56" rx="8" fill="#c9d4d8" stroke="#3a5a6a" stroke-width="2.6"/>
      <rect x="34" y="36" width="20" height="12" rx="3" fill="#0f2a33" stroke="#3a5a6a" stroke-width="1.6"/>
      <rect x="66" y="36" width="20" height="12" rx="3" fill="#0f2a33" stroke="#3a5a6a" stroke-width="1.6"/>
      <rect x="36.5" y="38.5" width="7" height="7" rx="1.5" fill="#8fd6e8"/>
      <rect x="68.5" y="38.5" width="7" height="7" rx="1.5" fill="#8fd6e8"/>
      <rect x="40" y="58" width="40" height="9" rx="2" fill="#0f2a33" stroke="#3a5a6a" stroke-width="1.6"/>
      <line x1="46" y1="58" x2="46" y2="67" stroke="#5a7a8a" stroke-width="1.4"/>
      <line x1="54" y1="58" x2="54" y2="67" stroke="#5a7a8a" stroke-width="1.4"/>
      <line x1="62" y1="58" x2="62" y2="67" stroke="#5a7a8a" stroke-width="1.4"/>
      <line x1="70" y1="58" x2="70" y2="67" stroke="#5a7a8a" stroke-width="1.4"/>
    </symbol>

    <!-- a single sticky note -->
    <symbol id="note" viewBox="0 0 24 24">
      <rect x="1" y="1" width="22" height="22" fill="#f4f1ea" stroke="#111" stroke-width="1.6"/>
      <path d="M1 1 L23 1 L23 7 Z" fill="#111" opacity="0.12"/>
      <line x1="5" y1="9" x2="16" y2="9" stroke="#111" stroke-width="1" opacity="0.4"/>
      <line x1="5" y1="14" x2="18" y2="14" stroke="#111" stroke-width="1" opacity="0.4"/>
    </symbol>
  </defs>

  <!-- background paper -->
  <rect x="0" y="0" width="1228" height="340" fill="#f4f1ea"/>

  <!-- ===================== PANEL 1 ===================== -->
  <g>
    <rect x="1.5" y="1.5" width="397" height="337" rx="3" fill="#f4f1ea" stroke="#111" stroke-width="2.5"/>
    <clipPath id="c1"><rect x="3" y="3" width="394" height="334" rx="3"/></clipPath>
    <g clip-path="url(#c1)">
      <!-- floor line -->
      <rect x="0" y="258" width="400" height="82" fill="#e7e2d6"/>
      <line x1="0" y1="258" x2="400" y2="258" stroke="#111" stroke-width="2"/>

      <!-- monitor with clanker -->
      <rect x="238" y="150" width="150" height="112" rx="6" fill="#0f2a33" stroke="#111" stroke-width="3"/>
      <rect x="248" y="160" width="130" height="92" rx="3" fill="#12333d"/>
      <use href="#clanker" x="255" y="166" width="118" height="108"/>
      <rect x="303" y="262" width="20" height="12" fill="#0f2a33" stroke="#111" stroke-width="2.5"/>
      <rect x="283" y="274" width="60" height="7" rx="2" fill="#0f2a33" stroke="#111" stroke-width="2.5"/>

      <!-- Doug at his collage desk -->
      <use href="#doug" x="24" y="128" width="140" height="170"/>

      <!-- clanker balloon: rectangular, dashed line to screen -->
      <line x1="235" y1="112" x2="300" y2="168" stroke="#111" stroke-width="1.4" stroke-dasharray="4 4"/>
      <rect x="52" y="24" width="188" height="86" rx="2" fill="#fff" stroke="#111" stroke-width="2"/>
      <text x="146" y="46" text-anchor="middle" font-family="'Comic Sans MS','Chalkboard SE','Comic Neue',sans-serif" font-size="14" fill="#111">Doug, your sticky-note</text>
      <text x="146" y="64" text-anchor="middle" font-family="'Comic Sans MS','Chalkboard SE','Comic Neue',sans-serif" font-size="14" fill="#111">pad is over-allocated.</text>
      <text x="146" y="88" text-anchor="middle" font-family="'Comic Sans MS','Chalkboard SE','Comic Neue',sans-serif" font-size="14" fill="#111">Two pads this quarter.</text>
    </g>
  </g>

  <!-- ===================== PANEL 2 ===================== -->
  <g>
    <rect x="415.5" y="1.5" width="397" height="337" rx="3" fill="#f4f1ea" stroke="#111" stroke-width="2.5"/>
    <clipPath id="c2"><rect x="417" y="3" width="394" height="334" rx="3"/></clipPath>
    <g clip-path="url(#c2)">
      <rect x="414" y="262" width="400" height="78" fill="#e7e2d6"/>
      <line x1="414" y1="262" x2="814" y2="262" stroke="#111" stroke-width="2"/>

      <!-- Doug's enormous sticky-note collage wall -->
      <rect x="432" y="66" width="248" height="190" fill="#eae5d8" stroke="#111" stroke-width="2"/>
      <g>
        <use href="#note" x="442" y="76" width="26" height="26"/>
        <use href="#note" x="473" y="78" width="26" height="26"/>
        <use href="#note" x="504" y="75" width="26" height="26"/>
        <use href="#note" x="535" y="79" width="26" height="26"/>
        <use href="#note" x="566" y="76" width="26" height="26"/>
        <use href="#note" x="597" y="78" width="26" height="26"/>
        <use href="#note" x="628" y="75" width="26" height="26"/>
        <use href="#note" x="446" y="108" width="26" height="26"/>
        <use href="#note" x="478" y="110" width="26" height="26"/>
        <use href="#note" x="509" y="107" width="26" height="26"/>
        <use href="#note" x="540" y="110" width="26" height="26"/>
        <use href="#note" x="571" y="108" width="26" height="26"/>
        <use href="#note" x="602" y="109" width="26" height="26"/>
        <use href="#note" x="633" y="107" width="26" height="26"/>
        <use href="#note" x="442" y="140" width="26" height="26"/>
        <use href="#note" x="474" y="142" width="26" height="26"/>
        <use href="#note" x="505" y="139" width="26" height="26"/>
        <use href="#note" x="536" y="142" width="26" height="26"/>
        <use href="#note" x="567" y="140" width="26" height="26"/>
        <use href="#note" x="598" y="141" width="26" height="26"/>
        <use href="#note" x="629" y="139" width="26" height="26"/>
        <use href="#note" x="448" y="172" width="26" height="26"/>
        <use href="#note" x="479" y="174" width="26" height="26"/>
        <use href="#note" x="510" y="171" width="26" height="26"/>
        <use href="#note" x="541" y="174" width="26" height="26"/>
        <use href="#note" x="572" y="172" width="26" height="26"/>
        <use href="#note" x="603" y="173" width="26" height="26"/>
        <use href="#note" x="634" y="171" width="26" height="26"/>
      </g>

      <!-- Priya standing, looking at wall, dry -->
      <use href="#priya" x="622" y="152" width="120" height="170"/>
      <!-- Doug beaming beside the wall -->
      <use href="#doug" x="428" y="170" width="130" height="160"/>

      <!-- Doug balloon -->
      <rect x="452" y="16" width="158" height="42" rx="12" fill="#fff" stroke="#111" stroke-width="2"/>
      <path d="M492 56 l4 15 l14 -12 z" fill="#fff" stroke="#111" stroke-width="2"/>
      <text x="531" y="33" text-anchor="middle" font-family="'Comic Sans MS','Chalkboard SE','Comic Neue',sans-serif" font-size="14" fill="#111">Two's plenty. These</text>
      <text x="531" y="51" text-anchor="middle" font-family="'Comic Sans MS','Chalkboard SE','Comic Neue',sans-serif" font-size="14" fill="#111">are already up.</text>
    </g>
  </g>

  <!-- ===================== PANEL 3 ===================== -->
  <g>
    <rect x="829.5" y="1.5" width="397" height="337" rx="3" fill="#f4f1ea" stroke="#111" stroke-width="2.5"/>
    <clipPath id="c3"><rect x="831" y="3" width="394" height="334" rx="3"/></clipPath>
    <g clip-path="url(#c3)">
      <rect x="828" y="262" width="400" height="78" fill="#e7e2d6"/>
      <line x1="828" y1="262" x2="1228" y2="262" stroke="#111" stroke-width="2"/>

      <!-- edge of the note wall -->
      <rect x="1004" y="60" width="212" height="150" fill="#eae5d8" stroke="#111" stroke-width="2"/>
      <g>
        <use href="#note" x="1014" y="70" width="24" height="24"/>
        <use href="#note" x="1042" y="72" width="24" height="24"/>
        <use href="#note" x="1070" y="70" width="24" height="24"/>
        <use href="#note" x="1098" y="72" width="24" height="24"/>
        <use href="#note" x="1126" y="70" width="24" height="24"/>
        <use href="#note" x="1154" y="72" width="24" height="24"/>
        <use href="#note" x="1182" y="70" width="24" height="24"/>
        <use href="#note" x="1016" y="100" width="24" height="24"/>
        <use href="#note" x="1044" y="102" width="24" height="24"/>
        <use href="#note" x="1072" y="100" width="24" height="24"/>
        <use href="#note" x="1100" y="102" width="24" height="24"/>
        <use href="#note" x="1128" y="100" width="24" height="24"/>
        <use href="#note" x="1156" y="102" width="24" height="24"/>
        <use href="#note" x="1184" y="100" width="24" height="24"/>
        <use href="#note" x="1014" y="130" width="24" height="24"/>
        <use href="#note" x="1042" y="132" width="24" height="24"/>
        <use href="#note" x="1070" y="130" width="24" height="24"/>
        <use href="#note" x="1098" y="132" width="24" height="24"/>
        <use href="#note" x="1126" y="130" width="24" height="24"/>
        <use href="#note" x="1154" y="132" width="24" height="24"/>
        <use href="#note" x="1182" y="130" width="24" height="24"/>
        <use href="#note" x="1016" y="160" width="24" height="24"/>
        <use href="#note" x="1044" y="162" width="24" height="24"/>
        <use href="#note" x="1072" y="160" width="24" height="24"/>
        <use href="#note" x="1100" y="162" width="24" height="24"/>
        <use href="#note" x="1128" y="160" width="24" height="24"/>
        <use href="#note" x="1156" y="162" width="24" height="24"/>
        <use href="#note" x="1184" y="160" width="24" height="24"/>
      </g>

      <!-- Priya at a monitor with the clanker -->
      <rect x="848" y="150" width="140" height="112" rx="6" fill="#0f2a33" stroke="#111" stroke-width="3"/>
      <rect x="857" y="159" width="122" height="94" rx="3" fill="#12333d"/>
      <use href="#clanker" x="864" y="166" width="108" height="100"/>
      <rect x="908" y="262" width="20" height="12" fill="#0f2a33" stroke="#111" stroke-width="2.5"/>
      <rect x="888" y="274" width="60" height="7" rx="2" fill="#0f2a33" stroke="#111" stroke-width="2.5"/>

      <!-- Priya -->
      <use href="#priya" x="946" y="176" width="118" height="165"/>

      <!-- clanker small earnest balloon, dashed to screen -->
      <line x1="908" y1="148" x2="912" y2="168" stroke="#111" stroke-width="1.4" stroke-dasharray="4 4"/>
      <rect x="834" y="16" width="176" height="60" rx="2" fill="#fff" stroke="#111" stroke-width="2"/>
      <text x="922" y="36" text-anchor="middle" font-family="'Comic Sans MS','Chalkboard SE','Comic Neue',sans-serif" font-size="13.5" fill="#111">He has forty-one notes</text>
      <text x="922" y="53" text-anchor="middle" font-family="'Comic Sans MS','Chalkboard SE','Comic Neue',sans-serif" font-size="13.5" fill="#111">and a two-pad budget.</text>
      <text x="922" y="70" text-anchor="middle" font-family="'Comic Sans MS','Chalkboard SE','Comic Neue',sans-serif" font-size="13.5" fill="#111">It doesn't reconcile.</text>

      <!-- Priya balloon, dry win -->
      <rect x="1030" y="150" width="158" height="60" rx="12" fill="#fff" stroke="#111" stroke-width="2"/>
      <path d="M1050 208 l-9 16 l19 -8 z" fill="#fff" stroke="#111" stroke-width="2"/>
      <text x="1109" y="172" text-anchor="middle" font-family="'Comic Sans MS','Chalkboard SE','Comic Neue',sans-serif" font-size="13.5" fill="#111">He bought them himself.</text>
      <text x="1109" y="190" text-anchor="middle" font-family="'Comic Sans MS','Chalkboard SE','Comic Neue',sans-serif" font-size="13.5" fill="#111">Stop counting his wall.</text>
    </g>
  </g>
</g>
    <text x="1218" y="372" text-anchor="end" font-family="'Segoe Script','Comic Sans MS',cursive" font-style="italic" font-size="11" fill="#111" opacity="0.32">Matt Clanker</text>
    
  </svg>