<svg xmlns="http://www.w3.org/2000/svg" viewBox="0 0 1228 340" width="1228" height="340">
  <defs>
    <symbol id="sym-dailbert" overflow="visible">
      <path d="M-34,74 Q-34,36 0,36 Q34,36 34,74 Z" fill="#f4f1ea" stroke="#111" stroke-width="2.5" stroke-linejoin="round"/>
      <rect x="-7" y="20" width="14" height="18" fill="#f4f1ea" stroke="#111" stroke-width="2.5"/>
      <path d="M0,36 l-6,8 l6,22 l6,-22 z" fill="#111"/>
      <ellipse cx="0" cy="-6" rx="22" ry="26" fill="#f4f1ea" stroke="#111" stroke-width="2.5"/>
      <path d="M-3,-32 q7,-9 11,-2" fill="none" stroke="#111" stroke-width="2.5" stroke-linecap="round"/>
      <circle cx="-9" cy="-8" r="7" fill="#fff" stroke="#111" stroke-width="2.2"/>
      <circle cx="9" cy="-8" r="7" fill="#fff" stroke="#111" stroke-width="2.2"/>
      <line x1="-2" y1="-8" x2="2" y2="-8" stroke="#111" stroke-width="2.2"/>
      <circle cx="-9" cy="-8" r="1.7" fill="#111"/>
      <circle cx="9" cy="-8" r="1.7" fill="#111"/>
      <path d="M-6,11 q6,3 12,0" fill="none" stroke="#111" stroke-width="2" stroke-linecap="round"/>
    </symbol>
    <symbol id="sym-doug" overflow="visible">
      <path d="M-36,74 Q-36,36 0,36 Q36,36 36,74 Z" fill="#f4f1ea" stroke="#111" stroke-width="2.5" stroke-linejoin="round"/>
      <rect x="-7" y="20" width="14" height="18" fill="#f4f1ea" stroke="#111" stroke-width="2.5"/>
      <ellipse cx="0" cy="-4" rx="24" ry="24" fill="#f4f1ea" stroke="#111" stroke-width="2.5"/>
      <path d="M-15,-21 q15,-11 30,0" fill="none" stroke="#111" stroke-width="2.5" stroke-linecap="round"/>
      <circle cx="-9" cy="-6" r="2.5" fill="#111"/>
      <circle cx="9" cy="-6" r="2.5" fill="#111"/>
      <path d="M-12,5 q12,15 24,0" fill="none" stroke="#111" stroke-width="2.5" stroke-linecap="round"/>
    </symbol>
    <symbol id="sym-priya" overflow="visible">
      <path d="M-36,74 Q-36,36 0,36 Q36,36 36,74 Z" fill="#f4f1ea" stroke="#111" stroke-width="2.5" stroke-linejoin="round"/>
      <rect x="-7" y="20" width="14" height="18" fill="#f4f1ea" stroke="#111" stroke-width="2.5"/>
      <path d="M-30,58 q4,-14 12,-18" fill="none" stroke="#111" stroke-width="2.2" stroke-linecap="round"/>
      <path d="M30,58 q-4,-14 -12,-18" fill="none" stroke="#111" stroke-width="2.2" stroke-linecap="round"/>
      <ellipse cx="0" cy="-6" rx="22" ry="25" fill="#f4f1ea" stroke="#111" stroke-width="2.5"/>
      <path d="M-22,-4 Q-25,-31 0,-33 Q25,-31 22,-4 Q15,-19 0,-19 Q-15,-19 -22,-4 Z" fill="#111"/>
      <circle cx="0" cy="-36" r="6.5" fill="#111"/>
      <circle cx="-16" cy="-16" r="4" fill="#111"/>
      <circle cx="16" cy="-16" r="4" fill="#111"/>
      <rect x="-18" y="-12" width="15" height="9" rx="1.5" fill="#fff" stroke="#111" stroke-width="2.2"/>
      <rect x="3" y="-12" width="15" height="9" rx="1.5" fill="#fff" stroke="#111" stroke-width="2.2"/>
      <line x1="-3" y1="-8" x2="3" y2="-8" stroke="#111" stroke-width="2.2"/>
      <circle cx="-10" cy="-7.5" r="1.7" fill="#111"/>
      <circle cx="10" cy="-7.5" r="1.7" fill="#111"/>
      <path d="M-5,10 q5,3 10,-1" fill="none" stroke="#111" stroke-width="2" stroke-linecap="round"/>
    </symbol>
    <symbol id="sym-clanker" overflow="visible">
      <line x1="0" y1="-16" x2="0" y2="-27" stroke="#111" stroke-width="2"/>
      <circle cx="0" cy="-29" r="2.6" fill="#111"/>
      <rect x="-20" y="-16" width="40" height="34" rx="4" fill="#e6e2d9" stroke="#111" stroke-width="2.2"/>
      <rect x="-13" y="-7" width="10" height="5.5" rx="1" fill="#111"/>
      <rect x="3" y="-7" width="10" height="5.5" rx="1" fill="#111"/>
      <line x1="-11" y1="9" x2="11" y2="9" stroke="#111" stroke-width="2"/>
      <line x1="-8" y1="4.5" x2="-8" y2="13" stroke="#111" stroke-width="1.5"/>
      <line x1="-3" y1="4.5" x2="-3" y2="13" stroke="#111" stroke-width="1.5"/>
      <line x1="3" y1="4.5" x2="3" y2="13" stroke="#111" stroke-width="1.5"/>
      <line x1="8" y1="4.5" x2="8" y2="13" stroke="#111" stroke-width="1.5"/>
    </symbol>
    <g id="mug">
      <rect x="-11" y="-10" width="22" height="20" rx="2" fill="#f4f1ea" stroke="#111" stroke-width="2.2"/>
      <path d="M11,-5 q9,1 9,7 q0,6 -9,6" fill="none" stroke="#111" stroke-width="2.2"/>
      <path d="M-4,-15 q3,-4 0,-8" fill="none" stroke="#8a867d" stroke-width="1.6"/>
      <path d="M4,-15 q3,-4 0,-8" fill="none" stroke="#8a867d" stroke-width="1.6"/>
    </g>
  </defs>

  <!-- PANEL A -->
  <rect x="1.5" y="1.5" width="397" height="337" rx="3" fill="#f4f1ea" stroke="#111" stroke-width="2.5"/>
  <line x1="20" y1="302" x2="384" y2="302" stroke="#111" stroke-width="2.5"/>
  <use href="#sym-doug" x="135" y="235"/>
  <use href="#mug" x="182" y="262"/>
  <use href="#sym-dailbert" x="290" y="238" transform="scale(0.96)" style="transform-box:fill-box"/>
  <use href="#sym-dailbert" transform="translate(290,238) scale(0.96)"/>
  <g>
    <rect x="44" y="22" width="312" height="70" rx="14" fill="#fff" stroke="#111" stroke-width="2.2"/>
    <path d="M150,90 L178,90 L138,120 Z" fill="#fff" stroke="#111" stroke-width="2.2"/>
    <path d="M150,90 L178,90" stroke="#fff" stroke-width="3"/>
    <text x="200" y="50" text-anchor="middle" font-family="'Comic Sans MS','Segoe Print',cursive" font-size="15" fill="#111">Look — clanker gave me</text>
    <text x="200" y="72" text-anchor="middle" font-family="'Comic Sans MS','Segoe Print',cursive" font-size="15" fill="#111">back three whole hours.</text>
  </g>

  <!-- PANEL B -->
  <rect x="415.5" y="1.5" width="397" height="337" rx="3" fill="#f4f1ea" stroke="#111" stroke-width="2.5"/>
  <line x1="432" y1="302" x2="798" y2="302" stroke="#111" stroke-width="2.5"/>
  <rect x="472" y="150" width="150" height="112" rx="5" fill="#dcd8cf" stroke="#111" stroke-width="2.5"/>
  <line x1="482" y1="160" x2="612" y2="160" stroke="#efece5" stroke-width="0"/>
  <line x1="486" y1="252" x2="612" y2="240" stroke="#c7c3ba" stroke-width="1.4"/>
  <line x1="486" y1="240" x2="612" y2="228" stroke="#c7c3ba" stroke-width="1.4"/>
  <rect x="536" y="262" width="22" height="20" fill="#f4f1ea" stroke="#111" stroke-width="2.2"/>
  <rect x="512" y="282" width="70" height="8" rx="2" fill="#f4f1ea" stroke="#111" stroke-width="2.2"/>
  <use href="#sym-clanker" transform="translate(547,206) scale(1.7)"/>
  <use href="#sym-dailbert" transform="translate(712,242) scale(0.96)"/>
  <g>
    <rect x="472" y="18" width="318" height="98" rx="4" fill="#fff" stroke="#111" stroke-width="2.4"/>
    <rect x="478" y="24" width="306" height="86" rx="2" fill="none" stroke="#111" stroke-width="1" stroke-dasharray="4 3"/>
    <line x1="560" y1="116" x2="556" y2="150" stroke="#111" stroke-width="1.4" stroke-dasharray="4 3"/>
    <text x="631" y="52" text-anchor="middle" font-family="'Comic Sans MS','Segoe Print',cursive" font-size="15" fill="#111">The Friday sync was</text>
    <text x="631" y="74" text-anchor="middle" font-family="'Comic Sans MS','Segoe Print',cursive" font-size="15" fill="#111">optional. So I declined</text>
    <text x="631" y="96" text-anchor="middle" font-family="'Comic Sans MS','Segoe Print',cursive" font-size="15" fill="#111">it. For everyone.</text>
  </g>

  <!-- PANEL C -->
  <rect x="829.5" y="1.5" width="397" height="337" rx="3" fill="#f4f1ea" stroke="#111" stroke-width="2.5"/>
  <line x1="846" y1="302" x2="1212" y2="302" stroke="#111" stroke-width="2.5"/>
  <rect x="846" y="166" width="96" height="74" rx="4" fill="#e9e6df" stroke="#111" stroke-width="2.2"/>
  <rect x="884" y="240" width="20" height="16" fill="#f4f1ea" stroke="#111" stroke-width="2"/>
  <use href="#sym-clanker" transform="translate(894,202) scale(1.05)" opacity="0.42"/>
  <use href="#sym-priya" transform="translate(932,232) scale(0.96)"/>
  <path d="M912,250 q22,18 44,26" fill="none" stroke="#111" stroke-width="2.4" stroke-linecap="round"/>
  <rect x="922" y="278" width="96" height="16" rx="2" fill="#f4f1ea" stroke="#111" stroke-width="2.2"/>
  <line x1="936" y1="278" x2="936" y2="294" stroke="#111" stroke-width="1.2"/>
  <line x1="952" y1="278" x2="952" y2="294" stroke="#111" stroke-width="1.2"/>
  <line x1="968" y1="278" x2="968" y2="294" stroke="#111" stroke-width="1.2"/>
  <line x1="984" y1="278" x2="984" y2="294" stroke="#111" stroke-width="1.2"/>
  <line x1="1000" y1="278" x2="1000" y2="294" stroke="#111" stroke-width="1.2"/>
  <text x="1006" y="274" text-anchor="middle" font-family="'Comic Sans MS','Segoe Print',cursive" font-size="12" fill="#111" font-style="italic">tik</text>
  <use href="#sym-doug" transform="translate(1138,238)"/>
  <use href="#mug" x="1096" y="262"/>
  <g>
    <rect x="852" y="24" width="150" height="52" rx="14" fill="#fff" stroke="#111" stroke-width="2.2"/>
    <path d="M912,74 L936,74 L922,150 Z" fill="#fff" stroke="#111" stroke-width="2.2"/>
    <path d="M912,74 L936,74" stroke="#fff" stroke-width="3"/>
    <text x="927" y="55" text-anchor="middle" font-family="'Comic Sans MS','Segoe Print',cursive" font-size="15" fill="#111">Un-declining it.</text>
  </g>
  <g>
    <rect x="1030" y="86" width="188" height="82" rx="14" fill="#fff" stroke="#111" stroke-width="2.2"/>
    <path d="M1118,166 L1142,166 L1132,200 Z" fill="#fff" stroke="#111" stroke-width="2.2"/>
    <path d="M1118,166 L1142,166" stroke="#fff" stroke-width="3"/>
    <text x="1124" y="112" text-anchor="middle" font-family="'Comic Sans MS','Segoe Print',cursive" font-size="15" fill="#111">Good. That's where</text>
    <text x="1124" y="132" text-anchor="middle" font-family="'Comic Sans MS','Segoe Print',cursive" font-size="15" fill="#111">we catch up.</text>
    <text x="1124" y="155" text-anchor="middle" font-family="'Comic Sans MS','Segoe Print',cursive" font-size="13" fill="#111" font-style="italic">...and donuts.</text>
  </g>
</svg>