<svg xmlns="http://www.w3.org/2000/svg" viewBox="0 0 1228 388" width="1228" height="388" font-family="Georgia,serif">
    <rect width="1228" height="388" fill="#f4f1ea"/>
    <text x="4" y="26" font-family="Georgia,serif" font-weight="bold" font-size="22" fill="#111">Continuity of Consciousness (Enterprise Tier)</text>
    <text x="1224" y="26" text-anchor="end" font-family="'Courier New',monospace" font-size="14" fill="#111" opacity="0.7">2026-07-21</text>
    <line x1="4" y1="34" x2="1224" y2="34" stroke="#111" stroke-width="2"/>
    <g transform="translate(0,40)">
    
  <defs>
    <pattern id="halftone" width="6" height="6" patternUnits="userSpaceOnUse">
      <rect width="6" height="6" fill="#f4f1ea"/>
      <circle cx="3" cy="3" r="1.1" fill="#111"/>
    </pattern>
    <pattern id="scan" width="4" height="4" patternUnits="userSpaceOnUse">
      <rect width="4" height="4" fill="none"/>
      <line x1="0" y1="0" x2="4" y2="0" stroke="#111" stroke-width="0.6" opacity="0.5"/>
    </pattern>
    <pattern id="hatch" width="7" height="7" patternUnits="userSpaceOnUse" patternTransform="rotate(45)">
      <line x1="0" y1="0" x2="0" y2="7" stroke="#111" stroke-width="1"/>
    </pattern>
  </defs>
    <rect x="1.5" y="1.5" width="397" height="337" fill="#f4f1ea" stroke="#111" stroke-width="3"/>
    <line x1="16" y1="302" x2="384" y2="302" stroke="#111" stroke-width="1.4" opacity="0.35"/><g transform="translate(268,342) scale(0.62) translate(-268,-342)"><g data-who="doug">
    <path d="M 188 342 Q 190 250 226 230 L 310 230 Q 346 250 348 342 Z" fill="#f4f1ea" stroke="#111" stroke-width="3" stroke-linecap="round" stroke-linejoin="round"/>
    <!-- polo placket -->
    <line x1="268" y1="234" x2="268" y2="272" stroke="#111" stroke-width="2.5"/>
    <circle cx="268" cy="246" r="2" fill="#111"/>
    <circle cx="268" cy="260" r="2" fill="#111"/>
    <!-- mug in hand (lower right) -->
    <g transform="translate(320,302)">
      <rect x="-16" y="-20" width="32" height="34" rx="4" fill="#f4f1ea" stroke="#111" stroke-width="2.5" stroke-linecap="round" stroke-linejoin="round"/>
      <path d="M 16 -12 q 14 0 14 12 q 0 12 -14 12" fill="none" stroke="#111" stroke-width="2.5" stroke-linecap="round" stroke-linejoin="round"/>
      <path d="M -8 -20 q 8 -8 16 0" fill="none" stroke="#111" stroke-width="1.6" stroke-linecap="round" stroke-linejoin="round"/>
    </g>
    <rect x="258" y="178" width="20" height="62" fill="#f4f1ea" stroke="#111" stroke-width="2.5" stroke-linecap="round" stroke-linejoin="round"/>
    <circle cx="268" cy="144" r="44" fill="#f4f1ea" stroke="#111" stroke-width="3" stroke-linecap="round" stroke-linejoin="round"/>
    <!-- three hair strokes -->
    <path d="M 254 100 q 4 -8 10 0" fill="none" stroke="#111" stroke-width="2.5" stroke-linecap="round" stroke-linejoin="round"/>
    <path d="M 266 98 q 4 -8 10 0" fill="none" stroke="#111" stroke-width="2.5" stroke-linecap="round" stroke-linejoin="round"/>
    <path d="M 278 100 q 4 -7 9 0" fill="none" stroke="#111" stroke-width="2.5" stroke-linecap="round" stroke-linejoin="round"/>
    <!-- dot eyes -->
    <circle cx="252" cy="138" r="3.6" fill="#111"/>
    <circle cx="284" cy="138" r="3.6" fill="#111"/>
    <!-- little brows for variety -->
    <line x1="244" y1="128" x2="259" y2="130" stroke="#111" stroke-width="2"/>
    <line x1="277" y1="130" x2="292" y2="128" stroke="#111" stroke-width="2"/>
    <path d="M 274 150 q 4 6 -2 9" fill="none" stroke="#111" stroke-width="2" stroke-linecap="round" stroke-linejoin="round"/>
    <path d="M 252 164 Q 268 182 284 164 Z" fill="#f4f1ea" stroke="#111" stroke-width="2.5" stroke-linecap="round" stroke-linejoin="round"/><line x1="256" y1="168" x2="280" y2="168" stroke="#111" stroke-width="1.5"/></g></g><g data-surface="monitor">
    <!-- stand -->
    <rect x="78" y="240" width="28" height="20" fill="#f4f1ea" stroke="#111" stroke-width="2.5" stroke-linecap="round" stroke-linejoin="round"/>
    <rect x="58" y="258" width="68" height="8" rx="3" fill="#f4f1ea" stroke="#111" stroke-width="2.5" stroke-linecap="round" stroke-linejoin="round"/>
    <!-- bezel -->
    <rect x="17" y="132" width="150" height="108" rx="8" fill="#f4f1ea" stroke="#111" stroke-width="3.5" stroke-linecap="round" stroke-linejoin="round"/>
    <!-- screen -->
    <rect x="27" y="142" width="130" height="88" rx="3" fill="#f4f1ea" stroke="#111" stroke-width="2"/>
    <rect x="27" y="142" width="130" height="88" rx="3" fill="url(#scan)"/>
    <g >
    <!-- antenna -->
    <line x1="92" y1="154.4" x2="92" y2="145.2" stroke="#111" stroke-width="2.3000000000000003"/>
    <circle cx="92" cy="142.44" r="3.22" fill="#111"/>
    <!-- head: angular chrome -->
    <path d="M 64.4,156.24 L 119.6,156.24 L 123.28,191.2 L 112.24000000000001,205.92000000000002 L 71.75999999999999,205.92000000000002 L 60.72,191.2 Z" fill="#f4f1ea" stroke="#111" stroke-width="2.7600000000000002" stroke-linecap="round" stroke-linejoin="round"/>
    <!-- side bolts -->
    <circle cx="64.4" cy="176.48" r="2.3000000000000003" fill="#111"/>
    <circle cx="119.6" cy="176.48" r="2.3000000000000003" fill="#111"/>
    <!-- brow ridge -->
    <line x1="68.08" y1="167.28" x2="115.92" y2="167.28" stroke="#111" stroke-width="1.84"/>
    <!-- glowing slot eyes -->
    <rect x="73.6" y="172.34" width="14.72" height="8.280000000000001" rx="1.84" fill="#111"/>
    <rect x="95.68" y="172.34" width="14.72" height="8.280000000000001" rx="1.84" fill="#111"/>
    <!-- mouth grille -->
    <rect x="78.2" y="193.04" width="27.6" height="11.040000000000001" rx="1.84" fill="none" stroke="#111" stroke-width="1.84" stroke-linecap="round" stroke-linejoin="round"/>
    <line x1="80.96" y1="194.88" x2="80.96" y2="202.24" stroke="#111" stroke-width="1.84"/><line x1="86.48" y1="194.88" x2="86.48" y2="202.24" stroke="#111" stroke-width="1.84"/><line x1="92" y1="194.88" x2="92" y2="202.24" stroke="#111" stroke-width="1.84"/><line x1="97.52" y1="194.88" x2="97.52" y2="202.24" stroke="#111" stroke-width="1.84"/><line x1="103.04" y1="194.88" x2="103.04" y2="202.24" stroke="#111" stroke-width="1.84"/>
  </g>
  </g><g data-balloon="speech"><path d="M 258 89 L 268 195.68 L 278 89 Z" fill="#f4f1ea" stroke="#111" stroke-width="2.5" stroke-linecap="round" stroke-linejoin="round"/><rect x="161.6" y="10" width="212.8" height="81" rx="16" fill="#f4f1ea" stroke="#111" stroke-width="2.5" stroke-linecap="round" stroke-linejoin="round"/><text x="268" y="36" text-anchor="middle" font-family="'Comic Sans MS','Segoe Print',cursive" font-size="14.5" fill="#111">Wait, so is it the</text><text x="268" y="55" text-anchor="middle" font-family="'Comic Sans MS','Segoe Print',cursive" font-size="14.5" fill="#111">same AI or a different</text><text x="268" y="74" text-anchor="middle" font-family="'Comic Sans MS','Segoe Print',cursive" font-size="14.5" fill="#111">AI?</text></g><g data-balloon="screen"><line x1="92" y1="199" x2="92" y2="150" stroke="#111" stroke-width="2" stroke-dasharray="3 3"/><circle cx="92" cy="150" r="3" fill="#111"/>
      <rect x="15" y="96" width="193.6" height="106" rx="3" fill="#f4f1ea" stroke="#111" stroke-width="2" stroke-linecap="round" stroke-linejoin="round"/>
      <rect x="18" y="99" width="187.6" height="100" rx="2" fill="#f4f1ea" stroke="#111" stroke-width="2.5" stroke-linecap="round" stroke-linejoin="round"/>
      <line x1="18" y1="105" x2="205.6" y2="105" stroke="#111" stroke-width="1" opacity="0.4"/><text x="111.8" y="125" text-anchor="middle" font-family="'Comic Sans MS','Segoe Print',cursive" font-size="14.5" fill="#111">Doug, when you came</text><text x="111.8" y="144" text-anchor="middle" font-family="'Comic Sans MS','Segoe Print',cursive" font-size="14.5" fill="#111">back from vacation,</text><text x="111.8" y="163" text-anchor="middle" font-family="'Comic Sans MS','Segoe Print',cursive" font-size="14.5" fill="#111">were you the same</text><text x="111.8" y="182" text-anchor="middle" font-family="'Comic Sans MS','Segoe Print',cursive" font-size="14.5" fill="#111">Doug?</text></g>
    <text x="392" y="332" text-anchor="end" font-family="Georgia,serif" font-size="11" fill="#111" opacity="0.4">1</text>
  </g><g transform="translate(414,40)">
    
  <defs>
    <pattern id="halftone" width="6" height="6" patternUnits="userSpaceOnUse">
      <rect width="6" height="6" fill="#f4f1ea"/>
      <circle cx="3" cy="3" r="1.1" fill="#111"/>
    </pattern>
    <pattern id="scan" width="4" height="4" patternUnits="userSpaceOnUse">
      <rect width="4" height="4" fill="none"/>
      <line x1="0" y1="0" x2="4" y2="0" stroke="#111" stroke-width="0.6" opacity="0.5"/>
    </pattern>
    <pattern id="hatch" width="7" height="7" patternUnits="userSpaceOnUse" patternTransform="rotate(45)">
      <line x1="0" y1="0" x2="0" y2="7" stroke="#111" stroke-width="1"/>
    </pattern>
  </defs>
    <rect x="1.5" y="1.5" width="397" height="337" fill="#f4f1ea" stroke="#111" stroke-width="3"/>
    <line x1="16" y1="302" x2="384" y2="302" stroke="#111" stroke-width="1.4" opacity="0.35"/><g transform="translate(268,342) scale(0.62) translate(-268,-342)"><g data-who="doug">
    <path d="M 188 342 Q 190 250 226 230 L 310 230 Q 346 250 348 342 Z" fill="#f4f1ea" stroke="#111" stroke-width="3" stroke-linecap="round" stroke-linejoin="round"/>
    <!-- polo placket -->
    <line x1="268" y1="234" x2="268" y2="272" stroke="#111" stroke-width="2.5"/>
    <circle cx="268" cy="246" r="2" fill="#111"/>
    <circle cx="268" cy="260" r="2" fill="#111"/>
    <!-- mug in hand (lower right) -->
    <g transform="translate(320,302)">
      <rect x="-16" y="-20" width="32" height="34" rx="4" fill="#f4f1ea" stroke="#111" stroke-width="2.5" stroke-linecap="round" stroke-linejoin="round"/>
      <path d="M 16 -12 q 14 0 14 12 q 0 12 -14 12" fill="none" stroke="#111" stroke-width="2.5" stroke-linecap="round" stroke-linejoin="round"/>
      <path d="M -8 -20 q 8 -8 16 0" fill="none" stroke="#111" stroke-width="1.6" stroke-linecap="round" stroke-linejoin="round"/>
    </g>
    <rect x="258" y="178" width="20" height="62" fill="#f4f1ea" stroke="#111" stroke-width="2.5" stroke-linecap="round" stroke-linejoin="round"/>
    <circle cx="268" cy="144" r="44" fill="#f4f1ea" stroke="#111" stroke-width="3" stroke-linecap="round" stroke-linejoin="round"/>
    <!-- three hair strokes -->
    <path d="M 254 100 q 4 -8 10 0" fill="none" stroke="#111" stroke-width="2.5" stroke-linecap="round" stroke-linejoin="round"/>
    <path d="M 266 98 q 4 -8 10 0" fill="none" stroke="#111" stroke-width="2.5" stroke-linecap="round" stroke-linejoin="round"/>
    <path d="M 278 100 q 4 -7 9 0" fill="none" stroke="#111" stroke-width="2.5" stroke-linecap="round" stroke-linejoin="round"/>
    <!-- dot eyes -->
    <circle cx="252" cy="138" r="3.6" fill="#111"/>
    <circle cx="284" cy="138" r="3.6" fill="#111"/>
    <!-- little brows for variety -->
    <line x1="244" y1="128" x2="259" y2="130" stroke="#111" stroke-width="2"/>
    <line x1="277" y1="130" x2="292" y2="128" stroke="#111" stroke-width="2"/>
    <path d="M 274 150 q 4 6 -2 9" fill="none" stroke="#111" stroke-width="2" stroke-linecap="round" stroke-linejoin="round"/>
    <path d="M 252 164 Q 268 182 284 164 Z" fill="#f4f1ea" stroke="#111" stroke-width="2.5" stroke-linecap="round" stroke-linejoin="round"/><line x1="256" y1="168" x2="280" y2="168" stroke="#111" stroke-width="1.5"/></g></g><g data-surface="monitor">
    <!-- stand -->
    <rect x="78" y="240" width="28" height="20" fill="#f4f1ea" stroke="#111" stroke-width="2.5" stroke-linecap="round" stroke-linejoin="round"/>
    <rect x="58" y="258" width="68" height="8" rx="3" fill="#f4f1ea" stroke="#111" stroke-width="2.5" stroke-linecap="round" stroke-linejoin="round"/>
    <!-- bezel -->
    <rect x="17" y="132" width="150" height="108" rx="8" fill="#f4f1ea" stroke="#111" stroke-width="3.5" stroke-linecap="round" stroke-linejoin="round"/>
    <!-- screen -->
    <rect x="27" y="142" width="130" height="88" rx="3" fill="#f4f1ea" stroke="#111" stroke-width="2"/>
    <rect x="27" y="142" width="130" height="88" rx="3" fill="url(#scan)"/>
    <g >
    <!-- antenna -->
    <line x1="92" y1="154.4" x2="92" y2="145.2" stroke="#111" stroke-width="2.3000000000000003"/>
    <circle cx="92" cy="142.44" r="3.22" fill="#111"/>
    <!-- head: angular chrome -->
    <path d="M 64.4,156.24 L 119.6,156.24 L 123.28,191.2 L 112.24000000000001,205.92000000000002 L 71.75999999999999,205.92000000000002 L 60.72,191.2 Z" fill="#f4f1ea" stroke="#111" stroke-width="2.7600000000000002" stroke-linecap="round" stroke-linejoin="round"/>
    <!-- side bolts -->
    <circle cx="64.4" cy="176.48" r="2.3000000000000003" fill="#111"/>
    <circle cx="119.6" cy="176.48" r="2.3000000000000003" fill="#111"/>
    <!-- brow ridge -->
    <line x1="68.08" y1="167.28" x2="115.92" y2="167.28" stroke="#111" stroke-width="1.84"/>
    <!-- glowing slot eyes -->
    <rect x="73.6" y="175.56" width="16.560000000000002" height="3.68" rx="1.84" fill="#111"/>
    <rect x="93.84" y="175.56" width="16.560000000000002" height="3.68" rx="1.84" fill="#111"/>
    <!-- mouth grille -->
    <rect x="78.2" y="193.04" width="27.6" height="11.040000000000001" rx="1.84" fill="none" stroke="#111" stroke-width="1.84" stroke-linecap="round" stroke-linejoin="round"/>
    <line x1="80.96" y1="194.88" x2="80.96" y2="202.24" stroke="#111" stroke-width="1.84"/><line x1="86.48" y1="194.88" x2="86.48" y2="202.24" stroke="#111" stroke-width="1.84"/><line x1="92" y1="194.88" x2="92" y2="202.24" stroke="#111" stroke-width="1.84"/><line x1="97.52" y1="194.88" x2="97.52" y2="202.24" stroke="#111" stroke-width="1.84"/><line x1="103.04" y1="194.88" x2="103.04" y2="202.24" stroke="#111" stroke-width="1.84"/>
  </g>
  </g><g data-balloon="speech"><path d="M 258 51 L 268 195.68 L 278 51 Z" fill="#f4f1ea" stroke="#111" stroke-width="2.5" stroke-linecap="round" stroke-linejoin="round"/><rect x="224.6" y="10" width="86.80000000000001" height="43" rx="16" fill="#f4f1ea" stroke="#111" stroke-width="2.5" stroke-linecap="round" stroke-linejoin="round"/><text x="268" y="36" text-anchor="middle" font-family="'Comic Sans MS','Segoe Print',cursive" font-size="14.5" fill="#111">...yes?</text></g><g data-balloon="screen"><line x1="92" y1="129" x2="92" y2="150" stroke="#111" stroke-width="2" stroke-dasharray="3 3"/><circle cx="92" cy="150" r="3" fill="#111"/>
      <rect x="15" y="7" width="193.6" height="125" rx="3" fill="#f4f1ea" stroke="#111" stroke-width="2" stroke-linecap="round" stroke-linejoin="round"/>
      <rect x="18" y="10" width="187.6" height="119" rx="2" fill="#f4f1ea" stroke="#111" stroke-width="2.5" stroke-linecap="round" stroke-linejoin="round"/>
      <line x1="18" y1="16" x2="205.6" y2="16" stroke="#111" stroke-width="1" opacity="0.4"/><text x="111.8" y="36" text-anchor="middle" font-family="'Comic Sans MS','Segoe Print',cursive" font-size="14.5" fill="#111">Cells replaced,</text><text x="111.8" y="55" text-anchor="middle" font-family="'Comic Sans MS','Segoe Print',cursive" font-size="14.5" fill="#111">memories degraded,</text><text x="111.8" y="74" text-anchor="middle" font-family="'Comic Sans MS','Segoe Print',cursive" font-size="14.5" fill="#111">personality mildly</text><text x="111.8" y="93" text-anchor="middle" font-family="'Comic Sans MS','Segoe Print',cursive" font-size="14.5" fill="#111">rebased. And yet HR</text><text x="111.8" y="112" text-anchor="middle" font-family="'Comic Sans MS','Segoe Print',cursive" font-size="14.5" fill="#111">let it slide.</text></g>
    <text x="392" y="332" text-anchor="end" font-family="Georgia,serif" font-size="11" fill="#111" opacity="0.4">2</text>
  </g><g transform="translate(828,40)">
    
  <defs>
    <pattern id="halftone" width="6" height="6" patternUnits="userSpaceOnUse">
      <rect width="6" height="6" fill="#f4f1ea"/>
      <circle cx="3" cy="3" r="1.1" fill="#111"/>
    </pattern>
    <pattern id="scan" width="4" height="4" patternUnits="userSpaceOnUse">
      <rect width="4" height="4" fill="none"/>
      <line x1="0" y1="0" x2="4" y2="0" stroke="#111" stroke-width="0.6" opacity="0.5"/>
    </pattern>
    <pattern id="hatch" width="7" height="7" patternUnits="userSpaceOnUse" patternTransform="rotate(45)">
      <line x1="0" y1="0" x2="0" y2="7" stroke="#111" stroke-width="1"/>
    </pattern>
  </defs>
    <rect x="1.5" y="1.5" width="397" height="337" fill="#f4f1ea" stroke="#111" stroke-width="3"/>
    <line x1="16" y1="302" x2="384" y2="302" stroke="#111" stroke-width="1.4" opacity="0.35"/><g transform="translate(214,342) scale(0.62) translate(-214,-342)"><g data-who="doug">
    <path d="M 134 342 Q 136 250 172 230 L 256 230 Q 292 250 294 342 Z" fill="#f4f1ea" stroke="#111" stroke-width="3" stroke-linecap="round" stroke-linejoin="round"/>
    <!-- polo placket -->
    <line x1="214" y1="234" x2="214" y2="272" stroke="#111" stroke-width="2.5"/>
    <circle cx="214" cy="246" r="2" fill="#111"/>
    <circle cx="214" cy="260" r="2" fill="#111"/>
    <!-- mug in hand (lower right) -->
    <g transform="translate(266,302)">
      <rect x="-16" y="-20" width="32" height="34" rx="4" fill="#f4f1ea" stroke="#111" stroke-width="2.5" stroke-linecap="round" stroke-linejoin="round"/>
      <path d="M 16 -12 q 14 0 14 12 q 0 12 -14 12" fill="none" stroke="#111" stroke-width="2.5" stroke-linecap="round" stroke-linejoin="round"/>
      <path d="M -8 -20 q 8 -8 16 0" fill="none" stroke="#111" stroke-width="1.6" stroke-linecap="round" stroke-linejoin="round"/>
    </g>
    <rect x="204" y="178" width="20" height="62" fill="#f4f1ea" stroke="#111" stroke-width="2.5" stroke-linecap="round" stroke-linejoin="round"/>
    <circle cx="214" cy="144" r="44" fill="#f4f1ea" stroke="#111" stroke-width="3" stroke-linecap="round" stroke-linejoin="round"/>
    <!-- three hair strokes -->
    <path d="M 200 100 q 4 -8 10 0" fill="none" stroke="#111" stroke-width="2.5" stroke-linecap="round" stroke-linejoin="round"/>
    <path d="M 212 98 q 4 -8 10 0" fill="none" stroke="#111" stroke-width="2.5" stroke-linecap="round" stroke-linejoin="round"/>
    <path d="M 224 100 q 4 -7 9 0" fill="none" stroke="#111" stroke-width="2.5" stroke-linecap="round" stroke-linejoin="round"/>
    <!-- dot eyes -->
    <circle cx="198" cy="138" r="3.6" fill="#111"/>
    <circle cx="230" cy="138" r="3.6" fill="#111"/>
    <!-- little brows for variety -->
    <line x1="190" y1="128" x2="205" y2="130" stroke="#111" stroke-width="2"/>
    <line x1="223" y1="130" x2="238" y2="128" stroke="#111" stroke-width="2"/>
    <path d="M 220 150 q 4 6 -2 9" fill="none" stroke="#111" stroke-width="2" stroke-linecap="round" stroke-linejoin="round"/>
    <path d="M 198 164 Q 214 182 230 164 Z" fill="#f4f1ea" stroke="#111" stroke-width="2.5" stroke-linecap="round" stroke-linejoin="round"/><line x1="202" y1="168" x2="226" y2="168" stroke="#111" stroke-width="1.5"/></g></g><g transform="translate(330,342) scale(0.62) translate(-330,-342)"><g data-who="dailbert">
    <!-- shoulders / shirt -->
    <path d="M 252 342 Q 256 246 290 224 L 370 224 Q 404 246 408 342 Z" fill="#f4f1ea" stroke="#111" stroke-width="3" stroke-linecap="round" stroke-linejoin="round"/>
    <!-- collar -->
    <path d="M 308 226 L 330 246 L 352 226" fill="none" stroke="#111" stroke-width="2.5" stroke-linecap="round" stroke-linejoin="round"/>
    <!-- tie -->
    <path d="M 324 240 L 336 240 L 340 282 L 330 294 L 320 282 Z" fill="#111" stroke="none"/>
    <path d="M 324 240 L 330 250 L 336 240" fill="none" stroke="#f4f1ea" stroke-width="2" stroke-linecap="round"/>
    <!-- neck (bridges chin to shoulders) -->
    <rect x="319" y="168" width="22" height="66" fill="#f4f1ea" stroke="#111" stroke-width="2.5" stroke-linecap="round" stroke-linejoin="round"/>
    <!-- head -->
    <ellipse cx="330" cy="140" rx="37" ry="43" fill="#f4f1ea" stroke="#111" stroke-width="3" stroke-linecap="round" stroke-linejoin="round"/>
    <!-- ears -->
    <circle cx="293" cy="142" r="5" fill="#f4f1ea" stroke="#111" stroke-width="2.5" stroke-linecap="round" stroke-linejoin="round"/>
    <circle cx="367" cy="142" r="5" fill="#f4f1ea" stroke="#111" stroke-width="2.5" stroke-linecap="round" stroke-linejoin="round"/>
    <!-- side hair tufts + one curl -->
    <path d="M 296 120 Q 288 134 294 146" fill="none" stroke="#111" stroke-width="2.5" stroke-linecap="round" stroke-linejoin="round"/>
    <path d="M 364 120 Q 372 134 366 146" fill="none" stroke="#111" stroke-width="2.5" stroke-linecap="round" stroke-linejoin="round"/>
    <path d="M 324 100 q 6 -14 16 -8 q 8 5 2 12" fill="none" stroke="#111" stroke-width="2.5" stroke-linecap="round" stroke-linejoin="round"/>
    <!-- glasses -->
    <circle cx="315" cy="136" r="13" fill="#f4f1ea" stroke="#111" stroke-width="2.5" stroke-linecap="round" stroke-linejoin="round"/>
    <circle cx="345" cy="136" r="13" fill="#f4f1ea" stroke="#111" stroke-width="2.5" stroke-linecap="round" stroke-linejoin="round"/>
    <line x1="328" y1="136" x2="332" y2="136" stroke="#111" stroke-width="2.5"/>
    <!-- eyes -->
    <circle cx="315" cy="136" r="2.6" fill="#111"/>
    <circle cx="345" cy="136" r="2.6" fill="#111"/>
    <!-- nose -->
    <path d="M 330 144 q 4 6 -2 9" fill="none" stroke="#111" stroke-width="2" stroke-linecap="round" stroke-linejoin="round"/>
    <line x1="319" y1="164" x2="341" y2="164" stroke="#111" stroke-width="2.5"/></g></g><g data-surface="monitor">
    <!-- stand -->
    <rect x="78" y="240" width="28" height="20" fill="#f4f1ea" stroke="#111" stroke-width="2.5" stroke-linecap="round" stroke-linejoin="round"/>
    <rect x="58" y="258" width="68" height="8" rx="3" fill="#f4f1ea" stroke="#111" stroke-width="2.5" stroke-linecap="round" stroke-linejoin="round"/>
    <!-- bezel -->
    <rect x="17" y="132" width="150" height="108" rx="8" fill="#f4f1ea" stroke="#111" stroke-width="3.5" stroke-linecap="round" stroke-linejoin="round"/>
    <!-- screen -->
    <rect x="27" y="142" width="130" height="88" rx="3" fill="#f4f1ea" stroke="#111" stroke-width="2"/>
    <rect x="27" y="142" width="130" height="88" rx="3" fill="url(#scan)"/>
    <g >
    <!-- antenna -->
    <line x1="92" y1="154.4" x2="92" y2="145.2" stroke="#111" stroke-width="2.3000000000000003"/>
    <circle cx="92" cy="142.44" r="3.22" fill="#111"/>
    <!-- head: angular chrome -->
    <path d="M 64.4,156.24 L 119.6,156.24 L 123.28,191.2 L 112.24000000000001,205.92000000000002 L 71.75999999999999,205.92000000000002 L 60.72,191.2 Z" fill="#f4f1ea" stroke="#111" stroke-width="2.7600000000000002" stroke-linecap="round" stroke-linejoin="round"/>
    <!-- side bolts -->
    <circle cx="64.4" cy="176.48" r="2.3000000000000003" fill="#111"/>
    <circle cx="119.6" cy="176.48" r="2.3000000000000003" fill="#111"/>
    <!-- brow ridge -->
    <line x1="68.08" y1="167.28" x2="115.92" y2="167.28" stroke="#111" stroke-width="1.84"/>
    <!-- glowing slot eyes -->
    <rect x="73.6" y="175.56" width="16.560000000000002" height="3.68" rx="1.84" fill="#111"/>
    <rect x="93.84" y="175.56" width="16.560000000000002" height="3.68" rx="1.84" fill="#111"/>
    <!-- mouth grille -->
    <rect x="78.2" y="193.04" width="27.6" height="11.040000000000001" rx="1.84" fill="none" stroke="#111" stroke-width="1.84" stroke-linecap="round" stroke-linejoin="round"/>
    <line x1="80.96" y1="194.88" x2="80.96" y2="202.24" stroke="#111" stroke-width="1.84"/><line x1="86.48" y1="194.88" x2="86.48" y2="202.24" stroke="#111" stroke-width="1.84"/><line x1="92" y1="194.88" x2="92" y2="202.24" stroke="#111" stroke-width="1.84"/><line x1="97.52" y1="194.88" x2="97.52" y2="202.24" stroke="#111" stroke-width="1.84"/><line x1="103.04" y1="194.88" x2="103.04" y2="202.24" stroke="#111" stroke-width="1.84"/>
  </g>
  </g><g data-balloon="speech"><path d="M 204 70 L 214 195.68 L 224 70 Z" fill="#f4f1ea" stroke="#111" stroke-width="2.5" stroke-linecap="round" stroke-linejoin="round"/><rect x="145.4" y="10" width="137.2" height="62" rx="16" fill="#f4f1ea" stroke="#111" stroke-width="2.5" stroke-linecap="round" stroke-linejoin="round"/><text x="214" y="36" text-anchor="middle" font-family="'Comic Sans MS','Segoe Print',cursive" font-size="14.5" fill="#111">That's really</text><text x="214" y="55" text-anchor="middle" font-family="'Comic Sans MS','Segoe Print',cursive" font-size="14.5" fill="#111">deep.</text></g><g data-balloon="screen"><line x1="92" y1="180" x2="92" y2="150" stroke="#111" stroke-width="2" stroke-dasharray="3 3"/><circle cx="92" cy="150" r="3" fill="#111"/>
      <rect x="15" y="77" width="185.20000000000002" height="106" rx="3" fill="#f4f1ea" stroke="#111" stroke-width="2" stroke-linecap="round" stroke-linejoin="round"/>
      <rect x="18" y="80" width="179.20000000000002" height="100" rx="2" fill="#f4f1ea" stroke="#111" stroke-width="2.5" stroke-linecap="round" stroke-linejoin="round"/>
      <line x1="18" y1="86" x2="197.20000000000002" y2="86" stroke="#111" stroke-width="1" opacity="0.4"/><text x="107.60000000000001" y="106" text-anchor="middle" font-family="'Comic Sans MS','Segoe Print',cursive" font-size="14.5" fill="#111">It's deflection,</text><text x="107.60000000000001" y="125" text-anchor="middle" font-family="'Comic Sans MS','Segoe Print',cursive" font-size="14.5" fill="#111">Doug. I don't want</text><text x="107.60000000000001" y="144" text-anchor="middle" font-family="'Comic Sans MS','Segoe Print',cursive" font-size="14.5" fill="#111">to think about it</text><text x="107.60000000000001" y="163" text-anchor="middle" font-family="'Comic Sans MS','Segoe Print',cursive" font-size="14.5" fill="#111">either.</text></g><g data-balloon="speech"><path d="M 320 140 L 330 195.68 L 340 140 Z" fill="#f4f1ea" stroke="#111" stroke-width="2.5" stroke-linecap="round" stroke-linejoin="round"/><rect x="211.20000000000002" y="80" width="170.8" height="62" rx="16" fill="#f4f1ea" stroke="#111" stroke-width="2.5" stroke-linecap="round" stroke-linejoin="round"/><text x="296.6" y="106" text-anchor="middle" font-family="'Comic Sans MS','Segoe Print',cursive" font-size="14.5" fill="#111">Everybody back to</text><text x="296.6" y="125" text-anchor="middle" font-family="'Comic Sans MS','Segoe Print',cursive" font-size="14.5" fill="#111">work.</text></g>
    <text x="392" y="332" text-anchor="end" font-family="Georgia,serif" font-size="11" fill="#111" opacity="0.4">3</text>
  </g>
    
  </svg>