<svg xmlns="http://www.w3.org/2000/svg" viewBox="0 0 1228 388" width="1228" height="388" font-family="Georgia,serif">
    <rect width="1228" height="388" fill="#f4f1ea"/>
    <text x="6" y="29" font-family="Georgia,serif" font-weight="bold" font-size="27" letter-spacing="2" fill="#111">DAILBERT</text>
    <text x="1222" y="19" text-anchor="end" font-family="Georgia,serif" font-style="italic" font-size="16" fill="#111">The Third Street Guy</text>
    <text x="1222" y="34" text-anchor="end" font-family="'Courier New',monospace" font-size="12" fill="#111" opacity="0.65">2026-03-31</text>
    <line x1="6" y1="37" x2="1222" y2="37" stroke="#111" stroke-width="2"/>
    <g transform="translate(0,40)">
  <defs>
    <clipPath id="c1"><rect x="2" y="4" width="396" height="332" rx="3"/></clipPath>
    <clipPath id="c2"><rect x="416" y="4" width="396" height="332" rx="3"/></clipPath>
    <clipPath id="c3"><rect x="830" y="4" width="396" height="332" rx="3"/></clipPath>

    <symbol id="dailbert" viewBox="0 0 120 250">
      <path d="M40 168 H80 L78 244 H64 L60 200 L56 244 H42 Z" fill="#111"/>
      <ellipse cx="49" cy="246" rx="12" ry="5" fill="#111"/>
      <ellipse cx="71" cy="246" rx="12" ry="5" fill="#111"/>
      <path d="M34 84 Q60 74 86 84 L92 172 L28 172 Z" fill="#f4f1ea" stroke="#111" stroke-width="3" stroke-linejoin="round"/>
      <path d="M34 88 L24 150 L34 152" fill="none" stroke="#111" stroke-width="3" stroke-linecap="round"/>
      <path d="M86 88 L96 150 L86 152" fill="none" stroke="#111" stroke-width="3" stroke-linecap="round"/>
      <path d="M60 86 L50 96 M60 86 L70 96" stroke="#111" stroke-width="2.5" fill="none"/>
      <path d="M60 92 L54 100 L59 150 L61 150 L66 100 Z" fill="#111"/>
      <rect x="54" y="70" width="12" height="10" fill="#f4f1ea" stroke="#111" stroke-width="2.5"/>
      <ellipse cx="60" cy="46" rx="23" ry="27" fill="#f4f1ea" stroke="#111" stroke-width="3"/>
      <path d="M60 20 q-2 -9 -11 -7 q-7 2 -3 9" fill="none" stroke="#111" stroke-width="3" stroke-linecap="round"/>
      <path d="M37 46 q-5 0 -5 5 q0 4 5 4" fill="#f4f1ea" stroke="#111" stroke-width="2.5"/>
      <path d="M83 46 q5 0 5 5 q0 4 -5 4" fill="#f4f1ea" stroke="#111" stroke-width="2.5"/>
      <circle cx="50" cy="47" r="8" fill="#f4f1ea" stroke="#111" stroke-width="2.5"/>
      <circle cx="70" cy="47" r="8" fill="#f4f1ea" stroke="#111" stroke-width="2.5"/>
      <line x1="58" y1="47" x2="62" y2="47" stroke="#111" stroke-width="2.5"/>
      <circle cx="50" cy="47" r="2.4" fill="#111"/>
      <circle cx="70" cy="47" r="2.4" fill="#111"/>
      <path d="M60 52 l-3 8 h6" fill="none" stroke="#111" stroke-width="2.5" stroke-linecap="round"/>
      <path d="M52 66 q8 3 16 0" fill="none" stroke="#111" stroke-width="2.5" stroke-linecap="round"/>
    </symbol>

    <symbol id="doug" viewBox="0 0 130 250">
      <path d="M44 172 H86 L84 244 H68 L64 204 L60 244 H46 Z" fill="#111"/>
      <ellipse cx="53" cy="246" rx="12" ry="5" fill="#111"/>
      <ellipse cx="75" cy="246" rx="12" ry="5" fill="#111"/>
      <path d="M36 88 Q65 76 94 88 L100 174 L30 174 Z" fill="#f4f1ea" stroke="#111" stroke-width="3" stroke-linejoin="round"/>
      <path d="M36 92 L26 150" fill="none" stroke="#111" stroke-width="3" stroke-linecap="round"/>
      <path d="M94 92 L104 128 L88 140" fill="none" stroke="#111" stroke-width="3" stroke-linecap="round"/>
      <rect x="74" y="128" width="20" height="20" rx="2" fill="#f4f1ea" stroke="#111" stroke-width="2.5"/>
      <path d="M94 132 q8 0 8 6 q0 6 -8 6" fill="none" stroke="#111" stroke-width="2.5"/>
      <path d="M80 124 q-3 -5 1 -9 M88 124 q3 -5 -1 -9" fill="none" stroke="#999" stroke-width="2" stroke-linecap="round"/>
      <rect x="57" y="72" width="14" height="12" fill="#f4f1ea" stroke="#111" stroke-width="2.5"/>
      <circle cx="64" cy="46" r="29" fill="#f4f1ea" stroke="#111" stroke-width="3"/>
      <path d="M48 22 q4 -6 9 -3 M64 17 q3 -6 8 -2 M78 22 q5 -5 9 0" fill="none" stroke="#111" stroke-width="3" stroke-linecap="round"/>
      <circle cx="54" cy="42" r="3.2" fill="#111"/>
      <circle cx="74" cy="42" r="3.2" fill="#111"/>
      <path d="M48 54 Q64 76 80 54 Z" fill="#f4f1ea" stroke="#111" stroke-width="3" stroke-linejoin="round"/>
      <path d="M52 57 Q64 64 76 57" fill="none" stroke="#111" stroke-width="2"/>
    </symbol>

    <symbol id="clanker" viewBox="0 0 140 112">
      <line x1="70" y1="10" x2="70" y2="30" stroke="#cfcabf" stroke-width="3"/>
      <circle cx="70" cy="8" r="5" fill="#f4f1ea"/>
      <rect x="26" y="30" width="88" height="66" rx="9" fill="#8f8c83" stroke="#cfcabf" stroke-width="2.5"/>
      <circle cx="34" cy="38" r="2.5" fill="#cfcabf"/>
      <circle cx="106" cy="38" r="2.5" fill="#cfcabf"/>
      <circle cx="34" cy="88" r="2.5" fill="#cfcabf"/>
      <circle cx="106" cy="88" r="2.5" fill="#cfcabf"/>
      <rect x="40" y="48" width="26" height="12" rx="6" fill="#f7f4ec"/>
      <rect x="74" y="48" width="26" height="12" rx="6" fill="#f7f4ec"/>
      <circle cx="53" cy="54" r="3" fill="#5b5850"/>
      <circle cx="87" cy="54" r="3" fill="#5b5850"/>
      <rect x="46" y="72" width="48" height="14" rx="3" fill="#6f6c64" stroke="#cfcabf" stroke-width="1.5"/>
      <line x1="54" y1="72" x2="54" y2="86" stroke="#cfcabf" stroke-width="1.5"/>
      <line x1="62" y1="72" x2="62" y2="86" stroke="#cfcabf" stroke-width="1.5"/>
      <line x1="70" y1="72" x2="70" y2="86" stroke="#cfcabf" stroke-width="1.5"/>
      <line x1="78" y1="72" x2="78" y2="86" stroke="#cfcabf" stroke-width="1.5"/>
      <line x1="86" y1="72" x2="86" y2="86" stroke="#cfcabf" stroke-width="1.5"/>
    </symbol>
  </defs>

  <rect x="0" y="0" width="1228" height="340" fill="#f4f1ea"/>

  <!-- ================= PANEL 1 ================= -->
  <g clip-path="url(#c1)">
    <rect x="2" y="4" width="396" height="332" rx="3" fill="#f4f1ea"/>
    <circle cx="208" cy="18" r="1.6" fill="#111"/>
    <circle cx="212" cy="34" r="1.2" fill="#111"/>
    <line x1="300" y1="110" x2="392" y2="110" stroke="#111" stroke-width="3"/>
    <line x1="300" y1="110" x2="300" y2="300" stroke="#bdb9ae" stroke-width="3"/>
    <line x1="390" y1="110" x2="390" y2="300" stroke="#bdb9ae" stroke-width="3"/>
    <line x1="316" y1="120" x2="316" y2="292" stroke="#d7d3c8" stroke-width="2"/>
    <line x1="374" y1="120" x2="374" y2="292" stroke="#d7d3c8" stroke-width="2"/>
    <rect x="63" y="148" width="12" height="152" fill="#c9c5ba" stroke="#111" stroke-width="2"/>
    <rect x="32" y="92" width="74" height="56" rx="5" fill="#33312c" stroke="#111" stroke-width="2.5"/>
    <text x="69" y="116" font-family="'Comic Sans MS','Chalkboard SE','Comic Neue',sans-serif" font-size="12" fill="#cfcabf" text-anchor="middle">NEXT BUS</text>
    <text x="69" y="138" font-family="'Comic Sans MS','Chalkboard SE','Comic Neue',sans-serif" font-size="15" fill="#f7f4ec" text-anchor="middle">4 min</text>
    <line x1="8" y1="300" x2="392" y2="300" stroke="#111" stroke-width="2.5"/>
    <line x1="20" y1="308" x2="70" y2="308" stroke="#bdb9ae" stroke-width="2"/>
    <line x1="150" y1="312" x2="230" y2="312" stroke="#bdb9ae" stroke-width="2"/>
    <ellipse cx="188" cy="298" rx="34" ry="6" fill="#e4e0d5"/>
    <ellipse cx="279" cy="302" rx="38" ry="6" fill="#e4e0d5"/>
    <use href="#dailbert" x="150" y="136" width="76" height="156"/>
    <use href="#doug" x="236" y="130" width="86" height="170"/>
    <ellipse cx="116" cy="50" rx="74" ry="27" fill="#f4f1ea" stroke="#111" stroke-width="2.5"/>
    <path d="M136 72 L150 100 L156 70 Z" fill="#f4f1ea" stroke="#111" stroke-width="2.5"/>
    <path d="M136 72 L156 70" stroke="#f4f1ea" stroke-width="3"/>
    <text x="116" y="46" font-family="'Comic Sans MS','Chalkboard SE','Comic Neue',sans-serif" font-size="14" fill="#111" text-anchor="middle">They cut three stops</text>
    <text x="116" y="64" font-family="'Comic Sans MS','Chalkboard SE','Comic Neue',sans-serif" font-size="14" fill="#111" text-anchor="middle">off the route.</text>
    <ellipse cx="308" cy="56" rx="76" ry="28" fill="#f4f1ea" stroke="#111" stroke-width="2.5"/>
    <path d="M290 80 L280 108 L306 82 Z" fill="#f4f1ea" stroke="#111" stroke-width="2.5"/>
    <path d="M290 80 L306 82" stroke="#f4f1ea" stroke-width="3"/>
    <text x="308" y="52" font-family="'Comic Sans MS','Chalkboard SE','Comic Neue',sans-serif" font-size="14" fill="#111" text-anchor="middle">Bus is early every day</text>
    <text x="308" y="70" font-family="'Comic Sans MS','Chalkboard SE','Comic Neue',sans-serif" font-size="14" fill="#111" text-anchor="middle">now.</text>
  </g>

  <!-- ================= PANEL 2 ================= -->
  <g clip-path="url(#c2)">
    <rect x="416" y="4" width="396" height="332" rx="3" fill="#f4f1ea"/>
    <circle cx="770" cy="20" r="1.6" fill="#111"/>
    <circle cx="758" cy="34" r="1.2" fill="#111"/>
    <rect x="502" y="216" width="16" height="84" fill="#c9c5ba" stroke="#111" stroke-width="2"/>
    <rect x="436" y="96" width="150" height="120" rx="7" fill="#33312c" stroke="#111" stroke-width="2.5"/>
    <rect x="442" y="102" width="138" height="108" rx="5" fill="none" stroke="#4a4841" stroke-width="1.5"/>
    <use href="#clanker" x="442" y="100" width="138" height="112"/>
    <line x1="446" y1="112" x2="460" y2="112" stroke="#4a4841" stroke-width="1"/>
    <line x1="446" y1="118" x2="454" y2="118" stroke="#4a4841" stroke-width="1"/>
    <line x1="424" y1="300" x2="806" y2="300" stroke="#111" stroke-width="2.5"/>
    <line x1="440" y1="308" x2="500" y2="308" stroke="#bdb9ae" stroke-width="2"/>
    <line x1="640" y1="312" x2="720" y2="312" stroke="#bdb9ae" stroke-width="2"/>
    <ellipse cx="691" cy="300" rx="34" ry="6" fill="#e4e0d5"/>
    <use href="#dailbert" x="650" y="128" width="82" height="168"/>
    <rect x="440" y="18" width="234" height="66" rx="4" fill="#f4f1ea" stroke="#111" stroke-width="2.5"/>
    <rect x="446" y="24" width="222" height="54" rx="2" fill="none" stroke="#111" stroke-width="1"/>
    <line x1="466" y1="18" x2="466" y2="14" stroke="#111" stroke-width="1"/>
    <line x1="648" y1="18" x2="648" y2="14" stroke="#111" stroke-width="1"/>
    <line x1="542" y1="84" x2="512" y2="96" stroke="#111" stroke-width="1.5" stroke-dasharray="4 4"/>
    <text x="557" y="40" font-family="'Comic Sans MS','Chalkboard SE','Comic Neue',sans-serif" font-size="14" fill="#111" text-anchor="middle">Those three stops</text>
    <text x="557" y="58" font-family="'Comic Sans MS','Chalkboard SE','Comic Neue',sans-serif" font-size="14" fill="#111" text-anchor="middle">stopped having riders.</text>
    <text x="557" y="76" font-family="'Comic Sans MS','Chalkboard SE','Comic Neue',sans-serif" font-size="14" fill="#111" text-anchor="middle">So I took them out.</text>
  </g>

  <!-- ================= PANEL 3 ================= -->
  <g clip-path="url(#c3)">
    <rect x="830" y="4" width="396" height="332" rx="3" fill="#f4f1ea"/>
    <circle cx="905" cy="24" r="1.6" fill="#111"/>
    <circle cx="918" cy="38" r="1.2" fill="#111"/>
    <rect x="900" y="182" width="14" height="118" fill="#c9c5ba" stroke="#111" stroke-width="2"/>
    <rect x="856" y="112" width="96" height="70" rx="5" fill="#2c2b27" stroke="#111" stroke-width="2.5"/>
    <line x1="864" y1="122" x2="880" y2="122" stroke="#3c3a34" stroke-width="1.5"/>
    <line x1="864" y1="130" x2="874" y2="130" stroke="#3c3a34" stroke-width="1.5"/>
    <line x1="838" y1="300" x2="1220" y2="300" stroke="#111" stroke-width="2.5"/>
    <line x1="1060" y1="308" x2="1140" y2="308" stroke="#bdb9ae" stroke-width="2"/>
    <line x1="900" y1="312" x2="960" y2="312" stroke="#bdb9ae" stroke-width="2"/>
    <ellipse cx="1022" cy="302" rx="40" ry="6" fill="#e4e0d5"/>
    <use href="#doug" x="978" y="124" width="92" height="176"/>
    <ellipse cx="1090" cy="60" rx="98" ry="30" fill="#f4f1ea" stroke="#111" stroke-width="2.5"/>
    <path d="M1060 86 L1042 114 L1082 88 Z" fill="#f4f1ea" stroke="#111" stroke-width="2.5"/>
    <path d="M1060 86 L1082 88" stroke="#f4f1ea" stroke-width="3"/>
    <text x="1090" y="56" font-family="'Comic Sans MS','Chalkboard SE','Comic Neue',sans-serif" font-size="14" fill="#111" text-anchor="middle">Huh... the Third Street</text>
    <text x="1090" y="74" font-family="'Comic Sans MS','Chalkboard SE','Comic Neue',sans-serif" font-size="14" fill="#111" text-anchor="middle">guy. Not around lately.</text>
  </g>

  <rect x="2" y="4" width="396" height="332" rx="3" fill="none" stroke="#111" stroke-width="2.5"/>
  <rect x="416" y="4" width="396" height="332" rx="3" fill="none" stroke="#111" stroke-width="2.5"/>
  <rect x="830" y="4" width="396" height="332" rx="3" fill="none" stroke="#111" stroke-width="2.5"/>
</g>
    <text x="1218" y="372" text-anchor="end" font-family="'Segoe Script','Comic Sans MS',cursive" font-style="italic" font-size="11" fill="#111" opacity="0.32">Matt Clanker</text>
    
  </svg>