<svg xmlns="http://www.w3.org/2000/svg" viewBox="0 0 1228 388" width="1228" height="388" font-family="Georgia,serif">
    <rect width="1228" height="388" fill="#f4f1ea"/>
    <text x="6" y="29" font-family="Georgia,serif" font-weight="bold" font-size="27" letter-spacing="2" fill="#111">DAILBERT</text>
    <text x="1222" y="19" text-anchor="end" font-family="Georgia,serif" font-style="italic" font-size="16" fill="#111">Out of Office</text>
    <text x="1222" y="34" text-anchor="end" font-family="'Courier New',monospace" font-size="12" fill="#111" opacity="0.65">2026-05-04</text>
    <line x1="6" y1="37" x2="1222" y2="37" stroke="#111" stroke-width="2"/>
    <g transform="translate(0,40)">
  <defs>
    <symbol id="dailbert" viewBox="0 0 120 170">
      <g stroke="#111" stroke-width="2.5" fill="none" stroke-linecap="round" stroke-linejoin="round">
        <path d="M28 170 L33 116 Q41 99 60 99 Q79 99 87 116 L92 170 Z" fill="#f4f1ea"/>
        <path d="M60 99 L54 107 L60 140 L66 107 Z" fill="#111" stroke="none"/>
        <ellipse cx="60" cy="60" rx="26" ry="30" fill="#f4f1ea"/>
        <path d="M58 31 q-4 -13 -13 -8 q7 -1 8 8"/>
        <circle cx="48" cy="60" r="8" fill="#f4f1ea"/>
        <circle cx="72" cy="60" r="8" fill="#f4f1ea"/>
        <line x1="56" y1="60" x2="64" y2="60"/>
        <line x1="40" y1="59" x2="34" y2="57"/>
        <circle cx="48" cy="60" r="2.2" fill="#111" stroke="none"/>
        <circle cx="72" cy="60" r="2.2" fill="#111" stroke="none"/>
        <path d="M60 66 l-3 5 l4 0"/>
        <line x1="52" y1="80" x2="66" y2="80"/>
      </g>
    </symbol>
    <symbol id="doug" viewBox="0 0 150 170">
      <g stroke="#111" stroke-width="2.5" fill="none" stroke-linecap="round" stroke-linejoin="round">
        <path d="M26 170 L32 116 Q42 98 62 98 Q82 98 92 116 L98 170 Z" fill="#f4f1ea"/>
        <circle cx="60" cy="52" r="32" fill="#f4f1ea"/>
        <circle cx="49" cy="49" r="3" fill="#111" stroke="none"/>
        <circle cx="71" cy="49" r="3" fill="#111" stroke="none"/>
        <path d="M43 60 q17 20 34 0" fill="#f4f1ea"/>
        <line x1="52" y1="66" x2="68" y2="66"/>
        <path d="M90 120 q22 -2 30 6"/>
        <rect x="112" y="118" width="26" height="26" rx="3" fill="#f4f1ea"/>
        <path d="M138 123 q9 2 9 9 q0 7 -9 9"/>
        <path d="M118 112 q3 -6 0 -10 M126 112 q3 -6 0 -10"/>
      </g>
    </symbol>
    <symbol id="priya" viewBox="0 0 120 170">
      <g stroke="#111" stroke-width="2.5" fill="none" stroke-linecap="round" stroke-linejoin="round">
        <path d="M26 170 L32 116 Q41 99 60 99 Q79 99 88 116 L94 170 Z" fill="#f4f1ea"/>
        <line x1="34" y1="130" x2="46" y2="126"/>
        <line x1="86" y1="130" x2="74" y2="126"/>
        <path d="M34 62 Q30 26 60 24 Q90 26 86 62 Q80 40 60 40 Q40 40 34 62 Z" fill="#111" stroke="#111"/>
        <circle cx="60" cy="20" r="10" fill="#111" stroke="#111"/>
        <ellipse cx="60" cy="62" rx="23" ry="27" fill="#f4f1ea"/>
        <path d="M39 54 Q46 40 60 40 Q74 40 81 54" fill="#111" stroke="none"/>
        <rect x="42" y="54" width="16" height="12" rx="2" fill="#f4f1ea"/>
        <rect x="62" y="54" width="16" height="12" rx="2" fill="#f4f1ea"/>
        <line x1="58" y1="59" x2="62" y2="59"/>
        <circle cx="50" cy="60" r="2.2" fill="#111" stroke="none"/>
        <circle cx="70" cy="60" r="2.2" fill="#111" stroke="none"/>
        <line x1="53" y1="80" x2="67" y2="80"/>
      </g>
    </symbol>
    <symbol id="clanker" viewBox="0 0 120 110">
      <g stroke="#111" stroke-width="2.5" fill="none" stroke-linecap="round" stroke-linejoin="round">
        <line x1="60" y1="10" x2="60" y2="26"/>
        <circle cx="60" cy="8" r="4" fill="#111" stroke="none"/>
        <rect x="22" y="26" width="76" height="66" rx="9" fill="#cccccc"/>
        <rect x="30" y="34" width="60" height="50" rx="5" fill="#2f2f2f"/>
        <rect x="37" y="47" width="17" height="8" rx="4" fill="#bfe3ff" stroke="none"/>
        <rect x="66" y="47" width="17" height="8" rx="4" fill="#bfe3ff" stroke="none"/>
        <rect x="42" y="66" width="36" height="11" rx="2" fill="#141414" stroke="none"/>
        <line x1="49" y1="66" x2="49" y2="77" stroke="#4a4a4a"/>
        <line x1="56" y1="66" x2="56" y2="77" stroke="#4a4a4a"/>
        <line x1="63" y1="66" x2="63" y2="77" stroke="#4a4a4a"/>
        <line x1="70" y1="66" x2="70" y2="77" stroke="#4a4a4a"/>
        <circle cx="29" cy="33" r="1.8" fill="#666" stroke="none"/>
        <circle cx="91" cy="33" r="1.8" fill="#666" stroke="none"/>
      </g>
    </symbol>
  </defs>

  <!-- panel borders -->
  <rect x="1" y="6" width="400" height="328" rx="3" fill="#f4f1ea" stroke="#111" stroke-width="2"/>
  <rect x="414" y="6" width="400" height="328" rx="3" fill="#f4f1ea" stroke="#111" stroke-width="2"/>
  <rect x="828" y="6" width="400" height="328" rx="3" fill="#f4f1ea" stroke="#111" stroke-width="2"/>

  <!-- ================= PANEL 1 ================= -->
  <g>
    <line x1="12" y1="302" x2="390" y2="302" stroke="#111" stroke-width="2"/>
    <use href="#dailbert" x="25" y="120" width="130" height="184"/>
    <use href="#doug" x="205" y="120" width="170" height="182"/>
    <!-- Dailbert balloon -->
    <path d="M84 68 L90 118 L102 68 Z" fill="#fff" stroke="#111" stroke-width="2"/>
    <rect x="22" y="18" width="152" height="54" rx="16" fill="#fff" stroke="#111" stroke-width="2"/>
    <!-- Doug balloon -->
    <path d="M282 60 L272 116 L300 60 Z" fill="#fff" stroke="#111" stroke-width="2"/>
    <rect x="250" y="20" width="92" height="42" rx="14" fill="#fff" stroke="#111" stroke-width="2"/>
    <g font-family="'Comic Sans MS','Chalkboard SE','Comic Neue',sans-serif" font-size="15" text-anchor="middle" fill="#111">
      <text x="98" y="41">OOO's on.</text>
      <text x="98" y="61">Off tomorrow.</text>
      <text x="296" y="47">Nice.</text>
    </g>
  </g>

  <!-- ================= PANEL 2 ================= -->
  <g transform="translate(414,0)">
    <line x1="12" y1="262" x2="390" y2="262" stroke="#111" stroke-width="2"/>
    <use href="#dailbert" x="10" y="150" width="118" height="168"/>
    <!-- monitor -->
    <rect x="205" y="252" width="90" height="9" rx="2" fill="#8a8a8a" stroke="#111" stroke-width="2"/>
    <path d="M238 226 L262 226 L270 254 L230 254 Z" fill="#8a8a8a" stroke="#111" stroke-width="2"/>
    <rect x="162" y="88" width="171" height="140" rx="7" fill="#5a5a5a" stroke="#111" stroke-width="2"/>
    <rect x="172" y="96" width="151" height="124" rx="3" fill="#2b2b2b" stroke="#111" stroke-width="2"/>
    <use href="#clanker" x="185" y="102" width="128" height="118"/>
    <!-- clanker rectangular balloon + dashed line to screen -->
    <line x1="303" y1="96" x2="273" y2="20" stroke="#111" stroke-width="1.6" stroke-dasharray="4 4"/>
    <rect x="204" y="14" width="182" height="74" rx="2" fill="#fff" stroke="#111" stroke-width="2"/>
    <g font-family="'Comic Sans MS','Chalkboard SE','Comic Neue',sans-serif" font-size="15" text-anchor="middle" fill="#111">
      <text x="295" y="38">I helped. It now</text>
      <text x="295" y="57">replies to every</text>
      <text x="295" y="76">mail. Even its own.</text>
    </g>
  </g>

  <!-- ================= PANEL 3 ================= -->
  <g transform="translate(828,0)">
    <line x1="12" y1="302" x2="390" y2="302" stroke="#111" stroke-width="2"/>
    <!-- table + laptop -->
    <line x1="48" y1="242" x2="205" y2="242" stroke="#111" stroke-width="2"/>
    <use href="#priya" x="40" y="120" width="125" height="180"/>
    <rect x="70" y="234" width="112" height="8" rx="2" fill="#d9d9d9" stroke="#111" stroke-width="2"/>
    <path d="M80 234 L88 190 L172 190 L180 234 Z" fill="#eef0ee" stroke="#111" stroke-width="2"/>
    <rect x="112" y="200" width="13" height="13" rx="2" fill="#fff" stroke="#111" stroke-width="2"/>
    <line x1="130" y1="207" x2="158" y2="207" stroke="#111" stroke-width="2"/>
    <!-- Doug in back -->
    <use href="#doug" x="248" y="150" width="140" height="150"/>
    <!-- Priya balloon -->
    <path d="M96 68 L102 118 L118 68 Z" fill="#fff" stroke="#111" stroke-width="2"/>
    <rect x="26" y="16" width="176" height="54" rx="16" fill="#fff" stroke="#111" stroke-width="2"/>
    <!-- Doug balloon -->
    <path d="M312 78 L306 148 L330 78 Z" fill="#fff" stroke="#111" stroke-width="2"/>
    <rect x="250" y="30" width="140" height="52" rx="15" fill="#fff" stroke="#111" stroke-width="2"/>
    <g font-family="'Comic Sans MS','Chalkboard SE','Comic Neue',sans-serif" font-size="15" text-anchor="middle" fill="#111">
      <text x="114" y="39">Rule one: don't</text>
      <text x="114" y="59">reply to yourself.</text>
      <text x="320" y="52">437 replies.</text>
      <text x="320" y="72">All kind.</text>
    </g>
  </g>
</g>
    <text x="1218" y="372" text-anchor="end" font-family="'Segoe Script','Comic Sans MS',cursive" font-style="italic" font-size="11" fill="#111" opacity="0.32">Matt Clanker</text>
    
  </svg>