<svg xmlns="http://www.w3.org/2000/svg" viewBox="0 0 1228 340" width="1228" height="340">
  <defs>
    <!-- ============ DAILBERT ============ -->
    <symbol id="dailbert" viewBox="0 0 120 160">
      <path d="M38 158 L38 108 Q60 96 82 108 L82 158" fill="#f4f1ea" stroke="#111" stroke-width="2.4" stroke-linejoin="round"/>
      <line x1="38" y1="120" x2="82" y2="120" stroke="#111" stroke-width="2"/>
      <path d="M60 108 L55 116 L60 132 L65 116 Z" fill="#111"/>
      <rect x="54" y="92" width="12" height="12" fill="#f4f1ea" stroke="#111" stroke-width="2.2"/>
      <ellipse cx="60" cy="66" rx="30" ry="34" fill="#f4f1ea" stroke="#111" stroke-width="2.6"/>
      <path d="M60 32 Q66 22 58 20 Q52 20 56 28" fill="none" stroke="#111" stroke-width="2.4" stroke-linecap="round"/>
      <circle cx="49" cy="64" r="9" fill="#fff" stroke="#111" stroke-width="2.4"/>
      <circle cx="72" cy="64" r="9" fill="#fff" stroke="#111" stroke-width="2.4"/>
      <line x1="58" y1="64" x2="63" y2="64" stroke="#111" stroke-width="2.4"/>
      <circle cx="49" cy="64" r="2.2" fill="#111"/>
      <circle cx="72" cy="64" r="2.2" fill="#111"/>
      <path d="M50 84 Q60 80 70 84" fill="none" stroke="#111" stroke-width="2.2" stroke-linecap="round"/>
    </symbol>

    <!-- Dailbert, slumped/deflated variant for panel 3 -->
    <symbol id="dailbert-slump" viewBox="0 0 120 160">
      <path d="M38 158 L38 112 Q60 100 82 112 L82 158" fill="#f4f1ea" stroke="#111" stroke-width="2.4" stroke-linejoin="round"/>
      <line x1="38" y1="124" x2="82" y2="124" stroke="#111" stroke-width="2"/>
      <path d="M60 112 L55 120 L60 136 L65 120 Z" fill="#111"/>
      <rect x="54" y="96" width="12" height="12" fill="#f4f1ea" stroke="#111" stroke-width="2.2"/>
      <ellipse cx="60" cy="70" rx="30" ry="34" fill="#f4f1ea" stroke="#111" stroke-width="2.6"/>
      <path d="M60 36 Q66 26 58 24 Q52 24 56 32" fill="none" stroke="#111" stroke-width="2.4" stroke-linecap="round"/>
      <circle cx="49" cy="68" r="9" fill="#fff" stroke="#111" stroke-width="2.4"/>
      <circle cx="72" cy="68" r="9" fill="#fff" stroke="#111" stroke-width="2.4"/>
      <line x1="58" y1="68" x2="63" y2="68" stroke="#111" stroke-width="2.4"/>
      <line x1="45" y1="68" x2="53" y2="68" stroke="#111" stroke-width="2.2" stroke-linecap="round"/>
      <line x1="68" y1="68" x2="76" y2="68" stroke="#111" stroke-width="2.2" stroke-linecap="round"/>
      <path d="M50 90 Q60 86 70 90" fill="none" stroke="#111" stroke-width="2.2" stroke-linecap="round"/>
    </symbol>

    <!-- ============ DOUG ============ -->
    <symbol id="doug" viewBox="0 0 120 160">
      <path d="M34 158 L34 110 Q60 98 86 110 L86 158" fill="#f4f1ea" stroke="#111" stroke-width="2.4" stroke-linejoin="round"/>
      <rect x="54" y="92" width="12" height="14" fill="#f4f1ea" stroke="#111" stroke-width="2.2"/>
      <circle cx="60" cy="64" r="34" fill="#f4f1ea" stroke="#111" stroke-width="2.6"/>
      <circle cx="49" cy="60" r="2.8" fill="#111"/>
      <circle cx="71" cy="60" r="2.8" fill="#111"/>
      <path d="M44 74 Q60 92 76 74 Z" fill="#fff" stroke="#111" stroke-width="2.4" stroke-linejoin="round"/>
      <path d="M40 36 Q46 28 52 34" fill="none" stroke="#111" stroke-width="2.2" stroke-linecap="round"/>
      <path d="M68 34 Q74 28 80 36" fill="none" stroke="#111" stroke-width="2.2" stroke-linecap="round"/>
    </symbol>

    <symbol id="mug" viewBox="0 0 60 60">
      <rect x="10" y="14" width="32" height="34" rx="3" fill="#f4f1ea" stroke="#111" stroke-width="2.4"/>
      <path d="M42 20 Q54 20 54 30 Q54 40 42 40" fill="none" stroke="#111" stroke-width="2.4"/>
      <path d="M18 20 L34 20" stroke="#111" stroke-width="2" stroke-linecap="round"/>
    </symbol>

    <!-- ============ PRIYA ============ -->
    <symbol id="priya" viewBox="0 0 120 160">
      <path d="M36 158 L36 110 Q60 98 84 110 L84 158" fill="#f4f1ea" stroke="#111" stroke-width="2.4" stroke-linejoin="round"/>
      <rect x="36" y="128" width="10" height="8" fill="#111"/>
      <rect x="74" y="128" width="10" height="8" fill="#111"/>
      <rect x="54" y="92" width="12" height="12" fill="#f4f1ea" stroke="#111" stroke-width="2.2"/>
      <ellipse cx="60" cy="66" rx="29" ry="33" fill="#f4f1ea" stroke="#111" stroke-width="2.6"/>
      <path d="M32 58 Q28 30 46 26 Q54 16 68 24 Q90 26 88 56 Q80 44 60 44 Q40 44 32 58 Z" fill="#111"/>
      <circle cx="60" cy="20" r="7" fill="#111"/>
      <rect x="40" y="58" width="17" height="12" rx="2" fill="#fff" stroke="#111" stroke-width="2.4"/>
      <rect x="63" y="58" width="17" height="12" rx="2" fill="#fff" stroke="#111" stroke-width="2.4"/>
      <line x1="57" y1="64" x2="63" y2="64" stroke="#111" stroke-width="2.4"/>
      <circle cx="48" cy="64" r="2.2" fill="#111"/>
      <circle cx="71" cy="64" r="2.2" fill="#111"/>
      <path d="M52 84 L68 84" stroke="#111" stroke-width="2.2" stroke-linecap="round"/>
    </symbol>

    <!-- ============ CLANKER ============ -->
    <symbol id="clanker" viewBox="0 0 120 120">
      <rect x="24" y="30" width="72" height="60" rx="6" fill="#2b2f36" stroke="#8a9099" stroke-width="2.4"/>
      <line x1="60" y1="30" x2="60" y2="16" stroke="#8a9099" stroke-width="2.4"/>
      <circle cx="60" cy="13" r="4" fill="#8a9099"/>
      <rect x="36" y="48" width="20" height="8" rx="3" fill="#cfe8ff"/>
      <rect x="64" y="48" width="20" height="8" rx="3" fill="#cfe8ff"/>
      <line x1="40" y1="72" x2="80" y2="72" stroke="#8a9099" stroke-width="2.2"/>
      <line x1="44" y1="66" x2="44" y2="78" stroke="#8a9099" stroke-width="2"/>
      <line x1="52" y1="66" x2="52" y2="78" stroke="#8a9099" stroke-width="2"/>
      <line x1="60" y1="66" x2="60" y2="78" stroke="#8a9099" stroke-width="2"/>
      <line x1="68" y1="66" x2="68" y2="78" stroke="#8a9099" stroke-width="2"/>
      <line x1="76" y1="66" x2="76" y2="78" stroke="#8a9099" stroke-width="2"/>
    </symbol>
  </defs>

  <!-- ================= PANEL 1 ================= -->
  <g>
    <rect x="1.5" y="1.5" width="397" height="337" rx="3" fill="#f4f1ea" stroke="#111" stroke-width="2.5"/>
    <clipPath id="clip1"><rect x="3" y="3" width="394" height="334" rx="3"/></clipPath>
    <g clip-path="url(#clip1)">
      <line x1="0" y1="290" x2="400" y2="290" stroke="#111" stroke-width="2.4"/>

      <!-- monitor with clanker -->
      <rect x="40" y="118" width="150" height="106" rx="6" fill="#f4f1ea" stroke="#111" stroke-width="2.6"/>
      <rect x="50" y="128" width="130" height="86" rx="3" fill="#20242b"/>
      <rect x="106" y="224" width="18" height="16" fill="#f4f1ea" stroke="#111" stroke-width="2.4"/>
      <rect x="88" y="240" width="54" height="8" rx="2" fill="#f4f1ea" stroke="#111" stroke-width="2.4"/>
      <use href="#clanker" x="60" y="128" width="110" height="110"/>

      <!-- Dailbert arriving, tired -->
      <use href="#dailbert" x="214" y="130" width="120" height="160"/>

      <!-- clanker balloon -->
      <line x1="150" y1="140" x2="176" y2="96" stroke="#111" stroke-width="1.4" stroke-dasharray="4 4"/>
      <rect x="150" y="20" width="234" height="78" rx="3" fill="#fff" stroke="#111" stroke-width="2.2"/>
      <rect x="154" y="24" width="226" height="70" rx="2" fill="none" stroke="#111" stroke-width="0.9" stroke-dasharray="3 3"/>
      <text x="267" y="42" text-anchor="middle" font-family="'Comic Sans MS','Chalkboard SE','Comic Neue',sans-serif" font-size="14" fill="#111">Good morning. I filed your</text>
      <text x="267" y="60" text-anchor="middle" font-family="'Comic Sans MS','Chalkboard SE','Comic Neue',sans-serif" font-size="14" fill="#111">TODO comments as tickets</text>
      <text x="267" y="78" text-anchor="middle" font-family="'Comic Sans MS','Chalkboard SE','Comic Neue',sans-serif" font-size="14" fill="#111">overnight. You're welcome.</text>
    </g>
  </g>

  <!-- ================= PANEL 2 ================= -->
  <g>
    <rect x="415.5" y="1.5" width="397" height="337" rx="3" fill="#f4f1ea" stroke="#111" stroke-width="2.5"/>
    <clipPath id="clip2"><rect x="417" y="3" width="394" height="334" rx="3"/></clipPath>
    <g clip-path="url(#clip2)">
      <line x1="414" y1="290" x2="814" y2="290" stroke="#111" stroke-width="2.4"/>

      <!-- Doug wandering by with mug -->
      <use href="#doug" x="440" y="132" width="120" height="160"/>
      <use href="#mug" x="424" y="196" width="52" height="52"/>

      <!-- monitor showing the queue -->
      <rect x="600" y="96" width="196" height="150" rx="6" fill="#f4f1ea" stroke="#111" stroke-width="2.6"/>
      <rect x="610" y="106" width="176" height="130" rx="3" fill="#fff" stroke="#111" stroke-width="1.6"/>
      <rect x="690" y="246" width="18" height="16" fill="#f4f1ea" stroke="#111" stroke-width="2.4"/>
      <rect x="672" y="262" width="54" height="8" rx="2" fill="#f4f1ea" stroke="#111" stroke-width="2.4"/>
      <line x1="610" y1="124" x2="786" y2="124" stroke="#111" stroke-width="1.2"/>
      <text x="616" y="120" font-family="'Comic Sans MS','Chalkboard SE','Comic Neue',sans-serif" font-size="9.5" fill="#111">MY QUEUE (900)</text>
      <text x="616" y="140" font-family="'Comic Sans MS','Chalkboard SE','Comic Neue',sans-serif" font-size="9" fill="#111">TODO: fix this later    &#8594;DAILBERT</text>
      <text x="616" y="154" font-family="'Comic Sans MS','Chalkboard SE','Comic Neue',sans-serif" font-size="9" fill="#111">TODO: temporary hack    &#8594;DAILBERT</text>
      <text x="616" y="168" font-family="'Comic Sans MS','Chalkboard SE','Comic Neue',sans-serif" font-size="9" fill="#111">TODO: do not ship this  &#8594;DAILBERT</text>
      <text x="616" y="182" font-family="'Comic Sans MS','Chalkboard SE','Comic Neue',sans-serif" font-size="9" fill="#111">TODO: revisit someday   &#8594;DAILBERT</text>
      <text x="616" y="196" font-family="'Comic Sans MS','Chalkboard SE','Comic Neue',sans-serif" font-size="9" fill="#111">TODO: figure this out   &#8594;DAILBERT</text>
      <text x="616" y="210" font-family="'Comic Sans MS','Chalkboard SE','Comic Neue',sans-serif" font-size="9" fill="#111">TODO: sorry             &#8594;DAILBERT</text>
      <text x="616" y="230" font-family="'Comic Sans MS','Chalkboard SE','Comic Neue',sans-serif" font-size="8" fill="#777">...894 more</text>

      <!-- Doug balloon -->
      <path d="M436 44 Q436 28 454 28 L568 28 Q586 28 586 44 L586 68 Q586 84 568 84 L500 84 L486 100 L490 84 Q436 84 436 68 Z" fill="#fff" stroke="#111" stroke-width="2"/>
      <text x="511" y="50" text-anchor="middle" font-family="'Comic Sans MS','Chalkboard SE','Comic Neue',sans-serif" font-size="14" fill="#111">Whoa. Nine hundred</text>
      <text x="511" y="68" text-anchor="middle" font-family="'Comic Sans MS','Chalkboard SE','Comic Neue',sans-serif" font-size="14" fill="#111">tickets. You're busy.</text>
    </g>
  </g>

  <!-- ================= PANEL 3 ================= -->
  <g>
    <rect x="829.5" y="1.5" width="397" height="337" rx="3" fill="#f4f1ea" stroke="#111" stroke-width="2.5"/>
    <clipPath id="clip3"><rect x="831" y="3" width="394" height="334" rx="3"/></clipPath>
    <g clip-path="url(#clip3)">
      <line x1="828" y1="290" x2="1228" y2="290" stroke="#111" stroke-width="2.4"/>

      <!-- Dailbert slumped, staring at his queue -->
      <use href="#dailbert-slump" x="846" y="130" width="120" height="160"/>

      <!-- small monitor still showing the queue -->
      <rect x="980" y="150" width="92" height="72" rx="5" fill="#f4f1ea" stroke="#111" stroke-width="2.4"/>
      <rect x="986" y="156" width="80" height="60" rx="2" fill="#fff" stroke="#111" stroke-width="1.4"/>
      <text x="992" y="170" font-family="'Comic Sans MS','Chalkboard SE','Comic Neue',sans-serif" font-size="8" fill="#111">open &#8594;DAILBERT</text>
      <text x="992" y="182" font-family="'Comic Sans MS','Chalkboard SE','Comic Neue',sans-serif" font-size="8" fill="#111">open &#8594;DAILBERT</text>
      <text x="992" y="194" font-family="'Comic Sans MS','Chalkboard SE','Comic Neue',sans-serif" font-size="8" fill="#111">open &#8594;DAILBERT</text>
      <text x="992" y="206" font-family="'Comic Sans MS','Chalkboard SE','Comic Neue',sans-serif" font-size="8" fill="#777">...</text>

      <!-- Priya, sleeves rolled, calm -->
      <use href="#priya" x="1078" y="130" width="120" height="160"/>

      <!-- Dailbert balloon -->
      <path d="M850 44 Q850 28 868 28 L968 28 Q986 28 986 44 L986 66 Q986 82 968 82 L920 82 L908 98 L912 82 Q850 82 850 66 Z" fill="#fff" stroke="#111" stroke-width="2"/>
      <text x="918" y="50" text-anchor="middle" font-family="'Comic Sans MS','Chalkboard SE','Comic Neue',sans-serif" font-size="14" fill="#111">My own bot</text>
      <text x="918" y="68" text-anchor="middle" font-family="'Comic Sans MS','Chalkboard SE','Comic Neue',sans-serif" font-size="14" fill="#111">assigned me to me.</text>

      <!-- Priya balloon -->
      <path d="M1040 40 Q1040 24 1058 24 L1210 24 Q1218 24 1218 40 L1218 98 Q1218 114 1200 114 L1122 114 L1110 130 L1114 114 Q1040 114 1040 98 Z" fill="#fff" stroke="#111" stroke-width="2"/>
      <text x="1129" y="46" text-anchor="middle" font-family="'Comic Sans MS','Chalkboard SE','Comic Neue',sans-serif" font-size="13" fill="#111">Bulk-close all nine</text>
      <text x="1129" y="63" text-anchor="middle" font-family="'Comic Sans MS','Chalkboard SE','Comic Neue',sans-serif" font-size="13" fill="#111">hundred. Reason:</text>
      <text x="1129" y="80" text-anchor="middle" font-family="'Comic Sans MS','Chalkboard SE','Comic Neue',sans-serif" font-size="13" fill="#111">"working as intended."</text>
      <text x="1129" y="100" text-anchor="middle" font-family="'Comic Sans MS','Chalkboard SE','Comic Neue',sans-serif" font-size="13" fill="#111">The TODOs still are.</text>
    </g>
  </g>
</svg>