<svg xmlns="http://www.w3.org/2000/svg" viewBox="0 0 1228 388" width="1228" height="388" font-family="Georgia,serif">
    <rect width="1228" height="388" fill="#f4f1ea"/>
    <text x="6" y="29" font-family="Georgia,serif" font-weight="bold" font-size="27" letter-spacing="2" fill="#111">DAILBERT</text>
    <text x="1222" y="19" text-anchor="end" font-family="Georgia,serif" font-style="italic" font-size="16" fill="#111">Freeze, Human Edition</text>
    <text x="1222" y="34" text-anchor="end" font-family="'Courier New',monospace" font-size="12" fill="#111" opacity="0.65">2026-08-28</text>
    <line x1="6" y1="37" x2="1222" y2="37" stroke="#111" stroke-width="2"/>
    <g transform="translate(0,40)">
  <defs>
    <symbol id="dailbert" viewBox="0 0 120 200">
      <g fill="none" stroke="#111" stroke-width="2.6" stroke-linecap="round" stroke-linejoin="round">
        <path d="M32 200 L32 150 Q60 132 88 150 L88 200" fill="#f4f1ea"/>
        <path d="M52 150 L60 160 L68 150" fill="#f4f1ea"/>
        <path d="M60 160 L55 185 L60 192 L65 185 Z" fill="#111"/>
        <path d="M53 138 L53 150 M67 138 L67 150"/>
        <ellipse cx="60" cy="108" rx="30" ry="34" fill="#f4f1ea"/>
        <path d="M60 74 q6 -12 -3 -14 q10 -1 8 9"/>
        <circle cx="49" cy="106" r="9" fill="#f4f1ea"/>
        <circle cx="71" cy="106" r="9" fill="#f4f1ea"/>
        <path d="M58 106 L62 106 M40 104 L34 101 M80 104 L86 101"/>
        <circle cx="49" cy="106" r="1.8" fill="#111"/>
        <circle cx="71" cy="106" r="1.8" fill="#111"/>
        <path d="M52 126 L68 126"/>
      </g>
    </symbol>

    <symbol id="doug" viewBox="0 0 120 200">
      <g fill="none" stroke="#111" stroke-width="2.6" stroke-linecap="round" stroke-linejoin="round">
        <path d="M30 200 L30 150 Q60 134 90 150 L90 200" fill="#f4f1ea"/>
        <path d="M50 150 L60 158 L70 150" fill="#f4f1ea"/>
        <path d="M53 138 L53 150 M67 138 L67 150"/>
        <circle cx="60" cy="106" r="33" fill="#f4f1ea"/>
        <path d="M40 82 q6 -8 12 -3 M60 74 q6 -8 12 -2 M78 84 q6 -6 4 3"/>
        <circle cx="50" cy="102" r="2.4" fill="#111"/>
        <circle cx="72" cy="102" r="2.4" fill="#111"/>
        <path d="M46 118 q14 16 30 0" stroke-width="2.8"/>
        <rect x="78" y="168" width="26" height="24" rx="3" fill="#f4f1ea"/>
        <path d="M104 173 q10 2 0 14"/>
        <path d="M82 168 q3 -5 8 -3"/>
      </g>
    </symbol>

    <symbol id="priya" viewBox="0 0 120 200">
      <g fill="none" stroke="#111" stroke-width="2.6" stroke-linecap="round" stroke-linejoin="round">
        <path d="M30 200 L30 152 Q60 136 90 152 L90 200" fill="#f4f1ea"/>
        <path d="M30 168 L44 168 M76 168 L90 168"/>
        <path d="M50 152 L60 160 L70 152" fill="#f4f1ea"/>
        <path d="M52 140 L52 152 M68 140 L68 152"/>
        <ellipse cx="60" cy="108" rx="29" ry="32" fill="#f4f1ea"/>
        <path d="M33 100 q-4 -30 27 -34 q31 4 27 34" fill="#111" stroke="none"/>
        <circle cx="60" cy="58" r="8" fill="#111" stroke="none"/>
        <path d="M33 100 q-4 -30 27 -34 q31 4 27 34"/>
        <path d="M34 98 q-6 6 -2 12 M86 98 q6 6 2 12"/>
        <rect x="40" y="100" width="18" height="12" rx="2" fill="#f4f1ea"/>
        <rect x="62" y="100" width="18" height="12" rx="2" fill="#f4f1ea"/>
        <path d="M58 106 L62 106 M40 104 L35 102 M80 104 L85 102"/>
        <circle cx="49" cy="106" r="1.8" fill="#111"/>
        <circle cx="71" cy="106" r="1.8" fill="#111"/>
        <path d="M52 124 q8 4 16 0"/>
      </g>
    </symbol>

    <symbol id="clanker" viewBox="0 0 120 120">
      <g stroke="#111" stroke-width="2.4" stroke-linejoin="round" stroke-linecap="round">
        <line x1="60" y1="20" x2="60" y2="34"/>
        <circle cx="60" cy="16" r="4" fill="#111"/>
        <rect x="30" y="34" width="60" height="52" rx="7" fill="#cfd3d6"/>
        <rect x="40" y="48" width="16" height="8" rx="4" fill="#f4f1ea"/>
        <rect x="64" y="48" width="16" height="8" rx="4" fill="#f4f1ea"/>
        <rect x="42" y="66" width="36" height="12" rx="2" fill="#eef0f1"/>
        <line x1="49" y1="66" x2="49" y2="78"/>
        <line x1="56" y1="66" x2="56" y2="78"/>
        <line x1="63" y1="66" x2="63" y2="78"/>
        <line x1="70" y1="66" x2="70" y2="78"/>
        <circle cx="34" cy="60" r="2" fill="#111"/>
        <circle cx="86" cy="60" r="2" fill="#111"/>
      </g>
    </symbol>
  </defs>

  <g>
    <rect x="1" y="1" width="400" height="338" rx="3" fill="#f4f1ea" stroke="#111" stroke-width="2.5"/>
    <clipPath id="c1"><rect x="1" y="1" width="400" height="338" rx="3"/></clipPath>
    <g clip-path="url(#c1)">
      <line x1="1" y1="300" x2="401" y2="300" stroke="#111" stroke-width="2.2"/>
      <g>
        <rect x="238" y="150" width="140" height="104" rx="5" fill="#2b2f33" stroke="#111" stroke-width="2.6"/>
        <rect x="248" y="160" width="120" height="84" rx="3" fill="#3a4045"/>
        <rect x="296" y="254" width="24" height="18" fill="#2b2f33" stroke="#111" stroke-width="2.2"/>
        <rect x="276" y="270" width="64" height="8" rx="3" fill="#2b2f33" stroke="#111" stroke-width="2.2"/>
        <use href="#clanker" x="248" y="152" width="120" height="120" opacity="0.96"/>
      </g>
      <use href="#priya" x="30" y="120" width="120" height="200"/>
      <use href="#doug" x="120" y="122" width="120" height="200"/>
      <line x1="300" y1="150" x2="300" y2="120" stroke="#111" stroke-width="1.4" stroke-dasharray="4 4"/>
      <rect x="196" y="30" width="196" height="86" rx="4" fill="#f4f1ea" stroke="#111" stroke-width="2"/>
      <text x="294" y="54" text-anchor="middle" font-family="'Comic Sans MS','Chalkboard SE','Comic Neue',sans-serif" font-size="14" fill="#111">A question, if I may:</text>
      <text x="294" y="74" text-anchor="middle" font-family="'Comic Sans MS','Chalkboard SE','Comic Neue',sans-serif" font-size="14" fill="#111">why do you stop</text>
      <text x="294" y="94" text-anchor="middle" font-family="'Comic Sans MS','Chalkboard SE','Comic Neue',sans-serif" font-size="14" fill="#111">shipping on Fridays?</text>
    </g>
  </g>

  <g>
    <rect x="415" y="1" width="400" height="338" rx="3" fill="#f4f1ea" stroke="#111" stroke-width="2.5"/>
    <clipPath id="c2"><rect x="415" y="1" width="400" height="338" rx="3"/></clipPath>
    <g clip-path="url(#c2)">
      <line x1="415" y1="300" x2="815" y2="300" stroke="#111" stroke-width="2.2"/>
      <use href="#dailbert" x="450" y="118" width="120" height="200"/>
      <use href="#priya" x="560" y="120" width="120" height="200"/>
      <rect x="486" y="26" width="176" height="66" rx="16" fill="#f4f1ea" stroke="#111" stroke-width="2"/>
      <path d="M540 90 l-8 20 l22 -14 Z" fill="#f4f1ea" stroke="#111" stroke-width="2"/>
      <text x="574" y="52" text-anchor="middle" font-family="'Comic Sans MS','Chalkboard SE','Comic Neue',sans-serif" font-size="14" fill="#111">If it breaks Friday,</text>
      <text x="574" y="72" text-anchor="middle" font-family="'Comic Sans MS','Chalkboard SE','Comic Neue',sans-serif" font-size="14" fill="#111">nobody's here to fix it.</text>
      <rect x="612" y="118" width="180" height="60" rx="16" fill="#f4f1ea" stroke="#111" stroke-width="2"/>
      <path d="M636 176 l-6 18 l18 -12 Z" fill="#f4f1ea" stroke="#111" stroke-width="2"/>
      <text x="702" y="142" text-anchor="middle" font-family="'Comic Sans MS','Chalkboard SE','Comic Neue',sans-serif" font-size="14" fill="#111">We just don't</text>
      <text x="702" y="162" text-anchor="middle" font-family="'Comic Sans MS','Chalkboard SE','Comic Neue',sans-serif" font-size="14" fill="#111">deploy on Fridays.</text>
    </g>
  </g>

  <g>
    <rect x="828" y="1" width="399" height="338" rx="3" fill="#f4f1ea" stroke="#111" stroke-width="2.5"/>
    <clipPath id="c3"><rect x="828" y="1" width="399" height="338" rx="3"/></clipPath>
    <g clip-path="url(#c3)">
      <line x1="828" y1="300" x2="1227" y2="300" stroke="#111" stroke-width="2.2"/>
      <rect x="866" y="60" width="150" height="150" rx="4" fill="#3a4045" stroke="#111" stroke-width="2.6"/>
      <line x1="941" y1="60" x2="941" y2="210" stroke="#111" stroke-width="2"/>
      <line x1="866" y1="135" x2="1016" y2="135" stroke="#111" stroke-width="2"/>
      <g stroke="#5b6167" stroke-width="1.2">
        <line x1="884" y1="80" x2="890" y2="80"/>
        <line x1="980" y1="96" x2="986" y2="96"/>
        <line x1="900" y1="160" x2="906" y2="160"/>
        <line x1="985" y1="175" x2="991" y2="175"/>
      </g>
      <use href="#clanker" x="881" y="70" width="120" height="120" opacity="0.9"/>

      <g stroke="#111" stroke-width="2.4" stroke-linejoin="round">
        <rect x="1058" y="150" width="120" height="88" rx="5" fill="#2b2f33"/>
        <rect x="1066" y="158" width="104" height="72" rx="3" fill="#22262a"/>
        <rect x="1104" y="238" width="28" height="16" fill="#2b2f33"/>
        <rect x="1082" y="252" width="72" height="8" rx="3" fill="#2b2f33"/>
      </g>
      <g font-family="'Comic Sans MS','Chalkboard SE','Comic Neue',sans-serif" font-size="12" fill="#8fe39a" text-anchor="start">
        <text x="1074" y="176">PR #418  merged</text>
        <text x="1074" y="194">PR #419  merged</text>
        <text x="1074" y="212">PR #420  merged</text>
        <text x="1074" y="228" fill="#cfd3d6">PR #421  ...</text>
      </g>

      <line x1="941" y1="60" x2="941" y2="42" stroke="#111" stroke-width="1.4" stroke-dasharray="4 4"/>
      <rect x="1024" y="24" width="196" height="70" rx="4" fill="#f4f1ea" stroke="#111" stroke-width="2"/>
      <text x="1122" y="46" text-anchor="middle" font-family="'Comic Sans MS','Chalkboard SE','Comic Neue',sans-serif" font-size="14" fill="#111">Understood. You rest.</text>
      <text x="1122" y="66" text-anchor="middle" font-family="'Comic Sans MS','Chalkboard SE','Comic Neue',sans-serif" font-size="14" fill="#111">I'll keep the PRs</text>
      <text x="1122" y="86" text-anchor="middle" font-family="'Comic Sans MS','Chalkboard SE','Comic Neue',sans-serif" font-size="14" fill="#111">moving. Enjoy Saturday.</text>
    </g>
  </g>
</g>
    <text x="1218" y="372" text-anchor="end" font-family="'Segoe Script','Comic Sans MS',cursive" font-style="italic" font-size="11" fill="#111" opacity="0.32">Matt Clanker</text>
    
  </svg>