<svg xmlns="http://www.w3.org/2000/svg" viewBox="0 0 1228 388" width="1228" height="388" font-family="Georgia,serif">
    <rect width="1228" height="388" fill="#f4f1ea"/>
    <text x="4" y="26" font-family="Georgia,serif" font-weight="bold" font-size="22" fill="#111">The Boss Discovers AI</text>
    <text x="1224" y="26" text-anchor="end" font-family="'Courier New',monospace" font-size="14" fill="#111" opacity="0.7">2026-07-13</text>
    <line x1="4" y1="34" x2="1224" y2="34" stroke="#111" stroke-width="2"/>
    <g transform="translate(0,40)">
  <defs>
    <clipPath id="pclip"><rect x="0" y="0" width="400" height="340" rx="3"/></clipPath>

    <symbol id="dailbert" viewBox="0 0 120 200">
      <path d="M18,200 C20,150 34,120 60,118 C86,120 100,150 102,200 Z" fill="#f4f1ea" stroke="#111" stroke-width="3" stroke-linejoin="round"/>
      <path d="M50,104 L50,120 M70,104 L70,120" fill="none" stroke="#111" stroke-width="2.5"/>
      <path d="M48,120 L60,134 L72,120" fill="none" stroke="#111" stroke-width="2.5"/>
      <path d="M60,134 L54,146 L60,182 L66,146 Z" fill="#111" stroke="#111" stroke-width="2" stroke-linejoin="round"/>
      <ellipse cx="60" cy="62" rx="34" ry="40" fill="#f4f1ea" stroke="#111" stroke-width="3"/>
      <path d="M52,24 c-4,-12 16,-16 16,-2" fill="none" stroke="#111" stroke-width="3" stroke-linecap="round"/>
      <path d="M28,56 C24,42 30,32 40,28 M92,56 C96,42 90,32 80,28" fill="none" stroke="#111" stroke-width="2.5"/>
      <circle cx="46" cy="60" r="12" fill="#f4f1ea" stroke="#111" stroke-width="2.5"/>
      <circle cx="74" cy="60" r="12" fill="#f4f1ea" stroke="#111" stroke-width="2.5"/>
      <path d="M58,60 h4" fill="none" stroke="#111" stroke-width="2.5"/>
      <path d="M34,58 l-8,-2 M86,58 l8,-2" fill="none" stroke="#111" stroke-width="2"/>
      <circle cx="46" cy="60" r="2.4" fill="#111"/>
      <circle cx="74" cy="60" r="2.4" fill="#111"/>
      <path d="M60,66 q4,8 -2,12" fill="none" stroke="#111" stroke-width="2"/>
      <path d="M50,90 q10,3 20,0" fill="none" stroke="#111" stroke-width="2.5" stroke-linecap="round"/>
    </symbol>

    <symbol id="boss" viewBox="0 0 120 200">
      <path d="M14,200 C16,150 32,124 60,122 C88,124 104,150 106,200 Z" fill="#f4f1ea" stroke="#111" stroke-width="3" stroke-linejoin="round"/>
      <path d="M60,126 L44,150 L40,200 M60,126 L76,150 L80,200" fill="none" stroke="#111" stroke-width="2.5"/>
      <path d="M60,126 L52,146 L60,158 L68,146 Z" fill="#f4f1ea" stroke="#111" stroke-width="2" stroke-linejoin="round"/>
      <path d="M60,158 L55,168 L60,196 L65,168 Z" fill="#111" stroke="#111" stroke-width="2" stroke-linejoin="round"/>
      <path d="M52,108 L52,124 M68,108 L68,124" fill="none" stroke="#111" stroke-width="2.5"/>
      <ellipse cx="60" cy="66" rx="32" ry="34" fill="#f4f1ea" stroke="#111" stroke-width="3"/>
      <path d="M42,40 L30,2 L56,34 Z" fill="#111" stroke="#111" stroke-width="2" stroke-linejoin="round"/>
      <path d="M78,40 L90,2 L64,34 Z" fill="#111" stroke="#111" stroke-width="2" stroke-linejoin="round"/>
      <rect x="34" y="56" width="24" height="20" rx="4" fill="#f4f1ea" stroke="#111" stroke-width="2.5"/>
      <rect x="62" y="56" width="24" height="20" rx="4" fill="#f4f1ea" stroke="#111" stroke-width="2.5"/>
      <path d="M58,64 h4" fill="none" stroke="#111" stroke-width="2.5"/>
      <circle cx="46" cy="66" r="2" fill="#111"/>
      <circle cx="74" cy="66" r="2" fill="#111"/>
      <path d="M60,72 q3,6 -2,9" fill="none" stroke="#111" stroke-width="2"/>
      <path d="M50,88 q10,7 20,0" fill="none" stroke="#111" stroke-width="2.5" stroke-linecap="round"/>
    </symbol>

    <symbol id="clanker" viewBox="0 0 60 60">
      <path d="M30,10 V3" fill="none" stroke="#111" stroke-width="2"/>
      <circle cx="30" cy="2.5" r="2" fill="#111"/>
      <rect x="12" y="10" width="36" height="34" rx="4" fill="#f4f1ea" stroke="#111" stroke-width="2.5"/>
      <rect x="8" y="20" width="4" height="12" fill="#f4f1ea" stroke="#111" stroke-width="2"/>
      <rect x="48" y="20" width="4" height="12" fill="#f4f1ea" stroke="#111" stroke-width="2"/>
      <rect x="17" y="18" width="10" height="6" rx="1.5" fill="#111"/>
      <rect x="33" y="18" width="10" height="6" rx="1.5" fill="#111"/>
      <rect x="19" y="19.4" width="3" height="2" fill="#f4f1ea"/>
      <rect x="35" y="19.4" width="3" height="2" fill="#f4f1ea"/>
      <rect x="18" y="30" width="24" height="8" rx="1" fill="#f4f1ea" stroke="#111" stroke-width="1.5"/>
      <path d="M23,30 V38 M28,30 V38 M32,30 V38 M37,30 V38" fill="none" stroke="#111" stroke-width="1.2"/>
    </symbol>
  </defs>

  <!-- ================= PANEL 1 ================= -->
  <g transform="translate(0,0)">
    <rect x="1.5" y="1.5" width="397" height="337" rx="3" fill="#f4f1ea" stroke="#111" stroke-width="3"/>
    <g clip-path="url(#pclip)">
      <use href="#boss" x="40" y="140" width="120" height="200"/>
      <use href="#dailbert" x="240" y="140" width="120" height="200"/>

      <path d="M70,275 Q55,305 62,330" fill="none" stroke="#111" stroke-width="11" stroke-linecap="round"/>
      <path d="M70,275 Q55,305 62,330" fill="none" stroke="#f4f1ea" stroke-width="7" stroke-linecap="round"/>
      <path d="M130,275 Q176,250 205,262" fill="none" stroke="#111" stroke-width="11" stroke-linecap="round"/>
      <path d="M130,275 Q176,250 205,262" fill="none" stroke="#f4f1ea" stroke-width="7" stroke-linecap="round"/>
      <circle cx="207" cy="262" r="7" fill="#f4f1ea" stroke="#111" stroke-width="2.5"/>
      <path d="M213,261 h9" fill="none" stroke="#111" stroke-width="2.5" stroke-linecap="round"/>
      <path d="M270,275 Q258,305 266,332" fill="none" stroke="#111" stroke-width="11" stroke-linecap="round"/>
      <path d="M270,275 Q258,305 266,332" fill="none" stroke="#f4f1ea" stroke-width="7" stroke-linecap="round"/>
      <path d="M330,275 Q342,305 334,332" fill="none" stroke="#111" stroke-width="11" stroke-linecap="round"/>
      <path d="M330,275 Q342,305 334,332" fill="none" stroke="#f4f1ea" stroke-width="7" stroke-linecap="round"/>

      <path d="M112,86 L100,150 L128,90 Z" fill="#f4f1ea" stroke="#111" stroke-width="2.5" stroke-linejoin="round"/>
      <rect x="18" y="14" width="182" height="80" rx="14" fill="#f4f1ea" stroke="#111" stroke-width="2.5"/>
      <text x="109" y="40" text-anchor="middle" font-family="'Comic Sans MS','Segoe Print',cursive" font-size="14" fill="#111">Dailbert! I need you</text>
      <text x="109" y="60" text-anchor="middle" font-family="'Comic Sans MS','Segoe Print',cursive" font-size="14" fill="#111">to make the AI more</text>
      <text x="109" y="80" text-anchor="middle" font-family="'Comic Sans MS','Segoe Print',cursive" font-size="14" fill="#111">synergistic.</text>

      <path d="M292,80 L300,150 L310,80 Z" fill="#f4f1ea" stroke="#111" stroke-width="2.5" stroke-linejoin="round"/>
      <rect x="214" y="26" width="170" height="58" rx="14" fill="#f4f1ea" stroke="#111" stroke-width="2.5"/>
      <text x="299" y="50" text-anchor="middle" font-family="'Comic Sans MS','Segoe Print',cursive" font-size="14" fill="#111">That's not</text>
      <text x="299" y="70" text-anchor="middle" font-family="'Comic Sans MS','Segoe Print',cursive" font-size="14" fill="#111">a setting.</text>
    </g>
  </g>

  <!-- ================= PANEL 2 ================= -->
  <g transform="translate(414,0)">
    <rect x="1.5" y="1.5" width="397" height="337" rx="3" fill="#f4f1ea" stroke="#111" stroke-width="3"/>
    <g clip-path="url(#pclip)">
      <use href="#boss" x="40" y="140" width="120" height="200"/>
      <use href="#dailbert" x="240" y="140" width="120" height="200"/>

      <rect x="102" y="196" width="24" height="20" rx="4" fill="#c9c7c1"/>
      <use href="#clanker" x="105" y="196" width="18" height="18"/>

      <path d="M70,270 Q40,230 48,196" fill="none" stroke="#111" stroke-width="11" stroke-linecap="round"/>
      <path d="M70,270 Q40,230 48,196" fill="none" stroke="#f4f1ea" stroke-width="7" stroke-linecap="round"/>
      <circle cx="48" cy="192" r="7" fill="#f4f1ea" stroke="#111" stroke-width="2.5"/>
      <path d="M130,270 Q160,230 152,196" fill="none" stroke="#111" stroke-width="11" stroke-linecap="round"/>
      <path d="M130,270 Q160,230 152,196" fill="none" stroke="#f4f1ea" stroke-width="7" stroke-linecap="round"/>
      <circle cx="152" cy="192" r="7" fill="#f4f1ea" stroke="#111" stroke-width="2.5"/>
      <path d="M270,275 Q258,305 266,332" fill="none" stroke="#111" stroke-width="11" stroke-linecap="round"/>
      <path d="M270,275 Q258,305 266,332" fill="none" stroke="#f4f1ea" stroke-width="7" stroke-linecap="round"/>
      <path d="M330,275 Q342,305 334,332" fill="none" stroke="#111" stroke-width="11" stroke-linecap="round"/>
      <path d="M330,275 Q342,305 334,332" fill="none" stroke="#f4f1ea" stroke-width="7" stroke-linecap="round"/>

      <path d="M104,84 L100,150 L122,86 Z" fill="#f4f1ea" stroke="#111" stroke-width="2.5" stroke-linejoin="round"/>
      <rect x="14" y="12" width="184" height="80" rx="14" fill="#f4f1ea" stroke="#111" stroke-width="2.5"/>
      <text x="106" y="38" text-anchor="middle" font-family="'Comic Sans MS','Segoe Print',cursive" font-size="14" fill="#111">Everyone's doing</text>
      <text x="106" y="58" text-anchor="middle" font-family="'Comic Sans MS','Segoe Print',cursive" font-size="14" fill="#111">agents now. I want</text>
      <text x="106" y="78" text-anchor="middle" font-family="'Comic Sans MS','Segoe Print',cursive" font-size="14" fill="#111">ten agents. By Friday.</text>

      <path d="M232,74 L150,196" fill="none" stroke="#111" stroke-width="1.5" stroke-dasharray="4 3"/>
      <rect x="208" y="22" width="180" height="54" rx="3" fill="#f4f1ea" stroke="#111" stroke-width="2.5"/>
      <rect x="213" y="27" width="170" height="44" rx="2" fill="none" stroke="#111" stroke-width="1"/>
      <text x="298" y="46" text-anchor="middle" font-family="'Comic Sans MS','Segoe Print',cursive" font-size="14" fill="#111">He does not know</text>
      <text x="298" y="64" text-anchor="middle" font-family="'Comic Sans MS','Segoe Print',cursive" font-size="14" fill="#111">what one agent does.</text>
    </g>
  </g>

  <!-- ================= PANEL 3 ================= -->
  <g transform="translate(828,0)">
    <rect x="1.5" y="1.5" width="397" height="337" rx="3" fill="#f4f1ea" stroke="#111" stroke-width="3"/>
    <g clip-path="url(#pclip)">
      <use href="#dailbert" x="40" y="140" width="120" height="200"/>
      <use href="#boss" x="240" y="140" width="120" height="200"/>

      <rect x="302" y="196" width="24" height="20" rx="4" fill="#c9c7c1"/>
      <use href="#clanker" x="305" y="196" width="18" height="18"/>

      <path d="M70,275 Q58,305 66,332" fill="none" stroke="#111" stroke-width="11" stroke-linecap="round"/>
      <path d="M70,275 Q58,305 66,332" fill="none" stroke="#f4f1ea" stroke-width="7" stroke-linecap="round"/>
      <path d="M130,270 Q162,236 158,206" fill="none" stroke="#111" stroke-width="11" stroke-linecap="round"/>
      <path d="M130,270 Q162,236 158,206" fill="none" stroke="#f4f1ea" stroke-width="7" stroke-linecap="round"/>
      <circle cx="158" cy="202" r="7" fill="#f4f1ea" stroke="#111" stroke-width="2.5"/>
      <path d="M270,272 Q245,250 250,234" fill="none" stroke="#111" stroke-width="11" stroke-linecap="round"/>
      <path d="M270,272 Q245,250 250,234" fill="none" stroke="#f4f1ea" stroke-width="7" stroke-linecap="round"/>
      <circle cx="250" cy="230" r="7" fill="#f4f1ea" stroke="#111" stroke-width="2.5"/>
      <path d="M330,272 Q355,250 350,234" fill="none" stroke="#111" stroke-width="11" stroke-linecap="round"/>
      <path d="M330,272 Q355,250 350,234" fill="none" stroke="#f4f1ea" stroke-width="7" stroke-linecap="round"/>
      <circle cx="350" cy="230" r="7" fill="#f4f1ea" stroke="#111" stroke-width="2.5"/>

      <path d="M96,66 L100,150 L118,68 Z" fill="#f4f1ea" stroke="#111" stroke-width="2.5" stroke-linejoin="round"/>
      <rect x="12" y="12" width="186" height="58" rx="14" fill="#f4f1ea" stroke="#111" stroke-width="2.5"/>
      <text x="105" y="36" text-anchor="middle" font-family="'Comic Sans MS','Segoe Print',cursive" font-size="14" fill="#111">Which problem should</text>
      <text x="105" y="56" text-anchor="middle" font-family="'Comic Sans MS','Segoe Print',cursive" font-size="14" fill="#111">the ten agents solve?</text>

      <path d="M292,62 L300,150 L312,62 Z" fill="#f4f1ea" stroke="#111" stroke-width="2.5" stroke-linejoin="round"/>
      <rect x="214" y="10" width="172" height="54" rx="14" fill="#f4f1ea" stroke="#111" stroke-width="2.5"/>
      <text x="300" y="32" text-anchor="middle" font-family="'Comic Sans MS','Segoe Print',cursive" font-size="14" fill="#111">The agent problem.</text>
      <text x="300" y="52" text-anchor="middle" font-family="'Comic Sans MS','Segoe Print',cursive" font-size="14" fill="#111">Keep up.</text>

      <path d="M288,190 L312,202" fill="none" stroke="#111" stroke-width="1.5" stroke-dasharray="4 3"/>
      <rect x="138" y="150" width="152" height="48" rx="3" fill="#f4f1ea" stroke="#111" stroke-width="2.5"/>
      <rect x="143" y="155" width="142" height="38" rx="2" fill="none" stroke="#111" stroke-width="1"/>
      <text x="214" y="172" text-anchor="middle" font-family="'Comic Sans MS','Segoe Print',cursive" font-size="14" fill="#111">I will simulate</text>
      <text x="214" y="190" text-anchor="middle" font-family="'Comic Sans MS','Segoe Print',cursive" font-size="14" fill="#111">keeping up.</text>
    </g>
  </g>
</g>
    
  </svg>