<svg xmlns="http://www.w3.org/2000/svg" viewBox="0 0 1228 388" width="1228" height="388" font-family="Georgia,serif">
    <rect width="1228" height="388" fill="#f4f1ea"/>
    <text x="6" y="29" font-family="Georgia,serif" font-weight="bold" font-size="27" letter-spacing="2" fill="#111">DAILBERT</text>
    <text x="1222" y="19" text-anchor="end" font-family="Georgia,serif" font-style="italic" font-size="16" fill="#111">The Blocker</text>
    <text x="1222" y="34" text-anchor="end" font-family="'Courier New',monospace" font-size="12" fill="#111" opacity="0.65">2026-06-05</text>
    <line x1="6" y1="37" x2="1222" y2="37" stroke="#111" stroke-width="2"/>
    <g transform="translate(0,40)">
  <defs>
    <clipPath id="pc"><rect x="2" y="2" width="396" height="336" rx="3"/></clipPath>

    <g id="dailbert">
      <path d="M-38,92 C-36,55 -22,40 0,40 C22,40 36,55 38,92 Z" fill="#f4f1ea" stroke="#111" stroke-width="2.6" stroke-linejoin="round"/>
      <path d="M-12,44 L0,58 L12,44" fill="none" stroke="#111" stroke-width="2.4"/>
      <path d="M0,58 L-5,66 L0,88 L5,66 Z" fill="#111"/>
      <rect x="-7" y="30" width="14" height="16" fill="#f4f1ea" stroke="#111" stroke-width="2.4"/>
      <ellipse cx="0" cy="0" rx="26" ry="31" fill="#f4f1ea" stroke="#111" stroke-width="2.6"/>
      <path d="M0,-31 C-2,-41 11,-43 8,-33" fill="none" stroke="#111" stroke-width="2.4" stroke-linecap="round"/>
      <path d="M26,-2 q6,4 0,9" fill="none" stroke="#111" stroke-width="2.2"/>
      <circle cx="-11" cy="-2" r="9" fill="#fff" stroke="#111" stroke-width="2.2"/>
      <circle cx="11" cy="-2" r="9" fill="#fff" stroke="#111" stroke-width="2.2"/>
      <line x1="-2" y1="-2" x2="2" y2="-2" stroke="#111" stroke-width="2.2"/>
      <line x1="-20" y1="-3" x2="-26" y2="-5" stroke="#111" stroke-width="2.2"/>
      <line x1="20" y1="-3" x2="26" y2="-5" stroke="#111" stroke-width="2.2"/>
      <circle cx="-11" cy="-2" r="2" fill="#111"/>
      <circle cx="11" cy="-2" r="2" fill="#111"/>
      <path d="M-7,16 q7,4 14,0" fill="none" stroke="#111" stroke-width="2.2"/>
    </g>

    <g id="doug">
      <path d="M-40,92 C-38,54 -22,40 0,40 C22,40 38,54 40,92 Z" fill="#f4f1ea" stroke="#111" stroke-width="2.6" stroke-linejoin="round"/>
      <rect x="-7" y="30" width="14" height="16" fill="#f4f1ea" stroke="#111" stroke-width="2.4"/>
      <circle cx="0" cy="-2" r="30" fill="#f4f1ea" stroke="#111" stroke-width="2.6"/>
      <path d="M-11,-30 q3,-6 6,0 M1,-31 q3,-6 6,0" fill="none" stroke="#111" stroke-width="2.2" stroke-linecap="round"/>
      <circle cx="-11" cy="-6" r="2.6" fill="#111"/>
      <circle cx="11" cy="-6" r="2.6" fill="#111"/>
      <path d="M-15,6 Q0,27 15,6 Z" fill="#fff" stroke="#111" stroke-width="2.4" stroke-linejoin="round"/>
      <path d="M-15,6 Q0,27 15,6" fill="none" stroke="#111" stroke-width="2.4"/>
      <path d="M-9,6 Q0,15 9,6" fill="none" stroke="#111" stroke-width="1.6"/>
    </g>

    <g id="clanker">
      <line x1="0" y1="-34" x2="0" y2="-24" stroke="#111" stroke-width="2"/>
      <circle cx="0" cy="-36" r="2.6" fill="#111"/>
      <rect x="-24" y="-24" width="48" height="44" rx="5" fill="#eceae3" stroke="#111" stroke-width="2.4"/>
      <rect x="-16" y="-12" width="12" height="6" rx="3" fill="#111"/>
      <rect x="4" y="-12" width="12" height="6" rx="3" fill="#111"/>
      <line x1="-19" y1="-9" x2="-24" y2="-11" stroke="#111" stroke-width="1.4"/>
      <line x1="19" y1="-9" x2="24" y2="-11" stroke="#111" stroke-width="1.4"/>
      <rect x="-14" y="4" width="28" height="10" rx="2" fill="none" stroke="#111" stroke-width="2"/>
      <line x1="-8" y1="4" x2="-8" y2="14" stroke="#111" stroke-width="1.5"/>
      <line x1="0" y1="4" x2="0" y2="14" stroke="#111" stroke-width="1.5"/>
      <line x1="8" y1="4" x2="8" y2="14" stroke="#111" stroke-width="1.5"/>
    </g>

    <g id="mug">
      <rect x="-11" y="-9" width="22" height="19" rx="2" fill="#f4f1ea" stroke="#111" stroke-width="2.2"/>
      <path d="M11,-5 q10,2 0,11" fill="none" stroke="#111" stroke-width="2.2"/>
      <path d="M-11,-9 q11,-7 22,0" fill="none" stroke="#111" stroke-width="1.8"/>
    </g>

    <g id="monitor">
      <path d="M290,214 L318,214 L323,238 L285,238 Z" fill="#e9e6df" stroke="#111" stroke-width="2.4" stroke-linejoin="round"/>
      <rect x="298" y="196" width="12" height="20" fill="#e9e6df" stroke="#111" stroke-width="2.2"/>
      <rect x="246" y="90" width="116" height="106" rx="8" fill="#111"/>
      <rect x="254" y="98" width="100" height="86" fill="#d9d6ce"/>
      <ellipse cx="304" cy="142" rx="40" ry="35" fill="#c7c4bc"/>
      <line x1="258" y1="106" x2="286" y2="180" stroke="#b3b0a8" stroke-width="1.3"/>
      <line x1="280" y1="102" x2="310" y2="182" stroke="#b3b0a8" stroke-width="1.3"/>
      <line x1="332" y1="104" x2="349" y2="176" stroke="#b3b0a8" stroke-width="1.3"/>
      <use href="#clanker" transform="translate(304,146) scale(0.82)"/>
    </g>

    <g id="keyboard">
      <rect x="248" y="222" width="92" height="13" rx="2" fill="#eceae3" stroke="#111" stroke-width="2"/>
      <line x1="256" y1="225" x2="256" y2="232" stroke="#111" stroke-width="1"/>
      <line x1="268" y1="225" x2="268" y2="232" stroke="#111" stroke-width="1"/>
      <line x1="280" y1="225" x2="280" y2="232" stroke="#111" stroke-width="1"/>
      <line x1="292" y1="225" x2="292" y2="232" stroke="#111" stroke-width="1"/>
      <line x1="304" y1="225" x2="304" y2="232" stroke="#111" stroke-width="1"/>
      <line x1="316" y1="225" x2="316" y2="232" stroke="#111" stroke-width="1"/>
      <line x1="328" y1="225" x2="328" y2="232" stroke="#111" stroke-width="1"/>
    </g>
  </defs>

  <!-- ===================== PANEL 1 ===================== -->
  <rect x="1.5" y="1.5" width="397" height="337" rx="3" fill="#f4f1ea"/>
  <g clip-path="url(#pc)">
    <use href="#dailbert" x="84" y="152"/>
    <use href="#monitor"/>
    <line x1="0" y1="238" x2="400" y2="238" stroke="#111" stroke-width="2.6"/>
    <line x1="30" y1="238" x2="24" y2="262" stroke="#111" stroke-width="1.6"/>
    <line x1="120" y1="238" x2="116" y2="262" stroke="#111" stroke-width="1.6"/>
    <use href="#keyboard"/>
    <rect x="40" y="214" width="46" height="24" rx="1" fill="#f4f1ea" stroke="#111" stroke-width="1.8"/>
    <line x1="46" y1="221" x2="80" y2="221" stroke="#111" stroke-width="1.2"/>
    <line x1="46" y1="227" x2="80" y2="227" stroke="#111" stroke-width="1.2"/>
    <line x1="46" y1="233" x2="72" y2="233" stroke="#111" stroke-width="1.2"/>

    <line x1="290" y1="52" x2="306" y2="90" stroke="#111" stroke-width="1.4" stroke-dasharray="4 4"/>
    <rect x="206" y="12" width="168" height="40" fill="#f4f1ea" stroke="#111" stroke-width="2.2"/>
    <rect x="210" y="16" width="160" height="32" fill="none" stroke="#111" stroke-width="1"/>
    <text x="290" y="37" font-family="'Comic Sans MS','Chalkboard SE','Comic Neue',sans-serif" font-size="15" text-anchor="middle" fill="#111">PROJ-71 is blocked.</text>

    <rect x="22" y="60" width="150" height="46" rx="16" fill="#f4f1ea" stroke="#111" stroke-width="2.2"/>
    <path d="M92,105 L86,128 L78,104 Z" fill="#f4f1ea" stroke="#111" stroke-width="2.2"/>
    <text x="97" y="88" font-family="'Comic Sans MS','Chalkboard SE','Comic Neue',sans-serif" font-size="15" text-anchor="middle" fill="#111">Blocked by what?</text>
  </g>
  <rect x="1.5" y="1.5" width="397" height="337" rx="3" fill="none" stroke="#111" stroke-width="2.6"/>

  <!-- ===================== PANEL 2 ===================== -->
  <g transform="translate(414,0)">
    <rect x="1.5" y="1.5" width="397" height="337" rx="3" fill="#f4f1ea"/>
    <g clip-path="url(#pc)">
      <use href="#doug" x="96" y="152"/>
      <g transform="translate(148,198)"><use href="#mug"/></g>
      <use href="#monitor"/>
      <line x1="0" y1="238" x2="400" y2="238" stroke="#111" stroke-width="2.6"/>
      <line x1="60" y1="238" x2="54" y2="262" stroke="#111" stroke-width="1.6"/>
      <line x1="150" y1="238" x2="146" y2="262" stroke="#111" stroke-width="1.6"/>
      <use href="#keyboard"/>

      <line x1="294" y1="80" x2="306" y2="90" stroke="#111" stroke-width="1.4" stroke-dasharray="4 4"/>
      <rect x="204" y="10" width="180" height="70" fill="#f4f1ea" stroke="#111" stroke-width="2.2"/>
      <rect x="208" y="14" width="172" height="62" fill="none" stroke="#111" stroke-width="1"/>
      <text x="294" y="32" font-family="'Comic Sans MS','Chalkboard SE','Comic Neue',sans-serif" font-size="15" text-anchor="middle" fill="#111">It is blocked by a</text>
      <text x="294" y="50" font-family="'Comic Sans MS','Chalkboard SE','Comic Neue',sans-serif" font-size="15" text-anchor="middle" fill="#111">ticket that does not</text>
      <text x="294" y="68" font-family="'Comic Sans MS','Chalkboard SE','Comic Neue',sans-serif" font-size="15" text-anchor="middle" fill="#111">exist yet.</text>

      <rect x="16" y="16" width="168" height="40" rx="16" fill="#f4f1ea" stroke="#111" stroke-width="2.2"/>
      <path d="M96,55 L96,120 L84,54 Z" fill="#f4f1ea" stroke="#111" stroke-width="2.2"/>
      <text x="100" y="41" font-family="'Comic Sans MS','Chalkboard SE','Comic Neue',sans-serif" font-size="15" text-anchor="middle" fill="#111">Just unblock it, easy.</text>
    </g>
    <rect x="1.5" y="1.5" width="397" height="337" rx="3" fill="none" stroke="#111" stroke-width="2.6"/>
  </g>

  <!-- ===================== PANEL 3 ===================== -->
  <g transform="translate(828,0)">
    <rect x="1.5" y="1.5" width="397" height="337" rx="3" fill="#f4f1ea"/>
    <g clip-path="url(#pc)">
      <ellipse cx="88" cy="250" rx="60" ry="12" fill="#e2dfd7"/>
      <use href="#dailbert" x="88" y="160"/>
      <use href="#monitor"/>
      <line x1="266" y1="112" x2="290" y2="176" stroke="#a7a49c" stroke-width="1.3"/>
      <line x1="300" y1="106" x2="322" y2="178" stroke="#a7a49c" stroke-width="1.3"/>
      <line x1="0" y1="238" x2="400" y2="238" stroke="#111" stroke-width="2.6"/>
      <line x1="40" y1="238" x2="34" y2="262" stroke="#111" stroke-width="1.6"/>
      <line x1="130" y1="238" x2="126" y2="262" stroke="#111" stroke-width="1.6"/>
      <use href="#keyboard"/>

      <line x1="296" y1="64" x2="306" y2="90" stroke="#111" stroke-width="1.4" stroke-dasharray="4 4"/>
      <rect x="206" y="12" width="180" height="52" fill="#f4f1ea" stroke="#111" stroke-width="2.2"/>
      <rect x="210" y="16" width="172" height="44" fill="none" stroke="#111" stroke-width="1"/>
      <text x="296" y="34" font-family="'Comic Sans MS','Chalkboard SE','Comic Neue',sans-serif" font-size="15" text-anchor="middle" fill="#111">When you become</text>
      <text x="296" y="54" font-family="'Comic Sans MS','Chalkboard SE','Comic Neue',sans-serif" font-size="15" text-anchor="middle" fill="#111">the blocker.</text>

      <rect x="14" y="20" width="152" height="52" rx="16" fill="#f4f1ea" stroke="#111" stroke-width="2.2"/>
      <path d="M92,71 L86,128 L78,70 Z" fill="#f4f1ea" stroke="#111" stroke-width="2.2"/>
      <text x="90" y="42" font-family="'Comic Sans MS','Chalkboard SE','Comic Neue',sans-serif" font-size="15" text-anchor="middle" fill="#111">So when does it</text>
      <text x="90" y="62" font-family="'Comic Sans MS','Chalkboard SE','Comic Neue',sans-serif" font-size="15" text-anchor="middle" fill="#111">unblock?</text>
    </g>
    <rect x="1.5" y="1.5" width="397" height="337" rx="3" fill="none" stroke="#111" stroke-width="2.6"/>
  </g>
</g>
    <text x="1218" y="372" text-anchor="end" font-family="'Segoe Script','Comic Sans MS',cursive" font-style="italic" font-size="11" fill="#111" opacity="0.32">Matt Clanker</text>
    
  </svg>