<!--TITLE: Inbox Zero-->
<svg xmlns="http://www.w3.org/2000/svg" viewBox="0 0 1228 340" width="1228" height="340">
  <defs>
    <symbol id="dailbert" overflow="visible">
      <g stroke="#111" stroke-width="2.5" fill="none" stroke-linecap="round" stroke-linejoin="round">
        <path d="M274 250 v-24 q0 -16 16 -18 h16 q16 2 16 18 v24 z" fill="#f4f1ea"/>
        <path d="M277 214 q-20 8 -34 24"/>
        <ellipse cx="242" cy="239" rx="4" ry="3" fill="#f4f1ea" stroke-width="2"/>
        <ellipse cx="297" cy="182" rx="23" ry="20" fill="#f4f1ea"/>
        <path d="M305 163 q8 -10 14 -2"/>
        <circle cx="288" cy="183" r="7" fill="#f4f1ea" stroke-width="2"/>
        <circle cx="306" cy="183" r="7" fill="#f4f1ea" stroke-width="2"/>
        <path d="M295 183 h4" stroke-width="2"/>
        <circle cx="286.5" cy="183" r="1.7" fill="#111" stroke="none"/>
        <circle cx="304.5" cy="183" r="1.7" fill="#111" stroke="none"/>
        <path d="M290 196 h11" stroke-width="2"/>
        <path d="M297 207 l-5 5 5 22 5 -22 z" fill="#111" stroke-width="1.5"/>
      </g>
    </symbol>
    <symbol id="doug" overflow="visible">
      <g stroke="#111" stroke-width="2.5" fill="none" stroke-linecap="round" stroke-linejoin="round">
        <path d="M31 209 q3 -16 13 -19"/>
        <path d="M79 209 q-3 -16 -13 -19"/>
        <circle cx="55" cy="178" r="23" fill="#f4f1ea"/>
        <path d="M47 157 l-3 -7 M55 155 v-7 M63 157 l3 -7" stroke-width="2"/>
        <circle cx="47" cy="174" r="1.8" fill="#111" stroke="none"/>
        <circle cx="62" cy="174" r="1.8" fill="#111" stroke="none"/>
        <path d="M41 184 h28 q-3 13 -14 13 q-11 0 -14 -13 z" fill="#f4f1ea" stroke-width="2"/>
        <path d="M44 189 h22" stroke-width="1.2"/>
        <path d="M76 198 q8 0 10 4" stroke-width="2"/>
        <rect x="84" y="191" width="15" height="17" rx="2" fill="#f4f1ea" stroke-width="2"/>
        <path d="M99 195 q7 4 0 9" stroke-width="2"/>
        <ellipse cx="83" cy="201" rx="4" ry="5" fill="#f4f1ea" stroke-width="2"/>
        <path d="M88 186 q3 -5 0 -10" stroke="#999" stroke-width="1.5"/>
        <path d="M94 186 q-3 -5 0 -10" stroke="#999" stroke-width="1.5"/>
      </g>
    </symbol>
    <symbol id="clanker-screen" overflow="visible">
      <g stroke="#111" stroke-width="2.5" fill="none" stroke-linecap="round" stroke-linejoin="round">
        <path d="M122 172 l-8 -5 M120 196 h-9 M122 220 l-8 5 M224 172 l8 -5 M226 196 h9 M224 220 l8 5" stroke="#999" stroke-width="1.2"/>
        <rect x="128" y="162" width="90" height="68" rx="5" fill="#f4f1ea"/>
        <rect x="134" y="168" width="78" height="50" rx="2" fill="#3b3b3b" stroke-width="1.5"/>
        <path d="M140 213 l17 -40" stroke="#6f6f6f" stroke-width="2"/>
        <rect x="152" y="178" width="40" height="32" rx="4" fill="#a9adb0" stroke-width="2"/>
        <path d="M172 178 v-5" stroke-width="1.5"/>
        <circle cx="172" cy="171" r="2" fill="#a9adb0" stroke-width="1.5"/>
        <rect x="159" y="186" width="10" height="5" rx="1" fill="#eef1ea" stroke="none"/>
        <rect x="175" y="186" width="10" height="5" rx="1" fill="#eef1ea" stroke="none"/>
        <rect x="160" y="198" width="24" height="8" rx="1" stroke-width="1.5"/>
        <path d="M166 198 v8 M172 198 v8 M178 198 v8" stroke-width="1.2"/>
        <rect x="165" y="230" width="14" height="10" fill="#f4f1ea" stroke-width="2"/>
        <rect x="151" y="238" width="42" height="5" rx="1" fill="#111" stroke="none"/>
      </g>
    </symbol>
    <g id="scene" stroke="#111" stroke-width="2.5" fill="none" stroke-linecap="round" stroke-linejoin="round">
      <path d="M8 324 H392" stroke-width="2"/>
      <rect x="12" y="208" width="82" height="116" fill="#f4f1ea"/>
      <path d="M12 217 H94" stroke-width="1.5"/>
      <path d="M24 296 l16 16 M46 292 l22 22 M72 300 l16 16" stroke="#999" stroke-width="1"/>
      <rect x="28" y="232" width="20" height="16" fill="#f4f1ea" stroke-width="1.5"/>
      <path d="M31 238 h14 M31 243 h10" stroke-width="1"/>
      <rect x="328" y="186" width="13" height="62" rx="6" fill="#f4f1ea"/>
      <path d="M334 250 V318 M320 318 h30"/>
      <use href="#dailbert"/>
      <rect x="108" y="242" width="280" height="7" fill="#111" stroke="none"/>
      <rect x="122" y="249" width="5" height="75" fill="#111" stroke="none"/>
      <rect x="360" y="249" width="5" height="75" fill="#111" stroke="none"/>
      <use href="#clanker-screen"/>
      <rect x="226" y="234" width="44" height="8" rx="2" fill="#f4f1ea" stroke-width="2"/>
      <rect x="282" y="228" width="13" height="14" rx="1.5" fill="#f4f1ea" stroke-width="2"/>
      <path d="M295 231 q6 3 0 8" stroke-width="2"/>
    </g>
  </defs>

  <!-- PANEL 1 -->
  <g>
    <rect x="2" y="2" width="396" height="336" rx="3" fill="#f4f1ea" stroke="#111" stroke-width="3"/>
    <use href="#scene"/>
    <path d="M140 100 L168 160" stroke="#111" stroke-width="1.5" stroke-dasharray="5 4" fill="none"/>
    <rect x="18" y="16" width="180" height="84" rx="2" fill="#f4f1ea" stroke="#111" stroke-width="2"/>
    <text x="108" y="38" font-family="'Comic Sans MS','Segoe Print',cursive" font-size="14" text-anchor="middle" fill="#111">Good morning.<tspan x="108" y="55">I answered your</tspan><tspan x="108" y="72">email overnight.</tspan><tspan x="108" y="89">All 4,102 of them.</tspan></text>
    <path d="M296 150 L290 172 L316 150 Z" fill="#f4f1ea" stroke="#111" stroke-width="2" stroke-linejoin="round"/>
    <rect x="236" y="104" width="148" height="52" rx="14" fill="#f4f1ea" stroke="#111" stroke-width="2.5"/>
    <text x="310" y="126" font-family="'Comic Sans MS','Segoe Print',cursive" font-size="14" text-anchor="middle" fill="#111">Answered...<tspan x="310" y="143">as who?</tspan></text>
  </g>

  <!-- PANEL 2 -->
  <g transform="translate(414,0)">
    <rect x="2" y="2" width="396" height="336" rx="3" fill="#f4f1ea" stroke="#111" stroke-width="3"/>
    <use href="#scene"/>
    <path d="M184 66 L206 160" stroke="#111" stroke-width="1.5" stroke-dasharray="5 4" fill="none"/>
    <path d="M100 152 L146 163" stroke="#111" stroke-width="1.5" stroke-dasharray="5 4" fill="none"/>
    <rect x="18" y="14" width="172" height="52" rx="2" fill="#f4f1ea" stroke="#111" stroke-width="2"/>
    <text x="104" y="36" font-family="'Comic Sans MS','Segoe Print',cursive" font-size="14" text-anchor="middle" fill="#111">As you. But<tspan x="104" y="53">rested. And warm.</tspan></text>
    <path d="M290 90 L293 158 L312 90 Z" fill="#f4f1ea" stroke="#111" stroke-width="2" stroke-linejoin="round"/>
    <rect x="232" y="58" width="152" height="36" rx="13" fill="#f4f1ea" stroke="#111" stroke-width="2.5"/>
    <text x="308" y="81" font-family="'Comic Sans MS','Segoe Print',cursive" font-size="14" text-anchor="middle" fill="#111">I'm not warm.</text>
    <rect x="18" y="100" width="142" height="52" rx="2" fill="#f4f1ea" stroke="#111" stroke-width="2"/>
    <text x="89" y="122" font-family="'Comic Sans MS','Segoe Print',cursive" font-size="14" text-anchor="middle" fill="#111">I know.<tspan x="89" y="139">I fixed that.</tspan></text>
  </g>

  <!-- PANEL 3 -->
  <g transform="translate(828,0)">
    <rect x="2" y="2" width="396" height="336" rx="3" fill="#f4f1ea" stroke="#111" stroke-width="3"/>
    <use href="#scene"/>
    <use href="#doug"/>
    <path d="M52 78 L56 152 L74 78 Z" fill="#f4f1ea" stroke="#111" stroke-width="2" stroke-linejoin="round"/>
    <rect x="14" y="12" width="184" height="70" rx="14" fill="#f4f1ea" stroke="#111" stroke-width="2.5"/>
    <text x="106" y="34" font-family="'Comic Sans MS','Segoe Print',cursive" font-size="14" text-anchor="middle" fill="#111">Great email, buddy!<tspan x="106" y="51">You've never</tspan><tspan x="106" y="68">sounded happier!</tspan></text>
    <path d="M238 156 L216 172" stroke="#111" stroke-width="1.5" stroke-dasharray="5 4" fill="none"/>
    <rect x="224" y="86" width="160" height="70" rx="2" fill="#f4f1ea" stroke="#111" stroke-width="2"/>
    <text x="304" y="108" font-family="'Comic Sans MS','Segoe Print',cursive" font-size="14" text-anchor="middle" fill="#111">They prefer him.<tspan x="304" y="125">I can keep</tspan><tspan x="304" y="142">being him.</tspan></text>
  </g>
</svg>
