<svg xmlns="http://www.w3.org/2000/svg" viewBox="0 0 1228 340" width="1228" height="340">
  <defs>
    <symbol id="dailbert" viewBox="0 0 120 175">
      <path d="M12,175 Q14,122 60,120 Q106,122 108,175 Z" fill="#fff" stroke="#111" stroke-width="2.5" stroke-linejoin="round"/>
      <rect x="52" y="102" width="16" height="20" fill="#fff" stroke="#111" stroke-width="2.5"/>
      <path d="M60,120 l-6,6 6,32 6,-32 z" fill="#111"/>
      <ellipse cx="60" cy="58" rx="28" ry="34" fill="#fff" stroke="#111" stroke-width="2.5"/>
      <circle cx="88" cy="60" r="5" fill="#fff" stroke="#111" stroke-width="2.5"/>
      <path d="M60,24 q9,-9 2,-16 q11,4 6,16" fill="none" stroke="#111" stroke-width="2.5" stroke-linecap="round"/>
      <circle cx="49" cy="58" r="10" fill="#fff" stroke="#111" stroke-width="2.5"/>
      <circle cx="73" cy="58" r="10" fill="#fff" stroke="#111" stroke-width="2.5"/>
      <line x1="59" y1="58" x2="63" y2="58" stroke="#111" stroke-width="2.5"/>
      <line x1="83" y1="58" x2="85" y2="60" stroke="#111" stroke-width="2.5"/>
      <circle cx="49" cy="58" r="2.4" fill="#111"/>
      <circle cx="73" cy="58" r="2.4" fill="#111"/>
      <path d="M61,66 l-3,6 4,0" fill="none" stroke="#111" stroke-width="2" stroke-linejoin="round"/>
      <line x1="52" y1="82" x2="68" y2="82" stroke="#111" stroke-width="2.5" stroke-linecap="round"/>
    </symbol>
    <symbol id="clanker" viewBox="0 0 120 120">
      <line x1="60" y1="18" x2="60" y2="5" stroke="#111" stroke-width="2.5"/>
      <circle cx="60" cy="4" r="3.5" fill="#111"/>
      <rect x="16" y="18" width="88" height="80" rx="8" fill="#fff" stroke="#111" stroke-width="2.5"/>
      <line x1="24" y1="27" x2="24" y2="89" stroke="#bbb" stroke-width="3"/>
      <line x1="98" y1="27" x2="98" y2="89" stroke="#bbb" stroke-width="3"/>
      <rect x="30" y="40" width="24" height="12" rx="4" fill="#888"/>
      <rect x="66" y="40" width="24" height="12" rx="4" fill="#888"/>
      <rect x="34" y="68" width="52" height="16" rx="3" fill="#fff" stroke="#111" stroke-width="2"/>
      <line x1="43" y1="68" x2="43" y2="84" stroke="#111" stroke-width="1.6"/>
      <line x1="52" y1="68" x2="52" y2="84" stroke="#111" stroke-width="1.6"/>
      <line x1="60" y1="68" x2="60" y2="84" stroke="#111" stroke-width="1.6"/>
      <line x1="68" y1="68" x2="68" y2="84" stroke="#111" stroke-width="1.6"/>
      <line x1="77" y1="68" x2="77" y2="84" stroke="#111" stroke-width="1.6"/>
    </symbol>
    <clipPath id="c1"><rect x="0" y="8" width="400" height="324" rx="3"/></clipPath>
    <clipPath id="c2"><rect x="414" y="8" width="400" height="324" rx="3"/></clipPath>
    <clipPath id="c3"><rect x="828" y="8" width="400" height="324" rx="3"/></clipPath>
  </defs>

  <rect x="0" y="0" width="1228" height="340" fill="#f4f1ea"/>

  <!-- ============ PANEL 1 ============ -->
  <g clip-path="url(#c1)">
    <rect x="0" y="8" width="400" height="324" fill="#f4f1ea"/>
    <!-- window -->
    <rect x="30" y="44" width="76" height="66" fill="#fff" stroke="#111" stroke-width="2.5"/>
    <line x1="68" y1="44" x2="68" y2="110" stroke="#111" stroke-width="2"/>
    <line x1="30" y1="77" x2="106" y2="77" stroke="#111" stroke-width="2"/>
    <line x1="36" y1="70" x2="62" y2="50" stroke="#cfcabd" stroke-width="2"/>
    <line x1="74" y1="104" x2="100" y2="84" stroke="#cfcabd" stroke-width="2"/>
    <!-- wall calendar (has meetings) -->
    <rect x="286" y="44" width="84" height="60" fill="#fff" stroke="#111" stroke-width="2.5"/>
    <line x1="286" y1="58" x2="370" y2="58" stroke="#111" stroke-width="2"/>
    <line x1="307" y1="58" x2="307" y2="104" stroke="#111" stroke-width="1.4"/>
    <line x1="328" y1="58" x2="328" y2="104" stroke="#111" stroke-width="1.4"/>
    <line x1="349" y1="58" x2="349" y2="104" stroke="#111" stroke-width="1.4"/>
    <line x1="286" y1="81" x2="370" y2="81" stroke="#111" stroke-width="1.4"/>
    <circle cx="296" cy="70" r="2.6" fill="#111"/>
    <circle cx="317" cy="70" r="2.6" fill="#111"/>
    <circle cx="338" cy="93" r="2.6" fill="#111"/>
    <circle cx="359" cy="70" r="2.6" fill="#111"/>
    <circle cx="296" cy="93" r="2.6" fill="#111"/>
    <!-- dailbert -->
    <use href="#dailbert" x="150" y="86" width="120" height="175"/>
    <!-- desk -->
    <rect x="0" y="254" width="400" height="78" fill="#f4f1ea"/>
    <line x1="0" y1="254" x2="400" y2="254" stroke="#111" stroke-width="2.5"/>
    <!-- laptop -->
    <path d="M150,262 L272,262 L286,280 L136,280 Z" fill="#fff" stroke="#111" stroke-width="2.5" stroke-linejoin="round"/>
    <rect x="154" y="190" width="114" height="74" rx="3" fill="#111"/>
    <rect x="160" y="196" width="102" height="62" fill="#e9e9e9"/>
    <use href="#clanker" transform="translate(182.2,198) scale(0.48)"/>
    <!-- mug -->
    <path d="M300,242 h22 v14 a11,11 0 0 1 -22,0 z" fill="#fff" stroke="#111" stroke-width="2.2"/>
    <path d="M322,245 q8,0 8,6 q0,6 -8,6" fill="none" stroke="#111" stroke-width="2.2"/>
    <!-- balloon: dailbert -->
    <path d="M180,86 L200,64 L206,84 Z" fill="#fff" stroke="#111" stroke-width="2.2"/>
    <rect x="30" y="30" width="170" height="56" rx="14" fill="#fff" stroke="#111" stroke-width="2.5"/>
    <text x="115" y="53" font-family="'Comic Sans MS','Chalkboard SE','Comic Neue',sans-serif" font-size="14" text-anchor="middle" fill="#111">Push my two o&apos;clock.</text>
    <text x="115" y="72" font-family="'Comic Sans MS','Chalkboard SE','Comic Neue',sans-serif" font-size="14" text-anchor="middle" fill="#111">I want a walk.</text>
  </g>

  <!-- ============ PANEL 2 ============ -->
  <g clip-path="url(#c2)">
    <rect x="414" y="8" width="400" height="324" fill="#f4f1ea"/>
    <rect x="444" y="44" width="76" height="66" fill="#fff" stroke="#111" stroke-width="2.5"/>
    <line x1="482" y1="44" x2="482" y2="110" stroke="#111" stroke-width="2"/>
    <line x1="444" y1="77" x2="520" y2="77" stroke="#111" stroke-width="2"/>
    <line x1="450" y1="70" x2="476" y2="50" stroke="#cfcabd" stroke-width="2"/>
    <line x1="488" y1="104" x2="514" y2="84" stroke="#cfcabd" stroke-width="2"/>
    <rect x="700" y="44" width="84" height="60" fill="#fff" stroke="#111" stroke-width="2.5"/>
    <line x1="700" y1="58" x2="784" y2="58" stroke="#111" stroke-width="2"/>
    <line x1="721" y1="58" x2="721" y2="104" stroke="#111" stroke-width="1.4"/>
    <line x1="742" y1="58" x2="742" y2="104" stroke="#111" stroke-width="1.4"/>
    <line x1="763" y1="58" x2="763" y2="104" stroke="#111" stroke-width="1.4"/>
    <line x1="700" y1="81" x2="784" y2="81" stroke="#111" stroke-width="1.4"/>
    <circle cx="710" cy="70" r="2.6" fill="#111"/>
    <circle cx="752" cy="93" r="2.6" fill="#111"/>
    <use href="#dailbert" x="564" y="86" width="120" height="175"/>
    <rect x="414" y="254" width="400" height="78" fill="#f4f1ea"/>
    <line x1="414" y1="254" x2="814" y2="254" stroke="#111" stroke-width="2.5"/>
    <path d="M564,262 L686,262 L700,280 L550,280 Z" fill="#fff" stroke="#111" stroke-width="2.5" stroke-linejoin="round"/>
    <rect x="568" y="190" width="114" height="74" rx="3" fill="#111"/>
    <rect x="574" y="196" width="102" height="62" fill="#e9e9e9"/>
    <use href="#clanker" transform="translate(596.2,198) scale(0.48)"/>
    <path d="M714,242 h22 v14 a11,11 0 0 1 -22,0 z" fill="#fff" stroke="#111" stroke-width="2.2"/>
    <path d="M736,245 q8,0 8,6 q0,6 -8,6" fill="none" stroke="#111" stroke-width="2.2"/>
    <!-- clanker balloon -->
    <line x1="672" y1="196" x2="700" y2="156" stroke="#111" stroke-width="1.6" stroke-dasharray="3 3"/>
    <rect x="694" y="112" width="96" height="44" rx="3" fill="#fff" stroke="#111" stroke-width="2.5"/>
    <text x="742" y="140" font-family="'Comic Sans MS','Chalkboard SE','Comic Neue',sans-serif" font-size="15" text-anchor="middle" fill="#111">Done.</text>
  </g>

  <!-- ============ PANEL 3 ============ -->
  <g clip-path="url(#c3)">
    <rect x="828" y="8" width="400" height="324" fill="#f4f1ea"/>
    <rect x="858" y="44" width="76" height="66" fill="#fff" stroke="#111" stroke-width="2.5"/>
    <line x1="896" y1="44" x2="896" y2="110" stroke="#111" stroke-width="2"/>
    <line x1="858" y1="77" x2="934" y2="77" stroke="#111" stroke-width="2"/>
    <line x1="864" y1="70" x2="890" y2="50" stroke="#cfcabd" stroke-width="2"/>
    <line x1="902" y1="104" x2="928" y2="84" stroke="#cfcabd" stroke-width="2"/>
    <!-- wall calendar (now blank) -->
    <rect x="1114" y="44" width="84" height="60" fill="#fff" stroke="#111" stroke-width="2.5"/>
    <line x1="1114" y1="58" x2="1198" y2="58" stroke="#111" stroke-width="2"/>
    <line x1="1135" y1="58" x2="1135" y2="104" stroke="#111" stroke-width="1.4"/>
    <line x1="1156" y1="58" x2="1156" y2="104" stroke="#111" stroke-width="1.4"/>
    <line x1="1177" y1="58" x2="1177" y2="104" stroke="#111" stroke-width="1.4"/>
    <line x1="1114" y1="81" x2="1198" y2="81" stroke="#111" stroke-width="1.4"/>
    <use href="#dailbert" x="978" y="86" width="120" height="175"/>
    <rect x="828" y="254" width="400" height="78" fill="#f4f1ea"/>
    <line x1="828" y1="254" x2="1228" y2="254" stroke="#111" stroke-width="2.5"/>
    <path d="M978,262 L1100,262 L1114,280 L964,280 Z" fill="#fff" stroke="#111" stroke-width="2.5" stroke-linejoin="round"/>
    <rect x="982" y="190" width="114" height="74" rx="3" fill="#111"/>
    <rect x="988" y="196" width="102" height="62" fill="#e9e9e9"/>
    <use href="#clanker" transform="translate(1010.2,198) scale(0.48)"/>
    <!-- jacket over chair, unused -->
    <path d="M902,238 q-14,4 -14,22 l0,72 12,0 0,-52 6,0 0,52 12,0 0,-72 q0,-18 -14,-22 z" fill="#fff" stroke="#111" stroke-width="2.2" stroke-linejoin="round"/>
    <!-- clanker balloon -->
    <line x1="1090" y1="196" x2="1112" y2="146" stroke="#111" stroke-width="1.6" stroke-dasharray="3 3"/>
    <rect x="1044" y="66" width="162" height="78" rx="3" fill="#fff" stroke="#111" stroke-width="2.5"/>
    <text x="1125" y="92" font-family="'Comic Sans MS','Chalkboard SE','Comic Neue',sans-serif" font-size="14.5" text-anchor="middle" fill="#111">I cleared the week.</text>
    <text x="1125" y="112" font-family="'Comic Sans MS','Chalkboard SE','Comic Neue',sans-serif" font-size="14.5" text-anchor="middle" fill="#111">There wasn&apos;t much</text>
    <text x="1125" y="132" font-family="'Comic Sans MS','Chalkboard SE','Comic Neue',sans-serif" font-size="14.5" text-anchor="middle" fill="#111">on it.</text>
  </g>

  <!-- panel borders on top -->
  <rect x="0" y="8" width="400" height="324" rx="3" fill="none" stroke="#111" stroke-width="2.5"/>
  <rect x="414" y="8" width="400" height="324" rx="3" fill="none" stroke="#111" stroke-width="2.5"/>
  <rect x="828" y="8" width="400" height="324" rx="3" fill="none" stroke="#111" stroke-width="2.5"/>
</svg>