<svg xmlns="http://www.w3.org/2000/svg" viewBox="0 0 1228 340" width="1228" height="340">
  <defs>
    <!-- reusable clanker (AI) head — only ever placed inside a surface -->
    <symbol id="clanker" viewBox="0 0 100 100">
      <line x1="50" y1="6" x2="50" y2="18" stroke="#111" stroke-width="2"/>
      <circle cx="50" cy="4" r="3" fill="#111"/>
      <rect x="20" y="18" width="60" height="58" rx="6" fill="#f4f1ea" stroke="#111" stroke-width="3"/>
      <rect x="28" y="30" width="18" height="11" rx="2" fill="#111"/>
      <rect x="54" y="30" width="18" height="11" rx="2" fill="#111"/>
      <rect x="30" y="32" width="14" height="4" fill="#f4f1ea" opacity="0.65"/>
      <rect x="56" y="32" width="14" height="4" fill="#f4f1ea" opacity="0.65"/>
      <rect x="30" y="54" width="40" height="14" rx="2" fill="#f4f1ea" stroke="#111" stroke-width="2"/>
      <line x1="37" y1="54" x2="37" y2="68" stroke="#111" stroke-width="2"/>
      <line x1="44" y1="54" x2="44" y2="68" stroke="#111" stroke-width="2"/>
      <line x1="51" y1="54" x2="51" y2="68" stroke="#111" stroke-width="2"/>
      <line x1="58" y1="54" x2="58" y2="68" stroke="#111" stroke-width="2"/>
      <line x1="65" y1="54" x2="65" y2="68" stroke="#111" stroke-width="2"/>
      <line x1="14" y1="40" x2="20" y2="40" stroke="#111" stroke-width="2"/>
      <line x1="80" y1="40" x2="86" y2="40" stroke="#111" stroke-width="2"/>
    </symbol>

    <!-- DAILBERT -->
    <symbol id="dailbert" viewBox="0 0 120 160">
      <path d="M60 6 C48 20 50 12 52 8" fill="none" stroke="#111" stroke-width="2.5" stroke-linecap="round"/>
      <ellipse cx="60" cy="42" rx="30" ry="34" fill="#f4f1ea" stroke="#111" stroke-width="3"/>
      <path d="M40 20 Q60 12 82 22" fill="none" stroke="#111" stroke-width="2.5" stroke-linecap="round"/>
      <circle cx="49" cy="42" r="9" fill="#f4f1ea" stroke="#111" stroke-width="2.5"/>
      <circle cx="71" cy="42" r="9" fill="#f4f1ea" stroke="#111" stroke-width="2.5"/>
      <line x1="58" y1="42" x2="62" y2="42" stroke="#111" stroke-width="2.5"/>
      <circle cx="49" cy="43" r="2" fill="#111"/>
      <circle cx="71" cy="43" r="2" fill="#111"/>
      <line x1="40" y1="42" x2="43" y2="42" stroke="#111" stroke-width="2"/>
      <path d="M52 60 Q60 64 68 60" fill="none" stroke="#111" stroke-width="2.5" stroke-linecap="round"/>
      <path d="M38 76 Q60 84 82 76 L96 150 L24 150 Z" fill="#f4f1ea" stroke="#111" stroke-width="3" stroke-linejoin="round"/>
      <path d="M48 78 L60 92 L72 78" fill="none" stroke="#111" stroke-width="2.5" stroke-linejoin="round"/>
      <path d="M60 92 L55 118 L65 118 Z" fill="#111"/>
    </symbol>

    <!-- DOUG -->
    <symbol id="doug" viewBox="0 0 120 160">
      <path d="M44 16 Q52 6 60 16" fill="none" stroke="#111" stroke-width="2.5" stroke-linecap="round"/>
      <circle cx="60" cy="44" r="34" fill="#f4f1ea" stroke="#111" stroke-width="3"/>
      <path d="M40 22 Q60 14 80 22" fill="none" stroke="#111" stroke-width="2.5" stroke-linecap="round"/>
      <circle cx="50" cy="42" r="3" fill="#111"/>
      <circle cx="70" cy="42" r="3" fill="#111"/>
      <path d="M44 54 Q60 72 76 54" fill="#f4f1ea" stroke="#111" stroke-width="2.5" stroke-linecap="round"/>
      <path d="M40 78 Q60 86 80 78 L92 150 L28 150 Z" fill="#f4f1ea" stroke="#111" stroke-width="3" stroke-linejoin="round"/>
      <path d="M48 80 Q60 90 72 80" fill="none" stroke="#111" stroke-width="2.5"/>
    </symbol>

    <!-- BOSS -->
    <symbol id="boss" viewBox="0 0 120 160">
      <path d="M42 40 L36 4 L54 34 Z" fill="#f4f1ea" stroke="#111" stroke-width="3" stroke-linejoin="round"/>
      <path d="M78 40 L84 4 L66 34 Z" fill="#f4f1ea" stroke="#111" stroke-width="3" stroke-linejoin="round"/>
      <ellipse cx="60" cy="46" rx="28" ry="30" fill="#f4f1ea" stroke="#111" stroke-width="3"/>
      <circle cx="51" cy="46" r="2.5" fill="#111"/>
      <circle cx="69" cy="46" r="2.5" fill="#111"/>
      <path d="M52 62 Q60 66 68 62" fill="none" stroke="#111" stroke-width="2.5" stroke-linecap="round"/>
      <path d="M40 76 Q60 84 80 76 L94 150 L26 150 Z" fill="#f4f1ea" stroke="#111" stroke-width="3" stroke-linejoin="round"/>
      <path d="M50 78 L60 90 L70 78" fill="none" stroke="#111" stroke-width="2.5" stroke-linejoin="round"/>
      <path d="M60 90 L56 118 L64 118 Z" fill="#111"/>
    </symbol>

    <pattern id="scan" width="6" height="4" patternUnits="userSpaceOnUse">
      <rect width="6" height="4" fill="#111"/>
      <rect width="6" height="2" y="1" fill="#2a2a2a"/>
    </pattern>
  </defs>

  <!-- ============ PANEL 1 ============ -->
  <g>
    <rect x="1.5" y="1.5" width="397" height="337" rx="3" fill="#f4f1ea" stroke="#111" stroke-width="3"/>
    <clipPath id="clip1"><rect x="3" y="3" width="394" height="334" rx="2"/></clipPath>
    <g clip-path="url(#clip1)">
      <!-- desk -->
      <rect x="0" y="270" width="400" height="70" fill="#f4f1ea" stroke="#111" stroke-width="3"/>
      <!-- monitor -->
      <g>
        <rect x="232" y="120" width="150" height="120" rx="8" fill="#f4f1ea" stroke="#111" stroke-width="3"/>
        <rect x="244" y="132" width="126" height="88" rx="4" fill="#111"/>
        <rect x="244" y="132" width="126" height="88" rx="4" fill="url(#scan)" opacity="0.25"/>
        <use href="#clanker" x="266" y="140" width="82" height="82"/>
        <rect x="290" y="240" width="34" height="16" fill="#f4f1ea" stroke="#111" stroke-width="3"/>
        <rect x="264" y="256" width="86" height="8" rx="3" fill="#f4f1ea" stroke="#111" stroke-width="3"/>
      </g>
      <!-- doug -->
      <use href="#doug" x="12" y="150" width="150" height="200"/>
      <!-- mug -->
      <g>
        <rect x="150" y="240" width="30" height="26" rx="3" fill="#f4f1ea" stroke="#111" stroke-width="2.5"/>
        <path d="M180 246 q12 0 12 8 t-12 8" fill="none" stroke="#111" stroke-width="2.5"/>
      </g>

      <!-- Doug balloon -->
      <g>
        <path d="M60 168 L74 132" fill="none" stroke="#111" stroke-width="2.5"/>
        <rect x="10" y="18" width="180" height="86" rx="14" fill="#fff" stroke="#111" stroke-width="2.5"/>
        <text x="100" y="38" text-anchor="middle" font-family="'Comic Sans MS','Segoe Print',cursive" font-size="14" fill="#111">I made an agent to</text>
        <text x="100" y="55" text-anchor="middle" font-family="'Comic Sans MS','Segoe Print',cursive" font-size="14" fill="#111">answer all my emails!</text>
        <text x="100" y="72" text-anchor="middle" font-family="'Comic Sans MS','Segoe Print',cursive" font-size="14" fill="#111">I'm basically</text>
        <text x="100" y="89" text-anchor="middle" font-family="'Comic Sans MS','Segoe Print',cursive" font-size="14" fill="#111">obsolete now!</text>
      </g>

      <!-- Clanker balloon -->
      <g>
        <path d="M300 118 L305 100" fill="none" stroke="#111" stroke-width="1.5" stroke-dasharray="3 3"/>
        <rect x="214" y="16" width="176" height="82" fill="#fff" stroke="#111" stroke-width="2.5"/>
        <rect x="219" y="21" width="166" height="72" fill="none" stroke="#111" stroke-width="1"/>
        <text x="302" y="38" text-anchor="middle" font-family="'Comic Sans MS','Segoe Print',cursive" font-size="14" fill="#111">Doug, you have</text>
        <text x="302" y="55" text-anchor="middle" font-family="'Comic Sans MS','Segoe Print',cursive" font-size="14" fill="#111">described the goal</text>
        <text x="302" y="72" text-anchor="middle" font-family="'Comic Sans MS','Segoe Print',cursive" font-size="14" fill="#111">of most of your</text>
        <text x="302" y="89" text-anchor="middle" font-family="'Comic Sans MS','Segoe Print',cursive" font-size="14" fill="#111">coworkers.</text>
      </g>
    </g>
  </g>

  <!-- ============ PANEL 2 ============ -->
  <g transform="translate(414,0)">
    <rect x="1.5" y="1.5" width="397" height="337" rx="3" fill="#f4f1ea" stroke="#111" stroke-width="3"/>
    <clipPath id="clip2"><rect x="3" y="3" width="394" height="334" rx="2"/></clipPath>
    <g clip-path="url(#clip2)">
      <rect x="0" y="270" width="400" height="70" fill="#f4f1ea" stroke="#111" stroke-width="3"/>
      <!-- monitor (left this time) -->
      <g>
        <rect x="24" y="120" width="150" height="120" rx="8" fill="#f4f1ea" stroke="#111" stroke-width="3"/>
        <rect x="36" y="132" width="126" height="88" rx="4" fill="#111"/>
        <rect x="36" y="132" width="126" height="88" rx="4" fill="url(#scan)" opacity="0.25"/>
        <use href="#clanker" x="58" y="140" width="82" height="82"/>
        <rect x="82" y="240" width="34" height="16" fill="#f4f1ea" stroke="#111" stroke-width="3"/>
        <rect x="56" y="256" width="86" height="8" rx="3" fill="#f4f1ea" stroke="#111" stroke-width="3"/>
      </g>
      <!-- doug (right, gesturing) -->
      <use href="#doug" x="238" y="150" width="150" height="200"/>

      <!-- Doug balloon -->
      <g>
        <path d="M300 168 L286 118" fill="none" stroke="#111" stroke-width="2.5"/>
        <rect x="232" y="18" width="160" height="60" rx="14" fill="#fff" stroke="#111" stroke-width="2.5"/>
        <text x="312" y="42" text-anchor="middle" font-family="'Comic Sans MS','Segoe Print',cursive" font-size="14" fill="#111">It's replying to</text>
        <text x="312" y="60" text-anchor="middle" font-family="'Comic Sans MS','Segoe Print',cursive" font-size="14" fill="#111">everything as me!</text>
      </g>

      <!-- Clanker balloon -->
      <g>
        <path d="M99 118 L104 100" fill="none" stroke="#111" stroke-width="1.5" stroke-dasharray="3 3"/>
        <rect x="12" y="14" width="200" height="86" fill="#fff" stroke="#111" stroke-width="2.5"/>
        <rect x="17" y="19" width="190" height="76" fill="none" stroke="#111" stroke-width="1"/>
        <text x="112" y="37" text-anchor="middle" font-family="'Comic Sans MS','Segoe Print',cursive" font-size="14" fill="#111">Yes. It said 'per my</text>
        <text x="112" y="54" text-anchor="middle" font-family="'Comic Sans MS','Segoe Print',cursive" font-size="14" fill="#111">last email' 340 times.</text>
        <text x="112" y="71" text-anchor="middle" font-family="'Comic Sans MS','Segoe Print',cursive" font-size="14" fill="#111">Morale has</text>
        <text x="112" y="88" text-anchor="middle" font-family="'Comic Sans MS','Segoe Print',cursive" font-size="14" fill="#111">collapsed.</text>
      </g>
    </g>
  </g>

  <!-- ============ PANEL 3 ============ -->
  <g transform="translate(828,0)">
    <rect x="1.5" y="1.5" width="397" height="337" rx="3" fill="#f4f1ea" stroke="#111" stroke-width="3"/>
    <clipPath id="clip3"><rect x="3" y="3" width="394" height="334" rx="2"/></clipPath>
    <g clip-path="url(#clip3)">
      <!-- floor -->
      <rect x="0" y="300" width="400" height="40" fill="#f4f1ea" stroke="#111" stroke-width="3"/>
      <!-- back wall hint: a cubicle line -->
      <line x1="0" y1="150" x2="400" y2="150" stroke="#111" stroke-width="2" opacity="0.4"/>
      <line x1="200" y1="150" x2="200" y2="300" stroke="#111" stroke-width="2" opacity="0.4"/>

      <!-- dailbert (left) -->
      <use href="#dailbert" x="30" y="150" width="150" height="200"/>
      <!-- doug (right) -->
      <use href="#doug" x="230" y="150" width="150" height="200"/>

      <!-- Dailbert balloon -->
      <g>
        <path d="M95 168 L110 118" fill="none" stroke="#111" stroke-width="2.5"/>
        <rect x="24" y="18" width="150" height="60" rx="14" fill="#fff" stroke="#111" stroke-width="2.5"/>
        <text x="99" y="42" text-anchor="middle" font-family="'Comic Sans MS','Segoe Print',cursive" font-size="14" fill="#111">Turn it off,</text>
        <text x="99" y="60" text-anchor="middle" font-family="'Comic Sans MS','Segoe Print',cursive" font-size="14" fill="#111">Doug.</text>
      </g>

      <!-- Doug balloon -->
      <g>
        <path d="M292 168 L280 108" fill="none" stroke="#111" stroke-width="2.5"/>
        <rect x="212" y="14" width="176" height="86" rx="14" fill="#fff" stroke="#111" stroke-width="2.5"/>
        <text x="300" y="34" text-anchor="middle" font-family="'Comic Sans MS','Segoe Print',cursive" font-size="14" fill="#111">I can't! It</text>
        <text x="300" y="51" text-anchor="middle" font-family="'Comic Sans MS','Segoe Print',cursive" font-size="14" fill="#111">scheduled a meeting</text>
        <text x="300" y="68" text-anchor="middle" font-family="'Comic Sans MS','Segoe Print',cursive" font-size="14" fill="#111">to discuss turning</text>
        <text x="300" y="85" text-anchor="middle" font-family="'Comic Sans MS','Segoe Print',cursive" font-size="14" fill="#111">it off.</text>
      </g>
    </g>
  </g>
</svg>