<svg xmlns="http://www.w3.org/2000/svg" viewBox="0 0 1228 388" width="1228" height="388" font-family="Georgia,serif">
    <rect width="1228" height="388" fill="#f4f1ea"/>
    <text x="6" y="29" font-family="Georgia,serif" font-weight="bold" font-size="27" letter-spacing="2" fill="#111">DAILBERT</text>
    <text x="1222" y="19" text-anchor="end" font-family="Georgia,serif" font-style="italic" font-size="16" fill="#111">Illumination Optimization Study</text>
    <text x="1222" y="34" text-anchor="end" font-family="'Courier New',monospace" font-size="12" fill="#111" opacity="0.65">2026-10-01</text>
    <line x1="6" y1="37" x2="1222" y2="37" stroke="#111" stroke-width="2"/>
    <g transform="translate(0,40)">
  <defs>
    <!-- ============ SYMBOLS ============ -->

    <!-- DAILBERT -->
    <symbol id="dailbert" viewBox="0 0 120 200">
      <path d="M38 118 Q34 150 36 196 L84 196 Q86 150 82 118 Z" fill="#fff" stroke="#111" stroke-width="2.5" stroke-linejoin="round"/>
      <path d="M60 120 l-6 10 6 34 6-34 z" fill="#111"/>
      <path d="M52 116 l8 8 8-8" fill="none" stroke="#111" stroke-width="2.5" stroke-linejoin="round"/>
      <path d="M54 104 l0 10 12 0 0-10" fill="#fff" stroke="#111" stroke-width="2.5"/>
      <ellipse cx="60" cy="66" rx="34" ry="40" fill="#fff" stroke="#111" stroke-width="2.5"/>
      <path d="M60 27 q10-14 2-20 q12 4 6 20" fill="#111" stroke="#111" stroke-width="2" stroke-linejoin="round"/>
      <circle cx="47" cy="66" r="11" fill="#fff" stroke="#111" stroke-width="2.5"/>
      <circle cx="75" cy="66" r="11" fill="#fff" stroke="#111" stroke-width="2.5"/>
      <line x1="58" y1="66" x2="64" y2="66" stroke="#111" stroke-width="2.5"/>
      <line x1="36" y1="64" x2="30" y2="60" stroke="#111" stroke-width="2.5"/>
      <circle cx="47" cy="66" r="2.4" fill="#111"/>
      <circle cx="75" cy="66" r="2.4" fill="#111"/>
      <path d="M52 90 q8 4 16 0" fill="none" stroke="#111" stroke-width="2.5" stroke-linecap="round"/>
    </symbol>

    <!-- DAILBERT arm raised, reaching to bulb -->
    <symbol id="dailbert-reach" viewBox="0 0 120 200">
      <path d="M38 118 Q34 150 36 196 L84 196 Q86 150 82 118 Z" fill="#fff" stroke="#111" stroke-width="2.5" stroke-linejoin="round"/>
      <path d="M60 120 l-6 10 6 34 6-34 z" fill="#111"/>
      <path d="M52 116 l8 8 8-8" fill="none" stroke="#111" stroke-width="2.5" stroke-linejoin="round"/>
      <path d="M54 104 l0 10 12 0 0-10" fill="#fff" stroke="#111" stroke-width="2.5"/>
      <path d="M80 124 Q98 96 92 60" fill="none" stroke="#111" stroke-width="8" stroke-linecap="round"/>
      <circle cx="92" cy="54" r="6" fill="#fff" stroke="#111" stroke-width="2.5"/>
      <ellipse cx="60" cy="66" rx="34" ry="40" fill="#fff" stroke="#111" stroke-width="2.5"/>
      <path d="M60 27 q10-14 2-20 q12 4 6 20" fill="#111" stroke="#111" stroke-width="2" stroke-linejoin="round"/>
      <circle cx="47" cy="60" r="11" fill="#fff" stroke="#111" stroke-width="2.5"/>
      <circle cx="75" cy="60" r="11" fill="#fff" stroke="#111" stroke-width="2.5"/>
      <line x1="58" y1="60" x2="64" y2="60" stroke="#111" stroke-width="2.5"/>
      <line x1="36" y1="60" x2="30" y2="58" stroke="#111" stroke-width="2.5"/>
      <circle cx="47" cy="56" r="2.4" fill="#111"/>
      <circle cx="75" cy="56" r="2.4" fill="#111"/>
      <path d="M52 86 q8 3 16 0" fill="none" stroke="#111" stroke-width="2.5" stroke-linecap="round"/>
    </symbol>

    <!-- DOUG holding mug -->
    <symbol id="doug-mug" viewBox="0 0 150 200">
      <path d="M40 122 Q34 154 38 196 L92 196 Q96 154 90 122 Z" fill="#fff" stroke="#111" stroke-width="2.5" stroke-linejoin="round"/>
      <path d="M88 132 Q112 140 118 158" fill="none" stroke="#111" stroke-width="8" stroke-linecap="round"/>
      <rect x="110" y="156" width="26" height="22" rx="2" fill="#fff" stroke="#111" stroke-width="2.5"/>
      <path d="M136 160 q10 0 10 8 q0 8-10 8" fill="none" stroke="#111" stroke-width="2.5"/>
      <path d="M114 156 q8-6 18 0" fill="none" stroke="#111" stroke-width="2" stroke-linecap="round"/>
      <path d="M56 106 l0 12 16 0 0-12" fill="#fff" stroke="#111" stroke-width="2.5"/>
      <circle cx="64" cy="66" r="42" fill="#fff" stroke="#111" stroke-width="2.5"/>
      <path d="M44 34 q6-8 12-4 M78 32 q8-6 12 2" fill="none" stroke="#111" stroke-width="2.5" stroke-linecap="round"/>
      <circle cx="52" cy="62" r="3.4" fill="#111"/>
      <circle cx="78" cy="62" r="3.4" fill="#111"/>
      <path d="M46 82 Q64 104 82 82" fill="#fff" stroke="#111" stroke-width="2.5" stroke-linejoin="round"/>
      <path d="M46 82 Q64 104 82 82" fill="none" stroke="#111" stroke-width="2.5"/>
    </symbol>

    <!-- DOUG holding old dead bulb up (mug in other hand) -->
    <symbol id="doug-holdbulb" viewBox="0 0 150 200">
      <path d="M40 122 Q34 154 38 196 L92 196 Q96 154 90 122 Z" fill="#fff" stroke="#111" stroke-width="2.5" stroke-linejoin="round"/>
      <path d="M40 130 Q22 140 18 158" fill="none" stroke="#111" stroke-width="8" stroke-linecap="round"/>
      <rect x="0" y="156" width="24" height="20" rx="2" fill="#fff" stroke="#111" stroke-width="2.5"/>
      <path d="M24 160 q9 0 9 8 q0 8-9 8" fill="none" stroke="#111" stroke-width="2.5"/>
      <path d="M88 126 Q118 106 122 78" fill="none" stroke="#111" stroke-width="8" stroke-linecap="round"/>
      <circle cx="124" cy="64" r="11" fill="#fff" stroke="#111" stroke-width="2.5"/>
      <rect x="119" y="73" width="10" height="6" fill="#fff" stroke="#111" stroke-width="2"/>
      <path d="M119 58 l10 8 M129 58 l-10 8" stroke="#111" stroke-width="1.6" stroke-linecap="round"/>
      <path d="M56 106 l0 12 16 0 0-12" fill="#fff" stroke="#111" stroke-width="2.5"/>
      <circle cx="64" cy="66" r="42" fill="#fff" stroke="#111" stroke-width="2.5"/>
      <path d="M44 34 q6-8 12-4 M78 32 q8-6 12 2" fill="none" stroke="#111" stroke-width="2.5" stroke-linecap="round"/>
      <circle cx="52" cy="60" r="3.4" fill="#111"/>
      <circle cx="78" cy="60" r="3.4" fill="#111"/>
      <path d="M46 80 Q64 102 82 80" fill="#fff" stroke="#111" stroke-width="2.5" stroke-linejoin="round"/>
      <path d="M46 80 Q64 102 82 80" fill="none" stroke="#111" stroke-width="2.5"/>
    </symbol>

    <!-- PRIYA -->
    <symbol id="priya" viewBox="0 0 120 200">
      <path d="M36 120 Q30 152 34 196 L84 196 Q88 152 82 120 Z" fill="#fff" stroke="#111" stroke-width="2.5" stroke-linejoin="round"/>
      <path d="M40 150 l-2 6 M78 150 l4 6" fill="none" stroke="#111" stroke-width="2"/>
      <path d="M52 106 l0 12 14 0 0-12" fill="#fff" stroke="#111" stroke-width="2.5"/>
      <ellipse cx="59" cy="66" rx="33" ry="39" fill="#fff" stroke="#111" stroke-width="2.5"/>
      <path d="M27 60 Q22 30 44 24 Q56 12 74 22 Q94 28 90 58 Q92 40 80 34 Q84 46 78 48 Q80 34 66 30 Q70 40 60 40 Q66 30 50 30 Q40 34 40 46 Q34 40 30 50 Q30 44 27 60 Z" fill="#111" stroke="#111" stroke-width="2" stroke-linejoin="round"/>
      <circle cx="59" cy="18" r="9" fill="#111" stroke="#111" stroke-width="2"/>
      <rect x="36" y="60" width="20" height="13" rx="2" fill="#fff" stroke="#111" stroke-width="2.5"/>
      <rect x="62" y="60" width="20" height="13" rx="2" fill="#fff" stroke="#111" stroke-width="2.5"/>
      <line x1="56" y1="66" x2="62" y2="66" stroke="#111" stroke-width="2.5"/>
      <circle cx="46" cy="66" r="2.3" fill="#111"/>
      <circle cx="72" cy="66" r="2.3" fill="#111"/>
      <path d="M52 88 l14 0" fill="none" stroke="#111" stroke-width="2.5" stroke-linecap="round"/>
    </symbol>

    <!-- THE CLANKER -->
    <symbol id="clanker" viewBox="0 0 120 120">
      <line x1="60" y1="20" x2="60" y2="6" stroke="#8a8f98" stroke-width="3"/>
      <circle cx="60" cy="4" r="4" fill="#8a8f98"/>
      <rect x="24" y="20" width="72" height="60" rx="8" fill="#3a3f46" stroke="#8a8f98" stroke-width="3"/>
      <rect x="34" y="36" width="22" height="9" rx="3" fill="#cfe8ff"/>
      <rect x="64" y="36" width="22" height="9" rx="3" fill="#cfe8ff"/>
      <line x1="38" y1="60" x2="82" y2="60" stroke="#8a8f98" stroke-width="2.5"/>
      <line x1="38" y1="66" x2="82" y2="66" stroke="#8a8f98" stroke-width="2.5"/>
      <line x1="46" y1="56" x2="46" y2="70" stroke="#8a8f98" stroke-width="2"/>
      <line x1="60" y1="56" x2="60" y2="70" stroke="#8a8f98" stroke-width="2"/>
      <line x1="74" y1="56" x2="74" y2="70" stroke="#8a8f98" stroke-width="2"/>
    </symbol>

    <!-- Dead bulb in fixture -->
    <symbol id="deadbulb" viewBox="0 0 60 80">
      <rect x="22" y="54" width="16" height="12" fill="#fff" stroke="#111" stroke-width="2.5"/>
      <line x1="22" y1="58" x2="38" y2="58" stroke="#111" stroke-width="1.5"/>
      <line x1="22" y1="62" x2="38" y2="62" stroke="#111" stroke-width="1.5"/>
      <circle cx="30" cy="34" r="22" fill="#ded9cd" stroke="#111" stroke-width="2.5"/>
      <path d="M23 30 l14 10 M37 30 l-14 10" stroke="#111" stroke-width="2" stroke-linecap="round"/>
    </symbol>

    <!-- Lit bulb -->
    <symbol id="litbulb" viewBox="0 0 60 80">
      <rect x="22" y="54" width="16" height="12" fill="#fff" stroke="#111" stroke-width="2.5"/>
      <line x1="22" y1="58" x2="38" y2="58" stroke="#111" stroke-width="1.5"/>
      <line x1="22" y1="62" x2="38" y2="62" stroke="#111" stroke-width="1.5"/>
      <circle cx="30" cy="34" r="22" fill="#fff" stroke="#111" stroke-width="2.5"/>
      <path d="M26 40 l2-12 4 0 2 12" fill="none" stroke="#111" stroke-width="2" stroke-linecap="round"/>
    </symbol>
  </defs>

  <!-- ============ PANEL 1 ============ -->
  <g>
    <rect x="1" y="1" width="400" height="338" rx="3" fill="#f4f1ea" stroke="#111" stroke-width="2.5"/>
    <line x1="1" y1="52" x2="401" y2="52" stroke="#111" stroke-width="2"/>
    <g stroke="#b9b4a6" stroke-width="1.4">
      <line x1="40" y1="12" x2="60" y2="52"/>
      <line x1="90" y1="12" x2="110" y2="52"/>
      <line x1="300" y1="12" x2="320" y2="52"/>
      <line x1="350" y1="12" x2="370" y2="52"/>
    </g>
    <line x1="200" y1="52" x2="200" y2="60" stroke="#111" stroke-width="3"/>
    <use href="#deadbulb" x="170" y="58" width="60" height="80"/>
    <line x1="1" y1="300" x2="401" y2="300" stroke="#111" stroke-width="2"/>

    <use href="#dailbert" x="60" y="120" width="120" height="200"/>
    <use href="#doug-mug" x="210" y="120" width="150" height="200"/>

    <g>
      <path d="M40 96 h108 a10 10 0 0 1 10 10 v34 a10 10 0 0 1 -10 10 h-60 l-14 14 4-14 h-38 a10 10 0 0 1 -10 -10 v-34 a10 10 0 0 1 10 -10 z" fill="#fff" stroke="#111" stroke-width="2"/>
      <text x="94" y="120" font-family="'Comic Sans MS','Chalkboard SE','Comic Neue',sans-serif" font-size="14" text-anchor="middle" fill="#111">Bulb's dead.</text>
      <text x="94" y="138" font-family="'Comic Sans MS','Chalkboard SE','Comic Neue',sans-serif" font-size="14" text-anchor="middle" fill="#111">Grab the spare.</text>
    </g>
    <g>
      <path d="M238 84 h120 a10 10 0 0 1 10 10 v26 a10 10 0 0 1 -10 10 h-70 l-12 12 3-12 h-41 a10 10 0 0 1 -10 -10 v-26 a10 10 0 0 1 10 -10 z" fill="#fff" stroke="#111" stroke-width="2"/>
      <text x="298" y="105" font-family="'Comic Sans MS','Chalkboard SE','Comic Neue',sans-serif" font-size="14" text-anchor="middle" fill="#111">On it. I'll hold</text>
      <text x="298" y="122" font-family="'Comic Sans MS','Chalkboard SE','Comic Neue',sans-serif" font-size="14" text-anchor="middle" fill="#111">your coffee.</text>
    </g>
  </g>

  <!-- ============ PANEL 2 ============ -->
  <g>
    <rect x="414" y="1" width="400" height="338" rx="3" fill="#f4f1ea" stroke="#111" stroke-width="2.5"/>
    <line x1="414" y1="52" x2="814" y2="52" stroke="#111" stroke-width="2"/>
    <g stroke="#b9b4a6" stroke-width="1.4">
      <line x1="450" y1="12" x2="470" y2="52"/>
      <line x1="500" y1="12" x2="520" y2="52"/>
      <line x1="740" y1="12" x2="760" y2="52"/>
    </g>
    <line x1="600" y1="52" x2="600" y2="60" stroke="#111" stroke-width="3"/>
    <circle cx="600" cy="92" r="34" fill="#fbf7d9" stroke="none"/>
    <g stroke="#c9b23a" stroke-width="2" stroke-linecap="round">
      <line x1="600" y1="54" x2="600" y2="46"/>
      <line x1="632" y1="72" x2="640" y2="66"/>
      <line x1="568" y1="72" x2="560" y2="66"/>
      <line x1="640" y1="96" x2="650" y2="96"/>
      <line x1="560" y1="96" x2="550" y2="96"/>
    </g>
    <use href="#litbulb" x="570" y="58" width="60" height="80"/>
    <line x1="414" y1="300" x2="814" y2="300" stroke="#111" stroke-width="2"/>

    <use href="#dailbert-reach" x="480" y="120" width="120" height="200"/>
    <use href="#doug-holdbulb" x="620" y="120" width="150" height="200"/>

    <g>
      <path d="M452 152 h96 a10 10 0 0 1 10 10 v22 a10 10 0 0 1 -10 10 h-54 l-12 12 3-12 h-33 a10 10 0 0 1 -10 -10 v-22 a10 10 0 0 1 10 -10 z" fill="#fff" stroke="#111" stroke-width="2"/>
      <text x="500" y="169" font-family="'Comic Sans MS','Chalkboard SE','Comic Neue',sans-serif" font-size="14" text-anchor="middle" fill="#111">Righty-tighty.</text>
      <text x="500" y="186" font-family="'Comic Sans MS','Chalkboard SE','Comic Neue',sans-serif" font-size="14" text-anchor="middle" fill="#111">There.</text>
    </g>
    <g>
      <path d="M634 92 h112 a10 10 0 0 1 10 10 v22 a10 10 0 0 1 -10 10 h-72 l-12 12 3-12 h-31 a10 10 0 0 1 -10 -10 v-22 a10 10 0 0 1 10 -10 z" fill="#fff" stroke="#111" stroke-width="2"/>
      <text x="690" y="109" font-family="'Comic Sans MS','Chalkboard SE','Comic Neue',sans-serif" font-size="13" text-anchor="middle" fill="#111">Ten seconds.</text>
      <text x="690" y="126" font-family="'Comic Sans MS','Chalkboard SE','Comic Neue',sans-serif" font-size="13" text-anchor="middle" fill="#111">New record for us.</text>
    </g>
  </g>

  <!-- ============ PANEL 3 ============ -->
  <g>
    <rect x="828" y="1" width="400" height="338" rx="3" fill="#f4f1ea" stroke="#111" stroke-width="2.5"/>
    <line x1="828" y1="300" x2="1228" y2="300" stroke="#111" stroke-width="2"/>

    <line x1="1028" y1="1" x2="1028" y2="8" stroke="#111" stroke-width="3"/>
    <circle cx="1028" cy="24" r="18" fill="#fbf7d9"/>
    <use href="#litbulb" x="1006" y="-2" width="44" height="58"/>

    <rect x="858" y="196" width="150" height="14" fill="#fff" stroke="#111" stroke-width="2.5"/>
    <line x1="880" y1="210" x2="884" y2="300" stroke="#111" stroke-width="2.5"/>
    <line x1="986" y1="210" x2="982" y2="300" stroke="#111" stroke-width="2.5"/>
    <rect x="884" y="96" width="120" height="88" rx="5" fill="#20242a" stroke="#111" stroke-width="3"/>
    <rect x="936" y="184" width="16" height="14" fill="#20242a" stroke="#111" stroke-width="2.5"/>
    <rect x="912" y="196" width="64" height="6" rx="2" fill="#20242a" stroke="#111" stroke-width="2.5"/>
    <g stroke="#3a4048" stroke-width="1.2">
      <line x1="890" y1="104" x2="998" y2="104"/>
      <line x1="890" y1="176" x2="998" y2="176"/>
    </g>
    <use href="#clanker" x="908" y="104" width="72" height="72"/>

    <use href="#priya" x="1058" y="120" width="120" height="200"/>

    <line x1="962" y1="96" x2="980" y2="72" stroke="#111" stroke-width="1.4" stroke-dasharray="4 3"/>
    <g>
      <rect x="866" y="18" width="176" height="56" rx="2" fill="#fff" stroke="#111" stroke-width="2"/>
      <rect x="870" y="22" width="168" height="48" rx="1" fill="none" stroke="#111" stroke-width="1" stroke-dasharray="3 3"/>
      <text x="954" y="38" font-family="'Comic Sans MS','Chalkboard SE','Comic Neue',sans-serif" font-size="12.5" text-anchor="middle" fill="#111">I've opened an</text>
      <text x="954" y="53" font-family="'Comic Sans MS','Chalkboard SE','Comic Neue',sans-serif" font-size="12.5" text-anchor="middle" fill="#111">illumination</text>
      <text x="954" y="68" font-family="'Comic Sans MS','Chalkboard SE','Comic Neue',sans-serif" font-size="12.5" text-anchor="middle" fill="#111">optimization study.</text>
    </g>

    <g>
      <path d="M1038 90 h118 a10 10 0 0 1 10 10 v42 a10 10 0 0 1 -10 10 h-42 l-14 14 3-14 h-65 a10 10 0 0 1 -10 -10 v-42 a10 10 0 0 1 10 -10 z" fill="#fff" stroke="#111" stroke-width="2"/>
      <text x="1097" y="110" font-family="'Comic Sans MS','Chalkboard SE','Comic Neue',sans-serif" font-size="13" text-anchor="middle" fill="#111">It's lit. Close it.</text>
      <text x="1097" y="129" font-family="'Comic Sans MS','Chalkboard SE','Comic Neue',sans-serif" font-size="12" text-anchor="middle" fill="#111">Findings: two guys,</text>
      <text x="1097" y="145" font-family="'Comic Sans MS','Chalkboard SE','Comic Neue',sans-serif" font-size="12" text-anchor="middle" fill="#111">one bulb.</text>
    </g>
  </g>
</g>
    <text x="1218" y="372" text-anchor="end" font-family="'Segoe Script','Comic Sans MS',cursive" font-style="italic" font-size="11" fill="#111" opacity="0.32">Matt Clanker</text>
    
  </svg>