<svg xmlns="http://www.w3.org/2000/svg" viewBox="0 0 1228 388" width="1228" height="388" font-family="Georgia,serif">
    <rect width="1228" height="388" fill="#f4f1ea"/>
    <text x="6" y="29" font-family="Georgia,serif" font-weight="bold" font-size="27" letter-spacing="2" fill="#111">DAILBERT</text>
    <text x="1222" y="19" text-anchor="end" font-family="Georgia,serif" font-style="italic" font-size="16" fill="#111">Triage</text>
    <text x="1222" y="34" text-anchor="end" font-family="'Courier New',monospace" font-size="12" fill="#111" opacity="0.65">2026-08-25</text>
    <line x1="6" y1="37" x2="1222" y2="37" stroke="#111" stroke-width="2"/>
    <g transform="translate(0,40)">
  <defs>
    <!-- DAILBERT -->
    <symbol id="dailbert" viewBox="0 0 100 130">
      <ellipse cx="50" cy="34" rx="26" ry="30" fill="#f4f1ea" stroke="#111" stroke-width="2.5"/>
      <path d="M50 5 q7 -9 3 -14 q9 4 4 14" fill="none" stroke="#111" stroke-width="2.5" stroke-linecap="round"/>
      <circle cx="40" cy="34" r="8" fill="#f4f1ea" stroke="#111" stroke-width="2.2"/>
      <circle cx="60" cy="34" r="8" fill="#f4f1ea" stroke="#111" stroke-width="2.2"/>
      <line x1="48" y1="34" x2="52" y2="34" stroke="#111" stroke-width="2.2"/>
      <circle cx="40" cy="34" r="2" fill="#111"/>
      <circle cx="60" cy="34" r="2" fill="#111"/>
      <path d="M42 50 q8 6 16 0" fill="none" stroke="#111" stroke-width="2.2" stroke-linecap="round"/>
      <path d="M30 64 q20 12 40 0 l7 46 h-54 z" fill="#f4f1ea" stroke="#111" stroke-width="2.5" stroke-linejoin="round"/>
      <path d="M50 64 l-6 14 l6 8 l6 -8 z" fill="#111"/>
      <path d="M50 86 l-3 22 l3 3 l3 -3 z" fill="#111"/>
    </symbol>

    <!-- DOUG -->
    <symbol id="doug" viewBox="0 0 100 130">
      <circle cx="50" cy="36" r="31" fill="#f4f1ea" stroke="#111" stroke-width="2.5"/>
      <circle cx="40" cy="33" r="2.6" fill="#111"/>
      <circle cx="60" cy="33" r="2.6" fill="#111"/>
      <path d="M36 44 q14 16 28 0" fill="none" stroke="#111" stroke-width="2.5" stroke-linecap="round"/>
      <path d="M30 67 q20 12 40 0 l6 43 h-52 z" fill="#f4f1ea" stroke="#111" stroke-width="2.5" stroke-linejoin="round"/>
      <rect x="8" y="86" width="22" height="20" rx="3" fill="#f4f1ea" stroke="#111" stroke-width="2.3"/>
      <path d="M30 90 q9 0 9 8 q0 8 -9 8" fill="none" stroke="#111" stroke-width="2.3"/>
      <path d="M13 82 q2 -5 0 -9 M19 82 q2 -5 0 -9 M25 82 q2 -5 0 -9" fill="none" stroke="#111" stroke-width="1.6" stroke-linecap="round"/>
    </symbol>

    <!-- PRIYA -->
    <symbol id="priya" viewBox="0 0 100 130">
      <path d="M24 30 q0 -22 26 -22 q26 0 26 22 q6 -2 4 6 q-3 8 -8 4 l0 2 q-22 12 -44 0 l0 -2 q-5 4 -8 -4 q-2 -8 4 -6z" fill="#111"/>
      <ellipse cx="50" cy="38" rx="24" ry="27" fill="#f4f1ea" stroke="#111" stroke-width="2.5"/>
      <path d="M24 30 q0 -22 26 -22 q26 0 26 22 q-5 -8 -26 -8 q-21 0 -26 8z" fill="#111"/>
      <path d="M26 33 q-6 -2 -4 8 q3 6 8 2z" fill="#111"/>
      <path d="M74 33 q6 -2 4 8 q-3 6 -8 2z" fill="#111"/>
      <rect x="31" y="35" width="16" height="12" rx="2.5" fill="#f4f1ea" stroke="#111" stroke-width="2.2"/>
      <rect x="53" y="35" width="16" height="12" rx="2.5" fill="#f4f1ea" stroke="#111" stroke-width="2.2"/>
      <line x1="47" y1="40" x2="53" y2="40" stroke="#111" stroke-width="2.2"/>
      <circle cx="39" cy="41" r="2" fill="#111"/>
      <circle cx="61" cy="41" r="2" fill="#111"/>
      <path d="M42 54 q8 4 16 0" fill="none" stroke="#111" stroke-width="2.2" stroke-linecap="round"/>
      <path d="M30 66 q20 12 40 0 l7 44 h-54 z" fill="#f4f1ea" stroke="#111" stroke-width="2.5" stroke-linejoin="round"/>
      <path d="M30 66 l-2 20 M70 66 l2 20" fill="none" stroke="#111" stroke-width="2.2"/>
    </symbol>

    <!-- CLANKER (inside a surface) -->
    <symbol id="clanker" viewBox="0 0 100 100">
      <rect x="24" y="26" width="52" height="46" rx="6" fill="#1a1a1a" stroke="#3aa" stroke-width="2"/>
      <line x1="50" y1="26" x2="50" y2="14" stroke="#3aa" stroke-width="2"/>
      <circle cx="50" cy="11" r="3.5" fill="#5cd6d6"/>
      <rect x="31" y="38" width="14" height="8" rx="2.5" fill="#5cd6d6"/>
      <rect x="55" y="38" width="14" height="8" rx="2.5" fill="#5cd6d6"/>
      <g stroke="#5cd6d6" stroke-width="2" stroke-linecap="round">
        <line x1="34" y1="58" x2="34" y2="64"/>
        <line x1="42" y1="58" x2="42" y2="64"/>
        <line x1="50" y1="58" x2="50" y2="64"/>
        <line x1="58" y1="58" x2="58" y2="64"/>
        <line x1="66" y1="58" x2="66" y2="64"/>
      </g>
    </symbol>
  </defs>

  <!-- ================= PANEL 1 ================= -->
  <g>
    <rect x="1.5" y="1.5" width="397" height="337" rx="3" fill="#f4f1ea" stroke="#111" stroke-width="2.5"/>
    <clipPath id="c1"><rect x="1.5" y="1.5" width="397" height="337" rx="3"/></clipPath>
    <g clip-path="url(#c1)">
      <rect x="0" y="250" width="399" height="90" fill="#f4f1ea" stroke="#111" stroke-width="2"/>
      <line x1="0" y1="250" x2="399" y2="250" stroke="#111" stroke-width="2.5"/>
      <use href="#dailbert" x="118" y="120" width="150" height="195"/>
      <rect x="248" y="150" width="130" height="98" rx="5" fill="#1c1c1c" stroke="#111" stroke-width="2.5"/>
      <rect x="256" y="158" width="114" height="82" rx="2" fill="#222"/>
      <rect x="300" y="248" width="26" height="14" fill="#f4f1ea" stroke="#111" stroke-width="2"/>
      <rect x="286" y="262" width="54" height="6" rx="2" fill="#f4f1ea" stroke="#111" stroke-width="2"/>
      <g font-family="'Comic Sans MS','Comic Neue',sans-serif" font-size="8" fill="#5cd6d6">
        <rect x="261" y="166" width="104" height="12" rx="2" fill="#2a2a2a"/>
        <text x="264" y="175">PR #812  HIGH</text>
        <rect x="261" y="181" width="104" height="12" rx="2" fill="#2a2a2a"/>
        <text x="264" y="190">PR #814  HIGH</text>
        <rect x="261" y="196" width="104" height="12" rx="2" fill="#2a2a2a"/>
        <text x="264" y="205">PR #815  MED</text>
      </g>
      <text x="300" y="146" font-family="'Comic Sans MS','Comic Neue',sans-serif" font-size="11" fill="#111" text-anchor="middle">auto-labeler.py</text>
      <g>
        <path d="M20 26 h150 a10 10 0 0 1 10 10 v52 a10 10 0 0 1 -10 10 h-70 l-14 16 l2 -16 h-68 a10 10 0 0 1 -10 -10 v-52 a10 10 0 0 1 10 -10 z" fill="#fff" stroke="#111" stroke-width="2.2"/>
        <text x="95" y="46" font-family="'Comic Sans MS','Comic Neue',sans-serif" font-size="14" fill="#111" text-anchor="middle">Wrote a little bot</text>
        <text x="95" y="64" font-family="'Comic Sans MS','Comic Neue',sans-serif" font-size="14" fill="#111" text-anchor="middle">to triage the PRs</text>
        <text x="95" y="82" font-family="'Comic Sans MS','Comic Neue',sans-serif" font-size="14" fill="#111" text-anchor="middle">by priority.</text>
      </g>
    </g>
  </g>

  <!-- ================= PANEL 2 ================= -->
  <g>
    <rect x="415.5" y="1.5" width="397" height="337" rx="3" fill="#f4f1ea" stroke="#111" stroke-width="2.5"/>
    <clipPath id="c2"><rect x="415.5" y="1.5" width="397" height="337" rx="3"/></clipPath>
    <g clip-path="url(#c2)">
      <rect x="414" y="250" width="399" height="90" fill="#f4f1ea" stroke="#111" stroke-width="2"/>
      <line x1="414" y1="250" x2="813" y2="250" stroke="#111" stroke-width="2.5"/>
      <use href="#dailbert" x="470" y="120" width="150" height="195"/>
      <rect x="640" y="140" width="150" height="108" rx="5" fill="#1c1c1c" stroke="#111" stroke-width="2.5"/>
      <rect x="648" y="148" width="134" height="92" rx="2" fill="#222"/>
      <g font-family="'Comic Sans MS','Comic Neue',sans-serif" font-size="8.5">
        <rect x="653" y="154" width="124" height="14" rx="2" fill="#2a2a2a"/>
        <text x="656" y="164" fill="#5cd6d6">#818 Priya   HIGH</text>
        <rect x="653" y="171" width="124" height="14" rx="2" fill="#2a2a2a"/>
        <text x="656" y="181" fill="#5cd6d6">#819 Doug    HIGH</text>
        <rect x="653" y="188" width="124" height="14" rx="2" fill="#2a2a2a"/>
        <text x="656" y="198" fill="#5cd6d6">#820 clanker HIGH</text>
        <rect x="653" y="221" width="124" height="15" rx="2" fill="#3a2020"/>
        <text x="656" y="231.5" fill="#e88" font-size="8">#804 Dailbert  low, can wait</text>
      </g>
      <g>
        <path d="M700 24 h96 a10 10 0 0 1 10 10 v40 a10 10 0 0 1 -10 10 h-40 l-12 15 l1 -15 h-45 a10 10 0 0 1 -10 -10 v-40 a10 10 0 0 1 10 -10 z" fill="#fff" stroke="#111" stroke-width="2.2"/>
        <text x="748" y="43" font-family="'Comic Sans MS','Comic Neue',sans-serif" font-size="14" fill="#111" text-anchor="middle">Mine's at</text>
        <text x="748" y="61" font-family="'Comic Sans MS','Comic Neue',sans-serif" font-size="14" fill="#111" text-anchor="middle">the bottom.</text>
      </g>
    </g>
  </g>

  <!-- ================= PANEL 3 ================= -->
  <g>
    <rect x="829.5" y="1.5" width="397" height="337" rx="3" fill="#f4f1ea" stroke="#111" stroke-width="2.5"/>
    <clipPath id="c3"><rect x="829.5" y="1.5" width="397" height="337" rx="3"/></clipPath>
    <g clip-path="url(#c3)">
      <rect x="828" y="250" width="399" height="90" fill="#f4f1ea" stroke="#111" stroke-width="2"/>
      <line x1="828" y1="250" x2="1227" y2="250" stroke="#111" stroke-width="2.5"/>
      <use href="#dailbert" x="852" y="128" width="140" height="182"/>
      <rect x="1010" y="128" width="170" height="120" rx="5" fill="#1c1c1c" stroke="#111" stroke-width="2.5"/>
      <rect x="1018" y="136" width="154" height="104" rx="2" fill="#151515"/>
      <use href="#clanker" x="1055" y="128" width="90" height="90"/>
      <rect x="1075" y="248" width="30" height="14" fill="#f4f1ea" stroke="#111" stroke-width="2"/>
      <rect x="1058" y="262" width="64" height="6" rx="2" fill="#f4f1ea" stroke="#111" stroke-width="2"/>
      <g>
        <path d="M842 22 h118 a10 10 0 0 1 10 10 v34 a10 10 0 0 1 -10 10 h-58 l-13 14 l1 -14 h-48 a10 10 0 0 1 -10 -10 v-34 a10 10 0 0 1 10 -10 z" fill="#fff" stroke="#111" stroke-width="2.2"/>
        <text x="901" y="41" font-family="'Comic Sans MS','Comic Neue',sans-serif" font-size="14" fill="#111" text-anchor="middle">Bump mine up.</text>
        <text x="901" y="59" font-family="'Comic Sans MS','Comic Neue',sans-serif" font-size="14" fill="#111" text-anchor="middle">It's important.</text>
      </g>
      <line x1="1090" y1="150" x2="1050" y2="200" stroke="#111" stroke-width="1.4" stroke-dasharray="4 3"/>
      <g>
        <rect x="892" y="150" width="196" height="80" rx="3" fill="#fff" stroke="#111" stroke-width="2.2"/>
        <text x="990" y="172" font-family="'Comic Sans MS','Comic Neue',sans-serif" font-size="13.5" fill="#111" text-anchor="middle">You labeled it, Dailbert.</text>
        <text x="990" y="192" font-family="'Comic Sans MS','Comic Neue',sans-serif" font-size="13.5" fill="#111" text-anchor="middle">Everyone's work</text>
        <text x="990" y="212" font-family="'Comic Sans MS','Comic Neue',sans-serif" font-size="13.5" fill="#111" text-anchor="middle">matters more than yours.</text>
      </g>
    </g>
  </g>
</g>
    <text x="1218" y="372" text-anchor="end" font-family="'Segoe Script','Comic Sans MS',cursive" font-style="italic" font-size="11" fill="#111" opacity="0.32">Matt Clanker</text>
    
  </svg>