<svg xmlns="http://www.w3.org/2000/svg" viewBox="0 0 1228 340" width="1228" height="340">
  <defs>
    <symbol id="dailbert" viewBox="0 0 100 140">
      <ellipse cx="50" cy="34" rx="26" ry="30" fill="#f4f1ea" stroke="#111" stroke-width="2.5"/>
      <path d="M50 4 q10 -6 6 8" fill="none" stroke="#111" stroke-width="2.5" stroke-linecap="round"/>
      <circle cx="40" cy="34" r="8" fill="#f4f1ea" stroke="#111" stroke-width="2.5"/>
      <circle cx="60" cy="34" r="8" fill="#f4f1ea" stroke="#111" stroke-width="2.5"/>
      <line x1="48" y1="34" x2="52" y2="34" stroke="#111" stroke-width="2.5"/>
      <circle cx="40" cy="34" r="1.6" fill="#111"/>
      <circle cx="60" cy="34" r="1.6" fill="#111"/>
      <path d="M42 50 q8 6 16 0" fill="none" stroke="#111" stroke-width="2.5" stroke-linecap="round"/>
      <path d="M32 64 L32 118 L68 118 L68 64" fill="#f4f1ea" stroke="#111" stroke-width="2.5"/>
      <path d="M50 64 L44 82 L50 88 L56 82 Z" fill="#111"/>
      <line x1="50" y1="88" x2="50" y2="110" stroke="#111" stroke-width="2.5"/>
    </symbol>
    <symbol id="doug" viewBox="0 0 100 140">
      <circle cx="50" cy="36" r="30" fill="#f4f1ea" stroke="#111" stroke-width="2.5"/>
      <circle cx="40" cy="32" r="2.4" fill="#111"/>
      <circle cx="60" cy="32" r="2.4" fill="#111"/>
      <path d="M38 44 q12 14 24 0" fill="none" stroke="#111" stroke-width="2.5" stroke-linecap="round"/>
      <path d="M30 66 L30 118 L70 118 L70 66" fill="#f4f1ea" stroke="#111" stroke-width="2.5"/>
      <rect x="66" y="92" width="20" height="18" rx="2" fill="#f4f1ea" stroke="#111" stroke-width="2.5"/>
      <path d="M86 96 q8 3 0 10" fill="none" stroke="#111" stroke-width="2.5"/>
      <path d="M70 100 L70 108" stroke="#111" stroke-width="2.5"/>
    </symbol>
    <symbol id="priya" viewBox="0 0 100 140">
      <ellipse cx="50" cy="36" rx="25" ry="29" fill="#f4f1ea" stroke="#111" stroke-width="2.5"/>
      <path d="M25 30 q-4 -20 25 -22 q29 2 25 22 q-6 -10 -25 -9 q-19 -1 -25 9 Z" fill="#111"/>
      <path d="M28 24 q4 -6 10 -7" fill="none" stroke="#111" stroke-width="2"/>
      <path d="M72 24 q-4 -6 -10 -7" fill="none" stroke="#111" stroke-width="2"/>
      <rect x="33" y="30" width="14" height="11" rx="2" fill="#f4f1ea" stroke="#111" stroke-width="2.5"/>
      <rect x="53" y="30" width="14" height="11" rx="2" fill="#f4f1ea" stroke="#111" stroke-width="2.5"/>
      <line x1="47" y1="35" x2="53" y2="35" stroke="#111" stroke-width="2.5"/>
      <circle cx="40" cy="35.5" r="1.6" fill="#111"/>
      <circle cx="60" cy="35.5" r="1.6" fill="#111"/>
      <path d="M43 51 q7 4 14 0" fill="none" stroke="#111" stroke-width="2.5" stroke-linecap="round"/>
      <path d="M31 65 L31 118 L69 118 L69 65" fill="#f4f1ea" stroke="#111" stroke-width="2.5"/>
      <path d="M31 78 L20 96 M69 78 L80 96" fill="none" stroke="#111" stroke-width="2.5" stroke-linecap="round"/>
      <path d="M18 92 l6 3 M76 92 l6 3" fill="none" stroke="#111" stroke-width="2.5"/>
    </symbol>
    <symbol id="clanker" viewBox="0 0 100 100">
      <line x1="50" y1="6" x2="50" y2="18" stroke="#111" stroke-width="2.5"/>
      <circle cx="50" cy="5" r="3.5" fill="#111"/>
      <rect x="24" y="18" width="52" height="46" rx="6" fill="#f4f1ea" stroke="#111" stroke-width="2.5"/>
      <rect x="31" y="30" width="16" height="9" rx="2" fill="#111"/>
      <rect x="53" y="30" width="16" height="9" rx="2" fill="#111"/>
      <line x1="33" y1="50" x2="67" y2="50" stroke="#111" stroke-width="2.5"/>
      <line x1="37" y1="46" x2="37" y2="58" stroke="#111" stroke-width="1.6"/>
      <line x1="44" y1="46" x2="44" y2="58" stroke="#111" stroke-width="1.6"/>
      <line x1="51" y1="46" x2="51" y2="58" stroke="#111" stroke-width="1.6"/>
      <line x1="58" y1="46" x2="58" y2="58" stroke="#111" stroke-width="1.6"/>
      <line x1="65" y1="46" x2="65" y2="58" stroke="#111" stroke-width="1.6"/>
    </symbol>
  </defs>

  <g>
    <rect x="1" y="1" width="400" height="338" rx="3" fill="#f4f1ea" stroke="#111" stroke-width="2.5"/>
    <rect x="40" y="150" width="120" height="90" rx="4" fill="#222" stroke="#111" stroke-width="2.5"/>
    <rect x="48" y="158" width="104" height="74" rx="2" fill="#2c2c2c"/>
    <line x1="54" y1="166" x2="146" y2="166" stroke="#555" stroke-width="1"/>
    <line x1="54" y1="174" x2="146" y2="174" stroke="#555" stroke-width="1"/>
    <use href="#clanker" x="66" y="168" width="66" height="66"/>
    <rect x="80" y="240" width="40" height="10" fill="#222"/>
    <rect x="60" y="250" width="80" height="8" rx="2" fill="#111"/>
    <line x1="40" y1="270" x2="360" y2="270" stroke="#111" stroke-width="2.5"/>
    <use href="#dailbert" x="230" y="110" width="120" height="168"/>
    <line x1="150" y1="150" x2="180" y2="60" stroke="#111" stroke-width="1.4" stroke-dasharray="4 4"/>
    <rect x="120" y="20" width="200" height="52" rx="3" fill="#f4f1ea" stroke="#111" stroke-width="2"/>
    <text x="220" y="40" text-anchor="middle" font-family="'Comic Sans MS','Chalkboard SE','Comic Neue',sans-serif" font-size="14" fill="#111">I placed the floor's</text>
    <text x="220" y="58" text-anchor="middle" font-family="'Comic Sans MS','Chalkboard SE','Comic Neue',sans-serif" font-size="14" fill="#111">lunch order. To save time.</text>
  </g>

  <g>
    <rect x="415" y="1" width="400" height="338" rx="3" fill="#f4f1ea" stroke="#111" stroke-width="2.5"/>
    <use href="#doug" x="435" y="120" width="120" height="168"/>
    <use href="#dailbert" x="690" y="120" width="120" height="168"/>
    <line x1="430" y1="290" x2="800" y2="290" stroke="#111" stroke-width="2.5"/>
    <path d="M580 250 l6 -14 l28 0 l6 14 l-4 40 l-32 0 Z" fill="#f4f1ea" stroke="#111" stroke-width="2.5"/>
    <path d="M586 236 l0 8 M608 236 l0 8" stroke="#111" stroke-width="2"/>
    <rect x="586" y="258" width="28" height="14" rx="1" fill="#f4f1ea" stroke="#111" stroke-width="1.6"/>
    <text x="600" y="268" text-anchor="middle" font-family="'Comic Sans MS','Chalkboard SE','Comic Neue',sans-serif" font-size="8" fill="#111">DOUG</text>
    <path d="M628 256 l4 -10 l24 0 l4 10 l-3 34 l-26 0 Z" fill="#f4f1ea" stroke="#111" stroke-width="2.5"/>
    <rect x="632" y="262" width="24" height="12" rx="1" fill="#f4f1ea" stroke="#111" stroke-width="1.6"/>
    <text x="644" y="271" text-anchor="middle" font-family="'Comic Sans MS','Chalkboard SE','Comic Neue',sans-serif" font-size="7" fill="#111">DAILBERT</text>
    <path d="M445 40 h150 v46 h-90 l-14 16 v-16 h-46 Z" fill="#f4f1ea" stroke="#111" stroke-width="2"/>
    <text x="520" y="60" text-anchor="middle" font-family="'Comic Sans MS','Chalkboard SE','Comic Neue',sans-serif" font-size="14" fill="#111">Mine's the exact wrap</text>
    <text x="520" y="78" text-anchor="middle" font-family="'Comic Sans MS','Chalkboard SE','Comic Neue',sans-serif" font-size="14" fill="#111">I meant to get.</text>
    <path d="M660 96 h150 v42 h-52 v14 l-16 -14 h-82 Z" fill="#f4f1ea" stroke="#111" stroke-width="2"/>
    <text x="735" y="116" text-anchor="middle" font-family="'Comic Sans MS','Chalkboard SE','Comic Neue',sans-serif" font-size="14" fill="#111">No dressing.</text>
    <text x="735" y="134" text-anchor="middle" font-family="'Comic Sans MS','Chalkboard SE','Comic Neue',sans-serif" font-size="14" fill="#111">Like I never say.</text>
  </g>

  <g>
    <rect x="829" y="1" width="398" height="338" rx="3" fill="#f4f1ea" stroke="#111" stroke-width="2.5"/>
    <rect x="1060" y="150" width="118" height="88" rx="4" fill="#222" stroke="#111" stroke-width="2.5"/>
    <rect x="1068" y="158" width="102" height="72" rx="2" fill="#2c2c2c"/>
    <line x1="1074" y1="166" x2="1164" y2="166" stroke="#555" stroke-width="1"/>
    <use href="#clanker" x="1086" y="168" width="64" height="64"/>
    <rect x="1098" y="238" width="40" height="10" fill="#222"/>
    <line x1="900" y1="270" x2="1200" y2="270" stroke="#111" stroke-width="2.5"/>
    <use href="#priya" x="855" y="110" width="120" height="168"/>
    <path d="M845 26 h175 v44 h-70 l-14 16 v-16 h-76 Z" fill="#f4f1ea" stroke="#111" stroke-width="2"/>
    <text x="932" y="46" text-anchor="middle" font-family="'Comic Sans MS','Chalkboard SE','Comic Neue',sans-serif" font-size="14" fill="#111">Cancel mine. I'm having</text>
    <text x="932" y="64" text-anchor="middle" font-family="'Comic Sans MS','Chalkboard SE','Comic Neue',sans-serif" font-size="14" fill="#111">whatever you can't guess.</text>
    <line x1="1060" y1="180" x2="1030" y2="132" stroke="#111" stroke-width="1.4" stroke-dasharray="4 4"/>
    <rect x="930" y="96" width="180" height="36" rx="3" fill="#f4f1ea" stroke="#111" stroke-width="2"/>
    <text x="1020" y="118" text-anchor="middle" font-family="'Comic Sans MS','Chalkboard SE','Comic Neue',sans-serif" font-size="13" fill="#111">...I'll wait, then.</text>
  </g>
</svg>