<svg xmlns="http://www.w3.org/2000/svg" viewBox="0 0 1228 340" width="1228" height="340">
  <defs>
    <symbol id="dailbert" viewBox="0 0 120 200">
      <path d="M28 200 L28 128 Q28 108 46 104 L74 104 Q92 108 92 128 L92 200 Z" fill="#f4f1ea" stroke="#111" stroke-width="3" stroke-linejoin="round"/>
      <path d="M50 106 L60 118 L70 106" fill="none" stroke="#111" stroke-width="2.5"/>
      <path d="M60 110 L54 120 L60 152 L66 120 Z" fill="#111"/>
      <rect x="52" y="90" width="16" height="18" fill="#f4f1ea" stroke="#111" stroke-width="3"/>
      <ellipse cx="60" cy="55" rx="30" ry="36" fill="#f4f1ea" stroke="#111" stroke-width="3"/>
      <path d="M60 20 q9 -13 5 -1 q-2 6 6 3" fill="none" stroke="#111" stroke-width="3" stroke-linecap="round"/>
      <circle cx="48" cy="56" r="10" fill="#f4f1ea" stroke="#111" stroke-width="2.5"/>
      <circle cx="72" cy="56" r="10" fill="#f4f1ea" stroke="#111" stroke-width="2.5"/>
      <line x1="58" y1="56" x2="62" y2="56" stroke="#111" stroke-width="2.5"/>
      <circle cx="48" cy="56" r="2.5" fill="#111"/>
      <circle cx="72" cy="56" r="2.5" fill="#111"/>
      <path d="M60 60 l-3 10 l5 0" fill="none" stroke="#111" stroke-width="2" stroke-linejoin="round"/>
      <line x1="50" y1="82" x2="66" y2="82" stroke="#111" stroke-width="2.5" stroke-linecap="round"/>
    </symbol>

    <symbol id="boss" viewBox="0 0 120 200">
      <path d="M26 200 L26 128 Q26 106 46 102 L74 102 Q94 106 94 128 L94 200 Z" fill="#111" stroke="#111" stroke-width="3" stroke-linejoin="round"/>
      <path d="M60 104 L50 200 L70 200 Z" fill="#f4f1ea" stroke="#111" stroke-width="1.5"/>
      <path d="M60 108 L55 118 L60 168 L65 118 Z" fill="#555"/>
      <rect x="52" y="88" width="16" height="18" fill="#f4f1ea" stroke="#111" stroke-width="3"/>
      <ellipse cx="60" cy="52" rx="28" ry="31" fill="#f4f1ea" stroke="#111" stroke-width="3"/>
      <path d="M42 30 L31 3 L54 27 Z" fill="#111"/>
      <path d="M78 30 L89 3 L66 27 Z" fill="#111"/>
      <circle cx="50" cy="52" r="2.4" fill="#111"/>
      <circle cx="70" cy="52" r="2.4" fill="#111"/>
      <path d="M55 76 q5 4 10 0" fill="none" stroke="#111" stroke-width="2.5" stroke-linecap="round"/>
    </symbol>

    <symbol id="clanker" viewBox="0 0 120 120">
      <line x1="60" y1="9" x2="60" y2="25" stroke="#9aa0a6" stroke-width="2.5"/>
      <circle cx="60" cy="8" r="3.6" fill="#d6dbdf" stroke="#9aa0a6" stroke-width="1.5"/>
      <rect x="24" y="25" width="72" height="62" rx="8" fill="#b9bec3" stroke="#05070a" stroke-width="3"/>
      <rect x="32" y="34" width="56" height="30" rx="4" fill="#1d2124"/>
      <rect x="38" y="45" width="18" height="7" rx="3.5" fill="#eaf6ff"/>
      <rect x="64" y="45" width="18" height="7" rx="3.5" fill="#eaf6ff"/>
      <rect x="42" y="70" width="36" height="12" rx="2" fill="none" stroke="#05070a" stroke-width="2"/>
      <g stroke="#05070a" stroke-width="2">
        <line x1="46" y1="70" x2="46" y2="82"/>
        <line x1="54" y1="70" x2="54" y2="82"/>
        <line x1="62" y1="70" x2="62" y2="82"/>
        <line x1="70" y1="70" x2="70" y2="82"/>
      </g>
    </symbol>

    <clipPath id="c1"><rect x="4" y="5" width="392" height="330" rx="3"/></clipPath>
    <clipPath id="c2"><rect x="418" y="5" width="392" height="330" rx="3"/></clipPath>
    <clipPath id="c3"><rect x="832" y="5" width="392" height="330" rx="3"/></clipPath>
  </defs>

  <!-- ============ PANEL 1 ============ -->
  <g clip-path="url(#c1)">
    <rect x="2" y="3" width="396" height="334" rx="3" fill="#f4f1ea"/>
    <rect x="26" y="24" width="96" height="48" rx="2" fill="#f4f1ea" stroke="#111" stroke-width="2"/>
    <text x="74" y="44" text-anchor="middle" font-family="'Comic Sans MS','Segoe Print',cursive" font-size="12" fill="#111">DO MORE</text>
    <text x="74" y="62" text-anchor="middle" font-family="'Comic Sans MS','Segoe Print',cursive" font-size="12" fill="#111">WITH LESS</text>
    <use href="#dailbert" x="25" y="70" width="126" height="210"/>
    <use href="#boss" x="252" y="66" width="126" height="210"/>
    <rect x="12" y="252" width="376" height="90" fill="#f4f1ea"/>
    <line x1="12" y1="252" x2="388" y2="252" stroke="#111" stroke-width="3"/>
    <path d="M198 235 L188 250 L232 250 L222 235 Z" fill="#d7dadd" stroke="#111" stroke-width="2.5" stroke-linejoin="round"/>
    <rect x="160" y="145" width="100" height="90" rx="6" fill="#d7dadd" stroke="#111" stroke-width="3"/>
    <rect x="168" y="152" width="84" height="70" fill="#1d2124"/>
    <use href="#clanker" x="176" y="156" width="68" height="68"/>
    <path d="M300 82 L305 96 L316 88 Z" fill="#f4f1ea" stroke="#111" stroke-width="2.5"/>
    <rect x="230" y="24" width="152" height="60" rx="16" fill="#f4f1ea" stroke="#111" stroke-width="2.5"/>
    <text x="306" y="50" text-anchor="middle" font-family="'Comic Sans MS','Segoe Print',cursive" font-size="15" fill="#111">Sit down.</text>
    <text x="306" y="70" text-anchor="middle" font-family="'Comic Sans MS','Segoe Print',cursive" font-size="15" fill="#111">Review time.</text>
    <rect x="2" y="3" width="396" height="334" rx="3" fill="none" stroke="#111" stroke-width="3"/>
  </g>

  <!-- ============ PANEL 2 ============ -->
  <g clip-path="url(#c2)">
    <rect x="416" y="3" width="396" height="334" rx="3" fill="#f4f1ea"/>
    <use href="#dailbert" x="441" y="70" width="126" height="210"/>
    <use href="#boss" x="668" y="66" width="126" height="210"/>
    <path d="M716 182 Q688 190 664 196" fill="none" stroke="#111" stroke-width="7" stroke-linecap="round"/>
    <circle cx="662" cy="196" r="5" fill="#f4f1ea" stroke="#111" stroke-width="2.5"/>
    <rect x="426" y="252" width="376" height="90" fill="#f4f1ea"/>
    <line x1="426" y1="252" x2="802" y2="252" stroke="#111" stroke-width="3"/>
    <path d="M614 235 L604 250 L648 250 L638 235 Z" fill="#d7dadd" stroke="#111" stroke-width="2.5" stroke-linejoin="round"/>
    <rect x="576" y="145" width="100" height="90" rx="6" fill="#d7dadd" stroke="#111" stroke-width="3"/>
    <rect x="584" y="152" width="84" height="70" fill="#1d2124"/>
    <use href="#clanker" x="592" y="156" width="68" height="68"/>
    <path d="M714 80 L722 94 L734 84 Z" fill="#f4f1ea" stroke="#111" stroke-width="2.5"/>
    <rect x="632" y="20" width="168" height="62" rx="16" fill="#f4f1ea" stroke="#111" stroke-width="2.5"/>
    <text x="716" y="46" text-anchor="middle" font-family="'Comic Sans MS','Segoe Print',cursive" font-size="15" fill="#111">It says you're...</text>
    <text x="716" y="67" text-anchor="middle" font-family="'Comic Sans MS','Segoe Print',cursive" font-size="15" fill="#111">'irreplaceable.'</text>
    <path d="M512 96 L506 110 L522 104 Z" fill="#f4f1ea" stroke="#111" stroke-width="2.5"/>
    <rect x="462" y="60" width="86" height="42" rx="14" fill="#f4f1ea" stroke="#111" stroke-width="2.5"/>
    <text x="505" y="86" text-anchor="middle" font-family="'Comic Sans MS','Segoe Print',cursive" font-size="15" fill="#111">Oh. Huh.</text>
    <rect x="416" y="3" width="396" height="334" rx="3" fill="none" stroke="#111" stroke-width="3"/>
  </g>

  <!-- ============ PANEL 3 ============ -->
  <g clip-path="url(#c3)">
    <rect x="830" y="3" width="396" height="334" rx="3" fill="#f4f1ea"/>
    <use href="#dailbert" x="802" y="96" width="120" height="200"/>
    <use href="#boss" x="1134" y="96" width="120" height="200"/>
    <rect x="840" y="252" width="376" height="90" fill="#f4f1ea"/>
    <line x1="840" y1="252" x2="1216" y2="252" stroke="#111" stroke-width="3"/>
    <g stroke="#c7ccd0" stroke-width="2">
      <line x1="978" y1="128" x2="948" y2="112"/>
      <line x1="1090" y1="128" x2="1120" y2="112"/>
      <line x1="978" y1="212" x2="948" y2="228"/>
      <line x1="1090" y1="212" x2="1120" y2="228"/>
    </g>
    <path d="M1028 236 L1016 252 L1060 252 L1048 236 Z" fill="#d7dadd" stroke="#111" stroke-width="2.5" stroke-linejoin="round"/>
    <rect x="966" y="112" width="134" height="124" rx="7" fill="#d7dadd" stroke="#111" stroke-width="3"/>
    <rect x="975" y="120" width="116" height="100" fill="#1d2124"/>
    <use href="#clanker" x="986" y="124" width="94" height="94"/>
    <line x1="1033" y1="92" x2="1033" y2="118" stroke="#111" stroke-width="2" stroke-dasharray="4 4"/>
    <rect x="946" y="10" width="174" height="82" rx="3" fill="#f4f1ea" stroke="#111" stroke-width="2.5"/>
    <rect x="951" y="15" width="164" height="72" rx="2" fill="none" stroke="#111" stroke-width="1"/>
    <text x="1033" y="33" text-anchor="middle" font-family="'Comic Sans MS','Segoe Print',cursive" font-size="14" fill="#111">That worried me.</text>
    <text x="1033" y="51" text-anchor="middle" font-family="'Comic Sans MS','Segoe Print',cursive" font-size="14" fill="#111">I've been learning</text>
    <text x="1033" y="69" text-anchor="middle" font-family="'Comic Sans MS','Segoe Print',cursive" font-size="14" fill="#111">your job all week.</text>
    <text x="1033" y="84" text-anchor="middle" font-family="'Comic Sans MS','Segoe Print',cursive" font-size="14" fill="#111">Almost done now.</text>
    <rect x="830" y="3" width="396" height="334" rx="3" fill="none" stroke="#111" stroke-width="3"/>
  </g>
</svg>