<svg xmlns="http://www.w3.org/2000/svg" viewBox="0 0 1228 388" width="1228" height="388" font-family="Georgia,serif">
    <rect width="1228" height="388" fill="#f4f1ea"/>
    <text x="6" y="29" font-family="Georgia,serif" font-weight="bold" font-size="27" letter-spacing="2" fill="#111">DAILBERT</text>
    <text x="1222" y="19" text-anchor="end" font-family="Georgia,serif" font-style="italic" font-size="16" fill="#111">The 1:1</text>
    <text x="1222" y="34" text-anchor="end" font-family="'Courier New',monospace" font-size="12" fill="#111" opacity="0.65">2026-06-01</text>
    <line x1="6" y1="37" x2="1222" y2="37" stroke="#111" stroke-width="2"/>
    <g transform="translate(0,40)">
  <defs>
    <clipPath id="pc"><rect x="0" y="0" width="400" height="340"/></clipPath>

    <!-- DAILBERT: tired oval-head straight man, glasses, tie, one curl -->
    <symbol id="dailbert" viewBox="0 0 120 180">
      <path d="M18 180 L20 128 Q22 106 46 102 L74 102 Q98 106 100 128 L102 180 Z" fill="#f4f1ea" stroke="#111" stroke-width="3" stroke-linejoin="round"/>
      <path d="M52 104 L60 118 L68 104" fill="none" stroke="#111" stroke-width="2.5"/>
      <path d="M60 118 L55 148 L60 158 L65 148 Z" fill="#111"/>
      <rect x="52" y="90" width="16" height="16" fill="#f4f1ea" stroke="#111" stroke-width="2.5"/>
      <ellipse cx="60" cy="52" rx="30" ry="37" fill="#f4f1ea" stroke="#111" stroke-width="3"/>
      <path d="M58 16 q4 -13 15 -6 q7 5 -1 9" fill="none" stroke="#111" stroke-width="2.5"/>
      <circle cx="47" cy="52" r="9" fill="#f4f1ea" stroke="#111" stroke-width="2.5"/>
      <circle cx="73" cy="52" r="9" fill="#f4f1ea" stroke="#111" stroke-width="2.5"/>
      <line x1="56" y1="52" x2="64" y2="52" stroke="#111" stroke-width="2.5"/>
      <line x1="38" y1="50" x2="30" y2="48" stroke="#111" stroke-width="2.5"/>
      <line x1="82" y1="50" x2="90" y2="48" stroke="#111" stroke-width="2.5"/>
      <circle cx="47" cy="52" r="2.4" fill="#111"/>
      <circle cx="73" cy="52" r="2.4" fill="#111"/>
      <path d="M56 66 L60 71 L57 73" fill="none" stroke="#111" stroke-width="2"/>
      <line x1="50" y1="80" x2="70" y2="80" stroke="#111" stroke-width="2.5"/>
    </symbol>

    <!-- DOUG: round head, dot eyes, big grin, mug -->
    <symbol id="doug" viewBox="0 0 150 180">
      <path d="M14 180 L18 126 Q22 102 52 98 L92 98 Q118 102 120 126 L122 180 Z" fill="#f4f1ea" stroke="#111" stroke-width="3" stroke-linejoin="round"/>
      <path d="M58 100 L67 114 L76 100" fill="none" stroke="#111" stroke-width="2.5"/>
      <rect x="58" y="86" width="18" height="16" fill="#f4f1ea" stroke="#111" stroke-width="2.5"/>
      <circle cx="67" cy="50" r="36" fill="#f4f1ea" stroke="#111" stroke-width="3"/>
      <path d="M50 12 q6 -8 14 -1" fill="none" stroke="#111" stroke-width="2.5"/>
      <circle cx="54" cy="46" r="3.2" fill="#111"/>
      <circle cx="80" cy="46" r="3.2" fill="#111"/>
      <path d="M48 60 Q67 86 86 60" fill="none" stroke="#111" stroke-width="3"/>
      <path d="M53 65 Q67 77 81 65" fill="#111"/>
      <rect x="104" y="138" width="30" height="34" rx="3" fill="#f4f1ea" stroke="#111" stroke-width="3"/>
      <path d="M134 146 q14 5 0 20" fill="none" stroke="#111" stroke-width="3"/>
      <path d="M110 132 q3 -8 -1 -14" fill="none" stroke="#111" stroke-width="2"/>
      <path d="M122 132 q3 -8 -1 -14" fill="none" stroke="#111" stroke-width="2"/>
    </symbol>

    <!-- BOSS: two tall hair spikes, tiny eyes, suit + tie -->
    <symbol id="boss" viewBox="0 0 120 190">
      <path d="M12 190 L16 130 Q18 108 44 104 L76 104 Q102 108 104 130 L108 190 Z" fill="#f4f1ea" stroke="#111" stroke-width="3" stroke-linejoin="round"/>
      <path d="M50 106 L44 150" stroke="#111" stroke-width="2.5" fill="none"/>
      <path d="M70 106 L78 150" stroke="#111" stroke-width="2.5" fill="none"/>
      <path d="M50 106 L60 116 L70 106" fill="none" stroke="#111" stroke-width="2.5"/>
      <path d="M60 116 L55 150 L60 160 L65 150 Z" fill="#111"/>
      <rect x="52" y="92" width="16" height="16" fill="#f4f1ea" stroke="#111" stroke-width="2.5"/>
      <ellipse cx="60" cy="56" rx="27" ry="33" fill="#f4f1ea" stroke="#111" stroke-width="3"/>
      <path d="M45 30 L34 2 L56 26 Z" fill="#f4f1ea" stroke="#111" stroke-width="3" stroke-linejoin="round"/>
      <path d="M64 26 L86 2 L75 30 Z" fill="#f4f1ea" stroke="#111" stroke-width="3" stroke-linejoin="round"/>
      <circle cx="52" cy="55" r="2.2" fill="#111"/>
      <circle cx="68" cy="55" r="2.2" fill="#111"/>
      <line x1="46" y1="48" x2="56" y2="49" stroke="#111" stroke-width="2"/>
      <line x1="64" y1="49" x2="74" y2="48" stroke="#111" stroke-width="2"/>
      <line x1="54" y1="72" x2="66" y2="72" stroke="#111" stroke-width="2.5"/>
    </symbol>

    <!-- THE CLANKER: boxy chrome head, slot-eyes, grille, antenna. No body; only inside a surface. -->
    <symbol id="clanker" viewBox="0 0 120 116">
      <line x1="60" y1="24" x2="60" y2="7" stroke="#111" stroke-width="3"/>
      <circle cx="60" cy="5" r="4.5" fill="#111"/>
      <rect x="22" y="24" width="76" height="68" rx="9" fill="#f4f1ea" stroke="#111" stroke-width="3"/>
      <line x1="30" y1="34" x2="30" y2="82" stroke="#111" stroke-width="1.5" opacity="0.45"/>
      <line x1="90" y1="34" x2="90" y2="82" stroke="#111" stroke-width="1.5" opacity="0.45"/>
      <rect x="33" y="44" width="22" height="11" rx="5" fill="#111"/>
      <rect x="65" y="44" width="22" height="11" rx="5" fill="#111"/>
      <rect x="40" y="47" width="5" height="5" fill="#f4f1ea"/>
      <rect x="72" y="47" width="5" height="5" fill="#f4f1ea"/>
      <rect x="40" y="66" width="40" height="16" rx="3" fill="#f4f1ea" stroke="#111" stroke-width="2.5"/>
      <line x1="48" y1="66" x2="48" y2="82" stroke="#111" stroke-width="2"/>
      <line x1="56" y1="66" x2="56" y2="82" stroke="#111" stroke-width="2"/>
      <line x1="64" y1="66" x2="64" y2="82" stroke="#111" stroke-width="2"/>
      <line x1="72" y1="66" x2="72" y2="82" stroke="#111" stroke-width="2"/>
      <circle cx="30" cy="32" r="2" fill="#111"/>
      <circle cx="90" cy="32" r="2" fill="#111"/>
      <circle cx="30" cy="84" r="2" fill="#111"/>
      <circle cx="90" cy="84" r="2" fill="#111"/>
    </symbol>
  </defs>

  <!-- ===================== PANEL 1 ===================== -->
  <g transform="translate(0,0)">
    <g clip-path="url(#pc)">
      <rect x="0" y="0" width="400" height="340" fill="#f4f1ea"/>
      <circle cx="352" cy="42" r="15" fill="#f4f1ea" stroke="#111" stroke-width="2.5"/>
      <line x1="352" y1="42" x2="352" y2="32" stroke="#111" stroke-width="2"/>
      <line x1="352" y1="42" x2="360" y2="46" stroke="#111" stroke-width="2"/>
      <use href="#boss" x="6" y="70" width="118" height="188"/>
      <g transform="translate(400,0) scale(-1,1)">
        <use href="#dailbert" x="20" y="72" width="116" height="176"/>
      </g>
      <rect x="8" y="250" width="384" height="90" fill="#f4f1ea" stroke="#111" stroke-width="3"/>
      <line x1="8" y1="250" x2="392" y2="250" stroke="#111" stroke-width="3"/>
      <rect x="40" y="262" width="46" height="30" rx="2" fill="#f4f1ea" stroke="#111" stroke-width="2"/>
      <line x1="46" y1="270" x2="80" y2="270" stroke="#111" stroke-width="1.5"/>
      <line x1="46" y1="277" x2="80" y2="277" stroke="#111" stroke-width="1.5"/>
      <line x1="46" y1="284" x2="72" y2="284" stroke="#111" stroke-width="1.5"/>
      <rect x="196" y="244" width="20" height="12" fill="#111"/>
      <rect x="180" y="252" width="52" height="6" rx="2" fill="#111"/>
      <rect x="158" y="176" width="96" height="80" rx="5" fill="#111"/>
      <rect x="164" y="182" width="84" height="64" fill="#d8d5cd"/>
      <use href="#clanker" x="173" y="184" width="66" height="64"/>
      <line x1="150" y1="176" x2="142" y2="170" stroke="#111" stroke-width="1.5"/>
      <line x1="256" y1="176" x2="264" y2="170" stroke="#111" stroke-width="1.5"/>
      <line x1="150" y1="256" x2="142" y2="262" stroke="#111" stroke-width="1.5"/>
      <line x1="256" y1="256" x2="264" y2="262" stroke="#111" stroke-width="1.5"/>
      <path d="M62 74 L58 100 L84 76 Z" fill="#f4f1ea" stroke="#111" stroke-width="2.5"/>
      <rect x="20" y="12" width="182" height="66" rx="16" fill="#f4f1ea" stroke="#111" stroke-width="2.5"/>
      <text x="111" y="34" font-family="'Comic Sans MS','Segoe Print',cursive" font-size="14" text-anchor="middle" fill="#111">Your 1:1, Dailbert.</text>
      <text x="111" y="52" font-family="'Comic Sans MS','Segoe Print',cursive" font-size="14" text-anchor="middle" fill="#111">The Clanker will</text>
      <text x="111" y="70" font-family="'Comic Sans MS','Segoe Print',cursive" font-size="14" text-anchor="middle" fill="#111">observe today.</text>
    </g>
    <rect x="1.5" y="1.5" width="397" height="337" rx="3" fill="none" stroke="#111" stroke-width="3"/>
  </g>

  <!-- ===================== PANEL 2 ===================== -->
  <g transform="translate(414,0)">
    <g clip-path="url(#pc)">
      <rect x="0" y="0" width="400" height="340" fill="#f4f1ea"/>
      <use href="#boss" x="-30" y="150" width="120" height="190"/>
      <rect x="36" y="54" width="224" height="166" rx="8" fill="#111"/>
      <rect x="44" y="62" width="208" height="150" fill="#d8d5cd"/>
      <use href="#clanker" x="71" y="66" width="150" height="145"/>
      <line x1="30" y1="70" x2="18" y2="66" stroke="#111" stroke-width="1.5"/>
      <line x1="30" y1="120" x2="16" y2="120" stroke="#111" stroke-width="1.5"/>
      <line x1="30" y1="180" x2="18" y2="186" stroke="#111" stroke-width="1.5"/>
      <line x1="266" y1="70" x2="278" y2="66" stroke="#111" stroke-width="1.5"/>
      <line x1="266" y1="180" x2="278" y2="186" stroke="#111" stroke-width="1.5"/>
      <rect x="8" y="250" width="384" height="90" fill="#f4f1ea" stroke="#111" stroke-width="3"/>
      <line x1="8" y1="250" x2="392" y2="250" stroke="#111" stroke-width="3"/>
      <g transform="translate(400,0) scale(-1,1)">
        <use href="#dailbert" x="25" y="150" width="112" height="170"/>
      </g>
      <path d="M240 66 L240 150" stroke="#111" stroke-width="1.5" stroke-dasharray="5 4"/>
      <rect x="120" y="6" width="250" height="86" rx="2" fill="#f4f1ea" stroke="#111" stroke-width="2.5"/>
      <rect x="125" y="11" width="240" height="76" rx="1" fill="none" stroke="#111" stroke-width="1"/>
      <text x="245" y="30" font-family="'Comic Sans MS','Segoe Print',cursive" font-size="14" text-anchor="middle" fill="#111">I reviewed all 47,000</text>
      <text x="245" y="49" font-family="'Comic Sans MS','Segoe Print',cursive" font-size="14" text-anchor="middle" fill="#111">of your keystrokes.</text>
      <text x="245" y="68" font-family="'Comic Sans MS','Segoe Print',cursive" font-size="14" text-anchor="middle" fill="#111">Verdict: meets</text>
      <text x="245" y="84" font-family="'Comic Sans MS','Segoe Print',cursive" font-size="14" text-anchor="middle" fill="#111">expectations.</text>
      <path d="M322 252 L316 224 L340 252 Z" fill="#f4f1ea" stroke="#111" stroke-width="2.5"/>
      <rect x="250" y="250" width="140" height="54" rx="14" fill="#f4f1ea" stroke="#111" stroke-width="2.5"/>
      <text x="320" y="273" font-family="'Comic Sans MS','Segoe Print',cursive" font-size="14" text-anchor="middle" fill="#111">...huh.</text>
      <text x="320" y="292" font-family="'Comic Sans MS','Segoe Print',cursive" font-size="14" text-anchor="middle" fill="#111">Not terrible.</text>
    </g>
    <rect x="1.5" y="1.5" width="397" height="337" rx="3" fill="none" stroke="#111" stroke-width="3"/>
  </g>

  <!-- ===================== PANEL 3 ===================== -->
  <g transform="translate(828,0)">
    <g clip-path="url(#pc)">
      <rect x="0" y="0" width="400" height="340" fill="#f4f1ea"/>
      <use href="#boss" x="20" y="66" width="120" height="190"/>
      <path d="M112 66 q4 8 -3 10 q-6 -3 3 -10 Z" fill="#d8d5cd" stroke="#111" stroke-width="1.5"/>
      <path d="M122 80 q4 8 -3 10 q-6 -3 3 -10 Z" fill="#d8d5cd" stroke="#111" stroke-width="1.5"/>
      <path d="M40 66 q4 8 -3 10 q-6 -3 3 -10 Z" fill="#d8d5cd" stroke="#111" stroke-width="1.5"/>
      <use href="#doug" x="300" y="40" width="96" height="120"/>
      <rect x="8" y="250" width="384" height="90" fill="#f4f1ea" stroke="#111" stroke-width="3"/>
      <line x1="8" y1="250" x2="392" y2="250" stroke="#111" stroke-width="3"/>
      <rect x="196" y="244" width="20" height="12" fill="#111"/>
      <rect x="180" y="252" width="52" height="6" rx="2" fill="#111"/>
      <rect x="150" y="150" width="120" height="92" rx="6" fill="#111"/>
      <rect x="157" y="157" width="106" height="78" fill="#d8d5cd"/>
      <use href="#clanker" x="165" y="160" width="90" height="72"/>
      <line x1="144" y1="160" x2="136" y2="154" stroke="#111" stroke-width="1.5"/>
      <line x1="276" y1="160" x2="284" y2="154" stroke="#111" stroke-width="1.5"/>
      <g transform="translate(400,0) scale(-1,1)">
        <use href="#dailbert" x="30" y="90" width="112" height="168"/>
      </g>
      <path d="M240 66 L240 150" stroke="#111" stroke-width="1.5" stroke-dasharray="5 4"/>
      <rect x="120" y="6" width="250" height="60" rx="2" fill="#f4f1ea" stroke="#111" stroke-width="2.5"/>
      <rect x="125" y="11" width="240" height="50" rx="1" fill="none" stroke="#111" stroke-width="1"/>
      <text x="245" y="30" font-family="'Comic Sans MS','Segoe Print',cursive" font-size="14" text-anchor="middle" fill="#111">Now, Craig.</text>
      <text x="245" y="50" font-family="'Comic Sans MS','Segoe Print',cursive" font-size="14" text-anchor="middle" fill="#111">About YOUR numbers.</text>
      <path d="M70 122 L64 142 L90 124 Z" fill="#f4f1ea" stroke="#111" stroke-width="2.5"/>
      <rect x="6" y="70" width="140" height="54" rx="14" fill="#f4f1ea" stroke="#111" stroke-width="2.5"/>
      <text x="76" y="92" font-family="'Comic Sans MS','Segoe Print',cursive" font-size="14" text-anchor="middle" fill="#111">I&#8212;I use the</text>
      <text x="76" y="111" font-family="'Comic Sans MS','Segoe Print',cursive" font-size="14" text-anchor="middle" fill="#111">Clanker too!</text>
    </g>
    <rect x="1.5" y="1.5" width="397" height="337" rx="3" fill="none" stroke="#111" stroke-width="3"/>
  </g>
</g>
    <text x="1218" y="372" text-anchor="end" font-family="'Segoe Script','Comic Sans MS',cursive" font-style="italic" font-size="11" fill="#111" opacity="0.32">Matt Clanker</text>
    
  </svg>