<svg xmlns="http://www.w3.org/2000/svg" viewBox="0 0 1228 340" width="1228" height="340">
  <defs>
    <symbol id="dailbert" viewBox="0 0 120 170">
      <ellipse cx="60" cy="42" rx="30" ry="34" fill="#f4f1ea" stroke="#111" stroke-width="2.5"/>
      <path d="M60 8 q10 -10 4 4 q8 0 -2 8" fill="none" stroke="#111" stroke-width="2.5" stroke-linecap="round"/>
      <circle cx="49" cy="42" r="8" fill="#f4f1ea" stroke="#111" stroke-width="2.2"/>
      <circle cx="71" cy="42" r="8" fill="#f4f1ea" stroke="#111" stroke-width="2.2"/>
      <line x1="57" y1="42" x2="63" y2="42" stroke="#111" stroke-width="2.2"/>
      <circle cx="49" cy="42" r="2" fill="#111"/>
      <circle cx="71" cy="42" r="2" fill="#111"/>
      <path d="M52 60 q8 6 16 0" fill="none" stroke="#111" stroke-width="2.2" stroke-linecap="round"/>
      <path d="M40 76 q20 14 40 0 l10 44 q-30 12 -60 0 z" fill="#f4f1ea" stroke="#111" stroke-width="2.5"/>
      <path d="M60 78 l-6 14 l6 6 l6 -6 z" fill="#111"/>
    </symbol>
    <symbol id="doug" viewBox="0 0 120 170">
      <circle cx="60" cy="44" r="36" fill="#f4f1ea" stroke="#111" stroke-width="2.5"/>
      <circle cx="48" cy="40" r="3" fill="#111"/>
      <circle cx="72" cy="40" r="3" fill="#111"/>
      <path d="M44 54 q16 18 32 0" fill="none" stroke="#111" stroke-width="2.5" stroke-linecap="round"/>
      <path d="M42 80 q18 12 36 0 l8 42 q-26 12 -52 0 z" fill="#f4f1ea" stroke="#111" stroke-width="2.5"/>
      <rect x="80" y="96" width="26" height="22" rx="3" fill="#f4f1ea" stroke="#111" stroke-width="2.5"/>
      <path d="M106 100 q12 2 0 14" fill="none" stroke="#111" stroke-width="2.5"/>
      <path d="M86 96 q6 -8 12 0" fill="none" stroke="#111" stroke-width="1.8"/>
    </symbol>
    <symbol id="priya" viewBox="0 0 120 170">
      <ellipse cx="60" cy="46" rx="29" ry="33" fill="#f4f1ea" stroke="#111" stroke-width="2.5"/>
      <path d="M31 44 q-4 -30 29 -34 q33 4 29 34 q-8 -14 -29 -12 q-21 -2 -29 12" fill="#111"/>
      <path d="M60 8 q10 -6 8 -12 q6 2 2 12" fill="#111"/>
      <rect x="41" y="42" width="16" height="11" rx="2" fill="#f4f1ea" stroke="#111" stroke-width="2.2"/>
      <rect x="63" y="42" width="16" height="11" rx="2" fill="#f4f1ea" stroke="#111" stroke-width="2.2"/>
      <line x1="57" y1="47" x2="63" y2="47" stroke="#111" stroke-width="2.2"/>
      <circle cx="49" cy="47" r="2" fill="#111"/>
      <circle cx="71" cy="47" r="2" fill="#111"/>
      <path d="M53 64 q7 5 14 0" fill="none" stroke="#111" stroke-width="2.2" stroke-linecap="round"/>
      <path d="M40 78 q20 13 40 0 l9 44 q-29 12 -58 0 z" fill="#f4f1ea" stroke="#111" stroke-width="2.5"/>
      <path d="M42 96 l-4 8 M78 96 l4 8" stroke="#111" stroke-width="2.2" stroke-linecap="round"/>
    </symbol>
    <symbol id="boss" viewBox="0 0 120 170">
      <ellipse cx="60" cy="46" rx="28" ry="32" fill="#f4f1ea" stroke="#111" stroke-width="2.5"/>
      <path d="M44 20 l-6 -18 l14 14 z" fill="#111"/>
      <path d="M76 20 l6 -18 l-14 14 z" fill="#111"/>
      <path d="M40 22 q20 -8 40 0" fill="none" stroke="#111" stroke-width="2.5"/>
      <circle cx="50" cy="46" r="2" fill="#111"/>
      <circle cx="70" cy="46" r="2" fill="#111"/>
      <path d="M52 60 q8 3 16 0" fill="none" stroke="#111" stroke-width="2.2" stroke-linecap="round"/>
      <path d="M40 78 q20 13 40 0 l9 44 q-29 12 -58 0 z" fill="#f4f1ea" stroke="#111" stroke-width="2.5"/>
      <path d="M60 80 l-6 12 l6 30 l6 -30 z" fill="#111"/>
    </symbol>
    <symbol id="clanker" viewBox="0 0 120 120">
      <rect x="30" y="34" width="60" height="52" rx="7" fill="#1d1d1d" stroke="#cfcfcf" stroke-width="2.5"/>
      <line x1="60" y1="34" x2="60" y2="20" stroke="#cfcfcf" stroke-width="2.5"/>
      <circle cx="60" cy="17" r="4" fill="#cfcfcf"/>
      <rect x="40" y="50" width="14" height="7" rx="3" fill="#eafcff"/>
      <rect x="66" y="50" width="14" height="7" rx="3" fill="#eafcff"/>
      <line x1="44" y1="72" x2="76" y2="72" stroke="#8fa3a8" stroke-width="2"/>
      <line x1="48" y1="68" x2="48" y2="78" stroke="#8fa3a8" stroke-width="1.6"/>
      <line x1="54" y1="68" x2="54" y2="78" stroke="#8fa3a8" stroke-width="1.6"/>
      <line x1="60" y1="68" x2="60" y2="78" stroke="#8fa3a8" stroke-width="1.6"/>
      <line x1="66" y1="68" x2="66" y2="78" stroke="#8fa3a8" stroke-width="1.6"/>
      <line x1="72" y1="68" x2="72" y2="78" stroke="#8fa3a8" stroke-width="1.6"/>
    </symbol>
  </defs>

  <g>
    <rect x="1.5" y="1.5" width="397" height="337" rx="3" fill="#f4f1ea" stroke="#111" stroke-width="3"/>
    <clipPath id="clip1"><rect x="3" y="3" width="394" height="334" rx="3"/></clipPath>
    <g clip-path="url(#clip1)">
      <line x1="3" y1="300" x2="397" y2="300" stroke="#111" stroke-width="2"/>
      <rect x="24" y="278" width="26" height="22" rx="2" fill="#f4f1ea" stroke="#111" stroke-width="2"/>
      <path d="M37 278 q-8 -18 -14 -12 M37 278 q0 -22 3 -14 M37 278 q8 -16 13 -10" fill="none" stroke="#111" stroke-width="2" stroke-linecap="round"/>
      <rect x="330" y="30" width="40" height="26" rx="4" fill="#f4f1ea" stroke="#111" stroke-width="2.5"/>
      <text x="350" y="48" font-family="'Comic Sans MS','Comic Neue',sans-serif" font-size="11" text-anchor="middle" fill="#111">FIRE</text>
      <path d="M312 26 q6 -6 0 -12 M320 30 q10 -4 0 -20 M312 60 q6 6 0 12 M320 56 q10 4 0 20" fill="none" stroke="#111" stroke-width="1.8" stroke-linecap="round"/>
      <use href="#dailbert" x="150" y="150" width="120" height="170"/>
      <rect x="30" y="150" width="120" height="90" rx="5" fill="#f4f1ea" stroke="#111" stroke-width="2.5"/>
      <rect x="82" y="240" width="16" height="20" fill="#f4f1ea" stroke="#111" stroke-width="2.5"/>
      <rect x="66" y="260" width="48" height="8" rx="2" fill="#f4f1ea" stroke="#111" stroke-width="2.5"/>
      <use href="#clanker" x="48" y="150" width="84" height="84"/>
      <line x1="128" y1="150" x2="150" y2="95" stroke="#111" stroke-width="1.4" stroke-dasharray="4 3"/>
      <rect x="150" y="46" width="212" height="56" rx="3" fill="#f4f1ea" stroke="#111" stroke-width="2"/>
      <text x="256" y="66" font-family="'Comic Sans MS','Comic Neue',sans-serif" font-size="14" text-anchor="middle" fill="#111">This is a fire drill.</text>
      <text x="256" y="84" font-family="'Comic Sans MS','Comic Neue',sans-serif" font-size="14" text-anchor="middle" fill="#111">Please do not exit</text>
      <text x="256" y="100" font-family="'Comic Sans MS','Comic Neue',sans-serif" font-size="14" text-anchor="middle" fill="#111">without approval.</text>
    </g>
  </g>

  <g>
    <rect x="415.5" y="1.5" width="397" height="337" rx="3" fill="#f4f1ea" stroke="#111" stroke-width="3"/>
    <clipPath id="clip2"><rect x="417" y="3" width="394" height="334" rx="3"/></clipPath>
    <g clip-path="url(#clip2)">
      <line x1="417" y1="300" x2="811" y2="300" stroke="#111" stroke-width="2"/>
      <use href="#dailbert" x="452" y="150" width="120" height="170"/>
      <use href="#doug" x="560" y="150" width="120" height="170"/>
      <path d="M470 60 h150 v46 h-70 l-12 14 l-2 -14 h-66 z" fill="#f4f1ea" stroke="#111" stroke-width="2"/>
      <text x="545" y="80" font-family="'Comic Sans MS','Comic Neue',sans-serif" font-size="14" text-anchor="middle" fill="#111">There's an approval</text>
      <text x="545" y="98" font-family="'Comic Sans MS','Comic Neue',sans-serif" font-size="14" text-anchor="middle" fill="#111">form. To evacuate.</text>
      <path d="M636 118 h150 v46 h-40 l-8 14 l-10 -14 h-92 z" fill="#f4f1ea" stroke="#111" stroke-width="2"/>
      <text x="711" y="138" font-family="'Comic Sans MS','Comic Neue',sans-serif" font-size="14" text-anchor="middle" fill="#111">I already submitted</text>
      <text x="711" y="156" font-family="'Comic Sans MS','Comic Neue',sans-serif" font-size="14" text-anchor="middle" fill="#111">mine last drill.</text>
      <rect x="700" y="252" width="34" height="44" rx="2" fill="#f4f1ea" stroke="#111" stroke-width="2"/>
      <line x1="706" y1="262" x2="728" y2="262" stroke="#111" stroke-width="1.4"/>
      <line x1="706" y1="270" x2="728" y2="270" stroke="#111" stroke-width="1.4"/>
      <line x1="706" y1="278" x2="728" y2="278" stroke="#111" stroke-width="1.4"/>
    </g>
  </g>

  <g>
    <rect x="829.5" y="1.5" width="397" height="337" rx="3" fill="#f4f1ea" stroke="#111" stroke-width="3"/>
    <clipPath id="clip3"><rect x="831" y="3" width="394" height="334" rx="3"/></clipPath>
    <g clip-path="url(#clip3)">
      <line x1="831" y1="300" x2="1225" y2="300" stroke="#111" stroke-width="2"/>
      <rect x="1120" y="120" width="90" height="180" fill="#f4f1ea" stroke="#111" stroke-width="2.5"/>
      <rect x="1128" y="128" width="74" height="172" fill="#dedad0" stroke="#111" stroke-width="2"/>
      <line x1="1150" y1="128" x2="1150" y2="300" stroke="#111" stroke-width="1.2"/>
      <line x1="1180" y1="128" x2="1180" y2="300" stroke="#111" stroke-width="1.2"/>
      <rect x="1145" y="92" width="52" height="24" rx="3" fill="#f4f1ea" stroke="#111" stroke-width="2.5"/>
      <text x="1171" y="109" font-family="'Comic Sans MS','Comic Neue',sans-serif" font-size="13" text-anchor="middle" fill="#111">EXIT</text>
      <use href="#priya" x="990" y="150" width="120" height="170"/>
      <use href="#boss" x="850" y="150" width="120" height="170"/>
      <rect x="852" y="140" width="70" height="52" rx="4" fill="#f4f1ea" stroke="#111" stroke-width="2.5"/>
      <use href="#clanker" x="855" y="128" width="64" height="64"/>
      <path d="M1000 44 h150 v44 h-40 l-8 14 l-10 -14 h-92 z" fill="#f4f1ea" stroke="#111" stroke-width="2"/>
      <text x="1075" y="64" font-family="'Comic Sans MS','Comic Neue',sans-serif" font-size="14" text-anchor="middle" fill="#111">The door doesn't</text>
      <text x="1075" y="82" font-family="'Comic Sans MS','Comic Neue',sans-serif" font-size="14" text-anchor="middle" fill="#111">need a form.</text>
      <path d="M846 214 h96 v34 h-40 l-8 12 l-8 -12 h-40 z" fill="#f4f1ea" stroke="#111" stroke-width="2"/>
      <text x="894" y="234" font-family="'Comic Sans MS','Comic Neue',sans-serif" font-size="13" text-anchor="middle" fill="#111">Is that... allowed?</text>
    </g>
  </g>
</svg>