<svg xmlns="http://www.w3.org/2000/svg" viewBox="0 0 1228 340" width="1228" height="340">
  <defs>
    <symbol id="dailbert" viewBox="0 0 120 180">
      <path d="M20 180 L28 110 Q30 96 45 92 L75 92 Q90 96 92 110 L100 180 Z" fill="#f4f1ea" stroke="#111" stroke-width="3" stroke-linejoin="round"/>
      <path d="M50 94 L60 108 L70 94" fill="none" stroke="#111" stroke-width="3"/>
      <path d="M60 108 L55 116 L60 150 L65 116 Z" fill="#111"/>
      <rect x="53" y="80" width="14" height="16" fill="#f4f1ea" stroke="#111" stroke-width="3"/>
      <ellipse cx="60" cy="48" rx="30" ry="34" fill="#f4f1ea" stroke="#111" stroke-width="3"/>
      <path d="M60 15 q11 -8 6 4 q-2 6 -8 1" fill="none" stroke="#111" stroke-width="3"/>
      <path d="M30 48 q-6 3 -1 10" fill="none" stroke="#111" stroke-width="2.5"/>
      <circle cx="49" cy="50" r="10" fill="#fff" stroke="#111" stroke-width="3"/>
      <circle cx="73" cy="50" r="10" fill="#fff" stroke="#111" stroke-width="3"/>
      <line x1="59" y1="50" x2="63" y2="50" stroke="#111" stroke-width="3"/>
      <circle cx="49" cy="51" r="2.5" fill="#111"/>
      <circle cx="73" cy="51" r="2.5" fill="#111"/>
      <path d="M60 56 l-3 8 l4 0" fill="none" stroke="#111" stroke-width="2.5"/>
      <line x1="52" y1="72" x2="68" y2="72" stroke="#111" stroke-width="3" stroke-linecap="round"/>
    </symbol>
    <symbol id="doug" viewBox="0 0 120 180">
      <path d="M16 180 L26 112 Q30 96 46 92 L74 92 Q90 96 94 112 L104 180 Z" fill="#f4f1ea" stroke="#111" stroke-width="3" stroke-linejoin="round"/>
      <path d="M50 94 L60 106 L70 94" fill="none" stroke="#111" stroke-width="3"/>
      <rect x="53" y="80" width="14" height="14" fill="#f4f1ea" stroke="#111" stroke-width="3"/>
      <circle cx="60" cy="46" r="36" fill="#f4f1ea" stroke="#111" stroke-width="3"/>
      <path d="M32 22 q28 -14 56 0" fill="none" stroke="#111" stroke-width="2.5"/>
      <circle cx="48" cy="42" r="3.5" fill="#111"/>
      <circle cx="72" cy="42" r="3.5" fill="#111"/>
      <path d="M42 55 q18 24 36 0" fill="none" stroke="#111" stroke-width="3"/>
    </symbol>
    <symbol id="boss" viewBox="0 0 120 200">
      <path d="M22 200 L28 118 Q32 100 50 96 L70 96 Q88 100 92 118 L98 200 Z" fill="#f4f1ea" stroke="#111" stroke-width="3" stroke-linejoin="round"/>
      <path d="M52 98 L60 120 L68 98" fill="none" stroke="#111" stroke-width="3"/>
      <path d="M46 100 L58 140 M74 100 L62 140" stroke="#111" stroke-width="2.5" fill="none"/>
      <path d="M60 118 L56 126 L60 160 L64 126 Z" fill="#111"/>
      <rect x="53" y="84" width="14" height="14" fill="#f4f1ea" stroke="#111" stroke-width="3"/>
      <ellipse cx="60" cy="54" rx="28" ry="30" fill="#f4f1ea" stroke="#111" stroke-width="3"/>
      <path d="M42 32 L35 3 L54 27 Z" fill="#111"/>
      <path d="M78 32 L85 3 L66 27 Z" fill="#111"/>
      <path d="M34 34 Q60 20 86 34" fill="none" stroke="#111" stroke-width="3"/>
      <circle cx="50" cy="54" r="2" fill="#111"/>
      <circle cx="70" cy="54" r="2" fill="#111"/>
      <line x1="44" y1="48" x2="55" y2="50" stroke="#111" stroke-width="2.5"/>
      <line x1="65" y1="50" x2="76" y2="48" stroke="#111" stroke-width="2.5"/>
      <line x1="52" y1="68" x2="68" y2="68" stroke="#111" stroke-width="3" stroke-linecap="round"/>
    </symbol>
    <symbol id="clanker" viewBox="0 0 100 90">
      <g stroke="#cfd6db" stroke-width="3" stroke-linecap="round" fill="none">
        <line x1="50" y1="8" x2="50" y2="20"/>
        <rect x="20" y="20" width="60" height="54" rx="7"/>
        <line x1="33" y1="60" x2="67" y2="60" stroke-width="2.5"/>
        <line x1="39" y1="55" x2="39" y2="65" stroke-width="2.5"/>
        <line x1="47" y1="55" x2="47" y2="65" stroke-width="2.5"/>
        <line x1="55" y1="55" x2="55" y2="65" stroke-width="2.5"/>
        <line x1="63" y1="55" x2="63" y2="65" stroke-width="2.5"/>
      </g>
      <circle cx="50" cy="6" r="3.5" fill="#cfd6db"/>
      <rect x="30" y="36" width="16" height="8" rx="4" fill="#eaf3ff"/>
      <rect x="54" y="36" width="16" height="8" rx="4" fill="#eaf3ff"/>
    </symbol>
    <clipPath id="cp1"><rect x="1" y="1" width="398" height="338" rx="3"/></clipPath>
    <clipPath id="cp2"><rect x="415" y="1" width="398" height="338" rx="3"/></clipPath>
    <clipPath id="cp3"><rect x="829" y="1" width="398" height="338" rx="3"/></clipPath>
  </defs>

  <rect x="0" y="0" width="1228" height="340" fill="#f4f1ea"/>

  <!-- ================= PANEL 1 ================= -->
  <g clip-path="url(#cp1)">
    <rect x="1" y="1" width="398" height="338" fill="#f4f1ea"/>
    <line x1="2" y1="316" x2="398" y2="316" stroke="#111" stroke-width="1.5" opacity="0.5"/>
    <rect x="150" y="34" width="132" height="86" rx="3" fill="#2f343a" stroke="#111" stroke-width="3"/>
    <line x1="162" y1="110" x2="272" y2="110" stroke="#9aa3ab" stroke-width="2.5"/>
    <rect x="172" y="90" width="14" height="20" fill="#9aa3ab"/>
    <rect x="202" y="76" width="14" height="34" fill="#9aa3ab"/>
    <rect x="232" y="62" width="14" height="48" fill="#9aa3ab"/>
    <path d="M166 104 L268 56" stroke="#c9d0d6" stroke-width="2.5" fill="none"/>
    <path d="M258 54 L270 55 L262 65" fill="none" stroke="#c9d0d6" stroke-width="2.5"/>
    <use href="#boss" x="18" y="110" width="110" height="205"/>
    <path d="M90 200 L122 152 L146 108 L158 114 L134 156 L102 208 Z" fill="#f4f1ea" stroke="#111" stroke-width="3" stroke-linejoin="round"/>
    <circle cx="152" cy="111" r="5" fill="#f4f1ea" stroke="#111" stroke-width="2.5"/>
    <line x1="154" y1="110" x2="168" y2="104" stroke="#111" stroke-width="3" stroke-linecap="round"/>
    <use href="#dailbert" x="196" y="150" width="104" height="160"/>
    <use href="#doug" x="276" y="150" width="108" height="162"/>
    <rect x="160" y="248" width="238" height="12" rx="4" fill="#e9e5dc" stroke="#111" stroke-width="3"/>
    <rect x="168" y="258" width="230" height="52" fill="#f4f1ea" stroke="#111" stroke-width="3"/>
    <rect x="348" y="222" width="26" height="22" rx="3" fill="#fff" stroke="#111" stroke-width="3"/>
    <path d="M374 226 q9 2 0 12" fill="none" stroke="#111" stroke-width="3"/>
    <path d="M70 78 L88 78 L74 104 Z" fill="#fff" stroke="#111" stroke-width="3"/>
    <rect x="22" y="28" width="120" height="52" rx="18" fill="#fff" stroke="#111" stroke-width="3"/>
    <text x="82" y="50" font-family="'Comic Sans MS','Segoe Print',cursive" font-size="14.5" text-anchor="middle" fill="#111">Let's take it
      <tspan x="82" dy="18">from the top.</tspan></text>
    <path d="M328 76 L346 76 L330 100 Z" fill="#fff" stroke="#111" stroke-width="3"/>
    <rect x="298" y="26" width="96" height="52" rx="18" fill="#fff" stroke="#111" stroke-width="3"/>
    <text x="346" y="48" font-family="'Comic Sans MS','Segoe Print',cursive" font-size="13.5" text-anchor="middle" fill="#111">I could do
      <tspan x="346" dy="18">this all day.</tspan></text>
  </g>
  <rect x="1" y="1" width="398" height="338" rx="3" fill="none" stroke="#111" stroke-width="3"/>

  <!-- ================= PANEL 2 ================= -->
  <g clip-path="url(#cp2)">
    <rect x="415" y="1" width="398" height="338" fill="#f4f1ea"/>
    <use href="#dailbert" x="452" y="140" width="118" height="175"/>
    <use href="#doug" x="690" y="150" width="118" height="172"/>
    <rect x="420" y="248" width="390" height="12" rx="4" fill="#e9e5dc" stroke="#111" stroke-width="3"/>
    <rect x="424" y="258" width="386" height="52" fill="#f4f1ea" stroke="#111" stroke-width="3"/>
    <path d="M584 252 L726 252 L714 270 L596 270 Z" fill="#dcdcdc" stroke="#111" stroke-width="3" stroke-linejoin="round"/>
    <line x1="606" y1="261" x2="704" y2="261" stroke="#111" stroke-width="1.5" opacity="0.5"/>
    <rect x="596" y="172" width="118" height="80" rx="3" fill="#2f343a" stroke="#111" stroke-width="3"/>
    <use href="#clanker" x="610" y="175" width="90" height="81"/>
    <rect x="742" y="216" width="26" height="22" rx="3" fill="#fff" stroke="#111" stroke-width="3"/>
    <path d="M768 220 q9 2 0 12" fill="none" stroke="#111" stroke-width="3"/>
    <line x1="518" y1="76" x2="640" y2="172" stroke="#111" stroke-width="1.5" stroke-dasharray="5 4"/>
    <rect x="430" y="24" width="176" height="52" rx="4" fill="#fff" stroke="#111" stroke-width="3"/>
    <rect x="435" y="29" width="166" height="42" rx="2" fill="none" stroke="#111" stroke-width="1"/>
    <text x="518" y="46" font-family="'Comic Sans MS','Segoe Print',cursive" font-size="14" text-anchor="middle" fill="#111">You look tired.
      <tspan x="518" dy="18">I can take your seat.</tspan></text>
    <path d="M500 138 L518 138 L508 162 Z" fill="#fff" stroke="#111" stroke-width="3"/>
    <rect x="436" y="90" width="118" height="50" rx="16" fill="#fff" stroke="#111" stroke-width="3"/>
    <text x="495" y="110" font-family="'Comic Sans MS','Segoe Print',cursive" font-size="14" text-anchor="middle" fill="#111">For the whole
      <tspan x="495" dy="18">meeting?</tspan></text>
  </g>
  <rect x="415" y="1" width="398" height="338" rx="3" fill="none" stroke="#111" stroke-width="3"/>

  <!-- ================= PANEL 3 ================= -->
  <g clip-path="url(#cp3)">
    <rect x="829" y="1" width="398" height="338" fill="#f4f1ea"/>
    <use href="#dailbert" x="846" y="140" width="118" height="175"/>
    <use href="#doug" x="1064" y="150" width="118" height="172"/>
    <rect x="1108" y="182" width="28" height="24" rx="3" fill="#fff" stroke="#111" stroke-width="3"/>
    <path d="M1136 186 q9 2 0 13" fill="none" stroke="#111" stroke-width="3"/>
    <rect x="834" y="248" width="390" height="12" rx="4" fill="#e9e5dc" stroke="#111" stroke-width="3"/>
    <rect x="838" y="258" width="386" height="52" fill="#f4f1ea" stroke="#111" stroke-width="3"/>
    <path d="M974 250 L1116 250 L1104 268 L986 268 Z" fill="#dcdcdc" stroke="#111" stroke-width="3" stroke-linejoin="round"/>
    <line x1="996" y1="259" x2="1094" y2="259" stroke="#111" stroke-width="1.5" opacity="0.5"/>
    <rect x="986" y="170" width="118" height="80" rx="3" fill="#2f343a" stroke="#111" stroke-width="3"/>
    <use href="#clanker" x="1000" y="173" width="90" height="81"/>
    <line x1="975" y1="78" x2="1030" y2="170" stroke="#111" stroke-width="1.5" stroke-dasharray="5 4"/>
    <rect x="900" y="26" width="150" height="52" rx="4" fill="#fff" stroke="#111" stroke-width="3"/>
    <rect x="905" y="31" width="140" height="42" rx="2" fill="none" stroke="#111" stroke-width="1"/>
    <text x="975" y="48" font-family="'Comic Sans MS','Segoe Print',cursive" font-size="14.5" text-anchor="middle" fill="#111">I have the
      <tspan x="975" dy="18">other three.</tspan></text>
  </g>
  <rect x="829" y="1" width="398" height="338" rx="3" fill="none" stroke="#111" stroke-width="3"/>
</svg>