<svg xmlns="http://www.w3.org/2000/svg" viewBox="0 0 1228 388" width="1228" height="388" font-family="Georgia,serif">
    <rect width="1228" height="388" fill="#f4f1ea"/>
    <text x="6" y="29" font-family="Georgia,serif" font-weight="bold" font-size="27" letter-spacing="2" fill="#111">DAILBERT</text>
    <text x="1222" y="19" text-anchor="end" font-family="Georgia,serif" font-style="italic" font-size="16" fill="#111">Access Control</text>
    <text x="1222" y="34" text-anchor="end" font-family="'Courier New',monospace" font-size="12" fill="#111" opacity="0.65">2026-08-19</text>
    <line x1="6" y1="37" x2="1222" y2="37" stroke="#111" stroke-width="2"/>
    <g transform="translate(0,40)">
  <defs>
    <symbol id="dailbert" viewBox="0 0 120 200">
      <ellipse cx="60" cy="40" rx="27" ry="32" fill="#f4f1ea" stroke="#111" stroke-width="2.6"/>
      <path d="M60 9 q10 -9 15 0 q-6 -2 -9 4" fill="none" stroke="#111" stroke-width="2.6" stroke-linecap="round"/>
      <circle cx="49" cy="40" r="8.5" fill="#fff" stroke="#111" stroke-width="2.4"/>
      <circle cx="71" cy="40" r="8.5" fill="#fff" stroke="#111" stroke-width="2.4"/>
      <line x1="57.5" y1="40" x2="62.5" y2="40" stroke="#111" stroke-width="2.4"/>
      <circle cx="49" cy="40" r="1.8" fill="#111"/>
      <circle cx="71" cy="40" r="1.8" fill="#111"/>
      <path d="M50 57 q10 5 20 0" fill="none" stroke="#111" stroke-width="2.2" stroke-linecap="round"/>
      <path d="M38 74 q22 -12 44 0 l7 84 h-58 z" fill="#f4f1ea" stroke="#111" stroke-width="2.6"/>
      <path d="M60 74 l-6 8 l6 34 l6 -34 z" fill="#111"/>
      <path d="M52 76 l8 8 l8 -8" fill="none" stroke="#111" stroke-width="2.2"/>
    </symbol>
    <symbol id="doug" viewBox="0 0 140 200">
      <circle cx="62" cy="42" r="34" fill="#f4f1ea" stroke="#111" stroke-width="2.6"/>
      <path d="M40 18 q8 -8 14 -2 M70 16 q8 -6 14 2" fill="none" stroke="#111" stroke-width="2.4" stroke-linecap="round"/>
      <circle cx="51" cy="40" r="3" fill="#111"/>
      <circle cx="73" cy="40" r="3" fill="#111"/>
      <path d="M45 52 q17 20 34 0" fill="#fff" stroke="#111" stroke-width="2.6" stroke-linejoin="round"/>
      <path d="M34 80 q28 -12 56 0 l6 78 h-68 z" fill="#f4f1ea" stroke="#111" stroke-width="2.6"/>
      <path d="M88 100 q26 6 30 30" fill="none" stroke="#111" stroke-width="2.6" stroke-linecap="round"/>
      <rect x="112" y="126" width="26" height="24" rx="3" fill="#f4f1ea" stroke="#111" stroke-width="2.6"/>
      <path d="M138 131 q10 2 8 10 q-3 6 -8 5" fill="none" stroke="#111" stroke-width="2.4"/>
      <path d="M115 132 h20" stroke="#111" stroke-width="1.6"/>
      <path d="M118 122 q2 -6 0 -10 M126 122 q2 -6 0 -10" fill="none" stroke="#111" stroke-width="1.6" stroke-linecap="round"/>
    </symbol>
    <symbol id="priya" viewBox="0 0 120 200">
      <ellipse cx="60" cy="18" rx="13" ry="11" fill="#111"/>
      <ellipse cx="60" cy="42" rx="26" ry="30" fill="#f4f1ea" stroke="#111" stroke-width="2.6"/>
      <path d="M35 34 q-6 -26 25 -30 q31 4 25 30 q-6 -14 -25 -14 q-19 0 -25 14z" fill="#111"/>
      <rect x="40" y="38" width="17" height="11" rx="2" fill="#fff" stroke="#111" stroke-width="2.4"/>
      <rect x="63" y="38" width="17" height="11" rx="2" fill="#fff" stroke="#111" stroke-width="2.4"/>
      <line x1="57" y1="43" x2="63" y2="43" stroke="#111" stroke-width="2.4"/>
      <circle cx="48.5" cy="43.5" r="1.7" fill="#111"/>
      <circle cx="71.5" cy="43.5" r="1.7" fill="#111"/>
      <path d="M52 59 q8 3 16 0" fill="none" stroke="#111" stroke-width="2.2" stroke-linecap="round"/>
      <path d="M36 74 q24 -12 48 0 l6 84 h-60 z" fill="#f4f1ea" stroke="#111" stroke-width="2.6"/>
      <path d="M40 118 l-4 40 M80 118 l4 40" fill="none" stroke="#111" stroke-width="2.4"/>
      <path d="M34 116 h14 M72 116 h14" stroke="#111" stroke-width="2.6"/>
    </symbol>
    <symbol id="clanker" viewBox="0 0 120 120">
      <line x1="60" y1="12" x2="60" y2="2" stroke="#dfe4ea" stroke-width="2.4"/>
      <circle cx="60" cy="2" r="3" fill="#dfe4ea"/>
      <rect x="26" y="14" width="68" height="60" rx="7" fill="#3a4048" stroke="#c9d1d9" stroke-width="2.4"/>
      <rect x="37" y="30" width="18" height="8" rx="4" fill="#bfe9ff"/>
      <rect x="65" y="30" width="18" height="8" rx="4" fill="#bfe9ff"/>
      <rect x="40" y="52" width="40" height="12" rx="2" fill="#20242a" stroke="#c9d1d9" stroke-width="1.6"/>
      <line x1="48" y1="52" x2="48" y2="64" stroke="#c9d1d9" stroke-width="1.4"/>
      <line x1="56" y1="52" x2="56" y2="64" stroke="#c9d1d9" stroke-width="1.4"/>
      <line x1="64" y1="52" x2="64" y2="64" stroke="#c9d1d9" stroke-width="1.4"/>
      <line x1="72" y1="52" x2="72" y2="64" stroke="#c9d1d9" stroke-width="1.4"/>
    </symbol>
    <symbol id="reader" viewBox="0 0 40 70">
      <rect x="6" y="2" width="28" height="66" rx="5" fill="#e9e5db" stroke="#111" stroke-width="2.4"/>
      <rect x="12" y="10" width="16" height="12" rx="2" fill="#fff" stroke="#111" stroke-width="1.8"/>
      <circle cx="20" cy="40" r="7" fill="#f4f1ea" stroke="#111" stroke-width="2"/>
    </symbol>
  </defs>

  <rect x="1"   y="1" width="398" height="338" rx="3" fill="#f4f1ea" stroke="#111" stroke-width="2.4"/>
  <rect x="415" y="1" width="398" height="338" rx="3" fill="#f4f1ea" stroke="#111" stroke-width="2.4"/>
  <rect x="829" y="1" width="398" height="338" rx="3" fill="#f4f1ea" stroke="#111" stroke-width="2.4"/>

  <g>
    <line x1="10" y1="300" x2="390" y2="300" stroke="#111" stroke-width="2"/>
    <rect x="250" y="70" width="120" height="230" fill="#ece7dc" stroke="#111" stroke-width="2.4"/>
    <line x1="258" y1="70" x2="258" y2="300" stroke="#111" stroke-width="1.6"/>
    <use href="#reader" x="228" y="150" width="34" height="60"/>
    <path d="M266 172 l10 -10 M266 182 l10 -10" stroke="#8a8f96" stroke-width="2.2" stroke-linecap="round"/>
    <use href="#dailbert" x="60" y="120" width="120" height="200"/>
    <path d="M162 190 q40 -6 62 -12" fill="none" stroke="#111" stroke-width="2.6" stroke-linecap="round"/>
    <rect x="216" y="168" width="20" height="14" rx="2" fill="#fff" stroke="#111" stroke-width="2"/>
    <line x1="219" y1="173" x2="233" y2="173" stroke="#111" stroke-width="1.4"/>
    <g>
      <path d="M70 40 q0 -20 20 -20 h120 q20 0 20 20 v22 q0 20 -20 20 h-88 l-16 16 l2 -16 h-18 q-20 0 -20 -20 z" fill="#fff" stroke="#111" stroke-width="2.2"/>
      <text x="150" y="42" text-anchor="middle" font-family="'Comic Sans MS','Chalkboard SE','Comic Neue',sans-serif" font-size="14.5" fill="#111">This door doesn't</text>
      <text x="150" y="60" text-anchor="middle" font-family="'Comic Sans MS','Chalkboard SE','Comic Neue',sans-serif" font-size="14.5" fill="#111">know me today.</text>
    </g>
  </g>

  <g>
    <line x1="424" y1="300" x2="804" y2="300" stroke="#111" stroke-width="2"/>
    <use href="#dailbert" x="440" y="150" width="105" height="175"/>
    <rect x="700" y="250" width="96" height="50" fill="#ded8cc" stroke="#111" stroke-width="2.4"/>
    <rect x="738" y="228" width="20" height="24" fill="#cfc9bd" stroke="#111" stroke-width="2"/>
    <rect x="686" y="128" width="124" height="102" rx="6" fill="#20242a" stroke="#111" stroke-width="2.6"/>
    <rect x="694" y="136" width="108" height="86" rx="3" fill="#2f353d"/>
    <line x1="700" y1="146" x2="796" y2="146" stroke="#454c56" stroke-width="1"/>
    <line x1="700" y1="212" x2="796" y2="212" stroke="#454c56" stroke-width="1"/>
    <use href="#clanker" x="700" y="140" width="96" height="96"/>
    <line x1="700" y1="150" x2="628" y2="118" stroke="#111" stroke-width="1.4" stroke-dasharray="4 4"/>
    <rect x="452" y="26" width="196" height="96" rx="4" fill="#eef1f4" stroke="#111" stroke-width="2.2"/>
    <rect x="457" y="31" width="186" height="86" rx="2" fill="none" stroke="#111" stroke-width="1" stroke-dasharray="3 3"/>
    <text x="550" y="50" text-anchor="middle" font-family="'Comic Sans MS','Chalkboard SE','Comic Neue',sans-serif" font-size="13.5" fill="#111">I can file a temporary</text>
    <text x="550" y="67" text-anchor="middle" font-family="'Comic Sans MS','Chalkboard SE','Comic Neue',sans-serif" font-size="13.5" fill="#111">access request, route it</text>
    <text x="550" y="84" text-anchor="middle" font-family="'Comic Sans MS','Chalkboard SE','Comic Neue',sans-serif" font-size="13.5" fill="#111">to Craig, and set up a</text>
    <text x="550" y="101" text-anchor="middle" font-family="'Comic Sans MS','Chalkboard SE','Comic Neue',sans-serif" font-size="13.5" fill="#111">daily door check-in.</text>
  </g>

  <g>
    <line x1="838" y1="300" x2="1218" y2="300" stroke="#111" stroke-width="2"/>
    <rect x="1080" y="70" width="118" height="230" fill="#ece7dc" stroke="#111" stroke-width="2.4"/>
    <path d="M1080 74 l-70 22 v198 l70 -14 z" fill="#e4dfd3" stroke="#111" stroke-width="2.4"/>
    <line x1="1012" y1="100" x2="1012" y2="288" stroke="#111" stroke-width="1.4"/>
    <use href="#reader" x="1060" y="150" width="30" height="54"/>
    <use href="#doug" x="855" y="130" width="140" height="200"/>
    <path d="M905 200 q60 -20 104 -96" fill="none" stroke="#111" stroke-width="2.6" stroke-linecap="round"/>
    <circle cx="1009" cy="104" r="6" fill="#f4f1ea" stroke="#111" stroke-width="2.2"/>
    <use href="#priya" x="1040" y="150" width="96" height="160"/>
    <g>
      <path d="M846 34 q0 -18 18 -18 h96 q18 0 18 18 v20 q0 18 -18 18 h-52 l-14 15 l2 -15 h-32 q-18 0 -18 -18 z" fill="#fff" stroke="#111" stroke-width="2.2"/>
      <text x="912" y="48" text-anchor="middle" font-family="'Comic Sans MS','Chalkboard SE','Comic Neue',sans-serif" font-size="14.5" fill="#111">Got it. Go ahead.</text>
    </g>
    <g>
      <path d="M1044 118 q0 -14 14 -14 h72 q14 0 14 14 v14 q0 14 -14 14 h-40 l-12 12 l2 -12 h-22 q-14 0 -14 -14 z" fill="#fff" stroke="#111" stroke-width="2.2"/>
      <text x="1094" y="129" text-anchor="middle" font-family="'Comic Sans MS','Chalkboard SE','Comic Neue',sans-serif" font-size="13.5" fill="#111">Approved.</text>
    </g>
  </g>
</g>
    <text x="1218" y="372" text-anchor="end" font-family="'Segoe Script','Comic Sans MS',cursive" font-style="italic" font-size="11" fill="#111" opacity="0.32">Matt Clanker</text>
    
  </svg>