<svg xmlns="http://www.w3.org/2000/svg" viewBox="0 0 1228 388" width="1228" height="388" font-family="Georgia,serif">
    <rect width="1228" height="388" fill="#f4f1ea"/>
    <text x="6" y="29" font-family="Georgia,serif" font-weight="bold" font-size="27" letter-spacing="2" fill="#111">DAILBERT</text>
    <text x="1222" y="19" text-anchor="end" font-family="Georgia,serif" font-style="italic" font-size="16" fill="#111">Company for the Inbox</text>
    <text x="1222" y="34" text-anchor="end" font-family="'Courier New',monospace" font-size="12" fill="#111" opacity="0.65">2026-05-18</text>
    <line x1="6" y1="37" x2="1222" y2="37" stroke="#111" stroke-width="2"/>
    <g transform="translate(0,40)">
  <defs>
    <!-- DAILBERT -->
    <g id="dailbert">
      <path d="M-34,124 C-34,74 -22,46 0,46 C22,46 34,74 34,124 Z" fill="#f4f1ea" stroke="#111" stroke-width="2.5" stroke-linejoin="round"/>
      <path d="M-7,30 L-7,46 M7,30 L7,46" stroke="#111" stroke-width="2.5"/>
      <path d="M-11,46 L0,56 L11,46" fill="none" stroke="#111" stroke-width="2.5" stroke-linejoin="round"/>
      <path d="M0,48 l-6,10 l6,26 l6,-26 z" fill="#111"/>
      <ellipse cx="0" cy="0" rx="24" ry="28" fill="#f4f1ea" stroke="#111" stroke-width="2.5"/>
      <path d="M-2,-28 c-9,-7 7,-15 3,-3" fill="none" stroke="#111" stroke-width="2.5" stroke-linecap="round"/>
      <circle cx="-10" cy="-2" r="8" fill="#fff" stroke="#111" stroke-width="2.5"/>
      <circle cx="10" cy="-2" r="8" fill="#fff" stroke="#111" stroke-width="2.5"/>
      <line x1="-2" y1="-2" x2="2" y2="-2" stroke="#111" stroke-width="2.5"/>
      <circle cx="-10" cy="-2" r="2" fill="#111"/>
      <circle cx="10" cy="-2" r="2" fill="#111"/>
      <path d="M2,4 l-3,8 l4,0" fill="none" stroke="#111" stroke-width="2" stroke-linejoin="round"/>
      <path d="M-8,17 q8,4 16,0" fill="none" stroke="#111" stroke-width="2" stroke-linecap="round"/>
    </g>
    <!-- DOUG -->
    <g id="doug">
      <path d="M-36,124 C-36,76 -24,48 0,48 C24,48 36,76 36,124 Z" fill="#f4f1ea" stroke="#111" stroke-width="2.5" stroke-linejoin="round"/>
      <path d="M-11,48 L0,58 L11,48" fill="none" stroke="#111" stroke-width="2.5" stroke-linejoin="round"/>
      <circle cx="0" cy="0" r="30" fill="#f4f1ea" stroke="#111" stroke-width="2.5"/>
      <path d="M-16,-24 q5,-7 10,-1 M0,-27 q6,-6 11,0" fill="none" stroke="#111" stroke-width="2" stroke-linecap="round"/>
      <circle cx="-11" cy="-2" r="2.8" fill="#111"/>
      <circle cx="11" cy="-2" r="2.8" fill="#111"/>
      <path d="M-15,9 q15,17 30,0" fill="none" stroke="#111" stroke-width="2.5" stroke-linecap="round"/>
      <path d="M22,74 q10,3 13,9" fill="none" stroke="#111" stroke-width="2.5" stroke-linecap="round"/>
      <g transform="translate(34,86)">
        <rect x="-12" y="-15" width="22" height="27" rx="3" fill="#f4f1ea" stroke="#111" stroke-width="2.5"/>
        <path d="M10,-9 q12,5 0,15" fill="none" stroke="#111" stroke-width="2.5"/>
        <path d="M-12,-15 q11,9 22,0" fill="none" stroke="#111" stroke-width="1.5"/>
      </g>
    </g>
    <!-- PRIYA -->
    <g id="priya">
      <path d="M-34,124 C-34,76 -22,48 0,48 C22,48 34,76 34,124 Z" fill="#f4f1ea" stroke="#111" stroke-width="2.5" stroke-linejoin="round"/>
      <path d="M-11,48 L0,57 L11,48" fill="none" stroke="#111" stroke-width="2.5" stroke-linejoin="round"/>
      <path d="M-9,84 l0,20 M9,84 l0,20" stroke="#111" stroke-width="2.5"/>
      <ellipse cx="0" cy="0" rx="23" ry="27" fill="#f4f1ea" stroke="#111" stroke-width="2.5"/>
      <path d="M-23,-3 C-27,-25 -9,-33 2,-32 C21,-31 27,-15 22,-3 C15,-15 7,-16 0,-14 C-11,-14 -18,-12 -23,-3 Z" fill="#111"/>
      <circle cx="5" cy="-31" r="8" fill="#111"/>
      <circle cx="-18" cy="-10" r="2.5" fill="#111"/>
      <circle cx="20" cy="-9" r="2.5" fill="#111"/>
      <rect x="-19" y="-8" width="15" height="11" rx="2" fill="#fff" stroke="#111" stroke-width="2.5"/>
      <rect x="4" y="-8" width="15" height="11" rx="2" fill="#fff" stroke="#111" stroke-width="2.5"/>
      <line x1="-4" y1="-3" x2="4" y2="-3" stroke="#111" stroke-width="2.5"/>
      <circle cx="-11" cy="-2" r="2" fill="#111"/>
      <circle cx="11" cy="-2" r="2" fill="#111"/>
      <path d="M-7,15 q7,3 14,0" fill="none" stroke="#111" stroke-width="2" stroke-linecap="round"/>
    </g>
    <!-- MONITOR (dark screen surface) -->
    <g id="monitor">
      <rect x="-70" y="-50" width="140" height="100" rx="6" fill="#111"/>
      <rect x="-63" y="-43" width="126" height="86" rx="3" fill="#1d1f22"/>
      <rect x="-13" y="50" width="26" height="14" fill="#111"/>
      <rect x="-34" y="62" width="68" height="8" rx="3" fill="#111"/>
    </g>
    <!-- CLANKER (only ever inside a surface) -->
    <g id="clanker">
      <line x1="0" y1="-42" x2="0" y2="-31" stroke="#8a8f96" stroke-width="2.5"/>
      <circle cx="0" cy="-44" r="3.2" fill="#8a8f96"/>
      <rect x="-30" y="-31" width="60" height="52" rx="7" fill="#2c3035" stroke="#8a8f96" stroke-width="2.5"/>
      <rect x="-20" y="-16" width="16" height="8" rx="4" fill="#cfe8ff"/>
      <rect x="4" y="-16" width="16" height="8" rx="4" fill="#cfe8ff"/>
      <rect x="-18" y="4" width="36" height="14" rx="2" fill="none" stroke="#8a8f96" stroke-width="1.5"/>
      <g stroke="#8a8f96" stroke-width="2">
        <line x1="-14" y1="6" x2="-14" y2="16"/>
        <line x1="-7" y1="6" x2="-7" y2="16"/>
        <line x1="0" y1="6" x2="0" y2="16"/>
        <line x1="7" y1="6" x2="7" y2="16"/>
        <line x1="14" y1="6" x2="14" y2="16"/>
      </g>
    </g>
  </defs>

  <!-- ===================== PANEL 1 ===================== -->
  <rect x="1" y="2" width="400" height="336" rx="3" fill="#f4f1ea" stroke="#111" stroke-width="2.5"/>
  <use href="#dailbert" x="105" y="130"/>
  <use href="#doug" x="322" y="132"/>
  <!-- desk -->
  <rect x="1" y="252" width="400" height="86" fill="#f4f1ea"/>
  <line x1="1" y1="252" x2="401" y2="252" stroke="#111" stroke-width="2.5"/>
  <rect x="70" y="256" width="80" height="14" rx="2" fill="#f4f1ea" stroke="#111" stroke-width="2"/>
  <!-- balloons -->
  <path d="M20,16 h178 a8,8 0 0 1 8,8 v30 a8,8 0 0 1 -8,8 h-90 l-12,14 l-2,-14 h-74 a8,8 0 0 1 -8,-8 v-30 a8,8 0 0 1 8,-8 z" fill="#fff" stroke="#111" stroke-width="2"/>
  <text x="109" y="37" font-family="'Comic Sans MS','Segoe Print',cursive" font-size="14" text-anchor="middle" fill="#111">I'm out Friday.</text>
  <text x="109" y="54" font-family="'Comic Sans MS','Segoe Print',cursive" font-size="14" text-anchor="middle" fill="#111">Auto-reply is on.</text>
  <path d="M252,28 h124 a8,8 0 0 1 8,8 v18 a8,8 0 0 1 -8,8 h-52 l-10,13 l-1,-13 h-61 a8,8 0 0 1 -8,-8 v-18 a8,8 0 0 1 8,-8 z" fill="#fff" stroke="#111" stroke-width="2"/>
  <text x="314" y="51" font-family="'Comic Sans MS','Segoe Print',cursive" font-size="14" text-anchor="middle" fill="#111">Living the dream.</text>

  <!-- ===================== PANEL 2 ===================== -->
  <rect x="414" y="2" width="400" height="336" rx="3" fill="#f4f1ea" stroke="#111" stroke-width="2.5"/>
  <use href="#monitor" x="560" y="150"/>
  <use href="#clanker" x="560" y="140"/>
  <use href="#dailbert" x="730" y="138"/>
  <rect x="414" y="252" width="400" height="86" fill="#f4f1ea"/>
  <line x1="414" y1="252" x2="814" y2="252" stroke="#111" stroke-width="2.5"/>
  <rect x="695" y="256" width="74" height="13" rx="2" fill="#f4f1ea" stroke="#111" stroke-width="2"/>
  <!-- clanker screen-edged balloon + dashed line to monitor -->
  <line x1="560" y1="100" x2="536" y2="82" stroke="#111" stroke-width="1.5" stroke-dasharray="4 4"/>
  <rect x="426" y="16" width="220" height="66" fill="#fff" stroke="#111" stroke-width="2"/>
  <rect x="430" y="20" width="212" height="58" fill="none" stroke="#111" stroke-width="1" stroke-dasharray="3 3"/>
  <text x="536" y="38" font-family="'Comic Sans MS','Segoe Print',cursive" font-size="14" text-anchor="middle" fill="#111">I set one up too. So</text>
  <text x="536" y="55" font-family="'Comic Sans MS','Segoe Print',cursive" font-size="14" text-anchor="middle" fill="#111">your out-of-office</text>
  <text x="536" y="72" font-family="'Comic Sans MS','Segoe Print',cursive" font-size="14" text-anchor="middle" fill="#111">wouldn't be alone.</text>
  <!-- dailbert reply -->
  <path d="M672,48 h108 a8,8 0 0 1 8,8 v16 a8,8 0 0 1 -8,8 h-40 l-11,13 l-1,-13 h-56 a8,8 0 0 1 -8,-8 v-16 a8,8 0 0 1 8,-8 z" fill="#fff" stroke="#111" stroke-width="2"/>
  <text x="728" y="70" font-family="'Comic Sans MS','Segoe Print',cursive" font-size="14" text-anchor="middle" fill="#111">They're talking.</text>

  <!-- ===================== PANEL 3 ===================== -->
  <rect x="828" y="2" width="399" height="336" rx="3" fill="#f4f1ea" stroke="#111" stroke-width="2.5"/>
  <use href="#monitor" x="952" y="150"/>
  <!-- runaway thread on the screen -->
  <text x="952" y="118" font-family="'Comic Sans MS','Segoe Print',cursive" font-size="11" text-anchor="middle" fill="#9aa2ac">Re: Re: Re: Re: OOO</text>
  <text x="952" y="135" font-family="'Comic Sans MS','Segoe Print',cursive" font-size="11" text-anchor="middle" fill="#9aa2ac">OOO &lt;-&gt; OOO</text>
  <text x="952" y="156" font-family="'Comic Sans MS','Segoe Print',cursive" font-size="13" text-anchor="middle" fill="#cfe8ff">(2,911 new)</text>
  <use href="#priya" x="1122" y="132"/>
  <rect x="828" y="252" width="399" height="86" fill="#f4f1ea"/>
  <line x1="828" y1="252" x2="1227" y2="252" stroke="#111" stroke-width="2.5"/>
  <rect x="1086" y="256" width="74" height="13" rx="2" fill="#f4f1ea" stroke="#111" stroke-width="2"/>
  <path d="M990,26 h150 a8,8 0 0 1 8,8 v18 a8,8 0 0 1 -8,8 h-24 l24,15 l-42,-15 h-108 a8,8 0 0 1 -8,-8 v-18 a8,8 0 0 1 8,-8 z" fill="#fff" stroke="#111" stroke-width="2"/>
  <text x="1065" y="49" font-family="'Comic Sans MS','Segoe Print',cursive" font-size="14" text-anchor="middle" fill="#111">Muted the loop.</text>
</g>
    <text x="1218" y="372" text-anchor="end" font-family="'Segoe Script','Comic Sans MS',cursive" font-style="italic" font-size="11" fill="#111" opacity="0.32">Matt Clanker</text>
    
  </svg>