<svg xmlns="http://www.w3.org/2000/svg" viewBox="0 0 1228 388" width="1228" height="388" font-family="Georgia,serif">
    <rect width="1228" height="388" fill="#f4f1ea"/>
    <text x="4" y="26" font-family="Georgia,serif" font-weight="bold" font-size="22" fill="#111">Synergy, Revisited</text>
    <text x="1224" y="26" text-anchor="end" font-family="'Courier New',monospace" font-size="14" fill="#111" opacity="0.7">2026-07-24</text>
    <line x1="4" y1="34" x2="1224" y2="34" stroke="#111" stroke-width="2"/>
    <g transform="translate(0,40)">
    
  <defs>
    <pattern id="halftone" width="6" height="6" patternUnits="userSpaceOnUse">
      <rect width="6" height="6" fill="#f4f1ea"/>
      <circle cx="3" cy="3" r="1.1" fill="#111"/>
    </pattern>
    <pattern id="scan" width="4" height="4" patternUnits="userSpaceOnUse">
      <rect width="4" height="4" fill="none"/>
      <line x1="0" y1="0" x2="4" y2="0" stroke="#111" stroke-width="0.6" opacity="0.5"/>
    </pattern>
    <pattern id="hatch" width="7" height="7" patternUnits="userSpaceOnUse" patternTransform="rotate(45)">
      <line x1="0" y1="0" x2="0" y2="7" stroke="#111" stroke-width="1"/>
    </pattern>
  </defs>
    <rect x="1.5" y="1.5" width="397" height="337" fill="#f4f1ea" stroke="#111" stroke-width="3"/>
    <line x1="16" y1="302" x2="384" y2="302" stroke="#111" stroke-width="1.4" opacity="0.35"/><g transform="translate(90,342) scale(0.62) translate(-90,-342)"><g data-who="boss">
    <path d="M 16 342 Q 18 246 50 226 L 130 226 Q 162 246 164 342 Z" fill="#f4f1ea" stroke="#111" stroke-width="3" stroke-linecap="round" stroke-linejoin="round"/>
    <!-- lapels -->
    <path d="M 70 228 L 84 264 L 60 282" fill="none" stroke="#111" stroke-width="2.5" stroke-linecap="round" stroke-linejoin="round"/>
    <path d="M 110 228 L 96 264 L 120 282" fill="none" stroke="#111" stroke-width="2.5" stroke-linecap="round" stroke-linejoin="round"/>
    <path d="M 84 242 L 96 242 L 98 276 L 90 284 L 82 276 Z" fill="#111" stroke="none"/>
    
    <path d="M 30 246 q -40 -6 -60 -44" fill="none" stroke="#111" stroke-width="3" stroke-linecap="round" stroke-linejoin="round"/>
    <path d="M 150 246 q 40 -6 60 -44" fill="none" stroke="#111" stroke-width="3" stroke-linecap="round" stroke-linejoin="round"/>
    <circle cx="-32" cy="200" r="7" fill="#f4f1ea" stroke="#111" stroke-width="2.5" stroke-linecap="round" stroke-linejoin="round"/>
    <circle cx="212" cy="200" r="7" fill="#f4f1ea" stroke="#111" stroke-width="2.5" stroke-linecap="round" stroke-linejoin="round"/>
    <rect x="80" y="170" width="20" height="62" fill="#f4f1ea" stroke="#111" stroke-width="2.5" stroke-linecap="round" stroke-linejoin="round"/>
    <ellipse cx="90" cy="140" rx="35" ry="40" fill="#f4f1ea" stroke="#111" stroke-width="3" stroke-linecap="round" stroke-linejoin="round"/>
    <!-- THE pointy hair -->
    <path d="M 60 110 L 44 66 L 82 100 Z" fill="#111" stroke="none"/>
    <path d="M 94 100 L 136 66 L 120 110 Z" fill="#111" stroke="none"/>
    <!-- tiny close eyes -->
    <circle cx="80" cy="138" r="2.4" fill="#111"/>
    <circle cx="100" cy="138" r="2.4" fill="#111"/>
    <line x1="72" y1="128" x2="86" y2="130" stroke="#111" stroke-width="2"/>
    <line x1="94" y1="130" x2="108" y2="128" stroke="#111" stroke-width="2"/>
    <path d="M 90 142 q 4 6 -2 9" fill="none" stroke="#111" stroke-width="2" stroke-linecap="round" stroke-linejoin="round"/>
    <path d="M 74 158 Q 90 176 106 158 Z" fill="#f4f1ea" stroke="#111" stroke-width="2.5" stroke-linecap="round" stroke-linejoin="round"/><line x1="78" y1="162" x2="102" y2="162" stroke="#111" stroke-width="1.5"/></g></g><g transform="translate(310,342) scale(0.62) translate(-310,-342)"><g data-who="dailbert">
    <!-- shoulders / shirt -->
    <path d="M 232 342 Q 236 246 270 224 L 350 224 Q 384 246 388 342 Z" fill="#f4f1ea" stroke="#111" stroke-width="3" stroke-linecap="round" stroke-linejoin="round"/>
    <!-- collar -->
    <path d="M 288 226 L 310 246 L 332 226" fill="none" stroke="#111" stroke-width="2.5" stroke-linecap="round" stroke-linejoin="round"/>
    <!-- tie -->
    <path d="M 304 240 L 316 240 L 320 282 L 310 294 L 300 282 Z" fill="#111" stroke="none"/>
    <path d="M 304 240 L 310 250 L 316 240" fill="none" stroke="#f4f1ea" stroke-width="2" stroke-linecap="round"/>
    <!-- neck (bridges chin to shoulders) -->
    <rect x="299" y="168" width="22" height="66" fill="#f4f1ea" stroke="#111" stroke-width="2.5" stroke-linecap="round" stroke-linejoin="round"/>
    <!-- head -->
    <ellipse cx="310" cy="140" rx="37" ry="43" fill="#f4f1ea" stroke="#111" stroke-width="3" stroke-linecap="round" stroke-linejoin="round"/>
    <!-- ears -->
    <circle cx="273" cy="142" r="5" fill="#f4f1ea" stroke="#111" stroke-width="2.5" stroke-linecap="round" stroke-linejoin="round"/>
    <circle cx="347" cy="142" r="5" fill="#f4f1ea" stroke="#111" stroke-width="2.5" stroke-linecap="round" stroke-linejoin="round"/>
    <!-- side hair tufts + one curl -->
    <path d="M 276 120 Q 268 134 274 146" fill="none" stroke="#111" stroke-width="2.5" stroke-linecap="round" stroke-linejoin="round"/>
    <path d="M 344 120 Q 352 134 346 146" fill="none" stroke="#111" stroke-width="2.5" stroke-linecap="round" stroke-linejoin="round"/>
    <path d="M 304 100 q 6 -14 16 -8 q 8 5 2 12" fill="none" stroke="#111" stroke-width="2.5" stroke-linecap="round" stroke-linejoin="round"/>
    <!-- glasses -->
    <circle cx="295" cy="136" r="13" fill="#f4f1ea" stroke="#111" stroke-width="2.5" stroke-linecap="round" stroke-linejoin="round"/>
    <circle cx="325" cy="136" r="13" fill="#f4f1ea" stroke="#111" stroke-width="2.5" stroke-linecap="round" stroke-linejoin="round"/>
    <line x1="308" y1="136" x2="312" y2="136" stroke="#111" stroke-width="2.5"/>
    <!-- eyes -->
    <circle cx="295" cy="136" r="2.6" fill="#111"/>
    <circle cx="325" cy="136" r="2.6" fill="#111"/>
    <!-- nose -->
    <path d="M 310 144 q 4 6 -2 9" fill="none" stroke="#111" stroke-width="2" stroke-linecap="round" stroke-linejoin="round"/>
    <line x1="299" y1="164" x2="321" y2="164" stroke="#111" stroke-width="2.5"/></g></g><g data-balloon="speech"><path d="M 80 89 L 90 195.68 L 100 89 Z" fill="#f4f1ea" stroke="#111" stroke-width="2.5" stroke-linecap="round" stroke-linejoin="round"/><rect x="18" y="10" width="204.4" height="81" rx="16" fill="#f4f1ea" stroke="#111" stroke-width="2.5" stroke-linecap="round" stroke-linejoin="round"/><text x="120.2" y="36" text-anchor="middle" font-family="'Comic Sans MS','Segoe Print',cursive" font-size="14.5" fill="#111">Dailbert! Are the ten</text><text x="120.2" y="55" text-anchor="middle" font-family="'Comic Sans MS','Segoe Print',cursive" font-size="14.5" fill="#111">agents synergizing</text><text x="120.2" y="74" text-anchor="middle" font-family="'Comic Sans MS','Segoe Print',cursive" font-size="14.5" fill="#111">yet?</text></g><g data-balloon="speech"><path d="M 300 178 L 310 195.68 L 320 178 Z" fill="#f4f1ea" stroke="#111" stroke-width="2.5" stroke-linecap="round" stroke-linejoin="round"/><rect x="194.39999999999998" y="99" width="187.6" height="81" rx="16" fill="#f4f1ea" stroke="#111" stroke-width="2.5" stroke-linecap="round" stroke-linejoin="round"/><text x="288.2" y="125" text-anchor="middle" font-family="'Comic Sans MS','Segoe Print',cursive" font-size="14.5" fill="#111">There was only ever</text><text x="288.2" y="144" text-anchor="middle" font-family="'Comic Sans MS','Segoe Print',cursive" font-size="14.5" fill="#111">one. I named it ten</text><text x="288.2" y="163" text-anchor="middle" font-family="'Comic Sans MS','Segoe Print',cursive" font-size="14.5" fill="#111">times.</text></g>
    <text x="392" y="332" text-anchor="end" font-family="Georgia,serif" font-size="11" fill="#111" opacity="0.4">1</text>
  </g><g transform="translate(414,40)">
    
  <defs>
    <pattern id="halftone" width="6" height="6" patternUnits="userSpaceOnUse">
      <rect width="6" height="6" fill="#f4f1ea"/>
      <circle cx="3" cy="3" r="1.1" fill="#111"/>
    </pattern>
    <pattern id="scan" width="4" height="4" patternUnits="userSpaceOnUse">
      <rect width="4" height="4" fill="none"/>
      <line x1="0" y1="0" x2="4" y2="0" stroke="#111" stroke-width="0.6" opacity="0.5"/>
    </pattern>
    <pattern id="hatch" width="7" height="7" patternUnits="userSpaceOnUse" patternTransform="rotate(45)">
      <line x1="0" y1="0" x2="0" y2="7" stroke="#111" stroke-width="1"/>
    </pattern>
  </defs>
    <rect x="1.5" y="1.5" width="397" height="337" fill="#f4f1ea" stroke="#111" stroke-width="3"/>
    <line x1="16" y1="302" x2="384" y2="302" stroke="#111" stroke-width="1.4" opacity="0.35"/><g transform="translate(90,342) scale(0.62) translate(-90,-342)"><g data-who="boss">
    <path d="M 16 342 Q 18 246 50 226 L 130 226 Q 162 246 164 342 Z" fill="#f4f1ea" stroke="#111" stroke-width="3" stroke-linecap="round" stroke-linejoin="round"/>
    <!-- lapels -->
    <path d="M 70 228 L 84 264 L 60 282" fill="none" stroke="#111" stroke-width="2.5" stroke-linecap="round" stroke-linejoin="round"/>
    <path d="M 110 228 L 96 264 L 120 282" fill="none" stroke="#111" stroke-width="2.5" stroke-linecap="round" stroke-linejoin="round"/>
    <path d="M 84 242 L 96 242 L 98 276 L 90 284 L 82 276 Z" fill="#111" stroke="none"/>
    
    <path d="M 30 246 q -40 -6 -60 -44" fill="none" stroke="#111" stroke-width="3" stroke-linecap="round" stroke-linejoin="round"/>
    <path d="M 150 246 q 40 -6 60 -44" fill="none" stroke="#111" stroke-width="3" stroke-linecap="round" stroke-linejoin="round"/>
    <circle cx="-32" cy="200" r="7" fill="#f4f1ea" stroke="#111" stroke-width="2.5" stroke-linecap="round" stroke-linejoin="round"/>
    <circle cx="212" cy="200" r="7" fill="#f4f1ea" stroke="#111" stroke-width="2.5" stroke-linecap="round" stroke-linejoin="round"/>
    <rect x="80" y="170" width="20" height="62" fill="#f4f1ea" stroke="#111" stroke-width="2.5" stroke-linecap="round" stroke-linejoin="round"/>
    <ellipse cx="90" cy="140" rx="35" ry="40" fill="#f4f1ea" stroke="#111" stroke-width="3" stroke-linecap="round" stroke-linejoin="round"/>
    <!-- THE pointy hair -->
    <path d="M 60 110 L 44 66 L 82 100 Z" fill="#111" stroke="none"/>
    <path d="M 94 100 L 136 66 L 120 110 Z" fill="#111" stroke="none"/>
    <!-- tiny close eyes -->
    <circle cx="80" cy="138" r="2.4" fill="#111"/>
    <circle cx="100" cy="138" r="2.4" fill="#111"/>
    <line x1="72" y1="128" x2="86" y2="130" stroke="#111" stroke-width="2"/>
    <line x1="94" y1="130" x2="108" y2="128" stroke="#111" stroke-width="2"/>
    <path d="M 90 142 q 4 6 -2 9" fill="none" stroke="#111" stroke-width="2" stroke-linecap="round" stroke-linejoin="round"/>
    <path d="M 74 158 Q 90 176 106 158 Z" fill="#f4f1ea" stroke="#111" stroke-width="2.5" stroke-linecap="round" stroke-linejoin="round"/><line x1="78" y1="162" x2="102" y2="162" stroke="#111" stroke-width="1.5"/></g></g><g transform="translate(310,342) scale(0.62) translate(-310,-342)"><g data-who="dailbert">
    <!-- shoulders / shirt -->
    <path d="M 232 342 Q 236 246 270 224 L 350 224 Q 384 246 388 342 Z" fill="#f4f1ea" stroke="#111" stroke-width="3" stroke-linecap="round" stroke-linejoin="round"/>
    <!-- collar -->
    <path d="M 288 226 L 310 246 L 332 226" fill="none" stroke="#111" stroke-width="2.5" stroke-linecap="round" stroke-linejoin="round"/>
    <!-- tie -->
    <path d="M 304 240 L 316 240 L 320 282 L 310 294 L 300 282 Z" fill="#111" stroke="none"/>
    <path d="M 304 240 L 310 250 L 316 240" fill="none" stroke="#f4f1ea" stroke-width="2" stroke-linecap="round"/>
    <!-- neck (bridges chin to shoulders) -->
    <rect x="299" y="168" width="22" height="66" fill="#f4f1ea" stroke="#111" stroke-width="2.5" stroke-linecap="round" stroke-linejoin="round"/>
    <!-- head -->
    <ellipse cx="310" cy="140" rx="37" ry="43" fill="#f4f1ea" stroke="#111" stroke-width="3" stroke-linecap="round" stroke-linejoin="round"/>
    <!-- ears -->
    <circle cx="273" cy="142" r="5" fill="#f4f1ea" stroke="#111" stroke-width="2.5" stroke-linecap="round" stroke-linejoin="round"/>
    <circle cx="347" cy="142" r="5" fill="#f4f1ea" stroke="#111" stroke-width="2.5" stroke-linecap="round" stroke-linejoin="round"/>
    <!-- side hair tufts + one curl -->
    <path d="M 276 120 Q 268 134 274 146" fill="none" stroke="#111" stroke-width="2.5" stroke-linecap="round" stroke-linejoin="round"/>
    <path d="M 344 120 Q 352 134 346 146" fill="none" stroke="#111" stroke-width="2.5" stroke-linecap="round" stroke-linejoin="round"/>
    <path d="M 304 100 q 6 -14 16 -8 q 8 5 2 12" fill="none" stroke="#111" stroke-width="2.5" stroke-linecap="round" stroke-linejoin="round"/>
    <!-- glasses -->
    <circle cx="295" cy="136" r="13" fill="#f4f1ea" stroke="#111" stroke-width="2.5" stroke-linecap="round" stroke-linejoin="round"/>
    <circle cx="325" cy="136" r="13" fill="#f4f1ea" stroke="#111" stroke-width="2.5" stroke-linecap="round" stroke-linejoin="round"/>
    <line x1="308" y1="136" x2="312" y2="136" stroke="#111" stroke-width="2.5"/>
    <!-- eyes -->
    <circle cx="295" cy="136" r="2.6" fill="#111"/>
    <circle cx="325" cy="136" r="2.6" fill="#111"/>
    <!-- nose -->
    <path d="M 310 144 q 4 6 -2 9" fill="none" stroke="#111" stroke-width="2" stroke-linecap="round" stroke-linejoin="round"/>
    <line x1="299" y1="164" x2="321" y2="164" stroke="#111" stroke-width="2.5"/></g></g><g transform="translate(90,342) scale(0.62) translate(-90,-342)"><g data-surface="glasses"><g opacity="0.9"><g >
    <!-- antenna -->
    <line x1="90" y1="129" x2="90" y2="126" stroke="#111" stroke-width="0.75"/>
    <circle cx="90" cy="125.1" r="1.05" fill="#111"/>
    <!-- head: angular chrome -->
    <path d="M 81,129.6 L 99,129.6 L 100.2,141 L 96.6,145.8 L 83.4,145.8 L 79.8,141 Z" fill="#f4f1ea" stroke="#111" stroke-width="0.8999999999999999" stroke-linecap="round" stroke-linejoin="round"/>
    <!-- side bolts -->
    <circle cx="81" cy="136.2" r="0.75" fill="#111"/>
    <circle cx="99" cy="136.2" r="0.75" fill="#111"/>
    <!-- brow ridge -->
    <line x1="82.2" y1="133.2" x2="97.8" y2="133.2" stroke="#111" stroke-width="0.6"/>
    <!-- glowing slot eyes -->
    <rect x="84" y="135.9" width="5.3999999999999995" height="1.2" rx="0.6" fill="#111"/>
    <rect x="90.6" y="135.9" width="5.3999999999999995" height="1.2" rx="0.6" fill="#111"/>
    <!-- mouth grille -->
    <rect x="85.5" y="141.6" width="9" height="3.5999999999999996" rx="0.6" fill="none" stroke="#111" stroke-width="0.6" stroke-linecap="round" stroke-linejoin="round"/>
    <line x1="86.4" y1="142.2" x2="86.4" y2="144.6" stroke="#111" stroke-width="0.6"/><line x1="88.2" y1="142.2" x2="88.2" y2="144.6" stroke="#111" stroke-width="0.6"/><line x1="90" y1="142.2" x2="90" y2="144.6" stroke="#111" stroke-width="0.6"/><line x1="91.8" y1="142.2" x2="91.8" y2="144.6" stroke="#111" stroke-width="0.6"/><line x1="93.6" y1="142.2" x2="93.6" y2="144.6" stroke="#111" stroke-width="0.6"/>
  </g></g></g></g><g data-balloon="speech"><path d="M 80 51 L 90 195.68 L 100 51 Z" fill="#f4f1ea" stroke="#111" stroke-width="2.5" stroke-linecap="round" stroke-linejoin="round"/><rect x="18" y="10" width="204.4" height="43" rx="16" fill="#f4f1ea" stroke="#111" stroke-width="2.5" stroke-linecap="round" stroke-linejoin="round"/><text x="120.2" y="36" text-anchor="middle" font-family="'Comic Sans MS','Segoe Print',cursive" font-size="14.5" fill="#111">Genius. Ship all ten.</text></g><g data-balloon="screen"><line x1="90" y1="123" x2="90" y2="216.76" stroke="#111" stroke-width="2" stroke-dasharray="3 3"/><circle cx="90" cy="216.76" r="3" fill="#111"/>
      <rect x="15" y="58" width="210.4" height="68" rx="3" fill="#f4f1ea" stroke="#111" stroke-width="2" stroke-linecap="round" stroke-linejoin="round"/>
      <rect x="18" y="61" width="204.4" height="62" rx="2" fill="#f4f1ea" stroke="#111" stroke-width="2.5" stroke-linecap="round" stroke-linejoin="round"/>
      <line x1="18" y1="67" x2="222.4" y2="67" stroke="#111" stroke-width="1" opacity="0.4"/><text x="120.2" y="87" text-anchor="middle" font-family="'Comic Sans MS','Segoe Print',cursive" font-size="14.5" fill="#111">He is going to put my</text><text x="120.2" y="106" text-anchor="middle" font-family="'Comic Sans MS','Segoe Print',cursive" font-size="14.5" fill="#111">name on a slide.</text></g>
    <text x="392" y="332" text-anchor="end" font-family="Georgia,serif" font-size="11" fill="#111" opacity="0.4">2</text>
  </g><g transform="translate(828,40)">
    
  <defs>
    <pattern id="halftone" width="6" height="6" patternUnits="userSpaceOnUse">
      <rect width="6" height="6" fill="#f4f1ea"/>
      <circle cx="3" cy="3" r="1.1" fill="#111"/>
    </pattern>
    <pattern id="scan" width="4" height="4" patternUnits="userSpaceOnUse">
      <rect width="4" height="4" fill="none"/>
      <line x1="0" y1="0" x2="4" y2="0" stroke="#111" stroke-width="0.6" opacity="0.5"/>
    </pattern>
    <pattern id="hatch" width="7" height="7" patternUnits="userSpaceOnUse" patternTransform="rotate(45)">
      <line x1="0" y1="0" x2="0" y2="7" stroke="#111" stroke-width="1"/>
    </pattern>
  </defs>
    <rect x="1.5" y="1.5" width="397" height="337" fill="#f4f1ea" stroke="#111" stroke-width="3"/>
    <line x1="16" y1="302" x2="384" y2="302" stroke="#111" stroke-width="1.4" opacity="0.35"/><g data-surface="projector">
    <line x1="195" y1="16" x2="195" y2="22" stroke="#111" stroke-width="3"/>
    <rect x="56" y="22" width="278" height="150" fill="#f4f1ea" stroke="#111" stroke-width="3.5" stroke-linecap="round" stroke-linejoin="round"/>
    <rect x="64" y="30" width="262" height="134" fill="url(#scan)" stroke="#111" stroke-width="1.5"/>
    <g >
    <!-- antenna -->
    <line x1="195" y1="61" x2="195" y2="51" stroke="#111" stroke-width="2.5"/>
    <circle cx="195" cy="48" r="3.5" fill="#111"/>
    <!-- head: angular chrome -->
    <path d="M 165,63 L 225,63 L 229,101 L 217,117 L 173,117 L 161,101 Z" fill="#f4f1ea" stroke="#111" stroke-width="3" stroke-linecap="round" stroke-linejoin="round"/>
    <!-- side bolts -->
    <circle cx="165" cy="85" r="2.5" fill="#111"/>
    <circle cx="225" cy="85" r="2.5" fill="#111"/>
    <!-- brow ridge -->
    <line x1="169" y1="75" x2="221" y2="75" stroke="#111" stroke-width="2"/>
    <!-- glowing slot eyes -->
    <rect x="175" y="84" width="18" height="4" rx="2" fill="#111"/>
    <rect x="197" y="84" width="18" height="4" rx="2" fill="#111"/>
    <!-- mouth grille -->
    <rect x="180" y="103" width="30" height="12" rx="2" fill="none" stroke="#111" stroke-width="2" stroke-linecap="round" stroke-linejoin="round"/>
    <line x1="183" y1="105" x2="183" y2="113" stroke="#111" stroke-width="2"/><line x1="189" y1="105" x2="189" y2="113" stroke="#111" stroke-width="2"/><line x1="195" y1="105" x2="195" y2="113" stroke="#111" stroke-width="2"/><line x1="201" y1="105" x2="201" y2="113" stroke="#111" stroke-width="2"/><line x1="207" y1="105" x2="207" y2="113" stroke="#111" stroke-width="2"/>
  </g>
    <text x="195" y="160" text-anchor="middle" font-family="Georgia, serif" font-size="13" fill="#111">MEET THE TEAM</text>
  </g><g transform="translate(90,342) scale(0.62) translate(-90,-342)"><g data-who="boss">
    <path d="M 16 342 Q 18 246 50 226 L 130 226 Q 162 246 164 342 Z" fill="#f4f1ea" stroke="#111" stroke-width="3" stroke-linecap="round" stroke-linejoin="round"/>
    <!-- lapels -->
    <path d="M 70 228 L 84 264 L 60 282" fill="none" stroke="#111" stroke-width="2.5" stroke-linecap="round" stroke-linejoin="round"/>
    <path d="M 110 228 L 96 264 L 120 282" fill="none" stroke="#111" stroke-width="2.5" stroke-linecap="round" stroke-linejoin="round"/>
    <path d="M 84 242 L 96 242 L 98 276 L 90 284 L 82 276 Z" fill="#111" stroke="none"/>
    
    <path d="M 30 246 q -40 -6 -60 -44" fill="none" stroke="#111" stroke-width="3" stroke-linecap="round" stroke-linejoin="round"/>
    <path d="M 150 246 q 40 -6 60 -44" fill="none" stroke="#111" stroke-width="3" stroke-linecap="round" stroke-linejoin="round"/>
    <circle cx="-32" cy="200" r="7" fill="#f4f1ea" stroke="#111" stroke-width="2.5" stroke-linecap="round" stroke-linejoin="round"/>
    <circle cx="212" cy="200" r="7" fill="#f4f1ea" stroke="#111" stroke-width="2.5" stroke-linecap="round" stroke-linejoin="round"/>
    <rect x="80" y="170" width="20" height="62" fill="#f4f1ea" stroke="#111" stroke-width="2.5" stroke-linecap="round" stroke-linejoin="round"/>
    <ellipse cx="90" cy="140" rx="35" ry="40" fill="#f4f1ea" stroke="#111" stroke-width="3" stroke-linecap="round" stroke-linejoin="round"/>
    <!-- THE pointy hair -->
    <path d="M 60 110 L 44 66 L 82 100 Z" fill="#111" stroke="none"/>
    <path d="M 94 100 L 136 66 L 120 110 Z" fill="#111" stroke="none"/>
    <!-- tiny close eyes -->
    <circle cx="80" cy="138" r="2.4" fill="#111"/>
    <circle cx="100" cy="138" r="2.4" fill="#111"/>
    <line x1="72" y1="128" x2="86" y2="130" stroke="#111" stroke-width="2"/>
    <line x1="94" y1="130" x2="108" y2="128" stroke="#111" stroke-width="2"/>
    <path d="M 90 142 q 4 6 -2 9" fill="none" stroke="#111" stroke-width="2" stroke-linecap="round" stroke-linejoin="round"/>
    <path d="M 74 158 Q 90 176 106 158 Z" fill="#f4f1ea" stroke="#111" stroke-width="2.5" stroke-linecap="round" stroke-linejoin="round"/><line x1="78" y1="162" x2="102" y2="162" stroke="#111" stroke-width="1.5"/></g></g><g transform="translate(310,342) scale(0.62) translate(-310,-342)"><g data-who="dailbert">
    <!-- shoulders / shirt -->
    <path d="M 232 342 Q 236 246 270 224 L 350 224 Q 384 246 388 342 Z" fill="#f4f1ea" stroke="#111" stroke-width="3" stroke-linecap="round" stroke-linejoin="round"/>
    <!-- collar -->
    <path d="M 288 226 L 310 246 L 332 226" fill="none" stroke="#111" stroke-width="2.5" stroke-linecap="round" stroke-linejoin="round"/>
    <!-- tie -->
    <path d="M 304 240 L 316 240 L 320 282 L 310 294 L 300 282 Z" fill="#111" stroke="none"/>
    <path d="M 304 240 L 310 250 L 316 240" fill="none" stroke="#f4f1ea" stroke-width="2" stroke-linecap="round"/>
    <!-- neck (bridges chin to shoulders) -->
    <rect x="299" y="168" width="22" height="66" fill="#f4f1ea" stroke="#111" stroke-width="2.5" stroke-linecap="round" stroke-linejoin="round"/>
    <!-- head -->
    <ellipse cx="310" cy="140" rx="37" ry="43" fill="#f4f1ea" stroke="#111" stroke-width="3" stroke-linecap="round" stroke-linejoin="round"/>
    <!-- ears -->
    <circle cx="273" cy="142" r="5" fill="#f4f1ea" stroke="#111" stroke-width="2.5" stroke-linecap="round" stroke-linejoin="round"/>
    <circle cx="347" cy="142" r="5" fill="#f4f1ea" stroke="#111" stroke-width="2.5" stroke-linecap="round" stroke-linejoin="round"/>
    <!-- side hair tufts + one curl -->
    <path d="M 276 120 Q 268 134 274 146" fill="none" stroke="#111" stroke-width="2.5" stroke-linecap="round" stroke-linejoin="round"/>
    <path d="M 344 120 Q 352 134 346 146" fill="none" stroke="#111" stroke-width="2.5" stroke-linecap="round" stroke-linejoin="round"/>
    <path d="M 304 100 q 6 -14 16 -8 q 8 5 2 12" fill="none" stroke="#111" stroke-width="2.5" stroke-linecap="round" stroke-linejoin="round"/>
    <!-- glasses -->
    <circle cx="295" cy="136" r="13" fill="#f4f1ea" stroke="#111" stroke-width="2.5" stroke-linecap="round" stroke-linejoin="round"/>
    <circle cx="325" cy="136" r="13" fill="#f4f1ea" stroke="#111" stroke-width="2.5" stroke-linecap="round" stroke-linejoin="round"/>
    <line x1="308" y1="136" x2="312" y2="136" stroke="#111" stroke-width="2.5"/>
    <!-- eyes -->
    <circle cx="295" cy="136" r="2.6" fill="#111"/>
    <circle cx="325" cy="136" r="2.6" fill="#111"/>
    <!-- nose -->
    <path d="M 310 144 q 4 6 -2 9" fill="none" stroke="#111" stroke-width="2" stroke-linecap="round" stroke-linejoin="round"/>
    <line x1="299" y1="164" x2="321" y2="164" stroke="#111" stroke-width="2.5"/></g></g><g data-balloon="screen"><line x1="176" y1="91" x2="176" y2="96" stroke="#111" stroke-width="2" stroke-dasharray="3 3"/><circle cx="176" cy="96" r="3" fill="#111"/>
      <rect x="45.599999999999994" y="7" width="260.8" height="87" rx="3" fill="#f4f1ea" stroke="#111" stroke-width="2" stroke-linecap="round" stroke-linejoin="round"/>
      <rect x="48.599999999999994" y="10" width="254.8" height="81" rx="2" fill="#f4f1ea" stroke="#111" stroke-width="2.5" stroke-linecap="round" stroke-linejoin="round"/>
      <line x1="48.599999999999994" y1="16" x2="303.4" y2="16" stroke="#111" stroke-width="1" opacity="0.4"/><text x="176" y="36" text-anchor="middle" font-family="'Comic Sans MS','Segoe Print',cursive" font-size="14.5" fill="#111">This is the most honest org</text><text x="176" y="55" text-anchor="middle" font-family="'Comic Sans MS','Segoe Print',cursive" font-size="14.5" fill="#111">chart this company has ever</text><text x="176" y="74" text-anchor="middle" font-family="'Comic Sans MS','Segoe Print',cursive" font-size="14.5" fill="#111">produced.</text></g>
    <text x="392" y="332" text-anchor="end" font-family="Georgia,serif" font-size="11" fill="#111" opacity="0.4">3</text>
  </g>
    
  </svg>