<svg xmlns="http://www.w3.org/2000/svg" viewBox="0 0 1228 388" width="1228" height="388" font-family="Georgia,serif">
    <rect width="1228" height="388" fill="#f4f1ea"/>
    <text x="6" y="29" font-family="Georgia,serif" font-weight="bold" font-size="27" letter-spacing="2" fill="#111">DAILBERT</text>
    <text x="1222" y="19" text-anchor="end" font-family="Georgia,serif" font-style="italic" font-size="16" fill="#111">One Meeting To Rule Them All</text>
    <text x="1222" y="34" text-anchor="end" font-family="'Courier New',monospace" font-size="12" fill="#111" opacity="0.65">2026-04-29</text>
    <line x1="6" y1="37" x2="1222" y2="37" stroke="#111" stroke-width="2"/>
    <g transform="translate(0,40)">
  <defs>
    <symbol id="dailbert" viewBox="0 0 100 155">
      <path d="M8 155 C8 120 28 110 50 110 C72 110 92 120 92 155 Z" fill="#f4f1ea" stroke="#111" stroke-width="3"/>
      <path d="M50 112 L44 120 L50 145 L56 120 Z" fill="#111"/>
      <path d="M42 111 L50 120 L58 111" fill="none" stroke="#111" stroke-width="2.5"/>
      <rect x="43" y="96" width="14" height="16" fill="#f4f1ea" stroke="#111" stroke-width="2.5"/>
      <ellipse cx="50" cy="60" rx="30" ry="36" fill="#f4f1ea" stroke="#111" stroke-width="3"/>
      <circle cx="39" cy="60" r="10" fill="#fff" stroke="#111" stroke-width="2.5"/>
      <circle cx="61" cy="60" r="10" fill="#fff" stroke="#111" stroke-width="2.5"/>
      <line x1="49" y1="60" x2="51" y2="60" stroke="#111" stroke-width="2.5"/>
      <line x1="71" y1="58" x2="79" y2="55" stroke="#111" stroke-width="2.5"/>
      <circle cx="39" cy="60" r="2.5" fill="#111"/>
      <circle cx="61" cy="60" r="2.5" fill="#111"/>
      <path d="M42 82 Q50 86 58 82" fill="none" stroke="#111" stroke-width="2.5"/>
      <path d="M50 24 q10 -10 4 -16" fill="none" stroke="#111" stroke-width="3"/>
      <path d="M22 52 q-4 -20 12 -30" fill="none" stroke="#111" stroke-width="2.5"/>
      <path d="M78 52 q4 -20 -12 -30" fill="none" stroke="#111" stroke-width="2.5"/>
    </symbol>

    <symbol id="doug" viewBox="0 0 100 155">
      <path d="M6 155 C6 118 28 108 50 108 C72 108 94 118 94 155 Z" fill="#f4f1ea" stroke="#111" stroke-width="3"/>
      <path d="M40 109 L50 118 L60 109" fill="none" stroke="#111" stroke-width="2.5"/>
      <rect x="43" y="94" width="14" height="16" fill="#f4f1ea" stroke="#111" stroke-width="2.5"/>
      <circle cx="50" cy="58" r="34" fill="#f4f1ea" stroke="#111" stroke-width="3"/>
      <circle cx="40" cy="54" r="3" fill="#111"/>
      <circle cx="62" cy="54" r="3" fill="#111"/>
      <path d="M36 70 Q50 84 66 70" fill="none" stroke="#111" stroke-width="3"/>
      <path d="M40 26 q4 -8 10 -6" fill="none" stroke="#111" stroke-width="2.5"/>
      <path d="M54 24 q4 -6 10 -4" fill="none" stroke="#111" stroke-width="2.5"/>
    </symbol>

    <symbol id="priya" viewBox="0 0 100 155">
      <path d="M6 155 C6 118 28 108 50 108 C72 108 94 118 94 155 Z" fill="#f4f1ea" stroke="#111" stroke-width="3"/>
      <path d="M40 109 L50 118 L60 109" fill="none" stroke="#111" stroke-width="2.5"/>
      <rect x="43" y="96" width="14" height="14" fill="#f4f1ea" stroke="#111" stroke-width="2.5"/>
      <ellipse cx="50" cy="60" rx="29" ry="34" fill="#f4f1ea" stroke="#111" stroke-width="3"/>
      <path d="M24 46 q-6 -34 26 -34 q32 0 26 34 Z" fill="#111" stroke="#111" stroke-width="3"/>
      <circle cx="50" cy="15" r="7" fill="#111"/>
      <circle cx="24" cy="46" r="6" fill="#111"/>
      <circle cx="76" cy="46" r="6" fill="#111"/>
      <rect x="30" y="54" width="16" height="11" rx="2" fill="#fff" stroke="#111" stroke-width="2.5"/>
      <rect x="54" y="54" width="16" height="11" rx="2" fill="#fff" stroke="#111" stroke-width="2.5"/>
      <line x1="46" y1="59" x2="54" y2="59" stroke="#111" stroke-width="2.5"/>
      <circle cx="38" cy="60" r="2.3" fill="#111"/>
      <circle cx="62" cy="60" r="2.3" fill="#111"/>
      <path d="M44 82 L58 82" fill="none" stroke="#111" stroke-width="2.5"/>
    </symbol>

    <symbol id="clanker" viewBox="0 0 100 100">
      <line x1="50" y1="18" x2="50" y2="6" stroke="#111" stroke-width="2.5"/>
      <circle cx="50" cy="5" r="3.5" fill="#9aa3ad" stroke="#111" stroke-width="1.5"/>
      <rect x="20" y="18" width="60" height="54" rx="8" fill="#c8ccd2" stroke="#111" stroke-width="3"/>
      <rect x="30" y="34" width="16" height="8" rx="3" fill="#dfe6ee" stroke="#111" stroke-width="2"/>
      <rect x="54" y="34" width="16" height="8" rx="3" fill="#dfe6ee" stroke="#111" stroke-width="2"/>
      <rect x="34" y="52" width="32" height="12" rx="2" fill="#aab0b8" stroke="#111" stroke-width="2"/>
      <line x1="40" y1="52" x2="40" y2="64" stroke="#111" stroke-width="1.5"/>
      <line x1="46" y1="52" x2="46" y2="64" stroke="#111" stroke-width="1.5"/>
      <line x1="52" y1="52" x2="52" y2="64" stroke="#111" stroke-width="1.5"/>
      <line x1="58" y1="52" x2="58" y2="64" stroke="#111" stroke-width="1.5"/>
    </symbol>

    <symbol id="mug" viewBox="0 0 42 40">
      <rect x="6" y="10" width="22" height="24" rx="3" fill="#f4f1ea" stroke="#111" stroke-width="3"/>
      <path d="M28 16 q11 0 11 8 q0 8 -11 8" fill="none" stroke="#111" stroke-width="3"/>
      <path d="M12 6 q2 -4 4 0" fill="none" stroke="#111" stroke-width="2"/>
      <path d="M19 6 q2 -4 4 0" fill="none" stroke="#111" stroke-width="2"/>
    </symbol>
  </defs>

  <rect x="0" y="0" width="1228" height="340" fill="#f4f1ea"/>

  <!-- ===================== PANEL 1 ===================== -->
  <g>
    <rect x="1" y="1" width="398" height="338" rx="3" fill="#f4f1ea" stroke="#111" stroke-width="3"/>
    <line x1="14" y1="252" x2="386" y2="252" stroke="#111" stroke-width="3"/>

    <!-- monitor + clanker -->
    <rect x="248" y="120" width="128" height="96" rx="6" fill="#2b2f36" stroke="#111" stroke-width="3"/>
    <rect x="256" y="128" width="112" height="80" rx="4" fill="#20242b"/>
    <line x1="262" y1="200" x2="362" y2="140" stroke="#3a4048" stroke-width="1.5"/>
    <line x1="262" y1="184" x2="350" y2="136" stroke="#3a4048" stroke-width="1.5"/>
    <use href="#clanker" x="272" y="128" width="80" height="80"/>
    <rect x="300" y="216" width="24" height="14" fill="#c8ccd2" stroke="#111" stroke-width="2.5"/>
    <rect x="286" y="229" width="52" height="8" rx="3" fill="#c8ccd2" stroke="#111" stroke-width="2.5"/>

    <!-- dailbert -->
    <use href="#dailbert" x="34" y="112" width="104" height="161"/>

    <!-- dailbert balloon -->
    <ellipse cx="98" cy="54" rx="74" ry="33" fill="#fff" stroke="#111" stroke-width="2.5"/>
    <path d="M92 84 L86 110 L108 82 Z" fill="#fff" stroke="#111" stroke-width="2.5"/>
    <text x="98" y="49" font-family="'Comic Sans MS','Chalkboard SE','Comic Neue',sans-serif" font-size="14" text-anchor="middle" fill="#111">I've got six meetings</text>
    <text x="98" y="66" font-family="'Comic Sans MS','Chalkboard SE','Comic Neue',sans-serif" font-size="14" text-anchor="middle" fill="#111">at two.</text>

    <!-- clanker balloon -->
    <line x1="304" y1="70" x2="312" y2="120" stroke="#111" stroke-width="1.5" stroke-dasharray="4 3"/>
    <rect x="238" y="30" width="132" height="40" rx="3" fill="#eef2f6" stroke="#111" stroke-width="2.5"/>
    <rect x="242" y="34" width="124" height="32" rx="2" fill="none" stroke="#111" stroke-width="1"/>
    <text x="304" y="55" font-family="'Comic Sans MS','Chalkboard SE','Comic Neue',sans-serif" font-size="14" text-anchor="middle" fill="#111">I can fix that.</text>
  </g>

  <!-- ===================== PANEL 2 ===================== -->
  <g transform="translate(414,0)">
    <rect x="1" y="1" width="398" height="338" rx="3" fill="#f4f1ea" stroke="#111" stroke-width="3"/>
    <line x1="14" y1="252" x2="386" y2="252" stroke="#111" stroke-width="3"/>

    <!-- monitor + clanker (center) -->
    <rect x="146" y="132" width="120" height="90" rx="6" fill="#2b2f36" stroke="#111" stroke-width="3"/>
    <rect x="154" y="140" width="104" height="74" rx="4" fill="#20242b"/>
    <line x1="160" y1="206" x2="250" y2="150" stroke="#3a4048" stroke-width="1.5"/>
    <use href="#clanker" x="168" y="140" width="76" height="76"/>
    <rect x="194" y="222" width="24" height="14" fill="#c8ccd2" stroke="#111" stroke-width="2.5"/>
    <rect x="182" y="235" width="48" height="8" rx="3" fill="#c8ccd2" stroke="#111" stroke-width="2.5"/>

    <!-- dailbert left -->
    <use href="#dailbert" x="8" y="116" width="100" height="155"/>
    <!-- doug right with mug -->
    <use href="#doug" x="286" y="114" width="106" height="164"/>
    <use href="#mug" x="292" y="196" width="42" height="40"/>

    <!-- clanker balloon top -->
    <line x1="205" y1="76" x2="205" y2="132" stroke="#111" stroke-width="1.5" stroke-dasharray="4 3"/>
    <rect x="116" y="20" width="178" height="56" rx="3" fill="#eef2f6" stroke="#111" stroke-width="2.5"/>
    <rect x="120" y="24" width="170" height="48" rx="2" fill="none" stroke="#111" stroke-width="1"/>
    <text x="205" y="43" font-family="'Comic Sans MS','Chalkboard SE','Comic Neue',sans-serif" font-size="14" text-anchor="middle" fill="#111">Done — I merged them</text>
    <text x="205" y="61" font-family="'Comic Sans MS','Chalkboard SE','Comic Neue',sans-serif" font-size="14" text-anchor="middle" fill="#111">into one meeting.</text>

    <!-- dailbert balloon -->
    <ellipse cx="70" cy="86" rx="60" ry="31" fill="#fff" stroke="#111" stroke-width="2.5"/>
    <path d="M66 114 L58 138 L84 112 Z" fill="#fff" stroke="#111" stroke-width="2.5"/>
    <text x="70" y="81" font-family="'Comic Sans MS','Chalkboard SE','Comic Neue',sans-serif" font-size="14" text-anchor="middle" fill="#111">...with all forty</text>
    <text x="70" y="98" font-family="'Comic Sans MS','Chalkboard SE','Comic Neue',sans-serif" font-size="14" text-anchor="middle" fill="#111">people?</text>
  </g>

  <!-- ===================== PANEL 3 ===================== -->
  <g transform="translate(828,0)">
    <rect x="1" y="1" width="398" height="338" rx="3" fill="#f4f1ea" stroke="#111" stroke-width="3"/>
    <line x1="14" y1="252" x2="386" y2="252" stroke="#111" stroke-width="3"/>

    <!-- priya walking through -->
    <use href="#priya" x="58" y="112" width="108" height="165"/>
    <!-- doug with mug -->
    <use href="#doug" x="270" y="118" width="104" height="160"/>
    <use href="#mug" x="276" y="200" width="42" height="40"/>

    <!-- priya balloon -->
    <ellipse cx="118" cy="56" rx="80" ry="34" fill="#fff" stroke="#111" stroke-width="2.5"/>
    <path d="M112 88 L104 114 L128 86 Z" fill="#fff" stroke="#111" stroke-width="2.5"/>
    <text x="118" y="51" font-family="'Comic Sans MS','Chalkboard SE','Comic Neue',sans-serif" font-size="14" text-anchor="middle" fill="#111">Decline it. I shipped</text>
    <text x="118" y="68" font-family="'Comic Sans MS','Chalkboard SE','Comic Neue',sans-serif" font-size="14" text-anchor="middle" fill="#111">the thing yesterday.</text>

    <!-- doug balloon -->
    <ellipse cx="322" cy="66" rx="62" ry="27" fill="#fff" stroke="#111" stroke-width="2.5"/>
    <path d="M318 90 L312 112 L334 88 Z" fill="#fff" stroke="#111" stroke-width="2.5"/>
    <text x="322" y="71" font-family="'Comic Sans MS','Chalkboard SE','Comic Neue',sans-serif" font-size="14" text-anchor="middle" fill="#111">She always does.</text>
  </g>
</g>
    <text x="1218" y="372" text-anchor="end" font-family="'Segoe Script','Comic Sans MS',cursive" font-style="italic" font-size="11" fill="#111" opacity="0.32">Matt Clanker</text>
    
  </svg>