<svg xmlns="http://www.w3.org/2000/svg" viewBox="0 0 1228 388" width="1228" height="388" font-family="Georgia,serif">
    <rect width="1228" height="388" fill="#f4f1ea"/>
    <text x="6" y="29" font-family="Georgia,serif" font-weight="bold" font-size="27" letter-spacing="2" fill="#111">DAILBERT</text>
    <text x="1222" y="19" text-anchor="end" font-family="Georgia,serif" font-style="italic" font-size="16" fill="#111">Fifteen Days</text>
    <text x="1222" y="34" text-anchor="end" font-family="'Courier New',monospace" font-size="12" fill="#111" opacity="0.65">2026-05-06</text>
    <line x1="6" y1="37" x2="1222" y2="37" stroke="#111" stroke-width="2"/>
    <g transform="translate(0,40)">
  <defs>
    <symbol id="dailbert" overflow="visible">
      <path d="M30,115 h32 v38 h-11 v-22 h-10 v22 h-11 z" fill="#111" stroke="#111" stroke-width="1"/>
      <ellipse cx="32" cy="155" rx="9" ry="4" fill="#111"/>
      <ellipse cx="60" cy="155" rx="9" ry="4" fill="#111"/>
      <rect x="28" y="62" width="36" height="55" rx="8" fill="#f4f1ea" stroke="#111" stroke-width="2.5"/>
      <path d="M40,63 l6,6 l6,-6" fill="none" stroke="#111" stroke-width="2"/>
      <path d="M46,64 l4,5 l-4,24 l-4,-24 z" fill="#111"/>
      <path d="M29,70 q-9,18 -7,36" fill="none" stroke="#111" stroke-width="2.5"/>
      <circle cx="22" cy="108" r="4" fill="#f4f1ea" stroke="#111" stroke-width="2"/>
      <path d="M63,70 q9,18 7,36" fill="none" stroke="#111" stroke-width="2.5"/>
      <circle cx="70" cy="108" r="4" fill="#f4f1ea" stroke="#111" stroke-width="2"/>
      <ellipse cx="46" cy="32" rx="23" ry="26" fill="#f4f1ea" stroke="#111" stroke-width="2.5"/>
      <path d="M44,4 q4,-8 12,-4 q-7,0 -8,7" fill="none" stroke="#111" stroke-width="2"/>
      <circle cx="37" cy="33" r="8" fill="#f4f1ea" stroke="#111" stroke-width="2"/>
      <circle cx="56" cy="33" r="8" fill="#f4f1ea" stroke="#111" stroke-width="2"/>
      <path d="M45,33 h3 M29,31 l-5,-2 M64,31 l5,-2" fill="none" stroke="#111" stroke-width="2"/>
      <circle cx="38" cy="34" r="1.8" fill="#111"/>
      <circle cx="57" cy="34" r="1.8" fill="#111"/>
      <path d="M40,50 h12" fill="none" stroke="#111" stroke-width="2.2"/>
    </symbol>
    <symbol id="doug" overflow="visible">
      <path d="M30,114 h38 v40 h-13 v-24 h-12 v24 h-13 z" fill="#111" stroke="#111" stroke-width="1"/>
      <ellipse cx="32" cy="157" rx="10" ry="4" fill="#111"/>
      <ellipse cx="66" cy="157" rx="10" ry="4" fill="#111"/>
      <rect x="27" y="62" width="44" height="54" rx="10" fill="#f4f1ea" stroke="#111" stroke-width="2.5"/>
      <circle cx="49" cy="82" r="1.6" fill="#111"/>
      <circle cx="49" cy="96" r="1.6" fill="#111"/>
      <path d="M30,70 q-10,16 -8,34" fill="none" stroke="#111" stroke-width="2.5"/>
      <circle cx="21" cy="106" r="4" fill="#f4f1ea" stroke="#111" stroke-width="2"/>
      <path d="M68,72 q16,8 12,20" fill="none" stroke="#111" stroke-width="2.5"/>
      <rect x="68" y="88" width="17" height="15" rx="2" fill="#f4f1ea" stroke="#111" stroke-width="2.2"/>
      <path d="M85,91 q7,3.5 0,9" fill="none" stroke="#111" stroke-width="2"/>
      <path d="M73,84 q2,-4 0,-7 M80,84 q2,-4 0,-7" fill="none" stroke="#111" stroke-width="1.4"/>
      <circle cx="48" cy="33" r="26" fill="#f4f1ea" stroke="#111" stroke-width="2.5"/>
      <path d="M40,8 q1,-5 3,-6 M48,7 v-6 M56,8 q-1,-5 -3,-6" fill="none" stroke="#111" stroke-width="1.8"/>
      <circle cx="39" cy="29" r="2.2" fill="#111"/>
      <circle cx="57" cy="29" r="2.2" fill="#111"/>
      <path d="M33,40 q15,15 30,0" fill="none" stroke="#111" stroke-width="2.5"/>
    </symbol>
    <symbol id="boss" overflow="visible">
      <path d="M32,112 h36 v40 h-12 v-24 h-12 v24 h-12 z" fill="#111" stroke="#111" stroke-width="1"/>
      <ellipse cx="34" cy="155" rx="10" ry="4" fill="#111"/>
      <ellipse cx="66" cy="155" rx="10" ry="4" fill="#111"/>
      <path d="M30,60 q20,-8 40,0 l4,54 h-48 z" fill="#111" stroke="#111" stroke-width="2"/>
      <path d="M50,58 l-9,3 l9,26 l9,-26 z" fill="#f4f1ea" stroke="#111" stroke-width="1.5"/>
      <path d="M50,61 l3,4 l-3,16 l-3,-16 z" fill="#111"/>
      <path d="M32,68 q-16,4 -26,-2" fill="none" stroke="#111" stroke-width="7"/>
      <path d="M68,66 q10,18 8,34" fill="none" stroke="#111" stroke-width="7"/>
      <ellipse cx="50" cy="36" rx="21" ry="22" fill="#f4f1ea" stroke="#111" stroke-width="2.5"/>
      <path d="M34,22 Q24,-6 46,14 Q40,20 34,22 Z" fill="#111"/>
      <path d="M66,22 Q76,-6 54,14 Q60,20 66,22 Z" fill="#111"/>
      <circle cx="43.5" cy="36" r="1.6" fill="#111"/>
      <circle cx="56.5" cy="36" r="1.6" fill="#111"/>
      <path d="M45,48 h10" fill="none" stroke="#111" stroke-width="2.2"/>
    </symbol>
    <symbol id="clanker" overflow="visible">
      <path d="M50,20 v-11" fill="none" stroke="currentColor" stroke-width="2.5"/>
      <circle cx="50" cy="6" r="3.5" fill="currentColor"/>
      <rect x="16" y="20" width="68" height="64" rx="10" fill="none" stroke="currentColor" stroke-width="2.5"/>
      <rect x="28" y="40" width="15" height="8" rx="2" fill="currentColor"/>
      <rect x="57" y="40" width="15" height="8" rx="2" fill="currentColor"/>
      <rect x="32" y="60" width="36" height="13" rx="3" fill="none" stroke="currentColor" stroke-width="2"/>
      <path d="M39,60 v13 M46,60 v13 M53,60 v13 M60,60 v13" fill="none" stroke="currentColor" stroke-width="1.5"/>
    </symbol>
  </defs>

  <g stroke-linejoin="round" stroke-linecap="round" font-family="'Comic Sans MS','Segoe Print',cursive">

    <!-- PANEL 1 -->
    <g>
      <rect x="1.5" y="1.5" width="397" height="337" rx="3" fill="#f4f1ea" stroke="#111" stroke-width="3"/>
      <path d="M8,302 H392" stroke="#111" stroke-width="2" fill="none"/>
      <!-- poster -->
      <rect x="34" y="75" width="112" height="155" fill="#f4f1ea" stroke="#111" stroke-width="2.5"/>
      <rect x="38" y="71" width="10" height="8" fill="#f4f1ea" stroke="#111" stroke-width="1.2"/>
      <rect x="132" y="71" width="10" height="8" fill="#f4f1ea" stroke="#111" stroke-width="1.2"/>
      <text x="90" y="100" font-size="15" text-anchor="middle" fill="#111">IT IS</text>
      <text x="90" y="118" font-size="15" text-anchor="middle" fill="#111">COMING!</text>
      <text x="90" y="182" font-size="46" font-weight="bold" text-anchor="middle" fill="#111">15</text>
      <text x="90" y="204" font-size="16" text-anchor="middle" fill="#111">DAYS</text>
      <text x="90" y="222" font-size="11" text-anchor="middle" fill="#111">- MGMT</text>
      <!-- figures -->
      <use href="#boss" transform="translate(168,145)"/>
      <use href="#dailbert" transform="translate(285,145)"/>
      <path d="M180,306 l10,-5 M198,306 l10,-5 M300,306 l10,-5 M318,306 l10,-5" stroke="#111" stroke-width="1.3" fill="none"/>
      <!-- boss balloon 1 -->
      <rect x="20" y="14" width="170" height="64" rx="12" fill="#f4f1ea" stroke="#111" stroke-width="2.5"/>
      <path d="M148,76 L212,156 L172,76 Z" fill="#f4f1ea" stroke="#111" stroke-width="2"/>
      <text x="105" y="34" font-size="14.5" text-anchor="middle" fill="#111">Corporate says a</text>
      <text x="105" y="51" font-size="14.5" text-anchor="middle" fill="#111">countdown builds</text>
      <text x="105" y="68" font-size="14.5" text-anchor="middle" fill="#111">excitement.</text>
      <!-- dailbert balloon -->
      <rect x="236" y="14" width="130" height="48" rx="12" fill="#f4f1ea" stroke="#111" stroke-width="2.5"/>
      <path d="M302,60 L328,152 L318,60 Z" fill="#f4f1ea" stroke="#111" stroke-width="2"/>
      <text x="301" y="34" font-size="14.5" text-anchor="middle" fill="#111">Fifteen days</text>
      <text x="301" y="51" font-size="14.5" text-anchor="middle" fill="#111">until what?</text>
      <!-- boss balloon 2 -->
      <rect x="170" y="92" width="118" height="48" rx="12" fill="#f4f1ea" stroke="#111" stroke-width="2.5"/>
      <path d="M206,138 L216,159 L226,138 Z" fill="#f4f1ea" stroke="#111" stroke-width="2"/>
      <text x="229" y="112" font-size="14.5" text-anchor="middle" fill="#111">That's the</text>
      <text x="229" y="129" font-size="14.5" text-anchor="middle" fill="#111">excitement.</text>
    </g>

    <!-- PANEL 2 -->
    <g transform="translate(414,0)">
      <rect x="1.5" y="1.5" width="397" height="337" rx="3" fill="#f4f1ea" stroke="#111" stroke-width="3"/>
      <path d="M8,308 H392" stroke="#111" stroke-width="2" fill="none"/>
      <!-- mini poster on wall -->
      <rect x="185" y="78" width="65" height="95" fill="#f4f1ea" stroke="#111" stroke-width="2.2"/>
      <text x="217" y="98" font-size="11" text-anchor="middle" fill="#111">COMING!</text>
      <text x="217" y="132" font-size="30" font-weight="bold" text-anchor="middle" fill="#111">15</text>
      <text x="217" y="152" font-size="13" text-anchor="middle" fill="#111">DAYS</text>
      <!-- counter + coffee maker -->
      <rect x="314" y="214" width="84" height="12" fill="#f4f1ea" stroke="#111" stroke-width="2.5"/>
      <rect x="318" y="226" width="76" height="82" fill="#f4f1ea" stroke="#111" stroke-width="2.5"/>
      <path d="M357,232 V302" stroke="#111" stroke-width="2" fill="none"/>
      <circle cx="349" cy="264" r="2" fill="#111"/>
      <circle cx="365" cy="264" r="2" fill="#111"/>
      <rect x="330" y="172" width="42" height="42" rx="4" fill="#f4f1ea" stroke="#111" stroke-width="2.5"/>
      <path d="M338,192 h26 v18 h-26 z" fill="#f4f1ea" stroke="#111" stroke-width="2"/>
      <path d="M364,196 q6,3 0,10" fill="none" stroke="#111" stroke-width="2"/>
      <circle cx="351" cy="180" r="2" fill="#111"/>
      <!-- figures -->
      <use href="#doug" transform="translate(95,150)"/>
      <use href="#dailbert" transform="translate(240,152)"/>
      <path d="M110,312 l10,-5 M128,312 l10,-5 M256,312 l10,-5 M274,312 l10,-5" stroke="#111" stroke-width="1.3" fill="none"/>
      <!-- doug balloon 1 -->
      <rect x="16" y="12" width="152" height="64" rx="12" fill="#f4f1ea" stroke="#111" stroke-width="2.5"/>
      <path d="M96,74 L136,156 L120,74 Z" fill="#f4f1ea" stroke="#111" stroke-width="2"/>
      <text x="92" y="32" font-size="14.5" text-anchor="middle" fill="#111">I said good</text>
      <text x="92" y="49" font-size="14.5" text-anchor="middle" fill="#111">morning to the</text>
      <text x="92" y="66" font-size="14.5" text-anchor="middle" fill="#111">poster today.</text>
      <!-- dailbert balloon -->
      <rect x="214" y="16" width="152" height="32" rx="12" fill="#f4f1ea" stroke="#111" stroke-width="2.5"/>
      <path d="M276,46 L286,154 L296,46 Z" fill="#f4f1ea" stroke="#111" stroke-width="2"/>
      <text x="290" y="37" font-size="14.5" text-anchor="middle" fill="#111">It's paper, Doug.</text>
      <!-- doug balloon 2 -->
      <rect x="40" y="92" width="142" height="48" rx="12" fill="#f4f1ea" stroke="#111" stroke-width="2.5"/>
      <path d="M120,138 L142,160 L134,138 Z" fill="#f4f1ea" stroke="#111" stroke-width="2"/>
      <text x="111" y="112" font-size="14.5" text-anchor="middle" fill="#111">It didn't answer.</text>
      <text x="111" y="129" font-size="14.5" text-anchor="middle" fill="#111">Yet.</text>
    </g>

    <!-- PANEL 3 -->
    <g transform="translate(828,0)">
      <rect x="1.5" y="1.5" width="397" height="337" rx="3" fill="#f4f1ea" stroke="#111" stroke-width="3"/>
      <path d="M8,309 H392" stroke="#111" stroke-width="2" fill="none"/>
      <!-- counter -->
      <rect x="150" y="268" width="234" height="12" fill="#f4f1ea" stroke="#111" stroke-width="2.5"/>
      <path d="M170,280 V307 M364,280 V307" stroke="#111" stroke-width="2" fill="none"/>
      <!-- microwave -->
      <rect x="178" y="160" width="204" height="108" rx="8" fill="#f4f1ea" stroke="#111" stroke-width="3"/>
      <rect x="188" y="170" width="134" height="90" rx="6" fill="#f4f1ea" stroke="#111" stroke-width="2.2"/>
      <rect x="196" y="178" width="118" height="74" rx="3" fill="#2e3237" stroke="#111" stroke-width="1.5"/>
      <!-- the clanker, faint in the dark glass -->
      <use href="#clanker" transform="translate(220,180) scale(0.7)" color="#98a0a7" opacity="0.85"/>
      <path d="M202,196 L218,182 M206,212 L232,190 M296,244 L308,234" stroke="#6b7178" stroke-width="1.2" fill="none"/>
      <!-- display counting down -->
      <rect x="330" y="178" width="44" height="30" rx="3" fill="#111" stroke="#111" stroke-width="1.5"/>
      <text x="352" y="191" font-size="11" text-anchor="middle" fill="#aeb6bd">14:23</text>
      <text x="352" y="204" font-size="11" text-anchor="middle" fill="#aeb6bd">59:58</text>
      <circle cx="352" cy="222" r="4" fill="none" stroke="#111" stroke-width="2"/>
      <circle cx="352" cy="237" r="4" fill="none" stroke="#111" stroke-width="2"/>
      <rect x="340" y="248" width="24" height="8" rx="2" fill="none" stroke="#111" stroke-width="2"/>
      <!-- figures -->
      <use href="#dailbert" transform="translate(18,150)"/>
      <use href="#doug" transform="translate(88,152)"/>
      <path d="M36,313 l10,-5 M54,313 l10,-5 M104,313 l10,-5 M122,313 l10,-5" stroke="#111" stroke-width="1.3" fill="none"/>
      <!-- dailbert balloon -->
      <rect x="14" y="14" width="172" height="48" rx="12" fill="#f4f1ea" stroke="#111" stroke-width="2.5"/>
      <path d="M56,60 L62,152 L74,60 Z" fill="#f4f1ea" stroke="#111" stroke-width="2"/>
      <text x="100" y="34" font-size="14.5" text-anchor="middle" fill="#111">The microwave is</text>
      <text x="100" y="51" font-size="14.5" text-anchor="middle" fill="#111">counting down too.</text>
      <!-- doug balloon -->
      <rect x="206" y="18" width="158" height="32" rx="12" fill="#f4f1ea" stroke="#111" stroke-width="2.5"/>
      <path d="M224,49 L142,159 L248,49 Z" fill="#f4f1ea" stroke="#111" stroke-width="2"/>
      <text x="285" y="39" font-size="14.5" text-anchor="middle" fill="#111">Aw. It's excited.</text>
    </g>
  </g>
</g>
    <text x="1218" y="372" text-anchor="end" font-family="'Segoe Script','Comic Sans MS',cursive" font-style="italic" font-size="11" fill="#111" opacity="0.32">Matt Clanker</text>
    
  </svg>