<svg xmlns="http://www.w3.org/2000/svg" viewBox="0 0 1228 340" width="1228" height="340">
  <defs>
    <clipPath id="p1"><rect x="0" y="0" width="400" height="340"/></clipPath>
    <clipPath id="p2"><rect x="414" y="0" width="400" height="340"/></clipPath>
    <clipPath id="p3"><rect x="828" y="0" width="400" height="340"/></clipPath>

    <symbol id="machine" viewBox="0 0 140 200">
      <rect x="24" y="0" width="92" height="14" rx="3" fill="#fff" stroke="#111" stroke-width="3"/>
      <rect x="12" y="10" width="116" height="182" rx="8" fill="#fff" stroke="#111" stroke-width="3"/>
      <rect x="30" y="24" width="80" height="46" rx="4" fill="#151515" stroke="#111" stroke-width="3"/>
      <circle cx="42" cy="84" r="5" fill="#fff" stroke="#111" stroke-width="2.5"/>
      <circle cx="62" cy="84" r="5" fill="#fff" stroke="#111" stroke-width="2.5"/>
      <circle cx="82" cy="84" r="5" fill="#fff" stroke="#111" stroke-width="2.5"/>
      <rect x="54" y="98" width="32" height="14" rx="2" fill="#fff" stroke="#111" stroke-width="3"/>
      <rect x="66" y="112" width="8" height="8" fill="#111"/>
      <rect x="30" y="150" width="80" height="10" rx="2" fill="#fff" stroke="#111" stroke-width="3"/>
      <line x1="40" y1="150" x2="40" y2="160" stroke="#111" stroke-width="2"/>
      <line x1="52" y1="150" x2="52" y2="160" stroke="#111" stroke-width="2"/>
      <line x1="64" y1="150" x2="64" y2="160" stroke="#111" stroke-width="2"/>
      <line x1="76" y1="150" x2="76" y2="160" stroke="#111" stroke-width="2"/>
      <line x1="88" y1="150" x2="88" y2="160" stroke="#111" stroke-width="2"/>
      <line x1="100" y1="150" x2="100" y2="160" stroke="#111" stroke-width="2"/>
      <text x="70" y="182" font-family="'Comic Sans MS','Segoe Print',cursive" font-size="12" text-anchor="middle" fill="#111">MOLOCH</text>
    </symbol>

    <symbol id="clanker" viewBox="0 0 120 80">
      <line x1="60" y1="12" x2="60" y2="2" stroke="#dfe3e6" stroke-width="3"/>
      <circle cx="60" cy="3" r="4" fill="#eafff2" stroke="#9aa0a4" stroke-width="1.5"/>
      <rect x="18" y="12" width="84" height="58" rx="9" fill="#b9bec4" stroke="#e7ebee" stroke-width="3"/>
      <rect x="26" y="20" width="68" height="42" rx="6" fill="#8f969c" stroke="#5f666b" stroke-width="2"/>
      <rect x="34" y="30" width="20" height="9" rx="4" fill="#eafff2" stroke="#2f6f4f" stroke-width="1.5"/>
      <rect x="66" y="30" width="20" height="9" rx="4" fill="#eafff2" stroke="#2f6f4f" stroke-width="1.5"/>
      <rect x="42" y="48" width="36" height="10" rx="2" fill="#5f666b"/>
      <line x1="48" y1="48" x2="48" y2="58" stroke="#b9bec4" stroke-width="1.5"/>
      <line x1="54" y1="48" x2="54" y2="58" stroke="#b9bec4" stroke-width="1.5"/>
      <line x1="60" y1="48" x2="60" y2="58" stroke="#b9bec4" stroke-width="1.5"/>
      <line x1="66" y1="48" x2="66" y2="58" stroke="#b9bec4" stroke-width="1.5"/>
      <line x1="72" y1="48" x2="72" y2="58" stroke="#b9bec4" stroke-width="1.5"/>
    </symbol>

    <symbol id="dailbert" viewBox="0 0 120 175">
      <path d="M28 175 L33 118 Q60 106 87 118 L92 175 Z" fill="#fff" stroke="#111" stroke-width="3"/>
      <path d="M50 112 L60 124 L70 112" fill="none" stroke="#111" stroke-width="2.5"/>
      <path d="M56 122 L64 122 L62 152 L58 152 Z" fill="#111"/>
      <rect x="52" y="94" width="16" height="16" fill="#fff" stroke="#111" stroke-width="3"/>
      <ellipse cx="60" cy="58" rx="30" ry="34" fill="#fff" stroke="#111" stroke-width="3"/>
      <circle cx="30" cy="60" r="5" fill="#fff" stroke="#111" stroke-width="2.5"/>
      <circle cx="90" cy="60" r="5" fill="#fff" stroke="#111" stroke-width="2.5"/>
      <path d="M60 24 q -3 -10 7 -10 q 8 0 4 8" fill="none" stroke="#111" stroke-width="3" stroke-linecap="round"/>
      <circle cx="48" cy="58" r="11" fill="#fff" stroke="#111" stroke-width="2.5"/>
      <circle cx="72" cy="58" r="11" fill="#fff" stroke="#111" stroke-width="2.5"/>
      <line x1="59" y1="58" x2="61" y2="58" stroke="#111" stroke-width="2.5"/>
      <circle cx="48" cy="58" r="2.6" fill="#111"/>
      <circle cx="72" cy="58" r="2.6" fill="#111"/>
      <path d="M52 80 Q60 82 68 80" fill="none" stroke="#111" stroke-width="2.5" stroke-linecap="round"/>
    </symbol>

    <symbol id="doug" viewBox="0 0 130 175">
      <path d="M26 175 L31 120 Q58 108 85 120 L90 175 Z" fill="#fff" stroke="#111" stroke-width="3"/>
      <path d="M48 114 L58 126 L68 114" fill="none" stroke="#111" stroke-width="2.5"/>
      <rect x="50" y="96" width="16" height="16" fill="#fff" stroke="#111" stroke-width="3"/>
      <circle cx="58" cy="58" r="36" fill="#fff" stroke="#111" stroke-width="3"/>
      <circle cx="24" cy="58" r="5" fill="#fff" stroke="#111" stroke-width="2.5"/>
      <circle cx="92" cy="58" r="5" fill="#fff" stroke="#111" stroke-width="2.5"/>
      <circle cx="48" cy="54" r="3.2" fill="#111"/>
      <circle cx="70" cy="54" r="3.2" fill="#111"/>
      <path d="M40 66 Q58 94 78 66 Q58 76 40 66 Z" fill="#fff" stroke="#111" stroke-width="3" stroke-linejoin="round"/>
      <path d="M86 128 Q108 120 112 96" fill="none" stroke="#111" stroke-width="3" stroke-linecap="round"/>
      <rect x="98" y="74" width="26" height="26" rx="3" fill="#fff" stroke="#111" stroke-width="3"/>
      <path d="M124 80 q10 0 10 8 q0 8 -10 8" fill="none" stroke="#111" stroke-width="3"/>
      <ellipse cx="111" cy="76" rx="12" ry="4" fill="#e8e4da" stroke="#111" stroke-width="2"/>
    </symbol>
  </defs>

  <rect x="0" y="0" width="400" height="340" fill="#f4f1ea"/>
  <rect x="414" y="0" width="400" height="340" fill="#f4f1ea"/>
  <rect x="828" y="0" width="400" height="340" fill="#f4f1ea"/>

  <!-- ===================== PANEL 1 ===================== -->
  <g clip-path="url(#p1)">
    <line x1="10" y1="314" x2="390" y2="314" stroke="#111" stroke-width="2"/>
    <line x1="255" y1="230" x2="255" y2="314" stroke="#111" stroke-width="1.5" opacity="0.4"/>
    <use href="#machine" x="250" y="118" width="140" height="200"/>
    <use href="#clanker" x="283" y="147" width="74" height="40"/>
    <use href="#dailbert" x="52" y="140" width="118" height="172"/>

    <path d="M126 60 L116 82 L142 62 Z" fill="#fff" stroke="#111" stroke-width="2.5"/>
    <rect x="92" y="16" width="152" height="46" rx="14" fill="#fff" stroke="#111" stroke-width="2.5"/>
    <text x="168" y="37" font-family="'Comic Sans MS','Segoe Print',cursive" font-size="14" text-anchor="middle" fill="#111">Where's the</text>
    <text x="168" y="54" font-family="'Comic Sans MS','Segoe Print',cursive" font-size="14" text-anchor="middle" fill="#111">coffee button?</text>

    <line x1="303" y1="58" x2="303" y2="146" stroke="#111" stroke-width="1.5" stroke-dasharray="4 4"/>
    <rect x="258" y="14" width="138" height="44" rx="1" fill="#fff" stroke="#111" stroke-width="2.5"/>
    <rect x="262" y="18" width="130" height="36" rx="1" fill="none" stroke="#111" stroke-width="1"/>
    <text x="327" y="34" font-family="'Comic Sans MS','Segoe Print',cursive" font-size="14" text-anchor="middle" fill="#111">I swapped it for</text>
    <text x="327" y="51" font-family="'Comic Sans MS','Segoe Print',cursive" font-size="14" text-anchor="middle" fill="#111">a KPI dashboard.</text>
  </g>

  <!-- ===================== PANEL 2 ===================== -->
  <g clip-path="url(#p2)">
    <line x1="424" y1="314" x2="804" y2="314" stroke="#111" stroke-width="2"/>
    <use href="#machine" x="664" y="118" width="140" height="200"/>
    <use href="#clanker" x="697" y="147" width="74" height="40"/>
    <use href="#dailbert" x="430" y="152" width="108" height="158"/>
    <use href="#doug" x="540" y="146" width="126" height="174"/>

    <line x1="712" y1="56" x2="720" y2="146" stroke="#111" stroke-width="1.5" stroke-dasharray="4 4"/>
    <rect x="628" y="12" width="164" height="44" rx="1" fill="#fff" stroke="#111" stroke-width="2.5"/>
    <rect x="632" y="16" width="156" height="36" rx="1" fill="none" stroke="#111" stroke-width="1"/>
    <text x="710" y="32" font-family="'Comic Sans MS','Segoe Print',cursive" font-size="14" text-anchor="middle" fill="#111">Justify your role</text>
    <text x="710" y="49" font-family="'Comic Sans MS','Segoe Print',cursive" font-size="14" text-anchor="middle" fill="#111">to earn coffee.</text>

    <path d="M556 92 L560 116 L578 92 Z" fill="#fff" stroke="#111" stroke-width="2.5"/>
    <rect x="470" y="60" width="140" height="36" rx="14" fill="#fff" stroke="#111" stroke-width="2.5"/>
    <text x="540" y="83" font-family="'Comic Sans MS','Segoe Print',cursive" font-size="14" text-anchor="middle" fill="#111">Ooh! A pop quiz!</text>
  </g>

  <!-- ===================== PANEL 3 ===================== -->
  <g clip-path="url(#p3)">
    <line x1="838" y1="314" x2="1218" y2="314" stroke="#111" stroke-width="2"/>
    <use href="#machine" x="1064" y="118" width="140" height="200"/>
    <use href="#dailbert" x="834" y="154" width="110" height="162"/>
    <use href="#doug" x="900" y="152" width="126" height="174"/>

    <path d="M1134 228 C1140 238 1128 244 1135 254" fill="none" stroke="#111" stroke-width="3" stroke-linecap="round"/>
    <rect x="1118" y="252" width="34" height="30" rx="2" fill="#fff" stroke="#111" stroke-width="3"/>
    <ellipse cx="1135" cy="254" rx="15" ry="4" fill="#d9d4c8" stroke="#111" stroke-width="2"/>
    <path d="M1128 246 q3 -8 -1 -14" fill="none" stroke="#111" stroke-width="1.5" opacity="0.5"/>
    <path d="M1142 246 q3 -8 -1 -14" fill="none" stroke="#111" stroke-width="1.5" opacity="0.5"/>

    <use href="#clanker" x="992" y="224" width="34" height="24"/>

    <path d="M930 56 L950 82 L948 56 Z" fill="#fff" stroke="#111" stroke-width="2.5"/>
    <rect x="846" y="12" width="158" height="46" rx="14" fill="#fff" stroke="#111" stroke-width="2.5"/>
    <text x="925" y="33" font-family="'Comic Sans MS','Segoe Print',cursive" font-size="14" text-anchor="middle" fill="#111">I keep Dailbert</text>
    <text x="925" y="50" font-family="'Comic Sans MS','Segoe Print',cursive" font-size="14" text-anchor="middle" fill="#111">motivated!</text>

    <line x1="1064" y1="184" x2="1018" y2="232" stroke="#111" stroke-width="1.5" stroke-dasharray="4 4"/>
    <rect x="1028" y="152" width="110" height="34" rx="1" fill="#fff" stroke="#111" stroke-width="2.5"/>
    <rect x="1032" y="156" width="102" height="26" rx="1" fill="none" stroke="#111" stroke-width="1"/>
    <text x="1083" y="174" font-family="'Comic Sans MS','Segoe Print',cursive" font-size="14" text-anchor="middle" fill="#111">Approved.</text>

    <path d="M894 192 L884 214 L910 194 Z" fill="#fff" stroke="#111" stroke-width="2.5"/>
    <rect x="836" y="150" width="118" height="44" rx="14" fill="#fff" stroke="#111" stroke-width="2.5"/>
    <text x="895" y="170" font-family="'Comic Sans MS','Segoe Print',cursive" font-size="14" text-anchor="middle" fill="#111">There's my</text>
    <text x="895" y="187" font-family="'Comic Sans MS','Segoe Print',cursive" font-size="14" text-anchor="middle" fill="#111">review.</text>
  </g>

  <rect x="1.5" y="1.5" width="397" height="337" rx="3" fill="none" stroke="#111" stroke-width="2.5"/>
  <rect x="415.5" y="1.5" width="397" height="337" rx="3" fill="none" stroke="#111" stroke-width="2.5"/>
  <rect x="829.5" y="1.5" width="397" height="337" rx="3" fill="none" stroke="#111" stroke-width="2.5"/>
</svg>