<svg xmlns="http://www.w3.org/2000/svg" viewBox="0 0 1228 388" width="1228" height="388" font-family="Georgia,serif">
    <rect width="1228" height="388" fill="#f4f1ea"/>
    <text x="6" y="29" font-family="Georgia,serif" font-weight="bold" font-size="27" letter-spacing="2" fill="#111">DAILBERT</text>
    <text x="1222" y="19" text-anchor="end" font-family="Georgia,serif" font-style="italic" font-size="16" fill="#111">Onboarding</text>
    <text x="1222" y="34" text-anchor="end" font-family="'Courier New',monospace" font-size="12" fill="#111" opacity="0.65">2026-03-09</text>
    <line x1="6" y1="37" x2="1222" y2="37" stroke="#111" stroke-width="2"/>
    <g transform="translate(0,40)">
  <defs>
    <symbol id="s-dailbert" viewBox="0 0 100 170">
      <path d="M22 170 L26 100 Q28 84 50 82 Q72 84 74 100 L78 170 Z" fill="#f4f1ea" stroke="#111" stroke-width="3"/>
      <path d="M50 82 L44 96 L50 108 L56 96 Z" fill="#111"/>
      <rect x="44" y="70" width="12" height="14" fill="#f4f1ea" stroke="#111" stroke-width="3"/>
      <ellipse cx="50" cy="46" rx="24" ry="28" fill="#f4f1ea" stroke="#111" stroke-width="3"/>
      <path d="M50 18 q11 -9 4 -15 q-1 6 -8 5" fill="none" stroke="#111" stroke-width="3"/>
      <circle cx="40" cy="46" r="8" fill="#f4f1ea" stroke="#111" stroke-width="2.5"/>
      <circle cx="60" cy="46" r="8" fill="#f4f1ea" stroke="#111" stroke-width="2.5"/>
      <line x1="48" y1="46" x2="52" y2="46" stroke="#111" stroke-width="2.5"/>
      <line x1="32" y1="45" x2="27" y2="43" stroke="#111" stroke-width="2.5"/>
      <line x1="68" y1="45" x2="73" y2="43" stroke="#111" stroke-width="2.5"/>
      <circle cx="40" cy="46" r="2" fill="#111"/>
      <circle cx="60" cy="46" r="2" fill="#111"/>
      <path d="M42 61 q8 3 16 0" fill="none" stroke="#111" stroke-width="2.5"/>
    </symbol>
    <symbol id="s-doug" viewBox="0 0 100 170">
      <path d="M20 170 L24 102 Q26 86 50 84 Q74 86 76 102 L80 170 Z" fill="#f4f1ea" stroke="#111" stroke-width="3"/>
      <rect x="44" y="70" width="12" height="16" fill="#f4f1ea" stroke="#111" stroke-width="3"/>
      <circle cx="50" cy="46" r="30" fill="#f4f1ea" stroke="#111" stroke-width="3"/>
      <circle cx="40" cy="42" r="3" fill="#111"/>
      <circle cx="60" cy="42" r="3" fill="#111"/>
      <path d="M36 54 q14 15 28 0" fill="none" stroke="#111" stroke-width="3"/>
      <path d="M76 108 Q92 120 86 138" fill="none" stroke="#111" stroke-width="3"/>
      <rect x="72" y="132" width="20" height="18" rx="2" fill="#f4f1ea" stroke="#111" stroke-width="3"/>
      <path d="M92 136 q8 0 8 6 q0 6 -8 6" fill="none" stroke="#111" stroke-width="3"/>
      <path d="M78 128 q-2 -4 2 -8" fill="none" stroke="#111" stroke-width="2"/>
      <path d="M86 128 q-2 -4 2 -8" fill="none" stroke="#111" stroke-width="2"/>
    </symbol>
    <symbol id="s-boss" viewBox="0 0 100 170">
      <path d="M20 170 L24 100 Q26 84 50 82 Q74 84 76 100 L80 170 Z" fill="#111" stroke="#111" stroke-width="3"/>
      <path d="M50 84 L41 170 L59 170 Z" fill="#f4f1ea" stroke="#111" stroke-width="2"/>
      <path d="M50 86 L46 100 L50 132 L54 100 Z" fill="#3a3a3a" stroke="#111" stroke-width="1.5"/>
      <rect x="44" y="70" width="12" height="14" fill="#f4f1ea" stroke="#111" stroke-width="3"/>
      <ellipse cx="50" cy="48" rx="24" ry="26" fill="#f4f1ea" stroke="#111" stroke-width="3"/>
      <path d="M34 26 L29 2 L45 24 Z" fill="#111"/>
      <path d="M66 26 L71 2 L55 24 Z" fill="#111"/>
      <path d="M31 24 Q50 15 69 24" fill="none" stroke="#111" stroke-width="3"/>
      <circle cx="42" cy="48" r="1.7" fill="#111"/>
      <circle cx="58" cy="48" r="1.7" fill="#111"/>
      <path d="M44 60 q6 2 12 0" fill="none" stroke="#111" stroke-width="2.5"/>
    </symbol>
    <symbol id="s-newhire" viewBox="0 0 100 170">
      <path d="M22 170 L26 100 Q28 84 50 82 Q72 84 74 100 L78 170 Z" fill="#f4f1ea" stroke="#111" stroke-width="3"/>
      <rect x="44" y="70" width="12" height="14" fill="#f4f1ea" stroke="#111" stroke-width="3"/>
      <ellipse cx="50" cy="46" rx="23" ry="27" fill="#f4f1ea" stroke="#111" stroke-width="3"/>
      <path d="M28 42 Q26 18 50 16 Q74 18 72 42 Q66 27 50 27 Q40 31 41 45 Q36 34 28 42 Z" fill="#111"/>
      <circle cx="42" cy="46" r="2.4" fill="#111"/>
      <circle cx="58" cy="46" r="2.4" fill="#111"/>
      <path d="M45 59 q5 2 10 0" fill="none" stroke="#111" stroke-width="2.5"/>
      <path d="M42 84 L48 110 M58 84 L52 110" fill="none" stroke="#111" stroke-width="2"/>
      <rect x="44" y="110" width="16" height="12" rx="1.5" fill="#f4f1ea" stroke="#111" stroke-width="2"/>
      <line x1="47" y1="115" x2="57" y2="115" stroke="#111" stroke-width="1.5"/>
      <line x1="47" y1="118" x2="54" y2="118" stroke="#111" stroke-width="1.5"/>
    </symbol>
    <symbol id="s-clanker" viewBox="0 0 100 100">
      <line x1="50" y1="18" x2="50" y2="6" stroke="#111" stroke-width="3"/>
      <circle cx="50" cy="5" r="3.5" fill="#111"/>
      <rect x="22" y="18" width="56" height="50" rx="6" fill="#f4f1ea" stroke="#111" stroke-width="3"/>
      <rect x="16" y="34" width="6" height="16" rx="2" fill="#111"/>
      <rect x="78" y="34" width="6" height="16" rx="2" fill="#111"/>
      <rect x="30" y="34" width="16" height="7" rx="3.5" fill="#111"/>
      <rect x="54" y="34" width="16" height="7" rx="3.5" fill="#111"/>
      <line x1="28" y1="30" x2="34" y2="26" stroke="#111" stroke-width="1.5"/>
      <line x1="72" y1="30" x2="66" y2="26" stroke="#111" stroke-width="1.5"/>
      <rect x="34" y="50" width="32" height="10" rx="2" fill="#f4f1ea" stroke="#111" stroke-width="2"/>
      <line x1="40" y1="50" x2="40" y2="60" stroke="#111" stroke-width="1.5"/>
      <line x1="46" y1="50" x2="46" y2="60" stroke="#111" stroke-width="1.5"/>
      <line x1="52" y1="50" x2="52" y2="60" stroke="#111" stroke-width="1.5"/>
      <line x1="58" y1="50" x2="58" y2="60" stroke="#111" stroke-width="1.5"/>
    </symbol>
  </defs>

  <!-- PANEL 1 -->
  <rect x="2" y="6" width="396" height="328" rx="3" fill="#f4f1ea" stroke="#111" stroke-width="3"/>
  <rect x="18" y="16" width="86" height="24" rx="2" fill="#f4f1ea" stroke="#111" stroke-width="2"/>
  <text x="61" y="33" text-anchor="middle" font-family="'Comic Sans MS','Chalkboard SE','Comic Neue',sans-serif" font-size="12" fill="#111">EFFICIENCY</text>
  <line x1="10" y1="305" x2="390" y2="305" stroke="#111" stroke-width="2"/>
  <use href="#s-boss" x="16" y="150" width="92" height="156"/>
  <use href="#s-newhire" x="150" y="148" width="92" height="160"/>
  <use href="#s-doug" x="286" y="150" width="100" height="165"/>
  <ellipse cx="112" cy="60" rx="86" ry="34" fill="#f4f1ea" stroke="#111" stroke-width="2.5"/>
  <path d="M92 88 L72 150 L108 84 Z" fill="#f4f1ea" stroke="#111" stroke-width="2.5"/>
  <text x="112" y="55" text-anchor="middle" font-family="'Comic Sans MS','Chalkboard SE','Comic Neue',sans-serif" font-size="14" fill="#111">New hire! The clanker</text>
  <text x="112" y="73" text-anchor="middle" font-family="'Comic Sans MS','Chalkboard SE','Comic Neue',sans-serif" font-size="14" fill="#111">does onboarding now.</text>
  <ellipse cx="332" cy="50" rx="58" ry="26" fill="#f4f1ea" stroke="#111" stroke-width="2.5"/>
  <path d="M338 72 L344 150 L352 68 Z" fill="#f4f1ea" stroke="#111" stroke-width="2.5"/>
  <text x="332" y="46" text-anchor="middle" font-family="'Comic Sans MS','Chalkboard SE','Comic Neue',sans-serif" font-size="14" fill="#111">You'll fit</text>
  <text x="332" y="63" text-anchor="middle" font-family="'Comic Sans MS','Chalkboard SE','Comic Neue',sans-serif" font-size="14" fill="#111">right in!</text>

  <!-- PANEL 2 -->
  <rect x="416" y="6" width="396" height="328" rx="3" fill="#f4f1ea" stroke="#111" stroke-width="3"/>
  <use href="#s-dailbert" x="428" y="185" width="54" height="100"/>
  <rect x="430" y="266" width="376" height="70" fill="#f4f1ea" stroke="#111" stroke-width="2"/>
  <line x1="430" y1="266" x2="806" y2="266" stroke="#111" stroke-width="2"/>
  <use href="#s-newhire" x="655" y="150" width="95" height="170"/>
  <rect x="549" y="256" width="22" height="12" fill="#f4f1ea" stroke="#111" stroke-width="2"/>
  <ellipse cx="560" cy="268" rx="20" ry="5" fill="#f4f1ea" stroke="#111" stroke-width="2"/>
  <rect x="486" y="148" width="150" height="112" rx="5" fill="#111"/>
  <rect x="494" y="156" width="134" height="96" fill="#dfe6e6"/>
  <line x1="500" y1="245" x2="622" y2="163" stroke="#c3cccc" stroke-width="2"/>
  <line x1="500" y1="230" x2="560" y2="188" stroke="#c3cccc" stroke-width="2"/>
  <use href="#s-clanker" x="522" y="163" width="76" height="76"/>
  <rect x="612" y="34" width="194" height="84" fill="#f4f1ea" stroke="#111" stroke-width="2.5"/>
  <rect x="617" y="39" width="184" height="74" fill="none" stroke="#111" stroke-width="1"/>
  <line x1="662" y1="118" x2="600" y2="150" stroke="#111" stroke-width="1.5" stroke-dasharray="4 4"/>
  <text x="709" y="61" text-anchor="middle" font-family="'Comic Sans MS','Chalkboard SE','Comic Neue',sans-serif" font-size="14" fill="#111">Hello, Sam. I'll watch</text>
  <text x="709" y="80" text-anchor="middle" font-family="'Comic Sans MS','Chalkboard SE','Comic Neue',sans-serif" font-size="14" fill="#111">how you work all week.</text>
  <text x="709" y="99" text-anchor="middle" font-family="'Comic Sans MS','Chalkboard SE','Comic Neue',sans-serif" font-size="14" fill="#111">That's how I learn a job.</text>

  <!-- PANEL 3 -->
  <rect x="830" y="6" width="396" height="328" rx="3" fill="#f4f1ea" stroke="#111" stroke-width="3"/>
  <rect x="845" y="262" width="366" height="74" fill="#f4f1ea" stroke="#111" stroke-width="2"/>
  <line x1="845" y1="262" x2="1211" y2="262" stroke="#111" stroke-width="2"/>
  <rect x="858" y="172" width="118" height="88" rx="4" fill="#111"/>
  <rect x="865" y="179" width="104" height="74" fill="#c9d1d1"/>
  <rect x="910" y="254" width="16" height="8" fill="#f4f1ea" stroke="#111" stroke-width="2"/>
  <g opacity="0.5">
    <use href="#s-clanker" x="888" y="184" width="58" height="58"/>
  </g>
  <use href="#s-doug" x="995" y="150" width="108" height="172"/>
  <use href="#s-newhire" x="1115" y="168" width="84" height="150"/>
  <ellipse cx="1072" cy="50" rx="80" ry="30" fill="#f4f1ea" stroke="#111" stroke-width="2.5"/>
  <path d="M1058 76 L1050 150 L1074 72 Z" fill="#f4f1ea" stroke="#111" stroke-width="2.5"/>
  <text x="1072" y="46" text-anchor="middle" font-family="'Comic Sans MS','Chalkboard SE','Comic Neue',sans-serif" font-size="14" fill="#111">It learned mine</text>
  <text x="1072" y="64" text-anchor="middle" font-family="'Comic Sans MS','Chalkboard SE','Comic Neue',sans-serif" font-size="14" fill="#111">on a Tuesday.</text>
</g>
    <text x="1218" y="372" text-anchor="end" font-family="'Segoe Script','Comic Sans MS',cursive" font-style="italic" font-size="11" fill="#111" opacity="0.32">Matt Clanker</text>
    
  </svg>