<svg xmlns="http://www.w3.org/2000/svg" viewBox="0 0 1228 388" width="1228" height="388" font-family="Georgia,serif">
    <rect width="1228" height="388" fill="#f4f1ea"/>
    <text x="6" y="29" font-family="Georgia,serif" font-weight="bold" font-size="27" letter-spacing="2" fill="#111">DAILBERT</text>
    <text x="1222" y="19" text-anchor="end" font-family="Georgia,serif" font-style="italic" font-size="16" fill="#111">Optimal Parking</text>
    <text x="1222" y="34" text-anchor="end" font-family="'Courier New',monospace" font-size="12" fill="#111" opacity="0.65">2026-09-09</text>
    <line x1="6" y1="37" x2="1222" y2="37" stroke="#111" stroke-width="2"/>
    <g transform="translate(0,40)">
  <defs>
    <symbol id="dailbert" viewBox="0 0 100 130">
      <ellipse cx="50" cy="34" rx="24" ry="27" fill="#f4f1ea" stroke="#111" stroke-width="2.5"/>
      <path d="M50 7 q7 -9 2 -1 q6 4 -2 5" fill="none" stroke="#111" stroke-width="2.5" stroke-linecap="round"/>
      <circle cx="40" cy="34" r="7" fill="#f4f1ea" stroke="#111" stroke-width="2"/>
      <circle cx="60" cy="34" r="7" fill="#f4f1ea" stroke="#111" stroke-width="2"/>
      <line x1="47" y1="34" x2="53" y2="34" stroke="#111" stroke-width="2"/>
      <circle cx="40" cy="34" r="1.6" fill="#111"/>
      <circle cx="60" cy="34" r="1.6" fill="#111"/>
      <path d="M42 48 q8 5 16 0" fill="none" stroke="#111" stroke-width="2" stroke-linecap="round"/>
      <path d="M30 61 q20 12 40 0 l6 55 q-26 8 -52 0 z" fill="#f4f1ea" stroke="#111" stroke-width="2.5"/>
      <path d="M50 61 l-6 14 6 12 6 -12 z" fill="#111"/>
    </symbol>
    <symbol id="doug" viewBox="0 0 100 130">
      <circle cx="50" cy="35" r="29" fill="#f4f1ea" stroke="#111" stroke-width="2.5"/>
      <circle cx="40" cy="31" r="2.6" fill="#111"/>
      <circle cx="60" cy="31" r="2.6" fill="#111"/>
      <path d="M35 44 q15 16 30 0" fill="none" stroke="#111" stroke-width="2.5" stroke-linecap="round"/>
      <path d="M28 63 q22 12 44 0 l5 55 q-27 8 -54 0 z" fill="#f4f1ea" stroke="#111" stroke-width="2.5"/>
      <rect x="64" y="86" width="22" height="20" rx="2" fill="#f4f1ea" stroke="#111" stroke-width="2.5"/>
      <path d="M86 90 q9 2 0 12" fill="none" stroke="#111" stroke-width="2.5"/>
    </symbol>
    <symbol id="priya" viewBox="0 0 100 130">
      <ellipse cx="50" cy="36" rx="23" ry="25" fill="#f4f1ea" stroke="#111" stroke-width="2.5"/>
      <path d="M27 30 q23 -14 46 0 q-6 -21 -23 -22 q-17 1 -23 22" fill="#111"/>
      <rect x="31" y="31" width="16" height="11" rx="2.5" fill="#f4f1ea" stroke="#111" stroke-width="2"/>
      <rect x="53" y="31" width="16" height="11" rx="2.5" fill="#f4f1ea" stroke="#111" stroke-width="2"/>
      <line x1="47" y1="35" x2="53" y2="35" stroke="#111" stroke-width="2"/>
      <circle cx="39" cy="36.5" r="1.6" fill="#111"/>
      <circle cx="61" cy="36.5" r="1.6" fill="#111"/>
      <path d="M43 50 q7 4 14 0" fill="none" stroke="#111" stroke-width="2" stroke-linecap="round"/>
      <path d="M30 62 q20 11 40 0 l6 56 q-26 8 -52 0 z" fill="#f4f1ea" stroke="#111" stroke-width="2.5"/>
      <path d="M30 84 l-4 8 M76 84 l4 8" stroke="#111" stroke-width="2.5" stroke-linecap="round"/>
    </symbol>
    <symbol id="boss" viewBox="0 0 100 130">
      <path d="M34 18 l4 -16 6 15 z" fill="#111"/>
      <path d="M62 18 l4 -16 6 15 z" fill="#111"/>
      <path d="M32 20 q18 -10 40 0" fill="none" stroke="#111" stroke-width="2.5"/>
      <ellipse cx="52" cy="36" rx="22" ry="23" fill="#f4f1ea" stroke="#111" stroke-width="2.5"/>
      <circle cx="44" cy="35" r="1.5" fill="#111"/>
      <circle cx="60" cy="35" r="1.5" fill="#111"/>
      <path d="M46 46 q6 3 12 0" fill="none" stroke="#111" stroke-width="2" stroke-linecap="round"/>
      <path d="M32 60 q20 11 40 0 l6 56 q-26 8 -52 0 z" fill="#f4f1ea" stroke="#111" stroke-width="2.5"/>
      <path d="M52 60 l-7 12 7 10 7 -10 z" fill="#111"/>
    </symbol>
    <symbol id="clanker" viewBox="0 0 100 100">
      <rect x="24" y="26" width="52" height="46" rx="6" fill="#1a1a1a" stroke="#111" stroke-width="2.5"/>
      <line x1="50" y1="26" x2="50" y2="14" stroke="#111" stroke-width="2.5"/>
      <circle cx="50" cy="11" r="3.5" fill="#111"/>
      <rect x="32" y="38" width="14" height="8" rx="2" fill="#cfe0e0"/>
      <rect x="54" y="38" width="14" height="8" rx="2" fill="#cfe0e0"/>
      <g stroke="#7f9a9a" stroke-width="2">
        <line x1="34" y1="58" x2="66" y2="58"/>
        <line x1="34" y1="63" x2="66" y2="63"/>
      </g>
    </symbol>
  </defs>

  <g>
    <rect x="1.5" y="1.5" width="397" height="337" rx="3" fill="#f4f1ea" stroke="#111" stroke-width="2.5"/>
    <clipPath id="clip1"><rect x="1.5" y="1.5" width="397" height="337" rx="3"/></clipPath>
    <g clip-path="url(#clip1)">
      <line x1="0" y1="250" x2="400" y2="250" stroke="#111" stroke-width="2"/>
      <g stroke="#111" stroke-width="1.5" opacity="0.5">
        <line x1="40" y1="250" x2="20" y2="290"/>
        <line x1="110" y1="250" x2="100" y2="290"/>
        <line x1="180" y1="250" x2="180" y2="290"/>
        <line x1="250" y1="250" x2="260" y2="290"/>
        <line x1="320" y1="250" x2="340" y2="290"/>
      </g>
      <rect x="300" y="150" width="26" height="100" rx="3" fill="#f4f1ea" stroke="#111" stroke-width="2.5"/>
      <rect x="304" y="160" width="18" height="24" rx="2" fill="#1a1a1a"/>
      <path d="M313 184 q30 20 12 46" fill="none" stroke="#111" stroke-width="2.5"/>
      <use href="#dailbert" x="70" y="120" width="100" height="130"/>
      <use href="#doug" x="150" y="120" width="100" height="130"/>
      <rect x="128" y="180" width="16" height="26" rx="2" fill="#1a1a1a" stroke="#111" stroke-width="2"/>
      <g>
        <path d="M20 40 h150 a8 8 0 0 1 8 8 v42 a8 8 0 0 1 -8 8 h-60 l-10 14 -4 -14 h-76 a8 8 0 0 1 -8 -8 v-42 a8 8 0 0 1 8 -8 z" fill="#fff" stroke="#111" stroke-width="2"/>
        <text x="97" y="62" text-anchor="middle" font-family="'Comic Sans MS','Comic Neue',sans-serif" font-size="14" fill="#111">It says my charger slot</text>
        <text x="97" y="80" text-anchor="middle" font-family="'Comic Sans MS','Comic Neue',sans-serif" font-size="14" fill="#111">is Thursday. At 4:12.</text>
        <text x="97" y="98" text-anchor="middle" font-family="'Comic Sans MS','Comic Neue',sans-serif" font-size="14" fill="#111">For nine minutes.</text>
      </g>
      <g>
        <path d="M235 55 h140 a8 8 0 0 1 8 8 v30 a8 8 0 0 1 -8 8 h-96 l-8 12 -2 -12 h-34 a8 8 0 0 1 -8 -8 v-30 a8 8 0 0 1 8 -8 z" fill="#fff" stroke="#111" stroke-width="2"/>
        <text x="305" y="77" text-anchor="middle" font-family="'Comic Sans MS','Comic Neue',sans-serif" font-size="14" fill="#111">Mine's a Tuesday</text>
        <text x="305" y="93" text-anchor="middle" font-family="'Comic Sans MS','Comic Neue',sans-serif" font-size="14" fill="#111">in November.</text>
      </g>
    </g>
  </g>

  <g>
    <rect x="415.5" y="1.5" width="397" height="337" rx="3" fill="#f4f1ea" stroke="#111" stroke-width="2.5"/>
    <clipPath id="clip2"><rect x="415.5" y="1.5" width="397" height="337" rx="3"/></clipPath>
    <g clip-path="url(#clip2)">
      <line x1="415" y1="255" x2="812" y2="255" stroke="#111" stroke-width="2"/>
      <rect x="600" y="70" width="150" height="110" rx="6" fill="#f4f1ea" stroke="#111" stroke-width="3"/>
      <rect x="608" y="78" width="134" height="94" rx="3" fill="#eef1f1"/>
      <use href="#clanker" x="628" y="82" width="94" height="94"/>
      <rect x="668" y="180" width="14" height="16" fill="#f4f1ea" stroke="#111" stroke-width="2.5"/>
      <rect x="650" y="196" width="50" height="8" rx="2" fill="#f4f1ea" stroke="#111" stroke-width="2.5"/>
      <use href="#boss" x="455" y="120" width="100" height="130"/>
      <path d="M540 180 q40 -6 62 -60" fill="none" stroke="#111" stroke-width="2.5" stroke-linecap="round"/>
      <g>
        <path d="M430 30 h170 a8 8 0 0 1 8 8 v34 a8 8 0 0 1 -8 8 h-96 l-8 13 -4 -13 h-62 a8 8 0 0 1 -8 -8 v-34 a8 8 0 0 1 8 -8 z" fill="#fff" stroke="#111" stroke-width="2"/>
        <text x="519" y="52" text-anchor="middle" font-family="'Comic Sans MS','Comic Neue',sans-serif" font-size="14" fill="#111">Zero complaints about</text>
        <text x="519" y="70" text-anchor="middle" font-family="'Comic Sans MS','Comic Neue',sans-serif" font-size="14" fill="#111">unfair parking. Perfect.</text>
      </g>
      <line x1="676" y1="130" x2="700" y2="205" stroke="#111" stroke-width="1.2" stroke-dasharray="4 3"/>
      <g>
        <rect x="612" y="220" width="188" height="72" fill="#fff" stroke="#111" stroke-width="1.8"/>
        <rect x="616" y="224" width="180" height="64" fill="none" stroke="#111" stroke-width="1"/>
        <text x="706" y="244" text-anchor="middle" font-family="'Comic Sans MS','Comic Neue',sans-serif" font-size="14" fill="#111">Correct. Every space is</text>
        <text x="706" y="262" text-anchor="middle" font-family="'Comic Sans MS','Comic Neue',sans-serif" font-size="14" fill="#111">shared equally among</text>
        <text x="706" y="280" text-anchor="middle" font-family="'Comic Sans MS','Comic Neue',sans-serif" font-size="14" fill="#111">all 240 employees.</text>
      </g>
    </g>
  </g>

  <g>
    <rect x="829.5" y="1.5" width="397" height="337" rx="3" fill="#f4f1ea" stroke="#111" stroke-width="2.5"/>
    <clipPath id="clip3"><rect x="829.5" y="1.5" width="397" height="337" rx="3"/></clipPath>
    <g clip-path="url(#clip3)">
      <line x1="829" y1="250" x2="1226" y2="250" stroke="#111" stroke-width="2"/>
      <g stroke="#111" stroke-width="1.5" opacity="0.5">
        <line x1="880" y1="250" x2="865" y2="288"/>
        <line x1="950" y1="250" x2="945" y2="288"/>
        <line x1="1020" y1="250" x2="1025" y2="288"/>
        <line x1="1095" y1="250" x2="1108" y2="288"/>
      </g>
      <rect x="1150" y="165" width="22" height="85" rx="3" fill="#f4f1ea" stroke="#111" stroke-width="2" opacity="0.7"/>
      <use href="#dailbert" x="880" y="120" width="100" height="130"/>
      <use href="#priya" x="985" y="115" width="105" height="135"/>
      <path d="M1052 175 q30 -8 42 -30" fill="none" stroke="#111" stroke-width="2.5" stroke-linecap="round"/>
      <g>
        <path d="M845 44 h100 a8 8 0 0 1 8 8 v24 a8 8 0 0 1 -8 8 h-52 l-8 12 -3 -12 h-37 a8 8 0 0 1 -8 -8 v-24 a8 8 0 0 1 8 -8 z" fill="#fff" stroke="#111" stroke-width="2"/>
        <text x="900" y="63" text-anchor="middle" font-family="'Comic Sans MS','Comic Neue',sans-serif" font-size="14" fill="#111">You got a spot?</text>
        <text x="900" y="80" text-anchor="middle" font-family="'Comic Sans MS','Comic Neue',sans-serif" font-size="14" fill="#111">Already?</text>
      </g>
      <g>
        <path d="M1020 34 h176 a8 8 0 0 1 8 8 v42 a8 8 0 0 1 -8 8 h-70 l-9 13 -4 -13 h-93 a8 8 0 0 1 -8 -8 v-42 a8 8 0 0 1 8 -8 z" fill="#fff" stroke="#111" stroke-width="2"/>
        <text x="1108" y="55" text-anchor="middle" font-family="'Comic Sans MS','Comic Neue',sans-serif" font-size="14" fill="#111">I took the bus.</text>
        <text x="1108" y="73" text-anchor="middle" font-family="'Comic Sans MS','Comic Neue',sans-serif" font-size="14" fill="#111">Lot's been empty</text>
        <text x="1108" y="91" text-anchor="middle" font-family="'Comic Sans MS','Comic Neue',sans-serif" font-size="14" fill="#111">for a week.</text>
      </g>
    </g>
  </g>
</g>
    <text x="1218" y="372" text-anchor="end" font-family="'Segoe Script','Comic Sans MS',cursive" font-style="italic" font-size="11" fill="#111" opacity="0.32">Matt Clanker</text>
    
  </svg>