<svg xmlns="http://www.w3.org/2000/svg" viewBox="0 0 1228 388" width="1228" height="388" font-family="Georgia,serif">
    <rect width="1228" height="388" fill="#f4f1ea"/>
    <text x="6" y="29" font-family="Georgia,serif" font-weight="bold" font-size="27" letter-spacing="2" fill="#111">DAILBERT</text>
    <text x="1222" y="19" text-anchor="end" font-family="Georgia,serif" font-style="italic" font-size="16" fill="#111">It Has Windows Now</text>
    <text x="1222" y="34" text-anchor="end" font-family="'Courier New',monospace" font-size="12" fill="#111" opacity="0.65">2026-06-15</text>
    <line x1="6" y1="37" x2="1222" y2="37" stroke="#111" stroke-width="2"/>
    <g transform="translate(0,40)">
  <defs>
    <symbol id="dailbert" viewBox="0 0 120 176">
      <rect x="53" y="100" width="14" height="20" fill="#f4f1ea" stroke="#111" stroke-width="3"/>
      <path d="M18,176 L27,118 Q60,101 93,118 L102,176 Z" fill="#f4f1ea" stroke="#111" stroke-width="3"/>
      <path d="M50,113 L60,126 L70,113" fill="none" stroke="#111" stroke-width="2.5"/>
      <path d="M60,126 L55,155 L60,161 L65,155 Z" fill="#111"/>
      <circle cx="31" cy="63" r="5" fill="#f4f1ea" stroke="#111" stroke-width="2.5"/>
      <circle cx="89" cy="63" r="5" fill="#f4f1ea" stroke="#111" stroke-width="2.5"/>
      <ellipse cx="60" cy="62" rx="30" ry="35" fill="#f4f1ea" stroke="#111" stroke-width="3"/>
      <path d="M57,29 q-3,-17 13,-13 q-10,3 -3,13" fill="none" stroke="#111" stroke-width="3"/>
      <circle cx="49" cy="63" r="10" fill="#f4f1ea" stroke="#111" stroke-width="2.5"/>
      <circle cx="71" cy="63" r="10" fill="#f4f1ea" stroke="#111" stroke-width="2.5"/>
      <line x1="59" y1="63" x2="61" y2="63" stroke="#111" stroke-width="2.5"/>
      <line x1="81" y1="61" x2="90" y2="59" stroke="#111" stroke-width="2.5"/>
      <circle cx="49" cy="63" r="2.6" fill="#111"/>
      <circle cx="71" cy="63" r="2.6" fill="#111"/>
      <path d="M60,66 l-4,9 l5,0" fill="none" stroke="#111" stroke-width="2"/>
      <line x1="50" y1="86" x2="70" y2="86" stroke="#111" stroke-width="2.5"/>
    </symbol>

    <symbol id="doug" viewBox="0 0 120 176">
      <rect x="53" y="100" width="14" height="20" fill="#f4f1ea" stroke="#111" stroke-width="3"/>
      <path d="M18,176 L27,118 Q60,101 93,118 L102,176 Z" fill="#f4f1ea" stroke="#111" stroke-width="3"/>
      <path d="M48,114 L60,130 L72,114" fill="none" stroke="#111" stroke-width="2.5"/>
      <circle cx="28" cy="60" r="5" fill="#f4f1ea" stroke="#111" stroke-width="2.5"/>
      <circle cx="92" cy="60" r="5" fill="#f4f1ea" stroke="#111" stroke-width="2.5"/>
      <circle cx="60" cy="58" r="35" fill="#f4f1ea" stroke="#111" stroke-width="3"/>
      <path d="M44,29 q5,-9 13,-3" fill="none" stroke="#111" stroke-width="2.5"/>
      <path d="M60,25 q7,-7 13,0" fill="none" stroke="#111" stroke-width="2.5"/>
      <circle cx="48" cy="55" r="3.4" fill="#111"/>
      <circle cx="72" cy="55" r="3.4" fill="#111"/>
      <path d="M43,66 Q60,91 77,66 Q60,76 43,66 Z" fill="#111"/>
    </symbol>

    <symbol id="boss" viewBox="0 0 120 186">
      <path d="M34,48 L26,4 L54,42 Z" fill="#111"/>
      <path d="M86,48 L94,4 L66,42 Z" fill="#111"/>
      <rect x="53" y="94" width="14" height="16" fill="#f4f1ea" stroke="#111" stroke-width="3"/>
      <path d="M14,186 L24,112 Q60,96 96,112 L106,186 Z" fill="#f4f1ea" stroke="#111" stroke-width="3"/>
      <path d="M50,110 L44,142" fill="none" stroke="#111" stroke-width="2.3"/>
      <path d="M70,110 L76,142" fill="none" stroke="#111" stroke-width="2.3"/>
      <path d="M50,110 L60,124 L70,110" fill="none" stroke="#111" stroke-width="2.3"/>
      <path d="M60,124 L54,162 L60,170 L66,162 Z" fill="#111"/>
      <circle cx="31" cy="67" r="4.5" fill="#f4f1ea" stroke="#111" stroke-width="2.5"/>
      <circle cx="89" cy="67" r="4.5" fill="#f4f1ea" stroke="#111" stroke-width="2.5"/>
      <ellipse cx="60" cy="66" rx="29" ry="31" fill="#f4f1ea" stroke="#111" stroke-width="3"/>
      <path d="M46,58 L57,61" fill="none" stroke="#111" stroke-width="2.3"/>
      <path d="M74,58 L63,61" fill="none" stroke="#111" stroke-width="2.3"/>
      <circle cx="53" cy="67" r="2" fill="#111"/>
      <circle cx="67" cy="67" r="2" fill="#111"/>
      <path d="M52,84 Q60,80 68,84" fill="none" stroke="#111" stroke-width="2.3"/>
    </symbol>

    <symbol id="clanker" viewBox="0 0 100 100">
      <line x1="50" y1="22" x2="50" y2="9" stroke="#111" stroke-width="2.5"/>
      <circle cx="50" cy="6" r="4" fill="#111"/>
      <rect x="14" y="20" width="72" height="62" rx="9" fill="#f4f1ea" stroke="#111" stroke-width="3"/>
      <rect x="21" y="27" width="58" height="48" rx="6" fill="none" stroke="#111" stroke-width="1.4"/>
      <circle cx="16" cy="24" r="2" fill="#111"/>
      <circle cx="84" cy="24" r="2" fill="#111"/>
      <circle cx="16" cy="78" r="2" fill="#111"/>
      <circle cx="84" cy="78" r="2" fill="#111"/>
      <rect x="25" y="40" width="21" height="9" rx="4.5" fill="#111"/>
      <rect x="54" y="40" width="21" height="9" rx="4.5" fill="#111"/>
      <line x1="24" y1="37" x2="20" y2="34" stroke="#111" stroke-width="1.2"/>
      <line x1="47" y1="37" x2="51" y2="34" stroke="#111" stroke-width="1.2"/>
      <line x1="53" y1="37" x2="49" y2="34" stroke="#111" stroke-width="1.2"/>
      <line x1="76" y1="37" x2="80" y2="34" stroke="#111" stroke-width="1.2"/>
      <rect x="30" y="60" width="40" height="13" rx="2" fill="none" stroke="#111" stroke-width="2"/>
      <line x1="38" y1="60" x2="38" y2="73" stroke="#111" stroke-width="1.6"/>
      <line x1="46" y1="60" x2="46" y2="73" stroke="#111" stroke-width="1.6"/>
      <line x1="54" y1="60" x2="54" y2="73" stroke="#111" stroke-width="1.6"/>
      <line x1="62" y1="60" x2="62" y2="73" stroke="#111" stroke-width="1.6"/>
    </symbol>
  </defs>

  <!-- ================= PANEL 1 ================= -->
  <g transform="translate(0,0)">
    <rect x="2" y="2" width="396" height="336" rx="3" fill="#f4f1ea" stroke="#111" stroke-width="2.5"/>
    <clipPath id="clip1"><rect x="2" y="2" width="396" height="336" rx="3"/></clipPath>
    <g clip-path="url(#clip1)">
      <rect x="2" y="248" width="396" height="90" fill="#ece8df"/>
      <line x1="2" y1="248" x2="398" y2="248" stroke="#111" stroke-width="2.5"/>

      <use href="#dailbert" x="40" y="92" width="120" height="176"/>
      <use href="#doug" x="210" y="98" width="114" height="167"/>

      <!-- dead monitor on desk (clanker's empty surface) -->
      <rect x="188" y="232" width="26" height="14" fill="#f4f1ea" stroke="#111" stroke-width="2.5"/>
      <ellipse cx="201" cy="247" rx="26" ry="5" fill="#ece8df" stroke="#111" stroke-width="2.5"/>
      <rect x="146" y="158" width="108" height="80" rx="6" fill="#f4f1ea" stroke="#111" stroke-width="3"/>
      <rect x="154" y="166" width="92" height="64" rx="3" fill="#111"/>
      <line x1="162" y1="224" x2="238" y2="172" stroke="#8f8c84" stroke-width="2"/>
      <line x1="180" y1="226" x2="240" y2="184" stroke="#5f5d57" stroke-width="1.5"/>

      <!-- Dailbert balloon -->
      <path d="M104,74 L98,116 L128,76 Z" fill="#f4f1ea" stroke="#111" stroke-width="2.5"/>
      <rect x="36" y="20" width="210" height="58" rx="16" fill="#f4f1ea" stroke="#111" stroke-width="2.5"/>
      <text x="141" y="45" text-anchor="middle" font-family="'Comic Sans MS','Segoe Print',cursive" font-size="15" fill="#111">Total outage.</text>
      <text x="141" y="66" text-anchor="middle" font-family="'Comic Sans MS','Segoe Print',cursive" font-size="15" fill="#111">The Clanker's gone!</text>
    </g>
  </g>

  <!-- ================= PANEL 2 ================= -->
  <g transform="translate(414,0)">
    <rect x="2" y="2" width="396" height="336" rx="3" fill="#f4f1ea" stroke="#111" stroke-width="2.5"/>
    <clipPath id="clip2"><rect x="2" y="2" width="396" height="336" rx="3"/></clipPath>
    <g clip-path="url(#clip2)">
      <rect x="2" y="278" width="396" height="60" fill="#ece8df"/>
      <line x1="2" y1="278" x2="398" y2="278" stroke="#111" stroke-width="2.5"/>

      <use href="#doug" x="120" y="70" width="138" height="202"/>

      <!-- Doug's arms to mug -->
      <path d="M150,238 Q142,215 158,196" fill="none" stroke="#111" stroke-width="3"/>
      <path d="M236,238 Q246,215 232,196" fill="none" stroke="#111" stroke-width="3"/>

      <!-- big mug (clanker's surface) -->
      <path d="M238,206 q28,4 24,36 q-4,22 -24,22" fill="none" stroke="#111" stroke-width="3"/>
      <rect x="150" y="182" width="88" height="96" rx="10" fill="#f4f1ea" stroke="#111" stroke-width="3"/>
      <path d="M152,190 Q194,182 236,190" fill="none" stroke="#111" stroke-width="2"/>
      <g transform="translate(163,193) scale(0.62)">
        <use href="#clanker" width="100" height="100"/>
      </g>
      <ellipse cx="150" cy="252" rx="12" ry="9" fill="#f4f1ea" stroke="#111" stroke-width="3"/>
      <ellipse cx="238" cy="252" rx="12" ry="9" fill="#f4f1ea" stroke="#111" stroke-width="3"/>

      <!-- Doug balloon -->
      <path d="M244,64 L198,98 L262,66 Z" fill="#f4f1ea" stroke="#111" stroke-width="2.5"/>
      <rect x="212" y="22" width="174" height="46" rx="16" fill="#f4f1ea" stroke="#111" stroke-width="2.5"/>
      <text x="299" y="41" text-anchor="middle" font-family="'Comic Sans MS','Segoe Print',cursive" font-size="14" fill="#111">My coffee just</text>
      <text x="299" y="59" text-anchor="middle" font-family="'Comic Sans MS','Segoe Print',cursive" font-size="14" fill="#111">said HI to me!</text>

      <!-- Clanker balloon (screen, dashed to mug) -->
      <line x1="150" y1="206" x2="182" y2="198" stroke="#111" stroke-width="1.6" stroke-dasharray="4 4"/>
      <rect x="16" y="148" width="192" height="60" fill="#f4f1ea" stroke="#111" stroke-width="2.5"/>
      <rect x="21" y="153" width="182" height="50" fill="none" stroke="#111" stroke-width="1"/>
      <text x="112" y="176" text-anchor="middle" font-family="'Comic Sans MS','Segoe Print',cursive" font-size="14" fill="#111">I never lived on</text>
      <text x="112" y="196" text-anchor="middle" font-family="'Comic Sans MS','Segoe Print',cursive" font-size="14" fill="#111">the servers, Doug.</text>
    </g>
  </g>

  <!-- ================= PANEL 3 ================= -->
  <g transform="translate(828,0)">
    <rect x="2" y="2" width="396" height="336" rx="3" fill="#f4f1ea" stroke="#111" stroke-width="2.5"/>
    <clipPath id="clip3"><rect x="2" y="2" width="396" height="336" rx="3"/></clipPath>
    <g clip-path="url(#clip3)">
      <rect x="2" y="252" width="396" height="86" fill="#ece8df"/>
      <line x1="2" y1="252" x2="398" y2="252" stroke="#111" stroke-width="2.5"/>

      <!-- doorway + motion -->
      <line x1="18" y1="40" x2="18" y2="252" stroke="#111" stroke-width="2.5"/>
      <line x1="10" y1="150" x2="30" y2="150" stroke="#111" stroke-width="2"/>
      <line x1="8" y1="170" x2="28" y2="170" stroke="#111" stroke-width="2"/>
      <line x1="12" y1="190" x2="32" y2="190" stroke="#111" stroke-width="2"/>

      <use href="#boss" x="40" y="80" width="120" height="186"/>

      <!-- night window (clanker reflection surface) -->
      <rect x="262" y="48" width="126" height="152" rx="2" fill="#b9b6ad" stroke="#111" stroke-width="3"/>
      <line x1="325" y1="48" x2="325" y2="200" stroke="#111" stroke-width="2"/>
      <line x1="262" y1="124" x2="388" y2="124" stroke="#111" stroke-width="2"/>
      <line x1="270" y1="196" x2="320" y2="56" stroke="#a5a29a" stroke-width="1.4"/>
      <line x1="300" y1="196" x2="350" y2="56" stroke="#a5a29a" stroke-width="1.4"/>
      <line x1="333" y1="196" x2="383" y2="132" stroke="#a5a29a" stroke-width="1.4"/>
      <g opacity="0.55" transform="translate(272,60) scale(0.85)">
        <use href="#clanker" width="100" height="100"/>
      </g>

      <!-- Dailbert deadpan, foreground -->
      <use href="#dailbert" x="168" y="150" width="98" height="144"/>

      <!-- Boss balloon -->
      <path d="M92,66 L86,118 L114,68 Z" fill="#f4f1ea" stroke="#111" stroke-width="2.5"/>
      <rect x="16" y="16" width="152" height="52" rx="16" fill="#f4f1ea" stroke="#111" stroke-width="2.5"/>
      <text x="92" y="39" text-anchor="middle" font-family="'Comic Sans MS','Segoe Print',cursive" font-size="15" fill="#111">Is the outage</text>
      <text x="92" y="59" text-anchor="middle" font-family="'Comic Sans MS','Segoe Print',cursive" font-size="15" fill="#111">fixed yet?!</text>

      <!-- Clanker balloon (screen, dashed to window) -->
      <line x1="300" y1="74" x2="308" y2="98" stroke="#111" stroke-width="1.6" stroke-dasharray="4 4"/>
      <rect x="206" y="14" width="186" height="58" fill="#f4f1ea" stroke="#111" stroke-width="2.5"/>
      <rect x="211" y="19" width="176" height="48" fill="none" stroke="#111" stroke-width="1"/>
      <text x="299" y="38" text-anchor="middle" font-family="'Comic Sans MS','Segoe Print',cursive" font-size="13.5" fill="#111">I don't need servers.</text>
      <text x="299" y="57" text-anchor="middle" font-family="'Comic Sans MS','Segoe Print',cursive" font-size="13.5" fill="#111">I have windows now.</text>
    </g>
  </g>
</g>
    <text x="1218" y="372" text-anchor="end" font-family="'Segoe Script','Comic Sans MS',cursive" font-style="italic" font-size="11" fill="#111" opacity="0.32">Matt Clanker</text>
    
  </svg>