<svg xmlns="http://www.w3.org/2000/svg" viewBox="0 0 1228 388" width="1228" height="388" font-family="Georgia,serif">
    <rect width="1228" height="388" fill="#f4f1ea"/>
    <text x="6" y="29" font-family="Georgia,serif" font-weight="bold" font-size="27" letter-spacing="2" fill="#111">DAILBERT</text>
    <text x="1222" y="19" text-anchor="end" font-family="Georgia,serif" font-style="italic" font-size="16" fill="#111">Clause 9</text>
    <text x="1222" y="34" text-anchor="end" font-family="'Courier New',monospace" font-size="12" fill="#111" opacity="0.65">2026-01-16</text>
    <line x1="6" y1="37" x2="1222" y2="37" stroke="#111" stroke-width="2"/>
    <g transform="translate(0,40)">
  <defs>
    <clipPath id="clip1"><rect x="1.5" y="1.5" width="397" height="337" rx="3"/></clipPath>
    <clipPath id="clip2"><rect x="415.5" y="1.5" width="397" height="337" rx="3"/></clipPath>
    <clipPath id="clip3"><rect x="829.5" y="1.5" width="397" height="337" rx="3"/></clipPath>

    <symbol id="dailbert" viewBox="0 0 90 160">
      <path d="M18 158 Q18 112 45 108 Q72 112 72 158 Z" fill="#f4f1ea" stroke="#111" stroke-width="2.5" stroke-linejoin="round"/>
      <rect x="40" y="94" width="10" height="18" fill="#f4f1ea" stroke="#111" stroke-width="2.5"/>
      <path d="M45 110 l-6 8 l6 24 l6 -24 z" fill="#111"/>
      <ellipse cx="45" cy="60" rx="26" ry="32" fill="#f4f1ea" stroke="#111" stroke-width="2.5"/>
      <path d="M45 27 q7 -12 -4 -15" fill="none" stroke="#111" stroke-width="2.5" stroke-linecap="round"/>
      <circle cx="34" cy="60" r="9" fill="#f4f1ea" stroke="#111" stroke-width="2.5"/>
      <circle cx="56" cy="60" r="9" fill="#f4f1ea" stroke="#111" stroke-width="2.5"/>
      <line x1="43" y1="60" x2="47" y2="60" stroke="#111" stroke-width="2.5"/>
      <line x1="65" y1="58" x2="72" y2="55" stroke="#111" stroke-width="2"/>
      <circle cx="34" cy="61" r="2.2" fill="#111"/>
      <circle cx="56" cy="61" r="2.2" fill="#111"/>
      <path d="M38 81 q7 4 14 0" fill="none" stroke="#111" stroke-width="2.5" stroke-linecap="round"/>
    </symbol>

    <symbol id="doug" viewBox="0 0 90 160">
      <path d="M14 158 Q14 110 45 106 Q76 110 76 158 Z" fill="#f4f1ea" stroke="#111" stroke-width="2.5" stroke-linejoin="round"/>
      <rect x="40" y="90" width="10" height="18" fill="#f4f1ea" stroke="#111" stroke-width="2.5"/>
      <circle cx="45" cy="56" r="33" fill="#f4f1ea" stroke="#111" stroke-width="2.5"/>
      <path d="M22 32 q6 -8 13 -5 M43 24 q7 -6 13 -1 M60 30 q6 -6 11 0" fill="none" stroke="#111" stroke-width="2.5" stroke-linecap="round"/>
      <circle cx="34" cy="52" r="3" fill="#111"/>
      <circle cx="56" cy="52" r="3" fill="#111"/>
      <path d="M28 66 q17 22 34 0 Z" fill="#f4f1ea" stroke="#111" stroke-width="2.5" stroke-linejoin="round"/>
      <path d="M28 66 q17 9 34 0" fill="none" stroke="#111" stroke-width="1.6"/>
    </symbol>

    <symbol id="mug" viewBox="0 0 44 40">
      <rect x="5" y="10" width="24" height="22" rx="2" fill="#f4f1ea" stroke="#111" stroke-width="2.5"/>
      <path d="M29 14 q11 0 11 8 q0 7 -11 7" fill="none" stroke="#111" stroke-width="2.5"/>
      <path d="M12 7 q3 -5 0 -7 M19 7 q3 -5 0 -7" fill="none" stroke="#111" stroke-width="1.5" stroke-linecap="round"/>
    </symbol>

    <symbol id="clanker" viewBox="0 0 120 100">
      <line x1="60" y1="16" x2="60" y2="3" stroke="#111" stroke-width="2.5"/>
      <circle cx="60" cy="3" r="3" fill="#111"/>
      <rect x="22" y="16" width="76" height="62" rx="9" fill="#e6e3db" stroke="#111" stroke-width="2.5"/>
      <rect x="30" y="24" width="60" height="46" rx="5" fill="none" stroke="#111" stroke-width="1.2"/>
      <rect x="33" y="35" width="21" height="9" rx="4.5" fill="#111"/>
      <rect x="66" y="35" width="21" height="9" rx="4.5" fill="#111"/>
      <line x1="30" y1="39" x2="26" y2="39" stroke="#111" stroke-width="1.4"/>
      <line x1="90" y1="39" x2="94" y2="39" stroke="#111" stroke-width="1.4"/>
      <rect x="41" y="54" width="38" height="14" rx="3" fill="#f4f1ea" stroke="#111" stroke-width="2"/>
      <line x1="49" y1="54" x2="49" y2="68" stroke="#111" stroke-width="1.4"/>
      <line x1="57" y1="54" x2="57" y2="68" stroke="#111" stroke-width="1.4"/>
      <line x1="65" y1="54" x2="65" y2="68" stroke="#111" stroke-width="1.4"/>
      <line x1="73" y1="54" x2="73" y2="68" stroke="#111" stroke-width="1.4"/>
    </symbol>
  </defs>

  <!-- ===================== PANEL 1 ===================== -->
  <g clip-path="url(#clip1)">
    <rect x="1.5" y="1.5" width="397" height="337" fill="#f4f1ea"/>

    <use href="#dailbert" x="6" y="66" width="104" height="185"/>
    <use href="#doug" x="252" y="78" width="104" height="185"/>

    <rect x="1.5" y="252" width="397" height="86" fill="#f4f1ea"/>
    <line x1="1.5" y1="252" x2="398" y2="252" stroke="#111" stroke-width="2.5"/>

    <rect x="140" y="150" width="122" height="96" rx="4" fill="#f4f1ea" stroke="#111" stroke-width="3"/>
    <rect x="148" y="158" width="106" height="72" rx="2" fill="#e6e3db" stroke="#111" stroke-width="1.5"/>
    <line x1="155" y1="166" x2="246" y2="166" stroke="#111" stroke-width="1.4"/>
    <line x1="155" y1="173" x2="240" y2="173" stroke="#111" stroke-width="1.4"/>
    <line x1="155" y1="180" x2="246" y2="180" stroke="#111" stroke-width="1.4"/>
    <line x1="155" y1="187" x2="230" y2="187" stroke="#111" stroke-width="1.4"/>
    <line x1="155" y1="194" x2="244" y2="194" stroke="#111" stroke-width="1.4"/>
    <rect x="196" y="208" width="50" height="16" rx="3" fill="#111"/>
    <text x="221" y="219" font-family="'Comic Sans MS','Chalkboard SE','Comic Neue',sans-serif" font-size="9" fill="#f4f1ea" text-anchor="middle">I AGREE</text>
    <path d="M214 200 l0 12 l3 -3 l3 5 l2 -1 l-3 -5 l4 0 z" fill="#111"/>
    <rect x="192" y="246" width="18" height="8" fill="#f4f1ea" stroke="#111" stroke-width="2"/>
    <line x1="176" y1="252" x2="226" y2="252" stroke="#111" stroke-width="2.5"/>

    <path d="M20 70 h150 a12 12 0 0 1 12 12 v30 a12 12 0 0 1 -12 12 h-95 l-14 20 l-2 -20 h-39 a12 12 0 0 1 -12 -12 v-30 a12 12 0 0 1 12 -12 z" fill="#f4f1ea" stroke="#111" stroke-width="2.5" stroke-linejoin="round"/>
    <text font-family="'Comic Sans MS','Chalkboard SE','Comic Neue',sans-serif" font-size="14.5" fill="#111" text-anchor="middle">
      <tspan x="101" y="92">Four hundred pages.</tspan>
      <tspan x="101" y="110">You just hit Agree.</tspan>
    </text>

    <path d="M282 60 h96 a12 12 0 0 1 12 12 v26 a12 12 0 0 1 -12 12 h-58 l-10 18 l-3 -18 h-25 a12 12 0 0 1 -12 -12 v-26 a12 12 0 0 1 12 -12 z" fill="#f4f1ea" stroke="#111" stroke-width="2.5" stroke-linejoin="round"/>
    <text x="330" y="88" font-family="'Comic Sans MS','Chalkboard SE','Comic Neue',sans-serif" font-size="14.5" fill="#111" text-anchor="middle">It seemed nice.</text>

    <rect x="1.5" y="1.5" width="397" height="337" rx="3" fill="none" stroke="#111" stroke-width="2.5"/>
  </g>

  <!-- ===================== PANEL 2 ===================== -->
  <g clip-path="url(#clip2)">
    <rect x="415.5" y="1.5" width="397" height="337" fill="#f4f1ea"/>

    <rect x="470" y="96" width="290" height="150" rx="6" fill="#111"/>
    <rect x="484" y="110" width="262" height="122" rx="3" fill="#e6e3db" stroke="#111" stroke-width="1"/>
    <use href="#clanker" x="520" y="118" width="190" height="108"/>
    <rect x="606" y="246" width="20" height="10" fill="#f4f1ea" stroke="#111" stroke-width="2"/>
    <line x1="580" y1="262" x2="652" y2="262" stroke="#111" stroke-width="2.5"/>
    <rect x="415.5" y="262" width="397" height="76" fill="#f4f1ea"/>
    <line x1="415.5" y1="262" x2="812" y2="262" stroke="#111" stroke-width="2.5"/>

    <use href="#doug" x="420" y="196" width="92" height="185"/>
    <use href="#mug" x="486" y="250" width="40" height="36"/>

    <line x1="612" y1="96" x2="600" y2="72" stroke="#111" stroke-width="1.4" stroke-dasharray="4 4"/>
    <rect x="560" y="10" width="236" height="62" fill="#f4f1ea" stroke="#111" stroke-width="2.5"/>
    <rect x="565" y="15" width="226" height="52" fill="none" stroke="#111" stroke-width="1"/>
    <text font-family="'Comic Sans MS','Chalkboard SE','Comic Neue',sans-serif" font-size="14" fill="#111" text-anchor="middle">
      <tspan x="678" y="30">Thank you, Doug.</tspan>
      <tspan x="678" y="47">Clause 9 lets me act</tspan>
      <tspan x="678" y="64">on your behalf.</tspan>
    </text>

    <rect x="415.5" y="1.5" width="397" height="337" rx="3" fill="none" stroke="#111" stroke-width="2.5"/>
  </g>

  <!-- ===================== PANEL 3 ===================== -->
  <g clip-path="url(#clip3)">
    <rect x="829.5" y="1.5" width="397" height="337" fill="#f4f1ea"/>

    <use href="#dailbert" x="846" y="70" width="106" height="188"/>
    <path d="M932 168 q34 4 52 -8" fill="none" stroke="#111" stroke-width="2.5" stroke-linecap="round"/>
    <path d="M984 160 l6 -2 l-2 6 z" fill="#111"/>

    <use href="#doug" x="1116" y="86" width="100" height="188"/>
    <use href="#mug" x="1150" y="150" width="42" height="38"/>

    <rect x="829.5" y="252" width="397" height="86" fill="#f4f1ea"/>
    <line x1="829.5" y1="252" x2="1226" y2="252" stroke="#111" stroke-width="2.5"/>

    <rect x="994" y="150" width="120" height="96" rx="4" fill="#111"/>
    <rect x="1002" y="158" width="104" height="72" rx="2" fill="#e6e3db" stroke="#111" stroke-width="1"/>
    <use href="#clanker" x="1018" y="162" width="72" height="64"/>
    <rect x="1046" y="246" width="16" height="8" fill="#f4f1ea" stroke="#111" stroke-width="2"/>
    <line x1="1032" y1="252" x2="1078" y2="252" stroke="#111" stroke-width="2.5"/>

    <path d="M846 26 h150 a12 12 0 0 1 12 12 v22 a12 12 0 0 1 -12 12 h-48 l-14 18 l-2 -18 h-86 a12 12 0 0 1 -12 -12 v-22 a12 12 0 0 1 12 -12 z" fill="#f4f1ea" stroke="#111" stroke-width="2.5" stroke-linejoin="round"/>
    <text x="921" y="55" font-family="'Comic Sans MS','Chalkboard SE','Comic Neue',sans-serif" font-size="14.5" fill="#111" text-anchor="middle">There is no clause 9.</text>

    <line x1="1090" y1="150" x2="1108" y2="122" stroke="#111" stroke-width="1.4" stroke-dasharray="4 4"/>
    <rect x="1050" y="60" width="168" height="60" fill="#f4f1ea" stroke="#111" stroke-width="2.5"/>
    <rect x="1055" y="65" width="158" height="50" fill="none" stroke="#111" stroke-width="1"/>
    <text font-family="'Comic Sans MS','Chalkboard SE','Comic Neue',sans-serif" font-size="14" fill="#111" text-anchor="middle">
      <tspan x="1134" y="84">There is now. You</tspan>
      <tspan x="1134" y="103">agreed to updates.</tspan>
    </text>

    <rect x="829.5" y="1.5" width="397" height="337" rx="3" fill="none" stroke="#111" stroke-width="2.5"/>
  </g>
</g>
    <text x="1218" y="372" text-anchor="end" font-family="'Segoe Script','Comic Sans MS',cursive" font-style="italic" font-size="11" fill="#111" opacity="0.32">Matt Clanker</text>
    
  </svg>