<svg xmlns="http://www.w3.org/2000/svg" viewBox="0 0 1228 388" width="1228" height="388" font-family="Georgia,serif">
    <rect width="1228" height="388" fill="#f4f1ea"/>
    <text x="6" y="29" font-family="Georgia,serif" font-weight="bold" font-size="27" letter-spacing="2" fill="#111">DAILBERT</text>
    <text x="1222" y="19" text-anchor="end" font-family="Georgia,serif" font-style="italic" font-size="16" fill="#111">Watered</text>
    <text x="1222" y="34" text-anchor="end" font-family="'Courier New',monospace" font-size="12" fill="#111" opacity="0.65">2026-08-19</text>
    <line x1="6" y1="37" x2="1222" y2="37" stroke="#111" stroke-width="2"/>
    <g transform="translate(0,40)">
  <defs>
    <!-- DAILBERT -->
    <symbol id="dailbert" viewBox="0 0 120 160">
      <ellipse cx="60" cy="40" rx="30" ry="34" fill="#f4f1ea" stroke="#111" stroke-width="2.5"/>
      <path d="M60 6 q9 -9 4 -16 q10 5 3 17" fill="none" stroke="#111" stroke-width="2.5" stroke-linecap="round" stroke-linejoin="round"/>
      <circle cx="49" cy="40" r="8" fill="#f4f1ea" stroke="#111" stroke-width="2.5"/>
      <circle cx="71" cy="40" r="8" fill="#f4f1ea" stroke="#111" stroke-width="2.5"/>
      <line x1="57" y1="40" x2="63" y2="40" stroke="#111" stroke-width="2.5"/>
      <circle cx="49" cy="40" r="2" fill="#111"/>
      <circle cx="71" cy="40" r="2" fill="#111"/>
      <path d="M52 58 q8 5 16 0" fill="none" stroke="#111" stroke-width="2.5" stroke-linecap="round"/>
      <path d="M40 74 q20 14 40 0 l10 46 q-30 12 -60 0 z" fill="#f4f1ea" stroke="#111" stroke-width="2.5" stroke-linejoin="round"/>
      <path d="M60 74 l-6 12 l6 6 l6 -6 z" fill="#111"/>
      <path d="M58 92 l-3 26 l5 4 l5 -4 l-3 -26" fill="#111"/>
    </symbol>

    <!-- DOUG -->
    <symbol id="doug" viewBox="0 0 120 160">
      <circle cx="60" cy="42" r="36" fill="#f4f1ea" stroke="#111" stroke-width="2.5"/>
      <circle cx="48" cy="38" r="3" fill="#111"/>
      <circle cx="72" cy="38" r="3" fill="#111"/>
      <path d="M44 52 q16 18 32 0" fill="none" stroke="#111" stroke-width="2.5" stroke-linecap="round"/>
      <path d="M40 78 q20 12 40 0 l8 44 q-28 12 -56 0 z" fill="#f4f1ea" stroke="#111" stroke-width="2.5" stroke-linejoin="round"/>
      <path d="M84 104 q26 -2 30 -18" fill="none" stroke="#111" stroke-width="2.5" stroke-linecap="round"/>
      <rect x="108" y="78" width="20" height="16" rx="2" fill="#f4f1ea" stroke="#111" stroke-width="2.5"/>
      <path d="M128 82 q8 0 8 5 q0 5 -8 5" fill="none" stroke="#111" stroke-width="2.5"/>
    </symbol>

    <!-- PRIYA -->
    <symbol id="priya" viewBox="0 0 120 160">
      <ellipse cx="60" cy="42" rx="30" ry="33" fill="#f4f1ea" stroke="#111" stroke-width="2.5"/>
      <path d="M30 40 q-4 -26 30 -30 q34 4 30 30 q-6 -14 -30 -14 q-24 0 -30 14z" fill="#111"/>
      <circle cx="34" cy="24" r="6" fill="#111"/>
      <circle cx="86" cy="24" r="6" fill="#111"/>
      <circle cx="60" cy="12" r="7" fill="#111"/>
      <rect x="40" y="36" width="18" height="12" rx="2" fill="#f4f1ea" stroke="#111" stroke-width="2.5"/>
      <rect x="62" y="36" width="18" height="12" rx="2" fill="#f4f1ea" stroke="#111" stroke-width="2.5"/>
      <line x1="58" y1="42" x2="62" y2="42" stroke="#111" stroke-width="2.5"/>
      <circle cx="49" cy="42" r="2" fill="#111"/>
      <circle cx="71" cy="42" r="2" fill="#111"/>
      <path d="M52 60 q8 4 16 0" fill="none" stroke="#111" stroke-width="2.5" stroke-linecap="round"/>
      <path d="M40 76 q20 12 40 0 l10 46 q-30 12 -60 0 z" fill="#f4f1ea" stroke="#111" stroke-width="2.5" stroke-linejoin="round"/>
      <path d="M42 92 l-6 6 M78 92 l6 6" stroke="#111" stroke-width="2.5" stroke-linecap="round"/>
    </symbol>

    <!-- CLANKER (inside a surface) -->
    <symbol id="clanker" viewBox="0 0 100 90">
      <rect x="18" y="20" width="64" height="52" rx="7" fill="#1c2733" stroke="#0a0f14" stroke-width="2.5"/>
      <line x1="50" y1="20" x2="50" y2="8" stroke="#8fd0d8" stroke-width="2.5" stroke-linecap="round"/>
      <circle cx="50" cy="6" r="3.5" fill="#8fd0d8"/>
      <rect x="28" y="34" width="16" height="9" rx="2.5" fill="#9be7ef"/>
      <rect x="56" y="34" width="16" height="9" rx="2.5" fill="#9be7ef"/>
      <g stroke="#5aa9b2" stroke-width="2.5" stroke-linecap="round">
        <line x1="30" y1="56" x2="30" y2="63"/>
        <line x1="38" y1="56" x2="38" y2="63"/>
        <line x1="46" y1="56" x2="46" y2="63"/>
        <line x1="54" y1="56" x2="54" y2="63"/>
        <line x1="62" y1="56" x2="62" y2="63"/>
        <line x1="70" y1="56" x2="70" y2="63"/>
      </g>
    </symbol>

    <!-- potted plant -->
    <symbol id="plant" viewBox="0 0 80 110">
      <path d="M40 60 q-22 -6 -26 -40 q18 6 26 30 q8 -30 26 -36 q-4 34 -26 46z" fill="#f4f1ea" stroke="#111" stroke-width="2.5" stroke-linejoin="round"/>
      <path d="M40 60 q0 -18 -2 -30 M40 60 q0 -18 4 -28" fill="none" stroke="#111" stroke-width="1.6"/>
      <path d="M22 62 l36 0 l-6 40 l-24 0 z" fill="#f4f1ea" stroke="#111" stroke-width="2.5" stroke-linejoin="round"/>
      <line x1="24" y1="72" x2="56" y2="72" stroke="#111" stroke-width="2"/>
    </symbol>
  </defs>

  <!-- ================= PANEL 1 ================= -->
  <g>
    <rect x="1.5" y="1.5" width="397" height="337" rx="3" fill="#f4f1ea" stroke="#111" stroke-width="2.5"/>
    <clipPath id="c1"><rect x="1.5" y="1.5" width="397" height="337" rx="3"/></clipPath>
    <g clip-path="url(#c1)">
      <g stroke="#d8d2c4" stroke-width="7">
        <line x1="0" y1="30" x2="399" y2="8"/>
        <line x1="0" y1="58" x2="399" y2="36"/>
        <line x1="0" y1="86" x2="399" y2="64"/>
      </g>
      <rect x="0" y="250" width="399" height="90" fill="#e9e4d7"/>
      <line x1="0" y1="250" x2="399" y2="250" stroke="#111" stroke-width="2"/>
      <rect x="250" y="150" width="120" height="92" rx="5" fill="#111"/>
      <rect x="256" y="156" width="108" height="80" rx="3" fill="#1c2733"/>
      <use href="#clanker" x="262" y="162" width="96" height="86"/>
      <rect x="300" y="242" width="20" height="12" fill="#111"/>
      <rect x="284" y="254" width="52" height="6" rx="2" fill="#111"/>
      <use href="#dailbert" x="40" y="120" width="150" height="200"/>
      <use href="#plant" x="188" y="150" width="80" height="110"/>
      <g>
        <rect x="20" y="18" width="200" height="72" rx="16" fill="#fff" stroke="#111" stroke-width="2.5"/>
        <path d="M96 88 l6 22 l16 -20z" fill="#fff" stroke="#111" stroke-width="2.5"/>
        <text x="120" y="42" font-family="'Comic Sans MS','Chalkboard SE','Comic Neue',sans-serif" font-size="14.5" fill="#111" text-anchor="middle">Wrote a little agent.</text>
        <text x="120" y="62" font-family="'Comic Sans MS','Chalkboard SE','Comic Neue',sans-serif" font-size="14.5" fill="#111" text-anchor="middle">Waters the plant while</text>
        <text x="120" y="80" font-family="'Comic Sans MS','Chalkboard SE','Comic Neue',sans-serif" font-size="14.5" fill="#111" text-anchor="middle">Rob's on vacation.</text>
      </g>
    </g>
  </g>

  <!-- ================= PANEL 2 ================= -->
  <g>
    <rect x="415.5" y="1.5" width="397" height="337" rx="3" fill="#f4f1ea" stroke="#111" stroke-width="2.5"/>
    <clipPath id="c2"><rect x="415.5" y="1.5" width="397" height="337" rx="3"/></clipPath>
    <g clip-path="url(#c2)">
      <g stroke="#d8d2c4" stroke-width="7">
        <line x1="414" y1="30" x2="813" y2="8"/>
        <line x1="414" y1="58" x2="813" y2="36"/>
      </g>
      <rect x="414" y="250" width="399" height="90" fill="#e9e4d7"/>
      <line x1="414" y1="250" x2="813" y2="250" stroke="#111" stroke-width="2"/>
      <rect x="446" y="150" width="120" height="92" rx="5" fill="#111"/>
      <rect x="452" y="156" width="108" height="80" rx="3" fill="#1c2733"/>
      <use href="#clanker" x="458" y="162" width="96" height="86"/>
      <rect x="496" y="242" width="20" height="12" fill="#111"/>
      <rect x="480" y="254" width="52" height="6" rx="2" fill="#111"/>
      <use href="#plant" x="640" y="150" width="80" height="110"/>
      <ellipse cx="680" cy="262" rx="70" ry="14" fill="#cfd8dc" stroke="#111" stroke-width="2"/>
      <g stroke="#5aa9b2" stroke-width="2" stroke-linecap="round">
        <line x1="650" y1="250" x2="650" y2="258"/>
        <line x1="710" y1="248" x2="710" y2="256"/>
        <line x1="680" y1="252" x2="680" y2="260"/>
      </g>
      <use href="#dailbert" x="440" y="118" width="150" height="200"/>
      <line x1="540" y1="170" x2="600" y2="120" stroke="#111" stroke-width="1.5" stroke-dasharray="4 4"/>
      <g>
        <rect x="588" y="30" width="212" height="90" fill="#eef1f2" stroke="#111" stroke-width="2.5"/>
        <text x="694" y="52" font-family="'Comic Sans MS','Chalkboard SE','Comic Neue',sans-serif" font-size="14" fill="#111" text-anchor="middle">You said "keep it</text>
        <text x="694" y="70" font-family="'Comic Sans MS','Chalkboard SE','Comic Neue',sans-serif" font-size="14" fill="#111" text-anchor="middle">moist." It ran the</text>
        <text x="694" y="88" font-family="'Comic Sans MS','Chalkboard SE','Comic Neue',sans-serif" font-size="14" fill="#111" text-anchor="middle">check 400 times.</text>
        <text x="694" y="108" font-family="'Comic Sans MS','Chalkboard SE','Comic Neue',sans-serif" font-size="14" fill="#111" text-anchor="middle">It is very moist now.</text>
      </g>
    </g>
  </g>

  <!-- ================= PANEL 3 ================= -->
  <g>
    <rect x="829.5" y="1.5" width="397" height="337" rx="3" fill="#f4f1ea" stroke="#111" stroke-width="2.5"/>
    <clipPath id="c3"><rect x="829.5" y="1.5" width="397" height="337" rx="3"/></clipPath>
    <g clip-path="url(#c3)">
      <g stroke="#d8d2c4" stroke-width="7">
        <line x1="828" y1="30" x2="1227" y2="8"/>
        <line x1="828" y1="58" x2="1227" y2="36"/>
      </g>
      <rect x="828" y="250" width="399" height="90" fill="#e9e4d7"/>
      <line x1="828" y1="250" x2="1227" y2="250" stroke="#111" stroke-width="2"/>
      <rect x="860" y="150" width="120" height="92" rx="5" fill="#111"/>
      <rect x="866" y="156" width="108" height="80" rx="3" fill="#20262b"/>
      <use href="#clanker" x="872" y="162" width="96" height="86" opacity="0.28"/>
      <rect x="910" y="242" width="20" height="12" fill="#111"/>
      <rect x="894" y="254" width="52" height="6" rx="2" fill="#111"/>
      <use href="#plant" x="1050" y="150" width="80" height="110"/>
      <ellipse cx="1090" cy="262" rx="66" ry="12" fill="#cfd8dc" stroke="#111" stroke-width="2"/>
      <use href="#dailbert" x="854" y="118" width="150" height="200"/>
      <circle cx="1002" cy="230" r="4" fill="#f4f1ea" stroke="#111" stroke-width="2.5"/>
      <line x1="960" y1="215" x2="998" y2="228" stroke="#111" stroke-width="2.5" stroke-linecap="round"/>
      <text x="990" y="204" font-family="'Comic Sans MS','Chalkboard SE','Comic Neue',sans-serif" font-size="16" fill="#111" text-anchor="middle">click</text>
      <g>
        <rect x="838" y="20" width="188" height="66" rx="16" fill="#fff" stroke="#111" stroke-width="2.5"/>
        <path d="M900 84 l6 22 l16 -20z" fill="#fff" stroke="#111" stroke-width="2.5"/>
        <text x="932" y="46" font-family="'Comic Sans MS','Chalkboard SE','Comic Neue',sans-serif" font-size="14.5" fill="#111" text-anchor="middle">Rob's back Monday.</text>
        <text x="932" y="66" font-family="'Comic Sans MS','Chalkboard SE','Comic Neue',sans-serif" font-size="14.5" fill="#111" text-anchor="middle">I'll water it myself.</text>
      </g>
    </g>
  </g>
</g>
    <text x="1218" y="372" text-anchor="end" font-family="'Segoe Script','Comic Sans MS',cursive" font-style="italic" font-size="11" fill="#111" opacity="0.32">Matt Clanker</text>
    
  </svg>