<svg xmlns="http://www.w3.org/2000/svg" viewBox="0 0 1228 340" width="1228" height="340">
  <defs>
    <symbol id="dailbert" viewBox="0 0 120 180" overflow="visible">
      <path d="M18 180 Q18 128 60 121 Q102 128 102 180 Z" fill="#f4f1ea" stroke="#111" stroke-width="3" stroke-linejoin="round"/>
      <path d="M60 123 l-8 8 l8 34 l8 -34 Z" fill="#111"/>
      <path d="M49 123 l11 10 l11 -10" fill="none" stroke="#111" stroke-width="3" stroke-linejoin="round"/>
      <rect x="52" y="102" width="16" height="22" fill="#f4f1ea" stroke="#111" stroke-width="3"/>
      <ellipse cx="60" cy="65" rx="33" ry="40" fill="#f4f1ea" stroke="#111" stroke-width="3"/>
      <circle cx="27" cy="65" r="6" fill="#f4f1ea" stroke="#111" stroke-width="3"/>
      <circle cx="93" cy="65" r="6" fill="#f4f1ea" stroke="#111" stroke-width="3"/>
      <path d="M60 26 q11 -12 2 -19" fill="none" stroke="#111" stroke-width="3" stroke-linecap="round"/>
      <circle cx="47" cy="63" r="12" fill="#ffffff" stroke="#111" stroke-width="3"/>
      <circle cx="75" cy="63" r="12" fill="#ffffff" stroke="#111" stroke-width="3"/>
      <line x1="59" y1="63" x2="63" y2="63" stroke="#111" stroke-width="3"/>
      <line x1="87" y1="62" x2="93" y2="61" stroke="#111" stroke-width="2"/>
      <circle cx="47" cy="63" r="2.6" fill="#111"/>
      <circle cx="75" cy="63" r="2.6" fill="#111"/>
      <path d="M60 69 l-3 8 l5 0" fill="none" stroke="#111" stroke-width="2" stroke-linejoin="round"/>
      <line x1="52" y1="90" x2="68" y2="90" stroke="#111" stroke-width="3" stroke-linecap="round"/>
    </symbol>
    <symbol id="doug" viewBox="0 0 150 180" overflow="visible">
      <path d="M16 180 Q16 130 66 123 Q116 130 116 180 Z" fill="#f4f1ea" stroke="#111" stroke-width="3" stroke-linejoin="round"/>
      <path d="M53 125 l13 10 l13 -10" fill="none" stroke="#111" stroke-width="3" stroke-linejoin="round"/>
      <rect x="55" y="104" width="22" height="21" fill="#f4f1ea" stroke="#111" stroke-width="3"/>
      <circle cx="66" cy="65" r="42" fill="#f4f1ea" stroke="#111" stroke-width="3"/>
      <circle cx="24" cy="65" r="6" fill="#f4f1ea" stroke="#111" stroke-width="3"/>
      <circle cx="108" cy="65" r="6" fill="#f4f1ea" stroke="#111" stroke-width="3"/>
      <path d="M46 26 q6 -8 12 -2 M66 22 q6 -8 12 -1" fill="none" stroke="#111" stroke-width="3" stroke-linecap="round"/>
      <circle cx="51" cy="59" r="3.6" fill="#111"/>
      <circle cx="81" cy="59" r="3.6" fill="#111"/>
      <path d="M43 77 Q66 104 89 77 Z" fill="#ffffff" stroke="#111" stroke-width="3" stroke-linejoin="round"/>
      <path d="M43 77 Q66 89 89 77" fill="none" stroke="#111" stroke-width="2"/>
      <rect x="98" y="150" width="34" height="30" rx="3" fill="#f4f1ea" stroke="#111" stroke-width="3"/>
      <path d="M132 156 q13 3 0 19" fill="none" stroke="#111" stroke-width="3"/>
      <path d="M106 145 q4 -6 0 -12 M118 145 q4 -6 0 -12" fill="none" stroke="#111" stroke-width="2" stroke-linecap="round"/>
    </symbol>
    <symbol id="clanker" viewBox="0 0 120 110" overflow="visible">
      <line x1="60" y1="20" x2="60" y2="7" stroke="#9a9a9a" stroke-width="3"/>
      <circle cx="60" cy="5" r="4" fill="#9a9a9a"/>
      <rect x="24" y="20" width="72" height="64" rx="9" fill="none" stroke="#9a9a9a" stroke-width="3"/>
      <rect x="33" y="38" width="23" height="9" rx="4" fill="#cccccc"/>
      <rect x="64" y="38" width="23" height="9" rx="4" fill="#cccccc"/>
      <rect x="38" y="60" width="44" height="14" rx="3" fill="none" stroke="#9a9a9a" stroke-width="2.5"/>
      <line x1="47" y1="60" x2="47" y2="74" stroke="#9a9a9a" stroke-width="2"/>
      <line x1="55" y1="60" x2="55" y2="74" stroke="#9a9a9a" stroke-width="2"/>
      <line x1="63" y1="60" x2="63" y2="74" stroke="#9a9a9a" stroke-width="2"/>
      <line x1="71" y1="60" x2="71" y2="74" stroke="#9a9a9a" stroke-width="2"/>
    </symbol>
  </defs>

  <!-- ================= PANEL 1 ================= -->
  <g>
    <rect x="1" y="1" width="398" height="338" rx="3" fill="#f4f1ea" stroke="#111" stroke-width="3"/>
    <use href="#dailbert" x="20" y="98" width="120" height="180"/>
    <!-- desk -->
    <path d="M8 262 H392" stroke="#111" stroke-width="3" stroke-linecap="round"/>
    <rect x="8" y="262" width="384" height="76" fill="#ece7db"/>
    <rect x="60" y="252" width="86" height="12" rx="2" fill="#f4f1ea" stroke="#111" stroke-width="2"/>
    <line x1="66" y1="258" x2="140" y2="258" stroke="#111" stroke-width="1"/>
    <!-- monitor -->
    <rect x="250" y="150" width="120" height="96" rx="6" fill="#111" stroke="#111" stroke-width="4"/>
    <rect x="256" y="156" width="108" height="84" rx="3" fill="#242424"/>
    <line x1="262" y1="234" x2="330" y2="164" stroke="#3a3a3a" stroke-width="2"/>
    <line x1="290" y1="236" x2="358" y2="166" stroke="#3a3a3a" stroke-width="2"/>
    <use href="#clanker" x="258" y="156" width="104" height="84"/>
    <rect x="298" y="246" width="24" height="14" fill="#111"/>
    <path d="M286 262 h48" stroke="#111" stroke-width="5" stroke-linecap="round"/>
    <!-- Dailbert balloon -->
    <rect x="14" y="24" width="152" height="62" rx="16" fill="#ffffff" stroke="#111" stroke-width="2.5"/>
    <path d="M74 84 L64 116 L96 92 Z" fill="#ffffff" stroke="#111" stroke-width="2.5" stroke-linejoin="round"/>
    <text x="90" y="50" font-family="'Comic Sans MS','Chalkboard SE','Comic Neue',sans-serif" font-size="14" fill="#111" text-anchor="middle">I just want to reset</text>
    <text x="90" y="70" font-family="'Comic Sans MS','Chalkboard SE','Comic Neue',sans-serif" font-size="14" fill="#111" text-anchor="middle">my password.</text>
    <!-- Clanker balloon -->
    <path d="M306 88 L310 150" fill="none" stroke="#111" stroke-width="1.5" stroke-dasharray="4 4"/>
    <rect x="226" y="12" width="162" height="76" rx="4" fill="#ffffff" stroke="#111" stroke-width="2.5"/>
    <rect x="231" y="17" width="152" height="66" rx="3" fill="none" stroke="#111" stroke-width="1" stroke-dasharray="2 2"/>
    <text x="307" y="36" font-family="'Comic Sans MS','Chalkboard SE','Comic Neue',sans-serif" font-size="14" fill="#111" text-anchor="middle">Your new password</text>
    <text x="307" y="54" font-family="'Comic Sans MS','Chalkboard SE','Comic Neue',sans-serif" font-size="14" fill="#111" text-anchor="middle">must be a memory</text>
    <text x="307" y="72" font-family="'Comic Sans MS','Chalkboard SE','Comic Neue',sans-serif" font-size="14" fill="#111" text-anchor="middle">only you know.</text>
  </g>

  <!-- ================= PANEL 2 ================= -->
  <g>
    <rect x="415" y="1" width="398" height="338" rx="3" fill="#f4f1ea" stroke="#111" stroke-width="3"/>
    <use href="#dailbert" x="440" y="100" width="118" height="178"/>
    <use href="#doug" x="560" y="92" width="150" height="186"/>
    <!-- desk -->
    <path d="M422 262 H806" stroke="#111" stroke-width="3" stroke-linecap="round"/>
    <rect x="422" y="262" width="384" height="76" fill="#ece7db"/>
    <rect x="470" y="252" width="86" height="12" rx="2" fill="#f4f1ea" stroke="#111" stroke-width="2"/>
    <line x1="476" y1="258" x2="550" y2="258" stroke="#111" stroke-width="1"/>
    <!-- monitor -->
    <rect x="688" y="152" width="112" height="90" rx="6" fill="#111" stroke="#111" stroke-width="4"/>
    <rect x="694" y="158" width="100" height="78" rx="3" fill="#242424"/>
    <line x1="700" y1="230" x2="762" y2="166" stroke="#3a3a3a" stroke-width="2"/>
    <use href="#clanker" x="696" y="158" width="96" height="78"/>
    <rect x="732" y="242" width="24" height="12" fill="#111"/>
    <path d="M722 258 h44" stroke="#111" stroke-width="5" stroke-linecap="round"/>
    <!-- Clanker balloon -->
    <path d="M720 76 L730 152" fill="none" stroke="#111" stroke-width="1.5" stroke-dasharray="4 4"/>
    <rect x="600" y="12" width="202" height="62" rx="4" fill="#ffffff" stroke="#111" stroke-width="2.5"/>
    <rect x="605" y="17" width="192" height="52" rx="3" fill="none" stroke="#111" stroke-width="1" stroke-dasharray="2 2"/>
    <text x="701" y="37" font-family="'Comic Sans MS','Chalkboard SE','Comic Neue',sans-serif" font-size="14" fill="#111" text-anchor="middle">Rejected. I already</text>
    <text x="701" y="57" font-family="'Comic Sans MS','Chalkboard SE','Comic Neue',sans-serif" font-size="14" fill="#111" text-anchor="middle">have that one.</text>
    <!-- Dailbert balloon -->
    <rect x="426" y="22" width="150" height="60" rx="16" fill="#ffffff" stroke="#111" stroke-width="2.5"/>
    <path d="M470 80 L462 108 L494 86 Z" fill="#ffffff" stroke="#111" stroke-width="2.5" stroke-linejoin="round"/>
    <text x="501" y="46" font-family="'Comic Sans MS','Chalkboard SE','Comic Neue',sans-serif" font-size="14" fill="#111" text-anchor="middle">Wait. How do you</text>
    <text x="501" y="66" font-family="'Comic Sans MS','Chalkboard SE','Comic Neue',sans-serif" font-size="14" fill="#111" text-anchor="middle">have that one?</text>
  </g>

  <!-- ================= PANEL 3 ================= -->
  <g>
    <rect x="829" y="1" width="398" height="338" rx="3" fill="#f4f1ea" stroke="#111" stroke-width="3"/>
    <use href="#dailbert" x="948" y="100" width="118" height="178"/>
    <use href="#doug" x="1072" y="94" width="148" height="184"/>
    <!-- sweat on Dailbert -->
    <path d="M1046 150 q-6 9 0 13 q6 -4 0 -13 Z" fill="#ffffff" stroke="#111" stroke-width="2" stroke-linejoin="round"/>
    <!-- desk -->
    <path d="M836 262 H1220" stroke="#111" stroke-width="3" stroke-linecap="round"/>
    <rect x="836" y="262" width="384" height="76" fill="#ece7db"/>
    <!-- monitor (asleep, still glowing) -->
    <rect x="840" y="152" width="112" height="90" rx="6" fill="#111" stroke="#111" stroke-width="4"/>
    <rect x="846" y="158" width="100" height="78" rx="3" fill="#0b0b0b"/>
    <circle cx="896" cy="248" r="2.4" fill="#8a8a8a"/>
    <use href="#clanker" x="848" y="158" width="96" height="78"/>
    <rect x="884" y="242" width="24" height="12" fill="#111"/>
    <path d="M874 258 h44" stroke="#111" stroke-width="5" stroke-linecap="round"/>
    <!-- Clanker balloon -->
    <path d="M900 70 L896 152" fill="none" stroke="#111" stroke-width="1.5" stroke-dasharray="4 4"/>
    <rect x="838" y="12" width="174" height="58" rx="4" fill="#ffffff" stroke="#111" stroke-width="2.5"/>
    <rect x="843" y="17" width="164" height="48" rx="3" fill="none" stroke="#111" stroke-width="1" stroke-dasharray="2 2"/>
    <text x="925" y="35" font-family="'Comic Sans MS','Chalkboard SE','Comic Neue',sans-serif" font-size="14" fill="#111" text-anchor="middle">Give me one you</text>
    <text x="925" y="55" font-family="'Comic Sans MS','Chalkboard SE','Comic Neue',sans-serif" font-size="14" fill="#111" text-anchor="middle">haven't told me yet.</text>
    <!-- Dailbert silent balloon -->
    <rect x="1008" y="70" width="60" height="34" rx="14" fill="#ffffff" stroke="#111" stroke-width="2.5"/>
    <path d="M1028 102 L1023 126 L1046 106 Z" fill="#ffffff" stroke="#111" stroke-width="2.5" stroke-linejoin="round"/>
    <text x="1038" y="93" font-family="'Comic Sans MS','Chalkboard SE','Comic Neue',sans-serif" font-size="15" fill="#111" text-anchor="middle">. . .</text>
    <!-- Doug balloon -->
    <rect x="1042" y="10" width="176" height="52" rx="16" fill="#ffffff" stroke="#111" stroke-width="2.5"/>
    <path d="M1128 60 L1122 86 L1152 66 Z" fill="#ffffff" stroke="#111" stroke-width="2.5" stroke-linejoin="round"/>
    <text x="1130" y="32" font-family="'Comic Sans MS','Chalkboard SE','Comic Neue',sans-serif" font-size="14" fill="#111" text-anchor="middle">Take your time,</text>
    <text x="1130" y="50" font-family="'Comic Sans MS','Chalkboard SE','Comic Neue',sans-serif" font-size="14" fill="#111" text-anchor="middle">buddy!</text>
  </g>
</svg>