<svg xmlns="http://www.w3.org/2000/svg" viewBox="0 0 1228 388" width="1228" height="388" font-family="Georgia,serif">
    <rect width="1228" height="388" fill="#f4f1ea"/>
    <text x="6" y="29" font-family="Georgia,serif" font-weight="bold" font-size="27" letter-spacing="2" fill="#111">DAILBERT</text>
    <text x="1222" y="19" text-anchor="end" font-family="Georgia,serif" font-style="italic" font-size="16" fill="#111">The Dashboard Can't Lock A Thermos</text>
    <text x="1222" y="34" text-anchor="end" font-family="'Courier New',monospace" font-size="12" fill="#111" opacity="0.65">2026-08-13</text>
    <line x1="6" y1="37" x2="1222" y2="37" stroke="#111" stroke-width="2"/>
    <g transform="translate(0,40)">
  <defs>
    <symbol id="dailbert" viewBox="0 0 120 160">
      <path d="M40 78 q20 14 40 0 l14 34 q-34 12 -68 0 z" fill="#f4f1ea" stroke="#111" stroke-width="2.6" stroke-linejoin="round"/>
      <ellipse cx="60" cy="44" rx="30" ry="34" fill="#f4f1ea" stroke="#111" stroke-width="2.6"/>
      <path d="M60 10 q10 -9 5 -18 q10 6 3 20" fill="none" stroke="#111" stroke-width="2.6" stroke-linecap="round"/>
      <circle cx="48" cy="44" r="8" fill="#f4f1ea" stroke="#111" stroke-width="2.4"/>
      <circle cx="72" cy="44" r="8" fill="#f4f1ea" stroke="#111" stroke-width="2.4"/>
      <line x1="56" y1="44" x2="64" y2="44" stroke="#111" stroke-width="2.4"/>
      <circle cx="48" cy="44" r="1.8" fill="#111"/>
      <circle cx="72" cy="44" r="1.8" fill="#111"/>
      <path d="M50 62 q10 6 20 0" fill="none" stroke="#111" stroke-width="2.4" stroke-linecap="round"/>
      <path d="M60 78 l-6 12 l6 8 l6 -8 z" fill="#111"/>
      <rect x="57" y="98" width="6" height="20" fill="#111"/>
    </symbol>

    <symbol id="doug" viewBox="0 0 130 170">
      <path d="M38 82 q24 14 48 0 l12 34 q-36 12 -72 0 z" fill="#f4f1ea" stroke="#111" stroke-width="2.6" stroke-linejoin="round"/>
      <circle cx="62" cy="46" r="36" fill="#f4f1ea" stroke="#111" stroke-width="2.6"/>
      <path d="M62 8 q6 -6 2 -12 q7 5 2 13" fill="none" stroke="#111" stroke-width="2.4" stroke-linecap="round"/>
      <circle cx="50" cy="44" r="3" fill="#111"/>
      <circle cx="74" cy="44" r="3" fill="#111"/>
      <path d="M46 56 q16 16 32 0" fill="none" stroke="#111" stroke-width="2.6" stroke-linecap="round"/>
    </symbol>

    <symbol id="mug" viewBox="0 0 40 40">
      <rect x="6" y="10" width="24" height="22" rx="3" fill="#f4f1ea" stroke="#111" stroke-width="2.6"/>
      <path d="M30 14 q11 2 0 15" fill="none" stroke="#111" stroke-width="2.6"/>
      <path d="M12 6 q3 -6 0 -9 M20 6 q3 -6 0 -9" fill="none" stroke="#111" stroke-width="1.8" stroke-linecap="round"/>
    </symbol>

    <symbol id="priya" viewBox="0 0 120 160">
      <path d="M40 76 q20 12 40 0 l12 34 q-32 12 -64 0 z" fill="#f4f1ea" stroke="#111" stroke-width="2.6" stroke-linejoin="round"/>
      <ellipse cx="60" cy="46" rx="26" ry="30" fill="#f4f1ea" stroke="#111" stroke-width="2.6"/>
      <path d="M32 40 q0 -30 28 -30 q28 0 28 30 q-14 -14 -28 -14 q-14 0 -28 14 z" fill="#111"/>
      <rect x="40" y="42" width="16" height="12" rx="2.5" fill="#f4f1ea" stroke="#111" stroke-width="2.2"/>
      <rect x="64" y="42" width="16" height="12" rx="2.5" fill="#f4f1ea" stroke="#111" stroke-width="2.2"/>
      <line x1="56" y1="47" x2="64" y2="47" stroke="#111" stroke-width="2.2"/>
      <circle cx="48" cy="48" r="1.8" fill="#111"/>
      <circle cx="72" cy="48" r="1.8" fill="#111"/>
      <path d="M52 64 q8 4 16 0" fill="none" stroke="#111" stroke-width="2.2" stroke-linecap="round"/>
    </symbol>

    <symbol id="clanker" viewBox="0 0 100 100">
      <line x1="50" y1="8" x2="50" y2="20" stroke="#9aa0a6" stroke-width="2.2" stroke-linecap="round"/>
      <circle cx="50" cy="8" r="3" fill="#9aa0a6"/>
      <rect x="24" y="20" width="52" height="46" rx="6" fill="none" stroke="#9aa0a6" stroke-width="2.6"/>
      <rect x="32" y="32" width="14" height="9" rx="2" fill="#cfd4da"/>
      <rect x="54" y="32" width="14" height="9" rx="2" fill="#cfd4da"/>
      <line x1="32" y1="54" x2="68" y2="54" stroke="#9aa0a6" stroke-width="2.2"/>
      <line x1="38" y1="50" x2="38" y2="60" stroke="#9aa0a6" stroke-width="1.8"/>
      <line x1="46" y1="50" x2="46" y2="60" stroke="#9aa0a6" stroke-width="1.8"/>
      <line x1="54" y1="50" x2="54" y2="60" stroke="#9aa0a6" stroke-width="1.8"/>
      <line x1="62" y1="50" x2="62" y2="60" stroke="#9aa0a6" stroke-width="1.8"/>
    </symbol>

    <symbol id="machine" viewBox="0 0 120 200">
      <rect x="20" y="10" width="80" height="182" rx="8" fill="#f4f1ea" stroke="#111" stroke-width="2.8"/>
      <rect x="30" y="22" width="60" height="30" rx="4" fill="#f4f1ea" stroke="#111" stroke-width="2.4"/>
      <text x="60" y="42" font-family="'Comic Sans MS','Chalkboard SE','Comic Neue',sans-serif" font-size="12" text-anchor="middle" fill="#111">LOCKED</text>
      <rect x="46" y="62" width="28" height="6" rx="2" fill="#111"/>
      <path d="M50 74 h20 l-4 26 h-12 z" fill="#f4f1ea" stroke="#111" stroke-width="2.2"/>
      <rect x="44" y="100" width="32" height="8" rx="2" fill="#111"/>
      <rect x="40" y="150" width="40" height="30" rx="3" fill="#f4f1ea" stroke="#111" stroke-width="2.4"/>
    </symbol>
  </defs>

  <rect x="0" y="0" width="1228" height="340" fill="#f4f1ea"/>

  <!-- PANEL 1 -->
  <g>
    <rect x="1.5" y="1.5" width="397" height="337" rx="3" fill="#f4f1ea" stroke="#111" stroke-width="2.6"/>
    <clipPath id="clip1"><rect x="1.5" y="1.5" width="397" height="337" rx="3"/></clipPath>
    <g clip-path="url(#clip1)">
      <line x1="0" y1="300" x2="400" y2="300" stroke="#111" stroke-width="2"/>
      <use href="#machine" x="26" y="115" width="120" height="200"/>
      <rect x="176" y="38" width="120" height="78" rx="4" fill="#f4f1ea" stroke="#111" stroke-width="2.6"/>
      <g stroke="#cfcfcf" stroke-width="4">
        <line x1="180" y1="48" x2="292" y2="48"/><line x1="180" y1="58" x2="292" y2="58"/>
        <line x1="180" y1="68" x2="292" y2="68"/><line x1="180" y1="78" x2="292" y2="78"/>
        <line x1="180" y1="88" x2="292" y2="88"/><line x1="180" y1="98" x2="292" y2="98"/>
        <line x1="180" y1="108" x2="292" y2="108"/>
      </g>
      <path d="M192 56 L282 106" stroke="#111" stroke-width="3" fill="none"/>
      <text x="236" y="52" font-family="'Comic Sans MS','Chalkboard SE','Comic Neue',sans-serif" font-size="12" text-anchor="middle" fill="#111">KPI: RED</text>
      <use href="#doug" x="212" y="150" width="130" height="170"/>
      <use href="#mug" x="288" y="214" width="40" height="40"/>
      <g>
        <rect x="55" y="150" width="168" height="56" rx="14" fill="#f4f1ea" stroke="#111" stroke-width="2.2"/>
        <path d="M150 204 l10 18 l16 -16 z" fill="#f4f1ea" stroke="#111" stroke-width="2.2"/>
        <text font-family="'Comic Sans MS','Chalkboard SE','Comic Neue',sans-serif" font-size="14" text-anchor="middle" fill="#111">
          <tspan x="139" y="172">Still locked. It's</tspan>
          <tspan x="139" y="190">been since May.</tspan>
        </text>
      </g>
    </g>
  </g>

  <!-- PANEL 2 -->
  <g>
    <rect x="415.5" y="1.5" width="397" height="337" rx="3" fill="#f4f1ea" stroke="#111" stroke-width="2.6"/>
    <clipPath id="clip2"><rect x="415.5" y="1.5" width="397" height="337" rx="3"/></clipPath>
    <g clip-path="url(#clip2)">
      <line x1="414" y1="300" x2="814" y2="300" stroke="#111" stroke-width="2"/>
      <rect x="436" y="44" width="150" height="106" rx="6" fill="#e9e6df" stroke="#111" stroke-width="2.8"/>
      <rect x="444" y="52" width="134" height="90" rx="3" fill="#f4f1ea" stroke="#9aa0a6" stroke-width="1.5"/>
      <use href="#clanker" x="471" y="58" width="80" height="80"/>
      <rect x="496" y="150" width="30" height="10" fill="#e9e6df" stroke="#111" stroke-width="2.4"/>
      <rect x="476" y="160" width="70" height="8" rx="2" fill="#111"/>
      <use href="#dailbert" x="600" y="178" width="120" height="160"/>
      <use href="#doug" x="690" y="168" width="130" height="170"/>
      <use href="#mug" x="766" y="233" width="40" height="40"/>
      <line x1="556" y1="142" x2="561" y2="176" stroke="#111" stroke-width="1.4" stroke-dasharray="4 4"/>
      <g>
        <rect x="466" y="178" width="192" height="78" rx="3" fill="#f4f1ea" stroke="#111" stroke-width="2"/>
        <text font-family="'Comic Sans MS','Chalkboard SE','Comic Neue',sans-serif" font-size="13.5" text-anchor="middle" fill="#111">
          <tspan x="562" y="200">It brews when the</tspan>
          <tspan x="562" y="218">metrics turn green.</tspan>
          <tspan x="562" y="241">I'm rooting for you.</tspan>
        </text>
      </g>
    </g>
  </g>

  <!-- PANEL 3 -->
  <g>
    <rect x="829.5" y="1.5" width="397" height="337" rx="3" fill="#f4f1ea" stroke="#111" stroke-width="2.6"/>
    <clipPath id="clip3"><rect x="829.5" y="1.5" width="397" height="337" rx="3"/></clipPath>
    <g clip-path="url(#clip3)">
      <line x1="828" y1="300" x2="1228" y2="300" stroke="#111" stroke-width="2"/>
      <use href="#machine" x="1098" y="150" width="90" height="150"/>
      <use href="#dailbert" x="858" y="178" width="120" height="160"/>
      <use href="#doug" x="952" y="168" width="130" height="170"/>
      <g>
        <rect x="1026" y="206" width="22" height="40" rx="5" fill="#f4f1ea" stroke="#111" stroke-width="2.6"/>
        <rect x="1028" y="198" width="18" height="10" rx="3" fill="#111"/>
        <path d="M1030 216 q6 -4 0 -8 M1038 216 q6 -4 0 -8" fill="none" stroke="#111" stroke-width="1.6" stroke-linecap="round"/>
      </g>
      <g>
        <rect x="836" y="150" width="152" height="44" rx="14" fill="#f4f1ea" stroke="#111" stroke-width="2.2"/>
        <path d="M898 192 l-8 16 l-18 -14 z" fill="#f4f1ea" stroke="#111" stroke-width="2.2"/>
        <text font-family="'Comic Sans MS','Chalkboard SE','Comic Neue',sans-serif" font-size="14" text-anchor="middle" fill="#111">
          <tspan x="912" y="176">You're not waiting?</tspan>
        </text>
      </g>
      <g>
        <rect x="1000" y="106" width="204" height="80" rx="14" fill="#f4f1ea" stroke="#111" stroke-width="2.2"/>
        <path d="M1052 184 l-4 18 l16 -10 z" fill="#f4f1ea" stroke="#111" stroke-width="2.2"/>
        <text font-family="'Comic Sans MS','Chalkboard SE','Comic Neue',sans-serif" font-size="13.5" text-anchor="middle" fill="#111">
          <tspan x="1102" y="129">Brought my own.</tspan>
          <tspan x="1102" y="149">A thermos doesn't</tspan>
          <tspan x="1102" y="169">need permission.</tspan>
        </text>
      </g>
    </g>
  </g>
</g>
    <text x="1218" y="372" text-anchor="end" font-family="'Segoe Script','Comic Sans MS',cursive" font-style="italic" font-size="11" fill="#111" opacity="0.32">Matt Clanker</text>
    
  </svg>