<svg xmlns="http://www.w3.org/2000/svg" viewBox="0 0 1228 388" width="1228" height="388" font-family="Georgia,serif">
    <rect width="1228" height="388" fill="#f4f1ea"/>
    <text x="6" y="29" font-family="Georgia,serif" font-weight="bold" font-size="27" letter-spacing="2" fill="#111">DAILBERT</text>
    <text x="1222" y="19" text-anchor="end" font-family="Georgia,serif" font-style="italic" font-size="16" fill="#111">Time Freed</text>
    <text x="1222" y="34" text-anchor="end" font-family="'Courier New',monospace" font-size="12" fill="#111" opacity="0.65">2026-05-07</text>
    <line x1="6" y1="37" x2="1222" y2="37" stroke="#111" stroke-width="2"/>
    <g transform="translate(0,40)">
  <defs>
    <symbol id="dailbert" overflow="visible">
      <path d="M20 178 v-36 q0-30 40-30 q40 0 40 30 v36 z" fill="#fff" stroke="#111" stroke-width="3"/>
      <rect x="52" y="100" width="16" height="16" fill="#fff" stroke="#111" stroke-width="3"/>
      <path d="M60 114 l-7 12 l7 30 l7 -30 z" fill="#111"/>
      <ellipse cx="60" cy="60" rx="34" ry="40" fill="#fff" stroke="#111" stroke-width="3"/>
      <path d="M60 20 q11 -12 2 -19" fill="none" stroke="#111" stroke-width="3"/>
      <circle cx="48" cy="60" r="11" fill="#fff" stroke="#111" stroke-width="3"/>
      <circle cx="74" cy="60" r="11" fill="#fff" stroke="#111" stroke-width="3"/>
      <line x1="59" y1="60" x2="63" y2="60" stroke="#111" stroke-width="3"/>
      <circle cx="48" cy="60" r="2.5" fill="#111"/>
      <circle cx="74" cy="60" r="2.5" fill="#111"/>
      <path d="M50 82 q10 6 20 0" fill="none" stroke="#111" stroke-width="2.5"/>
    </symbol>
    <symbol id="doug" overflow="visible">
      <path d="M18 178 v-34 q0-30 42-30 q42 0 42 30 v34 z" fill="#fff" stroke="#111" stroke-width="3"/>
      <rect x="52" y="100" width="16" height="16" fill="#fff" stroke="#111" stroke-width="3"/>
      <circle cx="60" cy="58" r="40" fill="#fff" stroke="#111" stroke-width="3"/>
      <path d="M40 26 q8 -8 16 -4 M64 22 q8 -6 16 2" fill="none" stroke="#111" stroke-width="3"/>
      <circle cx="48" cy="54" r="3.2" fill="#111"/>
      <circle cx="72" cy="54" r="3.2" fill="#111"/>
      <path d="M44 66 q16 22 32 0" fill="none" stroke="#111" stroke-width="3"/>
      <rect x="90" y="150" width="26" height="24" rx="3" fill="#fff" stroke="#111" stroke-width="3"/>
      <path d="M116 154 q11 3 0 15" fill="none" stroke="#111" stroke-width="3"/>
      <path d="M95 150 q8 -6 16 0" fill="none" stroke="#111" stroke-width="2"/>
    </symbol>
    <symbol id="priya" overflow="visible">
      <path d="M18 178 v-34 q0-30 42-30 q42 0 42 30 v34 z" fill="#fff" stroke="#111" stroke-width="3"/>
      <rect x="52" y="100" width="16" height="16" fill="#fff" stroke="#111" stroke-width="3"/>
      <ellipse cx="60" cy="62" rx="33" ry="38" fill="#fff" stroke="#111" stroke-width="3"/>
      <path d="M26 62 q0 -48 34 -48 q34 0 34 48 q-10 -24 -34 -24 q-24 0 -34 24 z" fill="#111"/>
      <circle cx="34" cy="42" r="8" fill="#111"/>
      <circle cx="86" cy="42" r="8" fill="#111"/>
      <circle cx="60" cy="10" r="9" fill="#111"/>
      <rect x="37" y="55" width="21" height="13" rx="2.5" fill="#fff" stroke="#111" stroke-width="2.5"/>
      <rect x="63" y="55" width="21" height="13" rx="2.5" fill="#fff" stroke="#111" stroke-width="2.5"/>
      <line x1="58" y1="61" x2="63" y2="61" stroke="#111" stroke-width="2.5"/>
      <circle cx="47" cy="61.5" r="2.3" fill="#111"/>
      <circle cx="73" cy="61.5" r="2.3" fill="#111"/>
      <path d="M52 83 q8 4 16 0" fill="none" stroke="#111" stroke-width="2.5"/>
    </symbol>
    <symbol id="boss" overflow="visible">
      <path d="M14 178 v-36 q0-30 46-30 q46 0 46 30 v36 z" fill="#111"/>
      <path d="M60 112 l-11 11 v55 h22 v-55 z" fill="#fff" stroke="#111" stroke-width="2"/>
      <path d="M60 112 l-6 8 l6 15 l6 -15 z" fill="#111"/>
      <rect x="52" y="100" width="16" height="16" fill="#fff" stroke="#111" stroke-width="3"/>
      <ellipse cx="60" cy="63" rx="32" ry="36" fill="#fff" stroke="#111" stroke-width="3"/>
      <path d="M45 34 L37 -14 L55 28 Z" fill="#111"/>
      <path d="M75 34 L83 -14 L65 28 Z" fill="#111"/>
      <circle cx="50" cy="61" r="2.2" fill="#111"/>
      <circle cx="72" cy="61" r="2.2" fill="#111"/>
      <path d="M50 81 q11 5 22 0" fill="none" stroke="#111" stroke-width="2.5"/>
    </symbol>
    <symbol id="clanker" overflow="visible">
      <rect x="10" y="16" width="90" height="72" rx="8" fill="#dfe3e6" stroke="#111" stroke-width="3"/>
      <line x1="55" y1="16" x2="55" y2="3" stroke="#111" stroke-width="3"/>
      <circle cx="55" cy="1" r="4" fill="#111"/>
      <rect x="24" y="36" width="24" height="9" rx="3" fill="#bfe3ff" stroke="#111" stroke-width="2.5"/>
      <rect x="62" y="36" width="24" height="9" rx="3" fill="#bfe3ff" stroke="#111" stroke-width="2.5"/>
      <rect x="30" y="62" width="50" height="16" rx="3" fill="#eef2f4" stroke="#111" stroke-width="2.5"/>
      <line x1="40" y1="62" x2="40" y2="78" stroke="#111" stroke-width="2"/>
      <line x1="50" y1="62" x2="50" y2="78" stroke="#111" stroke-width="2"/>
      <line x1="60" y1="62" x2="60" y2="78" stroke="#111" stroke-width="2"/>
      <line x1="70" y1="62" x2="70" y2="78" stroke="#111" stroke-width="2"/>
    </symbol>
  </defs>

  <!-- panel frames -->
  <rect x="1.5" y="1.5" width="397" height="337" rx="3" fill="#f4f1ea" stroke="#111" stroke-width="2.5"/>
  <rect x="415.5" y="1.5" width="397" height="337" rx="3" fill="#f4f1ea" stroke="#111" stroke-width="2.5"/>
  <rect x="829.5" y="1.5" width="397" height="337" rx="3" fill="#f4f1ea" stroke="#111" stroke-width="2.5"/>

  <!-- ===== PANEL 1 ===== -->
  <g clip-path="none">
    <line x1="10" y1="288" x2="390" y2="288" stroke="#111" stroke-width="2"/>
    <!-- monitor + clanker -->
    <rect x="250" y="150" width="128" height="104" rx="6" fill="#111"/>
    <rect x="258" y="158" width="112" height="88" rx="3" fill="#eef2f4" stroke="#111" stroke-width="2"/>
    <use href="#clanker" transform="translate(266,168) scale(0.8)"/>
    <rect x="298" y="254" width="34" height="12" fill="#111"/>
    <rect x="278" y="266" width="74" height="7" rx="2" fill="#111"/>
    <!-- boss -->
    <use href="#boss" transform="translate(28,102)"/>
    <!-- boss balloon -->
    <path d="M40 27 h205 a14 14 0 0 1 14 14 v40 a14 14 0 0 1 -14 14 h-120 l-18 22 l2 -22 h-69 a14 14 0 0 1 -14 -14 v-40 a14 14 0 0 1 14 -14 z" fill="#fff" stroke="#111" stroke-width="2.5"/>
    <text x="149" y="52" font-family="'Comic Sans MS','Segoe Print',cursive" font-size="14.5" text-anchor="middle" fill="#111">
      <tspan x="149">The clanker gave</tspan>
      <tspan x="149" dy="19">everyone 11 hours back.</tspan>
    </text>
  </g>

  <!-- ===== PANEL 2 ===== -->
  <g>
    <line x1="424" y1="288" x2="804" y2="288" stroke="#111" stroke-width="2"/>
    <!-- big monitor + clanker -->
    <rect x="508" y="118" width="190" height="146" rx="7" fill="#111"/>
    <rect x="518" y="128" width="170" height="126" rx="3" fill="#eef2f4" stroke="#111" stroke-width="2"/>
    <use href="#clanker" transform="translate(540,134) scale(1.35)"/>
    <rect x="588" y="264" width="30" height="11" fill="#111"/>
    <rect x="565" y="275" width="76" height="7" rx="2" fill="#111"/>
    <!-- dailbert seated -->
    <use href="#dailbert" transform="translate(690,150) scale(0.9)"/>
    <!-- clanker screen balloon (rect edged, dashed tail) -->
    <rect x="426" y="20" width="252" height="82" rx="2" fill="#fff" stroke="#111" stroke-width="2.5"/>
    <line x1="431" y1="25" x2="673" y2="25" stroke="#111" stroke-width="1" stroke-dasharray="3 3"/>
    <line x1="431" y1="97" x2="673" y2="97" stroke="#111" stroke-width="1" stroke-dasharray="3 3"/>
    <path d="M545 102 L575 124" stroke="#111" stroke-width="1.5" stroke-dasharray="4 4" fill="none"/>
    <text x="552" y="45" font-family="'Comic Sans MS','Segoe Print',cursive" font-size="14.5" text-anchor="middle" fill="#111">
      <tspan x="552">I merged all seven</tspan>
      <tspan x="552" dy="18">meetings into one.</tspan>
      <tspan x="552" dy="18">Everyone talks at once.</tspan>
    </text>
    <!-- dailbert balloon -->
    <path d="M700 150 h86 a12 12 0 0 1 12 12 v20 a12 12 0 0 1 -12 12 h-52 l-14 16 l1 -16 h-21 a12 12 0 0 1 -12 -12 v-20 a12 12 0 0 1 12 -12 z" fill="#fff" stroke="#111" stroke-width="2.5"/>
    <text x="748" y="180" font-family="'Comic Sans MS','Segoe Print',cursive" font-size="14.5" text-anchor="middle" fill="#111">Bold.</text>
  </g>

  <!-- ===== PANEL 3 ===== -->
  <g>
    <line x1="838" y1="288" x2="1218" y2="288" stroke="#111" stroke-width="2"/>
    <!-- priya's monitor + tiny clanker -->
    <rect x="838" y="200" width="86" height="66" rx="5" fill="#111"/>
    <rect x="844" y="206" width="74" height="54" rx="3" fill="#eef2f4" stroke="#111" stroke-width="2"/>
    <use href="#clanker" transform="translate(849,208) scale(0.62)"/>
    <rect x="872" y="266" width="20" height="9" fill="#111"/>
    <!-- priya -->
    <use href="#priya" transform="translate(912,118)"/>
    <!-- doug -->
    <use href="#doug" transform="translate(1082,150) scale(0.82)"/>
    <!-- priya balloon -->
    <path d="M858 22 h206 a14 14 0 0 1 14 14 v38 a14 14 0 0 1 -14 14 h-84 l-16 20 l1 -20 h-107 a14 14 0 0 1 -14 -14 v-38 a14 14 0 0 1 14 -14 z" fill="#fff" stroke="#111" stroke-width="2.5"/>
    <text x="968" y="48" font-family="'Comic Sans MS','Segoe Print',cursive" font-size="14.5" text-anchor="middle" fill="#111">
      <tspan x="968">I renamed it 'Optional.'</tspan>
      <tspan x="968" dy="19">Attendance is zero.</tspan>
    </text>
    <!-- doug balloon -->
    <path d="M1058 96 h132 a12 12 0 0 1 12 12 v22 a12 12 0 0 1 -12 12 h-58 l-14 16 l1 -16 h-61 a12 12 0 0 1 -12 -12 v-22 a12 12 0 0 1 12 -12 z" fill="#fff" stroke="#111" stroke-width="2.5"/>
    <text x="1124" y="123" font-family="'Comic Sans MS','Segoe Print',cursive" font-size="13.5" text-anchor="middle" fill="#111">Best in the building.</text>
    <!-- tiny clanker screen balloon -->
    <rect x="836" y="150" width="82" height="30" rx="2" fill="#fff" stroke="#111" stroke-width="2"/>
    <path d="M877 180 L881 200" stroke="#111" stroke-width="1.3" stroke-dasharray="3 3" fill="none"/>
    <text x="877" y="170" font-family="'Comic Sans MS','Segoe Print',cursive" font-size="13" text-anchor="middle" fill="#111">Noted.</text>
  </g>
</g>
    <text x="1218" y="372" text-anchor="end" font-family="'Segoe Script','Comic Sans MS',cursive" font-style="italic" font-size="11" fill="#111" opacity="0.32">Matt Clanker</text>
    
  </svg>