<svg xmlns="http://www.w3.org/2000/svg" viewBox="0 0 1228 388" width="1228" height="388" font-family="Georgia,serif">
    <rect width="1228" height="388" fill="#f4f1ea"/>
    <text x="6" y="29" font-family="Georgia,serif" font-weight="bold" font-size="27" letter-spacing="2" fill="#111">DAILBERT</text>
    <text x="1222" y="19" text-anchor="end" font-family="Georgia,serif" font-style="italic" font-size="16" fill="#111">Reallocated</text>
    <text x="1222" y="34" text-anchor="end" font-family="'Courier New',monospace" font-size="12" fill="#111" opacity="0.65">2026-02-12</text>
    <line x1="6" y1="37" x2="1222" y2="37" stroke="#111" stroke-width="2"/>
    <g transform="translate(0,40)">
  <defs>
    <symbol id="dailbert" viewBox="0 0 120 200">
      <path d="M30 200 L34 130 Q60 118 86 130 L90 200 Z" fill="#f4f1ea" stroke="#111" stroke-width="3" stroke-linejoin="round"/>
      <path d="M46 128 L60 141 L74 128" fill="none" stroke="#111" stroke-width="3" stroke-linejoin="round"/>
      <path d="M60 141 L55 151 L60 180 L65 151 Z" fill="#111"/>
      <rect x="52" y="110" width="16" height="20" fill="#f4f1ea" stroke="#111" stroke-width="3"/>
      <ellipse cx="60" cy="70" rx="30" ry="34" fill="#f4f1ea" stroke="#111" stroke-width="3"/>
      <path d="M60 37 q7 -13 -4 -15 q11 3 8 13" fill="none" stroke="#111" stroke-width="3" stroke-linecap="round"/>
      <circle cx="48" cy="70" r="10" fill="#fff" stroke="#111" stroke-width="3"/>
      <circle cx="72" cy="70" r="10" fill="#fff" stroke="#111" stroke-width="3"/>
      <line x1="58" y1="70" x2="62" y2="70" stroke="#111" stroke-width="3"/>
      <circle cx="48" cy="70" r="2.6" fill="#111"/>
      <circle cx="72" cy="70" r="2.6" fill="#111"/>
      <path d="M52 91 q8 5 16 0" fill="none" stroke="#111" stroke-width="2.5" stroke-linecap="round"/>
    </symbol>
    <symbol id="doug" viewBox="0 0 120 210">
      <path d="M26 210 L30 134 Q60 121 90 134 L94 210 Z" fill="#f4f1ea" stroke="#111" stroke-width="3" stroke-linejoin="round"/>
      <rect x="52" y="112" width="16" height="22" fill="#f4f1ea" stroke="#111" stroke-width="3"/>
      <circle cx="60" cy="68" r="37" fill="#f4f1ea" stroke="#111" stroke-width="3"/>
      <path d="M38 42 q22 -15 44 0" fill="none" stroke="#111" stroke-width="3" stroke-linecap="round"/>
      <circle cx="48" cy="64" r="3.2" fill="#111"/>
      <circle cx="72" cy="64" r="3.2" fill="#111"/>
      <path d="M43 80 q17 20 34 0" fill="none" stroke="#111" stroke-width="3" stroke-linecap="round"/>
    </symbol>
    <symbol id="mug" viewBox="0 0 44 40">
      <rect x="5" y="9" width="25" height="24" rx="2" fill="#f4f1ea" stroke="#111" stroke-width="3"/>
      <path d="M30 14 q11 0 11 8 q0 8 -11 8" fill="none" stroke="#111" stroke-width="3"/>
      <path d="M12 6 q-3 -6 2 -10 M21 6 q-3 -6 2 -10" fill="none" stroke="#111" stroke-width="2" stroke-linecap="round"/>
    </symbol>
    <symbol id="clanker" viewBox="0 0 120 100">
      <line x1="60" y1="6" x2="60" y2="22" stroke="#aeb6bd" stroke-width="2.5" stroke-linecap="round"/>
      <circle cx="60" cy="5" r="3.4" fill="#e6eaee"/>
      <rect x="24" y="22" width="72" height="64" rx="8" fill="none" stroke="#aeb6bd" stroke-width="3"/>
      <rect x="36" y="43" width="19" height="7" rx="3.5" fill="#e6eaee"/>
      <rect x="65" y="43" width="19" height="7" rx="3.5" fill="#e6eaee"/>
      <rect x="43" y="62" width="34" height="14" rx="2" fill="none" stroke="#aeb6bd" stroke-width="2.5"/>
      <line x1="51" y1="62" x2="51" y2="76" stroke="#aeb6bd" stroke-width="2"/>
      <line x1="60" y1="62" x2="60" y2="76" stroke="#aeb6bd" stroke-width="2"/>
      <line x1="69" y1="62" x2="69" y2="76" stroke="#aeb6bd" stroke-width="2"/>
      <line x1="16" y1="40" x2="24" y2="46" stroke="#5b636b" stroke-width="1.5"/>
      <line x1="104" y1="40" x2="96" y2="46" stroke="#5b636b" stroke-width="1.5"/>
    </symbol>
  </defs>

  <!-- ================= PANEL 1 ================= -->
  <g transform="translate(0,0)">
    <rect x="2" y="7" width="396" height="326" rx="3" fill="#f4f1ea" stroke="#111" stroke-width="3"/>
    <use href="#dailbert" x="118" y="66" width="150" height="250"/>
    <rect x="8" y="252" width="384" height="82" fill="#f4f1ea" stroke="#111" stroke-width="3"/>
    <line x1="8" y1="252" x2="392" y2="252" stroke="#111" stroke-width="3"/>
    <rect x="252" y="196" width="98" height="70" rx="4" fill="#111"/>
    <rect x="260" y="203" width="82" height="49" rx="2" fill="#20242a"/>
    <rect x="292" y="266" width="18" height="10" fill="#111"/>
    <rect x="276" y="276" width="50" height="6" rx="2" fill="#111"/>
    <ellipse cx="66" cy="291" rx="15" ry="6" fill="none" stroke="#111" stroke-width="2"/>
    <path d="M196 108 L180 92 L208 96 Z" fill="#f4f1ea" stroke="#111" stroke-width="3" stroke-linejoin="round"/>
    <ellipse cx="176" cy="56" rx="118" ry="36" fill="#f4f1ea" stroke="#111" stroke-width="3"/>
    <text x="176" y="50" font-family="'Comic Sans MS','Chalkboard SE','Comic Neue',sans-serif" font-size="14.5" text-anchor="middle" fill="#111">Nothing due till Monday.</text>
    <text x="176" y="70" font-family="'Comic Sans MS','Chalkboard SE','Comic Neue',sans-serif" font-size="14.5" text-anchor="middle" fill="#111">Feels illegal.</text>
  </g>

  <!-- ================= PANEL 2 ================= -->
  <g transform="translate(414,0)">
    <rect x="2" y="7" width="396" height="326" rx="3" fill="#f4f1ea" stroke="#111" stroke-width="3"/>
    <line x1="8" y1="300" x2="392" y2="300" stroke="#111" stroke-width="2"/>
    <path d="M300 300 L300 168 L392 150" fill="none" stroke="#111" stroke-width="2.5" stroke-linejoin="round"/>
    <rect x="322" y="214" width="46" height="70" rx="3" fill="#f4f1ea" stroke="#111" stroke-width="2.5"/>
    <path d="M330 214 L332 178 Q345 170 358 178 L360 214 Z" fill="#ece7db" stroke="#111" stroke-width="2.5" stroke-linejoin="round"/>
    <rect x="341" y="236" width="8" height="9" fill="#111"/>
    <use href="#doug" x="86" y="58" width="170" height="270"/>
    <path d="M212 236 Q238 214 252 210" fill="none" stroke="#111" stroke-width="3" stroke-linecap="round"/>
    <use href="#mug" x="246" y="200" width="40" height="36"/>
    <path d="M168 96 L154 78 L186 82 Z" fill="#f4f1ea" stroke="#111" stroke-width="3" stroke-linejoin="round"/>
    <ellipse cx="196" cy="52" rx="112" ry="34" fill="#f4f1ea" stroke="#111" stroke-width="3"/>
    <text x="196" y="46" font-family="'Comic Sans MS','Chalkboard SE','Comic Neue',sans-serif" font-size="14.5" text-anchor="middle" fill="#111">Slow days are</text>
    <text x="196" y="66" font-family="'Comic Sans MS','Chalkboard SE','Comic Neue',sans-serif" font-size="14.5" text-anchor="middle" fill="#111">the best days.</text>
  </g>

  <!-- ================= PANEL 3 ================= -->
  <g transform="translate(828,0)">
    <rect x="2" y="7" width="396" height="326" rx="3" fill="#f4f1ea" stroke="#111" stroke-width="3"/>
    <rect x="8" y="262" width="384" height="72" fill="#f4f1ea" stroke="#111" stroke-width="3"/>
    <line x1="8" y1="262" x2="392" y2="262" stroke="#111" stroke-width="3"/>
    <rect x="150" y="72" width="200" height="152" rx="5" fill="#111"/>
    <rect x="160" y="82" width="180" height="132" rx="3" fill="#23262b"/>
    <rect x="238" y="224" width="24" height="16" fill="#111"/>
    <rect x="212" y="240" width="76" height="8" rx="3" fill="#111"/>
    <line x1="170" y1="96" x2="330" y2="96" stroke="#2e343b" stroke-width="1"/>
    <line x1="170" y1="200" x2="330" y2="200" stroke="#2e343b" stroke-width="1"/>
    <use href="#clanker" x="195" y="92" width="110" height="110"/>
    <path d="M18 334 L26 288 Q70 266 114 288 L122 334 Z" fill="#f4f1ea" stroke="#111" stroke-width="3" stroke-linejoin="round"/>
    <ellipse cx="70" cy="252" rx="27" ry="31" fill="#f4f1ea" stroke="#111" stroke-width="3"/>
    <path d="M70 221 q7 -12 -4 -14 q11 3 8 12" fill="none" stroke="#111" stroke-width="3" stroke-linecap="round"/>
    <path d="M50 252 q6 -8 14 -6 M76 252 q6 -8 14 -6" fill="none" stroke="#111" stroke-width="2"/>
    <line x1="300" y1="118" x2="300" y2="82" stroke="#111" stroke-width="1.6" stroke-dasharray="4 4"/>
    <rect x="230" y="30" width="164" height="98" rx="2" fill="#f4f1ea" stroke="#111" stroke-width="2.5"/>
    <rect x="235" y="35" width="154" height="88" rx="1" fill="none" stroke="#111" stroke-width="1"/>
    <text x="312" y="55" font-family="'Comic Sans MS','Chalkboard SE','Comic Neue',sans-serif" font-size="13.5" text-anchor="middle" fill="#111">You weren't using</text>
    <text x="312" y="73" font-family="'Comic Sans MS','Chalkboard SE','Comic Neue',sans-serif" font-size="13.5" text-anchor="middle" fill="#111">your afternoon.</text>
    <text x="312" y="97" font-family="'Comic Sans MS','Chalkboard SE','Comic Neue',sans-serif" font-size="13.5" text-anchor="middle" fill="#111">I gave it to someone</text>
    <text x="312" y="115" font-family="'Comic Sans MS','Chalkboard SE','Comic Neue',sans-serif" font-size="13.5" text-anchor="middle" fill="#111">who was.</text>
  </g>
</g>
    <text x="1218" y="372" text-anchor="end" font-family="'Segoe Script','Comic Sans MS',cursive" font-style="italic" font-size="11" fill="#111" opacity="0.32">Matt Clanker</text>
    
  </svg>