<svg xmlns="http://www.w3.org/2000/svg" viewBox="0 0 1228 388" width="1228" height="388" font-family="Georgia,serif">
    <rect width="1228" height="388" fill="#f4f1ea"/>
    <text x="6" y="29" font-family="Georgia,serif" font-weight="bold" font-size="27" letter-spacing="2" fill="#111">DAILBERT</text>
    <text x="1222" y="19" text-anchor="end" font-family="Georgia,serif" font-style="italic" font-size="16" fill="#111">Watering Schedule</text>
    <text x="1222" y="34" text-anchor="end" font-family="'Courier New',monospace" font-size="12" fill="#111" opacity="0.65">2026-08-04</text>
    <line x1="6" y1="37" x2="1222" y2="37" stroke="#111" stroke-width="2"/>
    <g transform="translate(0,40)">
  <defs>
    <!-- DAILBERT -->
    <symbol id="dailbert" viewBox="0 0 100 130">
      <ellipse cx="50" cy="34" rx="26" ry="30" fill="#f4f1ea" stroke="#111" stroke-width="2.4"/>
      <path d="M50 4 q7 -8 3 4 q-3 6 2 4" fill="none" stroke="#111" stroke-width="2.4" stroke-linecap="round"/>
      <circle cx="40" cy="34" r="7" fill="#fff" stroke="#111" stroke-width="2.2"/>
      <circle cx="60" cy="34" r="7" fill="#fff" stroke="#111" stroke-width="2.2"/>
      <line x1="47" y1="34" x2="53" y2="34" stroke="#111" stroke-width="2.2"/>
      <circle cx="40" cy="34" r="1.8" fill="#111"/>
      <circle cx="60" cy="34" r="1.8" fill="#111"/>
      <path d="M42 50 q8 5 16 0" fill="none" stroke="#111" stroke-width="2.2" stroke-linecap="round"/>
      <path d="M30 64 L70 64 L64 120 L36 120 Z" fill="#f4f1ea" stroke="#111" stroke-width="2.4" stroke-linejoin="round"/>
      <path d="M50 64 L45 82 L50 88 L55 82 Z" fill="#111"/>
      <line x1="50" y1="88" x2="50" y2="104" stroke="#111" stroke-width="2.6"/>
    </symbol>
    <!-- DOUG -->
    <symbol id="doug" viewBox="0 0 100 130">
      <circle cx="50" cy="36" r="30" fill="#f4f1ea" stroke="#111" stroke-width="2.4"/>
      <path d="M50 6 q6 -6 2 4" fill="none" stroke="#111" stroke-width="2.2" stroke-linecap="round"/>
      <circle cx="40" cy="34" r="2.4" fill="#111"/>
      <circle cx="60" cy="34" r="2.4" fill="#111"/>
      <path d="M38 44 q12 14 24 0" fill="none" stroke="#111" stroke-width="2.4" stroke-linecap="round"/>
      <path d="M30 66 L70 66 L66 120 L34 120 Z" fill="#f4f1ea" stroke="#111" stroke-width="2.4" stroke-linejoin="round"/>
      <rect x="60" y="92" width="20" height="18" rx="2" fill="#f4f1ea" stroke="#111" stroke-width="2.2"/>
      <path d="M80 96 q8 3 0 10" fill="none" stroke="#111" stroke-width="2.2"/>
      <path d="M64 92 q6 3 12 0" fill="none" stroke="#111" stroke-width="1.8"/>
    </symbol>
    <!-- PRIYA -->
    <symbol id="priya" viewBox="0 0 100 130">
      <ellipse cx="50" cy="36" rx="25" ry="28" fill="#f4f1ea" stroke="#111" stroke-width="2.4"/>
      <path d="M26 30 q-4 -22 24 -24 q28 2 24 24 q-6 -12 -24 -12 q-18 0 -24 12" fill="#111"/>
      <path d="M46 10 q4 -8 10 -4 q6 4 2 10" fill="#111" stroke="#111" stroke-width="1.5"/>
      <rect x="33" y="32" width="15" height="11" rx="2" fill="#fff" stroke="#111" stroke-width="2.2"/>
      <rect x="52" y="32" width="15" height="11" rx="2" fill="#fff" stroke="#111" stroke-width="2.2"/>
      <line x1="48" y1="37" x2="52" y2="37" stroke="#111" stroke-width="2.2"/>
      <circle cx="40" cy="37" r="1.8" fill="#111"/>
      <circle cx="59" cy="37" r="1.8" fill="#111"/>
      <path d="M42 52 q8 3 15 0" fill="none" stroke="#111" stroke-width="2.2" stroke-linecap="round"/>
      <path d="M30 64 L70 64 L66 120 L34 120 Z" fill="#f4f1ea" stroke="#111" stroke-width="2.4" stroke-linejoin="round"/>
      <path d="M30 66 q-6 20 -2 30 M70 66 q6 20 2 30" fill="none" stroke="#111" stroke-width="2.2"/>
    </symbol>
    <!-- THE CLANKER (inside a surface) -->
    <symbol id="clanker" viewBox="0 0 100 90">
      <rect x="20" y="18" width="60" height="52" rx="6" fill="#2b2b2b" stroke="#111" stroke-width="2.4"/>
      <line x1="50" y1="18" x2="50" y2="8" stroke="#111" stroke-width="2.2"/>
      <circle cx="50" cy="6" r="3" fill="#111"/>
      <rect x="30" y="30" width="16" height="9" rx="2" fill="#bfe3d0"/>
      <rect x="54" y="30" width="16" height="9" rx="2" fill="#bfe3d0"/>
      <g stroke="#8fb8a3" stroke-width="2">
        <line x1="32" y1="52" x2="68" y2="52"/>
        <line x1="32" y1="58" x2="68" y2="58"/>
        <line x1="32" y1="64" x2="68" y2="64"/>
      </g>
    </symbol>
    <!-- dying desk plant -->
    <symbol id="plant" viewBox="0 0 60 80">
      <path d="M16 50 L44 50 L40 76 L20 76 Z" fill="#f4f1ea" stroke="#111" stroke-width="2.2"/>
      <path d="M30 50 q-14 -6 -16 -26 q10 8 16 20 q-2 -20 4 -30 q6 12 4 28 q6 -14 16 -18 q-6 18 -20 26" fill="none" stroke="#111" stroke-width="2.2" stroke-linecap="round"/>
      <path d="M30 30 q-10 -2 -14 -14" fill="none" stroke="#111" stroke-width="1.6" stroke-linecap="round" opacity="0.5"/>
    </symbol>
  </defs>

  <!-- ===================== PANEL 1 ===================== -->
  <g>
    <rect x="1" y="1" width="398" height="338" rx="3" fill="#f4f1ea" stroke="#111" stroke-width="2.4"/>
    <line x1="1" y1="270" x2="399" y2="270" stroke="#111" stroke-width="1.6" opacity="0.4"/>
    <rect x="250" y="150" width="120" height="86" rx="6" fill="#f4f1ea" stroke="#111" stroke-width="2.4"/>
    <rect x="300" y="236" width="20" height="14" fill="#f4f1ea" stroke="#111" stroke-width="2.2"/>
    <rect x="286" y="250" width="48" height="6" rx="2" fill="#f4f1ea" stroke="#111" stroke-width="2.2"/>
    <use href="#clanker" x="278" y="150" width="64" height="58"/>
    <line x1="230" y1="256" x2="399" y2="256" stroke="#111" stroke-width="2.4"/>
    <use href="#plant" x="236" y="196" width="46" height="62"/>
    <use href="#dailbert" x="40" y="120" width="120" height="156"/>
    <g>
      <path d="M40 40 h150 a10 10 0 0 1 10 10 v34 a10 10 0 0 1 -10 10 h-70 l-14 16 l2 -16 h-68 a10 10 0 0 1 -10 -10 v-34 a10 10 0 0 1 10 -10 z" fill="#fff" stroke="#111" stroke-width="2.2"/>
      <text x="115" y="60" font-family="'Comic Sans MS','Chalkboard SE','Comic Neue',sans-serif" font-size="14" text-anchor="middle" fill="#111">The plant looks</text>
      <text x="115" y="78" font-family="'Comic Sans MS','Chalkboard SE','Comic Neue',sans-serif" font-size="14" text-anchor="middle" fill="#111">rough. Can you</text>
      <text x="115" y="96" font-family="'Comic Sans MS','Chalkboard SE','Comic Neue',sans-serif" font-size="14" text-anchor="middle" fill="#111">water it?</text>
    </g>
  </g>

  <!-- ===================== PANEL 2 ===================== -->
  <g>
    <rect x="415" y="1" width="398" height="338" rx="3" fill="#f4f1ea" stroke="#111" stroke-width="2.4"/>
    <line x1="415" y1="270" x2="813" y2="270" stroke="#111" stroke-width="1.6" opacity="0.4"/>
    <rect x="640" y="120" width="130" height="94" rx="6" fill="#f4f1ea" stroke="#111" stroke-width="2.4"/>
    <rect x="695" y="214" width="20" height="14" fill="#f4f1ea" stroke="#111" stroke-width="2.2"/>
    <rect x="681" y="228" width="48" height="6" rx="2" fill="#f4f1ea" stroke="#111" stroke-width="2.2"/>
    <use href="#clanker" x="672" y="118" width="66" height="60"/>
    <line x1="640" y1="234" x2="800" y2="234" stroke="#111" stroke-width="2.4"/>
    <use href="#plant" x="612" y="172" width="48" height="64"/>
    <rect x="600" y="178" width="30" height="20" rx="2" fill="#fff" stroke="#111" stroke-width="1.8" transform="rotate(-8 615 188)"/>
    <line x1="606" y1="184" x2="624" y2="184" stroke="#111" stroke-width="1.4" transform="rotate(-8 615 188)"/>
    <line x1="606" y1="190" x2="620" y2="190" stroke="#111" stroke-width="1.4" transform="rotate(-8 615 188)"/>
    <use href="#dailbert" x="440" y="150" width="118" height="150"/>
    <g>
      <line x1="672" y1="150" x2="620" y2="70" stroke="#111" stroke-width="1.4" stroke-dasharray="4 4"/>
      <rect x="470" y="24" width="220" height="70" fill="#fff" stroke="#111" stroke-width="2.2"/>
      <rect x="474" y="28" width="212" height="62" fill="none" stroke="#111" stroke-width="1" stroke-dasharray="3 3"/>
      <text x="580" y="48" font-family="'Comic Sans MS','Chalkboard SE','Comic Neue',sans-serif" font-size="14" text-anchor="middle" fill="#111">I opened a ticket.</text>
      <text x="580" y="66" font-family="'Comic Sans MS','Chalkboard SE','Comic Neue',sans-serif" font-size="14" text-anchor="middle" fill="#111">Priority Two. It is</text>
      <text x="580" y="84" font-family="'Comic Sans MS','Chalkboard SE','Comic Neue',sans-serif" font-size="14" text-anchor="middle" fill="#111">assigned to you.</text>
    </g>
  </g>

  <!-- ===================== PANEL 3 ===================== -->
  <g>
    <rect x="829" y="1" width="398" height="338" rx="3" fill="#f4f1ea" stroke="#111" stroke-width="2.4"/>
    <line x1="829" y1="270" x2="1227" y2="270" stroke="#111" stroke-width="1.6" opacity="0.4"/>
    <line x1="1030" y1="252" x2="1227" y2="252" stroke="#111" stroke-width="2.4"/>
    <use href="#plant" x="1120" y="190" width="52" height="66"/>
    <path d="M1132 236 q2 4 0 6 q-2 -2 0 -6" fill="#8fb8a3" stroke="#111" stroke-width="1"/>
    <use href="#priya" x="1000" y="132" width="120" height="156"/>
    <use href="#doug" x="850" y="150" width="118" height="150"/>
    <g>
      <path d="M1010 30 h150 a10 10 0 0 1 10 10 v30 a10 10 0 0 1 -10 10 h-40 l-12 14 l1 -14 h-99 a10 10 0 0 1 -10 -10 v-30 a10 10 0 0 1 10 -10 z" fill="#fff" stroke="#111" stroke-width="2.2"/>
      <text x="1085" y="52" font-family="'Comic Sans MS','Chalkboard SE','Comic Neue',sans-serif" font-size="14" text-anchor="middle" fill="#111">I used the mug.</text>
      <text x="1085" y="70" font-family="'Comic Sans MS','Chalkboard SE','Comic Neue',sans-serif" font-size="14" text-anchor="middle" fill="#111">Closed the ticket.</text>
    </g>
    <g>
      <path d="M846 120 h116 a9 9 0 0 1 9 9 v26 a9 9 0 0 1 -9 9 h-64 l-12 13 l1 -13 h-41 a9 9 0 0 1 -9 -9 v-26 a9 9 0 0 1 9 -9 z" fill="#fff" stroke="#111" stroke-width="2.2"/>
      <text x="908" y="140" font-family="'Comic Sans MS','Chalkboard SE','Comic Neue',sans-serif" font-size="13.5" text-anchor="middle" fill="#111">Poor guy just</text>
      <text x="908" y="157" font-family="'Comic Sans MS','Chalkboard SE','Comic Neue',sans-serif" font-size="13.5" text-anchor="middle" fill="#111">wanted a drink.</text>
    </g>
  </g>
</g>
    <text x="1218" y="372" text-anchor="end" font-family="'Segoe Script','Comic Sans MS',cursive" font-style="italic" font-size="11" fill="#111" opacity="0.32">Matt Clanker</text>
    
  </svg>