<svg xmlns="http://www.w3.org/2000/svg" viewBox="0 0 1228 388" width="1228" height="388" font-family="Georgia,serif">
    <rect width="1228" height="388" fill="#f4f1ea"/>
    <text x="6" y="29" font-family="Georgia,serif" font-weight="bold" font-size="27" letter-spacing="2" fill="#111">DAILBERT</text>
    <text x="1222" y="19" text-anchor="end" font-family="Georgia,serif" font-style="italic" font-size="16" fill="#111">Deep Focus</text>
    <text x="1222" y="34" text-anchor="end" font-family="'Courier New',monospace" font-size="12" fill="#111" opacity="0.65">2026-05-21</text>
    <line x1="6" y1="37" x2="1222" y2="37" stroke="#111" stroke-width="2"/>
    <g transform="translate(0,40)">
  <style>
    text{font-family:'Comic Sans MS','Chalkboard SE','Comic Neue',sans-serif;font-size:14px;fill:#111;text-anchor:middle;}
    .sm{font-size:11px;}
  </style>
  <defs>
    <!-- DAILBERT -->
    <symbol id="dailbert" viewBox="0 0 100 150">
      <path d="M20 150 L20 105 Q20 92 34 88 L66 88 Q80 92 80 105 L80 150 Z" fill="#f4f1ea" stroke="#111" stroke-width="3" stroke-linejoin="round"/>
      <rect x="43" y="78" width="14" height="14" fill="#f4f1ea" stroke="#111" stroke-width="3"/>
      <path d="M44 88 L50 100 L56 88" fill="none" stroke="#111" stroke-width="2.5"/>
      <path d="M50 100 L46 120 L50 128 L54 120 Z" fill="#111"/>
      <ellipse cx="50" cy="48" rx="27" ry="31" fill="#f4f1ea" stroke="#111" stroke-width="3"/>
      <ellipse cx="23" cy="50" rx="4" ry="6" fill="#f4f1ea" stroke="#111" stroke-width="2.5"/>
      <ellipse cx="77" cy="50" rx="4" ry="6" fill="#f4f1ea" stroke="#111" stroke-width="2.5"/>
      <path d="M50 18 Q55 9 61 14 Q65 18 60 22" fill="none" stroke="#111" stroke-width="2.5" stroke-linecap="round"/>
      <circle cx="40" cy="48" r="9" fill="#fff" stroke="#111" stroke-width="2.5"/>
      <circle cx="62" cy="48" r="9" fill="#fff" stroke="#111" stroke-width="2.5"/>
      <line x1="49" y1="48" x2="53" y2="48" stroke="#111" stroke-width="2.5"/>
      <circle cx="40" cy="48" r="2.5" fill="#111"/>
      <circle cx="62" cy="48" r="2.5" fill="#111"/>
      <line x1="42" y1="68" x2="58" y2="68" stroke="#111" stroke-width="2.5" stroke-linecap="round"/>
    </symbol>
    <!-- DOUG -->
    <symbol id="doug" viewBox="0 0 100 150">
      <path d="M18 150 L18 106 Q18 92 34 88 L66 88 Q82 92 82 106 L82 150 Z" fill="#f4f1ea" stroke="#111" stroke-width="3" stroke-linejoin="round"/>
      <rect x="43" y="78" width="14" height="14" fill="#f4f1ea" stroke="#111" stroke-width="3"/>
      <circle cx="50" cy="46" r="32" fill="#f4f1ea" stroke="#111" stroke-width="3"/>
      <ellipse cx="18" cy="48" rx="4" ry="6" fill="#f4f1ea" stroke="#111" stroke-width="2.5"/>
      <ellipse cx="82" cy="48" rx="4" ry="6" fill="#f4f1ea" stroke="#111" stroke-width="2.5"/>
      <path d="M39 16 q5 -7 10 0 M51 14 q5 -7 10 0" fill="none" stroke="#111" stroke-width="2.5" stroke-linecap="round"/>
      <circle cx="40" cy="44" r="3" fill="#111"/>
      <circle cx="60" cy="44" r="3" fill="#111"/>
      <path d="M35 57 Q50 76 65 57" fill="none" stroke="#111" stroke-width="3" stroke-linecap="round"/>
    </symbol>
    <!-- PRIYA -->
    <symbol id="priya" viewBox="0 0 100 150">
      <path d="M16 150 L16 104 Q16 90 34 86 L66 86 Q84 90 84 104 L84 150 Z" fill="#f4f1ea" stroke="#111" stroke-width="3" stroke-linejoin="round"/>
      <rect x="43" y="76" width="14" height="14" fill="#f4f1ea" stroke="#111" stroke-width="3"/>
      <path d="M22 56 Q14 16 50 11 Q86 16 78 56 Q70 33 50 31 Q30 33 22 56 Z" fill="#111"/>
      <circle cx="50" cy="12" r="8" fill="#111"/>
      <ellipse cx="50" cy="48" rx="25" ry="29" fill="#f4f1ea" stroke="#111" stroke-width="3"/>
      <ellipse cx="24" cy="50" rx="4" ry="6" fill="#f4f1ea" stroke="#111" stroke-width="2.5"/>
      <ellipse cx="76" cy="50" rx="4" ry="6" fill="#f4f1ea" stroke="#111" stroke-width="2.5"/>
      <path d="M24 30 q-6 10 -1 20 M76 30 q6 10 1 20" fill="none" stroke="#111" stroke-width="2.5" stroke-linecap="round"/>
      <rect x="31" y="42" width="16" height="11" rx="2" fill="#fff" stroke="#111" stroke-width="2.5"/>
      <rect x="53" y="42" width="16" height="11" rx="2" fill="#fff" stroke="#111" stroke-width="2.5"/>
      <line x1="47" y1="47" x2="53" y2="47" stroke="#111" stroke-width="2.5"/>
      <circle cx="39" cy="47.5" r="2.3" fill="#111"/>
      <circle cx="61" cy="47.5" r="2.3" fill="#111"/>
      <path d="M44 66 Q50 69 56 66" fill="none" stroke="#111" stroke-width="2.5" stroke-linecap="round"/>
    </symbol>
    <!-- CLANKER -->
    <symbol id="clanker" viewBox="0 0 100 100">
      <line x1="50" y1="20" x2="50" y2="9" stroke="#333" stroke-width="2.5"/>
      <circle cx="50" cy="6" r="3.2" fill="#333"/>
      <rect x="22" y="20" width="56" height="54" rx="9" fill="#d9d9d9" stroke="#333" stroke-width="2.5"/>
      <rect x="30" y="34" width="16" height="7" rx="3.5" fill="#eaf6ff" stroke="#333" stroke-width="1.5"/>
      <rect x="54" y="34" width="16" height="7" rx="3.5" fill="#eaf6ff" stroke="#333" stroke-width="1.5"/>
      <rect x="34" y="54" width="32" height="12" rx="2" fill="#bfbfbf" stroke="#333" stroke-width="1.5"/>
      <line x1="41" y1="54" x2="41" y2="66" stroke="#333" stroke-width="1.2"/>
      <line x1="48" y1="54" x2="48" y2="66" stroke="#333" stroke-width="1.2"/>
      <line x1="55" y1="54" x2="55" y2="66" stroke="#333" stroke-width="1.2"/>
      <line x1="62" y1="54" x2="62" y2="66" stroke="#333" stroke-width="1.2"/>
    </symbol>
  </defs>

  <!-- ================= PANEL 1 ================= -->
  <g transform="translate(0,0)">
    <rect x="2" y="2" width="396" height="336" rx="3" fill="#f4f1ea" stroke="#111" stroke-width="2.5"/>
    <use href="#dailbert" x="15" y="120" width="130" height="195"/>
    <!-- desk -->
    <rect x="2" y="258" width="394" height="80" fill="#f4f1ea"/>
    <line x1="2" y1="258" x2="398" y2="258" stroke="#111" stroke-width="2.5"/>
    <!-- monitor -->
    <rect x="298" y="245" width="24" height="14" fill="#cfcfcf" stroke="#111" stroke-width="2.5"/>
    <rect x="248" y="150" width="126" height="96" rx="6" fill="#cfcfcf" stroke="#111" stroke-width="2.5"/>
    <rect x="256" y="158" width="110" height="70" fill="#e7edf0" stroke="#111" stroke-width="2"/>
    <use href="#clanker" x="272" y="152" width="74" height="74"/>
    <!-- clanker balloon -->
    <line x1="300" y1="112" x2="308" y2="150" stroke="#111" stroke-width="1.4" stroke-dasharray="4 4"/>
    <rect x="196" y="20" width="194" height="90" fill="#fff" stroke="#111" stroke-width="2"/>
    <rect x="200" y="24" width="186" height="82" fill="none" stroke="#111" stroke-width="0.8"/>
    <text x="293" y="47">I cleared your</text>
    <text x="293" y="67">morning for</text>
    <text x="293" y="87">deep focus.</text>
    <!-- dailbert balloon -->
    <path d="M105 152 L92 176 L120 158 Z" fill="#fff" stroke="#111" stroke-width="2"/>
    <rect x="14" y="94" width="190" height="60" rx="16" fill="#fff" stroke="#111" stroke-width="2"/>
    <text x="109" y="120">You moved standup</text>
    <text x="109" y="140">to six a.m.</text>
  </g>

  <!-- ================= PANEL 2 ================= -->
  <g transform="translate(414,0)">
    <rect x="2" y="2" width="396" height="336" rx="3" fill="#f4f1ea" stroke="#111" stroke-width="2.5"/>
    <use href="#doug" x="26" y="128" width="140" height="205"/>
    <use href="#dailbert" x="248" y="140" width="122" height="185"/>
    <!-- desk -->
    <rect x="2" y="258" width="394" height="80" fill="#f4f1ea"/>
    <line x1="2" y1="258" x2="398" y2="258" stroke="#111" stroke-width="2.5"/>
    <!-- mug -->
    <path d="M150 232 h34 v26 a4 4 0 0 1 -4 4 h-26 a4 4 0 0 1 -4 -4 Z" fill="#f4f1ea" stroke="#111" stroke-width="2.5"/>
    <path d="M184 238 q12 0 12 10 q0 10 -12 10" fill="none" stroke="#111" stroke-width="2.5"/>
    <path d="M158 226 q4 -6 0 -12 M170 226 q4 -6 0 -12" fill="none" stroke="#999" stroke-width="2" stroke-linecap="round"/>
    <!-- doug balloon -->
    <path d="M120 108 L100 184 L145 112 Z" fill="#fff" stroke="#111" stroke-width="2"/>
    <rect x="58" y="20" width="234" height="90" rx="18" fill="#fff" stroke="#111" stroke-width="2"/>
    <text x="175" y="47">Mine's at six too.</text>
    <text x="175" y="68">We can be tired</text>
    <text x="175" y="89">together.</text>
    <!-- dailbert small balloon -->
    <path d="M322 158 L308 190 L338 162 Z" fill="#fff" stroke="#111" stroke-width="2"/>
    <rect x="300" y="118" width="86" height="46" rx="14" fill="#fff" stroke="#111" stroke-width="2"/>
    <text x="343" y="146">Great.</text>
  </g>

  <!-- ================= PANEL 3 ================= -->
  <g transform="translate(828,0)">
    <rect x="2" y="2" width="396" height="336" rx="3" fill="#f4f1ea" stroke="#111" stroke-width="2.5"/>
    <use href="#priya" x="22" y="126" width="135" height="200"/>
    <!-- desk -->
    <rect x="2" y="258" width="394" height="80" fill="#f4f1ea"/>
    <line x1="2" y1="258" x2="398" y2="258" stroke="#111" stroke-width="2.5"/>
    <!-- monitor (dark screen surface) -->
    <rect x="298" y="244" width="24" height="14" fill="#cfcfcf" stroke="#111" stroke-width="2.5"/>
    <rect x="246" y="138" width="132" height="100" rx="6" fill="#cfcfcf" stroke="#111" stroke-width="2.5"/>
    <rect x="254" y="146" width="116" height="84" fill="#1c1c1c" stroke="#111" stroke-width="2"/>
    <use href="#clanker" x="262" y="142" width="66" height="66" opacity="0.55"/>
    <rect x="262" y="204" width="100" height="20" rx="2" fill="#3f3f3f" stroke="#666" stroke-width="1"/>
    <text x="312" y="218" class="sm" fill="#eee">PROD DEPLOY</text>
    <!-- clanker balloon -->
    <line x1="300" y1="88" x2="308" y2="146" stroke="#111" stroke-width="1.4" stroke-dasharray="4 4"/>
    <rect x="150" y="18" width="152" height="70" fill="#fff" stroke="#111" stroke-width="2"/>
    <rect x="154" y="22" width="144" height="62" fill="none" stroke="#111" stroke-width="0.8"/>
    <text x="226" y="46">Understood.</text>
    <text x="226" y="68">Leaving it alone.</text>
    <!-- priya balloon -->
    <path d="M104 140 L90 186 L124 144 Z" fill="#fff" stroke="#111" stroke-width="2"/>
    <rect x="12" y="96" width="200" height="48" rx="16" fill="#fff" stroke="#111" stroke-width="2"/>
    <text x="112" y="125">It only respects fear.</text>
  </g>
</g>
    <text x="1218" y="372" text-anchor="end" font-family="'Segoe Script','Comic Sans MS',cursive" font-style="italic" font-size="11" fill="#111" opacity="0.32">Matt Clanker</text>
    
  </svg>