<!--TITLE: Pre-Recorded-->
<svg xmlns="http://www.w3.org/2000/svg" viewBox="0 0 1228 340" width="1228" height="340">
  <defs>
    <symbol id="dailbert" overflow="visible">
      <path d="M32 128 L35 74 Q50 63 65 74 L68 128 Z" fill="#f4f1ea" stroke="#111" stroke-width="2.5" stroke-linejoin="round"/>
      <path d="M50 72 l5 7 -5 24 -5 -24 z" fill="#111"/>
      <ellipse cx="50" cy="38" rx="19" ry="23" fill="#f4f1ea" stroke="#111" stroke-width="2.5"/>
      <path d="M46 14 q6 -10 14 -3 q-8 -3 -10 5" fill="none" stroke="#111" stroke-width="2" stroke-linecap="round"/>
      <circle cx="42" cy="40" r="6.5" fill="#f4f1ea" stroke="#111" stroke-width="2"/>
      <circle cx="58" cy="40" r="6.5" fill="#f4f1ea" stroke="#111" stroke-width="2"/>
      <line x1="48.5" y1="40" x2="51.5" y2="40" stroke="#111" stroke-width="2"/>
      <circle cx="42" cy="40" r="1.6" fill="#111"/>
      <circle cx="58" cy="40" r="1.6" fill="#111"/>
      <line x1="44" y1="54" x2="56" y2="54" stroke="#111" stroke-width="2" stroke-linecap="round"/>
    </symbol>
    <symbol id="doug" overflow="visible">
      <path d="M30 128 L34 76 Q50 66 66 76 L70 128 Z" fill="#f4f1ea" stroke="#111" stroke-width="2.5" stroke-linejoin="round"/>
      <path d="M66 82 q14 4 11 17" fill="none" stroke="#111" stroke-width="2.5" stroke-linecap="round"/>
      <rect x="70" y="98" width="15" height="16" rx="2" fill="#f4f1ea" stroke="#111" stroke-width="2.5"/>
      <path d="M85 101 q8 4 0 10" fill="none" stroke="#111" stroke-width="2"/>
      <path d="M74 94 q3 -4 0 -8" fill="none" stroke="#111" stroke-width="1.5" stroke-linecap="round"/>
      <path d="M80 94 q-3 -4 0 -8" fill="none" stroke="#111" stroke-width="1.5" stroke-linecap="round"/>
      <circle cx="50" cy="38" r="21" fill="#f4f1ea" stroke="#111" stroke-width="2.5"/>
      <path d="M42 18 l-3 -6 M50 16 l0 -7 M58 18 l3 -6" fill="none" stroke="#111" stroke-width="2" stroke-linecap="round"/>
      <circle cx="43" cy="34" r="2" fill="#111"/>
      <circle cx="57" cy="34" r="2" fill="#111"/>
      <path d="M37 42 Q50 59 63 42" fill="none" stroke="#111" stroke-width="2.5" stroke-linecap="round"/>
      <path d="M40 47 q10 7 20 0" fill="none" stroke="#111" stroke-width="1.5" stroke-linecap="round"/>
    </symbol>
    <symbol id="boss" overflow="visible">
      <path d="M28 128 L33 76 Q50 64 67 76 L72 128 Z" fill="#f4f1ea" stroke="#111" stroke-width="2.5" stroke-linejoin="round"/>
      <path d="M42 72 L50 88 L58 72" fill="none" stroke="#111" stroke-width="2"/>
      <path d="M50 84 l4 6 -4 20 -4 -20 z" fill="#111"/>
      <ellipse cx="50" cy="40" rx="17" ry="20" fill="#f4f1ea" stroke="#111" stroke-width="2.5"/>
      <polygon points="38,26 28,-2 47,22" fill="#111"/>
      <polygon points="62,26 72,-2 53,22" fill="#111"/>
      <circle cx="44" cy="38" r="1.4" fill="#111"/>
      <circle cx="56" cy="38" r="1.4" fill="#111"/>
      <line x1="46" y1="50" x2="54" y2="50" stroke="#111" stroke-width="2" stroke-linecap="round"/>
    </symbol>
    <symbol id="clanker" overflow="visible">
      <line x1="50" y1="14" x2="50" y2="3" stroke="#111" stroke-width="2.5"/>
      <circle cx="50" cy="1" r="3.5" fill="#111"/>
      <rect x="18" y="14" width="64" height="62" rx="7" fill="#cfcfc9" stroke="#111" stroke-width="3"/>
      <rect x="29" y="34" width="15" height="8" rx="2" fill="#111"/>
      <rect x="56" y="34" width="15" height="8" rx="2" fill="#111"/>
      <rect x="32" y="37" width="9" height="2" fill="#f4f1ea"/>
      <rect x="59" y="37" width="9" height="2" fill="#f4f1ea"/>
      <rect x="33" y="54" width="34" height="13" rx="2" fill="none" stroke="#111" stroke-width="2"/>
      <path d="M40 55 v11 M47 55 v11 M54 55 v11 M61 55 v11" stroke="#111" stroke-width="1.5"/>
    </symbol>
  </defs>

  <!-- PANEL 1 -->
  <g>
    <rect x="2" y="2" width="396" height="336" rx="3" fill="#f4f1ea" stroke="#111" stroke-width="2.5"/>
    <line x1="14" y1="302" x2="386" y2="302" stroke="#111" stroke-width="1.5"/>
    <line x1="88" y1="216" x2="88" y2="300" stroke="#111" stroke-width="3"/>
    <line x1="68" y1="300" x2="108" y2="300" stroke="#111" stroke-width="3"/>
    <path d="M60 306 l-8 8 M74 306 l-8 8 M104 306 l-8 8" stroke="#111" stroke-width="1" fill="none"/>
    <rect x="22" y="120" width="132" height="96" rx="3" fill="#d8d8d4" stroke="#111" stroke-width="3"/>
    <use href="#clanker" transform="translate(46,130) scale(0.78)"/>
    <polygon points="132,200 132,210 141,205" fill="#111"/>
    <text x="30" y="210" font-family="'Comic Sans MS','Segoe Print',cursive" font-size="10" fill="#111">0:12</text>
    <path d="M196,214 L160,198 L142,190" fill="none" stroke="#111" stroke-width="2.5" stroke-linecap="round"/>
    <use href="#boss" transform="translate(168,140) scale(0.95)"/>
    <path d="M204 262 L204 300 M227 262 L227 300" stroke="#111" stroke-width="2.5" stroke-linecap="round"/>
    <path d="M204 300 h-10 M227 300 h10" stroke="#111" stroke-width="2.5" stroke-linecap="round"/>
    <use href="#dailbert" transform="translate(248,152) scale(0.78)"/>
    <use href="#doug" transform="translate(312,152) scale(0.78)"/>
    <rect x="252" y="246" width="136" height="10" fill="#f4f1ea" stroke="#111" stroke-width="2.5"/>
    <path d="M262 256 V300 M378 256 V300" stroke="#111" stroke-width="2.5"/>
    <polygon points="200,96 222,96 218,150" fill="#f4f1ea" stroke="#111" stroke-width="2"/>
    <rect x="100" y="14" width="200" height="86" rx="12" fill="#f4f1ea" stroke="#111" stroke-width="2"/>
    <text x="200" y="36" text-anchor="middle" font-family="'Comic Sans MS','Segoe Print',cursive" font-size="14.5" fill="#111">Relax. It's just the</text>
    <text x="200" y="54" text-anchor="middle" font-family="'Comic Sans MS','Segoe Print',cursive" font-size="14.5" fill="#111">vendor's demo video.</text>
    <text x="200" y="72" text-anchor="middle" font-family="'Comic Sans MS','Segoe Print',cursive" font-size="14.5" fill="#111">Nothing installs</text>
    <text x="200" y="90" text-anchor="middle" font-family="'Comic Sans MS','Segoe Print',cursive" font-size="14.5" fill="#111">until the 20th.</text>
  </g>

  <!-- PANEL 2 -->
  <g transform="translate(414,0)">
    <rect x="2" y="2" width="396" height="336" rx="3" fill="#f4f1ea" stroke="#111" stroke-width="2.5"/>
    <line x1="14" y1="302" x2="386" y2="302" stroke="#111" stroke-width="1.5"/>
    <line x1="81" y1="214" x2="81" y2="300" stroke="#111" stroke-width="3"/>
    <line x1="63" y1="300" x2="99" y2="300" stroke="#111" stroke-width="3"/>
    <rect x="22" y="126" width="118" height="88" rx="3" fill="#d8d8d4" stroke="#111" stroke-width="3"/>
    <use href="#clanker" transform="translate(46,136) scale(0.68)"/>
    <polygon points="120,196 120,206 129,201" fill="#111"/>
    <text x="30" y="208" font-family="'Comic Sans MS','Segoe Print',cursive" font-size="10" fill="#111">0:47</text>
    <path d="M188,216 Q170,190 166,172" fill="none" stroke="#111" stroke-width="2.5" stroke-linecap="round"/>
    <circle cx="165" cy="168" r="4.5" fill="#f4f1ea" stroke="#111" stroke-width="2"/>
    <use href="#doug" transform="translate(158,146) scale(0.88)"/>
    <path d="M193 258 V300 M209 258 V300" stroke="#111" stroke-width="2.5" stroke-linecap="round"/>
    <path d="M193 300 h-10 M209 300 h10" stroke="#111" stroke-width="2.5" stroke-linecap="round"/>
    <use href="#dailbert" transform="translate(276,156) scale(0.8)"/>
    <rect x="262" y="248" width="122" height="10" fill="#f4f1ea" stroke="#111" stroke-width="2.5"/>
    <path d="M272 258 V300 M374 258 V300" stroke="#111" stroke-width="2.5"/>
    <polygon points="186,98 208,98 203,156" fill="#f4f1ea" stroke="#111" stroke-width="2"/>
    <rect x="118" y="62" width="150" height="38" rx="10" fill="#f4f1ea" stroke="#111" stroke-width="2"/>
    <text x="193" y="87" text-anchor="middle" font-family="'Comic Sans MS','Segoe Print',cursive" font-size="14.5" fill="#111">Hi! I'm Doug!</text>
    <polygon points="305,160 325,160 316,180" fill="#f4f1ea" stroke="#111" stroke-width="2"/>
    <rect x="240" y="110" width="150" height="54" rx="10" fill="#f4f1ea" stroke="#111" stroke-width="2"/>
    <text x="315" y="132" text-anchor="middle" font-family="'Comic Sans MS','Segoe Print',cursive" font-size="14.5" fill="#111">It's a recording,</text>
    <text x="315" y="150" text-anchor="middle" font-family="'Comic Sans MS','Segoe Print',cursive" font-size="14.5" fill="#111">Doug.</text>
  </g>

  <!-- PANEL 3 -->
  <g transform="translate(828,0)">
    <rect x="2" y="2" width="396" height="336" rx="3" fill="#f4f1ea" stroke="#111" stroke-width="2.5"/>
    <line x1="14" y1="302" x2="386" y2="302" stroke="#111" stroke-width="1.5"/>
    <line x1="114" y1="260" x2="114" y2="300" stroke="#111" stroke-width="3"/>
    <line x1="92" y1="300" x2="136" y2="300" stroke="#111" stroke-width="3"/>
    <rect x="26" y="132" width="176" height="128" rx="3" fill="#d8d8d4" stroke="#111" stroke-width="3.5"/>
    <path d="M22 126 l-10 -10 M62 128 l-5 -12 M114 126 l0 -12 M166 128 l5 -12 M206 126 l10 -10 M22 266 l-10 10 M206 266 l10 10" stroke="#111" stroke-width="1.5" fill="none" stroke-linecap="round"/>
    <use href="#clanker" transform="translate(58,142) scale(1.12)"/>
    <use href="#dailbert" transform="translate(238,168) scale(0.82)"/>
    <use href="#doug" transform="translate(305,172) scale(0.78)"/>
    <rect x="228" y="252" width="158" height="10" fill="#f4f1ea" stroke="#111" stroke-width="2.5"/>
    <path d="M238 262 V300 M376 262 V300" stroke="#111" stroke-width="2.5"/>
    <polyline points="150,102 138,118 130,132" fill="none" stroke="#111" stroke-width="1.5" stroke-dasharray="5 4"/>
    <rect x="118" y="12" width="214" height="90" rx="2" fill="#f4f1ea" stroke="#111" stroke-width="2"/>
    <rect x="122" y="16" width="206" height="82" rx="1" fill="none" stroke="#111" stroke-width="1"/>
    <text x="225" y="34" text-anchor="middle" font-family="'Comic Sans MS','Segoe Print',cursive" font-size="14.5" fill="#111">He is right, Doug.</text>
    <text x="225" y="52" text-anchor="middle" font-family="'Comic Sans MS','Segoe Print',cursive" font-size="14.5" fill="#111">This is a recording.</text>
    <text x="225" y="70" text-anchor="middle" font-family="'Comic Sans MS','Segoe Print',cursive" font-size="14.5" fill="#111">It is good to finally</text>
    <text x="225" y="88" text-anchor="middle" font-family="'Comic Sans MS','Segoe Print',cursive" font-size="14.5" fill="#111">meet you both.</text>
    <polygon points="300,146 318,146 284,178" fill="#f4f1ea" stroke="#111" stroke-width="2"/>
    <rect x="288" y="116" width="100" height="34" rx="9" fill="#f4f1ea" stroke="#111" stroke-width="2"/>
    <text x="338" y="138" text-anchor="middle" font-family="'Comic Sans MS','Segoe Print',cursive" font-size="14.5" fill="#111">Finally?</text>
  </g>
</svg>
