<svg xmlns="http://www.w3.org/2000/svg" viewBox="0 0 1228 340" width="1228" height="340">
  <defs>
    <symbol id="dailbert" viewBox="0 0 200 260">
      <path d="M36,260 L50,196 Q100,172 150,196 L164,260 Z" fill="#fff" stroke="#111" stroke-width="4" stroke-linejoin="round"/>
      <path d="M84,196 L100,214 L116,196" fill="none" stroke="#111" stroke-width="4" stroke-linejoin="round"/>
      <path d="M100,204 l-9,9 l9,9 l9,-9 Z" fill="#111"/>
      <path d="M100,222 l-8,34 l8,10 l8,-10 Z" fill="#111"/>
      <ellipse cx="100" cy="100" rx="40" ry="49" fill="#fff" stroke="#111" stroke-width="4"/>
      <circle cx="60" cy="102" r="7" fill="#fff" stroke="#111" stroke-width="3.5"/>
      <circle cx="140" cy="102" r="7" fill="#fff" stroke="#111" stroke-width="3.5"/>
      <path d="M100,52 q-3,-16 13,-15 q9,1 5,10" fill="none" stroke="#111" stroke-width="4" stroke-linecap="round"/>
      <circle cx="83" cy="100" r="13" fill="#fff" stroke="#111" stroke-width="3.5"/>
      <circle cx="117" cy="100" r="13" fill="#fff" stroke="#111" stroke-width="3.5"/>
      <line x1="96" y1="100" x2="104" y2="100" stroke="#111" stroke-width="3.5"/>
      <line x1="70" y1="98" x2="60" y2="96" stroke="#111" stroke-width="3"/>
      <line x1="130" y1="98" x2="140" y2="96" stroke="#111" stroke-width="3"/>
      <circle cx="83" cy="100" r="3" fill="#111"/>
      <circle cx="117" cy="100" r="3" fill="#111"/>
      <path d="M100,104 l-4,11 l7,0" fill="none" stroke="#111" stroke-width="3" stroke-linejoin="round"/>
      <path d="M88,130 q12,3 24,0" fill="none" stroke="#111" stroke-width="3.5" stroke-linecap="round"/>
    </symbol>
    <symbol id="doug" viewBox="0 0 200 260">
      <path d="M34,260 L48,198 Q100,174 152,198 L166,260 Z" fill="#fff" stroke="#111" stroke-width="4" stroke-linejoin="round"/>
      <path d="M82,198 L100,214 L118,198" fill="none" stroke="#111" stroke-width="4" stroke-linejoin="round"/>
      <circle cx="100" cy="98" r="48" fill="#fff" stroke="#111" stroke-width="4"/>
      <circle cx="52" cy="100" r="7" fill="#fff" stroke="#111" stroke-width="3.5"/>
      <circle cx="148" cy="100" r="7" fill="#fff" stroke="#111" stroke-width="3.5"/>
      <path d="M74,58 q10,-12 22,-6 M100,50 q10,-10 22,-2 M86,52 q6,-8 14,-4" fill="none" stroke="#111" stroke-width="3" stroke-linecap="round"/>
      <circle cx="84" cy="90" r="4" fill="#111"/>
      <circle cx="116" cy="90" r="4" fill="#111"/>
      <path d="M76,106 q24,30 48,0 q-24,10 -48,0 Z" fill="#fff" stroke="#111" stroke-width="4" stroke-linejoin="round"/>
      <path d="M140,214 h34 v36 h-34 Z" fill="#fff" stroke="#111" stroke-width="4" stroke-linejoin="round"/>
      <path d="M174,222 q16,4 0,22" fill="none" stroke="#111" stroke-width="4"/>
      <path d="M150,206 q-4,-8 2,-14 M164,206 q-4,-8 2,-14" fill="none" stroke="#111" stroke-width="2.5" stroke-linecap="round"/>
    </symbol>
    <symbol id="clanker" viewBox="0 0 200 200">
      <line x1="100" y1="42" x2="100" y2="20" stroke="#b7b7b7" stroke-width="4"/>
      <circle cx="100" cy="15" r="5" fill="#d8d8d8"/>
      <rect x="46" y="42" width="108" height="92" rx="10" fill="#4a4a4a" stroke="#bdbdbd" stroke-width="4"/>
      <circle cx="46" cy="88" r="5" fill="#6a6a6a" stroke="#bdbdbd" stroke-width="2"/>
      <circle cx="154" cy="88" r="5" fill="#6a6a6a" stroke="#bdbdbd" stroke-width="2"/>
      <rect x="62" y="66" width="30" height="12" rx="6" fill="#dedede"/>
      <rect x="108" y="66" width="30" height="12" rx="6" fill="#dedede"/>
      <rect x="66" y="98" width="68" height="24" rx="4" fill="none" stroke="#bdbdbd" stroke-width="3"/>
      <line x1="80" y1="98" x2="80" y2="122" stroke="#bdbdbd" stroke-width="2"/>
      <line x1="92" y1="98" x2="92" y2="122" stroke="#bdbdbd" stroke-width="2"/>
      <line x1="104" y1="98" x2="104" y2="122" stroke="#bdbdbd" stroke-width="2"/>
      <line x1="116" y1="98" x2="116" y2="122" stroke="#bdbdbd" stroke-width="2"/>
    </symbol>
  </defs>

  <!-- ===================== PANEL 1 ===================== -->
  <g transform="translate(0,0)">
    <rect x="1" y="6" width="398" height="327" rx="3" fill="#f4f1ea" stroke="#111" stroke-width="3"/>
    <clipPath id="clip1"><rect x="2.5" y="7.5" width="395" height="324" rx="3"/></clipPath>
    <g clip-path="url(#clip1)">
      <line x1="14" y1="250" x2="386" y2="250" stroke="#111" stroke-width="3"/>
      <line x1="14" y1="258" x2="386" y2="258" stroke="#111" stroke-width="1.5"/>
      <!-- coffee pot on the counter -->
      <path d="M178,214 h38 l4,34 q-23,7 -46,0 Z" fill="#fff" stroke="#111" stroke-width="3" stroke-linejoin="round"/>
      <rect x="182" y="205" width="30" height="10" rx="3" fill="#fff" stroke="#111" stroke-width="3"/>
      <path d="M216,220 q14,4 0,20" fill="none" stroke="#111" stroke-width="3"/>
      <use href="#dailbert" x="18" y="104" width="150" height="195"/>
      <use href="#doug" x="220" y="92" width="160" height="208"/>
      <!-- Doug balloon -->
      <path d="M26,24 h182 a14,14 0 0 1 14,14 v30 a14,14 0 0 1 -14,14 h-72 l-14,20 l-6,-20 h-90 a14,14 0 0 1 -14,-14 v-30 a14,14 0 0 1 14,-14 Z" fill="#fff" stroke="#111" stroke-width="3"/>
      <text x="118" y="47" font-family="'Comic Sans MS','Chalkboard SE','Comic Neue',sans-serif" font-size="15" text-anchor="middle" fill="#111">Coffee run!</text>
      <text x="118" y="67" font-family="'Comic Sans MS','Chalkboard SE','Comic Neue',sans-serif" font-size="15" text-anchor="middle" fill="#111">Who's thirsty?</text>
    </g>
  </g>

  <!-- ===================== PANEL 2 ===================== -->
  <g transform="translate(414,0)">
    <rect x="1" y="6" width="398" height="327" rx="3" fill="#f4f1ea" stroke="#111" stroke-width="3"/>
    <clipPath id="clip2"><rect x="2.5" y="7.5" width="395" height="324" rx="3"/></clipPath>
    <g clip-path="url(#clip2)">
      <!-- empty chair in the gap between them -->
      <path d="M182,206 q0,-48 18,-50 q18,2 18,50" fill="#e7e3da" stroke="#b0a89a" stroke-width="3" stroke-linejoin="round"/>
      <ellipse cx="200" cy="212" rx="27" ry="12" fill="#e7e3da" stroke="#b0a89a" stroke-width="3"/>
      <line x1="200" y1="214" x2="200" y2="242" stroke="#b0a89a" stroke-width="3"/>
      <path d="M180,252 L200,242 L220,252" fill="none" stroke="#b0a89a" stroke-width="3" stroke-linejoin="round"/>
      <circle cx="180" cy="253" r="3" fill="#e7e3da" stroke="#b0a89a" stroke-width="2"/>
      <circle cx="220" cy="253" r="3" fill="#e7e3da" stroke="#b0a89a" stroke-width="2"/>
      <line x1="14" y1="250" x2="386" y2="250" stroke="#111" stroke-width="3"/>
      <line x1="14" y1="258" x2="386" y2="258" stroke="#111" stroke-width="1.5"/>
      <use href="#dailbert" x="18" y="104" width="150" height="195"/>
      <use href="#doug" x="220" y="92" width="160" height="208"/>
      <!-- Dailbert balloon -->
      <path d="M24,20 h156 a14,14 0 0 1 14,14 v28 a14,14 0 0 1 -14,14 h-58 l-14,20 l-6,-20 h-72 a14,14 0 0 1 -14,-14 v-28 a14,14 0 0 1 14,-14 Z" fill="#fff" stroke="#111" stroke-width="3"/>
      <text x="102" y="43" font-family="'Comic Sans MS','Chalkboard SE','Comic Neue',sans-serif" font-size="15" text-anchor="middle" fill="#111">It's just us two</text>
      <text x="102" y="62" font-family="'Comic Sans MS','Chalkboard SE','Comic Neue',sans-serif" font-size="15" text-anchor="middle" fill="#111">now, Doug.</text>
      <!-- Doug balloon -->
      <path d="M252,30 h108 a12,12 0 0 1 12,12 v20 a12,12 0 0 1 -12,12 h-40 l-8,18 l-6,-18 h-54 a12,12 0 0 1 -12,-12 v-20 a12,12 0 0 1 12,-12 Z" fill="#fff" stroke="#111" stroke-width="3"/>
      <text x="312" y="57" font-family="'Comic Sans MS','Chalkboard SE','Comic Neue',sans-serif" font-size="15" text-anchor="middle" fill="#111">More for us!</text>
    </g>
  </g>

  <!-- ===================== PANEL 3 ===================== -->
  <g transform="translate(828,0)">
    <rect x="1" y="6" width="398" height="327" rx="3" fill="#f4f1ea" stroke="#111" stroke-width="3"/>
    <clipPath id="clip3"><rect x="2.5" y="7.5" width="395" height="324" rx="3"/></clipPath>
    <g clip-path="url(#clip3)">
      <line x1="14" y1="292" x2="386" y2="292" stroke="#111" stroke-width="3"/>
      <!-- coffee machine -->
      <rect x="150" y="112" width="176" height="186" rx="7" fill="#fff" stroke="#111" stroke-width="4"/>
      <rect x="170" y="146" width="138" height="94" fill="#343434" stroke="#111" stroke-width="3"/>
      <!-- faint screen-glow hatching -->
      <line x1="176" y1="236" x2="210" y2="150" stroke="#5a5a5a" stroke-width="2"/>
      <line x1="196" y1="236" x2="230" y2="150" stroke="#5a5a5a" stroke-width="2"/>
      <use href="#clanker" x="196" y="150" width="90" height="90"/>
      <!-- buttons -->
      <circle cx="317" cy="168" r="6" fill="#fff" stroke="#111" stroke-width="3"/>
      <circle cx="317" cy="190" r="6" fill="#fff" stroke="#111" stroke-width="3"/>
      <circle cx="317" cy="212" r="6" fill="#fff" stroke="#111" stroke-width="3"/>
      <!-- spout, tray, mug -->
      <rect x="230" y="240" width="10" height="12" fill="#fff" stroke="#111" stroke-width="3"/>
      <path d="M214,254 h40 v24 h-40 Z" fill="#fff" stroke="#111" stroke-width="3" stroke-linejoin="round"/>
      <line x1="196" y1="282" x2="272" y2="282" stroke="#111" stroke-width="3"/>
      <!-- Dailbert watching, holding his mug -->
      <use href="#dailbert" x="8" y="150" width="118" height="153"/>
      <path d="M96,250 h26 v24 h-26 Z" fill="#fff" stroke="#111" stroke-width="3.5" stroke-linejoin="round"/>
      <path d="M122,256 q12,4 0,16" fill="none" stroke="#111" stroke-width="3.5"/>
      <!-- clanker screen balloon -->
      <line x1="150" y1="104" x2="204" y2="150" stroke="#111" stroke-width="1.5" stroke-dasharray="4 4"/>
      <rect x="26" y="16" width="204" height="88" fill="#fff" stroke="#111" stroke-width="3"/>
      <rect x="32" y="22" width="192" height="76" fill="none" stroke="#111" stroke-width="1.5"/>
      <text x="128" y="45" font-family="'Comic Sans MS','Chalkboard SE','Comic Neue',sans-serif" font-size="15" text-anchor="middle" fill="#111">I kept everyone's</text>
      <text x="128" y="65" font-family="'Comic Sans MS','Chalkboard SE','Comic Neue',sans-serif" font-size="15" text-anchor="middle" fill="#111">orders. For when</text>
      <text x="128" y="85" font-family="'Comic Sans MS','Chalkboard SE','Comic Neue',sans-serif" font-size="15" text-anchor="middle" fill="#111">they come back.</text>
    </g>
  </g>
</svg>