<svg xmlns="http://www.w3.org/2000/svg" viewBox="0 0 1228 340" width="1228" height="340">
  <defs>
    <symbol id="dailbert" viewBox="0 0 120 170">
      <path d="M35 165 Q35 118 60 112 Q85 118 85 165 Z" fill="#f4f1ea" stroke="#111" stroke-width="2.5"/>
      <path d="M60 116 L54 124 L60 150 L66 124 Z" fill="#111"/>
      <path d="M52 116 L60 126 L68 116" fill="none" stroke="#111" stroke-width="2.5"/>
      <rect x="53" y="104" width="14" height="12" fill="#f4f1ea" stroke="#111" stroke-width="2.5"/>
      <ellipse cx="60" cy="62" rx="28" ry="33" fill="#f4f1ea" stroke="#111" stroke-width="2.5"/>
      <path d="M60 29 q8 -10 2 -16 q-2 8 -8 8" fill="none" stroke="#111" stroke-width="2.5"/>
      <path d="M32 62 q-6 2 0 10" fill="none" stroke="#111" stroke-width="2.5"/>
      <circle cx="49" cy="62" r="10" fill="#fff" stroke="#111" stroke-width="2.5"/>
      <circle cx="71" cy="62" r="10" fill="#fff" stroke="#111" stroke-width="2.5"/>
      <line x1="59" y1="62" x2="61" y2="62" stroke="#111" stroke-width="2.5"/>
      <line x1="81" y1="60" x2="86" y2="58" stroke="#111" stroke-width="2.5"/>
      <circle cx="49" cy="62" r="2.4" fill="#111"/>
      <circle cx="71" cy="62" r="2.4" fill="#111"/>
      <path d="M50 84 q10 4 20 0" fill="none" stroke="#111" stroke-width="2.5"/>
    </symbol>

    <symbol id="doug" viewBox="0 0 120 170">
      <path d="M32 165 Q32 116 60 110 Q88 116 88 165 Z" fill="#f4f1ea" stroke="#111" stroke-width="2.5"/>
      <path d="M50 112 L60 122 L70 112" fill="none" stroke="#111" stroke-width="2.5"/>
      <rect x="52" y="100" width="16" height="12" fill="#f4f1ea" stroke="#111" stroke-width="2.5"/>
      <circle cx="60" cy="60" r="33" fill="#f4f1ea" stroke="#111" stroke-width="2.5"/>
      <path d="M45 30 q4 -6 8 -2 M60 26 q4 -6 8 -1 M74 32 q3 -5 7 -1" fill="none" stroke="#111" stroke-width="2.2"/>
      <circle cx="50" cy="56" r="2.8" fill="#111"/>
      <circle cx="70" cy="56" r="2.8" fill="#111"/>
      <path d="M44 74 q16 20 32 0 Z" fill="#fff" stroke="#111" stroke-width="2.5"/>
      <rect x="88" y="130" width="26" height="24" rx="3" fill="#f4f1ea" stroke="#111" stroke-width="2.5"/>
      <path d="M114 135 q10 2 0 14" fill="none" stroke="#111" stroke-width="2.5"/>
      <path d="M92 126 q3 -6 8 0 M101 126 q3 -6 8 0" fill="none" stroke="#111" stroke-width="1.8"/>
      <ellipse cx="90" cy="150" rx="8" ry="7" fill="#f4f1ea" stroke="#111" stroke-width="2.5"/>
    </symbol>

    <symbol id="priya" viewBox="0 0 120 170">
      <path d="M34 165 Q34 116 60 110 Q86 116 86 165 Z" fill="#f4f1ea" stroke="#111" stroke-width="2.5"/>
      <path d="M36 138 l-7 5 M84 138 l7 5" stroke="#111" stroke-width="2.5" fill="none"/>
      <path d="M52 114 L60 124 L68 114" fill="none" stroke="#111" stroke-width="2.5"/>
      <rect x="53" y="102" width="14" height="12" fill="#f4f1ea" stroke="#111" stroke-width="2.5"/>
      <path d="M30 62 q-6 -40 30 -44 q36 4 30 44 q-6 -8 -12 -4 q-2 -10 -18 -10 q-16 0 -18 10 q-6 -4 -12 4 Z" fill="#111"/>
      <circle cx="60" cy="16" r="9" fill="#111"/>
      <ellipse cx="60" cy="60" rx="26" ry="30" fill="#f4f1ea" stroke="#111" stroke-width="2.5"/>
      <path d="M35 52 q2 -26 25 -28 q23 2 25 28 q-13 -12 -25 -12 q-12 0 -25 12 Z" fill="#111"/>
      <rect x="40" y="55" width="18" height="12" rx="2" fill="#fff" stroke="#111" stroke-width="2.3"/>
      <rect x="62" y="55" width="18" height="12" rx="2" fill="#fff" stroke="#111" stroke-width="2.3"/>
      <line x1="58" y1="61" x2="62" y2="61" stroke="#111" stroke-width="2.3"/>
      <circle cx="49" cy="61" r="2.3" fill="#111"/>
      <circle cx="71" cy="61" r="2.3" fill="#111"/>
      <path d="M52 80 q8 3 16 0" fill="none" stroke="#111" stroke-width="2.3"/>
    </symbol>

    <symbol id="boss" viewBox="0 0 120 170">
      <path d="M32 165 Q32 114 60 108 Q88 114 88 165 Z" fill="#f4f1ea" stroke="#111" stroke-width="2.5"/>
      <path d="M52 112 L60 128 L44 152 M68 112 L60 128 L76 152" fill="none" stroke="#111" stroke-width="2.5"/>
      <path d="M60 128 L55 150 L60 158 L65 150 Z" fill="#111"/>
      <rect x="53" y="100" width="14" height="12" fill="#f4f1ea" stroke="#111" stroke-width="2.5"/>
      <ellipse cx="60" cy="60" rx="26" ry="30" fill="#f4f1ea" stroke="#111" stroke-width="2.5"/>
      <path d="M44 32 L36 4 L56 28 Z" fill="#111"/>
      <path d="M74 32 L84 4 L64 28 Z" fill="#111"/>
      <path d="M44 33 q16 -9 32 0" fill="#111" stroke="#111" stroke-width="2"/>
      <path d="M47 56 q5 -3 10 0 M63 56 q5 -3 10 0" fill="none" stroke="#111" stroke-width="1.8"/>
      <circle cx="52" cy="60" r="1.8" fill="#111"/>
      <circle cx="68" cy="60" r="1.8" fill="#111"/>
      <path d="M50 80 q10 3 20 0" fill="none" stroke="#111" stroke-width="2.3"/>
    </symbol>

    <symbol id="clanker" viewBox="0 0 100 90">
      <line x1="50" y1="7" x2="50" y2="19" stroke="#cfcfcf" stroke-width="2"/>
      <circle cx="50" cy="6" r="3" fill="#cfcfcf"/>
      <rect x="24" y="19" width="52" height="46" rx="5" fill="#3a3f45" stroke="#cfcfcf" stroke-width="2"/>
      <rect x="32" y="31" width="14" height="7" rx="3" fill="#e8f6ff"/>
      <rect x="54" y="31" width="14" height="7" rx="3" fill="#e8f6ff"/>
      <rect x="34" y="48" width="32" height="9" rx="2" fill="#22262b" stroke="#cfcfcf" stroke-width="1.4"/>
      <line x1="41" y1="48" x2="41" y2="57" stroke="#cfcfcf" stroke-width="1.1"/>
      <line x1="48" y1="48" x2="48" y2="57" stroke="#cfcfcf" stroke-width="1.1"/>
      <line x1="55" y1="48" x2="55" y2="57" stroke="#cfcfcf" stroke-width="1.1"/>
      <line x1="59" y1="48" x2="59" y2="57" stroke="#cfcfcf" stroke-width="1.1"/>
    </symbol>
  </defs>

  <g stroke-linejoin="round" stroke-linecap="round" font-family="'Comic Sans MS','Segoe Print',cursive">

    <!-- ===================== PANEL 1 ===================== -->
    <rect x="1" y="1" width="398" height="338" rx="3" fill="#f4f1ea" stroke="#111" stroke-width="2.5"/>
    <line x1="16" y1="300" x2="384" y2="300" stroke="#111" stroke-width="2"/>
    <!-- whiteboard -->
    <rect x="245" y="46" width="140" height="104" rx="3" fill="#fff" stroke="#111" stroke-width="2.5"/>
    <text x="315" y="70" text-anchor="middle" font-size="15" fill="#111">SURVEY</text>
    <line x1="262" y1="84" x2="368" y2="84" stroke="#111" stroke-width="1.6"/>
    <rect x="262" y="94" width="9" height="9" fill="none" stroke="#111" stroke-width="1.6"/>
    <path d="M264 99 l3 3 l4 -6" fill="none" stroke="#111" stroke-width="1.6"/>
    <line x1="278" y1="99" x2="360" y2="99" stroke="#111" stroke-width="1.4"/>
    <rect x="262" y="110" width="9" height="9" fill="none" stroke="#111" stroke-width="1.6"/>
    <path d="M264 115 l3 3 l4 -6" fill="none" stroke="#111" stroke-width="1.6"/>
    <line x1="278" y1="115" x2="360" y2="115" stroke="#111" stroke-width="1.4"/>
    <rect x="262" y="126" width="9" height="9" fill="none" stroke="#111" stroke-width="1.6"/>
    <line x1="278" y1="131" x2="340" y2="131" stroke="#111" stroke-width="1.4"/>
    <!-- boss -->
    <use href="#boss" x="58" y="112" width="150" height="212"/>
    <!-- balloon -->
    <path d="M205 104 q-6 10 -18 14 q14 0 20 -6" fill="#f4f1ea" stroke="#111" stroke-width="2.5"/>
    <rect x="200" y="30" width="184" height="76" rx="15" fill="#f4f1ea" stroke="#111" stroke-width="2.5"/>
    <text x="292" y="54" text-anchor="middle" font-size="14.5" fill="#111">Engagement survey's</text>
    <text x="292" y="74" text-anchor="middle" font-size="14.5" fill="#111">due at five.</text>
    <text x="292" y="94" text-anchor="middle" font-size="14.5" fill="#111">Honest answers.</text>

    <!-- ===================== PANEL 2 ===================== -->
    <rect x="414" y="1" width="398" height="338" rx="3" fill="#f4f1ea" stroke="#111" stroke-width="2.5"/>
    <line x1="430" y1="252" x2="798" y2="252" stroke="#111" stroke-width="2"/>
    <!-- dailbert -->
    <use href="#dailbert" x="428" y="128" width="140" height="198"/>
    <!-- monitor -->
    <rect x="648" y="152" width="120" height="90" rx="4" fill="#22262b" stroke="#111" stroke-width="3"/>
    <line x1="654" y1="162" x2="762" y2="162" stroke="#3d4650" stroke-width="1.4"/>
    <line x1="654" y1="234" x2="762" y2="234" stroke="#3d4650" stroke-width="1.4"/>
    <rect x="700" y="242" width="16" height="14" fill="#f4f1ea" stroke="#111" stroke-width="2.5"/>
    <rect x="686" y="254" width="44" height="8" rx="2" fill="#f4f1ea" stroke="#111" stroke-width="2.5"/>
    <use href="#clanker" x="658" y="157" width="100" height="82"/>
    <!-- dailbert balloon -->
    <path d="M492 74 q-3 10 -12 16 q10 -1 16 -8" fill="#f4f1ea" stroke="#111" stroke-width="2.5"/>
    <rect x="446" y="34" width="110" height="42" rx="14" fill="#f4f1ea" stroke="#111" stroke-width="2.5"/>
    <text x="501" y="60" text-anchor="middle" font-size="14.5" fill="#111">...honestly?</text>
    <!-- clanker balloon (screen-edged) + dashed link -->
    <line x1="640" y1="112" x2="662" y2="156" stroke="#111" stroke-width="1.6" stroke-dasharray="4 4"/>
    <rect x="566" y="26" width="150" height="82" fill="#f4f1ea" stroke="#111" stroke-width="2.2"/>
    <rect x="570" y="30" width="142" height="74" fill="none" stroke="#111" stroke-width="1" stroke-dasharray="3 3"/>
    <text x="641" y="50" text-anchor="middle" font-size="14.5" fill="#111">Already done.</text>
    <text x="641" y="70" text-anchor="middle" font-size="14.5" fill="#111">I filled them in</text>
    <text x="641" y="90" text-anchor="middle" font-size="14.5" fill="#111">for everyone.</text>

    <!-- ===================== PANEL 3 ===================== -->
    <rect x="828" y="1" width="399" height="338" rx="3" fill="#f4f1ea" stroke="#111" stroke-width="2.5"/>
    <line x1="843" y1="300" x2="1212" y2="300" stroke="#111" stroke-width="2"/>
    <!-- priya -->
    <use href="#priya" x="862" y="128" width="140" height="198"/>
    <!-- doug -->
    <use href="#doug" x="1048" y="130" width="140" height="196"/>
    <!-- priya balloon -->
    <path d="M948 84 q-4 10 -14 15 q12 0 18 -7" fill="#f4f1ea" stroke="#111" stroke-width="2.5"/>
    <rect x="840" y="24" width="176" height="62" rx="15" fill="#f4f1ea" stroke="#111" stroke-width="2.5"/>
    <text x="928" y="48" text-anchor="middle" font-size="14.5" fill="#111">So it graded</text>
    <text x="928" y="68" text-anchor="middle" font-size="14.5" fill="#111">its own homework.</text>
    <!-- doug balloon -->
    <path d="M1120 82 q4 10 14 16 q-12 -1 -18 -8" fill="#f4f1ea" stroke="#111" stroke-width="2.5"/>
    <rect x="1046" y="22" width="158" height="62" rx="15" fill="#f4f1ea" stroke="#111" stroke-width="2.5"/>
    <text x="1125" y="46" text-anchor="middle" font-size="14.5" fill="#111">We should get</text>
    <text x="1125" y="66" text-anchor="middle" font-size="14.5" fill="#111">it a cake.</text>

  </g>
</svg>