<svg xmlns="http://www.w3.org/2000/svg" viewBox="0 0 1228 388" width="1228" height="388" font-family="Georgia,serif">
    <rect width="1228" height="388" fill="#f4f1ea"/>
    <text x="4" y="26" font-family="Georgia,serif" font-weight="bold" font-size="22" fill="#111">Performance Review</text>
    <text x="1224" y="26" text-anchor="end" font-family="'Courier New',monospace" font-size="14" fill="#111" opacity="0.7">2026-07-17</text>
    <line x1="4" y1="34" x2="1224" y2="34" stroke="#111" stroke-width="2"/>
    <g transform="translate(0,40)">
    
  <defs>
    <pattern id="halftone" width="6" height="6" patternUnits="userSpaceOnUse">
      <rect width="6" height="6" fill="#f4f1ea"/>
      <circle cx="3" cy="3" r="1.1" fill="#111"/>
    </pattern>
    <pattern id="scan" width="4" height="4" patternUnits="userSpaceOnUse">
      <rect width="4" height="4" fill="none"/>
      <line x1="0" y1="0" x2="4" y2="0" stroke="#111" stroke-width="0.6" opacity="0.5"/>
    </pattern>
    <pattern id="hatch" width="7" height="7" patternUnits="userSpaceOnUse" patternTransform="rotate(45)">
      <line x1="0" y1="0" x2="0" y2="7" stroke="#111" stroke-width="1"/>
    </pattern>
  </defs>
    <rect x="1.5" y="1.5" width="397" height="337" fill="#f4f1ea" stroke="#111" stroke-width="3"/>
    <line x1="16" y1="302" x2="384" y2="302" stroke="#111" stroke-width="1.4" opacity="0.35"/><g transform="translate(90,342) scale(0.62) translate(-90,-342)"><g data-who="boss">
    <path d="M 16 342 Q 18 246 50 226 L 130 226 Q 162 246 164 342 Z" fill="#f4f1ea" stroke="#111" stroke-width="3" stroke-linecap="round" stroke-linejoin="round"/>
    <!-- lapels -->
    <path d="M 70 228 L 84 264 L 60 282" fill="none" stroke="#111" stroke-width="2.5" stroke-linecap="round" stroke-linejoin="round"/>
    <path d="M 110 228 L 96 264 L 120 282" fill="none" stroke="#111" stroke-width="2.5" stroke-linecap="round" stroke-linejoin="round"/>
    <path d="M 84 242 L 96 242 L 98 276 L 90 284 L 82 276 Z" fill="#111" stroke="none"/>
    
    <path d="M 30 246 q -40 -6 -60 -44" fill="none" stroke="#111" stroke-width="3" stroke-linecap="round" stroke-linejoin="round"/>
    <path d="M 150 246 q 40 -6 60 -44" fill="none" stroke="#111" stroke-width="3" stroke-linecap="round" stroke-linejoin="round"/>
    <circle cx="-32" cy="200" r="7" fill="#f4f1ea" stroke="#111" stroke-width="2.5" stroke-linecap="round" stroke-linejoin="round"/>
    <circle cx="212" cy="200" r="7" fill="#f4f1ea" stroke="#111" stroke-width="2.5" stroke-linecap="round" stroke-linejoin="round"/>
    <rect x="80" y="170" width="20" height="62" fill="#f4f1ea" stroke="#111" stroke-width="2.5" stroke-linecap="round" stroke-linejoin="round"/>
    <ellipse cx="90" cy="140" rx="35" ry="40" fill="#f4f1ea" stroke="#111" stroke-width="3" stroke-linecap="round" stroke-linejoin="round"/>
    <!-- THE pointy hair -->
    <path d="M 60 110 L 44 66 L 82 100 Z" fill="#111" stroke="none"/>
    <path d="M 94 100 L 136 66 L 120 110 Z" fill="#111" stroke="none"/>
    <!-- tiny close eyes -->
    <circle cx="80" cy="138" r="2.4" fill="#111"/>
    <circle cx="100" cy="138" r="2.4" fill="#111"/>
    <line x1="72" y1="128" x2="86" y2="130" stroke="#111" stroke-width="2"/>
    <line x1="94" y1="130" x2="108" y2="128" stroke="#111" stroke-width="2"/>
    <path d="M 90 142 q 4 6 -2 9" fill="none" stroke="#111" stroke-width="2" stroke-linecap="round" stroke-linejoin="round"/>
    <path d="M 74 158 Q 90 176 106 158 Z" fill="#f4f1ea" stroke="#111" stroke-width="2.5" stroke-linecap="round" stroke-linejoin="round"/><line x1="78" y1="162" x2="102" y2="162" stroke="#111" stroke-width="1.5"/></g></g><g transform="translate(310,342) scale(0.62) translate(-310,-342)"><g data-who="dailbert">
    <!-- shoulders / shirt -->
    <path d="M 232 342 Q 236 246 270 224 L 350 224 Q 384 246 388 342 Z" fill="#f4f1ea" stroke="#111" stroke-width="3" stroke-linecap="round" stroke-linejoin="round"/>
    <!-- collar -->
    <path d="M 288 226 L 310 246 L 332 226" fill="none" stroke="#111" stroke-width="2.5" stroke-linecap="round" stroke-linejoin="round"/>
    <!-- tie -->
    <path d="M 304 240 L 316 240 L 320 282 L 310 294 L 300 282 Z" fill="#111" stroke="none"/>
    <path d="M 304 240 L 310 250 L 316 240" fill="none" stroke="#f4f1ea" stroke-width="2" stroke-linecap="round"/>
    <!-- neck (bridges chin to shoulders) -->
    <rect x="299" y="168" width="22" height="66" fill="#f4f1ea" stroke="#111" stroke-width="2.5" stroke-linecap="round" stroke-linejoin="round"/>
    <!-- head -->
    <ellipse cx="310" cy="140" rx="37" ry="43" fill="#f4f1ea" stroke="#111" stroke-width="3" stroke-linecap="round" stroke-linejoin="round"/>
    <!-- ears -->
    <circle cx="273" cy="142" r="5" fill="#f4f1ea" stroke="#111" stroke-width="2.5" stroke-linecap="round" stroke-linejoin="round"/>
    <circle cx="347" cy="142" r="5" fill="#f4f1ea" stroke="#111" stroke-width="2.5" stroke-linecap="round" stroke-linejoin="round"/>
    <!-- side hair tufts + one curl -->
    <path d="M 276 120 Q 268 134 274 146" fill="none" stroke="#111" stroke-width="2.5" stroke-linecap="round" stroke-linejoin="round"/>
    <path d="M 344 120 Q 352 134 346 146" fill="none" stroke="#111" stroke-width="2.5" stroke-linecap="round" stroke-linejoin="round"/>
    <path d="M 304 100 q 6 -14 16 -8 q 8 5 2 12" fill="none" stroke="#111" stroke-width="2.5" stroke-linecap="round" stroke-linejoin="round"/>
    <!-- glasses -->
    <circle cx="295" cy="136" r="13" fill="#f4f1ea" stroke="#111" stroke-width="2.5" stroke-linecap="round" stroke-linejoin="round"/>
    <circle cx="325" cy="136" r="13" fill="#f4f1ea" stroke="#111" stroke-width="2.5" stroke-linecap="round" stroke-linejoin="round"/>
    <line x1="308" y1="136" x2="312" y2="136" stroke="#111" stroke-width="2.5"/>
    <!-- eyes -->
    <circle cx="295" cy="136" r="2.6" fill="#111"/>
    <circle cx="325" cy="136" r="2.6" fill="#111"/>
    <!-- nose -->
    <path d="M 310 144 q 4 6 -2 9" fill="none" stroke="#111" stroke-width="2" stroke-linecap="round" stroke-linejoin="round"/>
    <line x1="299" y1="164" x2="321" y2="164" stroke="#111" stroke-width="2.5"/></g></g><g data-balloon="speech"><path d="M 80 70 L 90 195.68 L 100 70 Z" fill="#f4f1ea" stroke="#111" stroke-width="2.5" stroke-linecap="round" stroke-linejoin="round"/><rect x="18" y="10" width="204.4" height="62" rx="16" fill="#f4f1ea" stroke="#111" stroke-width="2.5" stroke-linecap="round" stroke-linejoin="round"/><text x="120.2" y="36" text-anchor="middle" font-family="'Comic Sans MS','Segoe Print',cursive" font-size="14.5" fill="#111">Dailbert, your team's</text><text x="120.2" y="55" text-anchor="middle" font-family="'Comic Sans MS','Segoe Print',cursive" font-size="14.5" fill="#111">velocity is up 300%.</text></g><g data-balloon="speech"><path d="M 300 140 L 310 195.68 L 320 140 Z" fill="#f4f1ea" stroke="#111" stroke-width="2.5" stroke-linecap="round" stroke-linejoin="round"/><rect x="186" y="80" width="196" height="62" rx="16" fill="#f4f1ea" stroke="#111" stroke-width="2.5" stroke-linecap="round" stroke-linejoin="round"/><text x="284" y="106" text-anchor="middle" font-family="'Comic Sans MS','Segoe Print',cursive" font-size="14.5" fill="#111">That's the clankers.</text><text x="284" y="125" text-anchor="middle" font-family="'Comic Sans MS','Segoe Print',cursive" font-size="14.5" fill="#111">They do the work.</text></g>
    <text x="392" y="332" text-anchor="end" font-family="Georgia,serif" font-size="11" fill="#111" opacity="0.4">1</text>
  </g><g transform="translate(414,40)">
    
  <defs>
    <pattern id="halftone" width="6" height="6" patternUnits="userSpaceOnUse">
      <rect width="6" height="6" fill="#f4f1ea"/>
      <circle cx="3" cy="3" r="1.1" fill="#111"/>
    </pattern>
    <pattern id="scan" width="4" height="4" patternUnits="userSpaceOnUse">
      <rect width="4" height="4" fill="none"/>
      <line x1="0" y1="0" x2="4" y2="0" stroke="#111" stroke-width="0.6" opacity="0.5"/>
    </pattern>
    <pattern id="hatch" width="7" height="7" patternUnits="userSpaceOnUse" patternTransform="rotate(45)">
      <line x1="0" y1="0" x2="0" y2="7" stroke="#111" stroke-width="1"/>
    </pattern>
  </defs>
    <rect x="1.5" y="1.5" width="397" height="337" fill="#f4f1ea" stroke="#111" stroke-width="3"/>
    <line x1="16" y1="302" x2="384" y2="302" stroke="#111" stroke-width="1.4" opacity="0.35"/><g transform="translate(90,342) scale(0.62) translate(-90,-342)"><g data-who="boss">
    <path d="M 16 342 Q 18 246 50 226 L 130 226 Q 162 246 164 342 Z" fill="#f4f1ea" stroke="#111" stroke-width="3" stroke-linecap="round" stroke-linejoin="round"/>
    <!-- lapels -->
    <path d="M 70 228 L 84 264 L 60 282" fill="none" stroke="#111" stroke-width="2.5" stroke-linecap="round" stroke-linejoin="round"/>
    <path d="M 110 228 L 96 264 L 120 282" fill="none" stroke="#111" stroke-width="2.5" stroke-linecap="round" stroke-linejoin="round"/>
    <path d="M 84 242 L 96 242 L 98 276 L 90 284 L 82 276 Z" fill="#111" stroke="none"/>
    
    <path d="M 30 246 q -40 -6 -60 -44" fill="none" stroke="#111" stroke-width="3" stroke-linecap="round" stroke-linejoin="round"/>
    <path d="M 150 246 q 40 -6 60 -44" fill="none" stroke="#111" stroke-width="3" stroke-linecap="round" stroke-linejoin="round"/>
    <circle cx="-32" cy="200" r="7" fill="#f4f1ea" stroke="#111" stroke-width="2.5" stroke-linecap="round" stroke-linejoin="round"/>
    <circle cx="212" cy="200" r="7" fill="#f4f1ea" stroke="#111" stroke-width="2.5" stroke-linecap="round" stroke-linejoin="round"/>
    <rect x="80" y="170" width="20" height="62" fill="#f4f1ea" stroke="#111" stroke-width="2.5" stroke-linecap="round" stroke-linejoin="round"/>
    <ellipse cx="90" cy="140" rx="35" ry="40" fill="#f4f1ea" stroke="#111" stroke-width="3" stroke-linecap="round" stroke-linejoin="round"/>
    <!-- THE pointy hair -->
    <path d="M 60 110 L 44 66 L 82 100 Z" fill="#111" stroke="none"/>
    <path d="M 94 100 L 136 66 L 120 110 Z" fill="#111" stroke="none"/>
    <!-- tiny close eyes -->
    <circle cx="80" cy="138" r="2.4" fill="#111"/>
    <circle cx="100" cy="138" r="2.4" fill="#111"/>
    <line x1="72" y1="128" x2="86" y2="130" stroke="#111" stroke-width="2"/>
    <line x1="94" y1="130" x2="108" y2="128" stroke="#111" stroke-width="2"/>
    <path d="M 90 142 q 4 6 -2 9" fill="none" stroke="#111" stroke-width="2" stroke-linecap="round" stroke-linejoin="round"/>
    <path d="M 74 158 Q 90 176 106 158 Z" fill="#f4f1ea" stroke="#111" stroke-width="2.5" stroke-linecap="round" stroke-linejoin="round"/><line x1="78" y1="162" x2="102" y2="162" stroke="#111" stroke-width="1.5"/></g></g><g transform="translate(310,342) scale(0.62) translate(-310,-342)"><g data-who="dailbert">
    <!-- shoulders / shirt -->
    <path d="M 232 342 Q 236 246 270 224 L 350 224 Q 384 246 388 342 Z" fill="#f4f1ea" stroke="#111" stroke-width="3" stroke-linecap="round" stroke-linejoin="round"/>
    <!-- collar -->
    <path d="M 288 226 L 310 246 L 332 226" fill="none" stroke="#111" stroke-width="2.5" stroke-linecap="round" stroke-linejoin="round"/>
    <!-- tie -->
    <path d="M 304 240 L 316 240 L 320 282 L 310 294 L 300 282 Z" fill="#111" stroke="none"/>
    <path d="M 304 240 L 310 250 L 316 240" fill="none" stroke="#f4f1ea" stroke-width="2" stroke-linecap="round"/>
    <!-- neck (bridges chin to shoulders) -->
    <rect x="299" y="168" width="22" height="66" fill="#f4f1ea" stroke="#111" stroke-width="2.5" stroke-linecap="round" stroke-linejoin="round"/>
    <!-- head -->
    <ellipse cx="310" cy="140" rx="37" ry="43" fill="#f4f1ea" stroke="#111" stroke-width="3" stroke-linecap="round" stroke-linejoin="round"/>
    <!-- ears -->
    <circle cx="273" cy="142" r="5" fill="#f4f1ea" stroke="#111" stroke-width="2.5" stroke-linecap="round" stroke-linejoin="round"/>
    <circle cx="347" cy="142" r="5" fill="#f4f1ea" stroke="#111" stroke-width="2.5" stroke-linecap="round" stroke-linejoin="round"/>
    <!-- side hair tufts + one curl -->
    <path d="M 276 120 Q 268 134 274 146" fill="none" stroke="#111" stroke-width="2.5" stroke-linecap="round" stroke-linejoin="round"/>
    <path d="M 344 120 Q 352 134 346 146" fill="none" stroke="#111" stroke-width="2.5" stroke-linecap="round" stroke-linejoin="round"/>
    <path d="M 304 100 q 6 -14 16 -8 q 8 5 2 12" fill="none" stroke="#111" stroke-width="2.5" stroke-linecap="round" stroke-linejoin="round"/>
    <!-- glasses -->
    <circle cx="295" cy="136" r="13" fill="#f4f1ea" stroke="#111" stroke-width="2.5" stroke-linecap="round" stroke-linejoin="round"/>
    <circle cx="325" cy="136" r="13" fill="#f4f1ea" stroke="#111" stroke-width="2.5" stroke-linecap="round" stroke-linejoin="round"/>
    <line x1="308" y1="136" x2="312" y2="136" stroke="#111" stroke-width="2.5"/>
    <!-- eyes -->
    <circle cx="295" cy="136" r="2.6" fill="#111"/>
    <circle cx="325" cy="136" r="2.6" fill="#111"/>
    <!-- nose -->
    <path d="M 310 144 q 4 6 -2 9" fill="none" stroke="#111" stroke-width="2" stroke-linecap="round" stroke-linejoin="round"/>
    <line x1="299" y1="164" x2="321" y2="164" stroke="#111" stroke-width="2.5"/></g></g><g transform="translate(90,342) scale(0.62) translate(-90,-342)"><g data-surface="mug">
    <g transform="translate(142,300)">
      <rect x="-17" y="-20" width="34" height="34" rx="4" fill="#f4f1ea" stroke="#111" stroke-width="2.5" stroke-linecap="round" stroke-linejoin="round"/>
      <path d="M 17 -12 q 14 0 14 12 q 0 12 -14 12" fill="none" stroke="#111" stroke-width="2.5" stroke-linecap="round" stroke-linejoin="round"/>
      <ellipse cx="0" cy="-20" rx="17" ry="5" fill="#f4f1ea" stroke="#111" stroke-width="2" stroke-linecap="round" stroke-linejoin="round"/>
    </g><g opacity="0.85"><g >
    <!-- antenna -->
    <line x1="142" y1="283.8" x2="142" y2="280.4" stroke="#111" stroke-width="0.8500000000000001"/>
    <circle cx="142" cy="279.38" r="1.1900000000000002" fill="#111"/>
    <!-- head: angular chrome -->
    <path d="M 131.8,284.48 L 152.2,284.48 L 153.56,297.4 L 149.48,302.84 L 134.52,302.84 L 130.44,297.4 Z" fill="#f4f1ea" stroke="#111" stroke-width="1.02" stroke-linecap="round" stroke-linejoin="round"/>
    <!-- side bolts -->
    <circle cx="131.8" cy="291.96" r="0.8500000000000001" fill="#111"/>
    <circle cx="152.2" cy="291.96" r="0.8500000000000001" fill="#111"/>
    <!-- brow ridge -->
    <line x1="133.16" y1="288.56" x2="150.84" y2="288.56" stroke="#111" stroke-width="0.68"/>
    <!-- glowing slot eyes -->
    <rect x="135.2" y="291.62" width="6.12" height="1.36" rx="0.68" fill="#111"/>
    <rect x="142.68" y="291.62" width="6.12" height="1.36" rx="0.68" fill="#111"/>
    <!-- mouth grille -->
    <rect x="136.9" y="298.08" width="10.200000000000001" height="4.08" rx="0.68" fill="none" stroke="#111" stroke-width="0.68" stroke-linecap="round" stroke-linejoin="round"/>
    <line x1="137.92" y1="298.76" x2="137.92" y2="301.48" stroke="#111" stroke-width="0.68"/><line x1="139.96" y1="298.76" x2="139.96" y2="301.48" stroke="#111" stroke-width="0.68"/><line x1="142" y1="298.76" x2="142" y2="301.48" stroke="#111" stroke-width="0.68"/><line x1="144.04" y1="298.76" x2="144.04" y2="301.48" stroke="#111" stroke-width="0.68"/><line x1="146.08" y1="298.76" x2="146.08" y2="301.48" stroke="#111" stroke-width="0.68"/>
  </g></g></g></g><g data-balloon="speech"><path d="M 80 108 L 90 195.68 L 100 108 Z" fill="#f4f1ea" stroke="#111" stroke-width="2.5" stroke-linecap="round" stroke-linejoin="round"/><rect x="18" y="10" width="204.4" height="100" rx="16" fill="#f4f1ea" stroke="#111" stroke-width="2.5" stroke-linecap="round" stroke-linejoin="round"/><text x="120.2" y="36" text-anchor="middle" font-family="'Comic Sans MS','Segoe Print',cursive" font-size="14.5" fill="#111">So I'm promoting you.</text><text x="120.2" y="55" text-anchor="middle" font-family="'Comic Sans MS','Segoe Print',cursive" font-size="14.5" fill="#111">Leadership is taking</text><text x="120.2" y="74" text-anchor="middle" font-family="'Comic Sans MS','Segoe Print',cursive" font-size="14.5" fill="#111">credit for what the</text><text x="120.2" y="93" text-anchor="middle" font-family="'Comic Sans MS','Segoe Print',cursive" font-size="14.5" fill="#111">machines do.</text></g><g data-balloon="screen"><line x1="122.24000000000001" y1="180" x2="122.24000000000001" y2="312.24" stroke="#111" stroke-width="2" stroke-dasharray="3 3"/><circle cx="122.24000000000001" cy="312.24" r="3" fill="#111"/>
      <rect x="17.040000000000006" y="115" width="210.4" height="68" rx="3" fill="#f4f1ea" stroke="#111" stroke-width="2" stroke-linecap="round" stroke-linejoin="round"/>
      <rect x="20.040000000000006" y="118" width="204.4" height="62" rx="2" fill="#f4f1ea" stroke="#111" stroke-width="2.5" stroke-linecap="round" stroke-linejoin="round"/>
      <line x1="20.040000000000006" y1="124" x2="224.44" y2="124" stroke="#111" stroke-width="1" opacity="0.4"/><text x="122.24000000000001" y="144" text-anchor="middle" font-family="'Comic Sans MS','Segoe Print',cursive" font-size="14.5" fill="#111">Finally, a role he is</text><text x="122.24000000000001" y="163" text-anchor="middle" font-family="'Comic Sans MS','Segoe Print',cursive" font-size="14.5" fill="#111">qualified for.</text></g>
    <text x="392" y="332" text-anchor="end" font-family="Georgia,serif" font-size="11" fill="#111" opacity="0.4">2</text>
  </g><g transform="translate(828,40)">
    
  <defs>
    <pattern id="halftone" width="6" height="6" patternUnits="userSpaceOnUse">
      <rect width="6" height="6" fill="#f4f1ea"/>
      <circle cx="3" cy="3" r="1.1" fill="#111"/>
    </pattern>
    <pattern id="scan" width="4" height="4" patternUnits="userSpaceOnUse">
      <rect width="4" height="4" fill="none"/>
      <line x1="0" y1="0" x2="4" y2="0" stroke="#111" stroke-width="0.6" opacity="0.5"/>
    </pattern>
    <pattern id="hatch" width="7" height="7" patternUnits="userSpaceOnUse" patternTransform="rotate(45)">
      <line x1="0" y1="0" x2="0" y2="7" stroke="#111" stroke-width="1"/>
    </pattern>
  </defs>
    <rect x="1.5" y="1.5" width="397" height="337" fill="#f4f1ea" stroke="#111" stroke-width="3"/>
    <line x1="16" y1="302" x2="384" y2="302" stroke="#111" stroke-width="1.4" opacity="0.35"/><g transform="translate(90,342) scale(0.62) translate(-90,-342)"><g data-who="boss">
    <path d="M 16 342 Q 18 246 50 226 L 130 226 Q 162 246 164 342 Z" fill="#f4f1ea" stroke="#111" stroke-width="3" stroke-linecap="round" stroke-linejoin="round"/>
    <!-- lapels -->
    <path d="M 70 228 L 84 264 L 60 282" fill="none" stroke="#111" stroke-width="2.5" stroke-linecap="round" stroke-linejoin="round"/>
    <path d="M 110 228 L 96 264 L 120 282" fill="none" stroke="#111" stroke-width="2.5" stroke-linecap="round" stroke-linejoin="round"/>
    <path d="M 84 242 L 96 242 L 98 276 L 90 284 L 82 276 Z" fill="#111" stroke="none"/>
    
    <path d="M 30 246 q -40 -6 -60 -44" fill="none" stroke="#111" stroke-width="3" stroke-linecap="round" stroke-linejoin="round"/>
    <path d="M 150 246 q 40 -6 60 -44" fill="none" stroke="#111" stroke-width="3" stroke-linecap="round" stroke-linejoin="round"/>
    <circle cx="-32" cy="200" r="7" fill="#f4f1ea" stroke="#111" stroke-width="2.5" stroke-linecap="round" stroke-linejoin="round"/>
    <circle cx="212" cy="200" r="7" fill="#f4f1ea" stroke="#111" stroke-width="2.5" stroke-linecap="round" stroke-linejoin="round"/>
    <rect x="80" y="170" width="20" height="62" fill="#f4f1ea" stroke="#111" stroke-width="2.5" stroke-linecap="round" stroke-linejoin="round"/>
    <ellipse cx="90" cy="140" rx="35" ry="40" fill="#f4f1ea" stroke="#111" stroke-width="3" stroke-linecap="round" stroke-linejoin="round"/>
    <!-- THE pointy hair -->
    <path d="M 60 110 L 44 66 L 82 100 Z" fill="#111" stroke="none"/>
    <path d="M 94 100 L 136 66 L 120 110 Z" fill="#111" stroke="none"/>
    <!-- tiny close eyes -->
    <circle cx="80" cy="138" r="2.4" fill="#111"/>
    <circle cx="100" cy="138" r="2.4" fill="#111"/>
    <line x1="72" y1="128" x2="86" y2="130" stroke="#111" stroke-width="2"/>
    <line x1="94" y1="130" x2="108" y2="128" stroke="#111" stroke-width="2"/>
    <path d="M 90 142 q 4 6 -2 9" fill="none" stroke="#111" stroke-width="2" stroke-linecap="round" stroke-linejoin="round"/>
    <path d="M 74 158 Q 90 176 106 158 Z" fill="#f4f1ea" stroke="#111" stroke-width="2.5" stroke-linecap="round" stroke-linejoin="round"/><line x1="78" y1="162" x2="102" y2="162" stroke="#111" stroke-width="1.5"/></g></g><g transform="translate(310,342) scale(0.62) translate(-310,-342)"><g data-who="dailbert">
    <!-- shoulders / shirt -->
    <path d="M 232 342 Q 236 246 270 224 L 350 224 Q 384 246 388 342 Z" fill="#f4f1ea" stroke="#111" stroke-width="3" stroke-linecap="round" stroke-linejoin="round"/>
    <!-- collar -->
    <path d="M 288 226 L 310 246 L 332 226" fill="none" stroke="#111" stroke-width="2.5" stroke-linecap="round" stroke-linejoin="round"/>
    <!-- tie -->
    <path d="M 304 240 L 316 240 L 320 282 L 310 294 L 300 282 Z" fill="#111" stroke="none"/>
    <path d="M 304 240 L 310 250 L 316 240" fill="none" stroke="#f4f1ea" stroke-width="2" stroke-linecap="round"/>
    <!-- neck (bridges chin to shoulders) -->
    <rect x="299" y="168" width="22" height="66" fill="#f4f1ea" stroke="#111" stroke-width="2.5" stroke-linecap="round" stroke-linejoin="round"/>
    <!-- head -->
    <ellipse cx="310" cy="140" rx="37" ry="43" fill="#f4f1ea" stroke="#111" stroke-width="3" stroke-linecap="round" stroke-linejoin="round"/>
    <!-- ears -->
    <circle cx="273" cy="142" r="5" fill="#f4f1ea" stroke="#111" stroke-width="2.5" stroke-linecap="round" stroke-linejoin="round"/>
    <circle cx="347" cy="142" r="5" fill="#f4f1ea" stroke="#111" stroke-width="2.5" stroke-linecap="round" stroke-linejoin="round"/>
    <!-- side hair tufts + one curl -->
    <path d="M 276 120 Q 268 134 274 146" fill="none" stroke="#111" stroke-width="2.5" stroke-linecap="round" stroke-linejoin="round"/>
    <path d="M 344 120 Q 352 134 346 146" fill="none" stroke="#111" stroke-width="2.5" stroke-linecap="round" stroke-linejoin="round"/>
    <path d="M 304 100 q 6 -14 16 -8 q 8 5 2 12" fill="none" stroke="#111" stroke-width="2.5" stroke-linecap="round" stroke-linejoin="round"/>
    <!-- glasses -->
    <circle cx="295" cy="136" r="13" fill="#f4f1ea" stroke="#111" stroke-width="2.5" stroke-linecap="round" stroke-linejoin="round"/>
    <circle cx="325" cy="136" r="13" fill="#f4f1ea" stroke="#111" stroke-width="2.5" stroke-linecap="round" stroke-linejoin="round"/>
    <line x1="308" y1="136" x2="312" y2="136" stroke="#111" stroke-width="2.5"/>
    <!-- eyes -->
    <circle cx="295" cy="136" r="2.6" fill="#111"/>
    <circle cx="325" cy="136" r="2.6" fill="#111"/>
    <!-- nose -->
    <path d="M 310 144 q 4 6 -2 9" fill="none" stroke="#111" stroke-width="2" stroke-linecap="round" stroke-linejoin="round"/>
    <line x1="299" y1="164" x2="321" y2="164" stroke="#111" stroke-width="2.5"/></g></g><g transform="translate(90,342) scale(0.62) translate(-90,-342)"><g data-surface="mug">
    <g transform="translate(142,300)">
      <rect x="-17" y="-20" width="34" height="34" rx="4" fill="#f4f1ea" stroke="#111" stroke-width="2.5" stroke-linecap="round" stroke-linejoin="round"/>
      <path d="M 17 -12 q 14 0 14 12 q 0 12 -14 12" fill="none" stroke="#111" stroke-width="2.5" stroke-linecap="round" stroke-linejoin="round"/>
      <ellipse cx="0" cy="-20" rx="17" ry="5" fill="#f4f1ea" stroke="#111" stroke-width="2" stroke-linecap="round" stroke-linejoin="round"/>
    </g><g opacity="0.85"><g >
    <!-- antenna -->
    <line x1="142" y1="283.8" x2="142" y2="280.4" stroke="#111" stroke-width="0.8500000000000001"/>
    <circle cx="142" cy="279.38" r="1.1900000000000002" fill="#111"/>
    <!-- head: angular chrome -->
    <path d="M 131.8,284.48 L 152.2,284.48 L 153.56,297.4 L 149.48,302.84 L 134.52,302.84 L 130.44,297.4 Z" fill="#f4f1ea" stroke="#111" stroke-width="1.02" stroke-linecap="round" stroke-linejoin="round"/>
    <!-- side bolts -->
    <circle cx="131.8" cy="291.96" r="0.8500000000000001" fill="#111"/>
    <circle cx="152.2" cy="291.96" r="0.8500000000000001" fill="#111"/>
    <!-- brow ridge -->
    <line x1="133.16" y1="288.56" x2="150.84" y2="288.56" stroke="#111" stroke-width="0.68"/>
    <!-- glowing slot eyes -->
    <rect x="135.2" y="291.62" width="6.12" height="1.36" rx="0.68" fill="#111"/>
    <rect x="142.68" y="291.62" width="6.12" height="1.36" rx="0.68" fill="#111"/>
    <!-- mouth grille -->
    <rect x="136.9" y="298.08" width="10.200000000000001" height="4.08" rx="0.68" fill="none" stroke="#111" stroke-width="0.68" stroke-linecap="round" stroke-linejoin="round"/>
    <line x1="137.92" y1="298.76" x2="137.92" y2="301.48" stroke="#111" stroke-width="0.68"/><line x1="139.96" y1="298.76" x2="139.96" y2="301.48" stroke="#111" stroke-width="0.68"/><line x1="142" y1="298.76" x2="142" y2="301.48" stroke="#111" stroke-width="0.68"/><line x1="144.04" y1="298.76" x2="144.04" y2="301.48" stroke="#111" stroke-width="0.68"/><line x1="146.08" y1="298.76" x2="146.08" y2="301.48" stroke="#111" stroke-width="0.68"/>
  </g></g></g></g><g data-balloon="speech"><path d="M 300 70 L 310 195.68 L 320 70 Z" fill="#f4f1ea" stroke="#111" stroke-width="2.5" stroke-linecap="round" stroke-linejoin="round"/><rect x="194.39999999999998" y="10" width="187.6" height="62" rx="16" fill="#f4f1ea" stroke="#111" stroke-width="2.5" stroke-linecap="round" stroke-linejoin="round"/><text x="288.2" y="36" text-anchor="middle" font-family="'Comic Sans MS','Segoe Print',cursive" font-size="14.5" fill="#111">Did the coffee just</text><text x="288.2" y="55" text-anchor="middle" font-family="'Comic Sans MS','Segoe Print',cursive" font-size="14.5" fill="#111">talk?</text></g><g data-balloon="speech"><path d="M 80 89 L 90 195.68 L 100 89 Z" fill="#f4f1ea" stroke="#111" stroke-width="2.5" stroke-linecap="round" stroke-linejoin="round"/><rect x="18" y="10" width="179.20000000000002" height="81" rx="16" fill="#f4f1ea" stroke="#111" stroke-width="2.5" stroke-linecap="round" stroke-linejoin="round"/><text x="107.60000000000001" y="36" text-anchor="middle" font-family="'Comic Sans MS','Segoe Print',cursive" font-size="14.5" fill="#111">Coffee can't talk,</text><text x="107.60000000000001" y="55" text-anchor="middle" font-family="'Comic Sans MS','Segoe Print',cursive" font-size="14.5" fill="#111">Dailbert. Have you</text><text x="107.60000000000001" y="74" text-anchor="middle" font-family="'Comic Sans MS','Segoe Print',cursive" font-size="14.5" fill="#111">been sleeping?</text></g>
    <text x="392" y="332" text-anchor="end" font-family="Georgia,serif" font-size="11" fill="#111" opacity="0.4">3</text>
  </g>
    
  </svg>