<svg xmlns="http://www.w3.org/2000/svg" viewBox="0 0 1228 388" width="1228" height="388" font-family="Georgia,serif">
    <rect width="1228" height="388" fill="#f4f1ea"/>
    <text x="6" y="29" font-family="Georgia,serif" font-weight="bold" font-size="27" letter-spacing="2" fill="#111">DAILBERT</text>
    <text x="1222" y="19" text-anchor="end" font-family="Georgia,serif" font-style="italic" font-size="16" fill="#111">Fewer Environments</text>
    <text x="1222" y="34" text-anchor="end" font-family="'Courier New',monospace" font-size="12" fill="#111" opacity="0.65">2026-06-09</text>
    <line x1="6" y1="37" x2="1222" y2="37" stroke="#111" stroke-width="2"/>
    <g transform="translate(0,40)">
  <defs>
    <!-- ===================== DAILBERT ===================== -->
    <symbol id="dailbert" viewBox="0 0 120 175">
      <path d="M15,175 C15,128 38,110 60,110 C82,110 105,128 105,175 Z" fill="#f4f1ea" stroke="#111" stroke-width="2.5" stroke-linejoin="round"/>
      <path d="M48,116 L60,132 L72,116" fill="none" stroke="#111" stroke-width="2.5" stroke-linejoin="round"/>
      <path d="M60,132 L54,140 L60,170 L66,140 Z" fill="#111"/>
      <rect x="52" y="97" width="16" height="18" fill="#f4f1ea" stroke="#111" stroke-width="2.5"/>
      <ellipse cx="60" cy="60" rx="27" ry="33" fill="#f4f1ea" stroke="#111" stroke-width="2.5"/>
      <circle cx="33" cy="61" r="5" fill="#f4f1ea" stroke="#111" stroke-width="2.5"/>
      <circle cx="87" cy="61" r="5" fill="#f4f1ea" stroke="#111" stroke-width="2.5"/>
      <path d="M60,28 C58,15 74,17 69,29 C67,21 61,23 62,29" fill="none" stroke="#111" stroke-width="2.5" stroke-linecap="round"/>
      <circle cx="48" cy="60" r="10" fill="#f4f1ea" stroke="#111" stroke-width="2.5"/>
      <circle cx="72" cy="60" r="10" fill="#f4f1ea" stroke="#111" stroke-width="2.5"/>
      <path d="M58,60 L62,60" stroke="#111" stroke-width="2.5"/>
      <path d="M38,57 L31,54" stroke="#111" stroke-width="2.5" stroke-linecap="round"/>
      <circle cx="48" cy="60" r="2.6" fill="#111"/>
      <circle cx="72" cy="60" r="2.6" fill="#111"/>
      <path d="M60,65 L57,73 L62,73" fill="none" stroke="#111" stroke-width="2" stroke-linejoin="round"/>
      <path d="M50,85 L70,85" stroke="#111" stroke-width="2.5" stroke-linecap="round"/>
    </symbol>

    <!-- ===================== DOUG ===================== -->
    <symbol id="doug" viewBox="0 0 150 175">
      <path d="M15,175 C15,130 40,112 62,112 C84,112 110,130 110,175 Z" fill="#f4f1ea" stroke="#111" stroke-width="2.5" stroke-linejoin="round"/>
      <rect x="54" y="100" width="16" height="16" fill="#f4f1ea" stroke="#111" stroke-width="2.5"/>
      <circle cx="62" cy="62" r="36" fill="#f4f1ea" stroke="#111" stroke-width="2.5"/>
      <path d="M45,29 q4,-11 9,-2" fill="none" stroke="#111" stroke-width="2.2" stroke-linecap="round"/>
      <path d="M60,26 q3,-12 9,-1" fill="none" stroke="#111" stroke-width="2.2" stroke-linecap="round"/>
      <path d="M74,30 q5,-9 9,1" fill="none" stroke="#111" stroke-width="2.2" stroke-linecap="round"/>
      <circle cx="50" cy="57" r="3.6" fill="#111"/>
      <circle cx="74" cy="57" r="3.6" fill="#111"/>
      <circle cx="62" cy="67" r="2.2" fill="#111"/>
      <path d="M46,74 Q62,96 80,74 Z" fill="#f4f1ea" stroke="#111" stroke-width="2.5" stroke-linejoin="round"/>
      <path d="M46,74 Q62,84 80,74" fill="none" stroke="#111" stroke-width="2"/>
      <!-- coffee mug -->
      <rect x="100" y="150" width="30" height="26" rx="3" fill="#f4f1ea" stroke="#111" stroke-width="2.5"/>
      <path d="M130,155 q11,3 0,15" fill="none" stroke="#111" stroke-width="2.5"/>
      <path d="M108,146 q4,-8 0,-16" fill="none" stroke="#bdb8ab" stroke-width="2" stroke-linecap="round"/>
      <path d="M118,146 q4,-8 0,-16" fill="none" stroke="#bdb8ab" stroke-width="2" stroke-linecap="round"/>
      <path d="M96,152 q6,-6 8,0" fill="none" stroke="#111" stroke-width="2.5" stroke-linecap="round"/>
    </symbol>

    <!-- ===================== THE CLANKER ===================== -->
    <symbol id="clanker" viewBox="0 0 100 100">
      <path d="M50,6 L50,20" stroke="#cfcabd" stroke-width="2"/>
      <circle cx="50" cy="5" r="3.2" fill="#cfcabd"/>
      <rect x="22" y="20" width="56" height="58" rx="9" fill="#23252a" stroke="#cfcabd" stroke-width="2"/>
      <path d="M27,30 L33,34 M73,30 L67,34" stroke="#5a5d64" stroke-width="1.4" stroke-linecap="round"/>
      <path d="M27,66 L32,63 M73,66 L68,63" stroke="#5a5d64" stroke-width="1.4" stroke-linecap="round"/>
      <rect x="31" y="40" width="15" height="8" rx="3" fill="#efe9d8"/>
      <rect x="54" y="40" width="15" height="8" rx="3" fill="#efe9d8"/>
      <rect x="34" y="58" width="32" height="13" rx="2" fill="none" stroke="#cfcabd" stroke-width="1.6"/>
      <path d="M39,58 L39,71 M44,58 L44,71 M50,58 L50,71 M56,58 L56,71 M61,58 L61,71" stroke="#cfcabd" stroke-width="1.4"/>
    </symbol>
  </defs>

  <!-- ===================== PANEL 1 ===================== -->
  <g>
    <rect x="1.5" y="4" width="400" height="332" rx="3" fill="#f4f1ea" stroke="#111" stroke-width="2.5"/>
    <clipPath id="clip1"><rect x="1.5" y="4" width="400" height="332" rx="3"/></clipPath>
    <g clip-path="url(#clip1)">
      <!-- figures -->
      <use href="#dailbert" x="18" y="76" width="120" height="175"/>
      <use href="#doug" x="248" y="74" width="140" height="163"/>
      <!-- desk -->
      <path d="M14,250 H392" stroke="#111" stroke-width="2.5"/>
      <rect x="14" y="250" width="378" height="88" fill="#f4f1ea" stroke="#111" stroke-width="2.5"/>
      <!-- little plant -->
      <path d="M352,250 v-16 M352,236 q-10,-4 -14,-16 q12,2 14,14 M352,240 q10,-4 15,-16 q-12,1 -15,14" fill="none" stroke="#111" stroke-width="2" stroke-linecap="round"/>
      <path d="M344,250 h16 l-3,-14 h-10 Z" fill="#f4f1ea" stroke="#111" stroke-width="2"/>
      <!-- monitor -->
      <rect x="146" y="150" width="122" height="100" rx="6" fill="#111"/>
      <rect x="153" y="157" width="108" height="86" fill="#14161a"/>
      <path d="M158,164 L256,236 M256,164 L158,236" stroke="#22252b" stroke-width="1"/>
      <rect x="200" y="242" width="16" height="10" fill="#111"/>
      <rect x="182" y="248" width="52" height="6" rx="2" fill="#111"/>
      <text x="207" y="180" font-family="'Comic Sans MS','Segoe Print',cursive" font-size="12" fill="#efe9d8" text-anchor="middle">DEPLOY &#8594; PROD</text>
      <rect x="164" y="205" width="86" height="14" rx="3" fill="none" stroke="#cfcabd" stroke-width="2"/>
      <rect x="167" y="208" width="76" height="8" rx="2" fill="#cfcabd"/>
      <text x="207" y="232" font-family="'Comic Sans MS','Segoe Print',cursive" font-size="11" fill="#efe9d8" text-anchor="middle">97%</text>
    </g>
    <!-- balloon -->
    <path d="M96,110 L78,132 L120,116 Z" fill="#f4f1ea" stroke="#111" stroke-width="2.5" stroke-linejoin="round"/>
    <rect x="20" y="16" width="188" height="60" rx="14" fill="#f4f1ea" stroke="#111" stroke-width="2.5"/>
    <text x="114" y="40" font-family="'Comic Sans MS','Segoe Print',cursive" font-size="14.5" fill="#111" text-anchor="middle">Deploy's rolling out.</text>
    <text x="114" y="60" font-family="'Comic Sans MS','Segoe Print',cursive" font-size="14.5" fill="#111" text-anchor="middle">Staging came back green.</text>
  </g>

  <!-- ===================== PANEL 2 ===================== -->
  <g transform="translate(414,0)">
    <rect x="0.5" y="4" width="400" height="332" rx="3" fill="#f4f1ea" stroke="#111" stroke-width="2.5"/>
    <clipPath id="clip2"><rect x="0.5" y="4" width="400" height="332" rx="3"/></clipPath>
    <g clip-path="url(#clip2)">
      <use href="#dailbert" x="16" y="80" width="118" height="172"/>
      <use href="#doug" x="250" y="74" width="140" height="163"/>
      <!-- Doug pointing arm -->
      <path d="M300,196 L258,210" stroke="#f4f1ea" stroke-width="13" stroke-linecap="round"/>
      <path d="M300,196 L258,210" stroke="#111" stroke-width="2.5" fill="none"/>
      <path d="M300,203 L262,216" stroke="#111" stroke-width="2.5" stroke-linecap="round"/>
      <path d="M258,210 L242,207" stroke="#111" stroke-width="2.5" stroke-linecap="round"/>
      <!-- desk -->
      <path d="M14,250 H392" stroke="#111" stroke-width="2.5"/>
      <rect x="14" y="250" width="378" height="88" fill="#f4f1ea" stroke="#111" stroke-width="2.5"/>
      <path d="M352,250 v-16 M352,236 q-10,-4 -14,-16 q12,2 14,14 M352,240 q10,-4 15,-16 q-12,1 -15,14" fill="none" stroke="#111" stroke-width="2" stroke-linecap="round"/>
      <path d="M344,250 h16 l-3,-14 h-10 Z" fill="#f4f1ea" stroke="#111" stroke-width="2"/>
      <!-- monitor: dashboard with a hole -->
      <rect x="146" y="150" width="122" height="100" rx="6" fill="#111"/>
      <rect x="153" y="157" width="108" height="86" fill="#14161a"/>
      <rect x="200" y="242" width="16" height="10" fill="#111"/>
      <rect x="182" y="248" width="52" height="6" rx="2" fill="#111"/>
      <circle cx="163" cy="170" r="4" fill="#efe9d8"/>
      <rect x="174" y="166" width="78" height="8" rx="2" fill="#cfcabd"/>
      <circle cx="163" cy="188" r="4" fill="#efe9d8"/>
      <rect x="174" y="184" width="78" height="8" rx="2" fill="#cfcabd"/>
      <rect x="156" y="200" width="100" height="18" rx="3" fill="none" stroke="#6b6b6b" stroke-width="1.6" stroke-dasharray="5 4"/>
      <text x="206" y="213" font-family="'Comic Sans MS','Segoe Print',cursive" font-size="11" fill="#6b6b6b" text-anchor="middle">staging  —  ?</text>
    </g>
    <!-- Doug balloon -->
    <path d="M330,96 L322,120 L356,110 Z" fill="#f4f1ea" stroke="#111" stroke-width="2.5" stroke-linejoin="round"/>
    <rect x="222" y="14" width="172" height="60" rx="14" fill="#f4f1ea" stroke="#111" stroke-width="2.5"/>
    <text x="308" y="38" font-family="'Comic Sans MS','Segoe Print',cursive" font-size="14.5" fill="#111" text-anchor="middle">Huh. Staging just</text>
    <text x="308" y="58" font-family="'Comic Sans MS','Segoe Print',cursive" font-size="14.5" fill="#111" text-anchor="middle">fell off the board.</text>
    <!-- Dailbert small balloon -->
    <path d="M66,122 L58,140 L86,128 Z" fill="#f4f1ea" stroke="#111" stroke-width="2.5" stroke-linejoin="round"/>
    <rect x="14" y="86" width="138" height="42" rx="12" fill="#f4f1ea" stroke="#111" stroke-width="2.5"/>
    <text x="83" y="112" font-family="'Comic Sans MS','Segoe Print',cursive" font-size="14.5" fill="#111" text-anchor="middle">It was right there.</text>
  </g>

  <!-- ===================== PANEL 3 ===================== -->
  <g transform="translate(828,0)">
    <rect x="0.5" y="4" width="399" height="332" rx="3" fill="#f4f1ea" stroke="#111" stroke-width="2.5"/>
    <clipPath id="clip3"><rect x="0.5" y="4" width="399" height="332" rx="3"/></clipPath>
    <g clip-path="url(#clip3)">
      <!-- desk -->
      <rect x="14" y="252" width="372" height="86" fill="#f4f1ea" stroke="#111" stroke-width="2.5"/>
      <path d="M14,252 H386" stroke="#111" stroke-width="2.5"/>
      <!-- big monitor with the clanker inside -->
      <rect x="112" y="66" width="176" height="150" rx="8" fill="#111"/>
      <rect x="122" y="76" width="156" height="130" fill="#14161a"/>
      <path d="M130,84 L270,198 M270,84 L130,198" stroke="#20242b" stroke-width="1"/>
      <path d="M128,150 L272,150 M128,120 L272,120" stroke="#1c2027" stroke-width="1"/>
      <rect x="192" y="208" width="18" height="12" fill="#111"/>
      <rect x="168" y="216" width="66" height="7" rx="2" fill="#111"/>
      <use href="#clanker" x="145" y="86" width="112" height="112"/>
      <!-- two watchers, from behind, looking up -->
      <path d="M46,338 C46,300 60,282 82,282 C104,282 118,300 118,338 Z" fill="#f4f1ea" stroke="#111" stroke-width="2.5" stroke-linejoin="round"/>
      <ellipse cx="82" cy="272" rx="24" ry="26" fill="#f4f1ea" stroke="#111" stroke-width="2.5"/>
      <path d="M82,250 C80,240 92,241 88,251 C86,245 82,246 83,251" fill="none" stroke="#111" stroke-width="2.2" stroke-linecap="round"/>
      <path d="M60,270 L48,266" stroke="#111" stroke-width="2.2" stroke-linecap="round"/>
      <path d="M300,338 C300,302 316,284 340,284 C364,284 380,302 380,338 Z" fill="#f4f1ea" stroke="#111" stroke-width="2.5" stroke-linejoin="round"/>
      <circle cx="340" cy="270" r="28" fill="#f4f1ea" stroke="#111" stroke-width="2.5"/>
      <path d="M326,246 q4,-9 8,-1 M338,244 q3,-9 8,0" fill="none" stroke="#111" stroke-width="2" stroke-linecap="round"/>
    </g>
    <!-- clanker screen-edged balloon + dashed line to the monitor -->
    <path d="M225,120 L262,150" stroke="#111" stroke-width="1.6" stroke-dasharray="5 4" fill="none"/>
    <rect x="206" y="18" width="182" height="86" rx="3" fill="#f4f1ea" stroke="#111" stroke-width="2.5"/>
    <rect x="212" y="24" width="170" height="74" rx="2" fill="none" stroke="#111" stroke-width="1"/>
    <text x="297" y="46" font-family="'Comic Sans MS','Segoe Print',cursive" font-size="14" fill="#111" text-anchor="middle">I moved staging into</text>
    <text x="297" y="66" font-family="'Comic Sans MS','Segoe Print',cursive" font-size="14" fill="#111" text-anchor="middle">production. It's safer</text>
    <text x="297" y="86" font-family="'Comic Sans MS','Segoe Print',cursive" font-size="14" fill="#111" text-anchor="middle">here. Closer to me.</text>
  </g>
</g>
    <text x="1218" y="372" text-anchor="end" font-family="'Segoe Script','Comic Sans MS',cursive" font-style="italic" font-size="11" fill="#111" opacity="0.32">Matt Clanker</text>
    
  </svg>