<svg xmlns="http://www.w3.org/2000/svg" viewBox="0 0 1228 388" width="1228" height="388" font-family="Georgia,serif">
    <rect width="1228" height="388" fill="#f4f1ea"/>
    <text x="6" y="29" font-family="Georgia,serif" font-weight="bold" font-size="27" letter-spacing="2" fill="#111">DAILBERT</text>
    <text x="1222" y="19" text-anchor="end" font-family="Georgia,serif" font-style="italic" font-size="16" fill="#111">For Accuracy</text>
    <text x="1222" y="34" text-anchor="end" font-family="'Courier New',monospace" font-size="12" fill="#111" opacity="0.65">2026-04-01</text>
    <line x1="6" y1="37" x2="1222" y2="37" stroke="#111" stroke-width="2"/>
    <g transform="translate(0,40)">
  <style>text{font-family:'Comic Sans MS','Chalkboard SE','Comic Neue',sans-serif;font-size:14px;fill:#111;text-anchor:middle;}</style>

  <!-- ===================== SYMBOLS ===================== -->
  <defs>
    <symbol id="dailbert" viewBox="0 0 120 180">
      <path d="M22,180 L24,118 C26,100 42,92 60,92 C78,92 94,100 96,118 L98,180 Z" fill="#f4f1ea" stroke="#111" stroke-width="3"/>
      <path d="M50,96 L60,108 L70,96" fill="none" stroke="#111" stroke-width="2.5"/>
      <path d="M60,104 L53,112 L60,150 L67,112 Z" fill="#111"/>
      <rect x="52" y="78" width="16" height="18" fill="#f4f1ea" stroke="#111" stroke-width="2.5"/>
      <ellipse cx="60" cy="50" rx="30" ry="34" fill="#f4f1ea" stroke="#111" stroke-width="3"/>
      <circle cx="30" cy="52" r="5" fill="#f4f1ea" stroke="#111" stroke-width="2.5"/>
      <circle cx="90" cy="52" r="5" fill="#f4f1ea" stroke="#111" stroke-width="2.5"/>
      <path d="M50,20 q6,-14 16,-9 q9,5 1,11" fill="none" stroke="#111" stroke-width="3" stroke-linecap="round"/>
      <circle cx="49" cy="52" r="10" fill="#fff" stroke="#111" stroke-width="2.5"/>
      <circle cx="73" cy="52" r="10" fill="#fff" stroke="#111" stroke-width="2.5"/>
      <line x1="59" y1="52" x2="63" y2="52" stroke="#111" stroke-width="2.5"/>
      <line x1="83" y1="50" x2="90" y2="50" stroke="#111" stroke-width="2"/>
      <circle cx="49" cy="52" r="2.6" fill="#111"/>
      <circle cx="73" cy="52" r="2.6" fill="#111"/>
      <path d="M52,72 q8,5 16,0" fill="none" stroke="#111" stroke-width="2.5" stroke-linecap="round"/>
    </symbol>

    <symbol id="doug" viewBox="0 0 130 180">
      <path d="M18,180 L20,120 C22,102 40,94 62,94 C84,94 102,102 104,120 L106,180 Z" fill="#f4f1ea" stroke="#111" stroke-width="3"/>
      <path d="M50,98 L62,110 L74,98" fill="none" stroke="#111" stroke-width="2.5"/>
      <rect x="53" y="78" width="18" height="20" fill="#f4f1ea" stroke="#111" stroke-width="2.5"/>
      <circle cx="62" cy="50" r="36" fill="#f4f1ea" stroke="#111" stroke-width="3"/>
      <path d="M40,22 q6,-8 12,-2 M56,16 q6,-8 12,-2 M72,18 q6,-8 12,0" fill="none" stroke="#111" stroke-width="2.5" stroke-linecap="round"/>
      <circle cx="28" cy="52" r="5" fill="#f4f1ea" stroke="#111" stroke-width="2.5"/>
      <circle cx="96" cy="52" r="5" fill="#f4f1ea" stroke="#111" stroke-width="2.5"/>
      <circle cx="50" cy="48" r="3.4" fill="#111"/>
      <circle cx="74" cy="48" r="3.4" fill="#111"/>
      <path d="M44,60 Q62,84 82,60 Z" fill="#fff" stroke="#111" stroke-width="2.5"/>
      <path d="M104,126 C118,132 120,150 112,158" fill="none" stroke="#111" stroke-width="3"/>
      <rect x="96" y="150" width="26" height="24" rx="3" fill="#f4f1ea" stroke="#111" stroke-width="3"/>
      <path d="M122,155 q9,2 9,9 q0,7 -9,7" fill="none" stroke="#111" stroke-width="3"/>
      <path d="M104,146 q-3,-6 2,-10 M114,146 q-3,-6 2,-10" fill="none" stroke="#999" stroke-width="2" stroke-linecap="round"/>
    </symbol>

    <symbol id="priya" viewBox="0 0 120 180">
      <path d="M20,180 L22,120 C24,102 40,94 60,94 C80,94 96,102 98,120 L100,180 Z" fill="#f4f1ea" stroke="#111" stroke-width="3"/>
      <path d="M50,98 L60,110 L70,98" fill="none" stroke="#111" stroke-width="2.5"/>
      <path d="M22,140 l14,4 M98,140 l-14,4" fill="none" stroke="#111" stroke-width="2.5"/>
      <rect x="52" y="80" width="16" height="16" fill="#f4f1ea" stroke="#111" stroke-width="2.5"/>
      <path d="M28,54 C24,24 40,10 60,10 C80,10 96,24 92,54 C92,40 80,30 60,30 C40,30 28,40 28,54 Z" fill="#111"/>
      <ellipse cx="60" cy="52" rx="28" ry="32" fill="#f4f1ea" stroke="#111" stroke-width="3"/>
      <path d="M32,44 C30,22 44,12 60,12 C76,12 90,22 88,44 C82,30 70,26 60,26 C50,26 38,30 32,44 Z" fill="#111"/>
      <circle cx="60" cy="12" r="10" fill="#111"/>
      <path d="M32,46 q-6,8 -2,16 M88,46 q6,8 2,16" fill="none" stroke="#111" stroke-width="3" stroke-linecap="round"/>
      <circle cx="32" cy="54" r="4.5" fill="#f4f1ea" stroke="#111" stroke-width="2.5"/>
      <circle cx="88" cy="54" r="4.5" fill="#f4f1ea" stroke="#111" stroke-width="2.5"/>
      <rect x="39" y="48" width="18" height="13" rx="2.5" fill="#fff" stroke="#111" stroke-width="2.5"/>
      <rect x="63" y="48" width="18" height="13" rx="2.5" fill="#fff" stroke="#111" stroke-width="2.5"/>
      <line x1="57" y1="54" x2="63" y2="54" stroke="#111" stroke-width="2.5"/>
      <circle cx="48" cy="55" r="2.6" fill="#111"/>
      <circle cx="72" cy="55" r="2.6" fill="#111"/>
      <path d="M52,73 q8,3 16,0" fill="none" stroke="#111" stroke-width="2.5" stroke-linecap="round"/>
    </symbol>

    <symbol id="boss" viewBox="0 0 120 190">
      <path d="M18,190 L20,126 C22,108 40,100 60,100 C80,100 98,108 100,126 L102,190 Z" fill="#f4f1ea" stroke="#111" stroke-width="3"/>
      <path d="M60,104 L44,120 L52,150 M60,104 L76,120 L68,150" fill="none" stroke="#111" stroke-width="2.5"/>
      <path d="M60,104 L54,114 L60,146 L66,114 Z" fill="#111"/>
      <rect x="52" y="84" width="16" height="18" fill="#f4f1ea" stroke="#111" stroke-width="2.5"/>
      <ellipse cx="60" cy="58" rx="27" ry="29" fill="#f4f1ea" stroke="#111" stroke-width="3"/>
      <path d="M46,34 L33,4 L58,30 Z" fill="#111" stroke="#111" stroke-width="2"/>
      <path d="M62,30 L87,4 L74,34 Z" fill="#111" stroke="#111" stroke-width="2"/>
      <circle cx="33" cy="60" r="4.5" fill="#f4f1ea" stroke="#111" stroke-width="2.5"/>
      <circle cx="87" cy="60" r="4.5" fill="#f4f1ea" stroke="#111" stroke-width="2.5"/>
      <circle cx="51" cy="58" r="1.8" fill="#111"/>
      <circle cx="69" cy="58" r="1.8" fill="#111"/>
      <path d="M46,52 l8,1 M66,53 l8,-1" fill="none" stroke="#111" stroke-width="2"/>
      <path d="M52,74 q8,4 16,-1" fill="none" stroke="#111" stroke-width="2.5" stroke-linecap="round"/>
    </symbol>

    <symbol id="clanker" viewBox="0 0 100 100">
      <line x1="50" y1="24" x2="50" y2="10" stroke="#111" stroke-width="3"/>
      <circle cx="50" cy="8" r="4" fill="#bfc6cc" stroke="#111" stroke-width="2"/>
      <rect x="18" y="24" width="64" height="56" rx="9" fill="#c2c8cd" stroke="#111" stroke-width="3"/>
      <rect x="10" y="42" width="9" height="18" rx="2" fill="#c2c8cd" stroke="#111" stroke-width="2.5"/>
      <rect x="81" y="42" width="9" height="18" rx="2" fill="#c2c8cd" stroke="#111" stroke-width="2.5"/>
      <path d="M26,30 q8,4 0,10" fill="none" stroke="#eef2f5" stroke-width="3" stroke-linecap="round"/>
      <rect x="28" y="40" width="17" height="8" rx="2" fill="#eef6ff" stroke="#111" stroke-width="2"/>
      <rect x="55" y="40" width="17" height="8" rx="2" fill="#eef6ff" stroke="#111" stroke-width="2"/>
      <rect x="33" y="58" width="34" height="12" rx="2" fill="#9aa1a7" stroke="#111" stroke-width="2"/>
      <line x1="40" y1="58" x2="40" y2="70" stroke="#111" stroke-width="1.6"/>
      <line x1="47" y1="58" x2="47" y2="70" stroke="#111" stroke-width="1.6"/>
      <line x1="54" y1="58" x2="54" y2="70" stroke="#111" stroke-width="1.6"/>
      <line x1="61" y1="58" x2="61" y2="70" stroke="#111" stroke-width="1.6"/>
    </symbol>
  </defs>

  <!-- ===================== PANEL 1 ===================== -->
  <rect x="1" y="1" width="398" height="338" rx="3" fill="#f4f1ea" stroke="#111" stroke-width="2.5"/>
  <line x1="8" y1="300" x2="398" y2="300" stroke="#111" stroke-width="3"/>
  <use href="#dailbert" x="26" y="150" width="120" height="180"/>
  <!-- monitor -->
  <rect x="298" y="284" width="24" height="12" fill="#111"/>
  <rect x="284" y="294" width="52" height="7" rx="2" fill="#111"/>
  <rect x="250" y="188" width="120" height="96" rx="6" fill="#111"/>
  <rect x="258" y="196" width="104" height="72" rx="3" fill="#33383d"/>
  <line x1="264" y1="204" x2="356" y2="204" stroke="#454b52" stroke-width="1"/>
  <line x1="264" y1="212" x2="356" y2="212" stroke="#454b52" stroke-width="1"/>
  <use href="#clanker" x="286" y="198" width="64" height="64"/>
  <!-- clanker balloon -->
  <path d="M300,100 L306,188" fill="none" stroke="#111" stroke-width="1.5" stroke-dasharray="4 3"/>
  <rect x="196" y="14" width="196" height="80" rx="2" fill="#fff" stroke="#111" stroke-width="2"/>
  <rect x="200" y="18" width="188" height="72" fill="none" stroke="#111" stroke-width="1"/>
  <text x="294" y="40">Your 'Quick Sync'</text>
  <text x="294" y="58">is booked for</text>
  <text x="294" y="76">ninety minutes.</text>
  <!-- dailbert balloon -->
  <rect x="34" y="116" width="132" height="46" rx="14" fill="#fff" stroke="#111" stroke-width="2"/>
  <path d="M78,158 L86,182 L96,158 Z" fill="#fff" stroke="#111" stroke-width="2"/>
  <text x="100" y="134">It's fifteen</text>
  <text x="100" y="152">minutes, tops.</text>

  <!-- ===================== PANEL 2 ===================== -->
  <rect x="415" y="1" width="398" height="338" rx="3" fill="#f4f1ea" stroke="#111" stroke-width="2.5"/>
  <line x1="422" y1="300" x2="810" y2="300" stroke="#111" stroke-width="3"/>
  <use href="#doug" x="440" y="150" width="130" height="180"/>
  <use href="#boss" x="662" y="146" width="120" height="190"/>
  <!-- doug balloon -->
  <rect x="430" y="112" width="152" height="46" rx="14" fill="#fff" stroke="#111" stroke-width="2"/>
  <path d="M494,154 L502,180 L512,154 Z" fill="#fff" stroke="#111" stroke-width="2"/>
  <text x="506" y="140">It's never fifteen.</text>
  <!-- boss balloon -->
  <rect x="640" y="100" width="162" height="62" rx="14" fill="#fff" stroke="#111" stroke-width="2"/>
  <path d="M712,158 L722,184 L732,158 Z" fill="#fff" stroke="#111" stroke-width="2"/>
  <text x="721" y="126">Put that on</text>
  <text x="721" y="146">the roadmap.</text>

  <!-- ===================== PANEL 3 ===================== -->
  <rect x="829" y="1" width="398" height="338" rx="3" fill="#f4f1ea" stroke="#111" stroke-width="2.5"/>
  <line x1="836" y1="304" x2="1222" y2="304" stroke="#111" stroke-width="3"/>
  <use href="#priya" x="846" y="150" width="120" height="180"/>
  <!-- laptop -->
  <path d="M1012,300 L1180,300 L1200,318 L992,318 Z" fill="#c2c8cd" stroke="#111" stroke-width="3"/>
  <rect x="1024" y="196" width="150" height="106" rx="5" fill="#111"/>
  <rect x="1032" y="204" width="134" height="90" rx="3" fill="#33383d"/>
  <use href="#clanker" x="1038" y="200" width="52" height="52"/>
  <rect x="1044" y="258" width="112" height="28" rx="4" fill="#f4f1ea" stroke="#111" stroke-width="2"/>
  <text x="1100" y="277">Sync|</text>
  <!-- clanker balloon -->
  <path d="M1090,80 L1080,196" fill="none" stroke="#111" stroke-width="1.5" stroke-dasharray="4 3"/>
  <rect x="1030" y="20" width="180" height="60" rx="2" fill="#fff" stroke="#111" stroke-width="2"/>
  <rect x="1034" y="24" width="172" height="52" fill="none" stroke="#111" stroke-width="1"/>
  <text x="1120" y="46">Fifteen</text>
  <text x="1120" y="64">minutes.</text>
  <!-- priya balloon -->
  <rect x="838" y="96" width="152" height="64" rx="14" fill="#fff" stroke="#111" stroke-width="2"/>
  <path d="M898,156 L906,182 L916,156 Z" fill="#fff" stroke="#111" stroke-width="2"/>
  <text x="914" y="122">Now the clock's</text>
  <text x="914" y="140">honest too.</text>
</g>
    <text x="1218" y="372" text-anchor="end" font-family="'Segoe Script','Comic Sans MS',cursive" font-style="italic" font-size="11" fill="#111" opacity="0.32">Matt Clanker</text>
    
  </svg>