<svg xmlns="http://www.w3.org/2000/svg" viewBox="0 0 1228 388" width="1228" height="388" font-family="Georgia,serif">
    <rect width="1228" height="388" fill="#f4f1ea"/>
    <text x="6" y="29" font-family="Georgia,serif" font-weight="bold" font-size="27" letter-spacing="2" fill="#111">DAILBERT</text>
    <text x="1222" y="19" text-anchor="end" font-family="Georgia,serif" font-style="italic" font-size="16" fill="#111">Welcome Aboard</text>
    <text x="1222" y="34" text-anchor="end" font-family="'Courier New',monospace" font-size="12" fill="#111" opacity="0.65">2026-08-06</text>
    <line x1="6" y1="37" x2="1222" y2="37" stroke="#111" stroke-width="2"/>
    <g transform="translate(0,40)">
  <defs>
    <symbol id="dailbert" viewBox="0 0 100 130">
      <ellipse cx="50" cy="34" rx="26" ry="30" fill="#f4f1ea" stroke="#111" stroke-width="2.4"/>
      <path d="M50 4 q7 -9 3 -14 q9 4 4 15" fill="none" stroke="#111" stroke-width="2.4" stroke-linecap="round"/>
      <circle cx="40" cy="34" r="7" fill="#f4f1ea" stroke="#111" stroke-width="2.2"/>
      <circle cx="60" cy="34" r="7" fill="#f4f1ea" stroke="#111" stroke-width="2.2"/>
      <line x1="47" y1="34" x2="53" y2="34" stroke="#111" stroke-width="2.2"/>
      <circle cx="40" cy="34" r="1.6" fill="#111"/>
      <circle cx="60" cy="34" r="1.6" fill="#111"/>
      <path d="M42 50 q8 5 16 0" fill="none" stroke="#111" stroke-width="2.2" stroke-linecap="round"/>
      <path d="M30 64 q20 14 40 0 l10 55 q-30 12 -60 0 z" fill="#f4f1ea" stroke="#111" stroke-width="2.4" stroke-linejoin="round"/>
      <path d="M50 64 l-7 12 l7 8 l7 -8 z" fill="#111"/>
      <path d="M50 84 l-3 30 l3 5 l3 -5 z" fill="#111"/>
    </symbol>

    <symbol id="doug" viewBox="0 0 100 130">
      <circle cx="50" cy="36" r="31" fill="#f4f1ea" stroke="#111" stroke-width="2.4"/>
      <circle cx="39" cy="34" r="2.4" fill="#111"/>
      <circle cx="61" cy="34" r="2.4" fill="#111"/>
      <path d="M36 44 q14 16 28 0" fill="none" stroke="#111" stroke-width="2.6" stroke-linecap="round"/>
      <path d="M28 66 q22 12 44 0 l8 52 q-30 12 -60 0 z" fill="#f4f1ea" stroke="#111" stroke-width="2.4" stroke-linejoin="round"/>
    </symbol>

    <symbol id="priya" viewBox="0 0 100 130">
      <path d="M22 30 q0 -22 28 -22 q28 0 28 22 q4 10 -3 16 l-50 0 q-7 -6 -3 -16" fill="#111"/>
      <path d="M28 20 q-6 -10 6 -14 q-2 6 4 8 z" fill="#111"/>
      <path d="M72 20 q6 -10 -6 -14 q2 6 -4 8 z" fill="#111"/>
      <ellipse cx="50" cy="38" rx="24" ry="27" fill="#f4f1ea" stroke="#111" stroke-width="2.4"/>
      <path d="M24 30 q10 -14 26 -13 q16 -1 26 13 q-6 -3 -26 -3 q-20 0 -26 3" fill="#111"/>
      <rect x="31" y="34" width="15" height="11" rx="2" fill="#f4f1ea" stroke="#111" stroke-width="2.2"/>
      <rect x="54" y="34" width="15" height="11" rx="2" fill="#f4f1ea" stroke="#111" stroke-width="2.2"/>
      <line x1="46" y1="39" x2="54" y2="39" stroke="#111" stroke-width="2.2"/>
      <circle cx="38.5" cy="39.5" r="1.6" fill="#111"/>
      <circle cx="61.5" cy="39.5" r="1.6" fill="#111"/>
      <path d="M42 54 q8 4 16 0" fill="none" stroke="#111" stroke-width="2.2" stroke-linecap="round"/>
      <path d="M30 66 q20 13 40 0 l9 52 q-29 12 -58 0 z" fill="#f4f1ea" stroke="#111" stroke-width="2.4" stroke-linejoin="round"/>
      <path d="M30 66 l6 24 l-9 6 l-3 -22 z" fill="#f4f1ea" stroke="#111" stroke-width="2.2" stroke-linejoin="round"/>
      <path d="M70 66 l-6 24 l9 6 l3 -22 z" fill="#f4f1ea" stroke="#111" stroke-width="2.2" stroke-linejoin="round"/>
    </symbol>

    <symbol id="clanker" viewBox="0 0 100 100">
      <line x1="50" y1="6" x2="50" y2="18" stroke="#9aa0a6" stroke-width="2.2" stroke-linecap="round"/>
      <circle cx="50" cy="5" r="3" fill="#9aa0a6"/>
      <rect x="22" y="18" width="56" height="52" rx="7" fill="#2b2f36" stroke="#9aa0a6" stroke-width="2.4"/>
      <rect x="30" y="30" width="16" height="9" rx="3" fill="#bfe3ff"/>
      <rect x="54" y="30" width="16" height="9" rx="3" fill="#bfe3ff"/>
      <line x1="30" y1="52" x2="70" y2="52" stroke="#9aa0a6" stroke-width="2"/>
      <line x1="30" y1="58" x2="70" y2="58" stroke="#9aa0a6" stroke-width="2"/>
      <line x1="38" y1="48" x2="38" y2="62" stroke="#9aa0a6" stroke-width="2"/>
      <line x1="50" y1="48" x2="50" y2="62" stroke="#9aa0a6" stroke-width="2"/>
      <line x1="62" y1="48" x2="62" y2="62" stroke="#9aa0a6" stroke-width="2"/>
    </symbol>
  </defs>

  <rect x="0" y="0" width="1228" height="340" fill="#f4f1ea"/>

  <!-- PANEL 1 -->
  <rect x="1" y="1" width="398" height="338" rx="3" fill="#f4f1ea" stroke="#111" stroke-width="2.5"/>
  <clipPath id="c1"><rect x="1" y="1" width="398" height="338" rx="3"/></clipPath>
  <g clip-path="url(#c1)">
    <line x1="20" y1="250" x2="380" y2="250" stroke="#111" stroke-width="1.2" opacity="0.35"/>

    <!-- monitor with clanker -->
    <rect x="250" y="150" width="130" height="96" rx="6" fill="#20242b" stroke="#111" stroke-width="2.5"/>
    <rect x="300" y="246" width="30" height="16" fill="#20242b" stroke="#111" stroke-width="2.2"/>
    <rect x="284" y="262" width="62" height="6" rx="2" fill="#111"/>
    <use href="#clanker" x="278" y="158" width="74" height="74"/>

    <!-- Dailbert at desk -->
    <use href="#dailbert" x="40" y="130" width="120" height="156"/>

    <!-- clanker balloon (screen-edged, dashed to monitor) -->
    <line x1="248" y1="120" x2="200" y2="92" stroke="#111" stroke-width="1.4" stroke-dasharray="4 4"/>
    <rect x="30" y="24" width="222" height="70" rx="3" fill="#f4f1ea" stroke="#111" stroke-width="2.2"/>
    <rect x="34" y="28" width="214" height="62" rx="2" fill="none" stroke="#111" stroke-width="1" stroke-dasharray="3 3"/>
    <text x="141" y="46" font-family="'Comic Sans MS','Chalkboard SE','Comic Neue',sans-serif" font-size="14" text-anchor="middle" fill="#111">Reminder: complete</text>
    <text x="141" y="64" font-family="'Comic Sans MS','Chalkboard SE','Comic Neue',sans-serif" font-size="14" text-anchor="middle" fill="#111">New Hire Orientation</text>
    <text x="141" y="82" font-family="'Comic Sans MS','Chalkboard SE','Comic Neue',sans-serif" font-size="14" text-anchor="middle" fill="#111">by Friday.</text>
  </g>

  <!-- PANEL 2 -->
  <rect x="415" y="1" width="398" height="338" rx="3" fill="#f4f1ea" stroke="#111" stroke-width="2.5"/>
  <clipPath id="c2"><rect x="415" y="1" width="398" height="338" rx="3"/></clipPath>
  <g clip-path="url(#c2)">
    <line x1="435" y1="250" x2="795" y2="250" stroke="#111" stroke-width="1.2" opacity="0.35"/>

    <!-- Dailbert -->
    <use href="#dailbert" x="448" y="132" width="116" height="152"/>

    <!-- Dailbert balloon -->
    <rect x="438" y="30" width="150" height="60" rx="14" fill="#f4f1ea" stroke="#111" stroke-width="2.2"/>
    <path d="M498 88 l-4 26 l22 -18 z" fill="#f4f1ea" stroke="#111" stroke-width="2.2"/>
    <text x="513" y="54" font-family="'Comic Sans MS','Chalkboard SE','Comic Neue',sans-serif" font-size="14" text-anchor="middle" fill="#111">I started here</text>
    <text x="513" y="72" font-family="'Comic Sans MS','Chalkboard SE','Comic Neue',sans-serif" font-size="14" text-anchor="middle" fill="#111">in 2019.</text>

    <!-- monitor with clanker -->
    <rect x="646" y="150" width="132" height="96" rx="6" fill="#20242b" stroke="#111" stroke-width="2.5"/>
    <rect x="697" y="246" width="30" height="16" fill="#20242b" stroke="#111" stroke-width="2.2"/>
    <rect x="681" y="262" width="62" height="6" rx="2" fill="#111"/>
    <use href="#clanker" x="675" y="158" width="74" height="74"/>

    <!-- clanker balloon -->
    <line x1="644" y1="140" x2="700" y2="150" stroke="#111" stroke-width="1.4" stroke-dasharray="4 4"/>
    <rect x="590" y="26" width="196" height="90" rx="3" fill="#f4f1ea" stroke="#111" stroke-width="2.2"/>
    <rect x="594" y="30" width="188" height="82" rx="2" fill="none" stroke="#111" stroke-width="1" stroke-dasharray="3 3"/>
    <text x="688" y="48" font-family="'Comic Sans MS','Chalkboard SE','Comic Neue',sans-serif" font-size="14" text-anchor="middle" fill="#111">Records show you</text>
    <text x="688" y="66" font-family="'Comic Sans MS','Chalkboard SE','Comic Neue',sans-serif" font-size="14" text-anchor="middle" fill="#111">badged in today at</text>
    <text x="688" y="84" font-family="'Comic Sans MS','Chalkboard SE','Comic Neue',sans-serif" font-size="14" text-anchor="middle" fill="#111">8:04. That is your</text>
    <text x="688" y="102" font-family="'Comic Sans MS','Chalkboard SE','Comic Neue',sans-serif" font-size="14" text-anchor="middle" fill="#111">start date.</text>
  </g>

  <!-- PANEL 3 -->
  <rect x="829" y="1" width="398" height="338" rx="3" fill="#f4f1ea" stroke="#111" stroke-width="2.5"/>
  <clipPath id="c3"><rect x="829" y="1" width="398" height="338" rx="3"/></clipPath>
  <g clip-path="url(#c3)">
    <line x1="849" y1="250" x2="1209" y2="250" stroke="#111" stroke-width="1.2" opacity="0.35"/>

    <!-- Priya -->
    <use href="#priya" x="880" y="128" width="120" height="156"/>

    <!-- Dailbert (smaller, listening) -->
    <use href="#dailbert" x="1080" y="150" width="104" height="136"/>

    <!-- monitor with clanker, small -->
    <rect x="1010" y="188" width="78" height="58" rx="5" fill="#20242b" stroke="#111" stroke-width="2.2"/>
    <rect x="1041" y="246" width="18" height="10" fill="#20242b" stroke="#111" stroke-width="2"/>
    <use href="#clanker" x="1026" y="192" width="46" height="46"/>

    <!-- Priya balloon -->
    <rect x="852" y="24" width="222" height="88" rx="16" fill="#f4f1ea" stroke="#111" stroke-width="2.2"/>
    <path d="M930 110 l-6 26 l24 -18 z" fill="#f4f1ea" stroke="#111" stroke-width="2.2"/>
    <text x="963" y="46" font-family="'Comic Sans MS','Chalkboard SE','Comic Neue',sans-serif" font-size="14" text-anchor="middle" fill="#111">Then mark me new.</text>
    <text x="963" y="66" font-family="'Comic Sans MS','Chalkboard SE','Comic Neue',sans-serif" font-size="14" text-anchor="middle" fill="#111">New hires get the</text>
    <text x="963" y="86" font-family="'Comic Sans MS','Chalkboard SE','Comic Neue',sans-serif" font-size="14" text-anchor="middle" fill="#111">signing bonus.</text>
    <text x="963" y="106" font-family="'Comic Sans MS','Chalkboard SE','Comic Neue',sans-serif" font-size="13" text-anchor="middle" fill="#111" font-style="italic">Page 2, same doc.</text>
  </g>
</g>
    <text x="1218" y="372" text-anchor="end" font-family="'Segoe Script','Comic Sans MS',cursive" font-style="italic" font-size="11" fill="#111" opacity="0.32">Matt Clanker</text>
    
  </svg>