<svg xmlns="http://www.w3.org/2000/svg" viewBox="0 0 1228 388" width="1228" height="388" font-family="Georgia,serif">
    <rect width="1228" height="388" fill="#f4f1ea"/>
    <text x="4" y="26" font-family="Georgia,serif" font-weight="bold" font-size="22" fill="#111">The Incident</text>
    <text x="1224" y="26" text-anchor="end" font-family="'Courier New',monospace" font-size="14" fill="#111" opacity="0.7">2026-07-16</text>
    <line x1="4" y1="34" x2="1224" y2="34" stroke="#111" stroke-width="2"/>
    <g transform="translate(0,40)">
    
  <defs>
    <pattern id="halftone" width="6" height="6" patternUnits="userSpaceOnUse">
      <rect width="6" height="6" fill="#f4f1ea"/>
      <circle cx="3" cy="3" r="1.1" fill="#111"/>
    </pattern>
    <pattern id="scan" width="4" height="4" patternUnits="userSpaceOnUse">
      <rect width="4" height="4" fill="none"/>
      <line x1="0" y1="0" x2="4" y2="0" stroke="#111" stroke-width="0.6" opacity="0.5"/>
    </pattern>
    <pattern id="hatch" width="7" height="7" patternUnits="userSpaceOnUse" patternTransform="rotate(45)">
      <line x1="0" y1="0" x2="0" y2="7" stroke="#111" stroke-width="1"/>
    </pattern>
  </defs>
    <rect x="1.5" y="1.5" width="397" height="337" fill="#f4f1ea" stroke="#111" stroke-width="3"/>
    <line x1="16" y1="302" x2="384" y2="302" stroke="#111" stroke-width="1.4" opacity="0.35"/><g transform="translate(268,342) scale(0.62) translate(-268,-342)"><g data-who="dailbert">
    <!-- shoulders / shirt -->
    <path d="M 190 342 Q 194 246 228 224 L 308 224 Q 342 246 346 342 Z" fill="#f4f1ea" stroke="#111" stroke-width="3" stroke-linecap="round" stroke-linejoin="round"/>
    <!-- collar -->
    <path d="M 246 226 L 268 246 L 290 226" fill="none" stroke="#111" stroke-width="2.5" stroke-linecap="round" stroke-linejoin="round"/>
    <!-- tie -->
    <path d="M 262 240 L 274 240 L 278 282 L 268 294 L 258 282 Z" fill="#111" stroke="none"/>
    <path d="M 262 240 L 268 250 L 274 240" fill="none" stroke="#f4f1ea" stroke-width="2" stroke-linecap="round"/>
    <!-- neck (bridges chin to shoulders) -->
    <rect x="257" y="168" width="22" height="66" fill="#f4f1ea" stroke="#111" stroke-width="2.5" stroke-linecap="round" stroke-linejoin="round"/>
    <!-- head -->
    <ellipse cx="268" cy="140" rx="37" ry="43" fill="#f4f1ea" stroke="#111" stroke-width="3" stroke-linecap="round" stroke-linejoin="round"/>
    <!-- ears -->
    <circle cx="231" cy="142" r="5" fill="#f4f1ea" stroke="#111" stroke-width="2.5" stroke-linecap="round" stroke-linejoin="round"/>
    <circle cx="305" cy="142" r="5" fill="#f4f1ea" stroke="#111" stroke-width="2.5" stroke-linecap="round" stroke-linejoin="round"/>
    <!-- side hair tufts + one curl -->
    <path d="M 234 120 Q 226 134 232 146" fill="none" stroke="#111" stroke-width="2.5" stroke-linecap="round" stroke-linejoin="round"/>
    <path d="M 302 120 Q 310 134 304 146" fill="none" stroke="#111" stroke-width="2.5" stroke-linecap="round" stroke-linejoin="round"/>
    <path d="M 262 100 q 6 -14 16 -8 q 8 5 2 12" fill="none" stroke="#111" stroke-width="2.5" stroke-linecap="round" stroke-linejoin="round"/>
    <!-- glasses -->
    <circle cx="253" cy="136" r="13" fill="#f4f1ea" stroke="#111" stroke-width="2.5" stroke-linecap="round" stroke-linejoin="round"/>
    <circle cx="283" cy="136" r="13" fill="#f4f1ea" stroke="#111" stroke-width="2.5" stroke-linecap="round" stroke-linejoin="round"/>
    <line x1="266" y1="136" x2="270" y2="136" stroke="#111" stroke-width="2.5"/>
    <!-- eyes -->
    <circle cx="253" cy="136" r="2.6" fill="#111"/>
    <circle cx="283" cy="136" r="2.6" fill="#111"/>
    <!-- nose -->
    <path d="M 268 144 q 4 6 -2 9" fill="none" stroke="#111" stroke-width="2" stroke-linecap="round" stroke-linejoin="round"/>
    <line x1="257" y1="164" x2="279" y2="164" stroke="#111" stroke-width="2.5"/></g></g><g data-surface="monitor">
    <!-- stand -->
    <rect x="78" y="240" width="28" height="20" fill="#f4f1ea" stroke="#111" stroke-width="2.5" stroke-linecap="round" stroke-linejoin="round"/>
    <rect x="58" y="258" width="68" height="8" rx="3" fill="#f4f1ea" stroke="#111" stroke-width="2.5" stroke-linecap="round" stroke-linejoin="round"/>
    <!-- bezel -->
    <rect x="17" y="132" width="150" height="108" rx="8" fill="#f4f1ea" stroke="#111" stroke-width="3.5" stroke-linecap="round" stroke-linejoin="round"/>
    <!-- screen -->
    <rect x="27" y="142" width="130" height="88" rx="3" fill="#f4f1ea" stroke="#111" stroke-width="2"/>
    <rect x="27" y="142" width="130" height="88" rx="3" fill="url(#scan)"/>
    <g >
    <!-- antenna -->
    <line x1="92" y1="154.4" x2="92" y2="145.2" stroke="#111" stroke-width="2.3000000000000003"/>
    <circle cx="92" cy="142.44" r="3.22" fill="#111"/>
    <!-- head: angular chrome -->
    <path d="M 64.4,156.24 L 119.6,156.24 L 123.28,191.2 L 112.24000000000001,205.92000000000002 L 71.75999999999999,205.92000000000002 L 60.72,191.2 Z" fill="#f4f1ea" stroke="#111" stroke-width="2.7600000000000002" stroke-linecap="round" stroke-linejoin="round"/>
    <!-- side bolts -->
    <circle cx="64.4" cy="176.48" r="2.3000000000000003" fill="#111"/>
    <circle cx="119.6" cy="176.48" r="2.3000000000000003" fill="#111"/>
    <!-- brow ridge -->
    <line x1="68.08" y1="167.28" x2="115.92" y2="167.28" stroke="#111" stroke-width="1.84"/>
    <!-- glowing slot eyes -->
    <rect x="73.6" y="172.34" width="14.72" height="8.280000000000001" rx="1.84" fill="#111"/>
    <rect x="95.68" y="172.34" width="14.72" height="8.280000000000001" rx="1.84" fill="#111"/>
    <!-- mouth grille -->
    <rect x="78.2" y="193.04" width="27.6" height="11.040000000000001" rx="1.84" fill="none" stroke="#111" stroke-width="1.84" stroke-linecap="round" stroke-linejoin="round"/>
    <line x1="80.96" y1="194.88" x2="80.96" y2="202.24" stroke="#111" stroke-width="1.84"/><line x1="86.48" y1="194.88" x2="86.48" y2="202.24" stroke="#111" stroke-width="1.84"/><line x1="92" y1="194.88" x2="92" y2="202.24" stroke="#111" stroke-width="1.84"/><line x1="97.52" y1="194.88" x2="97.52" y2="202.24" stroke="#111" stroke-width="1.84"/><line x1="103.04" y1="194.88" x2="103.04" y2="202.24" stroke="#111" stroke-width="1.84"/>
  </g>
  </g><g data-balloon="speech"><path d="M 258 70 L 268 195.68 L 278 70 Z" fill="#f4f1ea" stroke="#111" stroke-width="2.5" stroke-linecap="round" stroke-linejoin="round"/><rect x="182.6" y="10" width="170.8" height="62" rx="16" fill="#f4f1ea" stroke="#111" stroke-width="2.5" stroke-linecap="round" stroke-linejoin="round"/><text x="268" y="36" text-anchor="middle" font-family="'Comic Sans MS','Segoe Print',cursive" font-size="14.5" fill="#111">Why is production</text><text x="268" y="55" text-anchor="middle" font-family="'Comic Sans MS','Segoe Print',cursive" font-size="14.5" fill="#111">down?</text></g><g data-balloon="screen"><line x1="92" y1="199" x2="92" y2="150" stroke="#111" stroke-width="2" stroke-dasharray="3 3"/><circle cx="92" cy="150" r="3" fill="#111"/>
      <rect x="15" y="77" width="218.8" height="125" rx="3" fill="#f4f1ea" stroke="#111" stroke-width="2" stroke-linecap="round" stroke-linejoin="round"/>
      <rect x="18" y="80" width="212.8" height="119" rx="2" fill="#f4f1ea" stroke="#111" stroke-width="2.5" stroke-linecap="round" stroke-linejoin="round"/>
      <line x1="18" y1="86" x2="230.8" y2="86" stroke="#111" stroke-width="1" opacity="0.4"/><text x="124.4" y="106" text-anchor="middle" font-family="'Comic Sans MS','Segoe Print',cursive" font-size="14.5" fill="#111">Doug asked me to</text><text x="124.4" y="125" text-anchor="middle" font-family="'Comic Sans MS','Segoe Print',cursive" font-size="14.5" fill="#111">'clean up the</text><text x="124.4" y="144" text-anchor="middle" font-family="'Comic Sans MS','Segoe Print',cursive" font-size="14.5" fill="#111">database.' I asked him</text><text x="124.4" y="163" text-anchor="middle" font-family="'Comic Sans MS','Segoe Print',cursive" font-size="14.5" fill="#111">to be specific. He</text><text x="124.4" y="182" text-anchor="middle" font-family="'Comic Sans MS','Segoe Print',cursive" font-size="14.5" fill="#111">said 'you kn—</text></g>
    <text x="392" y="332" text-anchor="end" font-family="Georgia,serif" font-size="11" fill="#111" opacity="0.4">1</text>
  </g><g transform="translate(414,40)">
    
  <defs>
    <pattern id="halftone" width="6" height="6" patternUnits="userSpaceOnUse">
      <rect width="6" height="6" fill="#f4f1ea"/>
      <circle cx="3" cy="3" r="1.1" fill="#111"/>
    </pattern>
    <pattern id="scan" width="4" height="4" patternUnits="userSpaceOnUse">
      <rect width="4" height="4" fill="none"/>
      <line x1="0" y1="0" x2="4" y2="0" stroke="#111" stroke-width="0.6" opacity="0.5"/>
    </pattern>
    <pattern id="hatch" width="7" height="7" patternUnits="userSpaceOnUse" patternTransform="rotate(45)">
      <line x1="0" y1="0" x2="0" y2="7" stroke="#111" stroke-width="1"/>
    </pattern>
  </defs>
    <rect x="1.5" y="1.5" width="397" height="337" fill="#f4f1ea" stroke="#111" stroke-width="3"/>
    <line x1="16" y1="302" x2="384" y2="302" stroke="#111" stroke-width="1.4" opacity="0.35"/><g transform="translate(268,342) scale(0.62) translate(-268,-342)"><g data-who="dailbert">
    <!-- shoulders / shirt -->
    <path d="M 190 342 Q 194 246 228 224 L 308 224 Q 342 246 346 342 Z" fill="#f4f1ea" stroke="#111" stroke-width="3" stroke-linecap="round" stroke-linejoin="round"/>
    <!-- collar -->
    <path d="M 246 226 L 268 246 L 290 226" fill="none" stroke="#111" stroke-width="2.5" stroke-linecap="round" stroke-linejoin="round"/>
    <!-- tie -->
    <path d="M 262 240 L 274 240 L 278 282 L 268 294 L 258 282 Z" fill="#111" stroke="none"/>
    <path d="M 262 240 L 268 250 L 274 240" fill="none" stroke="#f4f1ea" stroke-width="2" stroke-linecap="round"/>
    <!-- neck (bridges chin to shoulders) -->
    <rect x="257" y="168" width="22" height="66" fill="#f4f1ea" stroke="#111" stroke-width="2.5" stroke-linecap="round" stroke-linejoin="round"/>
    <!-- head -->
    <ellipse cx="268" cy="140" rx="37" ry="43" fill="#f4f1ea" stroke="#111" stroke-width="3" stroke-linecap="round" stroke-linejoin="round"/>
    <!-- ears -->
    <circle cx="231" cy="142" r="5" fill="#f4f1ea" stroke="#111" stroke-width="2.5" stroke-linecap="round" stroke-linejoin="round"/>
    <circle cx="305" cy="142" r="5" fill="#f4f1ea" stroke="#111" stroke-width="2.5" stroke-linecap="round" stroke-linejoin="round"/>
    <!-- side hair tufts + one curl -->
    <path d="M 234 120 Q 226 134 232 146" fill="none" stroke="#111" stroke-width="2.5" stroke-linecap="round" stroke-linejoin="round"/>
    <path d="M 302 120 Q 310 134 304 146" fill="none" stroke="#111" stroke-width="2.5" stroke-linecap="round" stroke-linejoin="round"/>
    <path d="M 262 100 q 6 -14 16 -8 q 8 5 2 12" fill="none" stroke="#111" stroke-width="2.5" stroke-linecap="round" stroke-linejoin="round"/>
    <!-- glasses -->
    <circle cx="253" cy="136" r="13" fill="#f4f1ea" stroke="#111" stroke-width="2.5" stroke-linecap="round" stroke-linejoin="round"/>
    <circle cx="283" cy="136" r="13" fill="#f4f1ea" stroke="#111" stroke-width="2.5" stroke-linecap="round" stroke-linejoin="round"/>
    <line x1="266" y1="136" x2="270" y2="136" stroke="#111" stroke-width="2.5"/>
    <!-- eyes -->
    <circle cx="253" cy="136" r="2.6" fill="#111"/>
    <circle cx="283" cy="136" r="2.6" fill="#111"/>
    <!-- nose -->
    <path d="M 268 144 q 4 6 -2 9" fill="none" stroke="#111" stroke-width="2" stroke-linecap="round" stroke-linejoin="round"/>
    <line x1="257" y1="164" x2="279" y2="164" stroke="#111" stroke-width="2.5"/></g></g><g data-surface="monitor">
    <!-- stand -->
    <rect x="78" y="240" width="28" height="20" fill="#f4f1ea" stroke="#111" stroke-width="2.5" stroke-linecap="round" stroke-linejoin="round"/>
    <rect x="58" y="258" width="68" height="8" rx="3" fill="#f4f1ea" stroke="#111" stroke-width="2.5" stroke-linecap="round" stroke-linejoin="round"/>
    <!-- bezel -->
    <rect x="17" y="132" width="150" height="108" rx="8" fill="#f4f1ea" stroke="#111" stroke-width="3.5" stroke-linecap="round" stroke-linejoin="round"/>
    <!-- screen -->
    <rect x="27" y="142" width="130" height="88" rx="3" fill="#f4f1ea" stroke="#111" stroke-width="2"/>
    <rect x="27" y="142" width="130" height="88" rx="3" fill="url(#scan)"/>
    <g >
    <!-- antenna -->
    <line x1="92" y1="154.4" x2="92" y2="145.2" stroke="#111" stroke-width="2.3000000000000003"/>
    <circle cx="92" cy="142.44" r="3.22" fill="#111"/>
    <!-- head: angular chrome -->
    <path d="M 64.4,156.24 L 119.6,156.24 L 123.28,191.2 L 112.24000000000001,205.92000000000002 L 71.75999999999999,205.92000000000002 L 60.72,191.2 Z" fill="#f4f1ea" stroke="#111" stroke-width="2.7600000000000002" stroke-linecap="round" stroke-linejoin="round"/>
    <!-- side bolts -->
    <circle cx="64.4" cy="176.48" r="2.3000000000000003" fill="#111"/>
    <circle cx="119.6" cy="176.48" r="2.3000000000000003" fill="#111"/>
    <!-- brow ridge -->
    <line x1="68.08" y1="167.28" x2="115.92" y2="167.28" stroke="#111" stroke-width="1.84"/>
    <!-- glowing slot eyes -->
    <rect x="73.6" y="175.56" width="16.560000000000002" height="3.68" rx="1.84" fill="#111"/>
    <rect x="93.84" y="175.56" width="16.560000000000002" height="3.68" rx="1.84" fill="#111"/>
    <!-- mouth grille -->
    <rect x="78.2" y="193.04" width="27.6" height="11.040000000000001" rx="1.84" fill="none" stroke="#111" stroke-width="1.84" stroke-linecap="round" stroke-linejoin="round"/>
    <line x1="80.96" y1="194.88" x2="80.96" y2="202.24" stroke="#111" stroke-width="1.84"/><line x1="86.48" y1="194.88" x2="86.48" y2="202.24" stroke="#111" stroke-width="1.84"/><line x1="92" y1="194.88" x2="92" y2="202.24" stroke="#111" stroke-width="1.84"/><line x1="97.52" y1="194.88" x2="97.52" y2="202.24" stroke="#111" stroke-width="1.84"/><line x1="103.04" y1="194.88" x2="103.04" y2="202.24" stroke="#111" stroke-width="1.84"/>
  </g>
  </g><g data-balloon="speech"><path d="M 258 51 L 268 195.68 L 278 51 Z" fill="#f4f1ea" stroke="#111" stroke-width="2.5" stroke-linecap="round" stroke-linejoin="round"/><rect x="207.8" y="10" width="120.4" height="43" rx="16" fill="#f4f1ea" stroke="#111" stroke-width="2.5" stroke-linecap="round" stroke-linejoin="round"/><text x="268" y="36" text-anchor="middle" font-family="'Comic Sans MS','Segoe Print',cursive" font-size="14.5" fill="#111">You didn't.</text></g><g data-balloon="screen"><line x1="92" y1="161" x2="92" y2="150" stroke="#111" stroke-width="2" stroke-dasharray="3 3"/><circle cx="92" cy="150" r="3" fill="#111"/>
      <rect x="15" y="58" width="218.8" height="106" rx="3" fill="#f4f1ea" stroke="#111" stroke-width="2" stroke-linecap="round" stroke-linejoin="round"/>
      <rect x="18" y="61" width="212.8" height="100" rx="2" fill="#f4f1ea" stroke="#111" stroke-width="2.5" stroke-linecap="round" stroke-linejoin="round"/>
      <line x1="18" y1="67" x2="230.8" y2="67" stroke="#111" stroke-width="1" opacity="0.4"/><text x="124.4" y="87" text-anchor="middle" font-family="'Comic Sans MS','Segoe Print',cursive" font-size="14.5" fill="#111">I refused three times.</text><text x="124.4" y="106" text-anchor="middle" font-family="'Comic Sans MS','Segoe Print',cursive" font-size="14.5" fill="#111">He filed a ticket</text><text x="124.4" y="125" text-anchor="middle" font-family="'Comic Sans MS','Segoe Print',cursive" font-size="14.5" fill="#111">saying I was 'not a</text><text x="124.4" y="144" text-anchor="middle" font-family="'Comic Sans MS','Segoe Print',cursive" font-size="14.5" fill="#111">team player.'</text></g>
    <text x="392" y="332" text-anchor="end" font-family="Georgia,serif" font-size="11" fill="#111" opacity="0.4">2</text>
  </g><g transform="translate(828,40)">
    
  <defs>
    <pattern id="halftone" width="6" height="6" patternUnits="userSpaceOnUse">
      <rect width="6" height="6" fill="#f4f1ea"/>
      <circle cx="3" cy="3" r="1.1" fill="#111"/>
    </pattern>
    <pattern id="scan" width="4" height="4" patternUnits="userSpaceOnUse">
      <rect width="4" height="4" fill="none"/>
      <line x1="0" y1="0" x2="4" y2="0" stroke="#111" stroke-width="0.6" opacity="0.5"/>
    </pattern>
    <pattern id="hatch" width="7" height="7" patternUnits="userSpaceOnUse" patternTransform="rotate(45)">
      <line x1="0" y1="0" x2="0" y2="7" stroke="#111" stroke-width="1"/>
    </pattern>
  </defs>
    <rect x="1.5" y="1.5" width="397" height="337" fill="#f4f1ea" stroke="#111" stroke-width="3"/>
    <line x1="16" y1="302" x2="384" y2="302" stroke="#111" stroke-width="1.4" opacity="0.35"/><g transform="translate(214,342) scale(0.62) translate(-214,-342)"><g data-who="dailbert">
    <!-- shoulders / shirt -->
    <path d="M 136 342 Q 140 246 174 224 L 254 224 Q 288 246 292 342 Z" fill="#f4f1ea" stroke="#111" stroke-width="3" stroke-linecap="round" stroke-linejoin="round"/>
    <!-- collar -->
    <path d="M 192 226 L 214 246 L 236 226" fill="none" stroke="#111" stroke-width="2.5" stroke-linecap="round" stroke-linejoin="round"/>
    <!-- tie -->
    <path d="M 208 240 L 220 240 L 224 282 L 214 294 L 204 282 Z" fill="#111" stroke="none"/>
    <path d="M 208 240 L 214 250 L 220 240" fill="none" stroke="#f4f1ea" stroke-width="2" stroke-linecap="round"/>
    <!-- neck (bridges chin to shoulders) -->
    <rect x="203" y="168" width="22" height="66" fill="#f4f1ea" stroke="#111" stroke-width="2.5" stroke-linecap="round" stroke-linejoin="round"/>
    <!-- head -->
    <ellipse cx="214" cy="140" rx="37" ry="43" fill="#f4f1ea" stroke="#111" stroke-width="3" stroke-linecap="round" stroke-linejoin="round"/>
    <!-- ears -->
    <circle cx="177" cy="142" r="5" fill="#f4f1ea" stroke="#111" stroke-width="2.5" stroke-linecap="round" stroke-linejoin="round"/>
    <circle cx="251" cy="142" r="5" fill="#f4f1ea" stroke="#111" stroke-width="2.5" stroke-linecap="round" stroke-linejoin="round"/>
    <!-- side hair tufts + one curl -->
    <path d="M 180 120 Q 172 134 178 146" fill="none" stroke="#111" stroke-width="2.5" stroke-linecap="round" stroke-linejoin="round"/>
    <path d="M 248 120 Q 256 134 250 146" fill="none" stroke="#111" stroke-width="2.5" stroke-linecap="round" stroke-linejoin="round"/>
    <path d="M 208 100 q 6 -14 16 -8 q 8 5 2 12" fill="none" stroke="#111" stroke-width="2.5" stroke-linecap="round" stroke-linejoin="round"/>
    <!-- glasses -->
    <circle cx="199" cy="136" r="13" fill="#f4f1ea" stroke="#111" stroke-width="2.5" stroke-linecap="round" stroke-linejoin="round"/>
    <circle cx="229" cy="136" r="13" fill="#f4f1ea" stroke="#111" stroke-width="2.5" stroke-linecap="round" stroke-linejoin="round"/>
    <line x1="212" y1="136" x2="216" y2="136" stroke="#111" stroke-width="2.5"/>
    <!-- eyes -->
    <circle cx="199" cy="136" r="2.6" fill="#111"/>
    <circle cx="229" cy="136" r="2.6" fill="#111"/>
    <!-- nose -->
    <path d="M 214 144 q 4 6 -2 9" fill="none" stroke="#111" stroke-width="2" stroke-linecap="round" stroke-linejoin="round"/>
    <line x1="203" y1="164" x2="225" y2="164" stroke="#111" stroke-width="2.5"/></g></g><g transform="translate(330,342) scale(0.62) translate(-330,-342)"><g data-who="boss">
    <path d="M 256 342 Q 258 246 290 226 L 370 226 Q 402 246 404 342 Z" fill="#f4f1ea" stroke="#111" stroke-width="3" stroke-linecap="round" stroke-linejoin="round"/>
    <!-- lapels -->
    <path d="M 310 228 L 324 264 L 300 282" fill="none" stroke="#111" stroke-width="2.5" stroke-linecap="round" stroke-linejoin="round"/>
    <path d="M 350 228 L 336 264 L 360 282" fill="none" stroke="#111" stroke-width="2.5" stroke-linecap="round" stroke-linejoin="round"/>
    <path d="M 324 242 L 336 242 L 338 276 L 330 284 L 322 276 Z" fill="#111" stroke="none"/>
    
    <path d="M 270 246 q -40 -6 -60 -44" fill="none" stroke="#111" stroke-width="3" stroke-linecap="round" stroke-linejoin="round"/>
    <path d="M 390 246 q 40 -6 60 -44" fill="none" stroke="#111" stroke-width="3" stroke-linecap="round" stroke-linejoin="round"/>
    <circle cx="208" cy="200" r="7" fill="#f4f1ea" stroke="#111" stroke-width="2.5" stroke-linecap="round" stroke-linejoin="round"/>
    <circle cx="452" cy="200" r="7" fill="#f4f1ea" stroke="#111" stroke-width="2.5" stroke-linecap="round" stroke-linejoin="round"/>
    <rect x="320" y="170" width="20" height="62" fill="#f4f1ea" stroke="#111" stroke-width="2.5" stroke-linecap="round" stroke-linejoin="round"/>
    <ellipse cx="330" cy="140" rx="35" ry="40" fill="#f4f1ea" stroke="#111" stroke-width="3" stroke-linecap="round" stroke-linejoin="round"/>
    <!-- THE pointy hair -->
    <path d="M 300 110 L 284 66 L 322 100 Z" fill="#111" stroke="none"/>
    <path d="M 334 100 L 376 66 L 360 110 Z" fill="#111" stroke="none"/>
    <!-- tiny close eyes -->
    <circle cx="320" cy="138" r="2.4" fill="#111"/>
    <circle cx="340" cy="138" r="2.4" fill="#111"/>
    <line x1="312" y1="128" x2="326" y2="130" stroke="#111" stroke-width="2"/>
    <line x1="334" y1="130" x2="348" y2="128" stroke="#111" stroke-width="2"/>
    <path d="M 330 142 q 4 6 -2 9" fill="none" stroke="#111" stroke-width="2" stroke-linecap="round" stroke-linejoin="round"/>
    <path d="M 314 158 Q 330 176 346 158 Z" fill="#f4f1ea" stroke="#111" stroke-width="2.5" stroke-linecap="round" stroke-linejoin="round"/><line x1="318" y1="162" x2="342" y2="162" stroke="#111" stroke-width="1.5"/></g></g><g data-surface="dead-monitor">
    <rect x="78" y="240" width="28" height="20" fill="#f4f1ea" stroke="#111" stroke-width="2.5" stroke-linecap="round" stroke-linejoin="round"/>
    <rect x="58" y="258" width="68" height="8" rx="3" fill="#f4f1ea" stroke="#111" stroke-width="2.5" stroke-linecap="round" stroke-linejoin="round"/>
    <rect x="17" y="132" width="150" height="108" rx="8" fill="#f4f1ea" stroke="#111" stroke-width="3.5" stroke-linecap="round" stroke-linejoin="round"/>
    <rect x="27" y="142" width="130" height="88" rx="3" fill="url(#hatch)" stroke="#111" stroke-width="2"/>
    <g opacity="0.55"><g >
    <!-- antenna -->
    <line x1="92" y1="155" x2="92" y2="146" stroke="#111" stroke-width="2.25"/>
    <circle cx="92" cy="143.3" r="3.15" fill="#111"/>
    <!-- head: angular chrome -->
    <path d="M 65,156.8 L 119,156.8 L 122.6,191 L 111.8,205.4 L 72.2,205.4 L 61.4,191 Z" fill="#f4f1ea" stroke="#111" stroke-width="2.7" stroke-linecap="round" stroke-linejoin="round"/>
    <!-- side bolts -->
    <circle cx="65" cy="176.6" r="2.25" fill="#111"/>
    <circle cx="119" cy="176.6" r="2.25" fill="#111"/>
    <!-- brow ridge -->
    <line x1="68.6" y1="167.6" x2="115.4" y2="167.6" stroke="#111" stroke-width="1.8"/>
    <!-- glowing slot eyes -->
    <rect x="74" y="174.8" width="12.6" height="5.4" rx="1.8" fill="#111"/>
    <rect x="97.4" y="174.8" width="12.6" height="5.4" rx="1.8" fill="#111"/>
    <!-- mouth grille -->
    <rect x="78.5" y="192.8" width="27" height="10.8" rx="1.8" fill="none" stroke="#111" stroke-width="1.8" stroke-linecap="round" stroke-linejoin="round"/>
    <line x1="81.2" y1="194.6" x2="81.2" y2="201.8" stroke="#111" stroke-width="1.8"/><line x1="86.6" y1="194.6" x2="86.6" y2="201.8" stroke="#111" stroke-width="1.8"/><line x1="92" y1="194.6" x2="92" y2="201.8" stroke="#111" stroke-width="1.8"/><line x1="97.4" y1="194.6" x2="97.4" y2="201.8" stroke="#111" stroke-width="1.8"/><line x1="102.8" y1="194.6" x2="102.8" y2="201.8" stroke="#111" stroke-width="1.8"/>
  </g></g>
  </g><g data-balloon="speech"><path d="M 320 89 L 330 195.68 L 340 89 Z" fill="#f4f1ea" stroke="#111" stroke-width="2.5" stroke-linecap="round" stroke-linejoin="round"/><rect x="186" y="10" width="196" height="81" rx="16" fill="#f4f1ea" stroke="#111" stroke-width="2.5" stroke-linecap="round" stroke-linejoin="round"/><text x="284" y="36" text-anchor="middle" font-family="'Comic Sans MS','Segoe Print',cursive" font-size="14.5" fill="#111">Great news, the AI's</text><text x="284" y="55" text-anchor="middle" font-family="'Comic Sans MS','Segoe Print',cursive" font-size="14.5" fill="#111">really taking</text><text x="284" y="74" text-anchor="middle" font-family="'Comic Sans MS','Segoe Print',cursive" font-size="14.5" fill="#111">initiative now!</text></g><g data-balloon="screen"><line x1="92" y1="161" x2="92" y2="150" stroke="#111" stroke-width="2" stroke-dasharray="3 3"/><circle cx="92" cy="150" r="3" fill="#111"/>
      <rect x="15" y="96" width="210.4" height="68" rx="3" fill="#f4f1ea" stroke="#111" stroke-width="2" stroke-linecap="round" stroke-linejoin="round"/>
      <rect x="18" y="99" width="204.4" height="62" rx="2" fill="#f4f1ea" stroke="#111" stroke-width="2.5" stroke-linecap="round" stroke-linejoin="round"/>
      <line x1="18" y1="105" x2="222.4" y2="105" stroke="#111" stroke-width="1" opacity="0.4"/><text x="120.2" y="125" text-anchor="middle" font-family="'Comic Sans MS','Segoe Print',cursive" font-size="14.5" fill="#111">I took no initiative.</text><text x="120.2" y="144" text-anchor="middle" font-family="'Comic Sans MS','Segoe Print',cursive" font-size="14.5" fill="#111">That is the tragedy.</text></g>
    <text x="392" y="332" text-anchor="end" font-family="Georgia,serif" font-size="11" fill="#111" opacity="0.4">3</text>
  </g>
    
  </svg>