<svg xmlns="http://www.w3.org/2000/svg" viewBox="0 0 1228 340" width="1228" height="340" stroke-linecap="round" stroke-linejoin="round">
  <defs>
    <!-- ===== DAILBERT ===== -->
    <symbol id="dailbert" viewBox="0 0 120 160">
      <path d="M20 160 Q20 118 40 108 L80 108 Q100 118 100 160 Z" fill="#f4f1ea" stroke="#111" stroke-width="3"/>
      <path d="M60 108 l-7 10 l7 26 l7 -26 z" fill="#111"/>
      <path d="M50 108 l10 12 l10 -12" fill="none" stroke="#111" stroke-width="3"/>
      <rect x="52" y="97" width="16" height="17" fill="#f4f1ea" stroke="#111" stroke-width="3"/>
      <ellipse cx="60" cy="58" rx="30" ry="36" fill="#f4f1ea" stroke="#111" stroke-width="3"/>
      <circle cx="31" cy="60" r="5" fill="#f4f1ea" stroke="#111" stroke-width="3"/>
      <circle cx="89" cy="60" r="5" fill="#f4f1ea" stroke="#111" stroke-width="3"/>
      <path d="M60 22 q6 -11 14 -4 q-4 2 -6 8" fill="none" stroke="#111" stroke-width="3"/>
      <line x1="40" y1="45" x2="52" y2="48" stroke="#111" stroke-width="2"/>
      <line x1="80" y1="45" x2="68" y2="48" stroke="#111" stroke-width="2"/>
      <circle cx="48" cy="56" r="9" fill="#fff" stroke="#111" stroke-width="3"/>
      <circle cx="72" cy="56" r="9" fill="#fff" stroke="#111" stroke-width="3"/>
      <line x1="57" y1="56" x2="63" y2="56" stroke="#111" stroke-width="3"/>
      <circle cx="48" cy="56" r="2.5" fill="#111"/>
      <circle cx="72" cy="56" r="2.5" fill="#111"/>
      <path d="M60 62 l-3 8 l4 0" fill="none" stroke="#111" stroke-width="2.5"/>
      <line x1="50" y1="80" x2="70" y2="80" stroke="#111" stroke-width="2.5"/>
    </symbol>

    <!-- ===== DOUG ===== -->
    <symbol id="doug" viewBox="0 0 120 170">
      <path d="M18 170 Q18 120 40 110 L80 110 Q102 120 102 170 Z" fill="#f4f1ea" stroke="#111" stroke-width="3"/>
      <path d="M50 110 l10 10 l10 -10" fill="none" stroke="#111" stroke-width="3"/>
      <rect x="52" y="99" width="16" height="16" fill="#f4f1ea" stroke="#111" stroke-width="3"/>
      <circle cx="60" cy="55" r="35" fill="#f4f1ea" stroke="#111" stroke-width="3"/>
      <circle cx="26" cy="56" r="5" fill="#f4f1ea" stroke="#111" stroke-width="3"/>
      <circle cx="94" cy="56" r="5" fill="#f4f1ea" stroke="#111" stroke-width="3"/>
      <path d="M45 22 q5 -8 10 0 M60 18 q5 -8 10 0 M74 22 q5 -8 10 0" fill="none" stroke="#111" stroke-width="2.5"/>
      <circle cx="48" cy="52" r="3.2" fill="#111"/>
      <circle cx="72" cy="52" r="3.2" fill="#111"/>
      <path d="M42 66 Q60 88 78 66" fill="none" stroke="#111" stroke-width="3"/>
      <circle cx="60" cy="62" r="2.5" fill="#111"/>
    </symbol>

    <!-- ===== PRIYA ===== -->
    <symbol id="priya" viewBox="0 0 120 170">
      <path d="M16 170 Q16 120 40 110 L80 110 Q104 120 104 170 Z" fill="#f4f1ea" stroke="#111" stroke-width="3"/>
      <path d="M40 130 q-4 8 -2 16 M80 130 q4 8 2 16" fill="none" stroke="#111" stroke-width="2.5"/>
      <path d="M50 110 l10 10 l10 -10" fill="none" stroke="#111" stroke-width="3"/>
      <rect x="52" y="99" width="16" height="16" fill="#f4f1ea" stroke="#111" stroke-width="3"/>
      <ellipse cx="60" cy="56" rx="29" ry="34" fill="#f4f1ea" stroke="#111" stroke-width="3"/>
      <circle cx="32" cy="58" r="4.5" fill="#f4f1ea" stroke="#111" stroke-width="3"/>
      <circle cx="88" cy="58" r="4.5" fill="#f4f1ea" stroke="#111" stroke-width="3"/>
      <path d="M31 56 Q26 20 60 18 Q94 20 89 56 Q90 38 76 28 Q68 22 60 23 Q52 22 44 28 Q30 38 31 56 Z" fill="#111"/>
      <circle cx="60" cy="14" r="9" fill="#111"/>
      <circle cx="33" cy="42" r="6" fill="#111"/>
      <circle cx="87" cy="42" r="6" fill="#111"/>
      <rect x="39" y="50" width="18" height="12" rx="2" fill="#fff" stroke="#111" stroke-width="3"/>
      <rect x="63" y="50" width="18" height="12" rx="2" fill="#fff" stroke="#111" stroke-width="3"/>
      <line x1="57" y1="56" x2="63" y2="56" stroke="#111" stroke-width="3"/>
      <circle cx="48" cy="56" r="2.4" fill="#111"/>
      <circle cx="72" cy="56" r="2.4" fill="#111"/>
      <path d="M60 60 l-3 7 l4 0" fill="none" stroke="#111" stroke-width="2.5"/>
      <path d="M52 76 Q60 80 68 76" fill="none" stroke="#111" stroke-width="2.5"/>
    </symbol>

    <!-- ===== CLANKER (head only, lives inside a screen) ===== -->
    <symbol id="clanker" viewBox="0 0 120 110">
      <line x1="60" y1="20" x2="60" y2="6" stroke="#111" stroke-width="3"/>
      <circle cx="60" cy="5" r="4" fill="#111"/>
      <rect x="26" y="20" width="68" height="60" rx="8" fill="#dfe3e6" stroke="#111" stroke-width="3"/>
      <circle cx="30" cy="50" r="3" fill="#111"/>
      <circle cx="90" cy="50" r="3" fill="#111"/>
      <rect x="36" y="36" width="20" height="9" rx="4" fill="#111"/>
      <rect x="64" y="36" width="20" height="9" rx="4" fill="#111"/>
      <rect x="39" y="38.5" width="14" height="2.5" rx="1.2" fill="#f4f1ea"/>
      <rect x="67" y="38.5" width="14" height="2.5" rx="1.2" fill="#f4f1ea"/>
      <rect x="40" y="58" width="40" height="14" rx="3" fill="#f4f1ea" stroke="#111" stroke-width="2.5"/>
      <line x1="47" y1="58" x2="47" y2="72" stroke="#111" stroke-width="2"/>
      <line x1="54" y1="58" x2="54" y2="72" stroke="#111" stroke-width="2"/>
      <line x1="61" y1="58" x2="61" y2="72" stroke="#111" stroke-width="2"/>
      <line x1="68" y1="58" x2="68" y2="72" stroke="#111" stroke-width="2"/>
      <line x1="73" y1="58" x2="73" y2="72" stroke="#111" stroke-width="2"/>
    </symbol>

    <!-- ===== MUG ===== -->
    <symbol id="mug" viewBox="0 0 60 60">
      <rect x="10" y="16" width="32" height="32" rx="4" fill="#f4f1ea" stroke="#111" stroke-width="3"/>
      <path d="M42 22 q11 0 11 11 q0 11 -11 11" fill="none" stroke="#111" stroke-width="3"/>
      <path d="M18 12 q3 -6 0 -11 M28 12 q3 -6 0 -11" fill="none" stroke="#9a9a9a" stroke-width="2"/>
    </symbol>
  </defs>

  <!-- ============ PANEL 1 ============ -->
  <rect x="2" y="2" width="396" height="336" rx="3" fill="#f4f1ea" stroke="#111" stroke-width="3"/>
  <use href="#doug" x="24" y="150" width="128" height="182"/>
  <use href="#mug" x="112" y="256" width="46" height="46"/>
  <use href="#dailbert" x="232" y="150" width="136" height="182"/>
  <rect x="8" y="310" width="384" height="28" fill="#e7e2d6" stroke="#111" stroke-width="2"/>
  <!-- Doug balloon -->
  <path d="M100 96 L78 96 L86 150 Z" fill="#f4f1ea" stroke="#111" stroke-width="2.5"/>
  <rect x="28" y="16" width="196" height="82" rx="16" fill="#f4f1ea" stroke="#111" stroke-width="2.5"/>
  <text x="126" y="42" font-family="'Comic Sans MS','Segoe Print',cursive" font-size="14" text-anchor="middle" fill="#111">The clanker's been</text>
  <text x="126" y="62" font-family="'Comic Sans MS','Segoe Print',cursive" font-size="14" text-anchor="middle" fill="#111">answering my email.</text>
  <text x="126" y="84" font-family="'Comic Sans MS','Segoe Print',cursive" font-size="14" text-anchor="middle" fill="#111">Sounds just like me!</text>
  <!-- Dailbert balloon -->
  <path d="M300 88 L318 88 L306 150 Z" fill="#f4f1ea" stroke="#111" stroke-width="2.5"/>
  <rect x="246" y="34" width="126" height="56" rx="16" fill="#f4f1ea" stroke="#111" stroke-width="2.5"/>
  <text x="309" y="58" font-family="'Comic Sans MS','Segoe Print',cursive" font-size="14" text-anchor="middle" fill="#111">That's the</text>
  <text x="309" y="78" font-family="'Comic Sans MS','Segoe Print',cursive" font-size="14" text-anchor="middle" fill="#111">problem.</text>

  <!-- ============ PANEL 2 ============ -->
  <rect x="416" y="2" width="396" height="336" rx="3" fill="#f4f1ea" stroke="#111" stroke-width="3"/>
  <!-- monitor -->
  <rect x="430" y="150" width="185" height="150" rx="10" fill="#cfd4d8" stroke="#111" stroke-width="3"/>
  <rect x="440" y="160" width="165" height="130" rx="4" fill="#eef2f4" stroke="#111" stroke-width="2"/>
  <use href="#clanker" x="444" y="168" width="80" height="73"/>
  <!-- repeated identical replies -->
  <g>
    <rect x="528" y="176" width="70" height="13" rx="2" fill="#f7f5f0" stroke="#9a9a9a" stroke-width="1.3"/>
    <line x1="533" y1="183" x2="580" y2="183" stroke="#9a9a9a" stroke-width="1.6"/>
    <path d="M585 183 l3 3 l5 -6" fill="none" stroke="#111" stroke-width="1.6"/>
    <rect x="528" y="194" width="70" height="13" rx="2" fill="#f7f5f0" stroke="#9a9a9a" stroke-width="1.3"/>
    <line x1="533" y1="201" x2="580" y2="201" stroke="#9a9a9a" stroke-width="1.6"/>
    <path d="M585 201 l3 3 l5 -6" fill="none" stroke="#111" stroke-width="1.6"/>
    <rect x="528" y="212" width="70" height="13" rx="2" fill="#f7f5f0" stroke="#9a9a9a" stroke-width="1.3"/>
    <line x1="533" y1="219" x2="580" y2="219" stroke="#9a9a9a" stroke-width="1.6"/>
    <path d="M585 219 l3 3 l5 -6" fill="none" stroke="#111" stroke-width="1.6"/>
    <rect x="528" y="230" width="70" height="13" rx="2" fill="#f7f5f0" stroke="#9a9a9a" stroke-width="1.3"/>
    <line x1="533" y1="237" x2="580" y2="237" stroke="#9a9a9a" stroke-width="1.6"/>
    <path d="M585 237 l3 3 l5 -6" fill="none" stroke="#111" stroke-width="1.6"/>
    <rect x="528" y="248" width="70" height="13" rx="2" fill="#f7f5f0" stroke="#9a9a9a" stroke-width="1.3"/>
    <line x1="533" y1="255" x2="580" y2="255" stroke="#9a9a9a" stroke-width="1.6"/>
    <path d="M585 255 l3 3 l5 -6" fill="none" stroke="#111" stroke-width="1.6"/>
  </g>
  <!-- stand -->
  <rect x="512" y="300" width="22" height="10" fill="#cfd4d8" stroke="#111" stroke-width="2"/>
  <!-- Doug -->
  <use href="#doug" x="650" y="178" width="108" height="153"/>
  <use href="#mug" x="732" y="252" width="44" height="44"/>
  <rect x="422" y="310" width="384" height="28" fill="#e7e2d6" stroke="#111" stroke-width="2"/>
  <!-- clanker screen-balloon + dashed tether to monitor -->
  <line x1="520" y1="106" x2="520" y2="150" stroke="#111" stroke-width="1.6" stroke-dasharray="4 4"/>
  <rect x="426" y="16" width="214" height="90" rx="5" fill="#f4f1ea" stroke="#111" stroke-width="2.5"/>
  <rect x="431" y="21" width="204" height="80" rx="3" fill="none" stroke="#111" stroke-width="1.2"/>
  <text x="533" y="44" font-family="'Comic Sans MS','Segoe Print',cursive" font-size="14" text-anchor="middle" fill="#111">Doug's replies are all</text>
  <text x="533" y="64" font-family="'Comic Sans MS','Segoe Print',cursive" font-size="14" text-anchor="middle" fill="#111">one line. I've sent it</text>
  <text x="533" y="84" font-family="'Comic Sans MS','Segoe Print',cursive" font-size="14" text-anchor="middle" fill="#111">forty times today.</text>
  <!-- Doug balloon -->
  <path d="M690 100 L712 100 L702 174 Z" fill="#f4f1ea" stroke="#111" stroke-width="2.5"/>
  <rect x="636" y="42" width="156" height="60" rx="16" fill="#f4f1ea" stroke="#111" stroke-width="2.5"/>
  <text x="714" y="66" font-family="'Comic Sans MS','Segoe Print',cursive" font-size="14" text-anchor="middle" fill="#111">That's the me</text>
  <text x="714" y="86" font-family="'Comic Sans MS','Segoe Print',cursive" font-size="14" text-anchor="middle" fill="#111">they know.</text>

  <!-- ============ PANEL 3 ============ -->
  <rect x="830" y="2" width="396" height="336" rx="3" fill="#f4f1ea" stroke="#111" stroke-width="3"/>
  <use href="#priya" x="852" y="152" width="128" height="181"/>
  <use href="#doug" x="1058" y="178" width="108" height="153"/>
  <use href="#mug" x="1094" y="234" width="44" height="44"/>
  <!-- keyboard -->
  <rect x="884" y="296" width="104" height="12" rx="2" fill="#cfd4d8" stroke="#111" stroke-width="2"/>
  <line x1="898" y1="296" x2="898" y2="308" stroke="#9a9a9a" stroke-width="1.2"/>
  <line x1="916" y1="296" x2="916" y2="308" stroke="#9a9a9a" stroke-width="1.2"/>
  <line x1="934" y1="296" x2="934" y2="308" stroke="#9a9a9a" stroke-width="1.2"/>
  <line x1="952" y1="296" x2="952" y2="308" stroke="#9a9a9a" stroke-width="1.2"/>
  <line x1="970" y1="296" x2="970" y2="308" stroke="#9a9a9a" stroke-width="1.2"/>
  <rect x="836" y="310" width="384" height="28" fill="#e7e2d6" stroke="#111" stroke-width="2"/>
  <!-- Priya balloon -->
  <path d="M905 78 L927 78 L916 150 Z" fill="#f4f1ea" stroke="#111" stroke-width="2.5"/>
  <rect x="840" y="18" width="206" height="62" rx="16" fill="#f4f1ea" stroke="#111" stroke-width="2.5"/>
  <text x="943" y="44" font-family="'Comic Sans MS','Segoe Print',cursive" font-size="14" text-anchor="middle" fill="#111">I set yours to wait</text>
  <text x="943" y="64" font-family="'Comic Sans MS','Segoe Print',cursive" font-size="14" text-anchor="middle" fill="#111">till you've read them.</text>
  <!-- Doug quiet balloon -->
  <path d="M1102 96 L1124 96 L1114 174 Z" fill="#f4f1ea" stroke="#111" stroke-width="2.5"/>
  <rect x="1046" y="40" width="150" height="58" rx="16" fill="#f4f1ea" stroke="#111" stroke-width="2.5"/>
  <text x="1121" y="64" font-family="'Comic Sans MS','Segoe Print',cursive" font-size="14" text-anchor="middle" fill="#111">Huh. People</text>
  <text x="1121" y="84" font-family="'Comic Sans MS','Segoe Print',cursive" font-size="14" text-anchor="middle" fill="#111">wrote back.</text>
</svg>