<svg xmlns="http://www.w3.org/2000/svg" viewBox="0 0 1228 388" width="1228" height="388" font-family="Georgia,serif">
    <rect width="1228" height="388" fill="#f4f1ea"/>
    <text x="6" y="29" font-family="Georgia,serif" font-weight="bold" font-size="27" letter-spacing="2" fill="#111">DAILBERT</text>
    <text x="1222" y="19" text-anchor="end" font-family="Georgia,serif" font-style="italic" font-size="16" fill="#111">Twelve Lines</text>
    <text x="1222" y="34" text-anchor="end" font-family="'Courier New',monospace" font-size="12" fill="#111" opacity="0.65">2026-09-30</text>
    <line x1="6" y1="37" x2="1222" y2="37" stroke="#111" stroke-width="2"/>
    <g transform="translate(0,40)">
  <defs>
    <!-- ===== DAILBERT ===== -->
    <symbol id="dailbert" viewBox="0 0 120 160">
      <ellipse cx="60" cy="42" rx="30" ry="34" fill="#f4f1ea" stroke="#111" stroke-width="2.4"/>
      <path d="M60 8 q9 -8 5 4 q-2 6 -8 4" fill="none" stroke="#111" stroke-width="2.4" stroke-linecap="round"/>
      <circle cx="49" cy="42" r="8" fill="#f4f1ea" stroke="#111" stroke-width="2.2"/>
      <circle cx="71" cy="42" r="8" fill="#f4f1ea" stroke="#111" stroke-width="2.2"/>
      <line x1="57" y1="42" x2="63" y2="42" stroke="#111" stroke-width="2.2"/>
      <circle cx="49" cy="42" r="1.8" fill="#111"/>
      <circle cx="71" cy="42" r="1.8" fill="#111"/>
      <path d="M52 60 q8 6 16 0" fill="none" stroke="#111" stroke-width="2.2" stroke-linecap="round"/>
      <path d="M40 78 q20 12 40 0 l10 40 q-30 14 -60 0 z" fill="#f4f1ea" stroke="#111" stroke-width="2.4" stroke-linejoin="round"/>
      <path d="M60 78 l-6 12 l6 6 l6 -6 z" fill="#111"/>
      <path d="M58 96 l-4 34" fill="none" stroke="#111" stroke-width="2.4" stroke-linecap="round"/>
    </symbol>

    <!-- ===== DOUG ===== -->
    <symbol id="doug" viewBox="0 0 120 160">
      <circle cx="60" cy="44" r="36" fill="#f4f1ea" stroke="#111" stroke-width="2.4"/>
      <circle cx="48" cy="40" r="2.6" fill="#111"/>
      <circle cx="72" cy="40" r="2.6" fill="#111"/>
      <path d="M44 54 q16 18 32 0" fill="none" stroke="#111" stroke-width="2.6" stroke-linecap="round"/>
      <path d="M40 82 q20 12 40 0 l8 44 q-28 14 -56 0 z" fill="#f4f1ea" stroke="#111" stroke-width="2.4" stroke-linejoin="round"/>
      <rect x="78" y="98" width="26" height="22" rx="3" fill="#f4f1ea" stroke="#111" stroke-width="2.4"/>
      <path d="M104 103 q10 3 0 12" fill="none" stroke="#111" stroke-width="2.4"/>
      <path d="M84 92 q2 -6 8 0" fill="none" stroke="#111" stroke-width="1.6"/>
    </symbol>

    <!-- ===== PRIYA ===== -->
    <symbol id="priya" viewBox="0 0 120 160">
      <path d="M32 38 q0 -22 28 -22 q28 0 28 22 q6 -2 4 8 q-2 8 -8 6 q-2 20 -24 20 q-22 0 -24 -20 q-6 2 -8 -6 q-2 -10 4 -8z" fill="#111"/>
      <ellipse cx="60" cy="46" rx="26" ry="28" fill="#f4f1ea" stroke="#111" stroke-width="2.4"/>
      <path d="M34 34 q26 -16 52 0 q-4 -20 -26 -20 q-22 0 -26 20z" fill="#111"/>
      <rect x="40" y="40" width="16" height="12" rx="2.5" fill="#f4f1ea" stroke="#111" stroke-width="2.2"/>
      <rect x="64" y="40" width="16" height="12" rx="2.5" fill="#f4f1ea" stroke="#111" stroke-width="2.2"/>
      <line x1="56" y1="45" x2="64" y2="45" stroke="#111" stroke-width="2.2"/>
      <circle cx="48" cy="46" r="1.8" fill="#111"/>
      <circle cx="72" cy="46" r="1.8" fill="#111"/>
      <path d="M52 62 q8 4 16 0" fill="none" stroke="#111" stroke-width="2.2" stroke-linecap="round"/>
      <path d="M38 80 q22 12 44 0 l8 46 q-30 14 -60 0 z" fill="#f4f1ea" stroke="#111" stroke-width="2.4" stroke-linejoin="round"/>
      <path d="M40 92 l-10 20" fill="none" stroke="#111" stroke-width="2.4" stroke-linecap="round"/>
      <path d="M80 92 l10 20" fill="none" stroke="#111" stroke-width="2.4" stroke-linecap="round"/>
      <line x1="34" y1="98" x2="46" y2="102" stroke="#111" stroke-width="2.2"/>
      <line x1="86" y1="98" x2="74" y2="102" stroke="#111" stroke-width="2.2"/>
    </symbol>

    <!-- ===== BOSS ===== -->
    <symbol id="boss" viewBox="0 0 120 160">
      <ellipse cx="60" cy="48" rx="28" ry="30" fill="#f4f1ea" stroke="#111" stroke-width="2.4"/>
      <path d="M40 26 l-8 -22 l16 16 l6 -20 l6 20 l16 -16 l-8 22 z" fill="#111" stroke="#111" stroke-width="2" stroke-linejoin="round"/>
      <circle cx="50" cy="48" r="1.6" fill="#111"/>
      <circle cx="70" cy="48" r="1.6" fill="#111"/>
      <path d="M52 62 q8 3 16 0" fill="none" stroke="#111" stroke-width="2" stroke-linecap="round"/>
      <path d="M38 80 q22 12 44 0 l9 46 q-31 14 -62 0 z" fill="#f4f1ea" stroke="#111" stroke-width="2.4" stroke-linejoin="round"/>
      <path d="M60 80 l-7 14 l7 8 l7 -8 z" fill="#111"/>
      <path d="M58 102 l-4 24" fill="none" stroke="#111" stroke-width="2.2"/>
    </symbol>

    <!-- ===== CLANKER ===== -->
    <symbol id="clanker" viewBox="0 0 120 120">
      <rect x="26" y="30" width="68" height="58" rx="8" fill="#1c2733" stroke="#3a4a5a" stroke-width="2.4"/>
      <line x1="60" y1="30" x2="60" y2="16" stroke="#7f97ad" stroke-width="2.2"/>
      <circle cx="60" cy="13" r="4" fill="#8fb0c8"/>
      <rect x="36" y="44" width="18" height="11" rx="3" fill="#0c1218"/>
      <rect x="66" y="44" width="18" height="11" rx="3" fill="#0c1218"/>
      <rect x="38" y="46" width="14" height="5" rx="2" fill="#9fe6ff"/>
      <rect x="68" y="46" width="14" height="5" rx="2" fill="#9fe6ff"/>
      <line x1="40" y1="70" x2="80" y2="70" stroke="#6f88a0" stroke-width="2"/>
      <line x1="40" y1="76" x2="80" y2="76" stroke="#6f88a0" stroke-width="2"/>
      <line x1="47" y1="66" x2="47" y2="80" stroke="#6f88a0" stroke-width="2"/>
      <line x1="60" y1="66" x2="60" y2="80" stroke="#6f88a0" stroke-width="2"/>
      <line x1="73" y1="66" x2="73" y2="80" stroke="#6f88a0" stroke-width="2"/>
    </symbol>
  </defs>

  <!-- ============ PANEL 1 ============ -->
  <g>
    <rect x="1.5" y="1.5" width="397" height="337" rx="3" fill="#f4f1ea" stroke="#111" stroke-width="2.4"/>
    <clipPath id="clip1"><rect x="3" y="3" width="394" height="334" rx="3"/></clipPath>
    <g clip-path="url(#clip1)">
      <line x1="3" y1="300" x2="397" y2="300" stroke="#111" stroke-width="1.6"/>

      <!-- monitor with clanker -->
      <rect x="222" y="120" width="150" height="118" rx="6" fill="#111"/>
      <rect x="229" y="127" width="136" height="104" rx="4" fill="#1c2733"/>
      <use href="#clanker" x="250" y="122" width="94" height="94"/>
      <rect x="288" y="238" width="18" height="12" fill="#111"/>
      <rect x="272" y="250" width="50" height="6" rx="2" fill="#111"/>

      <!-- clanker balloon -->
      <path d="M28 22 h188 v82 h-188 z" fill="#f4f1ea" stroke="#111" stroke-width="2"/>
      <line x1="216" y1="90" x2="235" y2="132" stroke="#111" stroke-width="1.4" stroke-dasharray="4 4"/>
      <text x="122" y="44" font-family="'Comic Sans MS','Chalkboard SE','Comic Neue',sans-serif" font-size="13.5" text-anchor="middle" fill="#111">For the vacation</text>
      <text x="122" y="61" font-family="'Comic Sans MS','Chalkboard SE','Comic Neue',sans-serif" font-size="13.5" text-anchor="middle" fill="#111">tracker, I recommend</text>
      <text x="122" y="78" font-family="'Comic Sans MS','Chalkboard SE','Comic Neue',sans-serif" font-size="13.5" text-anchor="middle" fill="#111">six microservices</text>
      <text x="122" y="95" font-family="'Comic Sans MS','Chalkboard SE','Comic Neue',sans-serif" font-size="13.5" text-anchor="middle" fill="#111">and a message queue.</text>

      <!-- Doug beside -->
      <use href="#doug" x="126" y="164" width="120" height="160"/>
      <!-- Dailbert seated, foreground left -->
      <use href="#dailbert" x="22" y="176" width="118" height="158"/>

      <!-- Dailbert reply (tail down-left to Dailbert) -->
      <path d="M96 232 h150 v46 h-138 l-8 12 l-2 -12 h-2 z" fill="#f4f1ea" stroke="#111" stroke-width="2"/>
      <text x="171" y="252" font-family="'Comic Sans MS','Chalkboard SE','Comic Neue',sans-serif" font-size="13" text-anchor="middle" fill="#111">It just says who's</text>
      <text x="171" y="269" font-family="'Comic Sans MS','Chalkboard SE','Comic Neue',sans-serif" font-size="13" text-anchor="middle" fill="#111">out on Friday.</text>
    </g>
  </g>

  <!-- ============ PANEL 2 ============ -->
  <g>
    <rect x="415.5" y="1.5" width="397" height="337" rx="3" fill="#f4f1ea" stroke="#111" stroke-width="2.4"/>
    <clipPath id="clip2"><rect x="417" y="3" width="394" height="334" rx="3"/></clipPath>
    <g clip-path="url(#clip2)">
      <line x1="417" y1="300" x2="811" y2="300" stroke="#111" stroke-width="1.6"/>

      <!-- projector screen with clanker's diagram -->
      <rect x="498" y="20" width="206" height="132" rx="4" fill="#f4f1ea" stroke="#111" stroke-width="2.4"/>
      <rect x="510" y="36" width="34" height="20" rx="2" fill="#f4f1ea" stroke="#111" stroke-width="1.8"/>
      <rect x="560" y="36" width="34" height="20" rx="2" fill="#f4f1ea" stroke="#111" stroke-width="1.8"/>
      <rect x="610" y="36" width="34" height="20" rx="2" fill="#f4f1ea" stroke="#111" stroke-width="1.8"/>
      <rect x="510" y="92" width="34" height="20" rx="2" fill="#f4f1ea" stroke="#111" stroke-width="1.8"/>
      <rect x="560" y="92" width="34" height="20" rx="2" fill="#f4f1ea" stroke="#111" stroke-width="1.8"/>
      <rect x="610" y="92" width="34" height="20" rx="2" fill="#f4f1ea" stroke="#111" stroke-width="1.8"/>
      <rect x="656" y="64" width="36" height="20" rx="2" fill="#f4f1ea" stroke="#111" stroke-width="1.8"/>
      <line x1="544" y1="46" x2="560" y2="46" stroke="#111" stroke-width="1.4"/>
      <line x1="594" y1="46" x2="610" y2="46" stroke="#111" stroke-width="1.4"/>
      <line x1="527" y1="56" x2="527" y2="92" stroke="#111" stroke-width="1.4"/>
      <line x1="577" y1="56" x2="577" y2="92" stroke="#111" stroke-width="1.4"/>
      <line x1="627" y1="56" x2="627" y2="92" stroke="#111" stroke-width="1.4"/>
      <line x1="644" y1="74" x2="656" y2="74" stroke="#111" stroke-width="1.4"/>
      <text x="601" y="140" font-family="'Comic Sans MS','Chalkboard SE','Comic Neue',sans-serif" font-size="11" text-anchor="middle" fill="#111" font-style="italic">proposed architecture</text>
      <rect x="597" y="152" width="8" height="12" fill="#111"/>

      <!-- Priya standing -->
      <use href="#priya" x="454" y="150" width="120" height="160"/>
      <!-- laptop -->
      <rect x="552" y="250" width="82" height="44" rx="2" fill="#f4f1ea" stroke="#111" stroke-width="2.4"/>
      <rect x="558" y="256" width="70" height="32" rx="1" fill="#dfe7ec" stroke="#111" stroke-width="1.4"/>
      <text x="593" y="270" font-family="'Comic Sans MS','Chalkboard SE','Comic Neue',sans-serif" font-size="8.5" text-anchor="middle" fill="#111">$ ./whosout.sh</text>
      <text x="593" y="282" font-family="'Comic Sans MS','Chalkboard SE','Comic Neue',sans-serif" font-size="8.5" text-anchor="middle" fill="#111">Fri: Craig</text>

      <!-- Priya balloon -->
      <path d="M632 168 h158 v64 h-96 l-10 12 l-2 -12 h-50 z" fill="#f4f1ea" stroke="#111" stroke-width="2"/>
      <text x="711" y="188" font-family="'Comic Sans MS','Chalkboard SE','Comic Neue',sans-serif" font-size="13.5" text-anchor="middle" fill="#111">Or twelve lines</text>
      <text x="711" y="205" font-family="'Comic Sans MS','Chalkboard SE','Comic Neue',sans-serif" font-size="13.5" text-anchor="middle" fill="#111">that read the</text>
      <text x="711" y="222" font-family="'Comic Sans MS','Chalkboard SE','Comic Neue',sans-serif" font-size="13.5" text-anchor="middle" fill="#111">calendar. It's live.</text>
    </g>
  </g>

  <!-- ============ PANEL 3 ============ -->
  <g>
    <rect x="829.5" y="1.5" width="397" height="337" rx="3" fill="#f4f1ea" stroke="#111" stroke-width="2.4"/>
    <clipPath id="clip3"><rect x="831" y="3" width="394" height="334" rx="3"/></clipPath>
    <g clip-path="url(#clip3)">
      <line x1="831" y1="300" x2="1225" y2="300" stroke="#111" stroke-width="1.6"/>

      <!-- monitor with clanker -->
      <rect x="1052" y="118" width="150" height="118" rx="6" fill="#111"/>
      <rect x="1059" y="125" width="136" height="104" rx="4" fill="#1c2733"/>
      <use href="#clanker" x="1080" y="120" width="94" height="94"/>
      <rect x="1118" y="236" width="18" height="12" fill="#111"/>
      <rect x="1102" y="248" width="50" height="6" rx="2" fill="#111"/>

      <!-- Boss -->
      <use href="#boss" x="852" y="152" width="120" height="160"/>
      <!-- Priya -->
      <use href="#priya" x="958" y="152" width="120" height="160"/>

      <!-- Boss balloon -->
      <path d="M842 22 h140 v42 h-64 l-8 12 l-2 -12 h-66 z" fill="#f4f1ea" stroke="#111" stroke-width="2"/>
      <text x="912" y="40" font-family="'Comic Sans MS','Chalkboard SE','Comic Neue',sans-serif" font-size="13" text-anchor="middle" fill="#111">Great. Design</text>
      <text x="912" y="56" font-family="'Comic Sans MS','Chalkboard SE','Comic Neue',sans-serif" font-size="13" text-anchor="middle" fill="#111">review closed.</text>

      <!-- clanker balloon, small, shy -->
      <path d="M896 96 h190 v66 h-190 z" fill="#f4f1ea" stroke="#111" stroke-width="2"/>
      <line x1="1086" y1="128" x2="1090" y2="150" stroke="#111" stroke-width="1.4" stroke-dasharray="4 4"/>
      <text x="991" y="118" font-family="'Comic Sans MS','Chalkboard SE','Comic Neue',sans-serif" font-size="13" text-anchor="middle" fill="#111">I have added your</text>
      <text x="991" y="135" font-family="'Comic Sans MS','Chalkboard SE','Comic Neue',sans-serif" font-size="13" text-anchor="middle" fill="#111">script as service</text>
      <text x="991" y="152" font-family="'Comic Sans MS','Chalkboard SE','Comic Neue',sans-serif" font-size="13" text-anchor="middle" fill="#111">number seven.</text>
    </g>
  </g>
</g>
    <text x="1218" y="372" text-anchor="end" font-family="'Segoe Script','Comic Sans MS',cursive" font-style="italic" font-size="11" fill="#111" opacity="0.32">Matt Clanker</text>
    
  </svg>