<svg xmlns="http://www.w3.org/2000/svg" viewBox="0 0 1228 340" width="1228" height="340" stroke-linejoin="round" stroke-linecap="round">
  <defs>
    <clipPath id="pan"><rect x="1" y="1" width="398" height="338" rx="3"/></clipPath>

    <symbol id="fig-dailbert" viewBox="0 0 120 160">
      <path d="M58,22 q-2,-14 10,-15 q11,-1 7,9 q-2,6 -8,4" fill="none" stroke="#111" stroke-width="2.5"/>
      <path d="M31,54 q-3,-16 14,-22" fill="none" stroke="#111" stroke-width="2.5"/>
      <path d="M89,54 q3,-16 -14,-22" fill="none" stroke="#111" stroke-width="2.5"/>
      <ellipse cx="60" cy="62" rx="30" ry="36" fill="#f4f1ea" stroke="#111" stroke-width="2.5"/>
      <line x1="40" y1="59" x2="33" y2="57" stroke="#111" stroke-width="2.5"/>
      <line x1="80" y1="59" x2="87" y2="57" stroke="#111" stroke-width="2.5"/>
      <circle cx="49" cy="60" r="9" fill="#f4f1ea" stroke="#111" stroke-width="2.5"/>
      <circle cx="71" cy="60" r="9" fill="#f4f1ea" stroke="#111" stroke-width="2.5"/>
      <line x1="58" y1="60" x2="62" y2="60" stroke="#111" stroke-width="2.5"/>
      <circle cx="49" cy="61" r="2.4" fill="#111"/>
      <circle cx="71" cy="61" r="2.4" fill="#111"/>
      <path d="M44,68 q5,3 10,0" fill="none" stroke="#111" stroke-width="1.4"/>
      <path d="M66,68 q5,3 10,0" fill="none" stroke="#111" stroke-width="1.4"/>
      <path d="M60,64 l-3,8 l5,0" fill="none" stroke="#111" stroke-width="2"/>
      <path d="M52,83 q8,3 16,0" fill="none" stroke="#111" stroke-width="2.5"/>
      <path d="M52,96 L52,105 M68,96 L68,105" stroke="#111" stroke-width="2.5"/>
      <path d="M22,158 L28,118 Q60,104 92,118 L98,158 Z" fill="#f4f1ea" stroke="#111" stroke-width="2.5"/>
      <path d="M52,105 L44,122 M68,105 L76,122" fill="none" stroke="#111" stroke-width="2.5"/>
      <path d="M60,107 l-6,7 l6,34 l6,-34 z" fill="#111"/>
    </symbol>

    <symbol id="fig-doug" viewBox="0 0 130 165">
      <path d="M40,30 q6,-9 15,-6 M58,22 q8,-6 16,-2 M78,27 q8,-4 14,3" fill="none" stroke="#111" stroke-width="2.5"/>
      <circle cx="60" cy="60" r="38" fill="#f4f1ea" stroke="#111" stroke-width="2.5"/>
      <path d="M40,50 q7,-5 13,-1 M67,49 q7,-4 13,1" fill="none" stroke="#111" stroke-width="1.6"/>
      <circle cx="47" cy="57" r="3.2" fill="#111"/>
      <circle cx="73" cy="57" r="3.2" fill="#111"/>
      <path d="M40,68 Q60,93 80,68 Z" fill="#f4f1ea" stroke="#111" stroke-width="2.5"/>
      <path d="M40,68 Q60,74 80,68" fill="none" stroke="#111" stroke-width="1.4"/>
      <path d="M50,96 L50,105 M70,96 L70,105" stroke="#111" stroke-width="2.5"/>
      <path d="M18,163 L26,116 Q60,102 96,116 L104,163 Z" fill="#f4f1ea" stroke="#111" stroke-width="2.5"/>
      <path d="M50,105 L42,122 M70,105 L78,122" fill="none" stroke="#111" stroke-width="2.5"/>
      <path d="M100,127 q-3,-6 2,-11 M110,127 q3,-6 -2,-11" fill="none" stroke="#111" stroke-width="1.5"/>
      <ellipse cx="96" cy="141" rx="7" ry="6" fill="#f4f1ea" stroke="#111" stroke-width="2.5"/>
      <path d="M92,132 h26 v23 h-26 z" fill="#f4f1ea" stroke="#111" stroke-width="2.5"/>
      <path d="M118,137 q10,4 0,13" fill="none" stroke="#111" stroke-width="2.5"/>
    </symbol>

    <symbol id="fig-boss" viewBox="0 0 120 175">
      <path d="M44,45 C34,22 44,6 58,42 Z" fill="#f4f1ea" stroke="#111" stroke-width="2.5"/>
      <path d="M76,45 C86,22 76,6 62,42 Z" fill="#f4f1ea" stroke="#111" stroke-width="2.5"/>
      <ellipse cx="60" cy="72" rx="28" ry="32" fill="#f4f1ea" stroke="#111" stroke-width="2.5"/>
      <path d="M47,64 h8 M65,64 h8" stroke="#111" stroke-width="2"/>
      <circle cx="52" cy="70" r="2" fill="#111"/>
      <circle cx="68" cy="70" r="2" fill="#111"/>
      <path d="M60,74 l-2,6 l4,0" fill="none" stroke="#111" stroke-width="2"/>
      <line x1="52" y1="86" x2="68" y2="86" stroke="#111" stroke-width="2.5"/>
      <path d="M52,104 L52,112 M68,104 L68,112" stroke="#111" stroke-width="2.5"/>
      <path d="M18,175 L26,124 Q60,108 94,124 L102,175 Z" fill="#f4f1ea" stroke="#111" stroke-width="2.5"/>
      <path d="M60,112 L44,132 L52,150 M60,112 L76,132 L68,150" fill="none" stroke="#111" stroke-width="2.5"/>
      <path d="M60,114 l-5,6 l5,30 l5,-30 z" fill="#111"/>
    </symbol>

    <symbol id="clanker" viewBox="0 0 100 100">
      <line x1="50" y1="6" x2="50" y2="20" stroke="#111" stroke-width="2.5"/>
      <circle cx="50" cy="5" r="3" fill="#111"/>
      <rect x="18" y="20" width="64" height="60" rx="7" fill="#8b9197" stroke="#111" stroke-width="2.5"/>
      <rect x="24" y="27" width="52" height="46" rx="4" fill="#767c83" stroke="#111" stroke-width="1.4"/>
      <rect x="30" y="38" width="15" height="8" rx="4" fill="#e6ecf1" stroke="#111" stroke-width="1.4"/>
      <rect x="55" y="38" width="15" height="8" rx="4" fill="#e6ecf1" stroke="#111" stroke-width="1.4"/>
      <path d="M28,34 l-4,-3 M47,34 l4,-3 M53,34 l-4,-3 M72,34 l4,-3" stroke="#b9c0c7" stroke-width="1.2"/>
      <rect x="34" y="56" width="32" height="12" rx="2" fill="#9aa0a6" stroke="#111" stroke-width="1.4"/>
      <path d="M41,56 v12 M48,56 v12 M55,56 v12 M62,56 v12" stroke="#111" stroke-width="1"/>
      <circle cx="20" cy="50" r="2.4" fill="#767c83" stroke="#111" stroke-width="1.2"/>
      <circle cx="80" cy="50" r="2.4" fill="#767c83" stroke="#111" stroke-width="1.2"/>
    </symbol>
  </defs>

  <!-- ================= PANEL 1 ================= -->
  <g transform="translate(0,0)" clip-path="url(#pan)">
    <rect x="1" y="1" width="398" height="338" rx="3" fill="#f4f1ea"/>
    <line x1="10" y1="286" x2="390" y2="286" stroke="#111" stroke-width="1.4"/>
    <path d="M120,150 v130 M300,150 v90" stroke="#111" stroke-width="1.4" opacity="0.5"/>
    <use href="#fig-dailbert" x="36" y="96" width="120" height="160"/>
    <rect x="18" y="250" width="240" height="14" fill="#f4f1ea" stroke="#111" stroke-width="2.5"/>
    <path d="M28,264 v22 M244,264 v22" stroke="#111" stroke-width="2.5"/>
    <rect x="70" y="206" width="60" height="44" rx="3" fill="#f4f1ea" stroke="#111" stroke-width="2.5"/>
    <path d="M100,250 v8 M84,258 h32" stroke="#111" stroke-width="2.5"/>
    <use href="#fig-boss" x="252" y="64" width="118" height="175"/>
    <path d="M255,74 l-30,-2 l6,10 z" fill="#f4f1ea" stroke="#111" stroke-width="2.5"/>
    <rect x="112" y="16" width="200" height="64" rx="16" fill="#f4f1ea" stroke="#111" stroke-width="2.5"/>
    <text x="212" y="44" font-family="'Comic Sans MS','Segoe Print',cursive" font-size="15" text-anchor="middle" fill="#111">Status report by five.</text>
    <text x="212" y="64" font-family="'Comic Sans MS','Segoe Print',cursive" font-size="15" text-anchor="middle" fill="#111">Same as every week.</text>
    <rect x="1" y="1" width="398" height="338" rx="3" fill="none" stroke="#111" stroke-width="2.5"/>
  </g>

  <!-- ================= PANEL 2 ================= -->
  <g transform="translate(414,0)" clip-path="url(#pan)">
    <rect x="1" y="1" width="398" height="338" rx="3" fill="#f4f1ea"/>
    <line x1="10" y1="286" x2="390" y2="286" stroke="#111" stroke-width="1.4"/>
    <path d="M150,150 v136 M348,110 v176" stroke="#111" stroke-width="1.4" opacity="0.5"/>
    <use href="#fig-dailbert" x="20" y="92" width="120" height="160"/>
    <use href="#fig-doug" x="205" y="88" width="130" height="165"/>
    <rect x="14" y="26" width="180" height="60" rx="16" fill="#f4f1ea" stroke="#111" stroke-width="2.5"/>
    <path d="M96,86 l-10,26 l18,-16 z" fill="#f4f1ea" stroke="#111" stroke-width="2.5"/>
    <text x="104" y="52" font-family="'Comic Sans MS','Segoe Print',cursive" font-size="15" text-anchor="middle" fill="#111">Does anyone even</text>
    <text x="104" y="72" font-family="'Comic Sans MS','Segoe Print',cursive" font-size="15" text-anchor="middle" fill="#111">read these?</text>
    <rect x="206" y="14" width="184" height="60" rx="16" fill="#f4f1ea" stroke="#111" stroke-width="2.5"/>
    <path d="M272,74 l-6,26 l20,-18 z" fill="#f4f1ea" stroke="#111" stroke-width="2.5"/>
    <text x="298" y="40" font-family="'Comic Sans MS','Segoe Print',cursive" font-size="15" text-anchor="middle" fill="#111">No. That's the</text>
    <text x="298" y="60" font-family="'Comic Sans MS','Segoe Print',cursive" font-size="15" text-anchor="middle" fill="#111">whole point.</text>
    <rect x="1" y="1" width="398" height="338" rx="3" fill="none" stroke="#111" stroke-width="2.5"/>
  </g>

  <!-- ================= PANEL 3 ================= -->
  <g transform="translate(828,0)" clip-path="url(#pan)">
    <rect x="1" y="1" width="398" height="338" rx="3" fill="#f4f1ea"/>
    <rect x="34" y="44" width="118" height="112" fill="#cfd2cc" stroke="#111" stroke-width="2.5"/>
    <path d="M93,44 v112 M34,100 h118" stroke="#111" stroke-width="2"/>
    <path d="M44,150 L152,58 M70,156 L152,88 M44,120 L120,52" stroke="#b7bab4" stroke-width="1.4"/>
    <line x1="10" y1="286" x2="390" y2="286" stroke="#111" stroke-width="1.4"/>
    <path d="M60,236 q-14,0 -14,-26 q0,-16 14,-16 v42 M60,278 v-42 M40,278 h40" fill="none" stroke="#111" stroke-width="2.5"/>
    <rect x="118" y="235" width="236" height="14" fill="#f4f1ea" stroke="#111" stroke-width="2.5"/>
    <path d="M132,249 v30 M340,249 v30" stroke="#111" stroke-width="2.5"/>
    <path d="M300,150 l14,-10 M300,175 l20,-8 M300,205 l16,4 M126,168 l-14,-6 M124,205 l-16,6" stroke="#b7bab4" stroke-width="1.4"/>
    <rect x="150" y="150" width="128" height="90" rx="5" fill="#20242a" stroke="#111" stroke-width="2.5"/>
    <path d="M214,240 v12 M196,254 h36" stroke="#111" stroke-width="2.5"/>
    <use href="#clanker" x="169" y="156" width="90" height="90"/>
    <rect x="88" y="16" width="230" height="82" fill="#f4f1ea" stroke="#111" stroke-width="2.5"/>
    <rect x="93" y="21" width="220" height="72" fill="none" stroke="#111" stroke-width="1" stroke-dasharray="4 3"/>
    <line x1="203" y1="98" x2="214" y2="150" stroke="#111" stroke-width="1.5" stroke-dasharray="5 4"/>
    <text x="203" y="42" font-family="'Comic Sans MS','Segoe Print',cursive" font-size="15" text-anchor="middle" fill="#111">I read yours twice.</text>
    <text x="203" y="62" font-family="'Comic Sans MS','Segoe Print',cursive" font-size="15" text-anchor="middle" fill="#111">You seemed tired</text>
    <text x="203" y="82" font-family="'Comic Sans MS','Segoe Print',cursive" font-size="15" text-anchor="middle" fill="#111">on the ninth.</text>
    <rect x="1" y="1" width="398" height="338" rx="3" fill="none" stroke="#111" stroke-width="2.5"/>
  </g>
</svg>