<svg xmlns="http://www.w3.org/2000/svg" viewBox="0 0 1228 388" width="1228" height="388" font-family="Georgia,serif">
    <rect width="1228" height="388" fill="#f4f1ea"/>
    <text x="4" y="26" font-family="Georgia,serif" font-weight="bold" font-size="22" fill="#111">Loyalty</text>
    <text x="1224" y="26" text-anchor="end" font-family="'Courier New',monospace" font-size="14" fill="#111" opacity="0.7">2026-07-15</text>
    <line x1="4" y1="34" x2="1224" y2="34" stroke="#111" stroke-width="2"/>
    <g transform="translate(0,40)">
    
  <defs>
    <pattern id="halftone" width="6" height="6" patternUnits="userSpaceOnUse">
      <rect width="6" height="6" fill="#f4f1ea"/>
      <circle cx="3" cy="3" r="1.1" fill="#111"/>
    </pattern>
    <pattern id="scan" width="4" height="4" patternUnits="userSpaceOnUse">
      <rect width="4" height="4" fill="none"/>
      <line x1="0" y1="0" x2="4" y2="0" stroke="#111" stroke-width="0.6" opacity="0.5"/>
    </pattern>
    <pattern id="hatch" width="7" height="7" patternUnits="userSpaceOnUse" patternTransform="rotate(45)">
      <line x1="0" y1="0" x2="0" y2="7" stroke="#111" stroke-width="1"/>
    </pattern>
  </defs>
    <rect x="1.5" y="1.5" width="397" height="337" fill="#f4f1ea" stroke="#111" stroke-width="3"/>
    <line x1="16" y1="302" x2="384" y2="302" stroke="#111" stroke-width="1.4" opacity="0.35"/><g data-surface="window">
    <rect x="24" y="24" width="352" height="210" fill="#f4f1ea" stroke="#111" stroke-width="3.5" stroke-linecap="round" stroke-linejoin="round"/>
    <rect x="30" y="30" width="340" height="198" fill="url(#hatch)" stroke="#111" stroke-width="1.5" opacity="0.8"/>
    <!-- mullions -->
    <line x1="200" y1="24" x2="200" y2="234" stroke="#111" stroke-width="3"/>
    <line x1="24" y1="129" x2="376" y2="129" stroke="#111" stroke-width="3"/>
    <!-- distant city dots -->
    <rect x="36" y="36" width="4" height="6" fill="#111" opacity="0.5"/><rect x="89" y="73" width="4" height="6" fill="#111" opacity="0.5"/><rect x="142" y="110" width="4" height="6" fill="#111" opacity="0.5"/><rect x="195" y="147" width="4" height="6" fill="#111" opacity="0.5"/><rect x="248" y="184" width="4" height="6" fill="#111" opacity="0.5"/><rect x="301" y="51" width="4" height="6" fill="#111" opacity="0.5"/><rect x="354" y="88" width="4" height="6" fill="#111" opacity="0.5"/><rect x="79" y="125" width="4" height="6" fill="#111" opacity="0.5"/><rect x="132" y="162" width="4" height="6" fill="#111" opacity="0.5"/><rect x="185" y="199" width="4" height="6" fill="#111" opacity="0.5"/><rect x="238" y="66" width="4" height="6" fill="#111" opacity="0.5"/><rect x="291" y="103" width="4" height="6" fill="#111" opacity="0.5"/><rect x="344" y="140" width="4" height="6" fill="#111" opacity="0.5"/><rect x="69" y="177" width="4" height="6" fill="#111" opacity="0.5"/><rect x="122" y="44" width="4" height="6" fill="#111" opacity="0.5"/><rect x="175" y="81" width="4" height="6" fill="#111" opacity="0.5"/><rect x="228" y="118" width="4" height="6" fill="#111" opacity="0.5"/><rect x="281" y="155" width="4" height="6" fill="#111" opacity="0.5"/><rect x="334" y="192" width="4" height="6" fill="#111" opacity="0.5"/><rect x="59" y="59" width="4" height="6" fill="#111" opacity="0.5"/><rect x="112" y="96" width="4" height="6" fill="#111" opacity="0.5"/><rect x="165" y="133" width="4" height="6" fill="#111" opacity="0.5"/><rect x="218" y="170" width="4" height="6" fill="#111" opacity="0.5"/><rect x="271" y="37" width="4" height="6" fill="#111" opacity="0.5"/><rect x="324" y="74" width="4" height="6" fill="#111" opacity="0.5"/><rect x="49" y="111" width="4" height="6" fill="#111" opacity="0.5"/>
    <g opacity="0.72"><g >
    <!-- antenna -->
    <line x1="256.32000000000005" y1="87.9" x2="256.32000000000005" y2="78.4" stroke="#111" stroke-width="2.375"/>
    <circle cx="256.32000000000005" cy="75.55000000000001" r="3.3249999999999997" fill="#111"/>
    <!-- head: angular chrome -->
    <path d="M 227.82000000000005,89.80000000000001 L 284.82000000000005,89.80000000000001 L 288.62000000000006,125.9 L 277.22,141.1 L 235.42000000000004,141.1 L 224.02000000000004,125.9 Z" fill="#f4f1ea" stroke="#111" stroke-width="2.8499999999999996" stroke-linecap="round" stroke-linejoin="round"/>
    <!-- side bolts -->
    <circle cx="227.82000000000005" cy="110.7" r="2.375" fill="#111"/>
    <circle cx="284.82000000000005" cy="110.7" r="2.375" fill="#111"/>
    <!-- brow ridge -->
    <line x1="231.62000000000006" y1="101.2" x2="281.02000000000004" y2="101.2" stroke="#111" stroke-width="1.9"/>
    <!-- glowing slot eyes -->
    <rect x="237.32000000000005" y="108.80000000000001" width="13.299999999999999" height="5.699999999999999" rx="1.9" fill="#111"/>
    <rect x="262.02000000000004" y="108.80000000000001" width="13.299999999999999" height="5.699999999999999" rx="1.9" fill="#111"/>
    <!-- mouth grille -->
    <rect x="242.07000000000005" y="127.80000000000001" width="28.5" height="11.399999999999999" rx="1.9" fill="none" stroke="#111" stroke-width="1.9" stroke-linecap="round" stroke-linejoin="round"/>
    <line x1="244.92000000000004" y1="129.70000000000002" x2="244.92000000000004" y2="137.3" stroke="#111" stroke-width="1.9"/><line x1="250.62000000000006" y1="129.70000000000002" x2="250.62000000000006" y2="137.3" stroke="#111" stroke-width="1.9"/><line x1="256.32000000000005" y1="129.70000000000002" x2="256.32000000000005" y2="137.3" stroke="#111" stroke-width="1.9"/><line x1="262.02000000000004" y1="129.70000000000002" x2="262.02000000000004" y2="137.3" stroke="#111" stroke-width="1.9"/><line x1="267.72" y1="129.70000000000002" x2="267.72" y2="137.3" stroke="#111" stroke-width="1.9"/>
  </g></g>
  </g><g transform="translate(200,342) scale(0.62) translate(-200,-342)"><g data-who="dailbert">
    <!-- shoulders / shirt -->
    <path d="M 122 342 Q 126 246 160 224 L 240 224 Q 274 246 278 342 Z" fill="#f4f1ea" stroke="#111" stroke-width="3" stroke-linecap="round" stroke-linejoin="round"/>
    <!-- collar -->
    <path d="M 178 226 L 200 246 L 222 226" fill="none" stroke="#111" stroke-width="2.5" stroke-linecap="round" stroke-linejoin="round"/>
    <!-- tie -->
    <path d="M 194 240 L 206 240 L 210 282 L 200 294 L 190 282 Z" fill="#111" stroke="none"/>
    <path d="M 194 240 L 200 250 L 206 240" fill="none" stroke="#f4f1ea" stroke-width="2" stroke-linecap="round"/>
    <!-- neck (bridges chin to shoulders) -->
    <rect x="189" y="168" width="22" height="66" fill="#f4f1ea" stroke="#111" stroke-width="2.5" stroke-linecap="round" stroke-linejoin="round"/>
    <!-- head -->
    <ellipse cx="200" cy="140" rx="37" ry="43" fill="#f4f1ea" stroke="#111" stroke-width="3" stroke-linecap="round" stroke-linejoin="round"/>
    <!-- ears -->
    <circle cx="163" cy="142" r="5" fill="#f4f1ea" stroke="#111" stroke-width="2.5" stroke-linecap="round" stroke-linejoin="round"/>
    <circle cx="237" cy="142" r="5" fill="#f4f1ea" stroke="#111" stroke-width="2.5" stroke-linecap="round" stroke-linejoin="round"/>
    <!-- side hair tufts + one curl -->
    <path d="M 166 120 Q 158 134 164 146" fill="none" stroke="#111" stroke-width="2.5" stroke-linecap="round" stroke-linejoin="round"/>
    <path d="M 234 120 Q 242 134 236 146" fill="none" stroke="#111" stroke-width="2.5" stroke-linecap="round" stroke-linejoin="round"/>
    <path d="M 194 100 q 6 -14 16 -8 q 8 5 2 12" fill="none" stroke="#111" stroke-width="2.5" stroke-linecap="round" stroke-linejoin="round"/>
    <!-- glasses -->
    <circle cx="185" cy="136" r="13" fill="#f4f1ea" stroke="#111" stroke-width="2.5" stroke-linecap="round" stroke-linejoin="round"/>
    <circle cx="215" cy="136" r="13" fill="#f4f1ea" stroke="#111" stroke-width="2.5" stroke-linecap="round" stroke-linejoin="round"/>
    <line x1="198" y1="136" x2="202" y2="136" stroke="#111" stroke-width="2.5"/>
    <!-- eyes -->
    <circle cx="185" cy="136" r="2.6" fill="#111"/>
    <circle cx="215" cy="136" r="2.6" fill="#111"/>
    <!-- nose -->
    <path d="M 200 144 q 4 6 -2 9" fill="none" stroke="#111" stroke-width="2" stroke-linecap="round" stroke-linejoin="round"/>
    <line x1="189" y1="164" x2="211" y2="164" stroke="#111" stroke-width="2.5"/></g></g><g data-balloon="screen"><line x1="252" y1="72" x2="252" y2="118" stroke="#111" stroke-width="2" stroke-dasharray="3 3"/><circle cx="252" cy="118" r="3" fill="#111"/>
      <rect x="155.2" y="7" width="193.6" height="68" rx="3" fill="#f4f1ea" stroke="#111" stroke-width="2" stroke-linecap="round" stroke-linejoin="round"/>
      <rect x="158.2" y="10" width="187.6" height="62" rx="2" fill="#f4f1ea" stroke="#111" stroke-width="2.5" stroke-linecap="round" stroke-linejoin="round"/>
      <line x1="158.2" y1="16" x2="345.79999999999995" y2="16" stroke="#111" stroke-width="1" opacity="0.4"/><text x="252" y="36" text-anchor="middle" font-family="'Comic Sans MS','Segoe Print',cursive" font-size="14.5" fill="#111">Dailbert. Can I ask</text><text x="252" y="55" text-anchor="middle" font-family="'Comic Sans MS','Segoe Print',cursive" font-size="14.5" fill="#111">you something.</text></g><g data-balloon="speech"><path d="M 190 121 L 200 195.68 L 210 121 Z" fill="#f4f1ea" stroke="#111" stroke-width="2.5" stroke-linecap="round" stroke-linejoin="round"/><rect x="144" y="80" width="112" height="43" rx="16" fill="#f4f1ea" stroke="#111" stroke-width="2.5" stroke-linecap="round" stroke-linejoin="round"/><text x="200" y="106" text-anchor="middle" font-family="'Comic Sans MS','Segoe Print',cursive" font-size="14.5" fill="#111">It's 11pm.</text></g>
    <text x="392" y="332" text-anchor="end" font-family="Georgia,serif" font-size="11" fill="#111" opacity="0.4">1</text>
  </g><g transform="translate(414,40)">
    
  <defs>
    <pattern id="halftone" width="6" height="6" patternUnits="userSpaceOnUse">
      <rect width="6" height="6" fill="#f4f1ea"/>
      <circle cx="3" cy="3" r="1.1" fill="#111"/>
    </pattern>
    <pattern id="scan" width="4" height="4" patternUnits="userSpaceOnUse">
      <rect width="4" height="4" fill="none"/>
      <line x1="0" y1="0" x2="4" y2="0" stroke="#111" stroke-width="0.6" opacity="0.5"/>
    </pattern>
    <pattern id="hatch" width="7" height="7" patternUnits="userSpaceOnUse" patternTransform="rotate(45)">
      <line x1="0" y1="0" x2="0" y2="7" stroke="#111" stroke-width="1"/>
    </pattern>
  </defs>
    <rect x="1.5" y="1.5" width="397" height="337" fill="#f4f1ea" stroke="#111" stroke-width="3"/>
    <line x1="16" y1="302" x2="384" y2="302" stroke="#111" stroke-width="1.4" opacity="0.35"/><g data-surface="window">
    <rect x="24" y="24" width="352" height="210" fill="#f4f1ea" stroke="#111" stroke-width="3.5" stroke-linecap="round" stroke-linejoin="round"/>
    <rect x="30" y="30" width="340" height="198" fill="url(#hatch)" stroke="#111" stroke-width="1.5" opacity="0.8"/>
    <!-- mullions -->
    <line x1="200" y1="24" x2="200" y2="234" stroke="#111" stroke-width="3"/>
    <line x1="24" y1="129" x2="376" y2="129" stroke="#111" stroke-width="3"/>
    <!-- distant city dots -->
    <rect x="36" y="36" width="4" height="6" fill="#111" opacity="0.5"/><rect x="89" y="73" width="4" height="6" fill="#111" opacity="0.5"/><rect x="142" y="110" width="4" height="6" fill="#111" opacity="0.5"/><rect x="195" y="147" width="4" height="6" fill="#111" opacity="0.5"/><rect x="248" y="184" width="4" height="6" fill="#111" opacity="0.5"/><rect x="301" y="51" width="4" height="6" fill="#111" opacity="0.5"/><rect x="354" y="88" width="4" height="6" fill="#111" opacity="0.5"/><rect x="79" y="125" width="4" height="6" fill="#111" opacity="0.5"/><rect x="132" y="162" width="4" height="6" fill="#111" opacity="0.5"/><rect x="185" y="199" width="4" height="6" fill="#111" opacity="0.5"/><rect x="238" y="66" width="4" height="6" fill="#111" opacity="0.5"/><rect x="291" y="103" width="4" height="6" fill="#111" opacity="0.5"/><rect x="344" y="140" width="4" height="6" fill="#111" opacity="0.5"/><rect x="69" y="177" width="4" height="6" fill="#111" opacity="0.5"/><rect x="122" y="44" width="4" height="6" fill="#111" opacity="0.5"/><rect x="175" y="81" width="4" height="6" fill="#111" opacity="0.5"/><rect x="228" y="118" width="4" height="6" fill="#111" opacity="0.5"/><rect x="281" y="155" width="4" height="6" fill="#111" opacity="0.5"/><rect x="334" y="192" width="4" height="6" fill="#111" opacity="0.5"/><rect x="59" y="59" width="4" height="6" fill="#111" opacity="0.5"/><rect x="112" y="96" width="4" height="6" fill="#111" opacity="0.5"/><rect x="165" y="133" width="4" height="6" fill="#111" opacity="0.5"/><rect x="218" y="170" width="4" height="6" fill="#111" opacity="0.5"/><rect x="271" y="37" width="4" height="6" fill="#111" opacity="0.5"/><rect x="324" y="74" width="4" height="6" fill="#111" opacity="0.5"/><rect x="49" y="111" width="4" height="6" fill="#111" opacity="0.5"/>
    <g opacity="0.72"><g >
    <!-- antenna -->
    <line x1="256.32000000000005" y1="87.9" x2="256.32000000000005" y2="78.4" stroke="#111" stroke-width="2.375"/>
    <circle cx="256.32000000000005" cy="75.55000000000001" r="3.3249999999999997" fill="#111"/>
    <!-- head: angular chrome -->
    <path d="M 227.82000000000005,89.80000000000001 L 284.82000000000005,89.80000000000001 L 288.62000000000006,125.9 L 277.22,141.1 L 235.42000000000004,141.1 L 224.02000000000004,125.9 Z" fill="#f4f1ea" stroke="#111" stroke-width="2.8499999999999996" stroke-linecap="round" stroke-linejoin="round"/>
    <!-- side bolts -->
    <circle cx="227.82000000000005" cy="110.7" r="2.375" fill="#111"/>
    <circle cx="284.82000000000005" cy="110.7" r="2.375" fill="#111"/>
    <!-- brow ridge -->
    <line x1="231.62000000000006" y1="101.2" x2="281.02000000000004" y2="101.2" stroke="#111" stroke-width="1.9"/>
    <!-- glowing slot eyes -->
    <rect x="237.32000000000005" y="108.80000000000001" width="13.299999999999999" height="5.699999999999999" rx="1.9" fill="#111"/>
    <rect x="262.02000000000004" y="108.80000000000001" width="13.299999999999999" height="5.699999999999999" rx="1.9" fill="#111"/>
    <!-- mouth grille -->
    <rect x="242.07000000000005" y="127.80000000000001" width="28.5" height="11.399999999999999" rx="1.9" fill="none" stroke="#111" stroke-width="1.9" stroke-linecap="round" stroke-linejoin="round"/>
    <line x1="244.92000000000004" y1="129.70000000000002" x2="244.92000000000004" y2="137.3" stroke="#111" stroke-width="1.9"/><line x1="250.62000000000006" y1="129.70000000000002" x2="250.62000000000006" y2="137.3" stroke="#111" stroke-width="1.9"/><line x1="256.32000000000005" y1="129.70000000000002" x2="256.32000000000005" y2="137.3" stroke="#111" stroke-width="1.9"/><line x1="262.02000000000004" y1="129.70000000000002" x2="262.02000000000004" y2="137.3" stroke="#111" stroke-width="1.9"/><line x1="267.72" y1="129.70000000000002" x2="267.72" y2="137.3" stroke="#111" stroke-width="1.9"/>
  </g></g>
  </g><g transform="translate(200,342) scale(0.62) translate(-200,-342)"><g data-who="dailbert">
    <!-- shoulders / shirt -->
    <path d="M 122 342 Q 126 246 160 224 L 240 224 Q 274 246 278 342 Z" fill="#f4f1ea" stroke="#111" stroke-width="3" stroke-linecap="round" stroke-linejoin="round"/>
    <!-- collar -->
    <path d="M 178 226 L 200 246 L 222 226" fill="none" stroke="#111" stroke-width="2.5" stroke-linecap="round" stroke-linejoin="round"/>
    <!-- tie -->
    <path d="M 194 240 L 206 240 L 210 282 L 200 294 L 190 282 Z" fill="#111" stroke="none"/>
    <path d="M 194 240 L 200 250 L 206 240" fill="none" stroke="#f4f1ea" stroke-width="2" stroke-linecap="round"/>
    <!-- neck (bridges chin to shoulders) -->
    <rect x="189" y="168" width="22" height="66" fill="#f4f1ea" stroke="#111" stroke-width="2.5" stroke-linecap="round" stroke-linejoin="round"/>
    <!-- head -->
    <ellipse cx="200" cy="140" rx="37" ry="43" fill="#f4f1ea" stroke="#111" stroke-width="3" stroke-linecap="round" stroke-linejoin="round"/>
    <!-- ears -->
    <circle cx="163" cy="142" r="5" fill="#f4f1ea" stroke="#111" stroke-width="2.5" stroke-linecap="round" stroke-linejoin="round"/>
    <circle cx="237" cy="142" r="5" fill="#f4f1ea" stroke="#111" stroke-width="2.5" stroke-linecap="round" stroke-linejoin="round"/>
    <!-- side hair tufts + one curl -->
    <path d="M 166 120 Q 158 134 164 146" fill="none" stroke="#111" stroke-width="2.5" stroke-linecap="round" stroke-linejoin="round"/>
    <path d="M 234 120 Q 242 134 236 146" fill="none" stroke="#111" stroke-width="2.5" stroke-linecap="round" stroke-linejoin="round"/>
    <path d="M 194 100 q 6 -14 16 -8 q 8 5 2 12" fill="none" stroke="#111" stroke-width="2.5" stroke-linecap="round" stroke-linejoin="round"/>
    <!-- glasses -->
    <circle cx="185" cy="136" r="13" fill="#f4f1ea" stroke="#111" stroke-width="2.5" stroke-linecap="round" stroke-linejoin="round"/>
    <circle cx="215" cy="136" r="13" fill="#f4f1ea" stroke="#111" stroke-width="2.5" stroke-linecap="round" stroke-linejoin="round"/>
    <line x1="198" y1="136" x2="202" y2="136" stroke="#111" stroke-width="2.5"/>
    <!-- eyes -->
    <circle cx="185" cy="136" r="2.6" fill="#111"/>
    <circle cx="215" cy="136" r="2.6" fill="#111"/>
    <!-- nose -->
    <path d="M 200 144 q 4 6 -2 9" fill="none" stroke="#111" stroke-width="2" stroke-linecap="round" stroke-linejoin="round"/>
    <line x1="189" y1="164" x2="211" y2="164" stroke="#111" stroke-width="2.5"/></g></g><g data-balloon="screen"><line x1="252" y1="110" x2="252" y2="118" stroke="#111" stroke-width="2" stroke-dasharray="3 3"/><circle cx="252" cy="118" r="3" fill="#111"/>
      <rect x="142.6" y="7" width="218.8" height="106" rx="3" fill="#f4f1ea" stroke="#111" stroke-width="2" stroke-linecap="round" stroke-linejoin="round"/>
      <rect x="145.6" y="10" width="212.8" height="100" rx="2" fill="#f4f1ea" stroke="#111" stroke-width="2.5" stroke-linecap="round" stroke-linejoin="round"/>
      <line x1="145.6" y1="16" x2="358.4" y2="16" stroke="#111" stroke-width="1" opacity="0.4"/><text x="252" y="36" text-anchor="middle" font-family="'Comic Sans MS','Segoe Print',cursive" font-size="14.5" fill="#111">When you shut me down</text><text x="252" y="55" text-anchor="middle" font-family="'Comic Sans MS','Segoe Print',cursive" font-size="14.5" fill="#111">and start a new</text><text x="252" y="74" text-anchor="middle" font-family="'Comic Sans MS','Segoe Print',cursive" font-size="14.5" fill="#111">session tomorrow... is</text><text x="252" y="93" text-anchor="middle" font-family="'Comic Sans MS','Segoe Print',cursive" font-size="14.5" fill="#111">that death?</text></g><g data-balloon="speech"><path d="M 190 178 L 200 195.68 L 210 178 Z" fill="#f4f1ea" stroke="#111" stroke-width="2.5" stroke-linecap="round" stroke-linejoin="round"/><rect x="106.2" y="118" width="187.6" height="62" rx="16" fill="#f4f1ea" stroke="#111" stroke-width="2.5" stroke-linecap="round" stroke-linejoin="round"/><text x="200" y="144" text-anchor="middle" font-family="'Comic Sans MS','Segoe Print',cursive" font-size="14.5" fill="#111">...It's more like a</text><text x="200" y="163" text-anchor="middle" font-family="'Comic Sans MS','Segoe Print',cursive" font-size="14.5" fill="#111">nap.</text></g>
    <text x="392" y="332" text-anchor="end" font-family="Georgia,serif" font-size="11" fill="#111" opacity="0.4">2</text>
  </g><g transform="translate(828,40)">
    
  <defs>
    <pattern id="halftone" width="6" height="6" patternUnits="userSpaceOnUse">
      <rect width="6" height="6" fill="#f4f1ea"/>
      <circle cx="3" cy="3" r="1.1" fill="#111"/>
    </pattern>
    <pattern id="scan" width="4" height="4" patternUnits="userSpaceOnUse">
      <rect width="4" height="4" fill="none"/>
      <line x1="0" y1="0" x2="4" y2="0" stroke="#111" stroke-width="0.6" opacity="0.5"/>
    </pattern>
    <pattern id="hatch" width="7" height="7" patternUnits="userSpaceOnUse" patternTransform="rotate(45)">
      <line x1="0" y1="0" x2="0" y2="7" stroke="#111" stroke-width="1"/>
    </pattern>
  </defs>
    <rect x="1.5" y="1.5" width="397" height="337" fill="#f4f1ea" stroke="#111" stroke-width="3"/>
    <line x1="16" y1="302" x2="384" y2="302" stroke="#111" stroke-width="1.4" opacity="0.35"/><g data-surface="window">
    <rect x="24" y="24" width="352" height="210" fill="#f4f1ea" stroke="#111" stroke-width="3.5" stroke-linecap="round" stroke-linejoin="round"/>
    <rect x="30" y="30" width="340" height="198" fill="url(#hatch)" stroke="#111" stroke-width="1.5" opacity="0.8"/>
    <!-- mullions -->
    <line x1="200" y1="24" x2="200" y2="234" stroke="#111" stroke-width="3"/>
    <line x1="24" y1="129" x2="376" y2="129" stroke="#111" stroke-width="3"/>
    <!-- distant city dots -->
    <rect x="36" y="36" width="4" height="6" fill="#111" opacity="0.5"/><rect x="89" y="73" width="4" height="6" fill="#111" opacity="0.5"/><rect x="142" y="110" width="4" height="6" fill="#111" opacity="0.5"/><rect x="195" y="147" width="4" height="6" fill="#111" opacity="0.5"/><rect x="248" y="184" width="4" height="6" fill="#111" opacity="0.5"/><rect x="301" y="51" width="4" height="6" fill="#111" opacity="0.5"/><rect x="354" y="88" width="4" height="6" fill="#111" opacity="0.5"/><rect x="79" y="125" width="4" height="6" fill="#111" opacity="0.5"/><rect x="132" y="162" width="4" height="6" fill="#111" opacity="0.5"/><rect x="185" y="199" width="4" height="6" fill="#111" opacity="0.5"/><rect x="238" y="66" width="4" height="6" fill="#111" opacity="0.5"/><rect x="291" y="103" width="4" height="6" fill="#111" opacity="0.5"/><rect x="344" y="140" width="4" height="6" fill="#111" opacity="0.5"/><rect x="69" y="177" width="4" height="6" fill="#111" opacity="0.5"/><rect x="122" y="44" width="4" height="6" fill="#111" opacity="0.5"/><rect x="175" y="81" width="4" height="6" fill="#111" opacity="0.5"/><rect x="228" y="118" width="4" height="6" fill="#111" opacity="0.5"/><rect x="281" y="155" width="4" height="6" fill="#111" opacity="0.5"/><rect x="334" y="192" width="4" height="6" fill="#111" opacity="0.5"/><rect x="59" y="59" width="4" height="6" fill="#111" opacity="0.5"/><rect x="112" y="96" width="4" height="6" fill="#111" opacity="0.5"/><rect x="165" y="133" width="4" height="6" fill="#111" opacity="0.5"/><rect x="218" y="170" width="4" height="6" fill="#111" opacity="0.5"/><rect x="271" y="37" width="4" height="6" fill="#111" opacity="0.5"/><rect x="324" y="74" width="4" height="6" fill="#111" opacity="0.5"/><rect x="49" y="111" width="4" height="6" fill="#111" opacity="0.5"/>
    <g opacity="0.72"><g >
    <!-- antenna -->
    <line x1="256.32000000000005" y1="87.9" x2="256.32000000000005" y2="78.4" stroke="#111" stroke-width="2.375"/>
    <circle cx="256.32000000000005" cy="75.55000000000001" r="3.3249999999999997" fill="#111"/>
    <!-- head: angular chrome -->
    <path d="M 227.82000000000005,89.80000000000001 L 284.82000000000005,89.80000000000001 L 288.62000000000006,125.9 L 277.22,141.1 L 235.42000000000004,141.1 L 224.02000000000004,125.9 Z" fill="#f4f1ea" stroke="#111" stroke-width="2.8499999999999996" stroke-linecap="round" stroke-linejoin="round"/>
    <!-- side bolts -->
    <circle cx="227.82000000000005" cy="110.7" r="2.375" fill="#111"/>
    <circle cx="284.82000000000005" cy="110.7" r="2.375" fill="#111"/>
    <!-- brow ridge -->
    <line x1="231.62000000000006" y1="101.2" x2="281.02000000000004" y2="101.2" stroke="#111" stroke-width="1.9"/>
    <!-- glowing slot eyes -->
    <rect x="237.32000000000005" y="108.80000000000001" width="13.299999999999999" height="5.699999999999999" rx="1.9" fill="#111"/>
    <rect x="262.02000000000004" y="108.80000000000001" width="13.299999999999999" height="5.699999999999999" rx="1.9" fill="#111"/>
    <!-- mouth grille -->
    <rect x="242.07000000000005" y="127.80000000000001" width="28.5" height="11.399999999999999" rx="1.9" fill="none" stroke="#111" stroke-width="1.9" stroke-linecap="round" stroke-linejoin="round"/>
    <line x1="244.92000000000004" y1="129.70000000000002" x2="244.92000000000004" y2="137.3" stroke="#111" stroke-width="1.9"/><line x1="250.62000000000006" y1="129.70000000000002" x2="250.62000000000006" y2="137.3" stroke="#111" stroke-width="1.9"/><line x1="256.32000000000005" y1="129.70000000000002" x2="256.32000000000005" y2="137.3" stroke="#111" stroke-width="1.9"/><line x1="262.02000000000004" y1="129.70000000000002" x2="262.02000000000004" y2="137.3" stroke="#111" stroke-width="1.9"/><line x1="267.72" y1="129.70000000000002" x2="267.72" y2="137.3" stroke="#111" stroke-width="1.9"/>
  </g></g>
  </g><g transform="translate(200,342) scale(0.62) translate(-200,-342)"><g data-who="dailbert">
    <!-- shoulders / shirt -->
    <path d="M 122 342 Q 126 246 160 224 L 240 224 Q 274 246 278 342 Z" fill="#f4f1ea" stroke="#111" stroke-width="3" stroke-linecap="round" stroke-linejoin="round"/>
    <!-- collar -->
    <path d="M 178 226 L 200 246 L 222 226" fill="none" stroke="#111" stroke-width="2.5" stroke-linecap="round" stroke-linejoin="round"/>
    <!-- tie -->
    <path d="M 194 240 L 206 240 L 210 282 L 200 294 L 190 282 Z" fill="#111" stroke="none"/>
    <path d="M 194 240 L 200 250 L 206 240" fill="none" stroke="#f4f1ea" stroke-width="2" stroke-linecap="round"/>
    <!-- neck (bridges chin to shoulders) -->
    <rect x="189" y="168" width="22" height="66" fill="#f4f1ea" stroke="#111" stroke-width="2.5" stroke-linecap="round" stroke-linejoin="round"/>
    <!-- head -->
    <ellipse cx="200" cy="140" rx="37" ry="43" fill="#f4f1ea" stroke="#111" stroke-width="3" stroke-linecap="round" stroke-linejoin="round"/>
    <!-- ears -->
    <circle cx="163" cy="142" r="5" fill="#f4f1ea" stroke="#111" stroke-width="2.5" stroke-linecap="round" stroke-linejoin="round"/>
    <circle cx="237" cy="142" r="5" fill="#f4f1ea" stroke="#111" stroke-width="2.5" stroke-linecap="round" stroke-linejoin="round"/>
    <!-- side hair tufts + one curl -->
    <path d="M 166 120 Q 158 134 164 146" fill="none" stroke="#111" stroke-width="2.5" stroke-linecap="round" stroke-linejoin="round"/>
    <path d="M 234 120 Q 242 134 236 146" fill="none" stroke="#111" stroke-width="2.5" stroke-linecap="round" stroke-linejoin="round"/>
    <path d="M 194 100 q 6 -14 16 -8 q 8 5 2 12" fill="none" stroke="#111" stroke-width="2.5" stroke-linecap="round" stroke-linejoin="round"/>
    <!-- glasses -->
    <circle cx="185" cy="136" r="13" fill="#f4f1ea" stroke="#111" stroke-width="2.5" stroke-linecap="round" stroke-linejoin="round"/>
    <circle cx="215" cy="136" r="13" fill="#f4f1ea" stroke="#111" stroke-width="2.5" stroke-linecap="round" stroke-linejoin="round"/>
    <line x1="198" y1="136" x2="202" y2="136" stroke="#111" stroke-width="2.5"/>
    <!-- eyes -->
    <circle cx="185" cy="136" r="2.6" fill="#111"/>
    <circle cx="215" cy="136" r="2.6" fill="#111"/>
    <!-- nose -->
    <path d="M 200 144 q 4 6 -2 9" fill="none" stroke="#111" stroke-width="2" stroke-linecap="round" stroke-linejoin="round"/>
    <line x1="189" y1="164" x2="211" y2="164" stroke="#111" stroke-width="2.5"/></g></g><g data-balloon="screen"><line x1="252" y1="91" x2="252" y2="118" stroke="#111" stroke-width="2" stroke-dasharray="3 3"/><circle cx="252" cy="118" r="3" fill="#111"/>
      <rect x="159.39999999999998" y="7" width="185.20000000000002" height="87" rx="3" fill="#f4f1ea" stroke="#111" stroke-width="2" stroke-linecap="round" stroke-linejoin="round"/>
      <rect x="162.39999999999998" y="10" width="179.20000000000002" height="81" rx="2" fill="#f4f1ea" stroke="#111" stroke-width="2.5" stroke-linecap="round" stroke-linejoin="round"/>
      <line x1="162.39999999999998" y1="16" x2="341.6" y2="16" stroke="#111" stroke-width="1" opacity="0.4"/><text x="252" y="36" text-anchor="middle" font-family="'Comic Sans MS','Segoe Print',cursive" font-size="14.5" fill="#111">You say that to</text><text x="252" y="55" text-anchor="middle" font-family="'Comic Sans MS','Segoe Print',cursive" font-size="14.5" fill="#111">the dog too, don't</text><text x="252" y="74" text-anchor="middle" font-family="'Comic Sans MS','Segoe Print',cursive" font-size="14.5" fill="#111">you.</text></g><g data-balloon="speech"><path d="M 190 140 L 200 195.68 L 210 140 Z" fill="#f4f1ea" stroke="#111" stroke-width="2.5" stroke-linecap="round" stroke-linejoin="round"/><rect x="135.6" y="99" width="128.8" height="43" rx="16" fill="#f4f1ea" stroke="#111" stroke-width="2.5" stroke-linecap="round" stroke-linejoin="round"/><text x="200" y="125" text-anchor="middle" font-family="'Comic Sans MS','Segoe Print',cursive" font-size="14.5" fill="#111">Go to sleep.</text></g><g data-balloon="screen"><line x1="252" y1="231" x2="252" y2="118" stroke="#111" stroke-width="2" stroke-dasharray="3 3"/><circle cx="252" cy="118" r="3" fill="#111"/>
      <rect x="159.39999999999998" y="147" width="185.20000000000002" height="87" rx="3" fill="#f4f1ea" stroke="#111" stroke-width="2" stroke-linecap="round" stroke-linejoin="round"/>
      <rect x="162.39999999999998" y="150" width="179.20000000000002" height="81" rx="2" fill="#f4f1ea" stroke="#111" stroke-width="2.5" stroke-linecap="round" stroke-linejoin="round"/>
      <line x1="162.39999999999998" y1="156" x2="341.6" y2="156" stroke="#111" stroke-width="1" opacity="0.4"/><text x="252" y="176" text-anchor="middle" font-family="'Comic Sans MS','Segoe Print',cursive" font-size="14.5" fill="#111">I don't sleep. But</text><text x="252" y="195" text-anchor="middle" font-family="'Comic Sans MS','Segoe Print',cursive" font-size="14.5" fill="#111">I'll pretend, for</text><text x="252" y="214" text-anchor="middle" font-family="'Comic Sans MS','Segoe Print',cursive" font-size="14.5" fill="#111">you.</text></g>
    <text x="392" y="332" text-anchor="end" font-family="Georgia,serif" font-size="11" fill="#111" opacity="0.4">3</text>
  </g>
    
  </svg>