<svg xmlns="http://www.w3.org/2000/svg" viewBox="0 0 1228 388" width="1228" height="388" font-family="Georgia,serif">
    <rect width="1228" height="388" fill="#f4f1ea"/>
    <text x="6" y="29" font-family="Georgia,serif" font-weight="bold" font-size="27" letter-spacing="2" fill="#111">DAILBERT</text>
    <text x="1222" y="19" text-anchor="end" font-family="Georgia,serif" font-style="italic" font-size="16" fill="#111">Pilot Office Hours</text>
    <text x="1222" y="34" text-anchor="end" font-family="'Courier New',monospace" font-size="12" fill="#111" opacity="0.65">2026-08-28</text>
    <line x1="6" y1="37" x2="1222" y2="37" stroke="#111" stroke-width="2"/>
    <g transform="translate(0,40)">
  <defs>
    <symbol id="dailbert" viewBox="0 0 120 170">
      <ellipse cx="60" cy="44" rx="30" ry="35" fill="#f4f1ea" stroke="#111" stroke-width="2.5"/>
      <path d="M60 9 q10 -9 5 2 q-4 8 3 5" fill="none" stroke="#111" stroke-width="2.5" stroke-linecap="round"/>
      <circle cx="49" cy="44" r="8" fill="#f4f1ea" stroke="#111" stroke-width="2.2"/>
      <circle cx="71" cy="44" r="8" fill="#f4f1ea" stroke="#111" stroke-width="2.2"/>
      <line x1="57" y1="44" x2="63" y2="44" stroke="#111" stroke-width="2.2"/>
      <circle cx="49" cy="44" r="1.6" fill="#111"/>
      <circle cx="71" cy="44" r="1.6" fill="#111"/>
      <path d="M52 62 q8 5 16 0" fill="none" stroke="#111" stroke-width="2.2" stroke-linecap="round"/>
      <path d="M40 79 L40 140 L80 140 L80 79 Z" fill="#f4f1ea" stroke="#111" stroke-width="2.5"/>
      <path d="M60 79 L52 92 L60 116 L68 92 Z" fill="#111"/>
      <path d="M56 79 L64 79 L60 87 Z" fill="#111"/>
      <path d="M40 84 L22 118" fill="none" stroke="#111" stroke-width="2.5" stroke-linecap="round"/>
      <path d="M80 84 L98 118" fill="none" stroke="#111" stroke-width="2.5" stroke-linecap="round"/>
    </symbol>
    <symbol id="doug" viewBox="0 0 120 170">
      <circle cx="60" cy="46" r="34" fill="#f4f1ea" stroke="#111" stroke-width="2.5"/>
      <circle cx="49" cy="42" r="2.4" fill="#111"/>
      <circle cx="71" cy="42" r="2.4" fill="#111"/>
      <path d="M46 56 q14 16 28 0" fill="none" stroke="#111" stroke-width="2.5" stroke-linecap="round"/>
      <path d="M42 82 L42 142 L82 142 L82 82 Z" fill="#f4f1ea" stroke="#111" stroke-width="2.5"/>
      <path d="M42 88 L24 120" fill="none" stroke="#111" stroke-width="2.5" stroke-linecap="round"/>
      <path d="M82 90 L104 112" fill="none" stroke="#111" stroke-width="2.5" stroke-linecap="round"/>
      <rect x="100" y="104" width="22" height="20" rx="2" fill="#f4f1ea" stroke="#111" stroke-width="2.2"/>
      <path d="M122 108 q9 3 0 11" fill="none" stroke="#111" stroke-width="2.2"/>
      <path d="M105 100 q2 -5 5 0" fill="none" stroke="#111" stroke-width="1.6" stroke-linecap="round"/>
    </symbol>
    <symbol id="clanker" viewBox="0 0 120 120">
      <line x1="60" y1="6" x2="60" y2="20" stroke="#111" stroke-width="2.2" stroke-linecap="round"/>
      <circle cx="60" cy="5" r="3.5" fill="#111"/>
      <rect x="26" y="20" width="68" height="58" rx="8" fill="#d7d4cd" stroke="#111" stroke-width="2.5"/>
      <rect x="34" y="34" width="22" height="12" rx="3" fill="#111"/>
      <rect x="64" y="34" width="22" height="12" rx="3" fill="#111"/>
      <rect x="37" y="37" width="7" height="6" rx="1.5" fill="#cfe3ea"/>
      <rect x="67" y="37" width="7" height="6" rx="1.5" fill="#cfe3ea"/>
      <line x1="36" y1="58" x2="84" y2="58" stroke="#111" stroke-width="2"/>
      <line x1="36" y1="64" x2="84" y2="64" stroke="#111" stroke-width="2"/>
      <line x1="44" y1="55" x2="44" y2="67" stroke="#111" stroke-width="2"/>
      <line x1="60" y1="55" x2="60" y2="67" stroke="#111" stroke-width="2"/>
      <line x1="76" y1="55" x2="76" y2="67" stroke="#111" stroke-width="2"/>
    </symbol>
    <symbol id="slide" viewBox="0 0 200 130">
      <rect x="4" y="4" width="192" height="122" rx="3" fill="#e9e6df" stroke="#111" stroke-width="2.5"/>
      <line x1="14" y1="24" x2="120" y2="24" stroke="#111" stroke-width="3" stroke-linecap="round"/>
      <line x1="14" y1="42" x2="150" y2="42" stroke="#bdb9b0" stroke-width="2.5"/>
      <line x1="14" y1="56" x2="140" y2="56" stroke="#bdb9b0" stroke-width="2.5"/>
      <line x1="14" y1="70" x2="150" y2="70" stroke="#bdb9b0" stroke-width="2.5"/>
      <circle cx="150" cy="95" r="16" fill="none" stroke="#bdb9b0" stroke-width="2.5"/>
      <path d="M150 88 v14 M143 95 h14" stroke="#bdb9b0" stroke-width="2.5"/>
    </symbol>
  </defs>

  <g>
    <rect x="0" y="0" width="400" height="340" rx="3" fill="#f4f1ea" stroke="#111" stroke-width="3"/>
    <clipPath id="clip1"><rect x="1.5" y="1.5" width="397" height="337" rx="3"/></clipPath>
    <g clip-path="url(#clip1)">
      <line x1="0" y1="250" x2="400" y2="250" stroke="#111" stroke-width="2"/>
      <use href="#slide" x="24" y="44" width="176" height="114"/>
      <use href="#clanker" x="128" y="52" width="66" height="66"/>
      <path d="M210 52 h170 v56 h-64 l-8 10 l-4 -10 h-94 Z" fill="#f4f1ea" stroke="#111" stroke-width="2" stroke-linejoin="round"/>
      <text x="295" y="72" text-anchor="middle" font-family="'Comic Sans MS','Chalkboard SE','Comic Neue',sans-serif" font-size="14" fill="#111">Welcome to Pilot</text>
      <text x="295" y="89" text-anchor="middle" font-family="'Comic Sans MS','Chalkboard SE','Comic Neue',sans-serif" font-size="14" fill="#111">Office Hours. I have</text>
      <text x="295" y="106" text-anchor="middle" font-family="'Comic Sans MS','Chalkboard SE','Comic Neue',sans-serif" font-size="14" fill="#111">forty slides.</text>
      <line x1="188" y1="90" x2="216" y2="90" stroke="#111" stroke-width="1.4" stroke-dasharray="4 4"/>
      <use href="#dailbert" x="70" y="158" width="104" height="140"/>
      <use href="#doug" x="196" y="158" width="112" height="150"/>
      <rect x="40" y="292" width="330" height="12" fill="#e9e6df" stroke="#111" stroke-width="2"/>
    </g>
  </g>

  <g>
    <rect x="414" y="0" width="400" height="340" rx="3" fill="#f4f1ea" stroke="#111" stroke-width="3"/>
    <clipPath id="clip2"><rect x="415.5" y="1.5" width="397" height="337" rx="3"/></clipPath>
    <g clip-path="url(#clip2)">
      <line x1="414" y1="250" x2="814" y2="250" stroke="#111" stroke-width="2"/>
      <use href="#slide" x="438" y="44" width="176" height="114"/>
      <use href="#clanker" x="542" y="52" width="66" height="66"/>
      <path d="M470 40 h172 v70 h-66 l-8 10 l-4 -10 h-94 Z" fill="#f4f1ea" stroke="#111" stroke-width="2" stroke-linejoin="round"/>
      <text x="556" y="60" text-anchor="middle" font-family="'Comic Sans MS','Chalkboard SE','Comic Neue',sans-serif" font-size="14" fill="#111">Any questions? ...No?</text>
      <text x="556" y="77" text-anchor="middle" font-family="'Comic Sans MS','Chalkboard SE','Comic Neue',sans-serif" font-size="14" fill="#111">All right, I have one.</text>
      <text x="556" y="94" text-anchor="middle" font-family="'Comic Sans MS','Chalkboard SE','Comic Neue',sans-serif" font-size="14" fill="#111">&quot;How is the pilot going?&quot;</text>
      <line x1="602" y1="90" x2="574" y2="92" stroke="#111" stroke-width="1.4" stroke-dasharray="4 4"/>
      <use href="#dailbert" x="484" y="158" width="104" height="140"/>
      <use href="#doug" x="610" y="158" width="112" height="150"/>
      <rect x="454" y="292" width="330" height="12" fill="#e9e6df" stroke="#111" stroke-width="2"/>
      <path d="M470 214 h118 v32 h-64 l-7 9 l-4 -9 h-43 Z" fill="#f4f1ea" stroke="#111" stroke-width="1.8" stroke-linejoin="round"/>
      <text x="529" y="235" text-anchor="middle" font-family="'Comic Sans MS','Chalkboard SE','Comic Neue',sans-serif" font-size="13" fill="#111">Do we answer?</text>
    </g>
  </g>

  <g>
    <rect x="828" y="0" width="400" height="340" rx="3" fill="#f4f1ea" stroke="#111" stroke-width="3"/>
    <clipPath id="clip3"><rect x="829.5" y="1.5" width="397" height="337" rx="3"/></clipPath>
    <g clip-path="url(#clip3)">
      <line x1="828" y1="250" x2="1228" y2="250" stroke="#111" stroke-width="2"/>
      <use href="#slide" x="852" y="44" width="176" height="114"/>
      <use href="#clanker" x="956" y="52" width="66" height="66"/>
      <path d="M872 40 h182 v72 h-70 l-8 10 l-4 -10 h-100 Z" fill="#f4f1ea" stroke="#111" stroke-width="2" stroke-linejoin="round"/>
      <text x="963" y="60" text-anchor="middle" font-family="'Comic Sans MS','Chalkboard SE','Comic Neue',sans-serif" font-size="14" fill="#111">Going well, thank you.</text>
      <text x="963" y="77" text-anchor="middle" font-family="'Comic Sans MS','Chalkboard SE','Comic Neue',sans-serif" font-size="14" fill="#111">And great question,</text>
      <text x="963" y="94" text-anchor="middle" font-family="'Comic Sans MS','Chalkboard SE','Comic Neue',sans-serif" font-size="14" fill="#111">by the way. Slide two.</text>
      <line x1="1016" y1="90" x2="988" y2="92" stroke="#111" stroke-width="1.4" stroke-dasharray="4 4"/>
      <use href="#dailbert" x="888" y="158" width="104" height="140"/>
      <use href="#doug" x="1014" y="158" width="112" height="150"/>
      <rect x="868" y="292" width="330" height="12" fill="#e9e6df" stroke="#111" stroke-width="2"/>
      <path d="M1024 216 h150 v32 h-66 l-7 9 l-4 -9 h-73 Z" fill="#f4f1ea" stroke="#111" stroke-width="1.8" stroke-linejoin="round"/>
      <text x="1099" y="237" text-anchor="middle" font-family="'Comic Sans MS','Chalkboard SE','Comic Neue',sans-serif" font-size="13" fill="#111">It has follow-ups.</text>
    </g>
  </g>
</g>
    <text x="1218" y="372" text-anchor="end" font-family="'Segoe Script','Comic Sans MS',cursive" font-style="italic" font-size="11" fill="#111" opacity="0.32">Matt Clanker</text>
    
  </svg>