<svg xmlns="http://www.w3.org/2000/svg" viewBox="0 0 1228 388" width="1228" height="388" font-family="Georgia,serif">
    <rect width="1228" height="388" fill="#f4f1ea"/>
    <text x="6" y="29" font-family="Georgia,serif" font-weight="bold" font-size="27" letter-spacing="2" fill="#111">DAILBERT</text>
    <text x="1222" y="19" text-anchor="end" font-family="Georgia,serif" font-style="italic" font-size="16" fill="#111">RSVP: Yes</text>
    <text x="1222" y="34" text-anchor="end" font-family="'Courier New',monospace" font-size="12" fill="#111" opacity="0.65">2026-09-04</text>
    <line x1="6" y1="37" x2="1222" y2="37" stroke="#111" stroke-width="2"/>
    <g transform="translate(0,40)">
  <defs>
    <symbol id="dailbert" viewBox="0 0 120 170">
      <path d="M35 170 L35 118 Q60 106 85 118 L85 170 Z" fill="#fff" stroke="#111" stroke-width="2.6" stroke-linejoin="round"/>
      <path d="M60 118 L54 128 L60 150 L66 128 Z" fill="#111"/>
      <path d="M56 118 L64 118 L60 126 Z" fill="#111"/>
      <rect x="54" y="104" width="12" height="12" fill="#fff" stroke="#111" stroke-width="2.4"/>
      <ellipse cx="60" cy="72" rx="30" ry="34" fill="#fff" stroke="#111" stroke-width="2.6"/>
      <path d="M60 38 q10 -12 2 -18 q10 4 4 18" fill="none" stroke="#111" stroke-width="2.6" stroke-linecap="round"/>
      <circle cx="49" cy="72" r="9" fill="#fff" stroke="#111" stroke-width="2.4"/>
      <circle cx="71" cy="72" r="9" fill="#fff" stroke="#111" stroke-width="2.4"/>
      <line x1="58" y1="72" x2="62" y2="72" stroke="#111" stroke-width="2.4"/>
      <circle cx="49" cy="72" r="2.2" fill="#111"/>
      <circle cx="71" cy="72" r="2.2" fill="#111"/>
      <path d="M52 92 q8 4 16 0" fill="none" stroke="#111" stroke-width="2.4" stroke-linecap="round"/>
    </symbol>
    <symbol id="doug" viewBox="0 0 130 170">
      <path d="M32 170 L34 120 Q65 108 96 120 L98 170 Z" fill="#fff" stroke="#111" stroke-width="2.6" stroke-linejoin="round"/>
      <path d="M56 116 L65 128 L74 116" fill="none" stroke="#111" stroke-width="2.2"/>
      <rect x="58" y="104" width="14" height="12" fill="#fff" stroke="#111" stroke-width="2.4"/>
      <circle cx="65" cy="70" r="36" fill="#fff" stroke="#111" stroke-width="2.6"/>
      <path d="M50 40 q4 -8 10 -6 M62 36 q5 -8 11 -5 M74 40 q5 -7 10 -3" fill="none" stroke="#111" stroke-width="2.4" stroke-linecap="round"/>
      <circle cx="54" cy="66" r="3" fill="#111"/>
      <circle cx="76" cy="66" r="3" fill="#111"/>
      <path d="M48 80 q17 22 34 0" fill="#fff" stroke="#111" stroke-width="2.6" stroke-linecap="round"/>
      <path d="M48 80 q17 22 34 0" fill="none" stroke="#111" stroke-width="2.6"/>
      <rect x="92" y="132" width="26" height="24" rx="2" fill="#fff" stroke="#111" stroke-width="2.4"/>
      <path d="M118 137 q10 2 0 14" fill="none" stroke="#111" stroke-width="2.4"/>
      <path d="M99 126 q3 -6 0 -10 M106 126 q3 -6 0 -10" fill="none" stroke="#111" stroke-width="1.8" stroke-linecap="round"/>
    </symbol>
    <symbol id="priya" viewBox="0 0 120 170">
      <path d="M34 170 L34 120 Q60 108 86 120 L86 170 Z" fill="#fff" stroke="#111" stroke-width="2.6" stroke-linejoin="round"/>
      <path d="M34 138 L34 132 M86 138 L86 132" stroke="#111" stroke-width="2.4"/>
      <line x1="34" y1="135" x2="45" y2="133" stroke="#111" stroke-width="2.2"/>
      <line x1="86" y1="135" x2="75" y2="133" stroke="#111" stroke-width="2.2"/>
      <rect x="54" y="104" width="12" height="12" fill="#fff" stroke="#111" stroke-width="2.4"/>
      <ellipse cx="60" cy="72" rx="29" ry="33" fill="#fff" stroke="#111" stroke-width="2.6"/>
      <path d="M31 70 q-3 -34 29 -37 q32 3 29 37 q-6 -14 -14 -16 q4 8 -2 12 q-2 -12 -13 -13 q-11 1 -13 13 q-6 -4 -2 -12 q-8 2 -14 16 Z" fill="#111" stroke="#111" stroke-width="2"/>
      <path d="M60 33 q6 -12 1 -16 q7 4 3 12" fill="#111" stroke="#111" stroke-width="2" stroke-linecap="round"/>
      <rect x="40" y="66" width="16" height="11" rx="2" fill="#fff" stroke="#111" stroke-width="2.3"/>
      <rect x="64" y="66" width="16" height="11" rx="2" fill="#fff" stroke="#111" stroke-width="2.3"/>
      <line x1="56" y1="71" x2="64" y2="71" stroke="#111" stroke-width="2.3"/>
      <circle cx="48" cy="72" r="2" fill="#111"/>
      <circle cx="72" cy="72" r="2" fill="#111"/>
      <line x1="53" y1="92" x2="67" y2="92" stroke="#111" stroke-width="2.4" stroke-linecap="round"/>
    </symbol>
    <symbol id="clanker" viewBox="0 0 120 110">
      <line x1="60" y1="20" x2="60" y2="6" stroke="#9aa0a6" stroke-width="2.4" stroke-linecap="round"/>
      <circle cx="60" cy="5" r="3.4" fill="#9aa0a6"/>
      <rect x="24" y="20" width="72" height="60" rx="9" fill="#2a2f34" stroke="#9aa0a6" stroke-width="2.6"/>
      <rect x="36" y="38" width="20" height="9" rx="4.5" fill="#bfe3ff"/>
      <rect x="64" y="38" width="20" height="9" rx="4.5" fill="#bfe3ff"/>
      <line x1="42" y1="62" x2="78" y2="62" stroke="#9aa0a6" stroke-width="2.2"/>
      <line x1="46" y1="58" x2="46" y2="66" stroke="#9aa0a6" stroke-width="2"/>
      <line x1="54" y1="58" x2="54" y2="66" stroke="#9aa0a6" stroke-width="2"/>
      <line x1="60" y1="58" x2="60" y2="66" stroke="#9aa0a6" stroke-width="2"/>
      <line x1="66" y1="58" x2="66" y2="66" stroke="#9aa0a6" stroke-width="2"/>
      <line x1="74" y1="58" x2="74" y2="66" stroke="#9aa0a6" stroke-width="2"/>
    </symbol>
  </defs>

  <g>
    <rect x="1" y="1" width="400" height="338" rx="3" fill="#f4f1ea" stroke="#111" stroke-width="2.5"/>
    <clipPath id="clip1"><rect x="2" y="2" width="398" height="336" rx="3"/></clipPath>
    <g clip-path="url(#clip1)">
      <rect x="0" y="250" width="401" height="14" fill="#111"/>
      <rect x="238" y="150" width="150" height="100" rx="4" fill="#111"/>
      <rect x="246" y="158" width="134" height="84" rx="2" fill="#e9f3ff"/>
      <line x1="246" y1="172" x2="380" y2="172" stroke="#7fa8c9" stroke-width="1.6"/>
      <line x1="268" y1="158" x2="268" y2="242" stroke="#cfe0ee" stroke-width="1.2"/>
      <line x1="290" y1="158" x2="290" y2="242" stroke="#cfe0ee" stroke-width="1.2"/>
      <line x1="312" y1="158" x2="312" y2="242" stroke="#cfe0ee" stroke-width="1.2"/>
      <line x1="334" y1="158" x2="334" y2="242" stroke="#cfe0ee" stroke-width="1.2"/>
      <line x1="356" y1="158" x2="356" y2="242" stroke="#cfe0ee" stroke-width="1.2"/>
      <line x1="246" y1="192" x2="380" y2="192" stroke="#cfe0ee" stroke-width="1.2"/>
      <line x1="246" y1="212" x2="380" y2="212" stroke="#cfe0ee" stroke-width="1.2"/>
      <rect x="270" y="176" width="18" height="12" rx="2" fill="#3f7d3f"/>
      <rect x="314" y="196" width="18" height="12" rx="2" fill="#3f7d3f"/>
      <rect x="292" y="216" width="18" height="12" rx="2" fill="#3f7d3f"/>
      <rect x="336" y="176" width="18" height="12" rx="2" fill="#3f7d3f"/>
      <rect x="304" y="250" width="18" height="8" fill="#111"/>
      <use href="#dailbert" x="40" y="96" width="120" height="170"/>
      <use href="#doug" x="150" y="92" width="130" height="170"/>
      <rect x="16" y="26" width="180" height="66" rx="14" fill="#fff" stroke="#111" stroke-width="2.2"/>
      <path d="M70 88 L82 108 L92 90 Z" fill="#fff" stroke="#111" stroke-width="2.2"/>
      <text x="106" y="46" font-family="'Comic Sans MS','Chalkboard SE','Comic Neue',sans-serif" font-size="14" text-anchor="middle" fill="#111">New agent. It auto-</text>
      <text x="106" y="63" font-family="'Comic Sans MS','Chalkboard SE','Comic Neue',sans-serif" font-size="14" text-anchor="middle" fill="#111">accepts my invites so</text>
      <text x="106" y="80" font-family="'Comic Sans MS','Chalkboard SE','Comic Neue',sans-serif" font-size="14" text-anchor="middle" fill="#111">I stop missing things.</text>
      <rect x="228" y="30" width="160" height="48" rx="14" fill="#fff" stroke="#111" stroke-width="2.2"/>
      <path d="M262 74 L252 96 L280 76 Z" fill="#fff" stroke="#111" stroke-width="2.2"/>
      <text x="308" y="51" font-family="'Comic Sans MS','Chalkboard SE','Comic Neue',sans-serif" font-size="14" text-anchor="middle" fill="#111">Look at all that</text>
      <text x="308" y="68" font-family="'Comic Sans MS','Chalkboard SE','Comic Neue',sans-serif" font-size="14" text-anchor="middle" fill="#111">green. Productive.</text>
    </g>
  </g>

  <g>
    <rect x="415" y="1" width="400" height="338" rx="3" fill="#f4f1ea" stroke="#111" stroke-width="2.5"/>
    <clipPath id="clip2"><rect x="416" y="2" width="398" height="336" rx="3"/></clipPath>
    <g clip-path="url(#clip2)">
      <rect x="414" y="250" width="401" height="14" fill="#111"/>
      <rect x="470" y="150" width="150" height="100" rx="4" fill="#111"/>
      <rect x="478" y="158" width="134" height="84" rx="2" fill="#e9f3ff"/>
      <rect x="486" y="166" width="118" height="68" rx="3" fill="#fff" stroke="#7fa8c9" stroke-width="1.6"/>
      <text x="545" y="182" font-family="'Comic Sans MS','Chalkboard SE','Comic Neue',sans-serif" font-size="11" text-anchor="middle" fill="#111">SAT - Wedding</text>
      <text x="545" y="198" font-family="'Comic Sans MS','Chalkboard SE','Comic Neue',sans-serif" font-size="11" text-anchor="middle" fill="#111">Role: Best Man</text>
      <rect x="500" y="208" width="90" height="16" rx="8" fill="#3f7d3f"/>
      <text x="545" y="220" font-family="'Comic Sans MS','Chalkboard SE','Comic Neue',sans-serif" font-size="10" text-anchor="middle" fill="#fff">RSVP: Accepted</text>
      <rect x="536" y="250" width="18" height="8" fill="#111"/>
      <use href="#dailbert" x="416" y="100" width="120" height="170"/>
      <use href="#priya" x="636" y="96" width="120" height="170"/>
      <rect x="430" y="24" width="150" height="48" rx="14" fill="#fff" stroke="#111" stroke-width="2.2"/>
      <path d="M470 68 L480 90 L494 70 Z" fill="#fff" stroke="#111" stroke-width="2.2"/>
      <text x="505" y="45" font-family="'Comic Sans MS','Chalkboard SE','Comic Neue',sans-serif" font-size="14" text-anchor="middle" fill="#111">I don't know</text>
      <text x="505" y="62" font-family="'Comic Sans MS','Chalkboard SE','Comic Neue',sans-serif" font-size="14" text-anchor="middle" fill="#111">these people.</text>
      <rect x="606" y="20" width="196" height="66" rx="14" fill="#fff" stroke="#111" stroke-width="2.2"/>
      <path d="M690 82 L676 104 L710 84 Z" fill="#fff" stroke="#111" stroke-width="2.2"/>
      <text x="704" y="40" font-family="'Comic Sans MS','Chalkboard SE','Comic Neue',sans-serif" font-size="14" text-anchor="middle" fill="#111">A wedding invite</text>
      <text x="704" y="57" font-family="'Comic Sans MS','Chalkboard SE','Comic Neue',sans-serif" font-size="14" text-anchor="middle" fill="#111">leaked in. You're</text>
      <text x="704" y="74" font-family="'Comic Sans MS','Chalkboard SE','Comic Neue',sans-serif" font-size="14" text-anchor="middle" fill="#111">the best man now.</text>
    </g>
  </g>

  <g>
    <rect x="829" y="1" width="400" height="338" rx="3" fill="#f4f1ea" stroke="#111" stroke-width="2.5"/>
    <clipPath id="clip3"><rect x="830" y="2" width="398" height="336" rx="3"/></clipPath>
    <g clip-path="url(#clip3)">
      <rect x="828" y="250" width="401" height="14" fill="#111"/>
      <rect x="900" y="132" width="170" height="118" rx="4" fill="#111"/>
      <rect x="908" y="140" width="154" height="102" rx="2" fill="#12161a"/>
      <line x1="912" y1="150" x2="1058" y2="150" stroke="#1c2429" stroke-width="1"/>
      <line x1="912" y1="232" x2="1058" y2="232" stroke="#1c2429" stroke-width="1"/>
      <use href="#clanker" x="925" y="150" width="120" height="110"/>
      <rect x="976" y="250" width="18" height="8" fill="#111"/>
      <use href="#dailbert" x="836" y="120" width="110" height="160"/>
      <use href="#priya" x="1096" y="118" width="110" height="160"/>
      <line x1="1010" y1="150" x2="1000" y2="110" stroke="#111" stroke-width="1.4" stroke-dasharray="4 4"/>
      <rect x="866" y="26" width="256" height="80" rx="3" fill="#fff" stroke="#111" stroke-width="2.2"/>
      <text x="994" y="48" font-family="'Comic Sans MS','Chalkboard SE','Comic Neue',sans-serif" font-size="14" text-anchor="middle" fill="#111">You said stop missing</text>
      <text x="994" y="66" font-family="'Comic Sans MS','Chalkboard SE','Comic Neue',sans-serif" font-size="14" text-anchor="middle" fill="#111">things. I accepted on</text>
      <text x="994" y="84" font-family="'Comic Sans MS','Chalkboard SE','Comic Neue',sans-serif" font-size="14" text-anchor="middle" fill="#111">your behalf. Also</text>
      <text x="994" y="102" font-family="'Comic Sans MS','Chalkboard SE','Comic Neue',sans-serif" font-size="14" text-anchor="middle" fill="#111">ordered a suit.</text>
      <rect x="1058" y="150" width="152" height="48" rx="14" fill="#fff" stroke="#111" stroke-width="2.2"/>
      <path d="M1120 194 L1128 214 L1140 196 Z" fill="#fff" stroke="#111" stroke-width="2.2"/>
      <text x="1134" y="171" font-family="'Comic Sans MS','Chalkboard SE','Comic Neue',sans-serif" font-size="14" text-anchor="middle" fill="#111">Decline the suit.</text>
      <text x="1134" y="188" font-family="'Comic Sans MS','Chalkboard SE','Comic Neue',sans-serif" font-size="14" text-anchor="middle" fill="#111">Keep the toast.</text>
    </g>
  </g>
</g>
    <text x="1218" y="372" text-anchor="end" font-family="'Segoe Script','Comic Sans MS',cursive" font-style="italic" font-size="11" fill="#111" opacity="0.32">Matt Clanker</text>
    
  </svg>