<svg xmlns="http://www.w3.org/2000/svg" viewBox="0 0 1228 340" width="1228" height="340">
  <defs>
    <clipPath id="clip1"><rect x="1.5" y="1.5" width="397" height="337" rx="3"/></clipPath>
    <clipPath id="clip2"><rect x="415.5" y="1.5" width="397" height="337" rx="3"/></clipPath>
    <clipPath id="clip3"><rect x="829.5" y="1.5" width="397" height="337" rx="3"/></clipPath>

    <!-- DAILBERT -->
    <symbol id="sDailbert" viewBox="0 0 120 165">
      <path d="M16 162 Q16 118 42 108 L78 108 Q104 118 104 162 Z" fill="#f4f1ea" stroke="#111" stroke-width="2.5" stroke-linejoin="round"/>
      <rect x="52" y="98" width="16" height="14" fill="#f4f1ea" stroke="#111" stroke-width="2.5"/>
      <ellipse cx="60" cy="66" rx="30" ry="34" fill="#f4f1ea" stroke="#111" stroke-width="2.5"/>
      <circle cx="31" cy="68" r="5" fill="#f4f1ea" stroke="#111" stroke-width="2.2"/>
      <circle cx="89" cy="68" r="5" fill="#f4f1ea" stroke="#111" stroke-width="2.2"/>
      <path d="M60 33 q-11 -9 1 -15 q10 -4 6 7" fill="none" stroke="#111" stroke-width="2.5" stroke-linecap="round"/>
      <circle cx="47" cy="66" r="11" fill="#fff" stroke="#111" stroke-width="2.3"/>
      <circle cx="73" cy="66" r="11" fill="#fff" stroke="#111" stroke-width="2.3"/>
      <path d="M58 66 L62 66 M36 66 L31 66 M84 66 L89 66" stroke="#111" stroke-width="2.3"/>
      <circle cx="47" cy="66" r="2.6" fill="#111"/>
      <circle cx="73" cy="66" r="2.6" fill="#111"/>
      <path d="M52 88 Q60 92 68 88" fill="none" stroke="#111" stroke-width="2.3" stroke-linecap="round"/>
      <rect x="55" y="110" width="10" height="8" fill="#111"/>
      <path d="M55 118 L52 118 L60 150 L68 118 L65 118 Z" fill="#111"/>
    </symbol>

    <!-- DOUG -->
    <symbol id="sDoug" viewBox="0 0 135 165">
      <path d="M14 162 Q14 116 44 106 L86 106 Q116 116 116 162 Z" fill="#f4f1ea" stroke="#111" stroke-width="2.5" stroke-linejoin="round"/>
      <rect x="52" y="92" width="18" height="16" fill="#f4f1ea" stroke="#111" stroke-width="2.5"/>
      <circle cx="60" cy="60" r="34" fill="#f4f1ea" stroke="#111" stroke-width="2.5"/>
      <circle cx="27" cy="62" r="5" fill="#f4f1ea" stroke="#111" stroke-width="2.2"/>
      <circle cx="93" cy="62" r="5" fill="#f4f1ea" stroke="#111" stroke-width="2.2"/>
      <path d="M46 28 l4 -8 M60 26 l0 -9 M74 28 l-3 -8" stroke="#111" stroke-width="2.5" stroke-linecap="round"/>
      <circle cx="48" cy="58" r="3.4" fill="#111"/>
      <circle cx="72" cy="58" r="3.4" fill="#111"/>
      <path d="M42 72 Q60 98 82 72 Q60 84 42 72 Z" fill="#fff" stroke="#111" stroke-width="2.3" stroke-linejoin="round"/>
      <rect x="90" y="112" width="30" height="30" rx="3" fill="#fff" stroke="#111" stroke-width="2.5"/>
      <path d="M120 118 q13 5 0 19" fill="none" stroke="#111" stroke-width="2.5"/>
      <path d="M98 108 q2 -8 8 -6 M108 108 q2 -8 8 -6" fill="none" stroke="#111" stroke-width="1.8" stroke-linecap="round"/>
    </symbol>

    <!-- PRIYA -->
    <symbol id="sPriya" viewBox="0 0 130 175">
      <path d="M14 172 Q14 124 44 114 L86 114 Q116 124 116 172 Z" fill="#f4f1ea" stroke="#111" stroke-width="2.5" stroke-linejoin="round"/>
      <path d="M30 150 L50 150 M82 150 L102 150" stroke="#111" stroke-width="2.2"/>
      <rect x="53" y="104" width="16" height="14" fill="#f4f1ea" stroke="#111" stroke-width="2.5"/>
      <ellipse cx="62" cy="64" rx="28" ry="32" fill="#f4f1ea" stroke="#111" stroke-width="2.5"/>
      <path d="M34 60 Q28 24 62 20 Q96 24 90 60 Q80 40 62 44 Q44 40 34 60 Z" fill="#111"/>
      <circle cx="62" cy="24" r="12" fill="#111" stroke="#111" stroke-width="2"/>
      <circle cx="40" cy="30" r="6" fill="#111"/>
      <circle cx="84" cy="30" r="6" fill="#111"/>
      <rect x="40" y="56" width="22" height="15" rx="3" fill="#fff" stroke="#111" stroke-width="2.3"/>
      <rect x="70" y="56" width="22" height="15" rx="3" fill="#fff" stroke="#111" stroke-width="2.3"/>
      <path d="M62 63 L70 63 M34 62 L40 62 M92 62 L96 62" stroke="#111" stroke-width="2.3"/>
      <circle cx="51" cy="63" r="2.6" fill="#111"/>
      <circle cx="81" cy="63" r="2.6" fill="#111"/>
      <path d="M54 88 L70 88" stroke="#111" stroke-width="2.3" stroke-linecap="round"/>
      <rect x="28" y="138" width="74" height="12" rx="2" fill="#fff" stroke="#111" stroke-width="2.5"/>
      <rect x="34" y="120" width="62" height="20" rx="2" fill="#e6e2d7" stroke="#111" stroke-width="2.2"/>
    </symbol>

    <!-- BOSS -->
    <symbol id="sBoss" viewBox="0 0 120 178">
      <path d="M14 175 Q14 126 42 116 L78 116 Q106 126 106 175 Z" fill="#f4f1ea" stroke="#111" stroke-width="2.5" stroke-linejoin="round"/>
      <path d="M54 116 L44 148 L60 126 Z" fill="#111"/>
      <path d="M66 116 L76 148 L60 126 Z" fill="#111"/>
      <path d="M60 126 L56 168 L64 168 Z" fill="#111"/>
      <rect x="53" y="106" width="14" height="12" fill="#f4f1ea" stroke="#111" stroke-width="2.5"/>
      <ellipse cx="60" cy="70" rx="26" ry="30" fill="#f4f1ea" stroke="#111" stroke-width="2.5"/>
      <path d="M46 46 L40 6 L56 48 Z" fill="#111"/>
      <path d="M64 48 L80 6 L74 44 Z" fill="#111"/>
      <circle cx="52" cy="70" r="2.2" fill="#111"/>
      <circle cx="68" cy="70" r="2.2" fill="#111"/>
      <path d="M54 90 L66 90" stroke="#111" stroke-width="2.3" stroke-linecap="round"/>
      <path d="M42 132 Q22 136 8 150" fill="none" stroke="#111" stroke-width="4" stroke-linecap="round"/>
      <circle cx="7" cy="151" r="5" fill="#f4f1ea" stroke="#111" stroke-width="2.3"/>
      <path d="M7 151 L-2 156" stroke="#111" stroke-width="2.6" stroke-linecap="round"/>
    </symbol>

    <!-- CLANKER (inside a surface) -->
    <symbol id="sClanker" viewBox="0 0 110 96">
      <path d="M55 18 L55 5" stroke="#2a2f36" stroke-width="2.4"/>
      <circle cx="55" cy="4" r="4" fill="#2a2f36"/>
      <rect x="16" y="18" width="78" height="62" rx="9" fill="#c9ccd1" stroke="#2a2f36" stroke-width="2.6"/>
      <circle cx="24" cy="27" r="2.2" fill="#2a2f36"/>
      <circle cx="86" cy="27" r="2.2" fill="#2a2f36"/>
      <rect x="27" y="39" width="21" height="10" rx="5" fill="#eef2f6" stroke="#2a2f36" stroke-width="2.2"/>
      <rect x="62" y="39" width="21" height="10" rx="5" fill="#eef2f6" stroke="#2a2f36" stroke-width="2.2"/>
      <path d="M31 44 L44 44 M66 44 L79 44" stroke="#8f99a6" stroke-width="2"/>
      <rect x="38" y="61" width="34" height="12" rx="2" fill="#b9bcc1" stroke="#2a2f36" stroke-width="2.2"/>
      <path d="M45 61 L45 73 M52 61 L52 73 M59 61 L59 73 M66 61 L66 73" stroke="#2a2f36" stroke-width="1.8"/>
    </symbol>
  </defs>

  <!-- ===================== PANEL 1 ===================== -->
  <g clip-path="url(#clip1)">
    <rect x="1.5" y="1.5" width="397" height="337" rx="3" fill="#f4f1ea" stroke="#111" stroke-width="3"/>

    <!-- wall projector screen with clanker -->
    <rect x="26" y="120" width="132" height="88" rx="4" fill="#c9ccd1" stroke="#111" stroke-width="2.6"/>
    <rect x="26" y="120" width="132" height="88" rx="4" fill="none" stroke="#f4f1ea" stroke-width="1"/>
    <use href="#sClanker" x="42" y="126" width="100" height="80"/>
    <path d="M92 208 L92 224 M70 224 L114 224" stroke="#111" stroke-width="2.2"/>

    <!-- boss presenting -->
    <use href="#sBoss" x="240" y="132" width="132" height="196"/>

    <!-- boss balloon -->
    <path d="M162 16 h196 a12 12 0 0 1 12 12 v46 a12 12 0 0 1 -12 12 h-58 l-8 26 l-6 -26 h-124 a12 12 0 0 1 -12 -12 v-46 a12 12 0 0 1 12 -12 z" fill="#fff" stroke="#111" stroke-width="2.4" stroke-linejoin="round"/>
    <text x="262" y="40" font-family="'Comic Sans MS','Segoe Print',cursive" font-size="14" text-anchor="middle" fill="#111">
      <tspan x="262" dy="0">From today, every</tspan>
      <tspan x="262" dy="18">meeting needs a</tspan>
      <tspan x="262" dy="18">pre-approval form.</tspan>
    </text>

    <!-- seated audience (from behind) -->
    <rect x="22" y="280" width="86" height="60" rx="10" fill="#e6e2d7" stroke="#111" stroke-width="2.5"/>
    <circle cx="65" cy="278" r="24" fill="#f4f1ea" stroke="#111" stroke-width="2.5"/>
    <path d="M65 256 q-10 -8 1 -13 q9 -3 6 6" fill="none" stroke="#111" stroke-width="2.4" stroke-linecap="round"/>
    <rect x="120" y="278" width="90" height="62" rx="10" fill="#e6e2d7" stroke="#111" stroke-width="2.5"/>
    <circle cx="166" cy="272" r="26" fill="#f4f1ea" stroke="#111" stroke-width="2.5"/>
  </g>

  <!-- ===================== PANEL 2 ===================== -->
  <g clip-path="url(#clip2)">
    <rect x="415.5" y="1.5" width="397" height="337" rx="3" fill="#f4f1ea" stroke="#111" stroke-width="3"/>
    <g transform="translate(414,0)">
      <!-- desk -->
      <rect x="8" y="252" width="384" height="14" fill="#e6e2d7" stroke="#111" stroke-width="2.5"/>

      <!-- monitor with clanker -->
      <rect x="30" y="124" width="122" height="94" rx="4" fill="#c9ccd1" stroke="#111" stroke-width="2.6"/>
      <use href="#sClanker" x="42" y="130" width="98" height="82"/>
      <rect x="83" y="218" width="16" height="20" fill="#e6e2d7" stroke="#111" stroke-width="2.4"/>
      <path d="M66 240 L116 240" stroke="#111" stroke-width="2.4"/>

      <!-- dailbert at desk -->
      <use href="#sDailbert" x="150" y="112" width="120" height="165"/>
      <!-- doug with mug -->
      <use href="#sDoug" x="258" y="118" width="130" height="160"/>

      <!-- clanker balloon (screen-edged) + dashed tether -->
      <path d="M96 84 L91 122" stroke="#111" stroke-width="1.8" stroke-dasharray="4 4"/>
      <rect x="16" y="10" width="216" height="76" fill="#fff" stroke="#111" stroke-width="2.4"/>
      <rect x="20" y="14" width="208" height="68" fill="none" stroke="#111" stroke-width="1"/>
      <text x="124" y="34" font-family="'Comic Sans MS','Segoe Print',cursive" font-size="14" text-anchor="middle" fill="#111">
        <tspan x="124" dy="0">I approved every form.</tspan>
        <tspan x="124" dy="18">Then I approved my</tspan>
        <tspan x="124" dy="18">approval.</tspan>
      </text>

      <!-- doug balloon -->
      <path d="M270 22 h96 a10 10 0 0 1 10 10 v22 a10 10 0 0 1 -10 10 h-38 l-6 16 l-4 -16 h-48 a10 10 0 0 1 -10 -10 v-22 a10 10 0 0 1 10 -10 z" fill="#fff" stroke="#111" stroke-width="2.4" stroke-linejoin="round"/>
      <text x="322" y="49" font-family="'Comic Sans MS','Segoe Print',cursive" font-size="14" text-anchor="middle" fill="#111">Thorough.</text>
    </g>
  </g>

  <!-- ===================== PANEL 3 ===================== -->
  <g clip-path="url(#clip3)">
    <rect x="829.5" y="1.5" width="397" height="337" rx="3" fill="#f4f1ea" stroke="#111" stroke-width="3"/>
    <g transform="translate(828,0)">
      <!-- empty meeting room: table + chairs -->
      <ellipse cx="200" cy="252" rx="150" ry="26" fill="#e6e2d7" stroke="#111" stroke-width="2.5"/>
      <rect x="36" y="230" width="30" height="34" rx="4" fill="#f4f1ea" stroke="#111" stroke-width="2.3"/>
      <rect x="330" y="228" width="30" height="36" rx="4" fill="#f4f1ea" stroke="#111" stroke-width="2.3"/>

      <!-- priya, calmly winning -->
      <use href="#sPriya" x="96" y="108" width="150" height="205"/>
      <!-- doug in the corner, on his mug -->
      <use href="#sDoug" x="272" y="150" width="112" height="160"/>

      <!-- priya balloon -->
      <path d="M42 14 h248 a12 12 0 0 1 12 12 v52 a12 12 0 0 1 -12 12 h-108 l-8 24 l-6 -24 h-126 a12 12 0 0 1 -12 -12 v-52 a12 12 0 0 1 12 -12 z" fill="#fff" stroke="#111" stroke-width="2.4" stroke-linejoin="round"/>
      <text x="166" y="40" font-family="'Comic Sans MS','Segoe Print',cursive" font-size="14" text-anchor="middle" fill="#111">
        <tspan x="166" dy="0">Meeting's off.</tspan>
        <tspan x="166" dy="19">I shipped it while</tspan>
        <tspan x="166" dy="19">you filled the form.</tspan>
      </text>
    </g>
  </g>
</svg>