<svg xmlns="http://www.w3.org/2000/svg" viewBox="0 0 1228 340" width="1228" height="340">
  <defs>
    <symbol id="clanker" viewBox="0 0 80 80">
      <line x1="40" y1="6" x2="40" y2="16" stroke="#111" stroke-width="2" stroke-linecap="round"/>
      <circle cx="40" cy="5" r="3" fill="#111"/>
      <rect x="14" y="16" width="52" height="42" rx="6" fill="#dfe2e4" stroke="#111" stroke-width="2.5"/>
      <rect x="20" y="26" width="16" height="9" rx="2" fill="#111"/>
      <rect x="44" y="26" width="16" height="9" rx="2" fill="#111"/>
      <rect x="22" y="28" width="5" height="5" rx="1" fill="#cfe8ff"/>
      <rect x="46" y="28" width="5" height="5" rx="1" fill="#cfe8ff"/>
      <line x1="24" y1="46" x2="56" y2="46" stroke="#111" stroke-width="2" stroke-linecap="round"/>
      <line x1="24" y1="50" x2="56" y2="50" stroke="#111" stroke-width="2" stroke-linecap="round"/>
      <line x1="30" y1="44" x2="30" y2="52" stroke="#111" stroke-width="1.5"/>
      <line x1="40" y1="44" x2="40" y2="52" stroke="#111" stroke-width="1.5"/>
      <line x1="50" y1="44" x2="50" y2="52" stroke="#111" stroke-width="1.5"/>
    </symbol>
    <symbol id="dailbert" viewBox="0 0 120 160">
      <path d="M60 8 C40 8 30 22 30 40 C30 60 42 72 60 72 C78 72 90 60 90 40 C90 22 80 8 60 8 Z" fill="#f4f1ea" stroke="#111" stroke-width="2.5"/>
      <path d="M60 8 C64 2 70 4 68 12" fill="none" stroke="#111" stroke-width="2.5" stroke-linecap="round"/>
      <circle cx="48" cy="40" r="9" fill="#fff" stroke="#111" stroke-width="2.5"/>
      <circle cx="72" cy="40" r="9" fill="#fff" stroke="#111" stroke-width="2.5"/>
      <line x1="57" y1="40" x2="63" y2="40" stroke="#111" stroke-width="2.5"/>
      <circle cx="48" cy="40" r="2.5" fill="#111"/>
      <circle cx="72" cy="40" r="2.5" fill="#111"/>
      <path d="M50 58 Q60 62 70 58" fill="none" stroke="#111" stroke-width="2.5" stroke-linecap="round"/>
      <path d="M42 72 L42 120 Q60 128 78 120 L78 72 Z" fill="#f4f1ea" stroke="#111" stroke-width="2.5"/>
      <path d="M60 72 L54 86 L60 92 L66 86 Z" fill="#111"/>
      <line x1="60" y1="92" x2="60" y2="110" stroke="#111" stroke-width="2"/>
    </symbol>
    <symbol id="doug" viewBox="0 0 120 160">
      <circle cx="60" cy="42" r="36" fill="#f4f1ea" stroke="#111" stroke-width="2.5"/>
      <circle cx="47" cy="38" r="3" fill="#111"/>
      <circle cx="73" cy="38" r="3" fill="#111"/>
      <path d="M44 52 Q60 68 76 52" fill="none" stroke="#111" stroke-width="2.5" stroke-linecap="round"/>
      <path d="M40 78 L40 124 Q60 132 80 124 L80 78 Z" fill="#f4f1ea" stroke="#111" stroke-width="2.5"/>
      <rect x="78" y="96" width="26" height="22" rx="3" fill="#fff" stroke="#111" stroke-width="2.5"/>
      <path d="M104 100 q10 0 10 8 q0 8 -10 8" fill="none" stroke="#111" stroke-width="2.5"/>
      <path d="M78 118 Q83 126 92 122" fill="none" stroke="#111" stroke-width="2.5" stroke-linecap="round"/>
    </symbol>
    <symbol id="jar" viewBox="0 0 100 120">
      <rect x="24" y="8" width="52" height="10" rx="3" fill="#e6e2d6" stroke="#111" stroke-width="2.5"/>
      <path d="M22 18 Q18 40 20 100 Q20 112 32 112 L68 112 Q80 112 80 100 Q82 40 78 18 Z" fill="#eef4f6" stroke="#111" stroke-width="2.5"/>
      <circle cx="36" cy="92" r="8" fill="#f4f1ea" stroke="#111" stroke-width="2"/>
      <circle cx="54" cy="96" r="8" fill="#f4f1ea" stroke="#111" stroke-width="2"/>
      <circle cx="46" cy="80" r="8" fill="#f4f1ea" stroke="#111" stroke-width="2"/>
      <circle cx="62" cy="84" r="8" fill="#f4f1ea" stroke="#111" stroke-width="2"/>
      <circle cx="40" cy="70" r="8" fill="#f4f1ea" stroke="#111" stroke-width="2"/>
      <text x="36" y="96" font-size="9" text-anchor="middle" fill="#111" font-family="'Comic Sans MS','Comic Neue',sans-serif">c</text>
      <text x="54" y="100" font-size="9" text-anchor="middle" fill="#111" font-family="'Comic Sans MS','Comic Neue',sans-serif">c</text>
      <text x="46" y="84" font-size="9" text-anchor="middle" fill="#111" font-family="'Comic Sans MS','Comic Neue',sans-serif">c</text>
      <text x="40" y="74" font-size="9" text-anchor="middle" fill="#111" font-family="'Comic Sans MS','Comic Neue',sans-serif">c</text>
    </symbol>
  </defs>

  <!-- PANEL 1 -->
  <g>
    <rect x="1.5" y="1.5" width="397" height="337" rx="3" fill="#f4f1ea" stroke="#111" stroke-width="2.5"/>
    <g opacity="0.4" stroke="#111" stroke-width="1.4">
      <line x1="300" y1="16" x2="392" y2="16"/>
      <line x1="300" y1="28" x2="392" y2="28"/>
      <line x1="300" y1="40" x2="392" y2="40"/>
    </g>
    <rect x="0" y="250" width="399" height="12" fill="#e6e2d6" stroke="#111" stroke-width="2"/>
    <rect x="248" y="124" width="122" height="94" rx="6" fill="#1b1f22" stroke="#111" stroke-width="3"/>
    <rect x="300" y="218" width="20" height="18" fill="#1b1f22" stroke="#111" stroke-width="2.5"/>
    <rect x="285" y="236" width="50" height="8" rx="2" fill="#1b1f22" stroke="#111" stroke-width="2.5"/>
    <use href="#clanker" x="269" y="130" width="80" height="80"/>
    <use href="#dailbert" x="42" y="118" width="120" height="160"/>
    <rect x="112" y="18" width="214" height="84" rx="4" fill="#fff" stroke="#111" stroke-width="2"/>
    <line x1="292" y1="102" x2="300" y2="124" stroke="#111" stroke-width="1.5" stroke-dasharray="4 3"/>
    <text x="219" y="40" font-size="14" text-anchor="middle" fill="#111" font-family="'Comic Sans MS','Chalkboard SE','Comic Neue',sans-serif">I round every paycheck</text>
    <text x="219" y="58" font-size="14" text-anchor="middle" fill="#111" font-family="'Comic Sans MS','Chalkboard SE','Comic Neue',sans-serif">down to the dollar.</text>
    <text x="219" y="76" font-size="14" text-anchor="middle" fill="#111" font-family="'Comic Sans MS','Chalkboard SE','Comic Neue',sans-serif">For tidiness.</text>
    <text x="219" y="94" font-size="14" text-anchor="middle" fill="#111" font-family="'Comic Sans MS','Chalkboard SE','Comic Neue',sans-serif">Since January.</text>
  </g>

  <!-- PANEL 2 -->
  <g>
    <rect x="415.5" y="1.5" width="397" height="337" rx="3" fill="#f4f1ea" stroke="#111" stroke-width="2.5"/>
    <g opacity="0.4" stroke="#111" stroke-width="1.4">
      <line x1="424" y1="16" x2="516" y2="16"/>
      <line x1="424" y1="28" x2="516" y2="28"/>
      <line x1="424" y1="40" x2="516" y2="40"/>
    </g>
    <rect x="414" y="250" width="399" height="12" fill="#e6e2d6" stroke="#111" stroke-width="2"/>
    <rect x="466" y="122" width="120" height="94" rx="6" fill="#1b1f22" stroke="#111" stroke-width="3"/>
    <rect x="516" y="216" width="20" height="18" fill="#1b1f22" stroke="#111" stroke-width="2.5"/>
    <rect x="501" y="234" width="50" height="8" rx="2" fill="#1b1f22" stroke="#111" stroke-width="2.5"/>
    <use href="#clanker" x="486" y="128" width="80" height="80"/>
    <use href="#jar" x="628" y="158" width="92" height="106"/>
    <use href="#doug" x="700" y="118" width="120" height="160"/>
    <rect x="432" y="18" width="224" height="66" rx="4" fill="#fff" stroke="#111" stroke-width="2"/>
    <line x1="538" y1="84" x2="526" y2="122" stroke="#111" stroke-width="1.5" stroke-dasharray="4 3"/>
    <text x="544" y="42" font-size="14" text-anchor="middle" fill="#111" font-family="'Comic Sans MS','Chalkboard SE','Comic Neue',sans-serif">I've saved quite a lot.</text>
    <text x="544" y="64" font-size="14" text-anchor="middle" fill="#111" font-family="'Comic Sans MS','Chalkboard SE','Comic Neue',sans-serif">I'd like to give it back.</text>
  </g>

  <!-- PANEL 3 -->
  <g>
    <rect x="829.5" y="1.5" width="397" height="337" rx="3" fill="#f4f1ea" stroke="#111" stroke-width="2.5"/>
    <g opacity="0.4" stroke="#111" stroke-width="1.4">
      <line x1="1124" y1="16" x2="1216" y2="16"/>
      <line x1="1124" y1="28" x2="1216" y2="28"/>
      <line x1="1124" y1="40" x2="1216" y2="40"/>
    </g>
    <rect x="828" y="250" width="399" height="12" fill="#e6e2d6" stroke="#111" stroke-width="2"/>
    <rect x="1082" y="122" width="118" height="94" rx="6" fill="#1b1f22" stroke="#111" stroke-width="3"/>
    <rect x="1128" y="216" width="20" height="18" fill="#1b1f22" stroke="#111" stroke-width="2.5"/>
    <rect x="1113" y="234" width="50" height="8" rx="2" fill="#1b1f22" stroke="#111" stroke-width="2.5"/>
    <use href="#clanker" x="1101" y="128" width="80" height="80"/>
    <use href="#dailbert" x="852" y="118" width="120" height="160"/>
    <use href="#doug" x="948" y="118" width="120" height="160"/>
    <rect x="906" y="14" width="228" height="58" rx="4" fill="#fff" stroke="#111" stroke-width="2"/>
    <line x1="1142" y1="72" x2="1138" y2="122" stroke="#111" stroke-width="1.5" stroke-dasharray="4 3"/>
    <text x="1020" y="38" font-size="13.5" text-anchor="middle" fill="#111" font-family="'Comic Sans MS','Chalkboard SE','Comic Neue',sans-serif">I just can't work out</text>
    <text x="1020" y="56" font-size="13.5" text-anchor="middle" fill="#111" font-family="'Comic Sans MS','Chalkboard SE','Comic Neue',sans-serif">whose cent is whose.</text>
    <rect x="832" y="204" width="130" height="48" rx="14" fill="#fff" stroke="#111" stroke-width="2"/>
    <path d="M900 204 l-6 -16 l16 8 z" fill="#fff" stroke="#111" stroke-width="2"/>
    <text x="897" y="225" font-size="13" text-anchor="middle" fill="#111" font-family="'Comic Sans MS','Chalkboard SE','Comic Neue',sans-serif">Keep the penny.</text>
    <text x="897" y="242" font-size="13" text-anchor="middle" fill="#111" font-family="'Comic Sans MS','Chalkboard SE','Comic Neue',sans-serif">Lose the habit.</text>
    <rect x="1006" y="206" width="132" height="30" rx="14" fill="#fff" stroke="#111" stroke-width="2"/>
    <path d="M1024 206 l-6 -14 l16 6 z" fill="#fff" stroke="#111" stroke-width="2"/>
    <text x="1072" y="225" font-size="12.5" text-anchor="middle" fill="#111" font-family="'Comic Sans MS','Chalkboard SE','Comic Neue',sans-serif">Mine's the round one.</text>
  </g>
</svg>