<svg xmlns="http://www.w3.org/2000/svg" viewBox="0 0 1228 340" width="1228" height="340">
  <defs>
    <!-- DOUG -->
    <symbol id="doug" viewBox="0 0 120 170">
      <path d="M32 168 L32 118 Q32 96 60 96 Q88 96 88 118 L88 168 Z" fill="#f4f1ea" stroke="#111" stroke-width="2.6" stroke-linejoin="round"/>
      <rect x="50" y="86" width="20" height="16" fill="#f4f1ea" stroke="#111" stroke-width="2.6"/>
      <circle cx="60" cy="52" r="36" fill="#f4f1ea" stroke="#111" stroke-width="2.8"/>
      <circle cx="24" cy="52" r="6" fill="#f4f1ea" stroke="#111" stroke-width="2.4"/>
      <circle cx="96" cy="52" r="6" fill="#f4f1ea" stroke="#111" stroke-width="2.4"/>
      <circle cx="48" cy="48" r="3.4" fill="#111"/>
      <circle cx="72" cy="48" r="3.4" fill="#111"/>
      <path d="M42 62 Q60 82 78 62" fill="none" stroke="#111" stroke-width="2.8" stroke-linecap="round"/>
      <path d="M40 20 Q46 12 54 18" fill="none" stroke="#111" stroke-width="2.4" stroke-linecap="round"/>
      <path d="M58 16 Q66 10 74 18" fill="none" stroke="#111" stroke-width="2.4" stroke-linecap="round"/>
    </symbol>

    <!-- DOUG'S MUG -->
    <symbol id="mug" viewBox="0 0 44 44">
      <rect x="8" y="12" width="24" height="24" rx="3" fill="#f4f1ea" stroke="#111" stroke-width="2.6"/>
      <path d="M32 18 Q42 18 42 24 Q42 30 32 30" fill="none" stroke="#111" stroke-width="2.6"/>
      <path d="M14 12 Q14 6 20 8" fill="none" stroke="#111" stroke-width="1.8" stroke-linecap="round"/>
    </symbol>

    <!-- PRIYA -->
    <symbol id="priya" viewBox="0 0 120 170">
      <path d="M30 168 L30 116 Q30 94 60 94 Q90 94 90 116 L90 168 Z" fill="#f4f1ea" stroke="#111" stroke-width="2.6" stroke-linejoin="round"/>
      <path d="M32 122 L32 134" stroke="#111" stroke-width="2.4"/>
      <path d="M88 122 L88 134" stroke="#111" stroke-width="2.4"/>
      <rect x="50" y="84" width="20" height="16" fill="#f4f1ea" stroke="#111" stroke-width="2.6"/>
      <ellipse cx="60" cy="50" rx="31" ry="35" fill="#f4f1ea" stroke="#111" stroke-width="2.8"/>
      <path d="M31 46 Q26 18 48 14 Q54 4 66 10 Q92 10 90 44 Q84 30 72 30 Q64 22 52 28 Q40 26 36 40 Z" fill="#111"/>
      <circle cx="60" cy="12" r="9" fill="#111"/>
      <circle cx="34" cy="44" r="4.5" fill="#111"/>
      <circle cx="86" cy="44" r="4.5" fill="#111"/>
      <rect x="42" y="46" width="16" height="11" rx="2" fill="#f4f1ea" stroke="#111" stroke-width="2.2"/>
      <rect x="62" y="46" width="16" height="11" rx="2" fill="#f4f1ea" stroke="#111" stroke-width="2.2"/>
      <path d="M58 51 L62 51" stroke="#111" stroke-width="2.2"/>
      <circle cx="50" cy="51.5" r="2.2" fill="#111"/>
      <circle cx="70" cy="51.5" r="2.2" fill="#111"/>
      <path d="M52 70 Q60 74 68 70" fill="none" stroke="#111" stroke-width="2.4" stroke-linecap="round"/>
    </symbol>

    <!-- THE CLANKER -->
    <symbol id="clanker" viewBox="0 0 120 120">
      <line x1="60" y1="20" x2="60" y2="8" stroke="#6b6b6b" stroke-width="2.4"/>
      <circle cx="60" cy="6" r="3.2" fill="#8a8a8a"/>
      <rect x="28" y="22" width="64" height="52" rx="7" fill="#cfcfcf" stroke="#6b6b6b" stroke-width="2.6"/>
      <rect x="38" y="38" width="16" height="7" rx="3" fill="#eaeaea" stroke="#7a7a7a" stroke-width="1.6"/>
      <rect x="66" y="38" width="16" height="7" rx="3" fill="#eaeaea" stroke="#7a7a7a" stroke-width="1.6"/>
      <rect x="44" y="56" width="32" height="10" rx="2" fill="#b8b8b8" stroke="#7a7a7a" stroke-width="1.6"/>
      <line x1="50" y1="56" x2="50" y2="66" stroke="#7a7a7a" stroke-width="1.4"/>
      <line x1="56" y1="56" x2="56" y2="66" stroke="#7a7a7a" stroke-width="1.4"/>
      <line x1="62" y1="56" x2="62" y2="66" stroke="#7a7a7a" stroke-width="1.4"/>
      <line x1="68" y1="56" x2="68" y2="66" stroke="#7a7a7a" stroke-width="1.4"/>
    </symbol>

    <!-- The thank-you card -->
    <symbol id="card" viewBox="0 0 80 96">
      <rect x="6" y="6" width="68" height="84" rx="3" fill="#fbfaf6" stroke="#111" stroke-width="2.4"/>
      <path d="M40 30 Q34 22 28 30 Q28 38 40 46 Q52 38 52 30 Q46 22 40 30 Z" fill="none" stroke="#111" stroke-width="2"/>
      <path d="M18 60 h44 M22 68 h36 M20 76 h40" stroke="#111" stroke-width="1.6" stroke-linecap="round"/>
    </symbol>
  </defs>

  <!-- PANEL BORDERS -->
  <rect x="1" y="1" width="400" height="338" rx="3" fill="#f4f1ea" stroke="#111" stroke-width="2.6"/>
  <rect x="414" y="1" width="400" height="338" rx="3" fill="#f4f1ea" stroke="#111" stroke-width="2.6"/>
  <rect x="828" y="1" width="399" height="338" rx="3" fill="#f4f1ea" stroke="#111" stroke-width="2.6"/>

  <!-- ================= PANEL 1 ================= -->
  <g>
    <rect x="40" y="40" width="150" height="112" rx="4" fill="#e6dcc2" stroke="#111" stroke-width="2.6"/>
    <rect x="40" y="40" width="150" height="112" rx="4" fill="none" stroke="#8a7a52" stroke-width="1.2"/>
    <g fill="#b7a678">
      <circle cx="62" cy="64" r="1.3"/><circle cx="96" cy="58" r="1.1"/><circle cx="150" cy="76" r="1.3"/>
      <circle cx="70" cy="110" r="1.1"/><circle cx="132" cy="124" r="1.3"/><circle cx="168" cy="104" r="1.1"/>
      <circle cx="110" cy="92" r="1.1"/><circle cx="55" cy="132" r="1.3"/>
    </g>
    <rect x="52" y="52" width="34" height="26" fill="#fbfaf6" stroke="#111" stroke-width="1.8" transform="rotate(-5 69 65)"/>
    <circle cx="69" cy="55" r="2.6" fill="#111"/>
    <rect x="140" y="102" width="38" height="30" fill="#fbfaf6" stroke="#111" stroke-width="1.8" transform="rotate(4 159 117)"/>
    <circle cx="159" cy="105" r="2.6" fill="#111"/>

    <use href="#doug" x="196" y="150" width="120" height="170"/>
    <path d="M228 202 Q205 190 178 178" fill="none" stroke="#111" stroke-width="2.6" stroke-linecap="round"/>
    <use href="#card" x="150" y="122" width="66" height="80"/>
    <use href="#mug" x="292" y="196" width="40" height="40"/>

    <path d="M250 44 Q250 26 300 26 L372 26 Q392 26 392 44 L392 64 Q392 82 372 82 L322 82 L308 96 L308 82 L300 82 Q250 82 250 64 Z" fill="#fff" stroke="#111" stroke-width="2.2"/>
    <text x="321" y="48" font-family="'Comic Sans MS','Comic Neue',sans-serif" font-size="13" text-anchor="middle" fill="#111">Made Ravi a</text>
    <text x="321" y="65" font-family="'Comic Sans MS','Comic Neue',sans-serif" font-size="13" text-anchor="middle" fill="#111">thank-you card.</text>
  </g>

  <!-- ================= PANEL 2 ================= -->
  <g>
    <rect x="446" y="34" width="176" height="120" rx="4" fill="#e6dcc2" stroke="#111" stroke-width="2.6"/>
    <g fill="#b7a678">
      <circle cx="470" cy="64" r="1.3"/><circle cx="540" cy="56" r="1.1"/><circle cx="600" cy="84" r="1.3"/>
      <circle cx="500" cy="124" r="1.1"/><circle cx="580" cy="134" r="1.3"/><circle cx="470" cy="134" r="1.1"/>
    </g>
    <use href="#card" x="468" y="54" width="64" height="78"/>
    <path d="M534 96 Q554 96 566 108" fill="none" stroke="#111" stroke-width="2.6" stroke-linecap="round"/>

    <!-- dark appliance panel screen -->
    <rect x="642" y="48" width="150" height="96" rx="6" fill="#2b2b2b" stroke="#111" stroke-width="2.6"/>
    <rect x="650" y="56" width="134" height="80" rx="4" fill="#333" stroke="#555" stroke-width="1.4"/>
    <g stroke="#4a4a4a" stroke-width="1" opacity="0.7">
      <line x1="656" y1="62" x2="702" y2="62"/><line x1="656" y1="68" x2="702" y2="68"/>
    </g>
    <use href="#clanker" x="664" y="60" width="106" height="106"/>

    <use href="#doug" x="452" y="176" width="120" height="170"/>
    <use href="#mug" x="548" y="222" width="40" height="40"/>

    <path d="M602 168 L650 150" fill="none" stroke="#111" stroke-width="1.4" stroke-dasharray="4 4"/>
    <rect x="470" y="168" width="222" height="66" rx="2" fill="#fff" stroke="#111" stroke-width="2.2"/>
    <rect x="474" y="172" width="214" height="58" rx="1" fill="none" stroke="#111" stroke-width="0.8"/>
    <text x="581" y="188" font-family="'Comic Sans MS','Comic Neue',sans-serif" font-size="13" text-anchor="middle" fill="#111">I can optimize its</text>
    <text x="581" y="205" font-family="'Comic Sans MS','Comic Neue',sans-serif" font-size="13" text-anchor="middle" fill="#111">placement for</text>
    <text x="581" y="222" font-family="'Comic Sans MS','Comic Neue',sans-serif" font-size="13" text-anchor="middle" fill="#111">maximum visibility.</text>
  </g>

  <!-- ================= PANEL 3 ================= -->
  <g>
    <rect x="858" y="34" width="180" height="150" rx="4" fill="#e6dcc2" stroke="#111" stroke-width="2.6"/>
    <g fill="#b7a678">
      <circle cx="884" cy="64" r="1.3"/><circle cx="960" cy="54" r="1.1"/><circle cx="1020" cy="90" r="1.3"/>
      <circle cx="900" cy="154" r="1.1"/><circle cx="1000" cy="154" r="1.3"/>
    </g>
    <use href="#card" x="872" y="108" width="60" height="72"/>
    <circle cx="902" cy="116" r="2.8" fill="#c23"/>
    <circle cx="902" cy="116" r="2.8" fill="none" stroke="#111" stroke-width="1.4"/>

    <use href="#doug" x="856" y="176" width="120" height="170"/>
    <use href="#mug" x="852" y="214" width="40" height="40"/>
    <path d="M900 230 Q888 224 876 232" fill="none" stroke="#111" stroke-width="2.6" stroke-linecap="round"/>

    <use href="#priya" x="1006" y="176" width="120" height="170"/>

    <path d="M842 44 Q842 28 884 28 L946 28 Q966 28 966 44 L966 62 Q966 78 946 78 L908 78 L898 90 L898 78 L884 78 Q842 78 842 62 Z" fill="#fff" stroke="#111" stroke-width="2.2"/>
    <text x="904" y="48" font-family="'Comic Sans MS','Comic Neue',sans-serif" font-size="12.5" text-anchor="middle" fill="#111">He sits right</text>
    <text x="904" y="65" font-family="'Comic Sans MS','Comic Neue',sans-serif" font-size="12.5" text-anchor="middle" fill="#111">there.</text>

    <path d="M1000 46 Q1000 30 1042 30 L1108 30 Q1126 30 1126 46 L1126 66 Q1126 82 1108 82 L1088 82 L1078 94 L1078 82 L1042 82 Q1000 82 1000 66 Z" fill="#fff" stroke="#111" stroke-width="2.2"/>
    <text x="1063" y="50" font-family="'Comic Sans MS','Comic Neue',sans-serif" font-size="12.5" text-anchor="middle" fill="#111">Maximum</text>
    <text x="1063" y="67" font-family="'Comic Sans MS','Comic Neue',sans-serif" font-size="12.5" text-anchor="middle" fill="#111">visibility.</text>
  </g>
</svg>