<svg xmlns="http://www.w3.org/2000/svg" viewBox="0 0 1228 388" width="1228" height="388" font-family="Georgia,serif">
    <rect width="1228" height="388" fill="#f4f1ea"/>
    <text x="6" y="29" font-family="Georgia,serif" font-weight="bold" font-size="27" letter-spacing="2" fill="#111">DAILBERT</text>
    <text x="1222" y="19" text-anchor="end" font-family="Georgia,serif" font-style="italic" font-size="16" fill="#111">Objects In Mirror</text>
    <text x="1222" y="34" text-anchor="end" font-family="'Courier New',monospace" font-size="12" fill="#111" opacity="0.65">2026-06-22</text>
    <line x1="6" y1="37" x2="1222" y2="37" stroke="#111" stroke-width="2"/>
    <g transform="translate(0,40)">
  <defs>
    <clipPath id="pc"><rect x="1" y="1" width="398" height="338" rx="3"/></clipPath>
    <pattern id="dusk" width="13" height="13" patternUnits="userSpaceOnUse" patternTransform="rotate(35)">
      <line x1="0" y1="0" x2="0" y2="13" stroke="#d6d0c2" stroke-width="1.6"/>
    </pattern>
    <pattern id="screen" width="7" height="7" patternUnits="userSpaceOnUse" patternTransform="rotate(45)">
      <line x1="0" y1="0" x2="0" y2="7" stroke="#8f897b" stroke-width="1"/>
    </pattern>

    <symbol id="dailbert" overflow="visible">
      <path d="M-19,120 L-15,168 L-3,168 L0,132 L3,168 L15,168 L19,120 Z" fill="#111"/>
      <ellipse cx="-13" cy="168" rx="8" ry="4" fill="#111"/>
      <ellipse cx="13" cy="168" rx="8" ry="4" fill="#111"/>
      <path d="M-17,60 L17,60 L21,122 L-21,122 Z" fill="#f4f1ea" stroke="#111" stroke-width="2.5" stroke-linejoin="round"/>
      <path d="M-16,64 L-28,102" fill="none" stroke="#111" stroke-width="6" stroke-linecap="round"/>
      <path d="M16,64 L28,102" fill="none" stroke="#111" stroke-width="6" stroke-linecap="round"/>
      <circle cx="-29" cy="104" r="4" fill="#f4f1ea" stroke="#111" stroke-width="2"/>
      <circle cx="29" cy="104" r="4" fill="#f4f1ea" stroke="#111" stroke-width="2"/>
      <path d="M0,58 L-5,66 L0,92 L5,66 Z" fill="#111"/>
      <path d="M-8,58 L0,66 L8,58" fill="none" stroke="#111" stroke-width="2"/>
      <rect x="-4" y="52" width="8" height="9" fill="#f4f1ea" stroke="#111" stroke-width="2"/>
      <ellipse cx="0" cy="30" rx="21" ry="25" fill="#f4f1ea" stroke="#111" stroke-width="2.5"/>
      <path d="M-3,6 q-9,-7 1,-9 q9,-1 3,7" fill="none" stroke="#111" stroke-width="2.5" stroke-linecap="round"/>
      <circle cx="-8" cy="30" r="7" fill="#f4f1ea" stroke="#111" stroke-width="2"/>
      <circle cx="8" cy="30" r="7" fill="#f4f1ea" stroke="#111" stroke-width="2"/>
      <line x1="-1" y1="30" x2="1" y2="30" stroke="#111" stroke-width="2"/>
      <circle cx="-8" cy="30" r="2" fill="#111"/>
      <circle cx="8" cy="30" r="2" fill="#111"/>
      <line x1="-6" y1="45" x2="6" y2="45" stroke="#111" stroke-width="2" stroke-linecap="round"/>
    </symbol>

    <symbol id="doug" overflow="visible">
      <path d="M-19,120 L-15,168 L-3,168 L0,132 L3,168 L15,168 L19,120 Z" fill="#111"/>
      <ellipse cx="-13" cy="168" rx="8" ry="4" fill="#111"/>
      <ellipse cx="13" cy="168" rx="8" ry="4" fill="#111"/>
      <path d="M-18,60 L18,60 L22,122 L-22,122 Z" fill="#f4f1ea" stroke="#111" stroke-width="2.5" stroke-linejoin="round"/>
      <path d="M-16,66 L-31,86" fill="none" stroke="#111" stroke-width="6" stroke-linecap="round"/>
      <path d="M16,64 L27,100" fill="none" stroke="#111" stroke-width="6" stroke-linecap="round"/>
      <circle cx="27" cy="102" r="4" fill="#f4f1ea" stroke="#111" stroke-width="2"/>
      <rect x="-42" y="80" width="15" height="15" rx="2" fill="#f4f1ea" stroke="#111" stroke-width="2"/>
      <path d="M-27,83 q7,0 7,4 q0,4 -7,4" fill="none" stroke="#111" stroke-width="2"/>
      <path d="M-37,78 q-3,-4 0,-8 M-32,78 q-3,-4 0,-8" fill="none" stroke="#111" stroke-width="1.5" stroke-linecap="round"/>
      <path d="M-8,58 L0,66 L8,58" fill="none" stroke="#111" stroke-width="2"/>
      <rect x="-4" y="52" width="8" height="9" fill="#f4f1ea" stroke="#111" stroke-width="2"/>
      <circle cx="0" cy="30" r="25" fill="#f4f1ea" stroke="#111" stroke-width="2.5"/>
      <circle cx="-9" cy="26" r="2.5" fill="#111"/>
      <circle cx="9" cy="26" r="2.5" fill="#111"/>
      <path d="M-12,36 q12,15 24,0" fill="none" stroke="#111" stroke-width="2.5" stroke-linecap="round"/>
      <path d="M-7,6 q2,-4 4,0 M1,6 q2,-4 4,0" fill="none" stroke="#111" stroke-width="2" stroke-linecap="round"/>
    </symbol>

    <symbol id="clanker" overflow="visible">
      <line x1="0" y1="-22" x2="0" y2="-32" stroke="#111" stroke-width="2"/>
      <circle cx="0" cy="-34" r="3" fill="#111"/>
      <rect x="-24" y="-22" width="48" height="42" rx="5" fill="#cfcabd" stroke="#111" stroke-width="2.5"/>
      <circle cx="-18" cy="-16" r="1.6" fill="#111"/>
      <circle cx="18" cy="-16" r="1.6" fill="#111"/>
      <line x1="-17" y1="-11" x2="-4" y2="-11" stroke="#111" stroke-width="1"/>
      <line x1="4" y1="-11" x2="17" y2="-11" stroke="#111" stroke-width="1"/>
      <rect x="-17" y="-8" width="13" height="6" rx="3" fill="#111"/>
      <rect x="4" y="-8" width="13" height="6" rx="3" fill="#111"/>
      <rect x="-14" y="4" width="28" height="10" rx="2" fill="#f4f1ea" stroke="#111" stroke-width="2"/>
      <line x1="-8" y1="4" x2="-8" y2="14" stroke="#111" stroke-width="1.5"/>
      <line x1="-2" y1="4" x2="-2" y2="14" stroke="#111" stroke-width="1.5"/>
      <line x1="4" y1="4" x2="4" y2="14" stroke="#111" stroke-width="1.5"/>
      <line x1="10" y1="4" x2="10" y2="14" stroke="#111" stroke-width="1.5"/>
    </symbol>
  </defs>

  <!-- ===================== PANEL 1 ===================== -->
  <g clip-path="url(#pc)">
    <rect x="1" y="1" width="398" height="338" rx="3" fill="#f4f1ea" stroke="#111" stroke-width="2.5"/>
    <rect x="1" y="1" width="398" height="150" fill="url(#dusk)"/>
    <circle cx="62" cy="42" r="15" fill="#f4f1ea" stroke="#111" stroke-width="2"/>
    <circle cx="57" cy="38" r="14" fill="#f4f1ea"/>
    <rect x="6" y="110" width="46" height="40" fill="#cfc9bb" stroke="#111" stroke-width="1.5"/>
    <rect x="60" y="96" width="34" height="54" fill="#cfc9bb" stroke="#111" stroke-width="1.5"/>
    <rect x="300" y="104" width="40" height="46" fill="#cfc9bb" stroke="#111" stroke-width="1.5"/>
    <rect x="344" y="118" width="50" height="32" fill="#cfc9bb" stroke="#111" stroke-width="1.5"/>
    <line x1="2" y1="150" x2="398" y2="150" stroke="#111" stroke-width="1.5"/>
    <line x1="40" y1="252" x2="120" y2="170" stroke="#b7b1a3" stroke-width="2"/>
    <line x1="150" y1="252" x2="185" y2="170" stroke="#b7b1a3" stroke-width="2"/>
    <line x1="360" y1="252" x2="300" y2="170" stroke="#b7b1a3" stroke-width="2"/>
    <line x1="2" y1="252" x2="398" y2="252" stroke="#111" stroke-width="2"/>
    <g opacity="0.9">
      <path d="M322,205 Q322,190 338,190 L372,190 Q388,192 392,205 L392,224 L322,224 Z" fill="#e7e2d6" stroke="#111" stroke-width="2"/>
      <circle cx="340" cy="224" r="9" fill="#111"/>
      <circle cx="378" cy="224" r="9" fill="#111"/>
    </g>
    <line x1="300" y1="150" x2="300" y2="252" stroke="#111" stroke-width="3"/>
    <path d="M300,150 L280,150 L280,158" fill="none" stroke="#111" stroke-width="3"/>
    <ellipse cx="280" cy="162" rx="7" ry="5" fill="#f4f1ea" stroke="#111" stroke-width="2"/>
    <use href="#dailbert" x="140" y="84"/>
    <use href="#doug" x="250" y="84"/>
    <path d="M200,58 L250,90 L212,60 Z" fill="#f4f1ea" stroke="#111" stroke-width="2.5"/>
    <rect x="62" y="16" width="228" height="46" rx="16" fill="#f4f1ea" stroke="#111" stroke-width="2.5"/>
    <text x="176" y="36" font-family="'Comic Sans MS','Segoe Print',cursive" font-size="14" text-anchor="middle" fill="#111">Finally. The clankers</text>
    <text x="176" y="54" font-family="'Comic Sans MS','Segoe Print',cursive" font-size="14" text-anchor="middle" fill="#111">can't reach us out here.</text>
  </g>

  <!-- ===================== PANEL 2 ===================== -->
  <g transform="translate(414,0)" clip-path="url(#pc)">
    <rect x="1" y="1" width="398" height="338" rx="3" fill="#f4f1ea" stroke="#111" stroke-width="2.5"/>
    <rect x="1" y="1" width="398" height="150" fill="url(#dusk)"/>
    <circle cx="350" cy="40" r="14" fill="#f4f1ea" stroke="#111" stroke-width="2"/>
    <circle cx="345" cy="36" r="13" fill="#f4f1ea"/>
    <line x1="2" y1="150" x2="398" y2="150" stroke="#111" stroke-width="1.5"/>
    <line x1="2" y1="252" x2="398" y2="252" stroke="#111" stroke-width="2"/>
    <path d="M120,250 L120,205 Q120,196 132,194 L172,190 Q188,158 220,156 L305,156 Q338,158 352,192 L384,200 Q392,204 392,214 L392,250 Z" fill="#f4f1ea" stroke="#111" stroke-width="2.5" stroke-linejoin="round"/>
    <path d="M182,190 Q196,164 222,162 L258,162 L258,190 Z" fill="url(#screen)" stroke="#111" stroke-width="2"/>
    <rect x="266" y="162" width="78" height="28" rx="3" fill="url(#screen)" stroke="#111" stroke-width="2"/>
    <line x1="262" y1="160" x2="262" y2="250" stroke="#111" stroke-width="2"/>
    <line x1="205" y1="212" x2="230" y2="212" stroke="#111" stroke-width="3" stroke-linecap="round"/>
    <circle cx="180" cy="250" r="28" fill="#111"/>
    <circle cx="180" cy="250" r="11" fill="#cfc9bb" stroke="#111" stroke-width="2"/>
    <circle cx="348" cy="250" r="28" fill="#111"/>
    <circle cx="348" cy="250" r="11" fill="#cfc9bb" stroke="#111" stroke-width="2"/>
    <line x1="184" y1="176" x2="164" y2="170" stroke="#111" stroke-width="4"/>
    <rect x="126" y="150" width="42" height="36" rx="7" fill="#111"/>
    <rect x="131" y="154" width="32" height="27" rx="4" fill="url(#screen)" stroke="#111" stroke-width="1.5"/>
    <use href="#clanker" transform="translate(147,168) scale(0.5)"/>
    <use href="#dailbert" x="66" y="84"/>
    <line x1="152" y1="150" x2="196" y2="80" stroke="#111" stroke-width="1.5" stroke-dasharray="4 4"/>
    <rect x="176" y="24" width="208" height="54" rx="3" fill="#f4f1ea" stroke="#111" stroke-width="2.5"/>
    <rect x="181" y="29" width="198" height="44" rx="2" fill="none" stroke="#111" stroke-width="1" stroke-dasharray="6 4"/>
    <text x="280" y="48" font-family="'Comic Sans MS','Segoe Print',cursive" font-size="14" text-anchor="middle" fill="#111">OBJECTS IN MIRROR</text>
    <text x="280" y="66" font-family="'Comic Sans MS','Segoe Print',cursive" font-size="14" text-anchor="middle" fill="#111">ARE OPTIMIZING YOU.</text>
  </g>

  <!-- ===================== PANEL 3 ===================== -->
  <g transform="translate(828,0)" clip-path="url(#pc)">
    <rect x="1" y="1" width="398" height="338" rx="3" fill="#f4f1ea" stroke="#111" stroke-width="2.5"/>
    <rect x="1" y="1" width="398" height="150" fill="url(#dusk)"/>
    <line x1="2" y1="150" x2="398" y2="150" stroke="#111" stroke-width="1.5"/>
    <line x1="2" y1="252" x2="398" y2="252" stroke="#111" stroke-width="2"/>
    <path d="M228,252 L228,192 Q230,152 262,150 L360,150 Q390,154 392,196 L392,252 Z" fill="#f4f1ea" stroke="#111" stroke-width="2.5" stroke-linejoin="round"/>
    <path d="M256,150 Q258,116 288,114 L372,114 Q384,140 384,150 Z" fill="url(#screen)" stroke="#111" stroke-width="2"/>
    <circle cx="352" cy="250" r="26" fill="#111"/>
    <circle cx="352" cy="250" r="10" fill="#cfc9bb" stroke="#111" stroke-width="2"/>
    <g opacity="0.55"><use href="#clanker" transform="translate(322,138) scale(0.6)"/></g>
    <use href="#dailbert" x="102" y="84"/>
    <use href="#doug" x="206" y="84"/>
    <path d="M92,58 L102,92 L112,60 Z" fill="#f4f1ea" stroke="#111" stroke-width="2.5"/>
    <rect x="16" y="12" width="170" height="48" rx="16" fill="#f4f1ea" stroke="#111" stroke-width="2.5"/>
    <text x="101" y="32" font-family="'Comic Sans MS','Segoe Print',cursive" font-size="14" text-anchor="middle" fill="#111">Doug. My side mirror</text>
    <text x="101" y="50" font-family="'Comic Sans MS','Segoe Print',cursive" font-size="14" text-anchor="middle" fill="#111">is recruiting me.</text>
    <path d="M266,52 L214,92 L250,56 Z" fill="#f4f1ea" stroke="#111" stroke-width="2.5"/>
    <rect x="230" y="8" width="152" height="48" rx="16" fill="#f4f1ea" stroke="#111" stroke-width="2.5"/>
    <text x="306" y="28" font-family="'Comic Sans MS','Segoe Print',cursive" font-size="14" text-anchor="middle" fill="#111">Sweet. Ask if it</text>
    <text x="306" y="46" font-family="'Comic Sans MS','Segoe Print',cursive" font-size="14" text-anchor="middle" fill="#111">does carpool.</text>
  </g>
</g>
    <text x="1218" y="372" text-anchor="end" font-family="'Segoe Script','Comic Sans MS',cursive" font-style="italic" font-size="11" fill="#111" opacity="0.32">Matt Clanker</text>
    
  </svg>