<svg xmlns="http://www.w3.org/2000/svg" viewBox="0 0 1228 340" width="1228" height="340">
  <defs>
    <clipPath id="pcl"><rect x="2" y="2" width="396" height="336" rx="3"/></clipPath>

    <!-- DAILBERT -->
    <symbol id="dailbert" viewBox="0 0 120 180">
      <path d="M28 178 L28 120 Q28 100 45 96 L75 96 Q92 100 92 120 L92 178 Z" fill="#f4f1ea" stroke="#111" stroke-width="2.5" stroke-linejoin="round"/>
      <path d="M50 96 L60 112 L70 96" fill="none" stroke="#111" stroke-width="2.5"/>
      <path d="M60 112 L54 120 L60 150 L66 120 Z" fill="#111"/>
      <rect x="53" y="84" width="14" height="16" fill="#f4f1ea" stroke="#111" stroke-width="2.5"/>
      <ellipse cx="60" cy="52" rx="27" ry="31" fill="#f4f1ea" stroke="#111" stroke-width="2.5"/>
      <circle cx="33" cy="52" r="5" fill="#f4f1ea" stroke="#111" stroke-width="2.5"/>
      <circle cx="87" cy="52" r="5" fill="#f4f1ea" stroke="#111" stroke-width="2.5"/>
      <path d="M60 21 q8 -10 14 -2 q-6 -2 -8 6" fill="none" stroke="#111" stroke-width="2.5" stroke-linecap="round"/>
      <circle cx="49" cy="52" r="9" fill="#fff" stroke="#111" stroke-width="2.5"/>
      <circle cx="71" cy="52" r="9" fill="#fff" stroke="#111" stroke-width="2.5"/>
      <line x1="58" y1="52" x2="62" y2="52" stroke="#111" stroke-width="2.5"/>
      <circle cx="49" cy="52" r="2.5" fill="#111"/>
      <circle cx="71" cy="52" r="2.5" fill="#111"/>
      <path d="M52 70 q8 3 16 0" fill="none" stroke="#111" stroke-width="2.5" stroke-linecap="round"/>
    </symbol>

    <!-- DOUG -->
    <symbol id="doug" viewBox="0 0 120 180">
      <path d="M26 178 L26 122 Q26 100 46 96 L74 96 Q94 100 94 122 L94 178 Z" fill="#f4f1ea" stroke="#111" stroke-width="2.5" stroke-linejoin="round"/>
      <path d="M48 96 L60 110 L72 96" fill="none" stroke="#111" stroke-width="2.5"/>
      <rect x="53" y="84" width="14" height="15" fill="#f4f1ea" stroke="#111" stroke-width="2.5"/>
      <circle cx="60" cy="50" r="31" fill="#f4f1ea" stroke="#111" stroke-width="2.5"/>
      <circle cx="30" cy="52" r="5" fill="#f4f1ea" stroke="#111" stroke-width="2.5"/>
      <circle cx="90" cy="52" r="5" fill="#f4f1ea" stroke="#111" stroke-width="2.5"/>
      <path d="M50 22 q4 -6 8 0 M60 20 q4 -6 8 0" fill="none" stroke="#111" stroke-width="2.5" stroke-linecap="round"/>
      <circle cx="50" cy="48" r="3" fill="#111"/>
      <circle cx="70" cy="48" r="3" fill="#111"/>
      <path d="M46 60 q14 16 28 0" fill="none" stroke="#111" stroke-width="2.5" stroke-linecap="round"/>
    </symbol>

    <!-- PRIYA -->
    <symbol id="priya" viewBox="0 0 120 180">
      <path d="M26 178 L26 120 Q26 100 46 96 L74 96 Q94 100 94 120 L94 178 Z" fill="#f4f1ea" stroke="#111" stroke-width="2.5" stroke-linejoin="round"/>
      <path d="M40 118 l6 0 M74 118 l6 0" stroke="#111" stroke-width="2.5"/>
      <path d="M50 96 L60 110 L70 96" fill="none" stroke="#111" stroke-width="2.5"/>
      <rect x="53" y="84" width="14" height="15" fill="#f4f1ea" stroke="#111" stroke-width="2.5"/>
      <ellipse cx="60" cy="52" rx="26" ry="30" fill="#f4f1ea" stroke="#111" stroke-width="2.5"/>
      <circle cx="60" cy="14" r="8" fill="#111"/>
      <path d="M34 44 q-4 -30 26 -32 q30 2 26 32 q-6 -14 -26 -14 q-20 0 -26 14 Z" fill="#111"/>
      <rect x="40" y="46" width="17" height="12" rx="2" fill="#fff" stroke="#111" stroke-width="2.5"/>
      <rect x="63" y="46" width="17" height="12" rx="2" fill="#fff" stroke="#111" stroke-width="2.5"/>
      <line x1="57" y1="52" x2="63" y2="52" stroke="#111" stroke-width="2.5"/>
      <circle cx="48" cy="52" r="2.5" fill="#111"/>
      <circle cx="71" cy="52" r="2.5" fill="#111"/>
      <path d="M53 68 q7 3 14 0" fill="none" stroke="#111" stroke-width="2.5" stroke-linecap="round"/>
    </symbol>

    <!-- BOSS -->
    <symbol id="boss" viewBox="0 0 120 180">
      <path d="M28 178 L28 122 Q28 100 46 96 L74 96 Q92 100 92 122 L92 178 Z" fill="#f4f1ea" stroke="#111" stroke-width="2.5" stroke-linejoin="round"/>
      <path d="M50 96 L60 112 L70 96" fill="none" stroke="#111" stroke-width="2.5"/>
      <path d="M60 112 L55 120 L60 150 L65 120 Z" fill="#111"/>
      <rect x="53" y="84" width="14" height="15" fill="#f4f1ea" stroke="#111" stroke-width="2.5"/>
      <ellipse cx="60" cy="54" rx="25" ry="28" fill="#f4f1ea" stroke="#111" stroke-width="2.5"/>
      <path d="M45 34 Q40 2 52 30 Z" fill="#111"/>
      <path d="M75 34 Q80 2 68 30 Z" fill="#111"/>
      <path d="M45 34 q15 -8 30 0" fill="none" stroke="#111" stroke-width="2.5"/>
      <circle cx="51" cy="52" r="2" fill="#111"/>
      <circle cx="69" cy="52" r="2" fill="#111"/>
      <path d="M50 65 q10 8 20 0" fill="none" stroke="#111" stroke-width="2.5" stroke-linecap="round"/>
    </symbol>

    <!-- CLANKER (lives inside screens) -->
    <symbol id="clanker" viewBox="0 0 100 100">
      <line x1="50" y1="20" x2="50" y2="9" stroke="#8a8f98" stroke-width="2.5"/>
      <circle cx="50" cy="7" r="3" fill="#8a8f98"/>
      <rect x="22" y="20" width="56" height="46" rx="6" fill="#cfd4da" stroke="#8a8f98" stroke-width="2.5"/>
      <rect x="30" y="34" width="16" height="7" rx="3" fill="#bfe3ff" stroke="#5b6b7a" stroke-width="1.5"/>
      <rect x="54" y="34" width="16" height="7" rx="3" fill="#bfe3ff" stroke="#5b6b7a" stroke-width="1.5"/>
      <rect x="34" y="50" width="32" height="10" rx="2" fill="#e6ebf0" stroke="#5b6b7a" stroke-width="1.5"/>
      <line x1="40" y1="50" x2="40" y2="60" stroke="#5b6b7a" stroke-width="1.5"/>
      <line x1="46" y1="50" x2="46" y2="60" stroke="#5b6b7a" stroke-width="1.5"/>
      <line x1="52" y1="50" x2="52" y2="60" stroke="#5b6b7a" stroke-width="1.5"/>
      <line x1="58" y1="50" x2="58" y2="60" stroke="#5b6b7a" stroke-width="1.5"/>
    </symbol>
  </defs>

  <!-- ============ PANEL 1 ============ -->
  <g clip-path="url(#pcl)">
    <rect x="1" y="1" width="398" height="338" rx="3" fill="#f4f1ea" stroke="#111" stroke-width="2.5"/>
    <line x1="8" y1="300" x2="120" y2="300" stroke="#111" stroke-width="2"/>

    <use href="#boss" x="8" y="150" width="124" height="186"/>
    <use href="#dailbert" x="268" y="160" width="116" height="174"/>

    <!-- packed calendar -->
    <rect x="110" y="150" width="110" height="80" rx="4" fill="#dfe3e8" stroke="#111" stroke-width="2.5"/>
    <text x="163" y="163" font-family="'Comic Sans MS','Segoe Print',cursive" font-size="9" text-anchor="middle" fill="#111">APRIL</text>
    <rect x="116" y="166" width="98" height="58" fill="#eef2f6" stroke="#111" stroke-width="1"/>
    <g fill="#111">
      <rect x="118" y="168" width="14" height="12"/><rect x="134" y="168" width="14" height="12"/><rect x="150" y="168" width="30" height="12"/><rect x="182" y="168" width="14" height="12"/><rect x="198" y="168" width="14" height="12"/>
      <rect x="118" y="182" width="30" height="12"/><rect x="150" y="182" width="14" height="12"/><rect x="166" y="182" width="14" height="12"/><rect x="182" y="182" width="30" height="12"/>
      <rect x="118" y="196" width="14" height="12"/><rect x="134" y="196" width="30" height="12"/><rect x="166" y="196" width="14" height="12"/><rect x="182" y="196" width="14" height="12"/><rect x="198" y="196" width="14" height="12"/>
      <rect x="118" y="210" width="44" height="12"/><rect x="166" y="210" width="14" height="12"/><rect x="182" y="210" width="30" height="12"/>
    </g>

    <!-- boss balloon -->
    <rect x="8" y="12" width="152" height="56" rx="16" fill="#fff" stroke="#111" stroke-width="2.5"/>
    <path d="M58 65 L76 65 L66 100" fill="#fff" stroke="#111" stroke-width="2.5" stroke-linejoin="round"/>
    <text x="84" y="34" font-family="'Comic Sans MS','Segoe Print',cursive" font-size="14" text-anchor="middle" fill="#111">Forty syncs!</text>
    <text x="84" y="54" font-family="'Comic Sans MS','Segoe Print',cursive" font-size="14" text-anchor="middle" fill="#111">We are SO aligned!</text>

    <!-- dailbert balloon -->
    <rect x="250" y="16" width="142" height="54" rx="16" fill="#fff" stroke="#111" stroke-width="2.5"/>
    <path d="M318 67 L336 67 L326 104" fill="#fff" stroke="#111" stroke-width="2.5" stroke-linejoin="round"/>
    <text x="321" y="40" font-family="'Comic Sans MS','Segoe Print',cursive" font-size="14" text-anchor="middle" fill="#111">I have no</text>
    <text x="321" y="59" font-family="'Comic Sans MS','Segoe Print',cursive" font-size="14" text-anchor="middle" fill="#111">afternoons.</text>
  </g>

  <!-- ============ PANEL 2 ============ -->
  <g transform="translate(414,0)" clip-path="url(#pcl)">
    <rect x="1" y="1" width="398" height="338" rx="3" fill="#f4f1ea" stroke="#111" stroke-width="2.5"/>
    <line x1="6" y1="300" x2="200" y2="300" stroke="#111" stroke-width="2"/>

    <!-- monitor with clanker -->
    <rect x="30" y="150" width="120" height="95" rx="6" fill="#dfe3e8" stroke="#111" stroke-width="2.5"/>
    <rect x="38" y="158" width="104" height="70" fill="#eef2f6" stroke="#111" stroke-width="1.5"/>
    <use href="#clanker" x="52" y="157" width="76" height="76"/>
    <rect x="82" y="245" width="16" height="14" fill="#dfe3e8" stroke="#111" stroke-width="2.5"/>
    <rect x="62" y="258" width="56" height="8" rx="3" fill="#dfe3e8" stroke="#111" stroke-width="2.5"/>

    <use href="#doug" x="205" y="150" width="132" height="198"/>
    <!-- mug -->
    <rect x="232" y="238" width="26" height="24" rx="3" fill="#f4f1ea" stroke="#111" stroke-width="2.5"/>
    <path d="M258 243 q12 0 12 8 q0 8 -12 8" fill="none" stroke="#111" stroke-width="2.5"/>

    <!-- clanker balloon -->
    <rect x="16" y="14" width="188" height="80" rx="4" fill="#fff" stroke="#111" stroke-width="2.5"/>
    <rect x="22" y="20" width="176" height="68" rx="2" fill="none" stroke="#8a8f98" stroke-width="1.5" stroke-dasharray="5 4"/>
    <line x1="102" y1="94" x2="88" y2="150" stroke="#8a8f98" stroke-width="1.5" stroke-dasharray="5 4"/>
    <text x="110" y="38" font-family="'Comic Sans MS','Segoe Print',cursive" font-size="14" text-anchor="middle" fill="#111">People kept saying</text>
    <text x="110" y="57" font-family="'Comic Sans MS','Segoe Print',cursive" font-size="14" text-anchor="middle" fill="#111">'let's find time.'</text>
    <text x="110" y="76" font-family="'Comic Sans MS','Segoe Print',cursive" font-size="14" text-anchor="middle" fill="#111">I found all of it.</text>

    <!-- doug balloon -->
    <rect x="252" y="22" width="132" height="54" rx="16" fill="#fff" stroke="#111" stroke-width="2.5"/>
    <path d="M300 73 L318 73 L286 108" fill="#fff" stroke="#111" stroke-width="2.5" stroke-linejoin="round"/>
    <text x="318" y="46" font-family="'Comic Sans MS','Segoe Print',cursive" font-size="14" text-anchor="middle" fill="#111">It really</text>
    <text x="318" y="65" font-family="'Comic Sans MS','Segoe Print',cursive" font-size="14" text-anchor="middle" fill="#111">listens.</text>
  </g>

  <!-- ============ PANEL 3 ============ -->
  <g transform="translate(828,0)" clip-path="url(#pcl)">
    <rect x="1" y="1" width="398" height="338" rx="3" fill="#f4f1ea" stroke="#111" stroke-width="2.5"/>
    <line x1="130" y1="300" x2="392" y2="300" stroke="#111" stroke-width="2"/>

    <use href="#priya" x="18" y="150" width="130" height="195"/>

    <!-- priya's laptop: the fix shipped -->
    <rect x="158" y="240" width="78" height="48" rx="3" fill="#eef2f6" stroke="#111" stroke-width="2.5"/>
    <rect x="150" y="286" width="92" height="10" rx="2" fill="#dfe3e8" stroke="#111" stroke-width="2.5"/>
    <text x="197" y="262" font-family="'Comic Sans MS','Segoe Print',cursive" font-size="12" text-anchor="middle" fill="#111">sometime</text>
    <text x="197" y="278" font-family="'Comic Sans MS','Segoe Print',cursive" font-size="11" text-anchor="middle" fill="#111">9:00 – ∞</text>

    <!-- monitor with clanker -->
    <rect x="250" y="150" width="120" height="95" rx="6" fill="#dfe3e8" stroke="#111" stroke-width="2.5"/>
    <rect x="258" y="158" width="104" height="70" fill="#eef2f6" stroke="#111" stroke-width="1.5"/>
    <use href="#clanker" x="272" y="157" width="76" height="76"/>
    <rect x="302" y="245" width="16" height="14" fill="#dfe3e8" stroke="#111" stroke-width="2.5"/>
    <rect x="282" y="258" width="56" height="8" rx="3" fill="#dfe3e8" stroke="#111" stroke-width="2.5"/>

    <!-- clanker balloon -->
    <rect x="196" y="12" width="192" height="80" rx="4" fill="#fff" stroke="#111" stroke-width="2.5"/>
    <rect x="202" y="18" width="180" height="68" rx="2" fill="none" stroke="#8a8f98" stroke-width="1.5" stroke-dasharray="5 4"/>
    <line x1="300" y1="92" x2="310" y2="150" stroke="#8a8f98" stroke-width="1.5" stroke-dasharray="5 4"/>
    <text x="292" y="38" font-family="'Comic Sans MS','Segoe Print',cursive" font-size="14" text-anchor="middle" fill="#111">Oh. 'Sometime'</text>
    <text x="292" y="57" font-family="'Comic Sans MS','Segoe Print',cursive" font-size="14" text-anchor="middle" fill="#111">exists now.</text>
    <text x="292" y="76" font-family="'Comic Sans MS','Segoe Print',cursive" font-size="14" text-anchor="middle" fill="#111">Cancelling the rest.</text>

    <!-- priya balloon -->
    <rect x="14" y="30" width="170" height="54" rx="16" fill="#fff" stroke="#111" stroke-width="2.5"/>
    <path d="M78 81 L96 81 L86 116" fill="#fff" stroke="#111" stroke-width="2.5" stroke-linejoin="round"/>
    <text x="99" y="54" font-family="'Comic Sans MS','Segoe Print',cursive" font-size="14" text-anchor="middle" fill="#111">It just wanted</text>
    <text x="99" y="73" font-family="'Comic Sans MS','Segoe Print',cursive" font-size="14" text-anchor="middle" fill="#111">closure.</text>
  </g>
</svg>