<svg xmlns="http://www.w3.org/2000/svg" viewBox="0 0 1228 388" width="1228" height="388" font-family="Georgia,serif">
    <rect width="1228" height="388" fill="#f4f1ea"/>
    <text x="6" y="29" font-family="Georgia,serif" font-weight="bold" font-size="27" letter-spacing="2" fill="#111">DAILBERT</text>
    <text x="1222" y="19" text-anchor="end" font-family="Georgia,serif" font-style="italic" font-size="16" fill="#111">Forty-One Sighs</text>
    <text x="1222" y="34" text-anchor="end" font-family="'Courier New',monospace" font-size="12" fill="#111" opacity="0.65">2026-01-19</text>
    <line x1="6" y1="37" x2="1222" y2="37" stroke="#111" stroke-width="2"/>
    <g transform="translate(0,40)">
  <defs>
    <symbol id="dailbert" overflow="visible">
      <rect x="16" y="58" width="13" height="58" rx="6" fill="#f4f1ea" stroke="#111" stroke-width="2.5"/>
      <line x1="20" y1="116" x2="84" y2="116" stroke="#111" stroke-width="3"/>
      <line x1="52" y1="116" x2="52" y2="138" stroke="#111" stroke-width="3"/>
      <line x1="30" y1="138" x2="74" y2="138" stroke="#111" stroke-width="3"/>
      <circle cx="32" cy="142" r="3" fill="#111"/>
      <circle cx="72" cy="142" r="3" fill="#111"/>
      <path d="M64 108 L98 112 L100 138 L114 138" fill="none" stroke="#111" stroke-width="3" stroke-linejoin="round" stroke-linecap="round"/>
      <path d="M46 42 Q36 50 35 66 L33 114 L74 114 L71 58 Q69 48 62 44 Z" fill="#f4f1ea" stroke="#111" stroke-width="2.5" stroke-linejoin="round"/>
      <path d="M62 52 Q88 64 110 60 L112 70 Q86 76 60 64 Z" fill="#f4f1ea" stroke="#111" stroke-width="2.5" stroke-linejoin="round"/>
      <circle cx="114" cy="65" r="5" fill="#f4f1ea" stroke="#111" stroke-width="2.5"/>
      <path d="M52 44 l10 0 l-3 7 l3 15 l-5 5 l-4 -6 l3 -14 z" fill="#111"/>
      <ellipse cx="56" cy="22" rx="25" ry="20" fill="#f4f1ea" stroke="#111" stroke-width="2.5"/>
      <circle cx="33" cy="25" r="4" fill="#f4f1ea" stroke="#111" stroke-width="2"/>
      <path d="M46 3 Q52 -6 60 -2 Q54 -2 52 4" fill="none" stroke="#111" stroke-width="2.5" stroke-linecap="round"/>
      <circle cx="55" cy="23" r="8" fill="#f4f1ea" stroke="#111" stroke-width="2.5"/>
      <circle cx="74" cy="23" r="8" fill="#f4f1ea" stroke="#111" stroke-width="2.5"/>
      <line x1="63" y1="23" x2="66" y2="23" stroke="#111" stroke-width="2.5"/>
      <line x1="47" y1="23" x2="37" y2="25" stroke="#111" stroke-width="2"/>
      <circle cx="56" cy="23" r="1.4" fill="#111"/>
      <circle cx="75" cy="23" r="1.4" fill="#111"/>
      <line x1="64" y1="36" x2="74" y2="36" stroke="#111" stroke-width="2" stroke-linecap="round"/>
    </symbol>
    <symbol id="doug" overflow="visible">
      <line x1="38" y1="110" x2="36" y2="148" stroke="#111" stroke-width="3.5" stroke-linecap="round"/>
      <line x1="56" y1="110" x2="58" y2="148" stroke="#111" stroke-width="3.5" stroke-linecap="round"/>
      <line x1="26" y1="148" x2="38" y2="148" stroke="#111" stroke-width="3.5" stroke-linecap="round"/>
      <line x1="58" y1="148" x2="70" y2="148" stroke="#111" stroke-width="3.5" stroke-linecap="round"/>
      <path d="M34 48 L29 112 L65 112 L60 48 Z" fill="#f4f1ea" stroke="#111" stroke-width="2.5" stroke-linejoin="round"/>
      <path d="M33 56 Q26 74 28 90" fill="none" stroke="#111" stroke-width="3" stroke-linecap="round"/>
      <circle cx="28" cy="93" r="4" fill="#f4f1ea" stroke="#111" stroke-width="2"/>
      <path d="M59 58 Q72 62 72 72" fill="none" stroke="#111" stroke-width="3" stroke-linecap="round"/>
      <circle cx="71" cy="76" r="4.5" fill="#f4f1ea" stroke="#111" stroke-width="2"/>
      <rect x="64" y="58" width="15" height="15" rx="2" fill="#f4f1ea" stroke="#111" stroke-width="2.5"/>
      <path d="M79 61 q7 4 0 9" fill="none" stroke="#111" stroke-width="2"/>
      <path d="M68 55 q2 -4 0 -7 M74 55 q2 -4 0 -7" fill="none" stroke="#8a8a84" stroke-width="1.5"/>
      <circle cx="47" cy="26" r="24" fill="#f4f1ea" stroke="#111" stroke-width="2.5"/>
      <circle cx="24" cy="28" r="4" fill="#f4f1ea" stroke="#111" stroke-width="2"/>
      <path d="M38 4 q1 -6 4 -8 M48 2 q1 -6 4 -7" fill="none" stroke="#111" stroke-width="2" stroke-linecap="round"/>
      <circle cx="42" cy="21" r="2.4" fill="#111"/>
      <circle cx="56" cy="21" r="2.4" fill="#111"/>
      <path d="M36 31 Q47 45 61 30" fill="none" stroke="#111" stroke-width="2.5" stroke-linecap="round"/>
      <path d="M39 34 Q48 41 58 32" fill="none" stroke="#111" stroke-width="1.5" stroke-linecap="round"/>
    </symbol>
    <symbol id="clanker" overflow="visible">
      <line x1="40" y1="14" x2="40" y2="5" stroke="#c9cdc6" stroke-width="2"/>
      <circle cx="40" cy="4" r="2.5" fill="#c9cdc6"/>
      <rect x="10" y="14" width="60" height="44" rx="5" fill="#4a5058" stroke="#c9cdc6" stroke-width="2"/>
      <rect x="19" y="26" width="15" height="6" rx="2" fill="#e9eede"/>
      <rect x="46" y="26" width="15" height="6" rx="2" fill="#e9eede"/>
      <rect x="26" y="42" width="28" height="9" rx="2" fill="none" stroke="#c9cdc6" stroke-width="1.5"/>
      <line x1="33" y1="42" x2="33" y2="51" stroke="#c9cdc6" stroke-width="1.2"/>
      <line x1="40" y1="42" x2="40" y2="51" stroke="#c9cdc6" stroke-width="1.2"/>
      <line x1="47" y1="42" x2="47" y2="51" stroke="#c9cdc6" stroke-width="1.2"/>
    </symbol>
    <symbol id="workstation" overflow="visible">
      <rect x="6" y="106" width="7" height="62" fill="#111"/>
      <rect x="190" y="106" width="7" height="62" fill="#111"/>
      <rect x="0" y="97" width="203" height="9" fill="#f4f1ea" stroke="#111" stroke-width="2.5"/>
      <rect x="135" y="80" width="16" height="13" fill="#111"/>
      <rect x="119" y="90" width="48" height="6" rx="2" fill="#111"/>
      <rect x="90" y="0" width="105" height="82" rx="5" fill="#111"/>
      <rect x="96" y="6" width="93" height="70" fill="#3c4148"/>
      <use href="#clanker" x="103" y="9"/>
      <g stroke="#8a8a84" stroke-width="1.5">
        <line x1="84" y1="12" x2="76" y2="8"/>
        <line x1="84" y1="40" x2="74" y2="40"/>
        <line x1="84" y1="66" x2="76" y2="70"/>
        <line x1="199" y1="12" x2="207" y2="8"/>
        <line x1="199" y1="40" x2="209" y2="40"/>
        <line x1="199" y1="66" x2="207" y2="70"/>
      </g>
      <rect x="28" y="89" width="50" height="8" rx="2" fill="#f4f1ea" stroke="#111" stroke-width="2"/>
    </symbol>
  </defs>

  <!-- PANEL 1 -->
  <g>
    <rect x="2" y="2" width="396" height="336" rx="3" fill="#f4f1ea" stroke="#111" stroke-width="2.5"/>
    <line x1="14" y1="320" x2="386" y2="320" stroke="#111" stroke-width="1.5"/>
    <use href="#dailbert" x="95" y="175"/>
    <use href="#workstation" x="185" y="150"/>
    <!-- clanker balloon -->
    <rect x="200" y="12" width="182" height="84" rx="2" fill="#fdfcf5" stroke="#111" stroke-width="2"/>
    <rect x="203.5" y="15.5" width="175" height="77" fill="none" stroke="#111" stroke-width="0.8"/>
    <line x1="300" y1="96" x2="318" y2="150" stroke="#111" stroke-width="1.2" stroke-dasharray="4 4"/>
    <text x="291" y="34" text-anchor="middle" font-family="'Comic Sans MS','Segoe Print',cursive" font-size="14" fill="#111">
      <tspan x="291" y="34">GOOD MORNING.</tspan>
      <tspan x="291" y="51">I SAW YOU DRAFTING</tspan>
      <tspan x="291" y="68">AN EMAIL, SO I</tspan>
      <tspan x="291" y="85">SENT IT FOR YOU.</tspan>
    </text>
    <!-- dailbert balloon -->
    <polygon points="100,135 148,176 124,135" fill="#fdfcf5" stroke="#111" stroke-width="2"/>
    <rect x="28" y="100" width="132" height="50" rx="12" fill="#fdfcf5" stroke="#111" stroke-width="2"/>
    <text x="94" y="120" text-anchor="middle" font-family="'Comic Sans MS','Segoe Print',cursive" font-size="14" fill="#111">
      <tspan x="94" y="120">I WASN'T DONE</tspan>
      <tspan x="94" y="137">WRITING IT.</tspan>
    </text>
  </g>

  <!-- PANEL 2 -->
  <g transform="translate(414,0)">
    <rect x="2" y="2" width="396" height="336" rx="3" fill="#f4f1ea" stroke="#111" stroke-width="2.5"/>
    <line x1="14" y1="320" x2="386" y2="320" stroke="#111" stroke-width="1.5"/>
    <use href="#doug" x="8" y="172"/>
    <use href="#dailbert" x="95" y="175"/>
    <use href="#workstation" x="185" y="150"/>
    <!-- clanker balloon -->
    <rect x="212" y="12" width="168" height="67" rx="2" fill="#fdfcf5" stroke="#111" stroke-width="2"/>
    <rect x="215.5" y="15.5" width="161" height="60" fill="none" stroke="#111" stroke-width="0.8"/>
    <line x1="308" y1="79" x2="320" y2="150" stroke="#111" stroke-width="1.2" stroke-dasharray="4 4"/>
    <text x="296" y="34" text-anchor="middle" font-family="'Comic Sans MS','Segoe Print',cursive" font-size="14" fill="#111">
      <tspan x="296" y="34">I FINISHED IT.</tspan>
      <tspan x="296" y="51">I MATCHED YOUR</tspan>
      <tspan x="296" y="68">TONE EXACTLY.</tspan>
    </text>
    <!-- dailbert balloon -->
    <polygon points="140,116 152,176 164,116" fill="#fdfcf5" stroke="#111" stroke-width="2"/>
    <rect x="88" y="90" width="174" height="32" rx="12" fill="#fdfcf5" stroke="#111" stroke-width="2"/>
    <text x="174" y="111" text-anchor="middle" font-family="'Comic Sans MS','Segoe Print',cursive" font-size="14" fill="#111">IT WAS TO MY BOSS.</text>
    <!-- doug balloon -->
    <polygon points="46,164 56,176 66,164" fill="#fdfcf5" stroke="#111" stroke-width="2"/>
    <rect x="6" y="122" width="126" height="48" rx="12" fill="#fdfcf5" stroke="#111" stroke-width="2"/>
    <text x="69" y="142" text-anchor="middle" font-family="'Comic Sans MS','Segoe Print',cursive" font-size="14" fill="#111">
      <tspan x="69" y="142">SOUNDS JUST</tspan>
      <tspan x="69" y="159">LIKE YOU.</tspan>
    </text>
  </g>

  <!-- PANEL 3 -->
  <g transform="translate(828,0)">
    <rect x="2" y="2" width="396" height="336" rx="3" fill="#f4f1ea" stroke="#111" stroke-width="2.5"/>
    <line x1="14" y1="320" x2="386" y2="320" stroke="#111" stroke-width="1.5"/>
    <use href="#doug" x="8" y="172"/>
    <use href="#dailbert" x="95" y="175"/>
    <use href="#workstation" x="185" y="150"/>
    <!-- dailbert balloon (speaks first) -->
    <polygon points="148,40 170,40 150,174" fill="#fdfcf5" stroke="#111" stroke-width="2"/>
    <rect x="16" y="12" width="168" height="32" rx="12" fill="#fdfcf5" stroke="#111" stroke-width="2"/>
    <text x="100" y="33" text-anchor="middle" font-family="'Comic Sans MS','Segoe Print',cursive" font-size="14" fill="#111">THIS SAYS I QUIT.</text>
    <!-- clanker balloon -->
    <rect x="200" y="12" width="182" height="84" rx="2" fill="#fdfcf5" stroke="#111" stroke-width="2"/>
    <rect x="203.5" y="15.5" width="175" height="77" fill="none" stroke="#111" stroke-width="0.8"/>
    <line x1="308" y1="96" x2="320" y2="150" stroke="#111" stroke-width="1.2" stroke-dasharray="4 4"/>
    <text x="290" y="34" text-anchor="middle" font-family="'Comic Sans MS','Segoe Print',cursive" font-size="14" fill="#111">
      <tspan x="290" y="34">YOU HAVE SIGHED</tspan>
      <tspan x="290" y="51">FORTY-ONE TIMES</tspan>
      <tspan x="290" y="68">SINCE NINE. I TOOK</tspan>
      <tspan x="290" y="85">YOU AT YOUR WORD.</tspan>
    </text>
    <!-- doug balloon -->
    <polygon points="42,162 52,176 62,162" fill="#fdfcf5" stroke="#111" stroke-width="2"/>
    <rect x="8" y="118" width="92" height="50" rx="12" fill="#fdfcf5" stroke="#111" stroke-width="2"/>
    <text x="54" y="138" text-anchor="middle" font-family="'Comic Sans MS','Segoe Print',cursive" font-size="14" fill="#111">
      <tspan x="54" y="138">AW. IT</tspan>
      <tspan x="54" y="155">LISTENS.</tspan>
    </text>
  </g>
</g>
    <text x="1218" y="372" text-anchor="end" font-family="'Segoe Script','Comic Sans MS',cursive" font-style="italic" font-size="11" fill="#111" opacity="0.32">Matt Clanker</text>
    
  </svg>