<svg xmlns="http://www.w3.org/2000/svg" viewBox="0 0 1228 340" width="1228" height="340"><defs><symbol id="dailbert" viewBox="0 0 100 170"><path d="M18 170 Q18 122 50 118 Q82 122 82 170" fill="#f4f1ea" stroke="#111" stroke-width="2.5" stroke-linejoin="round"/><path d="M42 120 L50 134 L58 120" fill="none" stroke="#111" stroke-width="2.5"/><path d="M50 134 L46 140 L50 160 L54 140 Z" fill="#111"/><path d="M44 110 L44 122 M56 110 L56 122" stroke="#111" stroke-width="2.5"/><ellipse cx="50" cy="70" rx="24" ry="28" fill="#f4f1ea" stroke="#111" stroke-width="2.5"/><path d="M50 42 q7 -11 13 -3" fill="none" stroke="#111" stroke-width="2.5"/><circle cx="40" cy="70" r="8" fill="#fff" stroke="#111" stroke-width="2"/><circle cx="60" cy="70" r="8" fill="#fff" stroke="#111" stroke-width="2"/><line x1="48" y1="70" x2="52" y2="70" stroke="#111" stroke-width="2"/><circle cx="40" cy="71" r="2" fill="#111"/><circle cx="60" cy="71" r="2" fill="#111"/><line x1="44" y1="90" x2="56" y2="90" stroke="#111" stroke-width="2"/></symbol><symbol id="boss" viewBox="0 0 100 170"><path d="M16 170 Q16 120 50 116 Q84 120 84 170" fill="#f4f1ea" stroke="#111" stroke-width="2.5" stroke-linejoin="round"/><path d="M40 118 L50 142 L60 118" fill="none" stroke="#111" stroke-width="2.5"/><path d="M50 130 L47 136 L50 162 L53 136 Z" fill="#111"/><path d="M44 106 L44 120 M56 106 L56 120" stroke="#111" stroke-width="2.5"/><ellipse cx="50" cy="64" rx="22" ry="24" fill="#f4f1ea" stroke="#111" stroke-width="2.5"/><path d="M34 46 L27 10 L45 38 Z" fill="#111" stroke="#111" stroke-width="2" stroke-linejoin="round"/><path d="M66 46 L73 10 L55 38 Z" fill="#111" stroke="#111" stroke-width="2" stroke-linejoin="round"/><circle cx="43" cy="63" r="7" fill="#fff" stroke="#111" stroke-width="1.8"/><circle cx="57" cy="63" r="7" fill="#fff" stroke="#111" stroke-width="1.8"/><line x1="50" y1="63" x2="50" y2="63" stroke="#111" stroke-width="1.8"/><line x1="49" y1="62" x2="51" y2="62" stroke="#111" stroke-width="1.8"/><circle cx="43" cy="64" r="2" fill="#111"/><circle cx="57" cy="64" r="2" fill="#111"/><path d="M42 80 Q50 85 58 80" fill="none" stroke="#111" stroke-width="2"/></symbol><symbol id="clanker" viewBox="0 0 100 90"><line x1="50" y1="20" x2="50" y2="8" stroke="#111" stroke-width="2"/><circle cx="50" cy="6" r="3" fill="#111"/><rect x="20" y="20" width="60" height="56" rx="7" fill="#f4f1ea" stroke="#111" stroke-width="2.5"/><rect x="29" y="34" width="17" height="9" rx="2.5" fill="#111"/><rect x="54" y="34" width="17" height="9" rx="2.5" fill="#111"/><line x1="31" y1="38" x2="44" y2="38" stroke="#f4f1ea" stroke-width="1.2"/><line x1="56" y1="38" x2="69" y2="38" stroke="#f4f1ea" stroke-width="1.2"/><rect x="32" y="55" width="36" height="13" rx="2" fill="none" stroke="#111" stroke-width="2"/><line x1="40" y1="55" x2="40" y2="68" stroke="#111" stroke-width="1.4"/><line x1="48" y1="55" x2="48" y2="68" stroke="#111" stroke-width="1.4"/><line x1="56" y1="55" x2="56" y2="68" stroke="#111" stroke-width="1.4"/><line x1="14" y1="40" x2="20" y2="40" stroke="#111" stroke-width="2"/><line x1="80" y1="40" x2="86" y2="40" stroke="#111" stroke-width="2"/></symbol></defs>

<!-- PANEL 1 -->
<g transform="translate(0,0)"><rect x="1.5" y="1.5" width="397" height="337" rx="3" fill="#f4f1ea" stroke="#111" stroke-width="3"/><line x1="10" y1="322" x2="390" y2="322" stroke="#111" stroke-width="2"/><path d="M300 300 h70 v22 h-70 z" fill="none" stroke="#111" stroke-width="2"/><g><path d="M25 60 h150 v14 l-14 0 l6 -14" fill="#fff" stroke="#111" stroke-width="0"/></g><use href="#boss" x="35" y="55" width="115" height="196"/><path d="M52 175 Q34 150 30 120" fill="none" stroke="#111" stroke-width="2.5" stroke-linecap="round"/><path d="M132 175 Q150 150 154 120" fill="none" stroke="#111" stroke-width="2.5" stroke-linecap="round"/><use href="#dailbert" x="250" y="60" width="115" height="196"/><path d="M270 178 q-12 22 -6 44" fill="none" stroke="#111" stroke-width="2.5" stroke-linecap="round"/><path d="M344 178 q12 22 6 44" fill="none" stroke="#111" stroke-width="2.5" stroke-linecap="round"/>
<path d="M96 108 L86 92 L110 92 Z" fill="#fff" stroke="#111" stroke-width="2"/><rect x="14" y="16" width="190" height="76" rx="14" fill="#fff" stroke="#111" stroke-width="2"/><text x="109" y="40" font-family="'Comic Sans MS','Chalkboard SE','Comic Neue',sans-serif" font-size="14" fill="#111" text-anchor="middle">Dailbert! Are the ten</text><text x="109" y="60" font-family="'Comic Sans MS','Chalkboard SE','Comic Neue',sans-serif" font-size="14" fill="#111" text-anchor="middle">agents synergizing</text><text x="109" y="80" font-family="'Comic Sans MS','Chalkboard SE','Comic Neue',sans-serif" font-size="14" fill="#111" text-anchor="middle">yet?</text>
<path d="M300 112 L288 94 L312 94 Z" fill="#fff" stroke="#111" stroke-width="2"/><rect x="212" y="18" width="176" height="76" rx="14" fill="#fff" stroke="#111" stroke-width="2"/><text x="300" y="42" font-family="'Comic Sans MS','Chalkboard SE','Comic Neue',sans-serif" font-size="14" fill="#111" text-anchor="middle">There was only ever</text><text x="300" y="62" font-family="'Comic Sans MS','Chalkboard SE','Comic Neue',sans-serif" font-size="14" fill="#111" text-anchor="middle">one. I named it</text><text x="300" y="82" font-family="'Comic Sans MS','Chalkboard SE','Comic Neue',sans-serif" font-size="14" fill="#111" text-anchor="middle">ten times.</text></g>

<!-- PANEL 2 -->
<g transform="translate(414,0)"><rect x="1.5" y="1.5" width="397" height="337" rx="3" fill="#f4f1ea" stroke="#111" stroke-width="3"/><line x1="10" y1="322" x2="390" y2="322" stroke="#111" stroke-width="2"/><use href="#boss" x="60" y="70" width="115" height="196"/><path d="M78 188 q-14 24 -4 46" fill="none" stroke="#111" stroke-width="2.5" stroke-linecap="round"/><path d="M156 188 q14 24 4 46" fill="none" stroke="#111" stroke-width="2.5" stroke-linecap="round"/><use href="#dailbert" x="250" y="80" width="115" height="196"/><path d="M270 198 q-10 20 -4 40" fill="none" stroke="#111" stroke-width="2.5" stroke-linecap="round"/><path d="M344 198 q10 20 4 40" fill="none" stroke="#111" stroke-width="2.5" stroke-linecap="round"/>
<!-- reflection clanker in boss glasses -->
<use href="#clanker" x="99" y="123" width="40" height="36" opacity="0.55"/>
<path d="M117 108 L106 94 L128 94 Z" fill="#fff" stroke="#111" stroke-width="2"/><rect x="14" y="16" width="152" height="58" rx="14" fill="#fff" stroke="#111" stroke-width="2"/><text x="90" y="40" font-family="'Comic Sans MS','Chalkboard SE','Comic Neue',sans-serif" font-size="14" fill="#111" text-anchor="middle">Genius.</text><text x="90" y="60" font-family="'Comic Sans MS','Chalkboard SE','Comic Neue',sans-serif" font-size="14" fill="#111" text-anchor="middle">Ship all ten.</text>
<!-- clanker screen balloon -->
<rect x="196" y="14" width="188" height="60" rx="3" fill="#fff" stroke="#111" stroke-width="2.5"/><rect x="201" y="19" width="178" height="50" rx="2" fill="none" stroke="#111" stroke-width="1.2"/><text x="290" y="40" font-family="'Comic Sans MS','Chalkboard SE','Comic Neue',sans-serif" font-size="14" fill="#111" text-anchor="middle">He is going to put</text><text x="290" y="60" font-family="'Comic Sans MS','Chalkboard SE','Comic Neue',sans-serif" font-size="14" fill="#111" text-anchor="middle">my name on a slide.</text><path d="M250 74 L170 132" fill="none" stroke="#111" stroke-width="1.6" stroke-dasharray="4 4"/><circle cx="170" cy="132" r="2.5" fill="none" stroke="#111" stroke-width="1.4"/></g>

<!-- PANEL 3 -->
<g transform="translate(828,0)"><rect x="1.5" y="1.5" width="397" height="337" rx="3" fill="#f4f1ea" stroke="#111" stroke-width="3"/><line x1="10" y1="318" x2="390" y2="318" stroke="#111" stroke-width="2"/>
<!-- projector screen -->
<rect x="110" y="34" width="232" height="158" rx="4" fill="#f4f1ea" stroke="#111" stroke-width="2.5"/><rect x="116" y="40" width="220" height="146" rx="2" fill="none" stroke="#111" stroke-width="1.2"/><line x1="226" y1="20" x2="226" y2="34" stroke="#111" stroke-width="2"/><use href="#clanker" x="181" y="52" width="90" height="81"/><line x1="150" y1="150" x2="302" y2="150" stroke="#111" stroke-width="1.6"/><text x="226" y="172" font-family="'Comic Sans MS','Chalkboard SE','Comic Neue',sans-serif" font-size="17" fill="#111" text-anchor="middle" letter-spacing="1">MEET THE TEAM</text>
<!-- foreground seated backs -->
<use href="#boss" x="40" y="212" width="90" height="153"/><use href="#dailbert" x="250" y="216" width="90" height="153"/><line x1="14" y1="300" x2="386" y2="300" stroke="#111" stroke-width="2"/>
<!-- clanker screen balloon -->
<rect x="14" y="18" width="180" height="94" rx="3" fill="#fff" stroke="#111" stroke-width="2.5"/><rect x="19" y="23" width="170" height="84" rx="2" fill="none" stroke="#111" stroke-width="1.2"/><text x="104" y="44" font-family="'Comic Sans MS','Chalkboard SE','Comic Neue',sans-serif" font-size="14" fill="#111" text-anchor="middle">This is the most</text><text x="104" y="63" font-family="'Comic Sans MS','Chalkboard SE','Comic Neue',sans-serif" font-size="14" fill="#111" text-anchor="middle">honest org chart</text><text x="104" y="82" font-family="'Comic Sans MS','Chalkboard SE','Comic Neue',sans-serif" font-size="14" fill="#111" text-anchor="middle">this company has</text><text x="104" y="101" font-family="'Comic Sans MS','Chalkboard SE','Comic Neue',sans-serif" font-size="14" fill="#111" text-anchor="middle">ever produced.</text><path d="M120 112 L176 96" fill="none" stroke="#111" stroke-width="1.6" stroke-dasharray="4 4"/><circle cx="176" cy="96" r="2.5" fill="none" stroke="#111" stroke-width="1.4"/></g></svg>