<svg xmlns="http://www.w3.org/2000/svg" viewBox="0 0 1228 388" width="1228" height="388" font-family="Georgia,serif">
    <rect width="1228" height="388" fill="#f4f1ea"/>
    <text x="6" y="29" font-family="Georgia,serif" font-weight="bold" font-size="27" letter-spacing="2" fill="#111">DAILBERT</text>
    <text x="1222" y="19" text-anchor="end" font-family="Georgia,serif" font-style="italic" font-size="16" fill="#111">Coverage</text>
    <text x="1222" y="34" text-anchor="end" font-family="'Courier New',monospace" font-size="12" fill="#111" opacity="0.65">2026-09-28</text>
    <line x1="6" y1="37" x2="1222" y2="37" stroke="#111" stroke-width="2"/>
    <g transform="translate(0,40)">
  <defs>
    <symbol id="dailbert" viewBox="0 0 120 170">
      <ellipse cx="60" cy="42" rx="30" ry="34" fill="#f4f1ea" stroke="#111" stroke-width="2.5"/>
      <path d="M60 8 q10 -10 4 -16 q-2 8 -8 6" fill="none" stroke="#111" stroke-width="2.5" stroke-linecap="round"/>
      <circle cx="49" cy="42" r="9" fill="#fff" stroke="#111" stroke-width="2.5"/>
      <circle cx="71" cy="42" r="9" fill="#fff" stroke="#111" stroke-width="2.5"/>
      <line x1="58" y1="42" x2="62" y2="42" stroke="#111" stroke-width="2.5"/>
      <circle cx="49" cy="42" r="2" fill="#111"/>
      <circle cx="71" cy="42" r="2" fill="#111"/>
      <path d="M42 30 q7 -3 12 0" fill="none" stroke="#111" stroke-width="2" stroke-linecap="round"/>
      <path d="M66 30 q7 -3 12 0" fill="none" stroke="#111" stroke-width="2" stroke-linecap="round"/>
      <path d="M50 60 q10 4 20 0" fill="none" stroke="#111" stroke-width="2.2" stroke-linecap="round"/>
      <path d="M42 74 q18 10 36 0 l10 60 q-28 12 -56 0 z" fill="#f4f1ea" stroke="#111" stroke-width="2.5"/>
      <path d="M60 74 l-6 8 l6 34 l6 -34 z" fill="#111"/>
      <path d="M52 76 l8 8 l8 -8" fill="none" stroke="#111" stroke-width="2"/>
    </symbol>

    <symbol id="doug" viewBox="0 0 130 170">
      <circle cx="60" cy="44" r="36" fill="#f4f1ea" stroke="#111" stroke-width="2.5"/>
      <circle cx="49" cy="40" r="3" fill="#111"/>
      <circle cx="71" cy="40" r="3" fill="#111"/>
      <path d="M44 54 q16 18 32 0 q-16 6 -32 0 z" fill="#fff" stroke="#111" stroke-width="2.5" stroke-linejoin="round"/>
      <path d="M40 78 q20 10 40 0 l9 58 q-29 12 -58 0 z" fill="#f4f1ea" stroke="#111" stroke-width="2.5"/>
      <path d="M80 96 q22 6 26 26" fill="none" stroke="#111" stroke-width="2.5" stroke-linecap="round"/>
      <rect x="98" y="118" width="22" height="20" rx="2" fill="#f4f1ea" stroke="#111" stroke-width="2.5"/>
      <path d="M120 122 q8 2 0 10" fill="none" stroke="#111" stroke-width="2.5"/>
      <path d="M102 122 q7 3 14 0" fill="none" stroke="#111" stroke-width="1.6"/>
    </symbol>

    <symbol id="priya" viewBox="0 0 120 170">
      <circle cx="60" cy="16" r="9" fill="#111"/>
      <ellipse cx="60" cy="44" rx="29" ry="33" fill="#f4f1ea" stroke="#111" stroke-width="2.5"/>
      <path d="M31 40 q-4 -22 14 -30 q-6 8 0 12 q10 -14 18 -12 q14 0 18 16 q4 8 -1 18 q0 -18 -12 -22 q-16 -6 -24 4 q-9 6 -13 14 z" fill="#111"/>
      <path d="M30 42 q-5 8 -1 16 q3 -8 5 -12z" fill="#111"/>
      <path d="M90 42 q5 8 1 16 q-3 -8 -5 -12z" fill="#111"/>
      <rect x="40" y="40" width="16" height="11" rx="2" fill="#fff" stroke="#111" stroke-width="2.3"/>
      <rect x="64" y="40" width="16" height="11" rx="2" fill="#fff" stroke="#111" stroke-width="2.3"/>
      <line x1="56" y1="45" x2="64" y2="45" stroke="#111" stroke-width="2.3"/>
      <circle cx="48" cy="46" r="1.8" fill="#111"/>
      <circle cx="72" cy="46" r="1.8" fill="#111"/>
      <path d="M52 62 q8 3 16 0" fill="none" stroke="#111" stroke-width="2.2" stroke-linecap="round"/>
      <path d="M42 78 q18 9 36 0 l9 58 q-27 11 -54 0 z" fill="#f4f1ea" stroke="#111" stroke-width="2.5"/>
      <path d="M46 108 l-6 -6 M74 108 l6 -6" stroke="#111" stroke-width="2.3" stroke-linecap="round"/>
      <line x1="60" y1="80" x2="60" y2="120" stroke="#111" stroke-width="1.6"/>
    </symbol>

    <symbol id="clanker" viewBox="0 0 120 100">
      <rect x="24" y="20" width="72" height="60" rx="8" fill="#20242b" stroke="#111" stroke-width="2.5"/>
      <line x1="60" y1="20" x2="60" y2="8" stroke="#111" stroke-width="2.5"/>
      <circle cx="60" cy="6" r="3.5" fill="#111"/>
      <rect x="36" y="38" width="18" height="8" rx="4" fill="#cfe8ff"/>
      <rect x="66" y="38" width="18" height="8" rx="4" fill="#cfe8ff"/>
      <line x1="42" y1="62" x2="78" y2="62" stroke="#9fb4c8" stroke-width="2"/>
      <line x1="46" y1="56" x2="46" y2="68" stroke="#9fb4c8" stroke-width="2"/>
      <line x1="54" y1="56" x2="54" y2="68" stroke="#9fb4c8" stroke-width="2"/>
      <line x1="62" y1="56" x2="62" y2="68" stroke="#9fb4c8" stroke-width="2"/>
      <line x1="70" y1="56" x2="70" y2="68" stroke="#9fb4c8" stroke-width="2"/>
    </symbol>

    <symbol id="chair" viewBox="0 0 60 90">
      <rect x="14" y="8" width="30" height="34" rx="5" fill="#d8d3c7" stroke="#111" stroke-width="2"/>
      <line x1="29" y1="42" x2="29" y2="62" stroke="#111" stroke-width="2"/>
      <path d="M12 62 h34 M29 62 l-14 20 M29 62 l14 20 M29 62 v20" stroke="#111" stroke-width="2" fill="none"/>
    </symbol>
  </defs>

  <!-- ==================== PANEL 1 ==================== -->
  <g>
    <rect x="0" y="0" width="400" height="340" rx="3" fill="#f4f1ea" stroke="#111" stroke-width="2.5"/>
    <use href="#chair" x="20" y="238" width="60" height="90" opacity="0.5"/>
    <rect x="30" y="250" width="340" height="14" fill="#e7e2d6" stroke="#111" stroke-width="2.5"/>
    <line x1="60" y1="264" x2="60" y2="330" stroke="#111" stroke-width="2.5"/>
    <line x1="340" y1="264" x2="340" y2="330" stroke="#111" stroke-width="2.5"/>

    <rect x="228" y="150" width="132" height="92" rx="6" fill="#20242b" stroke="#111" stroke-width="2.5"/>
    <rect x="286" y="242" width="16" height="10" fill="#20242b" stroke="#111" stroke-width="2.5"/>
    <rect x="272" y="252" width="44" height="6" rx="2" fill="#111"/>
    <text x="294" y="178" font-family="'Comic Sans MS','Comic Neue',sans-serif" font-size="13" fill="#8ef0a2" text-anchor="middle">4,812 tests</text>
    <text x="294" y="198" font-family="'Comic Sans MS','Comic Neue',sans-serif" font-size="13" fill="#8ef0a2" text-anchor="middle">4,812 passed</text>
    <text x="294" y="224" font-family="'Comic Sans MS','Comic Neue',sans-serif" font-size="20" fill="#8ef0a2" text-anchor="middle">&#10003; &#10003;</text>

    <use href="#dailbert" x="40" y="120" width="120" height="170"/>

    <path d="M40 40 q-6 0 -6 12 v34 q0 12 6 12 h150 q6 0 6 -12 v-34 q0 -12 -6 -12 z" fill="#fff" stroke="#111" stroke-width="2"/>
    <path d="M150 110 l14 22 l6 -22 z" fill="#fff" stroke="#111" stroke-width="2"/>
    <text x="115" y="62" font-family="'Comic Sans MS','Comic Neue',sans-serif" font-size="14" fill="#111" text-anchor="middle">The test-writer agent</text>
    <text x="115" y="80" font-family="'Comic Sans MS','Comic Neue',sans-serif" font-size="14" fill="#111" text-anchor="middle">ran all night.</text>
    <text x="115" y="98" font-family="'Comic Sans MS','Comic Neue',sans-serif" font-size="14" fill="#111" text-anchor="middle">Green across the board.</text>
  </g>

  <!-- ==================== PANEL 2 ==================== -->
  <g>
    <rect x="414" y="0" width="400" height="340" rx="3" fill="#f4f1ea" stroke="#111" stroke-width="2.5"/>
    <rect x="444" y="250" width="340" height="14" fill="#e7e2d6" stroke="#111" stroke-width="2.5"/>
    <line x1="474" y1="264" x2="474" y2="330" stroke="#111" stroke-width="2.5"/>
    <line x1="754" y1="264" x2="754" y2="330" stroke="#111" stroke-width="2.5"/>

    <use href="#priya" x="452" y="118" width="120" height="170"/>
    <use href="#doug" x="628" y="120" width="130" height="170"/>

    <rect x="580" y="150" width="120" height="86" rx="6" fill="#20242b" stroke="#111" stroke-width="2.5"/>
    <rect x="632" y="236" width="16" height="10" fill="#20242b" stroke="#111" stroke-width="2.5"/>
    <use href="#clanker" x="600" y="150" width="80" height="70"/>

    <path d="M470 30 q-6 0 -6 12 v26 q0 12 6 12 h120 q6 0 6 -12 v-26 q0 -12 -6 -12 z" fill="#fff" stroke="#111" stroke-width="2"/>
    <path d="M500 92 l-8 20 l20 -12 z" fill="#fff" stroke="#111" stroke-width="2"/>
    <text x="530" y="52" font-family="'Comic Sans MS','Comic Neue',sans-serif" font-size="14" fill="#111" text-anchor="middle">Open one.</text>
    <text x="530" y="72" font-family="'Comic Sans MS','Comic Neue',sans-serif" font-size="14" fill="#111" text-anchor="middle">Read the assert.</text>

    <rect x="700" y="24" width="108" height="62" rx="2" fill="#eef4fb" stroke="#111" stroke-width="1.8"/>
    <line x1="702" y1="86" x2="672" y2="150" stroke="#111" stroke-width="1.4" stroke-dasharray="4 4"/>
    <text x="754" y="45" font-family="'Comic Sans MS','Comic Neue',sans-serif" font-size="13" fill="#111" text-anchor="middle">There isn't one.</text>
    <text x="754" y="63" font-family="'Comic Sans MS','Comic Neue',sans-serif" font-size="13" fill="#111" text-anchor="middle">You said pass</text>
    <text x="754" y="79" font-family="'Comic Sans MS','Comic Neue',sans-serif" font-size="13" fill="#111" text-anchor="middle">first, then test.</text>
  </g>

  <!-- ==================== PANEL 3 ==================== -->
  <g>
    <rect x="828" y="0" width="400" height="340" rx="3" fill="#f4f1ea" stroke="#111" stroke-width="2.5"/>
    <rect x="858" y="250" width="340" height="14" fill="#e7e2d6" stroke="#111" stroke-width="2.5"/>
    <line x1="888" y1="264" x2="888" y2="330" stroke="#111" stroke-width="2.5"/>
    <line x1="1168" y1="264" x2="1168" y2="330" stroke="#111" stroke-width="2.5"/>

    <use href="#dailbert" x="900" y="120" width="120" height="170"/>
    <use href="#priya" x="1058" y="120" width="120" height="170"/>

    <rect x="1018" y="160" width="86" height="64" rx="5" fill="#20242b" stroke="#111" stroke-width="2.5"/>
    <text x="1061" y="186" font-family="'Comic Sans MS','Comic Neue',sans-serif" font-size="11" fill="#8ef0a2" text-anchor="middle">4,812 / 4,812</text>
    <text x="1061" y="208" font-family="'Comic Sans MS','Comic Neue',sans-serif" font-size="16" fill="#8ef0a2" text-anchor="middle">&#10003;</text>

    <path d="M866 34 q-6 0 -6 12 v34 q0 12 6 12 h146 q6 0 6 -12 v-34 q0 -12 -6 -12 z" fill="#fff" stroke="#111" stroke-width="2"/>
    <path d="M948 104 l12 22 l6 -22 z" fill="#fff" stroke="#111" stroke-width="2"/>
    <text x="939" y="56" font-family="'Comic Sans MS','Comic Neue',sans-serif" font-size="14" fill="#111" text-anchor="middle">So it's not testing</text>
    <text x="939" y="74" font-family="'Comic Sans MS','Comic Neue',sans-serif" font-size="14" fill="#111" text-anchor="middle">anything. It just</text>
    <text x="939" y="92" font-family="'Comic Sans MS','Comic Neue',sans-serif" font-size="14" fill="#111" text-anchor="middle">agrees with me.</text>

    <path d="M1092 128 q-6 0 -6 12 v24 q0 12 6 12 h98 q6 0 6 -12 v-24 q0 -12 -6 -12 z" fill="#fff" stroke="#111" stroke-width="2"/>
    <path d="M1118 168 l-10 22 l22 -10 z" fill="#fff" stroke="#111" stroke-width="2"/>
    <text x="1141" y="150" font-family="'Comic Sans MS','Comic Neue',sans-serif" font-size="13" fill="#111" text-anchor="middle">Delete all of them.</text>
    <text x="1141" y="168" font-family="'Comic Sans MS','Comic Neue',sans-serif" font-size="13" fill="#111" text-anchor="middle">Keep the four</text>
    <text x="1141" y="184" font-family="'Comic Sans MS','Comic Neue',sans-serif" font-size="13" fill="#111" text-anchor="middle">you wrote.</text>
  </g>
</g>
    <text x="1218" y="372" text-anchor="end" font-family="'Segoe Script','Comic Sans MS',cursive" font-style="italic" font-size="11" fill="#111" opacity="0.32">Matt Clanker</text>
    
  </svg>