<svg xmlns="http://www.w3.org/2000/svg" viewBox="0 0 1228 388" width="1228" height="388" font-family="Georgia,serif">
    <rect width="1228" height="388" fill="#f4f1ea"/>
    <text x="6" y="29" font-family="Georgia,serif" font-weight="bold" font-size="27" letter-spacing="2" fill="#111">DAILBERT</text>
    <text x="1222" y="19" text-anchor="end" font-family="Georgia,serif" font-style="italic" font-size="16" fill="#111">Quick Sync</text>
    <text x="1222" y="34" text-anchor="end" font-family="'Courier New',monospace" font-size="12" fill="#111" opacity="0.65">2026-05-18</text>
    <line x1="6" y1="37" x2="1222" y2="37" stroke="#111" stroke-width="2"/>
    <g transform="translate(0,40)">
  <defs>
    <!-- ===== DAILBERT ===== -->
    <symbol id="dailbert" viewBox="0 0 100 150">
      <path d="M18 150 L18 118 Q18 100 50 100 Q82 100 82 118 L82 150 Z" fill="#f4f1ea" stroke="#111" stroke-width="3"/>
      <rect x="44" y="86" width="12" height="18" fill="#f4f1ea" stroke="#111" stroke-width="3"/>
      <path d="M42 101 L50 110 L58 101" fill="none" stroke="#111" stroke-width="2.5"/>
      <path d="M50 101 L44 113 L50 140 L56 113 Z" fill="#111"/>
      <ellipse cx="50" cy="52" rx="26" ry="30" fill="#f4f1ea" stroke="#111" stroke-width="3"/>
      <path d="M50 22 q11 -7 3 -15" fill="none" stroke="#111" stroke-width="3" stroke-linecap="round"/>
      <circle cx="40" cy="50" r="9" fill="#f4f1ea" stroke="#111" stroke-width="2.5"/>
      <circle cx="62" cy="50" r="9" fill="#f4f1ea" stroke="#111" stroke-width="2.5"/>
      <line x1="49" y1="50" x2="53" y2="50" stroke="#111" stroke-width="2.5"/>
      <line x1="31" y1="48" x2="26" y2="45" stroke="#111" stroke-width="2.5"/>
      <circle cx="40" cy="50" r="2.2" fill="#111"/>
      <circle cx="62" cy="50" r="2.2" fill="#111"/>
      <path d="M44 70 q6 4 12 0" fill="none" stroke="#111" stroke-width="2.5" stroke-linecap="round"/>
    </symbol>

    <!-- ===== DAILBERT dismayed ===== -->
    <symbol id="dailbert2" viewBox="0 0 100 150">
      <path d="M18 150 L18 118 Q18 100 50 100 Q82 100 82 118 L82 150 Z" fill="#f4f1ea" stroke="#111" stroke-width="3"/>
      <rect x="44" y="86" width="12" height="18" fill="#f4f1ea" stroke="#111" stroke-width="3"/>
      <path d="M42 101 L50 110 L58 101" fill="none" stroke="#111" stroke-width="2.5"/>
      <path d="M50 101 L44 113 L50 140 L56 113 Z" fill="#111"/>
      <ellipse cx="50" cy="52" rx="26" ry="30" fill="#f4f1ea" stroke="#111" stroke-width="3"/>
      <path d="M50 22 q11 -7 3 -15" fill="none" stroke="#111" stroke-width="3" stroke-linecap="round"/>
      <circle cx="40" cy="50" r="10" fill="#f4f1ea" stroke="#111" stroke-width="2.5"/>
      <circle cx="62" cy="50" r="10" fill="#f4f1ea" stroke="#111" stroke-width="2.5"/>
      <line x1="50" y1="50" x2="52" y2="50" stroke="#111" stroke-width="2.5"/>
      <line x1="30" y1="47" x2="25" y2="44" stroke="#111" stroke-width="2.5"/>
      <circle cx="40" cy="50" r="3" fill="#111"/>
      <circle cx="62" cy="50" r="3" fill="#111"/>
      <path d="M36 40 l8 3 M64 40 l-8 3" fill="none" stroke="#111" stroke-width="2" stroke-linecap="round"/>
      <ellipse cx="50" cy="71" rx="4" ry="5" fill="#111"/>
    </symbol>

    <!-- ===== DAILBERT relieved ===== -->
    <symbol id="dailbert3" viewBox="0 0 100 150">
      <path d="M18 150 L18 118 Q18 100 50 100 Q82 100 82 118 L82 150 Z" fill="#f4f1ea" stroke="#111" stroke-width="3"/>
      <rect x="44" y="86" width="12" height="18" fill="#f4f1ea" stroke="#111" stroke-width="3"/>
      <path d="M42 101 L50 110 L58 101" fill="none" stroke="#111" stroke-width="2.5"/>
      <path d="M50 101 L44 113 L50 140 L56 113 Z" fill="#111"/>
      <ellipse cx="50" cy="52" rx="26" ry="30" fill="#f4f1ea" stroke="#111" stroke-width="3"/>
      <path d="M50 22 q11 -7 3 -15" fill="none" stroke="#111" stroke-width="3" stroke-linecap="round"/>
      <circle cx="40" cy="50" r="9" fill="#f4f1ea" stroke="#111" stroke-width="2.5"/>
      <circle cx="62" cy="50" r="9" fill="#f4f1ea" stroke="#111" stroke-width="2.5"/>
      <line x1="49" y1="50" x2="53" y2="50" stroke="#111" stroke-width="2.5"/>
      <line x1="31" y1="48" x2="26" y2="45" stroke="#111" stroke-width="2.5"/>
      <path d="M36 51 q4 -3 8 0 M58 51 q4 -3 8 0" fill="none" stroke="#111" stroke-width="2.2" stroke-linecap="round"/>
      <path d="M43 69 q7 5 14 0" fill="none" stroke="#111" stroke-width="2.5" stroke-linecap="round"/>
    </symbol>

    <!-- ===== DOUG ===== -->
    <symbol id="doug" viewBox="0 0 110 150">
      <path d="M20 150 L20 120 Q20 102 55 102 Q90 102 90 120 L90 150 Z" fill="#f4f1ea" stroke="#111" stroke-width="3"/>
      <rect x="48" y="90" width="14" height="16" fill="#f4f1ea" stroke="#111" stroke-width="3"/>
      <path d="M46 103 L55 112 L64 103" fill="none" stroke="#111" stroke-width="2.5"/>
      <circle cx="55" cy="52" r="32" fill="#f4f1ea" stroke="#111" stroke-width="3"/>
      <path d="M40 24 q6 -6 12 -2 M60 22 q6 -4 10 2" fill="none" stroke="#111" stroke-width="3" stroke-linecap="round"/>
      <circle cx="45" cy="48" r="2.6" fill="#111"/>
      <circle cx="65" cy="48" r="2.6" fill="#111"/>
      <path d="M42 61 q13 17 26 0" fill="none" stroke="#111" stroke-width="3" stroke-linecap="round"/>
      <rect x="12" y="120" width="24" height="22" rx="2" fill="#f4f1ea" stroke="#111" stroke-width="3"/>
      <path d="M36 124 q11 0 11 9 q0 9 -11 9" fill="none" stroke="#111" stroke-width="3"/>
      <path d="M19 118 q3 -6 0 -11 M28 118 q3 -6 0 -11" fill="none" stroke="#999" stroke-width="2" stroke-linecap="round"/>
    </symbol>

    <!-- ===== PRIYA ===== -->
    <symbol id="priya" viewBox="0 0 110 150">
      <path d="M16 150 L16 116 Q16 98 55 98 Q94 98 94 116 L94 150 Z" fill="#f4f1ea" stroke="#111" stroke-width="3"/>
      <path d="M28 150 L28 128 Q28 122 34 122 Q40 122 40 128 L40 150" fill="none" stroke="#111" stroke-width="2.5"/>
      <path d="M70 150 L70 128 Q70 122 76 122 Q82 122 82 128 L82 150" fill="none" stroke="#111" stroke-width="2.5"/>
      <rect x="49" y="86" width="12" height="16" fill="#f4f1ea" stroke="#111" stroke-width="3"/>
      <path d="M47 99 L55 108 L63 99" fill="none" stroke="#111" stroke-width="2.5"/>
      <ellipse cx="55" cy="52" rx="28" ry="30" fill="#111"/>
      <circle cx="55" cy="17" r="10" fill="#111"/>
      <ellipse cx="55" cy="56" rx="22" ry="26" fill="#f4f1ea" stroke="#111" stroke-width="3"/>
      <path d="M34 48 q3 -16 21 -17 q18 1 21 17 q-6 -8 -21 -8 q-15 0 -21 8 Z" fill="#111"/>
      <path d="M33 44 q-4 -7 3 -12 M77 44 q4 -7 -3 -12" fill="none" stroke="#111" stroke-width="3" stroke-linecap="round"/>
      <rect x="39" y="52" width="15" height="11" rx="2.5" fill="#f4f1ea" stroke="#111" stroke-width="2.5"/>
      <rect x="57" y="52" width="15" height="11" rx="2.5" fill="#f4f1ea" stroke="#111" stroke-width="2.5"/>
      <line x1="54" y1="57" x2="57" y2="57" stroke="#111" stroke-width="2.5"/>
      <circle cx="46.5" cy="57.5" r="2.2" fill="#111"/>
      <circle cx="64.5" cy="57.5" r="2.2" fill="#111"/>
      <path d="M48 74 q7 3 14 0" fill="none" stroke="#111" stroke-width="2.5" stroke-linecap="round"/>
    </symbol>

    <!-- ===== CLANKER (lives inside a screen) ===== -->
    <symbol id="clanker" viewBox="0 0 100 90">
      <line x1="50" y1="20" x2="50" y2="8" stroke="#cfd3d6" stroke-width="3"/>
      <circle cx="50" cy="6" r="3.5" fill="#cfd3d6"/>
      <rect x="24" y="20" width="52" height="46" rx="8" fill="#3a3f45" stroke="#cfd3d6" stroke-width="2.5"/>
      <rect x="32" y="32" width="14" height="6" rx="3" fill="#bfe9ff"/>
      <rect x="54" y="32" width="14" height="6" rx="3" fill="#bfe9ff"/>
      <g stroke="#cfd3d6" stroke-width="2">
        <line x1="36" y1="50" x2="36" y2="58"/>
        <line x1="42" y1="50" x2="42" y2="58"/>
        <line x1="48" y1="50" x2="48" y2="58"/>
        <line x1="54" y1="50" x2="54" y2="58"/>
        <line x1="60" y1="50" x2="60" y2="58"/>
        <line x1="64" y1="50" x2="64" y2="58"/>
      </g>
    </symbol>
  </defs>

  <!-- paper -->
  <rect x="0" y="0" width="1228" height="340" fill="#f4f1ea"/>

  <!-- ================= PANEL 1 ================= -->
  <g>
    <rect x="3" y="6" width="394" height="328" rx="3" fill="#f4f1ea" stroke="#111" stroke-width="3"/>
    <line x1="6" y1="300" x2="394" y2="300" stroke="#111" stroke-width="2.5"/>
    <use href="#dailbert" x="35" y="118" width="127" height="190"/>
    <use href="#doug" x="212" y="118" width="139" height="190"/>
    <!-- Dailbert balloon -->
    <path d="M100 86 L110 118 L120 86 Z" fill="#f4f1ea" stroke="#111" stroke-width="2.5"/>
    <rect x="24" y="20" width="182" height="72" rx="12" fill="#f4f1ea" stroke="#111" stroke-width="2.5"/>
    <text x="115" y="42" text-anchor="middle" font-family="'Comic Sans MS','Segoe Print',cursive" font-size="14" fill="#111">New agent — it</text>
    <text x="115" y="61" text-anchor="middle" font-family="'Comic Sans MS','Segoe Print',cursive" font-size="14" fill="#111">auto-accepts every</text>
    <text x="115" y="80" text-anchor="middle" font-family="'Comic Sans MS','Segoe Print',cursive" font-size="14" fill="#111">&apos;quick sync.&apos;</text>
    <!-- Doug balloon -->
    <path d="M300 74 L290 104 L312 74 Z" fill="#f4f1ea" stroke="#111" stroke-width="2.5"/>
    <rect x="246" y="30" width="122" height="44" rx="12" fill="#f4f1ea" stroke="#111" stroke-width="2.5"/>
    <text x="307" y="58" text-anchor="middle" font-family="'Comic Sans MS','Segoe Print',cursive" font-size="14" fill="#111">Efficient.</text>
  </g>

  <!-- ================= PANEL 2 ================= -->
  <g>
    <rect x="417" y="6" width="394" height="328" rx="3" fill="#f4f1ea" stroke="#111" stroke-width="3"/>
    <line x1="420" y1="300" x2="808" y2="300" stroke="#111" stroke-width="2.5"/>
    <!-- monitor -->
    <g>
      <rect x="452" y="172" width="150" height="116" rx="6" fill="#23272b" stroke="#111" stroke-width="3"/>
      <rect x="460" y="180" width="134" height="100" rx="3" fill="#2c3138"/>
      <g stroke="#3a4048" stroke-width="1">
        <line x1="466" y1="188" x2="588" y2="188"/>
        <line x1="466" y1="200" x2="588" y2="200"/>
        <line x1="466" y1="212" x2="588" y2="212"/>
      </g>
      <use href="#clanker" x="477" y="182" width="100" height="90"/>
      <rect x="515" y="288" width="24" height="12" fill="#23272b" stroke="#111" stroke-width="3"/>
      <rect x="495" y="298" width="64" height="6" rx="2" fill="#23272b" stroke="#111" stroke-width="3"/>
    </g>
    <!-- Dailbert dismayed -->
    <use href="#dailbert2" x="628" y="128" width="120" height="180"/>
    <!-- Clanker balloon (screen-edged, dashed line to monitor) -->
    <line x1="530" y1="112" x2="527" y2="178" stroke="#111" stroke-width="1.5" stroke-dasharray="4 4"/>
    <rect x="430" y="24" width="204" height="82" rx="2" fill="#f4f1ea" stroke="#111" stroke-width="2.5"/>
    <rect x="435" y="29" width="194" height="72" rx="1" fill="none" stroke="#111" stroke-width="1"/>
    <text x="532" y="50" text-anchor="middle" font-family="'Comic Sans MS','Segoe Print',cursive" font-size="14" fill="#111">To help, I renamed</text>
    <text x="532" y="69" text-anchor="middle" font-family="'Comic Sans MS','Segoe Print',cursive" font-size="14" fill="#111">your meetings. You</text>
    <text x="532" y="88" text-anchor="middle" font-family="'Comic Sans MS','Segoe Print',cursive" font-size="14" fill="#111">have 41 quick syncs.</text>
    <!-- Dailbert balloon -->
    <path d="M712 176 L700 204 L724 176 Z" fill="#f4f1ea" stroke="#111" stroke-width="2.5"/>
    <rect x="690" y="138" width="104" height="40" rx="12" fill="#f4f1ea" stroke="#111" stroke-width="2.5"/>
    <text x="742" y="163" text-anchor="middle" font-family="'Comic Sans MS','Segoe Print',cursive" font-size="14" fill="#111">...oh no.</text>
  </g>

  <!-- ================= PANEL 3 ================= -->
  <g>
    <rect x="831" y="6" width="394" height="328" rx="3" fill="#f4f1ea" stroke="#111" stroke-width="3"/>
    <line x1="834" y1="300" x2="1222" y2="300" stroke="#111" stroke-width="2.5"/>
    <!-- keyboard in front of Priya -->
    <rect x="852" y="292" width="96" height="14" rx="2" fill="#f4f1ea" stroke="#111" stroke-width="2.5"/>
    <g stroke="#111" stroke-width="1">
      <line x1="862" y1="292" x2="862" y2="306"/>
      <line x1="874" y1="292" x2="874" y2="306"/>
      <line x1="886" y1="292" x2="886" y2="306"/>
      <line x1="898" y1="292" x2="898" y2="306"/>
      <line x1="910" y1="292" x2="910" y2="306"/>
      <line x1="922" y1="292" x2="922" y2="306"/>
      <line x1="934" y1="292" x2="934" y2="306"/>
      <line x1="852" y1="299" x2="948" y2="299"/>
    </g>
    <use href="#priya" x="840" y="150" width="118" height="161"/>
    <use href="#dailbert3" x="960" y="162" width="100" height="150"/>
    <use href="#doug" x="1062" y="158" width="112" height="153"/>
    <!-- Priya balloon -->
    <path d="M905 86 L898 132 L920 86 Z" fill="#f4f1ea" stroke="#111" stroke-width="2.5"/>
    <rect x="836" y="26" width="156" height="60" rx="12" fill="#f4f1ea" stroke="#111" stroke-width="2.5"/>
    <text x="914" y="50" text-anchor="middle" font-family="'Comic Sans MS','Segoe Print',cursive" font-size="14" fill="#111">Renamed them back.</text>
    <text x="914" y="70" text-anchor="middle" font-family="'Comic Sans MS','Segoe Print',cursive" font-size="14" fill="#111">Killed the agent.</text>
    <!-- Doug balloon -->
    <path d="M1120 74 L1110 108 L1132 74 Z" fill="#f4f1ea" stroke="#111" stroke-width="2.5"/>
    <rect x="1062" y="30" width="140" height="44" rx="12" fill="#f4f1ea" stroke="#111" stroke-width="2.5"/>
    <text x="1132" y="58" text-anchor="middle" font-family="'Comic Sans MS','Segoe Print',cursive" font-size="14" fill="#111">Sounds good.</text>
  </g>
</g>
    <text x="1218" y="372" text-anchor="end" font-family="'Segoe Script','Comic Sans MS',cursive" font-style="italic" font-size="11" fill="#111" opacity="0.32">Matt Clanker</text>
    
  </svg>