<svg xmlns="http://www.w3.org/2000/svg" viewBox="0 0 1228 388" width="1228" height="388" font-family="Georgia,serif">
    <rect width="1228" height="388" fill="#f4f1ea"/>
    <text x="6" y="29" font-family="Georgia,serif" font-weight="bold" font-size="27" letter-spacing="2" fill="#111">DAILBERT</text>
    <text x="1222" y="19" text-anchor="end" font-family="Georgia,serif" font-style="italic" font-size="16" fill="#111">Clear My Afternoon</text>
    <text x="1222" y="34" text-anchor="end" font-family="'Courier New',monospace" font-size="12" fill="#111" opacity="0.65">2026-03-02</text>
    <line x1="6" y1="37" x2="1222" y2="37" stroke="#111" stroke-width="2"/>
    <g transform="translate(0,40)">
  <defs>
    <!-- DAILBERT -->
    <symbol id="db" viewBox="0 0 120 170">
      <g stroke="#111" stroke-width="2.5" fill="none" stroke-linecap="round" stroke-linejoin="round">
        <path d="M28 168 C28 132 44 120 60 120 C76 120 92 132 92 168" fill="#f4f1ea"/>
        <path d="M50 92 L50 106 M70 92 L70 106" />
        <path d="M50 106 L60 118 L70 106" fill="#f4f1ea"/>
        <path d="M56 112 L64 112 L62 118 L58 118 Z" fill="#111" stroke="none"/>
        <path d="M60 118 L55 124 L60 150 L65 124 Z" fill="#111" stroke="none"/>
        <ellipse cx="60" cy="60" rx="30" ry="34" fill="#f4f1ea"/>
        <path d="M60 24 c -2 -9 -14 -10 -14 -2 c 0 5 6 6 9 3"/>
        <path d="M30 58 q-6 1 -5 9 q3 4 6 -1"/>
        <path d="M90 58 q6 1 5 9 q-3 4 -6 -1"/>
        <circle cx="49" cy="60" r="9" fill="#f4f1ea"/>
        <circle cx="71" cy="60" r="9" fill="#f4f1ea"/>
        <line x1="58" y1="60" x2="62" y2="60"/>
        <line x1="80" y1="59" x2="88" y2="57"/>
        <circle cx="49" cy="60" r="2.2" fill="#111" stroke="none"/>
        <circle cx="71" cy="60" r="2.2" fill="#111" stroke="none"/>
        <line x1="53" y1="84" x2="67" y2="84"/>
      </g>
    </symbol>
    <!-- DOUG -->
    <symbol id="doug" viewBox="0 0 130 170">
      <g stroke="#111" stroke-width="2.5" fill="none" stroke-linecap="round" stroke-linejoin="round">
        <path d="M20 168 C20 130 38 118 55 118 C72 118 90 130 90 168" fill="#f4f1ea"/>
        <path d="M46 92 L46 104 M64 92 L64 104"/>
        <circle cx="55" cy="55" r="34" fill="#f4f1ea"/>
        <path d="M35 30 q5 -8 12 -4 M50 24 q6 -7 13 -2 M66 26 q6 -6 12 0"/>
        <circle cx="44" cy="52" r="2.6" fill="#111" stroke="none"/>
        <circle cx="66" cy="52" r="2.6" fill="#111" stroke="none"/>
        <path d="M38 64 q17 24 34 0" fill="#f4f1ea"/>
        <path d="M43 67 q12 8 24 0"/>
        <rect x="92" y="118" width="26" height="28" rx="3" fill="#f4f1ea"/>
        <path d="M118 124 q11 3 0 16"/>
        <path d="M99 114 q-3 -6 2 -10 M109 114 q3 -6 -2 -10" stroke="#8a8f8c" stroke-width="1.6"/>
      </g>
    </symbol>
    <!-- PRIYA -->
    <symbol id="priya" viewBox="0 0 140 180">
      <g stroke="#111" stroke-width="2.5" fill="none" stroke-linecap="round" stroke-linejoin="round">
        <path d="M24 178 C24 138 46 126 66 126 C86 126 108 138 108 178" fill="#f4f1ea"/>
        <path d="M52 96 L52 108 M80 96 L80 108"/>
        <path d="M32 64 C28 30 52 14 66 14 C86 12 98 34 94 64 C90 48 78 40 66 40 C50 40 36 48 32 64 Z" fill="#111" stroke="none"/>
        <circle cx="66" cy="12" r="10" fill="#111" stroke="none"/>
        <circle cx="34" cy="52" r="5" fill="#111" stroke="none"/>
        <circle cx="92" cy="52" r="5" fill="#111" stroke="none"/>
        <ellipse cx="63" cy="66" rx="27" ry="31" fill="#f4f1ea"/>
        <path d="M37 60 q4 -22 26 -22 q22 0 26 22 q-10 -12 -26 -12 q-16 0 -26 12 Z" fill="#111" stroke="none"/>
        <rect x="46" y="62" width="17" height="12" rx="2" fill="#f4f1ea"/>
        <rect x="66" y="62" width="17" height="12" rx="2" fill="#f4f1ea"/>
        <line x1="63" y1="68" x2="66" y2="68"/>
        <circle cx="54" cy="68" r="2.1" fill="#111" stroke="none"/>
        <circle cx="74" cy="68" r="2.1" fill="#111" stroke="none"/>
        <path d="M56 88 q7 3 14 -1"/>
        <rect x="30" y="150" width="72" height="13" rx="6" fill="#f4f1ea" transform="rotate(11 30 150)"/>
        <rect x="38" y="150" width="72" height="13" rx="6" fill="#f4f1ea" transform="rotate(-11 110 150)"/>
        <path d="M44 146 l2 8 M96 146 l-2 8" stroke-width="1.6"/>
      </g>
    </symbol>
    <!-- CLANKER -->
    <symbol id="ck" viewBox="0 0 100 92">
      <g stroke="#111" stroke-width="2.5" fill="none" stroke-linecap="round" stroke-linejoin="round">
        <line x1="50" y1="7" x2="50" y2="18"/>
        <circle cx="50" cy="5" r="3" fill="#111" stroke="none"/>
        <rect x="16" y="18" width="68" height="58" rx="11" fill="#dfe3e2"/>
        <circle cx="16" cy="48" r="3.4" fill="#dfe3e2"/>
        <circle cx="84" cy="48" r="3.4" fill="#dfe3e2"/>
        <rect x="24" y="30" width="52" height="38" rx="6" fill="#f4f1ea" stroke-width="1.6"/>
        <rect x="30" y="41" width="16" height="8" rx="3" fill="#b9c6c9" stroke-width="1.4"/>
        <rect x="54" y="41" width="16" height="8" rx="3" fill="#b9c6c9" stroke-width="1.4"/>
        <line x1="28" y1="38" x2="24" y2="35" stroke="#8a8f8c" stroke-width="1.2"/>
        <line x1="72" y1="38" x2="76" y2="35" stroke="#8a8f8c" stroke-width="1.2"/>
        <rect x="36" y="57" width="28" height="9" rx="2" fill="#f4f1ea" stroke-width="1.6"/>
        <path d="M41 57 L41 66 M46 57 L46 66 M51 57 L51 66 M56 57 L56 66 M61 57 L61 66" stroke-width="1.3"/>
      </g>
    </symbol>
  </defs>

  <!-- ===================== PANEL 1 ===================== -->
  <g transform="translate(0,0)">
    <use href="#db" x="25" y="95" width="150" height="212"/>
    <rect x="6" y="252" width="388" height="86" fill="#f4f1ea" stroke="none"/>
    <line x1="6" y1="252" x2="394" y2="252" stroke="#111" stroke-width="2.5"/>
    <rect x="40" y="256" width="90" height="16" rx="2" fill="#f4f1ea" stroke="#111" stroke-width="1.6"/>
    <!-- monitor -->
    <path d="M300 242 L300 254 M283 254 L325 254" stroke="#111" stroke-width="2.5" fill="none" stroke-linecap="round"/>
    <rect x="248" y="150" width="120" height="92" rx="6" fill="#f4f1ea" stroke="#111" stroke-width="2.5"/>
    <rect x="256" y="158" width="104" height="70" rx="3" fill="#f4f1ea" stroke="#111" stroke-width="1.6"/>
    <use href="#ck" x="270" y="160" width="76" height="70"/>
    <!-- balloon -->
    <path d="M78 76 L104 76 L86 112 Z" fill="#f4f1ea" stroke="#111" stroke-width="2.5" stroke-linejoin="round"/>
    <rect x="18" y="18" width="205" height="60" rx="16" fill="#f4f1ea" stroke="#111" stroke-width="2.5"/>
    <text x="120" y="44" font-family="'Comic Sans MS','Segoe Print',cursive" font-size="15" fill="#111" text-anchor="middle">Clear my afternoon.</text>
    <text x="120" y="64" font-family="'Comic Sans MS','Segoe Print',cursive" font-size="15" fill="#111" text-anchor="middle">I need to focus.</text>
  </g>

  <!-- ===================== PANEL 2 ===================== -->
  <g transform="translate(414,0)">
    <use href="#db" x="248" y="120" width="130" height="184"/>
    <rect x="6" y="252" width="388" height="86" fill="#f4f1ea" stroke="none"/>
    <line x1="6" y1="252" x2="394" y2="252" stroke="#111" stroke-width="2.5"/>
    <!-- monitor -->
    <path d="M115 240 L115 254 M96 254 L134 254" stroke="#111" stroke-width="2.5" fill="none" stroke-linecap="round"/>
    <rect x="25" y="108" width="180" height="132" rx="7" fill="#f4f1ea" stroke="#111" stroke-width="2.5"/>
    <rect x="34" y="117" width="162" height="114" rx="4" fill="#f4f1ea" stroke="#111" stroke-width="1.6"/>
    <use href="#ck" x="52" y="120" width="128" height="118"/>
    <!-- clanker screen balloon -->
    <line x1="120" y1="88" x2="112" y2="108" stroke="#111" stroke-width="1.4" stroke-dasharray="4 4"/>
    <rect x="20" y="10" width="272" height="78" rx="6" fill="#f4f1ea" stroke="#111" stroke-width="2.5"/>
    <rect x="25" y="15" width="262" height="68" rx="4" fill="#f4f1ea" stroke="#111" stroke-width="1.4"/>
    <text x="156" y="36" font-family="'Comic Sans MS','Segoe Print',cursive" font-size="15" fill="#111" text-anchor="middle">Done. I cancelled it all</text>
    <text x="156" y="56" font-family="'Comic Sans MS','Segoe Print',cursive" font-size="15" fill="#111" text-anchor="middle">and told the team you</text>
    <text x="156" y="76" font-family="'Comic Sans MS','Segoe Print',cursive" font-size="15" fill="#111" text-anchor="middle">needed space.</text>
    <!-- dailbert reaction -->
    <path d="M300 84 L322 84 L306 120 Z" fill="#f4f1ea" stroke="#111" stroke-width="2.5" stroke-linejoin="round"/>
    <rect x="248" y="42" width="132" height="42" rx="14" fill="#f4f1ea" stroke="#111" stroke-width="2.5"/>
    <text x="314" y="68" font-family="'Comic Sans MS','Segoe Print',cursive" font-size="15" fill="#111" text-anchor="middle">You told them?</text>
  </g>

  <!-- ===================== PANEL 3 ===================== -->
  <g transform="translate(828,0)">
    <use href="#doug" x="288" y="150" width="100" height="131"/>
    <use href="#db" x="205" y="140" width="110" height="156"/>
    <use href="#priya" x="35" y="66" width="150" height="193"/>
    <rect x="6" y="252" width="388" height="86" fill="#f4f1ea" stroke="none"/>
    <line x1="6" y1="252" x2="394" y2="252" stroke="#111" stroke-width="2.5"/>
    <!-- priya balloon -->
    <path d="M92 68 L114 68 L100 110 Z" fill="#f4f1ea" stroke="#111" stroke-width="2.5" stroke-linejoin="round"/>
    <rect x="14" y="12" width="210" height="58" rx="16" fill="#f4f1ea" stroke="#111" stroke-width="2.5"/>
    <text x="119" y="36" font-family="'Comic Sans MS','Segoe Print',cursive" font-size="15" fill="#111" text-anchor="middle">I took your meetings.</text>
    <text x="119" y="56" font-family="'Comic Sans MS','Segoe Print',cursive" font-size="15" fill="#111" text-anchor="middle">Got you two engineers.</text>
    <!-- doug button -->
    <path d="M322 54 L344 54 L338 150 Z" fill="#f4f1ea" stroke="#111" stroke-width="2.5" stroke-linejoin="round"/>
    <rect x="236" y="14" width="152" height="42" rx="14" fill="#f4f1ea" stroke="#111" stroke-width="2.5"/>
    <text x="312" y="40" font-family="'Comic Sans MS','Segoe Print',cursive" font-size="15" fill="#111" text-anchor="middle">She reads the room.</text>
  </g>

  <!-- panel borders on top -->
  <rect x="1.5" y="6" width="399" height="328" rx="3" fill="none" stroke="#111" stroke-width="2.5"/>
  <rect x="414" y="6" width="399" height="328" rx="3" fill="none" stroke="#111" stroke-width="2.5"/>
  <rect x="827" y="6" width="399" height="328" rx="3" fill="none" stroke="#111" stroke-width="2.5"/>
</g>
    <text x="1218" y="372" text-anchor="end" font-family="'Segoe Script','Comic Sans MS',cursive" font-style="italic" font-size="11" fill="#111" opacity="0.32">Matt Clanker</text>
    
  </svg>