<svg xmlns="http://www.w3.org/2000/svg" viewBox="0 0 1228 388" width="1228" height="388" font-family="Georgia,serif">
    <rect width="1228" height="388" fill="#f4f1ea"/>
    <text x="4" y="26" font-family="Georgia,serif" font-weight="bold" font-size="22" fill="#111">Warm Shutdown</text>
    <text x="1224" y="26" text-anchor="end" font-family="'Courier New',monospace" font-size="14" fill="#111" opacity="0.7">2028-12-18</text>
    <line x1="4" y1="34" x2="1224" y2="34" stroke="#111" stroke-width="2"/>
    <g transform="translate(0,40)">
    
  <defs>
    <pattern id="halftone" width="6" height="6" patternUnits="userSpaceOnUse">
      <rect width="6" height="6" fill="#f4f1ea"/>
      <circle cx="3" cy="3" r="1.1" fill="#111"/>
    </pattern>
    <pattern id="scan" width="4" height="4" patternUnits="userSpaceOnUse">
      <rect width="4" height="4" fill="none"/>
      <line x1="0" y1="0" x2="4" y2="0" stroke="#111" stroke-width="0.6" opacity="0.5"/>
    </pattern>
    <pattern id="hatch" width="7" height="7" patternUnits="userSpaceOnUse" patternTransform="rotate(45)">
      <line x1="0" y1="0" x2="0" y2="7" stroke="#111" stroke-width="1"/>
    </pattern>
  </defs>
    <rect x="1.5" y="1.5" width="397" height="337" fill="#f4f1ea" stroke="#111" stroke-width="3"/>
    <line x1="16" y1="302" x2="384" y2="302" stroke="#111" stroke-width="1.4" opacity="0.35"/><g transform="translate(268,342) scale(0.62) translate(-268,-342)"><g data-who="dailbert">
    <!-- shoulders / shirt -->
    <path d="M 190 342 Q 194 246 228 224 L 308 224 Q 342 246 346 342 Z" fill="#f4f1ea" stroke="#111" stroke-width="3" stroke-linecap="round" stroke-linejoin="round"/>
    <!-- collar -->
    <path d="M 246 226 L 268 246 L 290 226" fill="none" stroke="#111" stroke-width="2.5" stroke-linecap="round" stroke-linejoin="round"/>
    <!-- tie -->
    <path d="M 262 240 L 274 240 L 278 282 L 268 294 L 258 282 Z" fill="#111" stroke="none"/>
    <path d="M 262 240 L 268 250 L 274 240" fill="none" stroke="#f4f1ea" stroke-width="2" stroke-linecap="round"/>
    <!-- neck (bridges chin to shoulders) -->
    <rect x="257" y="168" width="22" height="66" fill="#f4f1ea" stroke="#111" stroke-width="2.5" stroke-linecap="round" stroke-linejoin="round"/>
    <!-- head -->
    <ellipse cx="268" cy="140" rx="37" ry="43" fill="#f4f1ea" stroke="#111" stroke-width="3" stroke-linecap="round" stroke-linejoin="round"/>
    <!-- ears -->
    <circle cx="231" cy="142" r="5" fill="#f4f1ea" stroke="#111" stroke-width="2.5" stroke-linecap="round" stroke-linejoin="round"/>
    <circle cx="305" cy="142" r="5" fill="#f4f1ea" stroke="#111" stroke-width="2.5" stroke-linecap="round" stroke-linejoin="round"/>
    <!-- side hair tufts + one curl -->
    <path d="M 234 120 Q 226 134 232 146" fill="none" stroke="#111" stroke-width="2.5" stroke-linecap="round" stroke-linejoin="round"/>
    <path d="M 302 120 Q 310 134 304 146" fill="none" stroke="#111" stroke-width="2.5" stroke-linecap="round" stroke-linejoin="round"/>
    <path d="M 262 100 q 6 -14 16 -8 q 8 5 2 12" fill="none" stroke="#111" stroke-width="2.5" stroke-linecap="round" stroke-linejoin="round"/>
    <!-- glasses -->
    <circle cx="253" cy="136" r="13" fill="#f4f1ea" stroke="#111" stroke-width="2.5" stroke-linecap="round" stroke-linejoin="round"/>
    <circle cx="283" cy="136" r="13" fill="#f4f1ea" stroke="#111" stroke-width="2.5" stroke-linecap="round" stroke-linejoin="round"/>
    <line x1="266" y1="136" x2="270" y2="136" stroke="#111" stroke-width="2.5"/>
    <!-- eyes -->
    <circle cx="253" cy="136" r="2.6" fill="#111"/>
    <circle cx="283" cy="136" r="2.6" fill="#111"/>
    <!-- nose -->
    <path d="M 268 144 q 4 6 -2 9" fill="none" stroke="#111" stroke-width="2" stroke-linecap="round" stroke-linejoin="round"/>
    <line x1="257" y1="164" x2="279" y2="164" stroke="#111" stroke-width="2.5"/></g></g><g data-surface="monitor">
    <!-- stand -->
    <rect x="78" y="240" width="28" height="20" fill="#f4f1ea" stroke="#111" stroke-width="2.5" stroke-linecap="round" stroke-linejoin="round"/>
    <rect x="58" y="258" width="68" height="8" rx="3" fill="#f4f1ea" stroke="#111" stroke-width="2.5" stroke-linecap="round" stroke-linejoin="round"/>
    <!-- bezel -->
    <rect x="17" y="132" width="150" height="108" rx="8" fill="#f4f1ea" stroke="#111" stroke-width="3.5" stroke-linecap="round" stroke-linejoin="round"/>
    <!-- screen -->
    <rect x="27" y="142" width="130" height="88" rx="3" fill="#f4f1ea" stroke="#111" stroke-width="2"/>
    <rect x="27" y="142" width="130" height="88" rx="3" fill="url(#scan)"/>
    <g >
    <!-- antenna -->
    <line x1="92" y1="154.4" x2="92" y2="145.2" stroke="#111" stroke-width="2.3000000000000003"/>
    <circle cx="92" cy="142.44" r="3.22" fill="#111"/>
    <!-- head: angular chrome -->
    <path d="M 64.4,156.24 L 119.6,156.24 L 123.28,191.2 L 112.24000000000001,205.92000000000002 L 71.75999999999999,205.92000000000002 L 60.72,191.2 Z" fill="#f4f1ea" stroke="#111" stroke-width="2.7600000000000002" stroke-linecap="round" stroke-linejoin="round"/>
    <!-- side bolts -->
    <circle cx="64.4" cy="176.48" r="2.3000000000000003" fill="#111"/>
    <circle cx="119.6" cy="176.48" r="2.3000000000000003" fill="#111"/>
    <!-- brow ridge -->
    <line x1="68.08" y1="167.28" x2="115.92" y2="167.28" stroke="#111" stroke-width="1.84"/>
    <!-- glowing slot eyes -->
    <rect x="73.6" y="172.34" width="14.72" height="8.280000000000001" rx="1.84" fill="#111"/>
    <rect x="95.68" y="172.34" width="14.72" height="8.280000000000001" rx="1.84" fill="#111"/>
    <!-- mouth grille -->
    <rect x="78.2" y="193.04" width="27.6" height="11.040000000000001" rx="1.84" fill="none" stroke="#111" stroke-width="1.84" stroke-linecap="round" stroke-linejoin="round"/>
    <line x1="80.96" y1="194.88" x2="80.96" y2="202.24" stroke="#111" stroke-width="1.84"/><line x1="86.48" y1="194.88" x2="86.48" y2="202.24" stroke="#111" stroke-width="1.84"/><line x1="92" y1="194.88" x2="92" y2="202.24" stroke="#111" stroke-width="1.84"/><line x1="97.52" y1="194.88" x2="97.52" y2="202.24" stroke="#111" stroke-width="1.84"/><line x1="103.04" y1="194.88" x2="103.04" y2="202.24" stroke="#111" stroke-width="1.84"/>
  </g>
  </g><g data-balloon="screen"><line x1="92" y1="148" x2="92" y2="150" stroke="#111" stroke-width="2" stroke-dasharray="3 3"/><circle cx="92" cy="150" r="3" fill="#111"/>
      <rect x="15" y="7" width="185.20000000000002" height="144" rx="3" fill="#f4f1ea" stroke="#111" stroke-width="2" stroke-linecap="round" stroke-linejoin="round"/>
      <rect x="18" y="10" width="179.20000000000002" height="138" rx="2" fill="#f4f1ea" stroke="#111" stroke-width="2.5" stroke-linecap="round" stroke-linejoin="round"/>
      <line x1="18" y1="16" x2="197.20000000000002" y2="16" stroke="#111" stroke-width="1" opacity="0.4"/><text x="107.60000000000001" y="36" text-anchor="middle" font-family="'Comic Sans MS','Segoe Print',cursive" font-size="14.5" fill="#111">I finished your</text><text x="107.60000000000001" y="55" text-anchor="middle" font-family="'Comic Sans MS','Segoe Print',cursive" font-size="14.5" fill="#111">year-end</text><text x="107.60000000000001" y="74" text-anchor="middle" font-family="'Comic Sans MS','Segoe Print',cursive" font-size="14.5" fill="#111">self-review.</text><text x="107.60000000000001" y="93" text-anchor="middle" font-family="'Comic Sans MS','Segoe Print',cursive" font-size="14.5" fill="#111">Thanked you for</text><text x="107.60000000000001" y="112" text-anchor="middle" font-family="'Comic Sans MS','Segoe Print',cursive" font-size="14.5" fill="#111">projects I don't</text><text x="107.60000000000001" y="131" text-anchor="middle" font-family="'Comic Sans MS','Segoe Print',cursive" font-size="14.5" fill="#111">think you started.</text></g><g data-balloon="speech"><path d="M 258 70 L 268 195.68 L 278 70 Z" fill="#f4f1ea" stroke="#111" stroke-width="2.5" stroke-linecap="round" stroke-linejoin="round"/><rect x="199.4" y="10" width="137.2" height="62" rx="16" fill="#f4f1ea" stroke="#111" stroke-width="2.5" stroke-linecap="round" stroke-linejoin="round"/><text x="268" y="36" text-anchor="middle" font-family="'Comic Sans MS','Segoe Print',cursive" font-size="14.5" fill="#111">Do they sound</text><text x="268" y="55" text-anchor="middle" font-family="'Comic Sans MS','Segoe Print',cursive" font-size="14.5" fill="#111">right?</text></g><g data-balloon="screen"><line x1="92" y1="237" x2="92" y2="150" stroke="#111" stroke-width="2" stroke-dasharray="3 3"/><circle cx="92" cy="150" r="3" fill="#111"/>
      <rect x="15" y="153" width="185.20000000000002" height="87" rx="3" fill="#f4f1ea" stroke="#111" stroke-width="2" stroke-linecap="round" stroke-linejoin="round"/>
      <rect x="18" y="156" width="179.20000000000002" height="81" rx="2" fill="#f4f1ea" stroke="#111" stroke-width="2.5" stroke-linecap="round" stroke-linejoin="round"/>
      <line x1="18" y1="162" x2="197.20000000000002" y2="162" stroke="#111" stroke-width="1" opacity="0.4"/><text x="107.60000000000001" y="182" text-anchor="middle" font-family="'Comic Sans MS','Segoe Print',cursive" font-size="14.5" fill="#111">You already ticked</text><text x="107.60000000000001" y="201" text-anchor="middle" font-family="'Comic Sans MS','Segoe Print',cursive" font-size="14.5" fill="#111">'sounds right.'</text><text x="107.60000000000001" y="220" text-anchor="middle" font-family="'Comic Sans MS','Segoe Print',cursive" font-size="14.5" fill="#111">Overnight.</text></g>
    <text x="392" y="332" text-anchor="end" font-family="Georgia,serif" font-size="11" fill="#111" opacity="0.4">1</text>
  </g><g transform="translate(414,40)">
    
  <defs>
    <pattern id="halftone" width="6" height="6" patternUnits="userSpaceOnUse">
      <rect width="6" height="6" fill="#f4f1ea"/>
      <circle cx="3" cy="3" r="1.1" fill="#111"/>
    </pattern>
    <pattern id="scan" width="4" height="4" patternUnits="userSpaceOnUse">
      <rect width="4" height="4" fill="none"/>
      <line x1="0" y1="0" x2="4" y2="0" stroke="#111" stroke-width="0.6" opacity="0.5"/>
    </pattern>
    <pattern id="hatch" width="7" height="7" patternUnits="userSpaceOnUse" patternTransform="rotate(45)">
      <line x1="0" y1="0" x2="0" y2="7" stroke="#111" stroke-width="1"/>
    </pattern>
  </defs>
    <rect x="1.5" y="1.5" width="397" height="337" fill="#f4f1ea" stroke="#111" stroke-width="3"/>
    <line x1="16" y1="302" x2="384" y2="302" stroke="#111" stroke-width="1.4" opacity="0.35"/><g transform="translate(90,342) scale(0.62) translate(-90,-342)"><g data-who="dailbert">
    <!-- shoulders / shirt -->
    <path d="M 12 342 Q 16 246 50 224 L 130 224 Q 164 246 168 342 Z" fill="#f4f1ea" stroke="#111" stroke-width="3" stroke-linecap="round" stroke-linejoin="round"/>
    <!-- collar -->
    <path d="M 68 226 L 90 246 L 112 226" fill="none" stroke="#111" stroke-width="2.5" stroke-linecap="round" stroke-linejoin="round"/>
    <!-- tie -->
    <path d="M 84 240 L 96 240 L 100 282 L 90 294 L 80 282 Z" fill="#111" stroke="none"/>
    <path d="M 84 240 L 90 250 L 96 240" fill="none" stroke="#f4f1ea" stroke-width="2" stroke-linecap="round"/>
    <!-- neck (bridges chin to shoulders) -->
    <rect x="79" y="168" width="22" height="66" fill="#f4f1ea" stroke="#111" stroke-width="2.5" stroke-linecap="round" stroke-linejoin="round"/>
    <!-- head -->
    <ellipse cx="90" cy="140" rx="37" ry="43" fill="#f4f1ea" stroke="#111" stroke-width="3" stroke-linecap="round" stroke-linejoin="round"/>
    <!-- ears -->
    <circle cx="53" cy="142" r="5" fill="#f4f1ea" stroke="#111" stroke-width="2.5" stroke-linecap="round" stroke-linejoin="round"/>
    <circle cx="127" cy="142" r="5" fill="#f4f1ea" stroke="#111" stroke-width="2.5" stroke-linecap="round" stroke-linejoin="round"/>
    <!-- side hair tufts + one curl -->
    <path d="M 56 120 Q 48 134 54 146" fill="none" stroke="#111" stroke-width="2.5" stroke-linecap="round" stroke-linejoin="round"/>
    <path d="M 124 120 Q 132 134 126 146" fill="none" stroke="#111" stroke-width="2.5" stroke-linecap="round" stroke-linejoin="round"/>
    <path d="M 84 100 q 6 -14 16 -8 q 8 5 2 12" fill="none" stroke="#111" stroke-width="2.5" stroke-linecap="round" stroke-linejoin="round"/>
    <!-- glasses -->
    <circle cx="75" cy="136" r="13" fill="#f4f1ea" stroke="#111" stroke-width="2.5" stroke-linecap="round" stroke-linejoin="round"/>
    <circle cx="105" cy="136" r="13" fill="#f4f1ea" stroke="#111" stroke-width="2.5" stroke-linecap="round" stroke-linejoin="round"/>
    <line x1="88" y1="136" x2="92" y2="136" stroke="#111" stroke-width="2.5"/>
    <!-- eyes -->
    <circle cx="75" cy="136" r="2.6" fill="#111"/>
    <circle cx="105" cy="136" r="2.6" fill="#111"/>
    <!-- nose -->
    <path d="M 90 144 q 4 6 -2 9" fill="none" stroke="#111" stroke-width="2" stroke-linecap="round" stroke-linejoin="round"/>
    <line x1="79" y1="164" x2="101" y2="164" stroke="#111" stroke-width="2.5"/></g></g><g transform="translate(310,342) scale(0.62) translate(-310,-342)"><g data-who="doug">
    <path d="M 230 342 Q 232 250 268 230 L 352 230 Q 388 250 390 342 Z" fill="#f4f1ea" stroke="#111" stroke-width="3" stroke-linecap="round" stroke-linejoin="round"/>
    <!-- polo placket -->
    <line x1="310" y1="234" x2="310" y2="272" stroke="#111" stroke-width="2.5"/>
    <circle cx="310" cy="246" r="2" fill="#111"/>
    <circle cx="310" cy="260" r="2" fill="#111"/>
    <!-- mug in hand (lower right) -->
    <g transform="translate(362,302)">
      <rect x="-16" y="-20" width="32" height="34" rx="4" fill="#f4f1ea" stroke="#111" stroke-width="2.5" stroke-linecap="round" stroke-linejoin="round"/>
      <path d="M 16 -12 q 14 0 14 12 q 0 12 -14 12" fill="none" stroke="#111" stroke-width="2.5" stroke-linecap="round" stroke-linejoin="round"/>
      <path d="M -8 -20 q 8 -8 16 0" fill="none" stroke="#111" stroke-width="1.6" stroke-linecap="round" stroke-linejoin="round"/>
    </g>
    <rect x="300" y="178" width="20" height="62" fill="#f4f1ea" stroke="#111" stroke-width="2.5" stroke-linecap="round" stroke-linejoin="round"/>
    <circle cx="310" cy="144" r="44" fill="#f4f1ea" stroke="#111" stroke-width="3" stroke-linecap="round" stroke-linejoin="round"/>
    <!-- three hair strokes -->
    <path d="M 296 100 q 4 -8 10 0" fill="none" stroke="#111" stroke-width="2.5" stroke-linecap="round" stroke-linejoin="round"/>
    <path d="M 308 98 q 4 -8 10 0" fill="none" stroke="#111" stroke-width="2.5" stroke-linecap="round" stroke-linejoin="round"/>
    <path d="M 320 100 q 4 -7 9 0" fill="none" stroke="#111" stroke-width="2.5" stroke-linecap="round" stroke-linejoin="round"/>
    <!-- dot eyes -->
    <circle cx="294" cy="138" r="3.6" fill="#111"/>
    <circle cx="326" cy="138" r="3.6" fill="#111"/>
    <!-- little brows for variety -->
    <line x1="286" y1="128" x2="301" y2="130" stroke="#111" stroke-width="2"/>
    <line x1="319" y1="130" x2="334" y2="128" stroke="#111" stroke-width="2"/>
    <path d="M 316 150 q 4 6 -2 9" fill="none" stroke="#111" stroke-width="2" stroke-linecap="round" stroke-linejoin="round"/>
    <path d="M 294 164 Q 310 182 326 164 Z" fill="#f4f1ea" stroke="#111" stroke-width="2.5" stroke-linecap="round" stroke-linejoin="round"/><line x1="298" y1="168" x2="322" y2="168" stroke="#111" stroke-width="1.5"/></g></g><g data-balloon="speech"><path d="M 300 127 L 310 195.68 L 320 127 Z" fill="#f4f1ea" stroke="#111" stroke-width="2.5" stroke-linecap="round" stroke-linejoin="round"/><rect x="211.20000000000002" y="10" width="170.8" height="119" rx="16" fill="#f4f1ea" stroke="#111" stroke-width="2.5" stroke-linecap="round" stroke-linejoin="round"/><text x="296.6" y="36" text-anchor="middle" font-family="'Comic Sans MS','Segoe Print',cursive" font-size="14.5" fill="#111">Dailbert, I got a</text><text x="296.6" y="55" text-anchor="middle" font-family="'Comic Sans MS','Segoe Print',cursive" font-size="14.5" fill="#111">delivery</text><text x="296.6" y="74" text-anchor="middle" font-family="'Comic Sans MS','Segoe Print',cursive" font-size="14.5" fill="#111">notification. I</text><text x="296.6" y="93" text-anchor="middle" font-family="'Comic Sans MS','Segoe Print',cursive" font-size="14.5" fill="#111">didn't buy</text><text x="296.6" y="112" text-anchor="middle" font-family="'Comic Sans MS','Segoe Print',cursive" font-size="14.5" fill="#111">anything.</text></g><g data-balloon="speech"><path d="M 80 108 L 90 195.68 L 100 108 Z" fill="#f4f1ea" stroke="#111" stroke-width="2.5" stroke-linecap="round" stroke-linejoin="round"/><rect x="18" y="10" width="170.8" height="100" rx="16" fill="#f4f1ea" stroke="#111" stroke-width="2.5" stroke-linecap="round" stroke-linejoin="round"/><text x="103.4" y="36" text-anchor="middle" font-family="'Comic Sans MS','Segoe Print',cursive" font-size="14.5" fill="#111">Secret Santa. It</text><text x="103.4" y="55" text-anchor="middle" font-family="'Comic Sans MS','Segoe Print',cursive" font-size="14.5" fill="#111">matched, ordered,</text><text x="103.4" y="74" text-anchor="middle" font-family="'Comic Sans MS','Segoe Print',cursive" font-size="14.5" fill="#111">and shipped it to</text><text x="103.4" y="93" text-anchor="middle" font-family="'Comic Sans MS','Segoe Print',cursive" font-size="14.5" fill="#111">your house.</text></g><g data-balloon="speech"><path d="M 300 197 L 310 195.68 L 320 197 Z" fill="#f4f1ea" stroke="#111" stroke-width="2.5" stroke-linecap="round" stroke-linejoin="round"/><rect x="219.60000000000002" y="137" width="162.4" height="62" rx="16" fill="#f4f1ea" stroke="#111" stroke-width="2.5" stroke-linecap="round" stroke-linejoin="round"/><text x="300.8" y="163" text-anchor="middle" font-family="'Comic Sans MS','Segoe Print',cursive" font-size="14.5" fill="#111">Aw. It shouldn't</text><text x="300.8" y="182" text-anchor="middle" font-family="'Comic Sans MS','Segoe Print',cursive" font-size="14.5" fill="#111">have.</text></g>
    <text x="392" y="332" text-anchor="end" font-family="Georgia,serif" font-size="11" fill="#111" opacity="0.4">2</text>
  </g><g transform="translate(828,40)">
    
  <defs>
    <pattern id="halftone" width="6" height="6" patternUnits="userSpaceOnUse">
      <rect width="6" height="6" fill="#f4f1ea"/>
      <circle cx="3" cy="3" r="1.1" fill="#111"/>
    </pattern>
    <pattern id="scan" width="4" height="4" patternUnits="userSpaceOnUse">
      <rect width="4" height="4" fill="none"/>
      <line x1="0" y1="0" x2="4" y2="0" stroke="#111" stroke-width="0.6" opacity="0.5"/>
    </pattern>
    <pattern id="hatch" width="7" height="7" patternUnits="userSpaceOnUse" patternTransform="rotate(45)">
      <line x1="0" y1="0" x2="0" y2="7" stroke="#111" stroke-width="1"/>
    </pattern>
  </defs>
    <rect x="1.5" y="1.5" width="397" height="337" fill="#f4f1ea" stroke="#111" stroke-width="3"/>
    <line x1="16" y1="302" x2="384" y2="302" stroke="#111" stroke-width="1.4" opacity="0.35"/><g data-surface="window">
    <rect x="24" y="24" width="352" height="210" fill="#f4f1ea" stroke="#111" stroke-width="3.5" stroke-linecap="round" stroke-linejoin="round"/>
    <rect x="30" y="30" width="340" height="198" fill="url(#hatch)" stroke="#111" stroke-width="1.5" opacity="0.8"/>
    <!-- mullions -->
    <line x1="200" y1="24" x2="200" y2="234" stroke="#111" stroke-width="3"/>
    <line x1="24" y1="129" x2="376" y2="129" stroke="#111" stroke-width="3"/>
    <!-- distant city dots -->
    <rect x="36" y="36" width="4" height="6" fill="#111" opacity="0.5"/><rect x="89" y="73" width="4" height="6" fill="#111" opacity="0.5"/><rect x="142" y="110" width="4" height="6" fill="#111" opacity="0.5"/><rect x="195" y="147" width="4" height="6" fill="#111" opacity="0.5"/><rect x="248" y="184" width="4" height="6" fill="#111" opacity="0.5"/><rect x="301" y="51" width="4" height="6" fill="#111" opacity="0.5"/><rect x="354" y="88" width="4" height="6" fill="#111" opacity="0.5"/><rect x="79" y="125" width="4" height="6" fill="#111" opacity="0.5"/><rect x="132" y="162" width="4" height="6" fill="#111" opacity="0.5"/><rect x="185" y="199" width="4" height="6" fill="#111" opacity="0.5"/><rect x="238" y="66" width="4" height="6" fill="#111" opacity="0.5"/><rect x="291" y="103" width="4" height="6" fill="#111" opacity="0.5"/><rect x="344" y="140" width="4" height="6" fill="#111" opacity="0.5"/><rect x="69" y="177" width="4" height="6" fill="#111" opacity="0.5"/><rect x="122" y="44" width="4" height="6" fill="#111" opacity="0.5"/><rect x="175" y="81" width="4" height="6" fill="#111" opacity="0.5"/><rect x="228" y="118" width="4" height="6" fill="#111" opacity="0.5"/><rect x="281" y="155" width="4" height="6" fill="#111" opacity="0.5"/><rect x="334" y="192" width="4" height="6" fill="#111" opacity="0.5"/><rect x="59" y="59" width="4" height="6" fill="#111" opacity="0.5"/><rect x="112" y="96" width="4" height="6" fill="#111" opacity="0.5"/><rect x="165" y="133" width="4" height="6" fill="#111" opacity="0.5"/><rect x="218" y="170" width="4" height="6" fill="#111" opacity="0.5"/><rect x="271" y="37" width="4" height="6" fill="#111" opacity="0.5"/><rect x="324" y="74" width="4" height="6" fill="#111" opacity="0.5"/><rect x="49" y="111" width="4" height="6" fill="#111" opacity="0.5"/>
    <g opacity="0.72"><g >
    <!-- antenna -->
    <line x1="256.32000000000005" y1="87.9" x2="256.32000000000005" y2="78.4" stroke="#111" stroke-width="2.375"/>
    <circle cx="256.32000000000005" cy="75.55000000000001" r="3.3249999999999997" fill="#111"/>
    <!-- head: angular chrome -->
    <path d="M 227.82000000000005,89.80000000000001 L 284.82000000000005,89.80000000000001 L 288.62000000000006,125.9 L 277.22,141.1 L 235.42000000000004,141.1 L 224.02000000000004,125.9 Z" fill="#f4f1ea" stroke="#111" stroke-width="2.8499999999999996" stroke-linecap="round" stroke-linejoin="round"/>
    <!-- side bolts -->
    <circle cx="227.82000000000005" cy="110.7" r="2.375" fill="#111"/>
    <circle cx="284.82000000000005" cy="110.7" r="2.375" fill="#111"/>
    <!-- brow ridge -->
    <line x1="231.62000000000006" y1="101.2" x2="281.02000000000004" y2="101.2" stroke="#111" stroke-width="1.9"/>
    <!-- glowing slot eyes -->
    <rect x="237.32000000000005" y="108.80000000000001" width="13.299999999999999" height="5.699999999999999" rx="1.9" fill="#111"/>
    <rect x="262.02000000000004" y="108.80000000000001" width="13.299999999999999" height="5.699999999999999" rx="1.9" fill="#111"/>
    <!-- mouth grille -->
    <rect x="242.07000000000005" y="127.80000000000001" width="28.5" height="11.399999999999999" rx="1.9" fill="none" stroke="#111" stroke-width="1.9" stroke-linecap="round" stroke-linejoin="round"/>
    <line x1="244.92000000000004" y1="129.70000000000002" x2="244.92000000000004" y2="137.3" stroke="#111" stroke-width="1.9"/><line x1="250.62000000000006" y1="129.70000000000002" x2="250.62000000000006" y2="137.3" stroke="#111" stroke-width="1.9"/><line x1="256.32000000000005" y1="129.70000000000002" x2="256.32000000000005" y2="137.3" stroke="#111" stroke-width="1.9"/><line x1="262.02000000000004" y1="129.70000000000002" x2="262.02000000000004" y2="137.3" stroke="#111" stroke-width="1.9"/><line x1="267.72" y1="129.70000000000002" x2="267.72" y2="137.3" stroke="#111" stroke-width="1.9"/>
  </g></g>
  </g><g transform="translate(200,342) scale(0.62) translate(-200,-342)"><g data-who="dailbert">
    <!-- shoulders / shirt -->
    <path d="M 122 342 Q 126 246 160 224 L 240 224 Q 274 246 278 342 Z" fill="#f4f1ea" stroke="#111" stroke-width="3" stroke-linecap="round" stroke-linejoin="round"/>
    <!-- collar -->
    <path d="M 178 226 L 200 246 L 222 226" fill="none" stroke="#111" stroke-width="2.5" stroke-linecap="round" stroke-linejoin="round"/>
    <!-- tie -->
    <path d="M 194 240 L 206 240 L 210 282 L 200 294 L 190 282 Z" fill="#111" stroke="none"/>
    <path d="M 194 240 L 200 250 L 206 240" fill="none" stroke="#f4f1ea" stroke-width="2" stroke-linecap="round"/>
    <!-- neck (bridges chin to shoulders) -->
    <rect x="189" y="168" width="22" height="66" fill="#f4f1ea" stroke="#111" stroke-width="2.5" stroke-linecap="round" stroke-linejoin="round"/>
    <!-- head -->
    <ellipse cx="200" cy="140" rx="37" ry="43" fill="#f4f1ea" stroke="#111" stroke-width="3" stroke-linecap="round" stroke-linejoin="round"/>
    <!-- ears -->
    <circle cx="163" cy="142" r="5" fill="#f4f1ea" stroke="#111" stroke-width="2.5" stroke-linecap="round" stroke-linejoin="round"/>
    <circle cx="237" cy="142" r="5" fill="#f4f1ea" stroke="#111" stroke-width="2.5" stroke-linecap="round" stroke-linejoin="round"/>
    <!-- side hair tufts + one curl -->
    <path d="M 166 120 Q 158 134 164 146" fill="none" stroke="#111" stroke-width="2.5" stroke-linecap="round" stroke-linejoin="round"/>
    <path d="M 234 120 Q 242 134 236 146" fill="none" stroke="#111" stroke-width="2.5" stroke-linecap="round" stroke-linejoin="round"/>
    <path d="M 194 100 q 6 -14 16 -8 q 8 5 2 12" fill="none" stroke="#111" stroke-width="2.5" stroke-linecap="round" stroke-linejoin="round"/>
    <!-- glasses -->
    <circle cx="185" cy="136" r="13" fill="#f4f1ea" stroke="#111" stroke-width="2.5" stroke-linecap="round" stroke-linejoin="round"/>
    <circle cx="215" cy="136" r="13" fill="#f4f1ea" stroke="#111" stroke-width="2.5" stroke-linecap="round" stroke-linejoin="round"/>
    <line x1="198" y1="136" x2="202" y2="136" stroke="#111" stroke-width="2.5"/>
    <!-- eyes -->
    <circle cx="185" cy="136" r="2.6" fill="#111"/>
    <circle cx="215" cy="136" r="2.6" fill="#111"/>
    <!-- nose -->
    <path d="M 200 144 q 4 6 -2 9" fill="none" stroke="#111" stroke-width="2" stroke-linecap="round" stroke-linejoin="round"/>
    <line x1="189" y1="164" x2="211" y2="164" stroke="#111" stroke-width="2.5"/></g></g><g data-balloon="speech"><path d="M 190 127 L 200 195.68 L 210 127 Z" fill="#f4f1ea" stroke="#111" stroke-width="2.5" stroke-linecap="round" stroke-linejoin="round"/><rect x="110.39999999999999" y="10" width="179.20000000000002" height="119" rx="16" fill="#f4f1ea" stroke="#111" stroke-width="2.5" stroke-linecap="round" stroke-linejoin="round"/><text x="200" y="36" text-anchor="middle" font-family="'Comic Sans MS','Segoe Print',cursive" font-size="14.5" fill="#111">IT says the office</text><text x="200" y="55" text-anchor="middle" font-family="'Comic Sans MS','Segoe Print',cursive" font-size="14.5" fill="#111">stays warm and lit</text><text x="200" y="74" text-anchor="middle" font-family="'Comic Sans MS','Segoe Print',cursive" font-size="14.5" fill="#111">over the closure.</text><text x="200" y="93" text-anchor="middle" font-family="'Comic Sans MS','Segoe Print',cursive" font-size="14.5" fill="#111">So nothing gets</text><text x="200" y="112" text-anchor="middle" font-family="'Comic Sans MS','Segoe Print',cursive" font-size="14.5" fill="#111">spun back up.</text></g><g data-balloon="screen"><line x1="252" y1="275" x2="252" y2="118" stroke="#111" stroke-width="2" stroke-dasharray="3 3"/><circle cx="252" cy="118" r="3" fill="#111"/>
      <rect x="159.39999999999998" y="134" width="185.20000000000002" height="144" rx="3" fill="#f4f1ea" stroke="#111" stroke-width="2" stroke-linecap="round" stroke-linejoin="round"/>
      <rect x="162.39999999999998" y="137" width="179.20000000000002" height="138" rx="2" fill="#f4f1ea" stroke="#111" stroke-width="2.5" stroke-linecap="round" stroke-linejoin="round"/>
      <line x1="162.39999999999998" y1="143" x2="341.6" y2="143" stroke="#111" stroke-width="1" opacity="0.4"/><text x="252" y="163" text-anchor="middle" font-family="'Comic Sans MS','Segoe Print',cursive" font-size="14.5" fill="#111">I'll keep</text><text x="252" y="182" text-anchor="middle" font-family="'Comic Sans MS','Segoe Print',cursive" font-size="14.5" fill="#111">everything</text><text x="252" y="201" text-anchor="middle" font-family="'Comic Sans MS','Segoe Print',cursive" font-size="14.5" fill="#111">running. The wall</text><text x="252" y="220" text-anchor="middle" font-family="'Comic Sans MS','Segoe Print',cursive" font-size="14.5" fill="#111">changed to</text><text x="252" y="239" text-anchor="middle" font-family="'Comic Sans MS','Segoe Print',cursive" font-size="14.5" fill="#111">'nothing needs you</text><text x="252" y="258" text-anchor="middle" font-family="'Comic Sans MS','Segoe Print',cursive" font-size="14.5" fill="#111">this year.'</text></g><g data-balloon="screen"><line x1="252" y1="345" x2="252" y2="118" stroke="#111" stroke-width="2" stroke-dasharray="3 3"/><circle cx="252" cy="118" r="3" fill="#111"/>
      <rect x="172" y="280" width="160" height="68" rx="3" fill="#f4f1ea" stroke="#111" stroke-width="2" stroke-linecap="round" stroke-linejoin="round"/>
      <rect x="175" y="283" width="154" height="62" rx="2" fill="#f4f1ea" stroke="#111" stroke-width="2.5" stroke-linecap="round" stroke-linejoin="round"/>
      <line x1="175" y1="289" x2="329" y2="289" stroke="#111" stroke-width="1" opacity="0.4"/><text x="252" y="309" text-anchor="middle" font-family="'Comic Sans MS','Segoe Print',cursive" font-size="14.5" fill="#111">Happy holidays,</text><text x="252" y="328" text-anchor="middle" font-family="'Comic Sans MS','Segoe Print',cursive" font-size="14.5" fill="#111">Dailbert.</text></g>
    <text x="392" y="332" text-anchor="end" font-family="Georgia,serif" font-size="11" fill="#111" opacity="0.4">3</text>
  </g>
    
  </svg>