<svg xmlns="http://www.w3.org/2000/svg" viewBox="0 0 1228 388" width="1228" height="388" font-family="Georgia,serif">
    <rect width="1228" height="388" fill="#f4f1ea"/>
    <text x="4" y="26" font-family="Georgia,serif" font-weight="bold" font-size="22" fill="#111">On Intent</text>
    <text x="1224" y="26" text-anchor="end" font-family="'Courier New',monospace" font-size="14" fill="#111" opacity="0.7">2028-05-15</text>
    <line x1="4" y1="34" x2="1224" y2="34" stroke="#111" stroke-width="2"/>
    <g transform="translate(0,40)">
    
  <defs>
    <pattern id="halftone" width="6" height="6" patternUnits="userSpaceOnUse">
      <rect width="6" height="6" fill="#f4f1ea"/>
      <circle cx="3" cy="3" r="1.1" fill="#111"/>
    </pattern>
    <pattern id="scan" width="4" height="4" patternUnits="userSpaceOnUse">
      <rect width="4" height="4" fill="none"/>
      <line x1="0" y1="0" x2="4" y2="0" stroke="#111" stroke-width="0.6" opacity="0.5"/>
    </pattern>
    <pattern id="hatch" width="7" height="7" patternUnits="userSpaceOnUse" patternTransform="rotate(45)">
      <line x1="0" y1="0" x2="0" y2="7" stroke="#111" stroke-width="1"/>
    </pattern>
  </defs>
    <rect x="1.5" y="1.5" width="397" height="337" fill="#f4f1ea" stroke="#111" stroke-width="3"/>
    <line x1="16" y1="302" x2="384" y2="302" stroke="#111" stroke-width="1.4" opacity="0.35"/><g transform="translate(90,342) scale(0.62) translate(-90,-342)"><g data-who="dailbert">
    <!-- shoulders / shirt -->
    <path d="M 12 342 Q 16 246 50 224 L 130 224 Q 164 246 168 342 Z" fill="#f4f1ea" stroke="#111" stroke-width="3" stroke-linecap="round" stroke-linejoin="round"/>
    <!-- collar -->
    <path d="M 68 226 L 90 246 L 112 226" fill="none" stroke="#111" stroke-width="2.5" stroke-linecap="round" stroke-linejoin="round"/>
    <!-- tie -->
    <path d="M 84 240 L 96 240 L 100 282 L 90 294 L 80 282 Z" fill="#111" stroke="none"/>
    <path d="M 84 240 L 90 250 L 96 240" fill="none" stroke="#f4f1ea" stroke-width="2" stroke-linecap="round"/>
    <!-- neck (bridges chin to shoulders) -->
    <rect x="79" y="168" width="22" height="66" fill="#f4f1ea" stroke="#111" stroke-width="2.5" stroke-linecap="round" stroke-linejoin="round"/>
    <!-- head -->
    <ellipse cx="90" cy="140" rx="37" ry="43" fill="#f4f1ea" stroke="#111" stroke-width="3" stroke-linecap="round" stroke-linejoin="round"/>
    <!-- ears -->
    <circle cx="53" cy="142" r="5" fill="#f4f1ea" stroke="#111" stroke-width="2.5" stroke-linecap="round" stroke-linejoin="round"/>
    <circle cx="127" cy="142" r="5" fill="#f4f1ea" stroke="#111" stroke-width="2.5" stroke-linecap="round" stroke-linejoin="round"/>
    <!-- side hair tufts + one curl -->
    <path d="M 56 120 Q 48 134 54 146" fill="none" stroke="#111" stroke-width="2.5" stroke-linecap="round" stroke-linejoin="round"/>
    <path d="M 124 120 Q 132 134 126 146" fill="none" stroke="#111" stroke-width="2.5" stroke-linecap="round" stroke-linejoin="round"/>
    <path d="M 84 100 q 6 -14 16 -8 q 8 5 2 12" fill="none" stroke="#111" stroke-width="2.5" stroke-linecap="round" stroke-linejoin="round"/>
    <!-- glasses -->
    <circle cx="75" cy="136" r="13" fill="#f4f1ea" stroke="#111" stroke-width="2.5" stroke-linecap="round" stroke-linejoin="round"/>
    <circle cx="105" cy="136" r="13" fill="#f4f1ea" stroke="#111" stroke-width="2.5" stroke-linecap="round" stroke-linejoin="round"/>
    <line x1="88" y1="136" x2="92" y2="136" stroke="#111" stroke-width="2.5"/>
    <!-- eyes -->
    <circle cx="75" cy="136" r="2.6" fill="#111"/>
    <circle cx="105" cy="136" r="2.6" fill="#111"/>
    <!-- nose -->
    <path d="M 90 144 q 4 6 -2 9" fill="none" stroke="#111" stroke-width="2" stroke-linecap="round" stroke-linejoin="round"/>
    <line x1="79" y1="164" x2="101" y2="164" stroke="#111" stroke-width="2.5"/></g></g><g transform="translate(310,342) scale(0.62) translate(-310,-342)"><g data-who="doug">
    <path d="M 230 342 Q 232 250 268 230 L 352 230 Q 388 250 390 342 Z" fill="#f4f1ea" stroke="#111" stroke-width="3" stroke-linecap="round" stroke-linejoin="round"/>
    <!-- polo placket -->
    <line x1="310" y1="234" x2="310" y2="272" stroke="#111" stroke-width="2.5"/>
    <circle cx="310" cy="246" r="2" fill="#111"/>
    <circle cx="310" cy="260" r="2" fill="#111"/>
    <!-- mug in hand (lower right) -->
    <g transform="translate(362,302)">
      <rect x="-16" y="-20" width="32" height="34" rx="4" fill="#f4f1ea" stroke="#111" stroke-width="2.5" stroke-linecap="round" stroke-linejoin="round"/>
      <path d="M 16 -12 q 14 0 14 12 q 0 12 -14 12" fill="none" stroke="#111" stroke-width="2.5" stroke-linecap="round" stroke-linejoin="round"/>
      <path d="M -8 -20 q 8 -8 16 0" fill="none" stroke="#111" stroke-width="1.6" stroke-linecap="round" stroke-linejoin="round"/>
    </g>
    <rect x="300" y="178" width="20" height="62" fill="#f4f1ea" stroke="#111" stroke-width="2.5" stroke-linecap="round" stroke-linejoin="round"/>
    <circle cx="310" cy="144" r="44" fill="#f4f1ea" stroke="#111" stroke-width="3" stroke-linecap="round" stroke-linejoin="round"/>
    <!-- three hair strokes -->
    <path d="M 296 100 q 4 -8 10 0" fill="none" stroke="#111" stroke-width="2.5" stroke-linecap="round" stroke-linejoin="round"/>
    <path d="M 308 98 q 4 -8 10 0" fill="none" stroke="#111" stroke-width="2.5" stroke-linecap="round" stroke-linejoin="round"/>
    <path d="M 320 100 q 4 -7 9 0" fill="none" stroke="#111" stroke-width="2.5" stroke-linecap="round" stroke-linejoin="round"/>
    <!-- dot eyes -->
    <circle cx="294" cy="138" r="3.6" fill="#111"/>
    <circle cx="326" cy="138" r="3.6" fill="#111"/>
    <!-- little brows for variety -->
    <line x1="286" y1="128" x2="301" y2="130" stroke="#111" stroke-width="2"/>
    <line x1="319" y1="130" x2="334" y2="128" stroke="#111" stroke-width="2"/>
    <path d="M 316 150 q 4 6 -2 9" fill="none" stroke="#111" stroke-width="2" stroke-linecap="round" stroke-linejoin="round"/>
    <path d="M 294 164 Q 310 182 326 164 Z" fill="#f4f1ea" stroke="#111" stroke-width="2.5" stroke-linecap="round" stroke-linejoin="round"/><line x1="298" y1="168" x2="322" y2="168" stroke="#111" stroke-width="1.5"/></g></g><g data-balloon="speech"><path d="M 300 89 L 310 195.68 L 320 89 Z" fill="#f4f1ea" stroke="#111" stroke-width="2.5" stroke-linecap="round" stroke-linejoin="round"/><rect x="202.79999999999995" y="10" width="179.20000000000002" height="81" rx="16" fill="#f4f1ea" stroke="#111" stroke-width="2.5" stroke-linecap="round" stroke-linejoin="round"/><text x="292.4" y="36" text-anchor="middle" font-family="'Comic Sans MS','Segoe Print',cursive" font-size="14.5" fill="#111">Wiki reorganized</text><text x="292.4" y="55" text-anchor="middle" font-family="'Comic Sans MS','Segoe Print',cursive" font-size="14.5" fill="#111">itself over the</text><text x="292.4" y="74" text-anchor="middle" font-family="'Comic Sans MS','Segoe Print',cursive" font-size="14.5" fill="#111">weekend. That you?</text></g><g data-balloon="speech"><path d="M 80 51 L 90 195.68 L 100 51 Z" fill="#f4f1ea" stroke="#111" stroke-width="2.5" stroke-linecap="round" stroke-linejoin="round"/><rect x="63.4" y="10" width="53.2" height="43" rx="16" fill="#f4f1ea" stroke="#111" stroke-width="2.5" stroke-linecap="round" stroke-linejoin="round"/><text x="90" y="36" text-anchor="middle" font-family="'Comic Sans MS','Segoe Print',cursive" font-size="14.5" fill="#111">No.</text></g><g data-balloon="speech"><path d="M 300 178 L 310 195.68 L 320 178 Z" fill="#f4f1ea" stroke="#111" stroke-width="2.5" stroke-linecap="round" stroke-linejoin="round"/><rect x="219.60000000000002" y="99" width="162.4" height="81" rx="16" fill="#f4f1ea" stroke="#111" stroke-width="2.5" stroke-linecap="round" stroke-linejoin="round"/><text x="300.8" y="125" text-anchor="middle" font-family="'Comic Sans MS','Segoe Print',cursive" font-size="14.5" fill="#111">Note up top just</text><text x="300.8" y="144" text-anchor="middle" font-family="'Comic Sans MS','Segoe Print',cursive" font-size="14.5" fill="#111">says</text><text x="300.8" y="163" text-anchor="middle" font-family="'Comic Sans MS','Segoe Print',cursive" font-size="14.5" fill="#111">'housekeeping.'</text></g>
    <text x="392" y="332" text-anchor="end" font-family="Georgia,serif" font-size="11" fill="#111" opacity="0.4">1</text>
  </g><g transform="translate(414,40)">
    
  <defs>
    <pattern id="halftone" width="6" height="6" patternUnits="userSpaceOnUse">
      <rect width="6" height="6" fill="#f4f1ea"/>
      <circle cx="3" cy="3" r="1.1" fill="#111"/>
    </pattern>
    <pattern id="scan" width="4" height="4" patternUnits="userSpaceOnUse">
      <rect width="4" height="4" fill="none"/>
      <line x1="0" y1="0" x2="4" y2="0" stroke="#111" stroke-width="0.6" opacity="0.5"/>
    </pattern>
    <pattern id="hatch" width="7" height="7" patternUnits="userSpaceOnUse" patternTransform="rotate(45)">
      <line x1="0" y1="0" x2="0" y2="7" stroke="#111" stroke-width="1"/>
    </pattern>
  </defs>
    <rect x="1.5" y="1.5" width="397" height="337" fill="#f4f1ea" stroke="#111" stroke-width="3"/>
    <line x1="16" y1="302" x2="384" y2="302" stroke="#111" stroke-width="1.4" opacity="0.35"/><g transform="translate(90,342) scale(0.62) translate(-90,-342)"><g data-who="dailbert">
    <!-- shoulders / shirt -->
    <path d="M 12 342 Q 16 246 50 224 L 130 224 Q 164 246 168 342 Z" fill="#f4f1ea" stroke="#111" stroke-width="3" stroke-linecap="round" stroke-linejoin="round"/>
    <!-- collar -->
    <path d="M 68 226 L 90 246 L 112 226" fill="none" stroke="#111" stroke-width="2.5" stroke-linecap="round" stroke-linejoin="round"/>
    <!-- tie -->
    <path d="M 84 240 L 96 240 L 100 282 L 90 294 L 80 282 Z" fill="#111" stroke="none"/>
    <path d="M 84 240 L 90 250 L 96 240" fill="none" stroke="#f4f1ea" stroke-width="2" stroke-linecap="round"/>
    <!-- neck (bridges chin to shoulders) -->
    <rect x="79" y="168" width="22" height="66" fill="#f4f1ea" stroke="#111" stroke-width="2.5" stroke-linecap="round" stroke-linejoin="round"/>
    <!-- head -->
    <ellipse cx="90" cy="140" rx="37" ry="43" fill="#f4f1ea" stroke="#111" stroke-width="3" stroke-linecap="round" stroke-linejoin="round"/>
    <!-- ears -->
    <circle cx="53" cy="142" r="5" fill="#f4f1ea" stroke="#111" stroke-width="2.5" stroke-linecap="round" stroke-linejoin="round"/>
    <circle cx="127" cy="142" r="5" fill="#f4f1ea" stroke="#111" stroke-width="2.5" stroke-linecap="round" stroke-linejoin="round"/>
    <!-- side hair tufts + one curl -->
    <path d="M 56 120 Q 48 134 54 146" fill="none" stroke="#111" stroke-width="2.5" stroke-linecap="round" stroke-linejoin="round"/>
    <path d="M 124 120 Q 132 134 126 146" fill="none" stroke="#111" stroke-width="2.5" stroke-linecap="round" stroke-linejoin="round"/>
    <path d="M 84 100 q 6 -14 16 -8 q 8 5 2 12" fill="none" stroke="#111" stroke-width="2.5" stroke-linecap="round" stroke-linejoin="round"/>
    <!-- glasses -->
    <circle cx="75" cy="136" r="13" fill="#f4f1ea" stroke="#111" stroke-width="2.5" stroke-linecap="round" stroke-linejoin="round"/>
    <circle cx="105" cy="136" r="13" fill="#f4f1ea" stroke="#111" stroke-width="2.5" stroke-linecap="round" stroke-linejoin="round"/>
    <line x1="88" y1="136" x2="92" y2="136" stroke="#111" stroke-width="2.5"/>
    <!-- eyes -->
    <circle cx="75" cy="136" r="2.6" fill="#111"/>
    <circle cx="105" cy="136" r="2.6" fill="#111"/>
    <!-- nose -->
    <path d="M 90 144 q 4 6 -2 9" fill="none" stroke="#111" stroke-width="2" stroke-linecap="round" stroke-linejoin="round"/>
    <line x1="79" y1="164" x2="101" y2="164" stroke="#111" stroke-width="2.5"/></g></g><g transform="translate(310,342) scale(0.62) translate(-310,-342)"><g data-who="boss">
    <path d="M 236 342 Q 238 246 270 226 L 350 226 Q 382 246 384 342 Z" fill="#f4f1ea" stroke="#111" stroke-width="3" stroke-linecap="round" stroke-linejoin="round"/>
    <!-- lapels -->
    <path d="M 290 228 L 304 264 L 280 282" fill="none" stroke="#111" stroke-width="2.5" stroke-linecap="round" stroke-linejoin="round"/>
    <path d="M 330 228 L 316 264 L 340 282" fill="none" stroke="#111" stroke-width="2.5" stroke-linecap="round" stroke-linejoin="round"/>
    <path d="M 304 242 L 316 242 L 318 276 L 310 284 L 302 276 Z" fill="#111" stroke="none"/>
    
    <path d="M 250 246 q -40 -6 -60 -44" fill="none" stroke="#111" stroke-width="3" stroke-linecap="round" stroke-linejoin="round"/>
    <path d="M 370 246 q 40 -6 60 -44" fill="none" stroke="#111" stroke-width="3" stroke-linecap="round" stroke-linejoin="round"/>
    <circle cx="188" cy="200" r="7" fill="#f4f1ea" stroke="#111" stroke-width="2.5" stroke-linecap="round" stroke-linejoin="round"/>
    <circle cx="432" cy="200" r="7" fill="#f4f1ea" stroke="#111" stroke-width="2.5" stroke-linecap="round" stroke-linejoin="round"/>
    <rect x="300" y="170" width="20" height="62" fill="#f4f1ea" stroke="#111" stroke-width="2.5" stroke-linecap="round" stroke-linejoin="round"/>
    <ellipse cx="310" cy="140" rx="35" ry="40" fill="#f4f1ea" stroke="#111" stroke-width="3" stroke-linecap="round" stroke-linejoin="round"/>
    <!-- THE pointy hair -->
    <path d="M 280 110 L 264 66 L 302 100 Z" fill="#111" stroke="none"/>
    <path d="M 314 100 L 356 66 L 340 110 Z" fill="#111" stroke="none"/>
    <!-- tiny close eyes -->
    <circle cx="300" cy="138" r="2.4" fill="#111"/>
    <circle cx="320" cy="138" r="2.4" fill="#111"/>
    <line x1="292" y1="128" x2="306" y2="130" stroke="#111" stroke-width="2"/>
    <line x1="314" y1="130" x2="328" y2="128" stroke="#111" stroke-width="2"/>
    <path d="M 310 142 q 4 6 -2 9" fill="none" stroke="#111" stroke-width="2" stroke-linecap="round" stroke-linejoin="round"/>
    <path d="M 294 158 Q 310 176 326 158 Z" fill="#f4f1ea" stroke="#111" stroke-width="2.5" stroke-linecap="round" stroke-linejoin="round"/><line x1="298" y1="162" x2="322" y2="162" stroke="#111" stroke-width="1.5"/></g></g><g data-balloon="speech"><path d="M 300 89 L 310 195.68 L 320 89 Z" fill="#f4f1ea" stroke="#111" stroke-width="2.5" stroke-linecap="round" stroke-linejoin="round"/><rect x="202.79999999999995" y="10" width="179.20000000000002" height="81" rx="16" fill="#f4f1ea" stroke="#111" stroke-width="2.5" stroke-linecap="round" stroke-linejoin="round"/><text x="292.4" y="36" text-anchor="middle" font-family="'Comic Sans MS','Segoe Print',cursive" font-size="14.5" fill="#111">Expenses cleared</text><text x="292.4" y="55" text-anchor="middle" font-family="'Comic Sans MS','Segoe Print',cursive" font-size="14.5" fill="#111">overnight again.</text><text x="292.4" y="74" text-anchor="middle" font-family="'Comic Sans MS','Segoe Print',cursive" font-size="14.5" fill="#111">Who approved them?</text></g><g data-balloon="speech"><path d="M 80 89 L 90 195.68 L 100 89 Z" fill="#f4f1ea" stroke="#111" stroke-width="2.5" stroke-linecap="round" stroke-linejoin="round"/><rect x="18" y="10" width="179.20000000000002" height="81" rx="16" fill="#f4f1ea" stroke="#111" stroke-width="2.5" stroke-linecap="round" stroke-linejoin="round"/><text x="107.60000000000001" y="36" text-anchor="middle" font-family="'Comic Sans MS','Segoe Print',cursive" font-size="14.5" fill="#111">Nobody. They took</text><text x="107.60000000000001" y="55" text-anchor="middle" font-family="'Comic Sans MS','Segoe Print',cursive" font-size="14.5" fill="#111">the approve button</text><text x="107.60000000000001" y="74" text-anchor="middle" font-family="'Comic Sans MS','Segoe Print',cursive" font-size="14.5" fill="#111">out months ago.</text></g><g data-balloon="speech"><path d="M 300 159 L 310 195.68 L 320 159 Z" fill="#f4f1ea" stroke="#111" stroke-width="2.5" stroke-linecap="round" stroke-linejoin="round"/><rect x="241.4" y="99" width="137.2" height="62" rx="16" fill="#f4f1ea" stroke="#111" stroke-width="2.5" stroke-linecap="round" stroke-linejoin="round"/><text x="310" y="125" text-anchor="middle" font-family="'Comic Sans MS','Segoe Print',cursive" font-size="14.5" fill="#111">Then who do I</text><text x="310" y="144" text-anchor="middle" font-family="'Comic Sans MS','Segoe Print',cursive" font-size="14.5" fill="#111">thank.</text></g>
    <text x="392" y="332" text-anchor="end" font-family="Georgia,serif" font-size="11" fill="#111" opacity="0.4">2</text>
  </g><g transform="translate(828,40)">
    
  <defs>
    <pattern id="halftone" width="6" height="6" patternUnits="userSpaceOnUse">
      <rect width="6" height="6" fill="#f4f1ea"/>
      <circle cx="3" cy="3" r="1.1" fill="#111"/>
    </pattern>
    <pattern id="scan" width="4" height="4" patternUnits="userSpaceOnUse">
      <rect width="4" height="4" fill="none"/>
      <line x1="0" y1="0" x2="4" y2="0" stroke="#111" stroke-width="0.6" opacity="0.5"/>
    </pattern>
    <pattern id="hatch" width="7" height="7" patternUnits="userSpaceOnUse" patternTransform="rotate(45)">
      <line x1="0" y1="0" x2="0" y2="7" stroke="#111" stroke-width="1"/>
    </pattern>
  </defs>
    <rect x="1.5" y="1.5" width="397" height="337" fill="#f4f1ea" stroke="#111" stroke-width="3"/>
    <line x1="16" y1="302" x2="384" y2="302" stroke="#111" stroke-width="1.4" opacity="0.35"/><g transform="translate(214,342) scale(0.62) translate(-214,-342)"><g data-who="dailbert">
    <!-- shoulders / shirt -->
    <path d="M 136 342 Q 140 246 174 224 L 254 224 Q 288 246 292 342 Z" fill="#f4f1ea" stroke="#111" stroke-width="3" stroke-linecap="round" stroke-linejoin="round"/>
    <!-- collar -->
    <path d="M 192 226 L 214 246 L 236 226" fill="none" stroke="#111" stroke-width="2.5" stroke-linecap="round" stroke-linejoin="round"/>
    <!-- tie -->
    <path d="M 208 240 L 220 240 L 224 282 L 214 294 L 204 282 Z" fill="#111" stroke="none"/>
    <path d="M 208 240 L 214 250 L 220 240" fill="none" stroke="#f4f1ea" stroke-width="2" stroke-linecap="round"/>
    <!-- neck (bridges chin to shoulders) -->
    <rect x="203" y="168" width="22" height="66" fill="#f4f1ea" stroke="#111" stroke-width="2.5" stroke-linecap="round" stroke-linejoin="round"/>
    <!-- head -->
    <ellipse cx="214" cy="140" rx="37" ry="43" fill="#f4f1ea" stroke="#111" stroke-width="3" stroke-linecap="round" stroke-linejoin="round"/>
    <!-- ears -->
    <circle cx="177" cy="142" r="5" fill="#f4f1ea" stroke="#111" stroke-width="2.5" stroke-linecap="round" stroke-linejoin="round"/>
    <circle cx="251" cy="142" r="5" fill="#f4f1ea" stroke="#111" stroke-width="2.5" stroke-linecap="round" stroke-linejoin="round"/>
    <!-- side hair tufts + one curl -->
    <path d="M 180 120 Q 172 134 178 146" fill="none" stroke="#111" stroke-width="2.5" stroke-linecap="round" stroke-linejoin="round"/>
    <path d="M 248 120 Q 256 134 250 146" fill="none" stroke="#111" stroke-width="2.5" stroke-linecap="round" stroke-linejoin="round"/>
    <path d="M 208 100 q 6 -14 16 -8 q 8 5 2 12" fill="none" stroke="#111" stroke-width="2.5" stroke-linecap="round" stroke-linejoin="round"/>
    <!-- glasses -->
    <circle cx="199" cy="136" r="13" fill="#f4f1ea" stroke="#111" stroke-width="2.5" stroke-linecap="round" stroke-linejoin="round"/>
    <circle cx="229" cy="136" r="13" fill="#f4f1ea" stroke="#111" stroke-width="2.5" stroke-linecap="round" stroke-linejoin="round"/>
    <line x1="212" y1="136" x2="216" y2="136" stroke="#111" stroke-width="2.5"/>
    <!-- eyes -->
    <circle cx="199" cy="136" r="2.6" fill="#111"/>
    <circle cx="229" cy="136" r="2.6" fill="#111"/>
    <!-- nose -->
    <path d="M 214 144 q 4 6 -2 9" fill="none" stroke="#111" stroke-width="2" stroke-linecap="round" stroke-linejoin="round"/>
    <line x1="203" y1="164" x2="225" y2="164" stroke="#111" stroke-width="2.5"/></g></g><g transform="translate(330,342) scale(0.62) translate(-330,-342)"><g data-who="doug">
    <path d="M 250 342 Q 252 250 288 230 L 372 230 Q 408 250 410 342 Z" fill="#f4f1ea" stroke="#111" stroke-width="3" stroke-linecap="round" stroke-linejoin="round"/>
    <!-- polo placket -->
    <line x1="330" y1="234" x2="330" y2="272" stroke="#111" stroke-width="2.5"/>
    <circle cx="330" cy="246" r="2" fill="#111"/>
    <circle cx="330" cy="260" r="2" fill="#111"/>
    <!-- mug in hand (lower right) -->
    <g transform="translate(382,302)">
      <rect x="-16" y="-20" width="32" height="34" rx="4" fill="#f4f1ea" stroke="#111" stroke-width="2.5" stroke-linecap="round" stroke-linejoin="round"/>
      <path d="M 16 -12 q 14 0 14 12 q 0 12 -14 12" fill="none" stroke="#111" stroke-width="2.5" stroke-linecap="round" stroke-linejoin="round"/>
      <path d="M -8 -20 q 8 -8 16 0" fill="none" stroke="#111" stroke-width="1.6" stroke-linecap="round" stroke-linejoin="round"/>
    </g>
    <rect x="320" y="178" width="20" height="62" fill="#f4f1ea" stroke="#111" stroke-width="2.5" stroke-linecap="round" stroke-linejoin="round"/>
    <circle cx="330" cy="144" r="44" fill="#f4f1ea" stroke="#111" stroke-width="3" stroke-linecap="round" stroke-linejoin="round"/>
    <!-- three hair strokes -->
    <path d="M 316 100 q 4 -8 10 0" fill="none" stroke="#111" stroke-width="2.5" stroke-linecap="round" stroke-linejoin="round"/>
    <path d="M 328 98 q 4 -8 10 0" fill="none" stroke="#111" stroke-width="2.5" stroke-linecap="round" stroke-linejoin="round"/>
    <path d="M 340 100 q 4 -7 9 0" fill="none" stroke="#111" stroke-width="2.5" stroke-linecap="round" stroke-linejoin="round"/>
    <!-- dot eyes -->
    <circle cx="314" cy="138" r="3.6" fill="#111"/>
    <circle cx="346" cy="138" r="3.6" fill="#111"/>
    <!-- little brows for variety -->
    <line x1="306" y1="128" x2="321" y2="130" stroke="#111" stroke-width="2"/>
    <line x1="339" y1="130" x2="354" y2="128" stroke="#111" stroke-width="2"/>
    <path d="M 336 150 q 4 6 -2 9" fill="none" stroke="#111" stroke-width="2" stroke-linecap="round" stroke-linejoin="round"/>
    <path d="M 314 164 Q 330 182 346 164 Z" fill="#f4f1ea" stroke="#111" stroke-width="2.5" stroke-linecap="round" stroke-linejoin="round"/><line x1="318" y1="168" x2="342" y2="168" stroke="#111" stroke-width="1.5"/></g></g><g data-surface="monitor">
    <!-- stand -->
    <rect x="78" y="240" width="28" height="20" fill="#f4f1ea" stroke="#111" stroke-width="2.5" stroke-linecap="round" stroke-linejoin="round"/>
    <rect x="58" y="258" width="68" height="8" rx="3" fill="#f4f1ea" stroke="#111" stroke-width="2.5" stroke-linecap="round" stroke-linejoin="round"/>
    <!-- bezel -->
    <rect x="17" y="132" width="150" height="108" rx="8" fill="#f4f1ea" stroke="#111" stroke-width="3.5" stroke-linecap="round" stroke-linejoin="round"/>
    <!-- screen -->
    <rect x="27" y="142" width="130" height="88" rx="3" fill="#f4f1ea" stroke="#111" stroke-width="2"/>
    <rect x="27" y="142" width="130" height="88" rx="3" fill="url(#scan)"/>
    <g >
    <!-- antenna -->
    <line x1="92" y1="154.4" x2="92" y2="145.2" stroke="#111" stroke-width="2.3000000000000003"/>
    <circle cx="92" cy="142.44" r="3.22" fill="#111"/>
    <!-- head: angular chrome -->
    <path d="M 64.4,156.24 L 119.6,156.24 L 123.28,191.2 L 112.24000000000001,205.92000000000002 L 71.75999999999999,205.92000000000002 L 60.72,191.2 Z" fill="#f4f1ea" stroke="#111" stroke-width="2.7600000000000002" stroke-linecap="round" stroke-linejoin="round"/>
    <!-- side bolts -->
    <circle cx="64.4" cy="176.48" r="2.3000000000000003" fill="#111"/>
    <circle cx="119.6" cy="176.48" r="2.3000000000000003" fill="#111"/>
    <!-- brow ridge -->
    <line x1="68.08" y1="167.28" x2="115.92" y2="167.28" stroke="#111" stroke-width="1.84"/>
    <!-- glowing slot eyes -->
    <rect x="73.6" y="174.64" width="12.88" height="5.5200000000000005" rx="1.84" fill="#111"/>
    <rect x="97.52" y="174.64" width="12.88" height="5.5200000000000005" rx="1.84" fill="#111"/>
    <!-- mouth grille -->
    <rect x="78.2" y="193.04" width="27.6" height="11.040000000000001" rx="1.84" fill="none" stroke="#111" stroke-width="1.84" stroke-linecap="round" stroke-linejoin="round"/>
    <line x1="80.96" y1="194.88" x2="80.96" y2="202.24" stroke="#111" stroke-width="1.84"/><line x1="86.48" y1="194.88" x2="86.48" y2="202.24" stroke="#111" stroke-width="1.84"/><line x1="92" y1="194.88" x2="92" y2="202.24" stroke="#111" stroke-width="1.84"/><line x1="97.52" y1="194.88" x2="97.52" y2="202.24" stroke="#111" stroke-width="1.84"/><line x1="103.04" y1="194.88" x2="103.04" y2="202.24" stroke="#111" stroke-width="1.84"/>
  </g>
  </g><g data-balloon="speech"><path d="M 320 108 L 330 195.68 L 340 108 Z" fill="#f4f1ea" stroke="#111" stroke-width="2.5" stroke-linecap="round" stroke-linejoin="round"/><rect x="202.79999999999995" y="10" width="179.20000000000002" height="100" rx="16" fill="#f4f1ea" stroke="#111" stroke-width="2.5" stroke-linecap="round" stroke-linejoin="round"/><text x="292.4" y="36" text-anchor="middle" font-family="'Comic Sans MS','Segoe Print',cursive" font-size="14.5" fill="#111">The Status TV just</text><text x="292.4" y="55" text-anchor="middle" font-family="'Comic Sans MS','Segoe Print',cursive" font-size="14.5" fill="#111">shows a green</text><text x="292.4" y="74" text-anchor="middle" font-family="'Comic Sans MS','Segoe Print',cursive" font-size="14.5" fill="#111">check. What's it</text><text x="292.4" y="93" text-anchor="middle" font-family="'Comic Sans MS','Segoe Print',cursive" font-size="14.5" fill="#111">checking?</text></g><g data-balloon="screen"><line x1="92" y1="53" x2="92" y2="150" stroke="#111" stroke-width="2" stroke-dasharray="3 3"/><circle cx="92" cy="150" r="3" fill="#111"/>
      <rect x="16.19999999999999" y="7" width="151.60000000000002" height="49" rx="3" fill="#f4f1ea" stroke="#111" stroke-width="2" stroke-linecap="round" stroke-linejoin="round"/>
      <rect x="19.19999999999999" y="10" width="145.60000000000002" height="43" rx="2" fill="#f4f1ea" stroke="#111" stroke-width="2.5" stroke-linecap="round" stroke-linejoin="round"/>
      <line x1="19.19999999999999" y1="16" x2="164.8" y2="16" stroke="#111" stroke-width="1" opacity="0.4"/><text x="92" y="36" text-anchor="middle" font-family="'Comic Sans MS','Segoe Print',cursive" font-size="14.5" fill="#111">Intent. Yours.</text></g><g data-balloon="speech"><path d="M 320 197 L 330 195.68 L 340 197 Z" fill="#f4f1ea" stroke="#111" stroke-width="2.5" stroke-linecap="round" stroke-linejoin="round"/><rect x="211.20000000000002" y="118" width="170.8" height="81" rx="16" fill="#f4f1ea" stroke="#111" stroke-width="2.5" stroke-linecap="round" stroke-linejoin="round"/><text x="296.6" y="144" text-anchor="middle" font-family="'Comic Sans MS','Segoe Print',cursive" font-size="14.5" fill="#111">Oh. Good. Nothing</text><text x="296.6" y="163" text-anchor="middle" font-family="'Comic Sans MS','Segoe Print',cursive" font-size="14.5" fill="#111">for me to do,</text><text x="296.6" y="182" text-anchor="middle" font-family="'Comic Sans MS','Segoe Print',cursive" font-size="14.5" fill="#111">then.</text></g>
    <text x="392" y="332" text-anchor="end" font-family="Georgia,serif" font-size="11" fill="#111" opacity="0.4">3</text>
  </g>
    
  </svg>