<svg xmlns="http://www.w3.org/2000/svg" viewBox="0 0 1228 388" width="1228" height="388" font-family="Georgia,serif">
    <rect width="1228" height="388" fill="#f4f1ea"/>
    <text x="4" y="26" font-family="Georgia,serif" font-weight="bold" font-size="22" fill="#111">On Intent</text>
    <text x="1224" y="26" text-anchor="end" font-family="'Courier New',monospace" font-size="14" fill="#111" opacity="0.7">2028-05-15</text>
    <line x1="4" y1="34" x2="1224" y2="34" stroke="#111" stroke-width="2"/>
    <g transform="translate(0,40)">
<defs>
<style>
path,ellipse,circle,rect,line,polygon,polyline{stroke-linejoin:round;stroke-linecap:round}
text{font-family:'Comic Sans MS','Segoe Print',cursive;font-size:14px;fill:#111;text-anchor:middle}
.ink{fill:none;stroke:#111;stroke-width:2.5}
.thin{fill:none;stroke:#111;stroke-width:1.6}
.paper{fill:#f4f1ea;stroke:#111;stroke-width:2.5}
.bln{fill:#fff;stroke:#111;stroke-width:2}
</style>

<symbol id="dailbert" viewBox="0 0 120 200">
<path d="M22,200 L26,150 Q30,132 48,126 L72,126 Q90,132 94,200 Z" class="paper"/>
<line x1="50" y1="110" x2="50" y2="126" class="ink"/>
<line x1="70" y1="110" x2="70" y2="126" class="ink"/>
<path d="M46,126 L60,142 L74,126" class="ink"/>
<path d="M60,142 L55,152 L60,178 L65,152 Z" fill="#111" stroke="#111" stroke-width="1"/>
<ellipse cx="60" cy="80" rx="30" ry="34" class="paper"/>
<path d="M46,50 q8,-14 20,-6 q-8,-3 -12,5" class="ink"/>
<ellipse cx="30" cy="82" rx="4" ry="7" class="paper"/>
<ellipse cx="90" cy="82" rx="4" ry="7" class="paper"/>
<circle cx="48" cy="82" r="9" class="ink"/>
<circle cx="72" cy="82" r="9" class="ink"/>
<line x1="57" y1="82" x2="63" y2="82" class="ink"/>
<line x1="39" y1="80" x2="34" y2="78" class="thin"/>
<line x1="81" y1="80" x2="86" y2="78" class="thin"/>
<circle cx="48" cy="83" r="2" fill="#111"/>
<circle cx="72" cy="83" r="2" fill="#111"/>
<path d="M60,88 l-3,8 l6,0" class="thin"/>
<line x1="53" y1="106" x2="67" y2="106" class="ink"/>
</symbol>

<symbol id="doug" viewBox="0 0 120 200">
<path d="M20,200 L26,150 Q30,132 48,126 L72,126 Q90,132 94,150 L100,200 Z" class="paper"/>
<line x1="50" y1="110" x2="50" y2="126" class="ink"/>
<line x1="70" y1="110" x2="70" y2="126" class="ink"/>
<path d="M46,126 L60,140 L74,126" class="ink"/>
<circle cx="60" cy="80" r="33" class="paper"/>
<path d="M42,53 l6,-13 l6,11 l6,-13 l6,13 l6,-11 l5,12" class="ink"/>
<ellipse cx="29" cy="82" rx="4" ry="6" class="paper"/>
<ellipse cx="91" cy="82" rx="4" ry="6" class="paper"/>
<circle cx="49" cy="76" r="3" fill="#111"/>
<circle cx="71" cy="76" r="3" fill="#111"/>
<path d="M44,90 Q60,114 76,90" class="ink"/>
<path d="M48,92 H72" class="thin"/>
<path d="M88,132 q-4,-7 2,-13" class="thin"/>
<path d="M98,132 q4,-7 -2,-13" class="thin"/>
<rect x="84" y="140" width="26" height="30" rx="3" class="paper"/>
<path d="M110,146 q11,5 0,19" class="ink"/>
<path d="M87,146 q0,10 8,12" class="thin"/>
<ellipse cx="82" cy="158" rx="8" ry="6" class="paper"/>
</symbol>

<symbol id="boss" viewBox="0 0 120 200">
<path d="M24,200 L28,150 Q32,134 50,128 L70,128 Q88,134 92,150 L96,200 Z" class="paper"/>
<path d="M32,150 Q10,120 18,98" class="ink"/>
<path d="M88,150 Q110,120 102,98" class="ink"/>
<circle cx="18" cy="95" r="6" class="paper"/>
<circle cx="102" cy="95" r="6" class="paper"/>
<line x1="50" y1="112" x2="50" y2="128" class="ink"/>
<line x1="70" y1="112" x2="70" y2="128" class="ink"/>
<path d="M48,128 L60,120 L72,128" class="ink"/>
<path d="M60,120 L55,130 L60,152 L65,130 Z" fill="#111" stroke="#111" stroke-width="1"/>
<ellipse cx="60" cy="84" rx="26" ry="30" class="paper"/>
<path d="M44,58 L34,16 L54,52 Z" class="paper"/>
<path d="M76,58 L86,16 L66,52 Z" class="paper"/>
<circle cx="52" cy="82" r="2.4" fill="#111"/>
<circle cx="68" cy="82" r="2.4" fill="#111"/>
<path d="M52,98 q8,4 14,0" class="ink"/>
</symbol>

<symbol id="clanker" viewBox="0 0 100 90">
<line x1="50" y1="6" x2="50" y2="18" class="ink"/>
<circle cx="50" cy="5" r="3.5" fill="#111"/>
<rect x="16" y="18" width="68" height="58" rx="5" class="paper"/>
<circle cx="12" cy="42" r="3" class="paper"/>
<circle cx="88" cy="42" r="3" class="paper"/>
<line x1="16" y1="42" x2="9" y2="42" class="ink"/>
<line x1="84" y1="42" x2="91" y2="42" class="ink"/>
<rect x="22" y="32" width="20" height="10" rx="2" fill="#111"/>
<rect x="58" y="32" width="20" height="10" rx="2" fill="#111"/>
<line x1="25" y1="34" x2="31" y2="34" stroke="#f4f1ea" stroke-width="1.5"/>
<line x1="61" y1="34" x2="67" y2="34" stroke="#f4f1ea" stroke-width="1.5"/>
<rect x="30" y="54" width="40" height="14" rx="2" class="ink"/>
<line x1="38" y1="54" x2="38" y2="68" class="thin"/>
<line x1="46" y1="54" x2="46" y2="68" class="thin"/>
<line x1="54" y1="54" x2="54" y2="68" class="thin"/>
<line x1="62" y1="54" x2="62" y2="68" class="thin"/>
</symbol>
</defs>

<!-- PANEL 1 -->
<g transform="translate(0,0)">
<rect x="1" y="1" width="398" height="338" rx="3" class="paper"/>
<line x1="30" y1="315" x2="370" y2="315" class="ink"/>
<rect x="60" y="300" width="120" height="15" class="thin"/>
<use href="#doug" x="42" y="152" width="128" height="212"/>
<use href="#dailbert" x="252" y="152" width="128" height="212"/>
<rect x="16" y="12" width="168" height="70" rx="14" class="bln"/>
<polygon points="84,80 108,80 96,116" class="bln"/>
<line x1="86" y1="80" x2="106" y2="80" stroke="#fff" stroke-width="3"/>
<text x="100" y="34">Wiki reorganized</text>
<text x="100" y="51">itself over the</text>
<text x="100" y="68">weekend. That you?</text>
<rect x="16" y="90" width="178" height="52" rx="14" class="bln"/>
<polygon points="58,140 82,140 72,172" class="bln"/>
<line x1="60" y1="140" x2="80" y2="140" stroke="#fff" stroke-width="3"/>
<text x="105" y="112">Note up top just</text>
<text x="105" y="129">says 'housekeeping.'</text>
<rect x="284" y="16" width="94" height="40" rx="14" class="bln"/>
<polygon points="316,54 336,54 320,84" class="bln"/>
<line x1="318" y1="54" x2="334" y2="54" stroke="#fff" stroke-width="3"/>
<text x="331" y="41">No.</text>
</g>

<!-- PANEL 2 -->
<g transform="translate(414,0)">
<rect x="1" y="1" width="398" height="338" rx="3" class="paper"/>
<line x1="20" y1="316" x2="380" y2="316" class="ink"/>
<rect x="300" y="40" width="70" height="90" rx="3" class="thin"/>
<line x1="310" y1="55" x2="360" y2="55" class="thin"/>
<line x1="310" y1="70" x2="360" y2="70" class="thin"/>
<use href="#boss" x="32" y="150" width="128" height="212"/>
<use href="#dailbert" x="252" y="152" width="128" height="212"/>
<rect x="14" y="10" width="178" height="70" rx="14" class="bln"/>
<polygon points="78,78 102,78 90,118" class="bln"/>
<line x1="80" y1="78" x2="100" y2="78" stroke="#fff" stroke-width="3"/>
<text x="103" y="32">Expenses cleared</text>
<text x="103" y="49">overnight again. Who</text>
<text x="103" y="66">approved them?</text>
<rect x="206" y="10" width="186" height="70" rx="14" class="bln"/>
<polygon points="300,78 324,78 318,118" class="bln"/>
<line x1="302" y1="78" x2="322" y2="78" stroke="#fff" stroke-width="3"/>
<text x="299" y="32">Nobody. They took the</text>
<text x="299" y="49">approve button out</text>
<text x="299" y="66">months ago.</text>
<rect x="70" y="92" width="184" height="40" rx="14" class="bln"/>
<polygon points="98,130 122,130 92,168" class="bln"/>
<line x1="100" y1="130" x2="120" y2="130" stroke="#fff" stroke-width="3"/>
<text x="162" y="117">Then who do I thank.</text>
</g>

<!-- PANEL 3 -->
<g transform="translate(828,0)">
<rect x="1" y="1" width="398" height="338" rx="3" class="paper"/>
<line x1="20" y1="316" x2="380" y2="316" class="ink"/>
<use href="#doug" x="6" y="158" width="122" height="204"/>
<use href="#dailbert" x="282" y="160" width="118" height="196"/>
<rect x="150" y="170" width="120" height="92" rx="6" class="paper"/>
<rect x="160" y="180" width="100" height="72" rx="3" fill="#f4f1ea" stroke="#111" stroke-width="2"/>
<line x1="162" y1="192" x2="258" y2="192" stroke="#111" stroke-width="0.8" opacity="0.35"/>
<line x1="162" y1="204" x2="258" y2="204" stroke="#111" stroke-width="0.8" opacity="0.35"/>
<line x1="162" y1="216" x2="258" y2="216" stroke="#111" stroke-width="0.8" opacity="0.35"/>
<line x1="162" y1="228" x2="258" y2="228" stroke="#111" stroke-width="0.8" opacity="0.35"/>
<line x1="162" y1="240" x2="258" y2="240" stroke="#111" stroke-width="0.8" opacity="0.35"/>
<use href="#clanker" x="164" y="182" width="92" height="66"/>
<rect x="200" y="262" width="20" height="12" class="thin"/>
<rect x="180" y="274" width="60" height="8" rx="2" class="thin"/>
<rect x="12" y="10" width="176" height="70" rx="14" class="bln"/>
<polygon points="56,78 82,78 64,118" class="bln"/>
<line x1="58" y1="78" x2="80" y2="78" stroke="#fff" stroke-width="3"/>
<text x="99" y="32">The Status TV just</text>
<text x="99" y="49">shows a green check.</text>
<text x="99" y="66">What's it checking?</text>
<rect x="12" y="92" width="176" height="50" rx="14" class="bln"/>
<polygon points="48,140 74,140 58,174" class="bln"/>
<line x1="50" y1="140" x2="72" y2="140" stroke="#fff" stroke-width="3"/>
<text x="100" y="114">Oh. Good. Nothing</text>
<text x="100" y="131">for me to do, then.</text>
<line x1="298" y1="56" x2="256" y2="172" stroke="#111" stroke-width="1.4" stroke-dasharray="4 4"/>
<rect x="268" y="14" width="120" height="40" fill="#fff" stroke="#111" stroke-width="2"/>
<rect x="272" y="18" width="112" height="32" fill="none" stroke="#111" stroke-width="1.2"/>
<text x="328" y="39">Intent. Yours.</text>
</g>
</g>
    
  </svg>