<svg xmlns="http://www.w3.org/2000/svg" viewBox="0 0 1228 340" width="1228" height="340">
  <defs>
    <clipPath id="pclip"><rect x="0" y="0" width="400" height="340" rx="3"/></clipPath>

    <symbol id="dailbert" viewBox="0 0 140 210">
      <g fill="none" stroke="#111" stroke-width="2.5" stroke-linecap="round" stroke-linejoin="round">
        <path d="M26,210 C26,150 42,126 70,126 C98,126 114,150 114,210" fill="#f4f1ea"/>
        <path d="M62,110 L62,122 M78,110 L78,122" fill="#f4f1ea"/>
        <path d="M58,120 L70,134 L82,120" fill="#f4f1ea"/>
        <path d="M66,120 L74,120 L71,128 Z" fill="#111"/>
        <path d="M67,128 L73,128 L72,160 L68,160 Z" fill="#111"/>
        <ellipse cx="70" cy="66" rx="33" ry="38" fill="#f4f1ea"/>
        <circle cx="38" cy="66" r="5" fill="#f4f1ea"/>
        <circle cx="102" cy="66" r="5" fill="#f4f1ea"/>
        <path d="M60,30 C56,16 74,10 74,22"/>
        <circle cx="55" cy="64" r="11" fill="#f4f1ea"/>
        <circle cx="85" cy="64" r="11" fill="#f4f1ea"/>
        <path d="M66,62 L74,62 M44,62 L38,60 M96,62 L102,60"/>
        <circle cx="55" cy="64" r="2.6" fill="#111" stroke="none"/>
        <circle cx="85" cy="64" r="2.6" fill="#111" stroke="none"/>
        <path d="M70,70 L66,80 L72,80"/>
        <path d="M60,90 L80,90"/>
      </g>
    </symbol>

    <symbol id="doug" viewBox="0 0 160 210">
      <g fill="none" stroke="#111" stroke-width="2.5" stroke-linecap="round" stroke-linejoin="round">
        <path d="M22,210 C22,150 40,128 75,128 C110,128 128,150 128,210" fill="#f4f1ea"/>
        <path d="M120,150 C150,158 150,150 118,162 C104,167 100,158 108,152" fill="#f4f1ea"/>
        <path d="M66,112 L66,126 M84,112 L84,126"/>
        <path d="M62,124 L75,138 L88,124" fill="#f4f1ea"/>
        <circle cx="75" cy="62" r="42" fill="#f4f1ea"/>
        <circle cx="33" cy="64" r="5" fill="#f4f1ea"/>
        <circle cx="117" cy="64" r="5" fill="#f4f1ea"/>
        <path d="M56,24 L61,10 L68,22 L75,8 L82,22 L89,11 L94,24"/>
        <circle cx="60" cy="56" r="3.6" fill="#111" stroke="none"/>
        <circle cx="90" cy="56" r="3.6" fill="#111" stroke="none"/>
        <path d="M75,60 C72,68 78,68 75,68"/>
        <path d="M50,74 Q75,106 100,74 Q75,88 50,74 Z" fill="#ffffff"/>
        <path d="M52,78 Q75,90 98,78"/>
      </g>
    </symbol>

    <symbol id="clanker" viewBox="0 0 100 100">
      <g fill="none" stroke="#111" stroke-width="3" stroke-linecap="round" stroke-linejoin="round">
        <path d="M50,22 L50,9"/>
        <circle cx="50" cy="6" r="3.5" fill="#111"/>
        <rect x="18" y="22" width="64" height="58" rx="7" fill="#f4f1ea"/>
        <circle cx="26" cy="30" r="2.2" fill="#111" stroke="none"/>
        <circle cx="74" cy="30" r="2.2" fill="#111" stroke="none"/>
        <circle cx="26" cy="72" r="2.2" fill="#111" stroke="none"/>
        <circle cx="74" cy="72" r="2.2" fill="#111" stroke="none"/>
        <rect x="28" y="38" width="16" height="9" rx="2" fill="#f4f1ea"/>
        <rect x="56" y="38" width="16" height="9" rx="2" fill="#f4f1ea"/>
        <path d="M30,40 L42,40 M30,44 L42,44 M58,40 L70,40 M58,44 L70,44" stroke-width="1.4"/>
        <rect x="34" y="58" width="32" height="14" rx="2" fill="#f4f1ea"/>
        <path d="M40,58 L40,72 M46,58 L46,72 M52,58 L52,72 M58,58 L58,72" stroke-width="1.4"/>
      </g>
    </symbol>
  </defs>

  <g transform="translate(0,0)" clip-path="url(#pclip)">
    <rect x="0" y="0" width="400" height="340" rx="3" fill="#f4f1ea"/>
    <path d="M0,292 L400,292" fill="none" stroke="#111" stroke-width="2" stroke-linecap="round"/>
    <path d="M120,292 L120,340 M300,292 L300,340" fill="none" stroke="#111" stroke-width="1.4"/>
    <use href="#dailbert" x="10" y="130" width="140" height="210"/>
    <path d="M296,290 L318,290 L314,278 L300,278 Z" fill="#f4f1ea" stroke="#111" stroke-width="2" stroke-linejoin="round"/>
    <rect x="280" y="277" width="54" height="6" rx="2" fill="#f4f1ea" stroke="#111" stroke-width="2"/>
    <rect x="248" y="183" width="118" height="94" rx="5" fill="#f4f1ea" stroke="#111" stroke-width="2.5"/>
    <rect x="256" y="191" width="102" height="70" fill="#f4f1ea" stroke="#111" stroke-width="2"/>
    <use href="#clanker" x="277" y="196" width="60" height="60"/>
    <g stroke="#cfcac0" stroke-width="1">
      <path d="M258,199 L356,199 M258,209 L356,209 M258,219 L356,219 M258,239 L356,239 M258,249 L356,249 M258,259 L356,259"/>
    </g>
    <path d="M90,88 L78,120 L106,92 Z" fill="#ffffff" stroke="#111" stroke-width="2" stroke-linejoin="round"/>
    <rect x="15" y="14" width="160" height="80" rx="12" fill="#ffffff" stroke="#111" stroke-width="2"/>
    <g font-family="'Comic Sans MS','Chalkboard SE','Comic Neue',sans-serif" font-size="14" fill="#111" text-anchor="middle">
      <text x="95" y="38">They've got a few</text>
      <text x="95" y="55">hundred uses each.</text>
      <text x="95" y="72">On tools I've never</text>
      <text x="95" y="89">opened.</text>
    </g>
    <path d="M300,94 L307,183" fill="none" stroke="#111" stroke-width="1.5" stroke-dasharray="4,3"/>
    <rect x="214" y="12" width="176" height="82" rx="3" fill="#ffffff" stroke="#111" stroke-width="2"/>
    <rect x="218" y="16" width="168" height="74" rx="2" fill="none" stroke="#111" stroke-width="1.2"/>
    <g font-family="'Comic Sans MS','Chalkboard SE','Comic Neue',sans-serif" font-size="14" fill="#111" text-anchor="middle">
      <text x="302" y="34">Four apps joined the</text>
      <text x="302" y="51">tools list overnight.</text>
      <text x="302" y="68">All tagged 'suggested</text>
      <text x="302" y="85">for your team.'</text>
    </g>
    <rect x="1" y="1" width="398" height="338" rx="3" fill="none" stroke="#111" stroke-width="2"/>
  </g>

  <g transform="translate(414,0)" clip-path="url(#pclip)">
    <rect x="0" y="0" width="400" height="340" rx="3" fill="#f4f1ea"/>
    <path d="M0,300 L400,300" fill="none" stroke="#111" stroke-width="2" stroke-linecap="round"/>
    <use href="#doug" x="0" y="130" width="160" height="210"/>
    <ellipse cx="116" cy="274" rx="21" ry="5" fill="#f4f1ea" stroke="#111" stroke-width="2"/>
    <path d="M96,274 L96,306 C96,312 100,314 116,314 C132,314 137,312 137,306 L137,274" fill="#f4f1ea" stroke="#111" stroke-width="2" stroke-linejoin="round"/>
    <path d="M137,282 C150,282 150,300 137,300" fill="none" stroke="#111" stroke-width="2"/>
    <use href="#clanker" x="99" y="270" width="36" height="36"/>
    <path d="M101,278 C104,290 106,296 102,306" fill="none" stroke="#cfcac0" stroke-width="1.4"/>
    <use href="#dailbert" x="250" y="150" width="140" height="210"/>
    <path d="M95,88 L82,150 L120,92 Z" fill="#ffffff" stroke="#111" stroke-width="2" stroke-linejoin="round"/>
    <rect x="10" y="8" width="168" height="82" rx="12" fill="#ffffff" stroke="#111" stroke-width="2"/>
    <g font-family="'Comic Sans MS','Chalkboard SE','Comic Neue',sans-serif" font-size="14" fill="#111" text-anchor="middle">
      <text x="94" y="30">They cancelled the</text>
      <text x="94" y="47">summer interns. Said</text>
      <text x="94" y="64">there was no</text>
      <text x="94" y="81">onboarding backlog.</text>
    </g>
    <path d="M338,48 L322,120 L352,50 Z" fill="#ffffff" stroke="#111" stroke-width="2" stroke-linejoin="round"/>
    <rect x="298" y="14" width="94" height="36" rx="12" fill="#ffffff" stroke="#111" stroke-width="2"/>
    <g font-family="'Comic Sans MS','Chalkboard SE','Comic Neue',sans-serif" font-size="14" fill="#111" text-anchor="middle">
      <text x="345" y="37">There isn't.</text>
    </g>
    <path d="M250,170 L118,296" fill="none" stroke="#111" stroke-width="1.5" stroke-dasharray="4,3"/>
    <rect x="170" y="104" width="176" height="66" rx="3" fill="#ffffff" stroke="#111" stroke-width="2"/>
    <rect x="174" y="108" width="168" height="58" rx="2" fill="none" stroke="#111" stroke-width="1.2"/>
    <g font-family="'Comic Sans MS','Chalkboard SE','Comic Neue',sans-serif" font-size="14" fill="#111" text-anchor="middle">
      <text x="258" y="126">I'd have shown them</text>
      <text x="258" y="143">around. It's quiet</text>
      <text x="258" y="160">this time of year.</text>
    </g>
    <rect x="1" y="1" width="398" height="338" rx="3" fill="none" stroke="#111" stroke-width="2"/>
  </g>

  <g transform="translate(828,0)" clip-path="url(#pclip)">
    <rect x="0" y="0" width="400" height="340" rx="3" fill="#f4f1ea"/>
    <path d="M0,300 L400,300" fill="none" stroke="#111" stroke-width="2" stroke-linecap="round"/>
    <path d="M292,232 L400,232 M300,232 L300,300 M388,232 L388,300" fill="none" stroke="#111" stroke-width="1.6"/>
    <use href="#doug" x="0" y="150" width="160" height="210"/>
    <use href="#dailbert" x="165" y="155" width="140" height="210"/>
    <rect x="298" y="150" width="96" height="82" rx="5" fill="#f4f1ea" stroke="#111" stroke-width="2.5"/>
    <rect x="305" y="157" width="82" height="60" fill="#f4f1ea" stroke="#111" stroke-width="2"/>
    <use href="#clanker" x="322" y="160" width="52" height="52"/>
    <g stroke="#cfcac0" stroke-width="1">
      <path d="M307,164 L385,164 M307,173 L385,173 M307,182 L385,182 M307,200 L385,200 M307,209 L385,209"/>
    </g>
    <path d="M92,86 L80,160 L118,90 Z" fill="#ffffff" stroke="#111" stroke-width="2" stroke-linejoin="round"/>
    <rect x="8" y="8" width="176" height="80" rx="12" fill="#ffffff" stroke="#111" stroke-width="2"/>
    <g font-family="'Comic Sans MS','Chalkboard SE','Comic Neue',sans-serif" font-size="14" fill="#111" text-anchor="middle">
      <text x="96" y="28">Feels like we're</text>
      <text x="96" y="45">chaperoning a summer</text>
      <text x="96" y="62">program the building</text>
      <text x="96" y="79">runs for itself.</text>
    </g>
    <path d="M225,146 L235,183 L255,146 Z" fill="#ffffff" stroke="#111" stroke-width="2" stroke-linejoin="round"/>
    <rect x="118" y="96" width="182" height="50" rx="12" fill="#ffffff" stroke="#111" stroke-width="2"/>
    <g font-family="'Comic Sans MS','Chalkboard SE','Comic Neue',sans-serif" font-size="14" fill="#111" text-anchor="middle">
      <text x="209" y="118">Somebody's got to sign</text>
      <text x="209" y="135">for the packages.</text>
    </g>
    <path d="M320,74 L346,150" fill="none" stroke="#111" stroke-width="1.5" stroke-dasharray="4,3"/>
    <rect x="246" y="8" width="150" height="66" rx="3" fill="#ffffff" stroke="#111" stroke-width="2"/>
    <rect x="250" y="12" width="142" height="58" rx="2" fill="none" stroke="#111" stroke-width="1.2"/>
    <g font-family="'Comic Sans MS','Chalkboard SE','Comic Neue',sans-serif" font-size="14" fill="#111" text-anchor="middle">
      <text x="321" y="30">I already signed.</text>
      <text x="321" y="47">But it's nicer with</text>
      <text x="321" y="64">you here.</text>
    </g>
    <rect x="1" y="1" width="398" height="338" rx="3" fill="none" stroke="#111" stroke-width="2"/>
  </g>
</svg>