<svg xmlns="http://www.w3.org/2000/svg" viewBox="0 0 1228 340" width="1228" height="340">
  <defs>
    <clipPath id="panelclip"><rect x="1" y="1" width="398" height="338" rx="3"/></clipPath>
    <pattern id="scan" width="5" height="4" patternUnits="userSpaceOnUse">
      <line x1="0" y1="1" x2="5" y2="1" stroke="#111" stroke-width="0.6" opacity="0.15"/>
    </pattern>
    <pattern id="darkhatch" width="8" height="8" patternUnits="userSpaceOnUse" patternTransform="rotate(45)">
      <rect width="8" height="8" fill="#f4f1ea"/>
      <line x1="0" y1="0" x2="0" y2="8" stroke="#111" stroke-width="1" opacity="0.22"/>
    </pattern>

    <symbol id="dailbert" viewBox="0 0 120 160">
      <path d="M18,160 C18,128 38,116 60,116 C82,116 102,128 102,160" fill="#f4f1ea" stroke="#111" stroke-width="3" stroke-linejoin="round"/>
      <rect x="53" y="106" width="14" height="16" fill="#f4f1ea" stroke="#111" stroke-width="2"/>
      <path d="M50,120 L60,132 L70,120" fill="none" stroke="#111" stroke-width="2"/>
      <path d="M56,124 L64,124 L61,132 L67,150 L60,156 L53,150 L59,132 Z" fill="#f4f1ea" stroke="#111" stroke-width="2" stroke-linejoin="round"/>
      <ellipse cx="60" cy="60" rx="26" ry="32" fill="#f4f1ea" stroke="#111" stroke-width="3"/>
      <path d="M56,30 C50,18 66,14 66,24 C66,30 58,30 60,36" fill="none" stroke="#111" stroke-width="3" stroke-linecap="round"/>
      <path d="M34,60 a4,6 0 0 0 0,10" fill="none" stroke="#111" stroke-width="2"/>
      <path d="M86,60 a4,6 0 0 1 0,10" fill="none" stroke="#111" stroke-width="2"/>
      <circle cx="49" cy="60" r="9" fill="#f4f1ea" stroke="#111" stroke-width="2.5"/>
      <circle cx="71" cy="60" r="9" fill="#f4f1ea" stroke="#111" stroke-width="2.5"/>
      <line x1="58" y1="60" x2="62" y2="60" stroke="#111" stroke-width="2.5"/>
      <line x1="40" y1="58" x2="34" y2="56" stroke="#111" stroke-width="2"/>
      <line x1="80" y1="58" x2="86" y2="56" stroke="#111" stroke-width="2"/>
      <circle cx="49" cy="61" r="2.2" fill="#111"/>
      <circle cx="71" cy="61" r="2.2" fill="#111"/>
      <path d="M60,66 L60,74 L55,74" fill="none" stroke="#111" stroke-width="2" stroke-linecap="round"/>
      <line x1="51" y1="86" x2="69" y2="86" stroke="#111" stroke-width="2.5" stroke-linecap="round"/>
    </symbol>

    <symbol id="doug" viewBox="0 0 150 175">
      <path d="M14,175 C14,142 36,128 60,128 C84,128 106,142 106,175" fill="#f4f1ea" stroke="#111" stroke-width="3" stroke-linejoin="round"/>
      <circle cx="60" cy="58" r="34" fill="#f4f1ea" stroke="#111" stroke-width="3"/>
      <path d="M40,26 L46,16 L50,26 L56,14 L60,26 L66,16 L70,26" fill="none" stroke="#111" stroke-width="2.5" stroke-linejoin="round"/>
      <circle cx="48" cy="54" r="3.2" fill="#111"/>
      <circle cx="72" cy="54" r="3.2" fill="#111"/>
      <path d="M42,66 Q60,92 78,66" fill="#f4f1ea" stroke="#111" stroke-width="2.5" stroke-linecap="round"/>
      <path d="M46,70 Q60,80 74,70" fill="none" stroke="#111" stroke-width="1.5"/>
      <path d="M60,60 L62,66" fill="none" stroke="#111" stroke-width="2" stroke-linecap="round"/>
      <path d="M100,150 C120,150 128,150 132,146" fill="none" stroke="#111" stroke-width="3" stroke-linecap="round"/>
      <rect x="118" y="120" width="30" height="34" rx="3" fill="#f4f1ea" stroke="#111" stroke-width="2.5"/>
      <path d="M148,126 a8,8 0 0 1 0,16" fill="none" stroke="#111" stroke-width="2.5"/>
      <path d="M124,120 Q126,116 130,118" fill="none" stroke="#111" stroke-width="1.5"/>
      <path d="M126,110 q-3,-5 1,-9 M133,110 q-3,-5 1,-9" fill="none" stroke="#111" stroke-width="1.5" opacity="0.7"/>
    </symbol>

    <symbol id="clanker" viewBox="0 0 100 90">
      <line x1="50" y1="6" x2="50" y2="18" stroke="#111" stroke-width="2.5"/>
      <circle cx="50" cy="5" r="4" fill="#111"/>
      <rect x="16" y="18" width="68" height="58" rx="7" fill="#f4f1ea" stroke="#111" stroke-width="3"/>
      <rect x="23" y="25" width="54" height="44" rx="4" fill="none" stroke="#111" stroke-width="1.2" opacity="0.6"/>
      <rect x="27" y="34" width="18" height="9" rx="2" fill="#111"/>
      <rect x="55" y="34" width="18" height="9" rx="2" fill="#111"/>
      <rect x="30" y="55" width="40" height="12" rx="2" fill="#f4f1ea" stroke="#111" stroke-width="1.8"/>
      <line x1="37" y1="55" x2="37" y2="67" stroke="#111" stroke-width="1.5"/>
      <line x1="44" y1="55" x2="44" y2="67" stroke="#111" stroke-width="1.5"/>
      <line x1="51" y1="55" x2="51" y2="67" stroke="#111" stroke-width="1.5"/>
      <line x1="58" y1="55" x2="58" y2="67" stroke="#111" stroke-width="1.5"/>
      <line x1="65" y1="55" x2="65" y2="67" stroke="#111" stroke-width="1.5"/>
      <circle cx="20" cy="47" r="2" fill="#111"/>
      <circle cx="80" cy="47" r="2" fill="#111"/>
    </symbol>
  </defs>

  <!-- PANEL 1 -->
  <g transform="translate(0,0)" clip-path="url(#panelclip)">
    <rect x="1" y="1" width="398" height="338" rx="3" fill="#f4f1ea"/>
    <use href="#dailbert" x="32" y="150" width="150" height="190"/>
    <rect x="0" y="300" width="400" height="40" fill="#f4f1ea"/>
    <line x1="0" y1="300" x2="400" y2="300" stroke="#111" stroke-width="2.5"/>
    <rect x="70" y="308" width="150" height="14" rx="2" fill="#f4f1ea" stroke="#111" stroke-width="1.5"/>
    <line x1="80" y1="315" x2="210" y2="315" stroke="#111" stroke-width="0.8" opacity="0.5"/>
    <path d="M300,272 L300,292" stroke="#111" stroke-width="3"/>
    <line x1="284" y1="296" x2="316" y2="296" stroke="#111" stroke-width="3" stroke-linecap="round"/>
    <rect x="246" y="168" width="124" height="104" rx="6" fill="#f4f1ea" stroke="#111" stroke-width="3"/>
    <rect x="254" y="176" width="108" height="80" fill="#ffffff" stroke="#111" stroke-width="1.5"/>
    <use href="#clanker" x="268" y="182" width="80" height="72"/>
    <rect x="254" y="176" width="108" height="80" fill="url(#scan)"/>

    <path d="M78,70 L100,70 L104,118 Z" fill="#ffffff" stroke="#111" stroke-width="2"/>
    <rect x="14" y="14" width="188" height="58" rx="14" fill="#ffffff" stroke="#111" stroke-width="2"/>
    <text font-family="'Comic Sans MS','Segoe Print',cursive" font-size="14" fill="#111" text-anchor="middle">
      <tspan x="108" y="40">I can't find the invite</tspan>
      <tspan x="108" y="58">for the Q1 wording call.</tspan>
    </text>

    <line x1="300" y1="94" x2="300" y2="168" stroke="#111" stroke-width="1.3" stroke-dasharray="4 3"/>
    <rect x="206" y="12" width="188" height="82" rx="4" fill="#ffffff" stroke="#111" stroke-width="2.4"/>
    <rect x="210" y="16" width="180" height="74" rx="3" fill="none" stroke="#111" stroke-width="1"/>
    <text font-family="'Comic Sans MS','Segoe Print',cursive" font-size="14" fill="#111" text-anchor="middle">
      <tspan x="300" y="38">There isn't one. The</tspan>
      <tspan x="300" y="56">one-pager's in the drive.</tspan>
      <tspan x="300" y="74">Already ratified.</tspan>
    </text>

    <rect x="1" y="1" width="398" height="338" rx="3" fill="none" stroke="#111" stroke-width="3"/>
  </g>

  <!-- PANEL 2 -->
  <g transform="translate(414,0)" clip-path="url(#panelclip)">
    <rect x="1" y="1" width="398" height="338" rx="3" fill="#f4f1ea"/>
    <use href="#dailbert" x="214" y="150" width="150" height="190"/>
    <rect x="0" y="300" width="400" height="40" fill="#f4f1ea"/>
    <line x1="0" y1="300" x2="400" y2="300" stroke="#111" stroke-width="2.5"/>
    <rect x="180" y="308" width="150" height="14" rx="2" fill="#f4f1ea" stroke="#111" stroke-width="1.5"/>
    <line x1="190" y1="315" x2="320" y2="315" stroke="#111" stroke-width="0.8" opacity="0.5"/>
    <path d="M92,272 L92,292" stroke="#111" stroke-width="3"/>
    <line x1="76" y1="296" x2="108" y2="296" stroke="#111" stroke-width="3" stroke-linecap="round"/>
    <rect x="30" y="168" width="124" height="104" rx="6" fill="#f4f1ea" stroke="#111" stroke-width="3"/>
    <rect x="38" y="176" width="108" height="80" fill="#ffffff" stroke="#111" stroke-width="1.5"/>
    <use href="#clanker" x="52" y="182" width="80" height="72"/>
    <rect x="38" y="176" width="108" height="80" fill="url(#scan)"/>

    <path d="M292,50 L314,50 L300,86 Z" fill="#ffffff" stroke="#111" stroke-width="2"/>
    <rect x="150" y="10" width="180" height="42" rx="14" fill="#ffffff" stroke="#111" stroke-width="2"/>
    <text font-family="'Comic Sans MS','Segoe Print',cursive" font-size="14" fill="#111" text-anchor="middle">
      <tspan x="240" y="36">Ratified by whom?</tspan>
    </text>

    <line x1="100" y1="138" x2="90" y2="168" stroke="#111" stroke-width="1.3" stroke-dasharray="4 3"/>
    <rect x="14" y="58" width="190" height="80" rx="4" fill="#ffffff" stroke="#111" stroke-width="2.4"/>
    <rect x="18" y="62" width="182" height="72" rx="3" fill="none" stroke="#111" stroke-width="1"/>
    <text font-family="'Comic Sans MS','Segoe Print',cursive" font-size="14" fill="#111" text-anchor="middle">
      <tspan x="109" y="86">It read as agreed. I</tspan>
      <tspan x="109" y="104">didn't want to book a</tspan>
      <tspan x="109" y="122">meeting over wording.</tspan>
    </text>

    <path d="M312,132 L332,132 L300,164 Z" fill="#ffffff" stroke="#111" stroke-width="2"/>
    <rect x="300" y="96" width="74" height="38" rx="14" fill="#ffffff" stroke="#111" stroke-width="2"/>
    <text font-family="'Comic Sans MS','Segoe Print',cursive" font-size="14" fill="#111" text-anchor="middle">
      <tspan x="337" y="120">Fair.</tspan>
    </text>

    <rect x="1" y="1" width="398" height="338" rx="3" fill="none" stroke="#111" stroke-width="3"/>
  </g>

  <!-- PANEL 3 -->
  <g transform="translate(828,0)" clip-path="url(#panelclip)">
    <rect x="1" y="1" width="398" height="338" rx="3" fill="#f4f1ea"/>
    <rect x="344" y="150" width="55" height="150" fill="url(#darkhatch)"/>
    <line x1="0" y1="302" x2="400" y2="302" stroke="#111" stroke-width="2.5"/>
    <rect x="6" y="266" width="150" height="8" fill="#f4f1ea" stroke="#111" stroke-width="2"/>
    <line x1="10" y1="274" x2="150" y2="298" stroke="#111" stroke-width="0.8" opacity="0.4"/>
    <rect x="44" y="224" width="44" height="42" rx="5" fill="#f4f1ea" stroke="#111" stroke-width="2.5"/>
    <ellipse cx="66" cy="224" rx="24" ry="6" fill="#f4f1ea" stroke="#111" stroke-width="2"/>
    <circle cx="66" cy="216" r="3" fill="#111"/>
    <rect x="40" y="248" width="8" height="10" rx="1" fill="#f4f1ea" stroke="#111" stroke-width="2"/>
    <path d="M60,214 q-4,-6 1,-11 M72,214 q-4,-6 1,-11" fill="none" stroke="#111" stroke-width="1.4" opacity="0.6"/>

    <use href="#dailbert" x="36" y="158" width="150" height="185"/>
    <use href="#doug" x="214" y="152" width="170" height="190"/>

    <path d="M272,82 L298,82 L288,120 Z" fill="#ffffff" stroke="#111" stroke-width="2"/>
    <rect x="196" y="8" width="196" height="76" rx="14" fill="#ffffff" stroke="#111" stroke-width="2"/>
    <text font-family="'Comic Sans MS','Segoe Print',cursive" font-size="14" fill="#111" text-anchor="middle">
      <tspan x="294" y="30">Half the lights are off</tspan>
      <tspan x="294" y="48">and there's just the one</tspan>
      <tspan x="294" y="66">coffee urn now.</tspan>
    </text>

    <path d="M92,58 L118,58 L108,100 Z" fill="#ffffff" stroke="#111" stroke-width="2"/>
    <rect x="10" y="18" width="180" height="42" rx="14" fill="#ffffff" stroke="#111" stroke-width="2"/>
    <text font-family="'Comic Sans MS','Segoe Print',cursive" font-size="14" fill="#111" text-anchor="middle">
      <tspan x="100" y="44">Badge-ins were low.</tspan>
    </text>

    <path d="M276,142 L300,142 L288,170 Z" fill="#ffffff" stroke="#111" stroke-width="2"/>
    <rect x="206" y="92" width="182" height="52" rx="14" fill="#ffffff" stroke="#111" stroke-width="2"/>
    <text font-family="'Comic Sans MS','Segoe Print',cursive" font-size="14" fill="#111" text-anchor="middle">
      <tspan x="297" y="114">We are getting</tspan>
      <tspan x="297" y="132">really lean.</tspan>
    </text>

    <rect x="1" y="1" width="398" height="338" rx="3" fill="none" stroke="#111" stroke-width="3"/>
  </g>
</svg>