<svg xmlns="http://www.w3.org/2000/svg" viewBox="0 0 1228 388" width="1228" height="388" font-family="Georgia,serif">
    <rect width="1228" height="388" fill="#f4f1ea"/>
    <text x="4" y="26" font-family="Georgia,serif" font-weight="bold" font-size="22" fill="#111">Oh, Good</text>
    <text x="1224" y="26" text-anchor="end" font-family="'Courier New',monospace" font-size="14" fill="#111" opacity="0.7">2029-04-30</text>
    <line x1="4" y1="34" x2="1224" y2="34" stroke="#111" stroke-width="2"/>
    <g transform="translate(0,40)"><defs><style>text{font-family:'Comic Sans MS','Segoe Print',cursive;font-size:14px;fill:#111;text-anchor:middle}.i{fill:none;stroke:#111;stroke-width:2.5;stroke-linejoin:round;stroke-linecap:round}.paper{fill:#f4f1ea}.fill{fill:#111}.b{fill:#f4f1ea;stroke:#111;stroke-width:3}.c{fill:none;stroke:#111;stroke-width:1.4;stroke-dasharray:4 4}</style>

<g id="dailbert"><path class="paper i" d="M-32,96 L-30,26 Q-28,8 -12,4 L12,4 Q28,8 30,26 L32,96"/><path class="i" d="M-12,4 L0,18 L12,4"/><path class="paper i" d="M0,18 L-6,28 L0,66 L6,28 Z"/><path class="paper i" d="M-8,4 L-8,-10 L8,-10 L8,4"/><ellipse class="paper i" cx="0" cy="-42" rx="26" ry="30"/><path class="paper i" d="M-26,-44 q-6,2 -1,8"/><path class="paper i" d="M26,-44 q6,2 1,8"/><path class="i" d="M2,-72 q-11,-6 -1,-13 q9,-4 5,5"/><circle class="paper i" cx="-11" cy="-44" r="9"/><circle class="paper i" cx="11" cy="-44" r="9"/><path class="i" d="M-2,-44 h4"/><path class="i" d="M-20,-46 l-6,-2"/><path class="i" d="M20,-46 l6,-2"/><circle class="fill" cx="-11" cy="-44" r="2"/><circle class="fill" cx="11" cy="-44" r="2"/><path class="i" d="M-8,-24 q8,3 16,0"/></g>

<g id="doug"><path class="paper i" d="M-34,96 L-32,26 Q-30,8 -12,4 L12,4 Q30,8 32,26 L34,96"/><path class="i" d="M-12,4 L0,16 L12,4"/><path class="paper i" d="M-8,4 L-8,-10 L8,-10 L8,4"/><circle class="paper i" cx="0" cy="-40" r="30"/><path class="paper i" d="M-30,-42 q-6,2 -1,8"/><path class="paper i" d="M30,-42 q6,2 1,8"/><path class="i" d="M-8,-68 q6,-9 12,-1"/><path class="i" d="M2,-70 q6,-6 11,-1"/><circle class="fill" cx="-11" cy="-44" r="2.5"/><circle class="fill" cx="11" cy="-44" r="2.5"/><path class="i" d="M-15,-30 q15,17 30,0"/><path class="i" d="M-12,-27 q12,7 24,0"/><path class="paper i" d="M30,30 q22,-2 24,-24"/><rect class="paper i" x="46" y="-8" width="22" height="22" rx="2"/><path class="i" d="M68,-3 q9,0 9,8 q0,8 -9,7"/><path class="i" d="M52,-16 q-3,-5 2,-9"/><path class="i" d="M60,-16 q-3,-5 2,-9"/></g>

<g id="monitor"><path class="paper i" d="M-10,52 L-14,76 L14,76 L10,52 Z"/><ellipse class="paper i" cx="0" cy="78" rx="27" ry="6"/><rect class="paper i" x="-64" y="-52" width="128" height="104" rx="7"/><rect class="paper i" x="-54" y="-42" width="108" height="84" rx="3"/><g stroke="#111" stroke-width="1" opacity="0.1"><line x1="-54" y1="-34" x2="54" y2="-34"/><line x1="-54" y1="-26" x2="54" y2="-26"/><line x1="-54" y1="-18" x2="54" y2="-18"/><line x1="-54" y1="26" x2="54" y2="26"/><line x1="-54" y1="34" x2="54" y2="34"/></g><path class="i" d="M0,-40 L0,-30"/><circle class="fill" cx="0" cy="-42" r="3"/><rect class="paper i" x="-34" y="-30" width="68" height="54" rx="6"/><rect class="fill" x="-25" y="-16" width="18" height="9" rx="2"/><rect class="fill" x="7" y="-16" width="18" height="9" rx="2"/><line x1="-23" y1="-11.5" x2="-9" y2="-11.5" stroke="#f4f1ea" stroke-width="1.6"/><line x1="9" y1="-11.5" x2="23" y2="-11.5" stroke="#f4f1ea" stroke-width="1.6"/><rect class="paper i" x="-20" y="4" width="40" height="14" rx="2"/><line class="i" x1="-12" y1="4" x2="-12" y2="18"/><line class="i" x1="-4" y1="4" x2="-4" y2="18"/><line class="i" x1="4" y1="4" x2="4" y2="18"/><line class="i" x1="12" y1="4" x2="12" y2="18"/></g>
</defs>

<!-- PANEL 1 -->
<g transform="translate(0,0)"><rect class="b" x="2" y="2" width="396" height="336" rx="3"/><use href="#dailbert" transform="translate(95,250)"/><use href="#monitor" transform="translate(300,235)"/><rect class="paper" x="6" y="306" width="388" height="34"/><line class="i" x1="6" y1="306" x2="394" y2="306"/>
<path class="paper i" d="M95,94 L98,170 L120,94"/><rect class="paper i" x="22" y="18" width="186" height="76" rx="12"/><text x="115" y="44"><tspan x="115" dy="0">There's no menu</tspan><tspan x="115" dy="20">anymore. Just one</tspan><tspan x="115" dy="20">blank page.</tspan></text>
<path class="c" d="M303,96 L300,183"/><rect class="paper i" x="214" y="18" width="178" height="76" rx="3"/><rect class="i" x="219" y="23" width="168" height="66" rx="2"/><text x="303" y="42"><tspan x="303" dy="0">It shows whatever you</tspan><tspan x="303" dy="20">were about to need.</tspan><tspan x="303" dy="20">Today it's blank.</tspan></text>
<path class="paper i" d="M128,152 L100,182 L150,152"/><rect class="paper i" x="118" y="120" width="64" height="32" rx="12"/><text x="150" y="141">Fair.</text></g>

<!-- PANEL 2 -->
<g transform="translate(414,0)"><rect class="b" x="2" y="2" width="396" height="336" rx="3"/><rect class="paper i" x="165" y="196" width="100" height="104" rx="2"/><line class="i" x1="215" y1="196" x2="215" y2="300"/><line class="i" x1="165" y1="248" x2="265" y2="248"/><ellipse class="paper i" cx="215" cy="312" rx="50" ry="13"/><path class="i" d="M172,310 q43,-13 86,0"/><use href="#doug" transform="translate(100,248)"/><use href="#dailbert" transform="translate(300,248)"/>
<path class="paper i" d="M95,94 L102,180 L120,94"/><rect class="paper i" x="22" y="18" width="186" height="76" rx="12"/><text x="115" y="42"><tspan x="115" dy="0">My paycheck note says</tspan><tspan x="115" dy="20">'a bit extra, you'll</tspan><tspan x="115" dy="20">see why later.'</tspan></text>
<path class="paper i" d="M290,94 L300,180 L315,94"/><rect class="paper i" x="214" y="18" width="182" height="76" rx="12"/><text x="305" y="42"><tspan x="305" dy="0">There's a dog bed by</tspan><tspan x="305" dy="20">the window now.</tspan><tspan x="305" dy="20">Nobody ordered it.</tspan></text>
<path class="paper i" d="M160,194 L120,200 L185,194"/><rect class="paper i" x="150" y="140" width="170" height="54" rx="12"/><text x="235" y="162"><tspan x="235" dy="0">Honestly, place is</tspan><tspan x="235" dy="20">really coming together.</tspan></text></g>

<!-- PANEL 3 -->
<g transform="translate(828,0)"><rect class="b" x="2" y="2" width="396" height="336" rx="3"/><use href="#monitor" transform="translate(110,235)"/><use href="#dailbert" transform="translate(300,250)"/><rect class="paper" x="6" y="306" width="388" height="34"/><line class="i" x1="6" y1="306" x2="394" y2="306"/>
<path class="paper i" d="M282,94 L300,180 L305,94"/><rect class="paper i" x="205" y="18" width="188" height="76" rx="12"/><text x="299" y="42"><tspan x="299" dy="0">The front door stopped</tspan><tspan x="299" dy="20">saying my name. Now it</tspan><tspan x="299" dy="20">just says 'oh, good.'</tspan></text>
<path class="c" d="M107,84 L110,183"/><rect class="paper i" x="20" y="24" width="174" height="58" rx="3"/><rect class="i" x="25" y="29" width="164" height="48" rx="2"/><text x="107" y="50"><tspan x="107" dy="0">You came in. That's</tspan><tspan x="107" dy="20">the part I like.</tspan></text></g>
</g>
    
  </svg>